<?xml version="1.0" encoding="UTF-8"?>
<svg xmlns="http://www.w3.org/2000/svg" version="1.1" viewBox="0 0 179.2 179">
  <defs>
    <style>
      .cls-1 {
        fill: #f5f7fc;
      }

      .cls-2 {
        fill: #3157a4;
      }

      .cls-3 {
        fill: #3359a5;
      }

      .cls-4 {
        fill: #fafbfe;
      }
    </style>
  </defs>
  <!-- Generator: Adobe Illustrator 28.7.4, SVG Export Plug-In . SVG Version: 1.2.0 Build 166)  -->
  <g>
    <g id="Calque_1">
      <g id="Calque_1-2" data-name="Calque_1">
        <g>
          <path class="cls-3" d="M26.3,28.8c8.2-7.1,16.6-13.8,26.6-18.3,35.8-16.2,77.3-7.3,103.1,22.3,1,1.1,2.1,2.1,3.1,3.2,3.3,5.3,6.5,10.5,9.8,15.8,5,12.8,8.3,25.8,8.2,39.7-.4,44.7-35,81.8-79.5,85.4-45.8,3.7-84.1-24.8-93.6-69.7-.3-1.6-.2-3.4-1.5-4.6-.2-10.3-.8-20.5,1.3-30.7,3.5-16.5,11.4-30.6,22.5-43h0ZM89.6,15.8c-41.6-.2-73.6,33.7-74.3,72-.9,42.8,33,76.6,74.5,76.5,40.4,0,74.2-33.6,74.2-73.3S131,15.8,89.6,15.9h0Z"/>
          <path class="cls-1" d="M89.6,15.8c41.4,0,74.4,33.3,74.4,75.1s-33.9,73.3-74.2,73.3S14.4,130.5,15.3,87.7C16.1,49.4,48,15.5,89.6,15.7h0ZM21.1,89.3c.6,39.9,31,70.4,70.3,69.2,38.9-1.2,67-32.5,66.7-68.8-.3-38.7-31.1-68.5-69.9-68.1-37,.4-67.7,31.4-67.2,67.7h0Z"/>
          <path class="cls-2" d="M21.1,89.3c-.5-36.3,30.2-67.2,67.2-67.7,38.7-.4,69.5,29.4,69.9,68.1.3,36.3-27.8,67.6-66.7,68.8-39.2,1.2-69.7-29.3-70.3-69.2h0ZM89.7,110.7c2.9,6.7,5.4,12.6,8,18.5,1.2,2.7,2.6,5.4,6.2,3.9,3.5-1.5,3.6-4,2.3-7.4-4.2-10.8-7.5-21.9-8.7-33.6-.5-4.7,1-6.2,5.6-6.4,5.4-.3,10.9-1.2,16.3-2,3-.5,5-2.4,4.4-5.5-.6-2.9-2.7-4.2-6-3.6-18.7,3.2-37.4,3.2-56,0-3.4-.6-5.8.6-6.3,3.9-.4,3.2,2,4.8,4.9,5.2,5.4.8,10.8,1.7,16.3,2.1,4,.3,5.5,1.5,5.1,5.9-1.1,11.9-4.5,23.1-8.7,34.1-1.3,3.3-1.3,6,2.3,7.4,3.5,1.4,5.1-1.3,6.3-4,2.6-5.9,5.2-11.8,8.1-18.5h0ZM78.2,58.2c0,6.3,5.1,11.5,11.2,11.6,6.3,0,11.6-5.3,11.6-11.8s-5.3-11.6-11.8-11.4c-6.3.1-11.1,5.2-11.1,11.6h0Z"/>
          <path class="cls-4" d="M89.7,110.7c-2.9,6.7-5.5,12.6-8.1,18.5-1.2,2.7-2.7,5.3-6.3,4-3.6-1.4-3.5-4.2-2.3-7.4,4.2-11,7.6-22.2,8.7-34.1.4-4.3-1.1-5.6-5.1-5.9-5.4-.4-10.9-1.3-16.3-2.1-2.9-.4-5.3-2-4.9-5.2.4-3.3,2.8-4.5,6.3-3.9,18.7,3.2,37.4,3.2,56,0,3.3-.6,5.4.7,6,3.6.6,3.1-1.4,5.1-4.4,5.5-5.4.8-10.8,1.8-16.3,2-4.5.2-6.1,1.7-5.6,6.4,1.2,11.7,4.5,22.7,8.7,33.6,1.3,3.3,1.2,5.9-2.3,7.4-3.7,1.5-5-1.2-6.2-3.9-2.6-5.9-5.1-11.8-8-18.5h0Z"/>
          <path class="cls-4" d="M78.2,58.2c0-6.4,4.8-11.5,11.1-11.6,6.5-.1,11.8,4.9,11.8,11.4s-5.3,11.9-11.6,11.8c-6.1,0-11.2-5.3-11.2-11.6h0Z"/>
        </g>
      </g>
    </g>
  </g>
</svg>