<?xml version="1.0" encoding="UTF-8"?>
<svg id="Calque_1" xmlns="http://www.w3.org/2000/svg" version="1.1" viewBox="0 0 13.8 7.8">
  <!-- Generator: Adobe Illustrator 29.3.1, SVG Export Plug-In . SVG Version: 2.1.0 Build 151)  -->
  <path d="M6.5,2.5h-.9c0-.3-.1-.5-.3-.7-.1-.2-.3-.4-.5-.5-.2-.1-.4-.2-.6-.3-.2,0-.5-.1-.7-.1-.4,0-.9.1-1.2.3-.4.2-.7.6-.9,1-.2.4-.3,1-.3,1.6s.1,1.2.3,1.6c.2.4.5.8.9,1,.4.2.8.3,1.2.3s.5,0,.7-.1c.2,0,.4-.2.6-.3.2-.1.3-.3.5-.5.1-.2.2-.4.3-.7h.9c0,.4-.2.7-.4,1-.2.3-.4.6-.7.8-.3.2-.6.4-.9.5-.3.1-.7.2-1.1.2-.6,0-1.2-.2-1.7-.5-.5-.3-.9-.7-1.2-1.3-.3-.6-.4-1.2-.4-2s.1-1.5.4-2c.3-.6.7-1,1.2-1.3.5-.3,1.1-.5,1.7-.5s.7,0,1.1.2c.3.1.6.3.9.5.3.2.5.5.7.8.2.3.3.6.4,1ZM8.2,7.6h-.9L10,.2h.9l2.7,7.4h-.9l-2.2-6.2h0l-2.2,6.2ZM8.6,4.7h3.8v.8h-3.8v-.8Z"/>
</svg>