<?xml version="1.0" encoding="UTF-8"?>
<svg xmlns="http://www.w3.org/2000/svg" version="1.1" viewBox="0 0 959.4 965.3">
  <defs>
    <style>
      .cls-1 {
        fill: #2b4a95;
      }

      .cls-2 {
        fill: #5d74ae;
      }

      .cls-3 {
        fill: #5f82a9;
      }

      .cls-4 {
        fill: #3b579c;
      }

      .cls-5 {
        fill: #203f8f;
      }
    </style>
  </defs>
  <!-- Generator: Adobe Illustrator 28.7.4, SVG Export Plug-In . SVG Version: 1.2.0 Build 166)  -->
  <g>
    <g id="Calque_1">
      <g id="Calque_1-2" data-name="Calque_1">
        <g>
          <path class="cls-3" d="M512.3,965.2H47.5c-.7-.5-1.5-1-2.4-1-3.1,0-5.9-1-8.8-2-13.4-4.5-23.4-13.1-30-25.5-4.4-8.2-6.3-17.1-6.3-26.5C0,629.5,0,348.8,0,68c0-5.7-.5-11.3.8-17.1.9-4.1,1.8-8.1,3.3-12,3.5-9.2,9.4-16.6,17.2-22.4,10-7.4,21.4-10.7,34-10.7,281.5,0,563,0,844.4,0,4.9,0,9.8-.1,14.8.8,6,1,11.6,2.9,16.9,5.7,8.1,4.2,14.5,10.3,19.4,18,3,4.7,5,9.8,6.6,15.1.9,2.8.3,5.8,1.9,8.4v863c-1.3,2.7-1.1,5.8-1.9,8.7-2.1,7.4-5.2,14.1-10.1,20-7.5,9.2-17.2,15.2-28.7,18.3-2.3.6-4.9-.1-6.9,1.5h-248c.7-1.3.5-2.8.5-4.2v-362c0-2.7,1.4-4.1,4.1-4.1h79.3c12.2,0,24.3,0,36.4,0,1,0,2.3.5,2.9-1,.4-.8.6-1.7.3-2.7,0-.2,0-.4,0-.6,1-3.5,1.8-6.9,1.3-10.5,0-.3,0-.6.2-1,.9-2,1.4-4.1.8-6.2,0-.5.1-1,.2-1.4,1-2,1.4-4,.8-6.2,0-.6.1-1.3.2-1.9.7-1.5,1.4-3.1.7-4.8,0-1,.1-1.9.2-2.9,1-1.5,1.4-3,.8-4.8v-2.9c1.5-1.6,1.1-3.8,2-5.7.3-.7-.1-1.4-1-1.6,0-.3,0-.6,0-.9,1.5-1.1,1.2-2.7,1-4.2,0-1,0-2,0-3,1.3-1.2,1.3-2.6,1-4.2,0-1,0-2,0-3,1.1-1.4,1.3-3,.9-4.6v-3.1c1.3-1.2,1.3-2.5.9-4h0c.6,0,1-.5,1-1.1,0-2.1,0-4.2,0-6.2,0-.4,0-.8,0-1.1,2-.7,1.2-1.5.2-2.4,0-.5.1-.9.2-1.4.9-.7.7-1.6.5-2.6h.2c0,.1-.2,0-.2,0,2-1.1.8-2.4.3-3.7,0-.3,0-.6.1-.9,1.1-2.1,2-4.3.9-6.7,0-.3,0-.6.2-.9,1-2,2-4,.8-6.3,0-.3,0-.6.1-.9,1.2-2.1,1.4-4.4.9-6.7,0-.3,0-.6.1-1,1-2,1.4-4.1.8-6.2,0-.5,0-1,.1-1.4,1-2.1,1.3-4.3,1-6.6,0-.4,0-.8,0-1.1.8-1.8,1.2-3.6.8-5.6,0-.3,0-.6,0-.8.2-.6,0-1.2-.3-1.7-.8-1.6-2.2-1-3.4-1-44.7,0-89.4,0-134,0s-3.6,0-3.6-3.6v-42.9c0-16,0-32,0-48,0-1,.4-2.3-1-2.9,0-3,1.2-6,.2-9,0-.3,0-.6,0-1,1.4-.6,1.4-1.2,0-2,0-.3,0-.6,0-.9,2-2.9,1.7-6.2,1.8-9.4,0-.2,0-.5,0-.7,1.5-3.2,2.5-6.5,3.3-9.9l.9-2.1c.5-.2.7-.6.6-1.1.6-1.8,1.5-3.4,2.8-4.8,2-.5,2.9-1.9,2.9-3.9,0-.1.1-.2.3-.3.9-.3,1.5-.9,1.8-1.8.6-.5,1.2-1.1,1.8-1.6,1.1-.1,1.7-.7,2.1-1.7.6-.8,1.4-1.3,2.3-1.7.8,0,1.3-.4,1.6-1,.6-.4,1.2-.7,1.8-1.1.2.2.4.4.6.7,1.6-1.6,4.2-1.4,5.9-2.8,2.6-2.1,5.9-2.2,8.7-3.5,3.1-1.4,6.7-1.2,9.9-2.5.2,0,.4,0,.7,0,4.1-.2,8.3-.7,12.4-.7,27.3,0,54.7,0,82-.1,2.9,0,3.2-.3,3.2-3.1,0-6,0-12,0-18,0-35.3,0-70.7,0-106,0-1.5.3-3.1-.9-4.3-1.2-1.8-3.5-2-5.3-.4-.8,0-1.6-.1-2.4-.5-1.9-1.8-5.9-2.1-7.7-.5-.7,0-1.3,0-1.9-.4-.2-.6-.6-.9-1.2-1-2.2-.2-4.4-.4-6.7-.5-1.1,0-2.5-.6-3.2.9-1.5.2-2.8-.8-4.2-.9-4-1.8-8.2-1.1-12.3-.5,0,0-.2.3-.2.4-2.1-.3-4.1-.6-6.2-.8-.4-1.1-1.3-1-2.2-1h-15.7c-.7,0-1.4,0-2,.6-.8-.1-1.5-.3-2.2-.4-.4-1.1-1.3-1.1-2.2-1.1h-52.1c-1.1,0-2.1,0-2.4,1.4-.3,0-.6,0-.9,0-2.2-1.1-4.4-.3-6.7-.5-.8,0-1.4.2-1.7,1-1,.2-2.1.3-3.1.5-1.7-.6-3.5-1.3-5,.5-.6.4-1.1.9-1.8.9-.9-1.6-2.4-1-3.6-.7-2.5.6-5,1.1-7.5,1.6-9.5,1.8-18.7,4.5-27.8,7.7-9.1,3.3-17.8,7.4-26.1,12.2-9.5,5.5-18.3,11.8-26.7,18.9-1.3,1.1-3.1,2.1-3.3,4.2-.4.4-.8.8-1.2,1.2-2.5.4-4.6,2.5-5,5,0,.1-.2.2-.3.3-1.2,0-1.9.9-2.5,1.6-6,6.7-11.6,13.6-16.3,21.2-5.8,9.4-11,19.1-15,29.4-2.9,7.6-5.5,15.2-7.6,23.1-1,4-2.2,8-2.9,12-1.2,7.3-2.4,14.6-3.2,22-.8,7.9-1.6,15.7-1.6,23.6-.2,35.6,0,71.3,0,106.9,0,3.2-.5,3.8-3.7,3.9-.6,0-1.3,0-1.9,0h-114.6c-.8,0-1.6,0-2.4,0-1,0-1,.6-.7,1.4-.2.2-.3.4-.5.5-2.2.3-1.4,2-1.4,3.2,0,46,0,92,0,138s0,1.1,0,1.7c0,1,.5,1.4,1.5,1.5h0c.3,2.2,2,1.4,3.2,1.4,39,0,78,0,117,0s3.2-.3,4,1.8c.7-1.1.4-2,.5-2.9.9-.2,1.2.2,1.2,1s0,1.9,0,2.9v364.3c0,1.1,0,2.2-.2,3.3h0Z"/>
          <path class="cls-1" d="M785.3,593.6h1c.3,0,.6.2.9.3-.6,1.5-1.9,1-2.9,1-12.2,0-24.3,0-36.4,0h-79.3c-2.7,0-4.1,1.4-4.1,4.1v362c0,1.4.2,2.9-.5,4.2h-.5c-1.3-.5-.6-1.6-.6-2.4,0-36.4,0-72.7,0-109.1v-256.8c0-.6,0-1.3,0-1.9.5-.4,1.1-.8,1.6-1.3.8,0,1.6,0,2.4,0h114.9c.9,0,1.8,0,2.6,0,.3.3.6.3.9,0h0Z"/>
          <path class="cls-1" d="M533.9,240.8c-.6,1-1.2,2.1-1.8,3.1-2.5,5.1-5.1,10.1-6.4,15.6-3.4,8.4-5.4,17.3-7.8,26-.6.2-.8.5-.3,1,0,1.3-.2,2.6-.7,3.8-.6.2-.7.5-.2,1-.6,3.4-1.1,6.7-1.7,10-.8.4-.9.8-.3,1.5-.2,1.9-.5,3.8-.7,5.7-.8.4-.8.9-.2,1.5-.2,2.5-.4,5.1-.7,7.6-1.3.8-1,1.8-.4,2.9-.2,4.2-.3,8.3-.5,12.5-1.4.6-.9,1.9-.9,2.9,0,15.4,0,30.8,0,46.3s0,41.4,0,62.1c0,1-.5,2.3,1,2.9.3.8-.2,1.2-.9,1.3-.6,0-1.3,0-1.9,0-40.8,0-81.6,0-122.5,0-.3-.7-.3-1.3.7-1.4.8,0,1.6,0,2.4,0h114.6c.6,0,1.3,0,1.9,0,3.2-.1,3.7-.7,3.7-3.9,0-35.6-.1-71.3,0-106.9,0-7.9.8-15.7,1.6-23.6.8-7.4,2-14.7,3.2-22,.7-4,1.8-8,2.9-12,2-7.9,4.7-15.5,7.6-23.1,4-10.3,9.2-20,15-29.4,4.7-7.6,10.4-14.5,16.3-21.2.7-.8,1.4-1.6,2.5-1.6-.5,1.5-2.5,2-2.6,3.7-1.5,1.6-2.9,3.2-4.4,4.9-.7.4-1.4.9-1.4,1.8-.3.4-.6.7-1,1.1-.6.2-1,.6-1,1.4h0c-.6.3-1,.7-.9,1.4-.2.2-.4.4-.5.6-.6.2-1,.6-.9,1.4h0c-.6.3-1,.7-.9,1.4-.2.2-.3.4-.5.6-1.3,1.1-2.3,2.6-2.8,4.2h0c-.9.5-1.3,1.4-1.4,2.4h0c-.7.3-1,.8-.9,1.5-.3.5-.7,1-1,1.5-.7.4-1,1.1-.9,1.8h0c-1,.5-1.3,1.4-1.4,2.4h0c-1.5,1.4-2.3,3.3-2.8,5.2h0Z"/>
          <path class="cls-1" d="M662.9,448.1c0-1.4-.1-2.7-.1-4v-88.3c0-2,0-4,0-6,.2,0,.3,0,.5,0,1.4.6,1,1.9,1,2.9,0,16,0,32,0,48v42.9c0,3.6,0,3.6,3.6,3.6,44.7,0,89.4,0,134.1,0,1.2,0,2.6-.6,3.4,1-1,0-2.1,0-3.1,0h-139.4Z"/>
          <path class="cls-2" d="M713.5,287.7c1.8-1,3.8-.9,5.8-1,29.3-1.8,58.6-.4,87.9-.8,3.1,0,3.1,0,3.1-3.2,0-41.3,0-82.6,0-123.9,0-1.6-.3-2.6-1.8-3.1.5,0,1.1-.1,1.6-.2,1.2,1.2.9,2.8.9,4.3,0,35.3,0,70.7,0,106s0,12,0,18c0,2.9-.3,3.1-3.2,3.1-27.3,0-54.7,0-82,.1-4.1,0-8.3.5-12.4.7h0Z"/>
          <path class="cls-5" d="M386.7,449.1c0,7.3,0,14.5,0,21.8,0,40.3,0,80.6,0,120.9,0,.6,0,1.1.1,1.7-.9,0-1.5-.5-1.5-1.5,0-.6,0-1.1,0-1.7,0-46,0-92,0-138,0-1.2-.8-2.9,1.4-3.2h0Z"/>
          <path class="cls-5" d="M386.7,593.4c1.5,0,3,.2,4.5.2,39,0,78,0,117,0,1,0,2.1,0,3.1.2,0,.9.2,1.8-.5,2.9-.8-2.1-2.5-1.8-4-1.8-39,0-78,0-117,0-1.2,0-2.9.8-3.2-1.4h0Z"/>
          <path class="cls-2" d="M662.9,448.1h139.4c1,0,2.1,0,3.1,0,.2.5.5,1.1.3,1.7-.8-1.1-2-1.1-3.2-1.1-45.9,0-91.8,0-137.7,0-.7,0-1.7.7-2-.6h0Z"/>
          <path class="cls-1" d="M651,155.4c-1,.7-2.3,0-3.3.6-.6-.2-1.2-.2-1.5.5-.8.4-1.7-.2-2.5.4-.5,0-1.1-.2-1.3.4-.6.4-1.2.2-1.8.2-3.8.3-7.4,1.3-10.8,3.2h0c-.9-.1-1.9-.2-2.4.9-5,1.6-9.9,3.4-14.8,5.5-.3-.1-.5,0-.6.2-.2.1-.5.2-.8.3-4.7,1.5-9.1,3.6-13.1,6.6-5.8,3.1-11.3,6.7-16.7,10.7-1.2.4-2.2,1.2-3,2.1-1,.9-2,1.7-3,2.5-.7-.1-1.1.2-1.4.8-1.6,1.5-3.2,3-4.9,4.4-1,0-1.5.6-1.8,1.4-.2.2-.3.4-.5.6-.3,0-.6.2-.9.3.3-2.1,2-3.1,3.3-4.2,8.3-7.1,17.2-13.4,26.7-18.9,8.4-4.9,17.1-8.9,26.1-12.2s18.3-5.9,27.8-7.7c2.5-.5,5-.9,7.5-1.6,1.2-.3,2.7-.9,3.6.7-3,.1-5.9.5-8.7,1.9h0c-.5,0-1-.2-1.4.4h0Z"/>
          <path class="cls-1" d="M699.9,150.6h-2.4c-5.8-.6-11.5-.5-17.2.1.3-1.4,1.3-1.4,2.4-1.4h52.1c.9,0,1.8,0,2.2,1.1-11.5,0-23.1,0-34.7,0-.8,0-1.6-.1-2.3.4h0Z"/>
          <path class="cls-2" d="M699.9,150.6c.7-.5,1.5-.4,2.3-.4,11.5,0,23.1,0,34.7,0,.8.1,1.5.3,2.2.4,0,.2.1.4.2.6-1.5.7-3,.2-4.5.1-10.9-.5-21.8-.7-32.8-.7-.7,0-1.4-.1-2.1-.2h0Z"/>
          <path class="cls-2" d="M687.8,295.8c3.2-2.5,7.1-3.7,10.8-5.1,3.5-1.3,7.2-1.7,10.7-2.8,1.2-.4,2.4-.3,3.5,0-3.2,1.3-6.8,1.1-9.9,2.5-2.9,1.3-6.1,1.4-8.7,3.5-1.7,1.3-4.2,1.1-5.9,2.8-.2-.2-.4-.4-.6-.7h0Z"/>
          <path class="cls-2" d="M652.4,155c2.7-1.4,5.7-1.7,8.7-1.9.8,0,1.3-.5,1.8-.9,1.7-.1,3.4.3,5-.5,1-.2,2.1-.3,3.1-.5,1.8.2,3.6-.4,5.3.3-8,1.1-16,2.3-24,3.4h0Z"/>
          <path class="cls-2" d="M806.4,155.5c-.8.1-1.6.4-2.3.3-6.7-1.4-13.6-.8-20.2-2.3,3-1,6.1.4,9.1.1.6.5,1.2.5,1.9.4,2.6.2,5.1.3,7.7.5.7.4,1.5.5,2.4.5.5.1,1,.3,1.5.5h0Z"/>
          <path class="cls-1" d="M739.3,151.3c0-.2-.1-.4-.2-.6.6-.5,1.3-.6,2-.5h15.7c.9,0,1.8,0,2.2,1-4,.2-8-.5-12,.3-2.5,0-5.1.1-7.6-.2h0Z"/>
          <path class="cls-2" d="M746.9,151.6c4-.8,8-.1,12-.3,2.1.3,4.1.6,6.2.8.1.1.3.3.4.4-.6.4-1.2.3-1.8.3-5.6-.4-11.2-.8-16.8-1.2h0Z"/>
          <path class="cls-2" d="M680.2,150.7c5.7-.6,11.5-.7,17.2-.1-6.1.3-12.2.5-18.3.8,0-.2.1-.4.2-.6.3,0,.6,0,.9,0h0Z"/>
          <path class="cls-2" d="M782.9,153.5c-1.7.7-3.5.2-5.2.1-3.2-.3-6.4-.7-9.7-1.1,3.2-.8,6.4,0,9.7-.3,1.4,0,2.7,1.1,4.2.9.3.1.6.3.9.4h0Z"/>
          <path class="cls-2" d="M566.1,197c.3,0,.6-.2.9-.3-3.4,3.5-6.7,7-10.1,10.5.1-1.8,2.1-2.2,2.6-3.7.1,0,.2-.2.3-.3,1.7-1.6,3.3-3.3,5-5,.4-.4.8-.8,1.2-1.2h0Z"/>
          <path class="cls-1" d="M777.7,152.2c-3.2.3-6.5-.5-9.7.3-.8,0-1.6,0-2.4,0-.1-.1-.3-.3-.4-.4,0-.1.1-.4.2-.4,4.1-.6,8.3-1.3,12.3.5h0Z"/>
          <path class="cls-1" d="M782.9,153.5c-.3-.1-.6-.3-.9-.4.7-1.5,2.1-.9,3.2-.9,2.2,0,4.4.3,6.7.5.6,0,1,.4,1.2,1-3,.3-6.1-1.1-9.1-.1-.3,0-.7,0-1,0h0Z"/>
          <path class="cls-2" d="M787.5,590.6c0-3.6.5-7.1,1.3-10.5.5,3.6-.3,7.1-1.3,10.5Z"/>
          <path class="cls-2" d="M663.4,349.7c-.2,0-.3,0-.5,0-.6-3.1,0-6.1.7-9,.9,3-.3,6-.2,9Z"/>
          <path class="cls-2" d="M663.9,336.8c.1-3.2.7-6.4,1.8-9.4,0,3.2.2,6.5-1.8,9.4Z"/>
          <path class="cls-1" d="M679.4,150.8c0,.2-.1.4-.2.6-1,0-1.9.1-2.8.2-1.7-.7-3.6-.1-5.3-.3.3-.8.9-1.1,1.7-1,2.2.2,4.5-.6,6.7.5h0Z"/>
          <path class="cls-2" d="M792.7,547.9c-.2-2.5,1-4.8,1-7.3.8.2,1.3,1,1,1.6-.9,1.8-.6,4.1-2,5.7Z"/>
          <path class="cls-2" d="M665.8,326.8c.5-3.5,1.5-6.8,3.3-9.9-.8,3.4-1.8,6.7-3.3,9.9Z"/>
          <path class="cls-1" d="M802.6,154.5c-2.6-.2-5.1-.3-7.7-.5,1.8-1.6,5.8-1.4,7.7.5Z"/>
          <path class="cls-2" d="M799.9,494.2c0-2.3.5-4.5.9-6.7,1.1,2.4.2,4.6-.9,6.7Z"/>
          <path class="cls-2" d="M797.5,513.7c0-2.5-.3-5,1-7.3,0,2.1,0,4.2,0,6.2s-.4,1-1,1.1Z"/>
          <path class="cls-2" d="M800.9,486.5c-.1-2.1.3-4.2.8-6.3,1.3,2.3.2,4.3-.8,6.3Z"/>
          <path class="cls-2" d="M801.9,479.3c-.1-2.3.3-4.5.9-6.7.5,2.4.4,4.6-.9,6.7Z"/>
          <path class="cls-1" d="M806.4,155.5c-.5-.1-1-.3-1.5-.5,1.8-1.6,4.1-1.4,5.3.4-.5,0-1.1.1-1.6.2-.7,0-1.5-.1-2.2-.2h0Z"/>
          <path class="cls-2" d="M802.9,471.7c-.2-2.1.2-4.2.8-6.2.6,2.2.2,4.3-.8,6.2Z"/>
          <path class="cls-2" d="M789.9,571.4c-.5-2.2.3-4.2.8-6.2.6,2.2.2,4.3-.8,6.2Z"/>
          <path class="cls-2" d="M803.8,464c-.1-2.3.1-4.5,1-6.6.4,2.3,0,4.5-1,6.6Z"/>
          <path class="cls-2" d="M789,579.1c-.4-2.2.2-4.2.8-6.2.6,2.2.1,4.2-.8,6.2Z"/>
          <path class="cls-1" d="M564.8,198.2c-1.7,1.6-3.3,3.3-5,5,.4-2.4,2.5-4.6,5-5Z"/>
          <path class="cls-2" d="M804.9,456.3c-.3-2-.2-3.9.8-5.6.3,2,0,3.8-.8,5.6Z"/>
          <path class="cls-2" d="M673.3,308.9c.7-1.5,1.7-2.8,2.9-3.9,0,2-.9,3.4-2.9,3.9Z"/>
          <path class="cls-2" d="M791.8,555.6c-.5-1.7.4-3.2.8-4.8.6,1.8.2,3.3-.8,4.8Z"/>
          <path class="cls-2" d="M790.9,563.3c-.6-1.7.3-3.2.7-4.8.7,1.7,0,3.3-.7,4.8Z"/>
          <path class="cls-1" d="M667.9,151.7c-1.6.8-3.3.4-5,.5,1.5-1.8,3.3-1.1,5-.5Z"/>
          <path class="cls-2" d="M799.5,498.8c-.2-1.2,0-2.5.3-3.7.6,1.3,1.7,2.6-.3,3.7Z"/>
          <path class="cls-2" d="M795.7,525.4c-.4-1.7.4-3.1.9-4.6.3,1.7.2,3.2-.9,4.6Z"/>
          <path class="cls-2" d="M794.6,532.6c-.2-1.5.5-2.8,1-4.2.3,1.6.3,3-1,4.2Z"/>
          <path class="cls-2" d="M793.7,539.8c-.1-1.5.5-2.8,1-4.2.3,1.5.5,3.1-1,4.2Z"/>
          <path class="cls-2" d="M796.8,517.7c-.4-1.5.2-2.7.8-4,.3,1.5.4,2.8-.8,4Z"/>
          <path class="cls-2" d="M798.6,505.2c-.2-.8-.1-1.6.2-2.4,1,.9,1.8,1.7-.2,2.4Z"/>
          <path class="cls-2" d="M663.7,339.7c-.2-.7-.2-1.3,0-2,1.3.7,1.3,1.4,0,2Z"/>
          <path class="cls-2" d="M787.2,593.9c-.3,0-.6-.2-.9-.3.8-.6.7-1.6,1.2-2.3.4.9.2,1.8-.3,2.7h0Z"/>
          <path class="cls-2" d="M799,501.4c-.2-.9-.1-1.8.5-2.6.2.9.4,1.9-.5,2.6Z"/>
          <path class="cls-2" d="M680.1,301.3c.4-.9,1.1-1.4,2.1-1.7-.3,1-1,1.6-2.1,1.7Z"/>
          <path class="cls-2" d="M676.5,304.7c.3-.9.9-1.5,1.8-1.8-.3.9-.8,1.5-1.8,1.8Z"/>
          <path class="cls-2" d="M684.4,297.9c.4-.5.8-1.1,1.6-1-.3.7-.8,1.1-1.6,1Z"/>
          <path class="cls-2" d="M669.9,314.8c0-.5.2-.9.6-1.1,0,.5-.1.9-.6,1.1Z"/>
          <path class="cls-4" d="M512.3,447.2c-1.5-.6-1-1.9-1-2.9,0-20.7,0-41.4,0-62.1s0-30.8,0-46.3c0-1-.5-2.3.9-2.9.5,1.4.2,2.9.2,4.3,0,35.7,0,71.4,0,107,0,1,0,1.9-.1,2.9h0Z"/>
          <path class="cls-2" d="M598.2,174.2c4-2.9,8.4-5,13.1-6.6-2.3,2-5.2,2.8-7.8,4.2-1.7.9-3.2,2.4-5.3,2.4Z"/>
          <path class="cls-2" d="M525.7,259.5c1.3-5.5,3.9-10.6,6.4-15.6-.7,3.7-2.7,6.9-4.1,10.4-.7,1.8-1,3.7-2.3,5.2h0Z"/>
          <path class="cls-2" d="M629.8,160.7c3.3-1.9,7-2.8,10.8-3.2-3.4,1.8-7.1,2.3-10.8,3.2Z"/>
          <path class="cls-2" d="M533.9,240.8c.6-1.9,1.3-3.8,2.8-5.2-.5,2-1.6,3.6-2.8,5.2Z"/>
          <path class="cls-2" d="M542.5,225.9c.6-1.7,1.5-3.1,2.8-4.2-.7,1.6-1.3,3.2-2.8,4.2Z"/>
          <path class="cls-2" d="M578.5,187c.9-.9,1.8-1.8,3-2.1-.5,1.4-1.9,1.6-3,2.1Z"/>
          <path class="cls-4" d="M512.8,320.5c-.6-1.1-.9-2.1.4-2.9.4,1,.2,2-.4,2.9Z"/>
          <path class="cls-2" d="M664.4,593.6c-.5.4-1.1.8-1.6,1.3-.5-1.7.6-1.5,1.6-1.3Z"/>
          <path class="cls-2" d="M536.7,235.5c0-1,.4-1.9,1.4-2.4-.3.9-.6,1.8-1.4,2.4Z"/>
          <path class="cls-2" d="M541,228.3c.1-1,.5-1.8,1.4-2.3,0,1-.5,1.8-1.4,2.3Z"/>
          <path class="cls-2" d="M627.4,161.6c.5-1.1,1.4-1,2.4-.9-.7.7-1.5.7-2.4.9Z"/>
          <path class="cls-2" d="M567.5,196.2c.3-.8.8-1.4,1.8-1.4-.3.8-1.2,1-1.8,1.4Z"/>
          <path class="cls-2" d="M538.2,233.1c0-.8.3-1.4.9-1.8.2.9-.4,1.4-.9,1.8Z"/>
          <path class="cls-2" d="M551.1,213.9c0-1,.6-1.4,1.4-1.8,0,.9-.6,1.5-1.4,1.8Z"/>
          <path class="cls-4" d="M514.7,302.8c-.6-.6-.5-1.1.3-1.5.2.5.2,1-.3,1.5Z"/>
          <path class="cls-2" d="M646.2,156.5c.3-.7.9-.6,1.5-.5-.5.1-.7,1.2-1.5.5Z"/>
          <path class="cls-2" d="M642.3,157.4c.3-.6.8-.5,1.3-.4-.4.4-.7.9-1.3.4Z"/>
          <path class="cls-2" d="M651,155.4c.3-.6.8-.5,1.4-.4-.3.5-.7.8-1.4.4Z"/>
          <path class="cls-4" d="M513.8,310c-.6-.6-.6-1.1.2-1.5.3.5.2,1-.2,1.5Z"/>
          <path class="cls-2" d="M540.1,229.8c-.1-.7.2-1.2.9-1.4-.1.6-.3,1.1-.9,1.4Z"/>
          <path class="cls-2" d="M548.3,217.7c0-.7.3-1.1.9-1.4,0,.6-.5,1-.9,1.4Z"/>
          <path class="cls-2" d="M545.9,221.1c0-.7.3-1.1.9-1.3,0,.6-.5.9-.9,1.3Z"/>
          <path class="cls-2" d="M546.8,219.7c0-.7.3-1.1.9-1.4,0,.6-.5,1-.9,1.4Z"/>
          <path class="cls-2" d="M574.2,190.4c.3-.6.7-.9,1.4-.8-.2.7-.9.6-1.4.8Z"/>
          <path class="cls-2" d="M549.2,216.3c0-.7.3-1.1,1-1.4,0,.7-.5,1-1,1.4Z"/>
          <path class="cls-4" d="M516.7,291.3c-.5-.5-.4-.8.2-1,.2.4,0,.7-.2,1Z"/>
          <path class="cls-4" d="M517.7,286.5c-.5-.5-.3-.8.3-1,.2.4,0,.7-.3,1Z"/>
          <path class="cls-2" d="M785.3,593.6c-.3.4-.6.4-.9,0,.3-.3.6-.3.9,0Z"/>
          <path class="cls-2" d="M612.1,167.3c.1-.3.3-.3.6-.2-.2,0-.4.1-.6.2Z"/>
        </g>
      </g>
    </g>
  </g>
</svg>