<?xml version="1.0" encoding="UTF-8"?>
<svg xmlns="http://www.w3.org/2000/svg" version="1.1" viewBox="0 0 1502.36 992.13">
  <defs>
    <style>
      .cls-1 {
        fill: #2b4a95;
      }

      .cls-2 {
        fill: #5d74ae;
      }

      .cls-3 {
        fill: #5f82a9;
      }

      .cls-4 {
        fill: #3b579c;
      }

      .cls-5 {
        fill: #203f8f;
      }
    </style>
  </defs>
  <!-- Generator: Adobe Illustrator 28.7.4, SVG Export Plug-In . SVG Version: 1.2.0 Build 166)  -->
  <g>
    <g id="Calque_1">
      <g>
        <path class="cls-3" d="M777.64,971.07h-464.83c-.72-.53-1.54-.96-2.42-.95-3.11.05-5.94-1.03-8.81-1.99-13.38-4.52-23.4-13.08-29.98-25.51-4.36-8.23-6.29-17.11-6.29-26.49.04-280.76.03-561.52.09-842.28,0-5.68-.45-11.35.78-17.1.88-4.11,1.81-8.14,3.31-12.04,3.52-9.16,9.44-16.61,17.23-22.41,10.02-7.45,21.43-10.68,33.97-10.68,281.48.06,562.95.04,844.43.08,4.91,0,9.79-.11,14.76.75,6,1.04,11.59,2.91,16.87,5.68,8.06,4.22,14.53,10.32,19.44,17.97,3,4.67,5,9.78,6.64,15.12.86,2.79.31,5.84,1.91,8.41v863c-1.31,2.73-1.09,5.79-1.89,8.66-2.05,7.37-5.24,14.08-10.05,19.98-7.52,9.25-17.16,15.19-28.69,18.26-2.28.61-4.86-.14-6.87,1.54h-248.01c.69-1.35.47-2.82.47-4.24,0-120.67,0-241.34,0-362.01q0-4.07,4.12-4.07c26.45,0,52.9,0,79.35,0,12.15,0,24.29.01,36.44-.02,1.03,0,2.33.48,2.89-1,.42-.85.63-1.72.27-2.65.02-.21.04-.41.06-.62.97-3.45,1.83-6.92,1.28-10.55.05-.32.1-.63.15-.95.92-2,1.42-4.06.79-6.25.06-.47.12-.95.18-1.42.98-1.99,1.44-4.05.81-6.25.06-.64.12-1.29.19-1.93.72-1.53,1.4-3.07.71-4.8.06-.95.12-1.9.18-2.86,1.03-1.47,1.43-3.05.85-4.8l.04-2.88c1.44-1.61,1.1-3.85,2-5.66.33-.66-.14-1.37-.96-1.63-.01-.29-.03-.57-.04-.86,1.51-1.13,1.24-2.66.97-4.2,0-1-.02-2-.02-3,1.26-1.18,1.33-2.64.98-4.2.03-1,.07-2.01.1-3.01,1.13-1.38,1.26-2.95.92-4.62l.13-3.08c1.14-1.16,1.14-2.55.79-4v-.02c.64-.07,1-.43,1-1.07,0-2.08-.02-4.16-.03-6.24.03-.38.06-.76.1-1.13,1.98-.66,1.15-1.53.17-2.4.07-.47.14-.94.21-1.41.91-.72.74-1.64.5-2.58l.16.12-.16-.12c2-1.09.82-2.41.27-3.69.05-.31.09-.62.14-.94,1.14-2.13,1.96-4.3.89-6.72.05-.31.1-.63.15-.94.98-2,2.04-3.98.78-6.26.04-.31.09-.63.13-.94,1.23-2.12,1.4-4.37.87-6.72.04-.32.09-.63.13-.95,1.01-1.99,1.42-4.06.79-6.25.05-.47.09-.95.14-1.42,1.04-2.09,1.35-4.28.96-6.57.03-.37.06-.75.09-1.12.82-1.79,1.16-3.65.84-5.62.01-.28.03-.56.04-.84.22-.62-.05-1.16-.3-1.69-.76-1.62-2.23-.96-3.39-.96-44.68-.03-89.37-.03-134.05-.03-3.56,0-3.59-.03-3.59-3.64,0-14.31,0-28.62,0-42.93,0-15.99,0-31.97-.01-47.96,0-1.05.42-2.32-1.02-2.9-.06-3.01,1.17-5.99.23-9.02.03-.32.05-.63.08-.95,1.38-.59,1.42-1.25.1-1.98.03-.31.06-.62.09-.93,1.98-2.86,1.74-6.16,1.8-9.39.03-.23.07-.45.1-.68,1.49-3.16,2.46-6.49,3.26-9.88l.91-2.08c.48-.22.68-.6.62-1.12.64-1.75,1.55-3.35,2.78-4.76,2.01-.54,2.93-1.9,2.94-3.93.03-.15.12-.24.26-.27.94-.26,1.51-.89,1.79-1.81.6-.55,1.19-1.09,1.79-1.64,1.07-.1,1.73-.69,2.06-1.69.61-.75,1.38-1.29,2.26-1.67.78.04,1.28-.35,1.59-1.04.6-.36,1.19-.72,1.79-1.08.19.22.38.44.57.67,1.64-1.63,4.22-1.41,5.88-2.75,2.6-2.09,5.87-2.18,8.73-3.45,3.1-1.37,6.68-1.19,9.86-2.45.22-.03.44-.06.67-.09,4.13-.25,8.26-.7,12.39-.71,27.34-.09,54.68-.08,82.02-.11,2.86,0,3.18-.29,3.2-3.14.03-6,.02-11.99.02-17.99,0-35.34,0-70.67-.01-106.01,0-1.49.31-3.08-.94-4.31-1.23-1.81-3.52-1.99-5.28-.41-.83.04-1.62-.1-2.36-.5-1.88-1.83-5.92-2.08-7.7-.48-.68.03-1.35.04-1.91-.43-.18-.6-.57-.93-1.2-.98-2.22-.17-4.44-.43-6.66-.48-1.09-.02-2.47-.59-3.17.92-1.52.21-2.77-.82-4.22-.91-4.04-1.8-8.18-1.14-12.32-.5-.09.01-.15.26-.22.4-2.07-.28-4.14-.55-6.21-.83-.37-1.07-1.28-1.03-2.16-1.03-5.22,0-10.44,0-15.66,0-.72,0-1.42.07-2.02.55-.75-.15-1.49-.3-2.24-.45-.36-1.09-1.27-1.05-2.16-1.05-17.37,0-34.74,0-52.11,0-1.08,0-2.12.07-2.38,1.43-.29.02-.57.04-.86.07-2.15-1.1-4.44-.33-6.66-.52-.76-.07-1.37.23-1.67,1-1.05.16-2.09.33-3.14.49-1.74-.63-3.49-1.29-5.01.47-.56.41-1.1.87-1.85.89-.93-1.62-2.41-1.02-3.62-.71-2.47.62-4.98,1.09-7.46,1.56-9.49,1.8-18.74,4.46-27.79,7.74-9.06,3.28-17.75,7.37-26.12,12.22-9.49,5.49-18.34,11.81-26.66,18.89-1.34,1.14-3.06,2.15-3.31,4.22-.41.4-.82.81-1.23,1.21-2.45.4-4.58,2.51-4.99,4.96-.08.12-.18.23-.31.31-1.18.02-1.86.86-2.55,1.62-5.97,6.66-11.64,13.58-16.34,21.2-5.78,9.37-10.99,19.05-14.96,29.36-2.92,7.57-5.53,15.24-7.57,23.09-1.03,3.98-2.21,7.95-2.86,12-1.17,7.3-2.38,14.6-3.17,21.97-.84,7.86-1.57,15.73-1.61,23.59-.19,35.64-.08,71.29-.09,106.93,0,3.21-.53,3.76-3.7,3.88-.64.03-1.28,0-1.92,0-38.2,0-76.4,0-114.61,0-.8,0-1.6-.01-2.4.04-.95.06-.96.65-.69,1.36-.15.18-.31.35-.46.53-2.18.31-1.4,2.04-1.41,3.22-.04,45.99-.03,91.98-.03,137.98,0,.56.02,1.12,0,1.68-.02,1,.52,1.44,1.46,1.51l-.02-.02c.29,2.18,2.02,1.43,3.2,1.43,39,.04,77.99.03,116.99.03,1.55,0,3.22-.31,4.03,1.75.66-1.14.44-2.03.47-2.9.89-.25,1.17.24,1.17,1,0,.96-.03,1.92-.03,2.88,0,121.43,0,242.85,0,364.28,0,1.11-.1,2.23-.16,3.34Z"/>
        <path class="cls-1" d="M1050.56,599.43c.34,0,.67,0,1.01,0,.31.1.62.2.93.3-.57,1.47-1.86.99-2.89,1-12.15.03-24.29.02-36.44.02-26.45,0-52.9,0-79.35,0q-4.11,0-4.12,4.07c0,120.67,0,241.34,0,362.01,0,1.43.22,2.89-.47,4.24h-.48c-1.26-.53-.63-1.64-.64-2.44-.04-36.37-.03-72.74-.03-109.11,0-85.61,0-171.23,0-256.84,0-.64.02-1.28.03-1.92.55-.43,1.1-.85,1.64-1.28.8-.03,1.6-.07,2.39-.07,38.29,0,76.59,0,114.88,0,.88,0,1.76.04,2.64.06.31.35.61.33.9-.03Z"/>
        <path class="cls-1" d="M799.18,246.59c-.58,1.04-1.16,2.07-1.75,3.11-2.51,5.05-5.08,10.07-6.41,15.6-3.38,8.44-5.43,17.27-7.78,26.02-.6.19-.79.5-.27.99.05,1.33-.15,2.6-.74,3.8-.58.22-.74.53-.23.99-.56,3.35-1.12,6.69-1.68,10.04-.79.35-.87.84-.29,1.46-.22,1.91-.45,3.83-.67,5.74-.82.38-.85.88-.23,1.48-.22,2.55-.43,5.1-.65,7.64-1.3.81-.99,1.83-.37,2.89-.17,4.16-.33,8.31-.5,12.47-1.44.61-.93,1.9-.93,2.93-.03,15.42-.02,30.84-.02,46.26,0,20.69,0,41.38.02,62.07,0,1.03-.5,2.32.96,2.91.32.84-.15,1.21-.87,1.32-.63.09-1.27.06-1.91.06-40.82,0-81.63,0-122.45.01-.27-.71-.26-1.3.69-1.36.8-.05,1.6-.04,2.4-.04,38.2,0,76.4,0,114.61,0,.64,0,1.28.02,1.92,0,3.17-.13,3.7-.67,3.7-3.88,0-35.65-.11-71.29.09-106.93.04-7.86.76-15.73,1.61-23.59.79-7.38,2.01-14.67,3.17-21.97.65-4.05,1.82-8.02,2.86-12,2.04-7.85,4.65-15.52,7.57-23.09,3.97-10.31,9.18-19.99,14.96-29.36,4.7-7.62,10.36-14.54,16.34-21.2.68-.76,1.36-1.61,2.55-1.62-.53,1.49-2.49,1.96-2.63,3.73-1.46,1.62-2.92,3.25-4.39,4.87-.74.39-1.38.87-1.38,1.82-.32.36-.63.71-.95,1.07-.64.22-1.02.64-.98,1.35l-.05.06c-.61.25-.99.65-.9,1.36-.18.19-.37.39-.55.58-.62.24-.98.65-.9,1.36l-.05.06c-.59.24-.99.62-.91,1.33-.17.2-.35.41-.52.61-1.35,1.15-2.28,2.58-2.83,4.25l-.03.05c-.94.49-1.3,1.34-1.41,2.33l-.05.06c-.67.26-.98.73-.87,1.45-.34.49-.68.99-1.01,1.48-.65.44-.95,1.05-.94,1.83l-.04.04c-.98.48-1.32,1.34-1.4,2.35l-.03.05c-1.55,1.4-2.27,3.25-2.84,5.19Z"/>
        <path class="cls-1" d="M928.2,453.91c-.04-1.35-.12-2.7-.12-4.05,0-29.44,0-58.87,0-88.31,0-1.99.07-3.99.1-5.98.16,0,.32-.02.49-.03,1.43.58,1.01,1.86,1.02,2.9.02,15.99.01,31.97.01,47.96,0,14.31,0,28.62,0,42.93,0,3.61.03,3.64,3.59,3.64,44.68,0,89.37,0,134.05.03,1.16,0,2.64-.65,3.39.96-1.04-.02-2.08-.04-3.11-.04-44.48,0-88.97,0-133.45,0-1.99,0-3.98,0-5.97,0Z"/>
        <path class="cls-2" d="M978.84,293.55c1.83-.99,3.82-.85,5.81-.98,29.3-1.83,58.63-.41,87.94-.84,3.11-.05,3.11,0,3.11-3.16,0-41.31,0-82.62.04-123.93,0-1.56-.3-2.63-1.84-3.15.54-.07,1.07-.14,1.61-.21,1.25,1.23.94,2.82.94,4.31.01,35.34.01,70.67.01,106.01,0,6,.01,11.99-.02,17.99-.02,2.85-.34,3.14-3.2,3.14-27.34.03-54.68.02-82.02.11-4.13.01-8.26.47-12.39.71Z"/>
        <path class="cls-5" d="M651.96,454.91c-.02,7.26-.07,14.52-.07,21.79-.02,40.31-.02,80.62-.03,120.93,0,.56.08,1.11.13,1.67-.94-.07-1.48-.51-1.46-1.51.01-.56,0-1.12,0-1.68,0-45.99,0-91.98.03-137.98,0-1.18-.77-2.9,1.41-3.22Z"/>
        <path class="cls-5" d="M651.97,599.27c1.52.05,3.03.16,4.55.16,39.01,0,78.02,0,117.03.01,1.03,0,2.07.1,3.1.15-.03.86.2,1.75-.47,2.9-.81-2.06-2.48-1.75-4.03-1.75-39,0-77.99,0-116.99-.03-1.18,0-2.91.75-3.2-1.43Z"/>
        <path class="cls-2" d="M928.2,453.91c1.99,0,3.98,0,5.97,0,44.48,0,88.97,0,133.45,0,1.04,0,2.08.03,3.11.04.25.54.52,1.07.3,1.69-.81-1.13-1.98-1.14-3.22-1.14-45.89.02-91.77.02-137.66,0-.65,0-1.65.66-1.96-.6Z"/>
        <path class="cls-1" d="M916.3,161.2c-1.02.69-2.32-.09-3.33.64-.6-.16-1.17-.23-1.5.47-.79.36-1.73-.19-2.47.43-.52-.07-1.06-.18-1.35.45-.56.38-1.17.19-1.76.17-3.8.34-7.41,1.3-10.75,3.18l-.03.02c-.94-.14-1.86-.23-2.37.85-5.01,1.58-9.94,3.37-14.75,5.5-.27-.1-.47-.04-.61.23-.25.1-.5.21-.75.31-4.7,1.54-9.11,3.65-13.13,6.55-5.83,3.13-11.34,6.74-16.65,10.67-1.25.38-2.19,1.2-3.05,2.15-.98.85-1.96,1.69-2.95,2.54-.7-.11-1.11.23-1.37.84-1.62,1.48-3.24,2.96-4.86,4.44-1-.04-1.5.57-1.85,1.39-.16.19-.31.37-.47.56-.31.09-.63.17-.94.26.26-2.06,1.97-3.08,3.31-4.22,8.32-7.08,17.17-13.4,26.66-18.89,8.38-4.85,17.07-8.94,26.12-12.22,9.05-3.28,18.3-5.94,27.79-7.74,2.48-.47,4.99-.94,7.46-1.56,1.21-.3,2.69-.9,3.62.71-2.99.14-5.93.52-8.66,1.88l-.02.02c-.51-.07-1.04-.2-1.36.38Z"/>
        <path class="cls-1" d="M965.22,156.42c-.81,0-1.63,0-2.44,0-5.75-.64-11.5-.52-17.25.1.26-1.36,1.3-1.43,2.38-1.43,17.37,0,34.74,0,52.11,0,.88,0,1.8-.04,2.16,1.05-11.55-.03-23.1-.06-34.65-.08-.78,0-1.6-.14-2.32.35Z"/>
        <path class="cls-2" d="M965.22,156.42c.71-.49,1.53-.35,2.32-.35,11.55.02,23.1.05,34.65.08.75.15,1.49.3,2.24.45.06.19.11.39.17.58-1.47.72-3,.19-4.48.13-10.92-.47-21.84-.73-32.77-.67-.71,0-1.41-.14-2.12-.21Z"/>
        <path class="cls-2" d="M953.14,301.62c3.24-2.48,7.09-3.67,10.82-5.12,3.45-1.34,7.15-1.73,10.67-2.8,1.17-.36,2.36-.29,3.54-.07-3.18,1.27-6.76,1.08-9.86,2.45-2.86,1.27-6.13,1.35-8.73,3.45-1.66,1.34-4.24,1.12-5.88,2.75-.19-.22-.38-.44-.57-.67Z"/>
        <path class="cls-2" d="M917.68,160.79c2.73-1.36,5.66-1.74,8.66-1.88.75-.02,1.29-.48,1.85-.89,1.68-.1,3.4.3,5.01-.47,1.05-.16,2.09-.33,3.14-.49,1.77.18,3.59-.41,5.33.33-8,1.13-15.99,2.26-23.99,3.39Z"/>
        <path class="cls-2" d="M1071.7,161.33c-.78.11-1.61.45-2.33.29-6.66-1.42-13.56-.77-20.21-2.27,3.04-.98,6.06.39,9.1.12.56.47,1.24.46,1.91.43,2.57.16,5.13.32,7.7.48.74.39,1.53.54,2.36.5.49.15.98.31,1.47.46Z"/>
        <path class="cls-1" d="M1004.6,157.17c-.06-.19-.11-.39-.17-.58.59-.47,1.29-.55,2.02-.54,5.22,0,10.44,0,15.66,0,.88,0,1.79-.04,2.16,1.03-4.01.17-8.04-.47-12.04.32-2.55.04-5.1.13-7.63-.22Z"/>
        <path class="cls-2" d="M1012.23,157.4c3.99-.78,8.03-.14,12.04-.32,2.07.28,4.14.55,6.21.83.14.14.28.28.43.42-.56.43-1.21.33-1.83.29-5.61-.4-11.22-.82-16.84-1.22Z"/>
        <path class="cls-2" d="M945.53,156.52c5.74-.63,11.49-.74,17.25-.1-6.09.26-12.18.53-18.27.79.05-.21.11-.42.16-.62.29-.02.57-.04.86-.07Z"/>
        <path class="cls-2" d="M1048.17,159.34c-1.71.7-3.46.24-5.16.1-3.23-.27-6.45-.71-9.67-1.08,3.2-.8,6.45-.08,9.67-.34,1.45.08,2.7,1.12,4.22.91.31.14.63.28.94.42Z"/>
        <path class="cls-2" d="M831.38,202.83c.31-.09.63-.17.94-.26-3.37,3.49-6.74,6.97-10.1,10.46.14-1.76,2.11-2.23,2.63-3.73.13-.08.23-.18.31-.31,1.66-1.65,3.33-3.31,4.99-4.96.41-.4.82-.81,1.23-1.21Z"/>
        <path class="cls-1" d="M1043.01,158.02c-3.22.26-6.47-.46-9.67.34-.82,0-1.63-.01-2.45-.02-.14-.14-.28-.28-.43-.42.07-.14.13-.38.22-.4,4.14-.64,8.28-1.3,12.32.5Z"/>
        <path class="cls-1" d="M1048.17,159.34c-.31-.14-.63-.28-.94-.42.7-1.51,2.08-.94,3.17-.92,2.22.05,4.44.31,6.66.48.63.05,1.03.38,1.2.98-3.04.28-6.05-1.09-9.1-.11-.33,0-.66,0-.99-.01Z"/>
        <path class="cls-2" d="M1052.83,596.46c-.04-3.58.47-7.08,1.28-10.55.54,3.64-.31,7.1-1.28,10.55Z"/>
        <path class="cls-2" d="M928.67,355.55c-.16,0-.32.02-.49.03-.64-3.09,0-6.07.72-9.05.94,3.03-.3,6.01-.23,9.02Z"/>
        <path class="cls-2" d="M929.18,342.66c.13-3.22.71-6.36,1.8-9.39-.06,3.23.18,6.53-1.8,9.39Z"/>
        <path class="cls-1" d="M944.68,156.59c-.05.21-.11.42-.16.62-.95.06-1.89.12-2.84.19-1.74-.74-3.56-.15-5.33-.33.3-.76.91-1.06,1.67-1,2.22.19,4.51-.58,6.66.52Z"/>
        <path class="cls-2" d="M1058,553.76c-.18-2.51,1.02-4.81,1.04-7.29.82.25,1.29.96.96,1.63-.91,1.82-.56,4.06-2,5.66Z"/>
        <path class="cls-2" d="M931.08,332.59c.54-3.47,1.54-6.8,3.26-9.88-.8,3.39-1.77,6.72-3.26,9.88Z"/>
        <path class="cls-1" d="M1067.87,160.38c-2.57-.16-5.13-.32-7.7-.48,1.77-1.6,5.82-1.35,7.7.48Z"/>
        <path class="cls-2" d="M1065.21,500.04c-.1-2.29.51-4.49.89-6.72,1.08,2.42.25,4.59-.89,6.72Z"/>
        <path class="cls-2" d="M1062.85,519.49c.06-2.47-.31-5,.98-7.31.01,2.08.03,4.16.03,6.24,0,.64-.37,1-1.01,1.07Z"/>
        <path class="cls-2" d="M1066.25,492.37c-.12-2.13.32-4.2.78-6.26,1.26,2.28.2,4.26-.78,6.26Z"/>
        <path class="cls-2" d="M1067.16,485.17c-.13-2.3.33-4.51.87-6.72.52,2.35.36,4.6-.87,6.72Z"/>
        <path class="cls-1" d="M1071.7,161.33c-.49-.15-.98-.31-1.47-.46,1.76-1.58,4.05-1.4,5.28.41-.54.07-1.07.14-1.61.21-.73-.05-1.47-.11-2.2-.16Z"/>
        <path class="cls-2" d="M1068.17,477.5c-.19-2.14.19-4.21.79-6.25.62,2.2.22,4.26-.79,6.25Z"/>
        <path class="cls-2" d="M1055.23,577.28c-.54-2.19.33-4.19.81-6.25.63,2.2.17,4.26-.81,6.25Z"/>
        <path class="cls-2" d="M1069.11,469.82c-.13-2.26.13-4.46.96-6.57.38,2.29.08,4.49-.96,6.57Z"/>
        <path class="cls-2" d="M1054.26,584.96c-.36-2.16.24-4.2.79-6.25.63,2.2.13,4.25-.79,6.25Z"/>
        <path class="cls-1" d="M830.15,204.04c-1.66,1.65-3.33,3.31-4.99,4.96.42-2.45,2.54-4.56,4.99-4.96Z"/>
        <path class="cls-2" d="M1070.16,462.12c-.28-1.95-.19-3.85.84-5.61.32,1.96-.01,3.82-.84,5.61Z"/>
        <path class="cls-2" d="M938.66,314.76c.73-1.49,1.67-2.84,2.94-3.93-.01,2.04-.93,3.39-2.94,3.93Z"/>
        <path class="cls-2" d="M1057.12,561.45c-.5-1.74.36-3.24.85-4.8.58,1.75.18,3.33-.85,4.8Z"/>
        <path class="cls-2" d="M1056.23,569.11c-.6-1.72.28-3.23.71-4.8.69,1.74,0,3.27-.71,4.8Z"/>
        <path class="cls-1" d="M933.2,157.56c-1.61.77-3.34.36-5.01.47,1.52-1.76,3.27-1.09,5.01-.47Z"/>
        <path class="cls-2" d="M1064.8,504.66c-.17-1.25-.07-2.48.27-3.69.55,1.28,1.74,2.6-.27,3.69Z"/>
        <path class="cls-2" d="M1061.02,531.21c-.45-1.69.38-3.13.92-4.62.34,1.67.22,3.24-.92,4.62Z"/>
        <path class="cls-2" d="M1059.94,538.42c-.21-1.52.46-2.84.98-4.2.35,1.56.29,3.02-.98,4.2Z"/>
        <path class="cls-2" d="M1059,545.61c-.14-1.51.47-2.84.97-4.19.28,1.54.54,3.07-.97,4.19Z"/>
        <path class="cls-2" d="M1062.07,523.51c-.41-1.47.24-2.72.79-4,.35,1.45.36,2.84-.79,4Z"/>
        <path class="cls-2" d="M1063.93,511.05c-.24-.82-.13-1.62.17-2.4.98.87,1.81,1.74-.17,2.4Z"/>
        <path class="cls-2" d="M928.98,345.58c-.25-.68-.17-1.34.1-1.98,1.31.73,1.28,1.39-.1,1.98Z"/>
        <path class="cls-2" d="M1052.51,599.72c-.31-.1-.62-.2-.93-.3.84-.56.71-1.61,1.2-2.35.36.93.15,1.8-.27,2.65Z"/>
        <path class="cls-2" d="M1064.3,507.24c-.2-.93-.12-1.81.5-2.58.23.94.41,1.87-.5,2.58Z"/>
        <path class="cls-2" d="M945.43,307.1c.39-.92,1.14-1.41,2.06-1.69-.32,1-.99,1.6-2.06,1.69Z"/>
        <path class="cls-2" d="M941.86,310.55c.26-.93.89-1.51,1.79-1.81-.28.92-.84,1.55-1.79,1.81Z"/>
        <path class="cls-2" d="M949.75,303.75c.41-.54.81-1.08,1.59-1.04-.31.69-.81,1.08-1.59,1.04Z"/>
        <path class="cls-2" d="M935.25,320.63c-.03-.51.18-.88.62-1.12.06.52-.14.9-.62,1.12Z"/>
        <path class="cls-4" d="M777.65,452.99c-1.46-.59-.96-1.89-.96-2.91-.03-20.69-.02-41.38-.02-62.07,0-15.42,0-30.84.02-46.26,0-1.03-.5-2.32.93-2.93.48,1.41.18,2.85.18,4.27.01,35.68,0,71.36-.02,107.04,0,.95-.09,1.9-.14,2.86Z"/>
        <path class="cls-2" d="M863.51,180c4.02-2.9,8.43-5.01,13.13-6.55-2.28,2.01-5.24,2.77-7.85,4.17-1.69.9-3.17,2.39-5.28,2.38Z"/>
        <path class="cls-2" d="M791.03,265.3c1.33-5.53,3.9-10.55,6.41-15.6-.66,3.74-2.72,6.94-4.08,10.41-.69,1.75-.95,3.73-2.33,5.19Z"/>
        <path class="cls-2" d="M895.14,166.54c3.34-1.88,6.95-2.84,10.75-3.18-3.36,1.82-7.11,2.31-10.75,3.18Z"/>
        <path class="cls-2" d="M799.18,246.59c.57-1.93,1.29-3.79,2.84-5.19-.52,1.96-1.58,3.63-2.84,5.19Z"/>
        <path class="cls-2" d="M807.81,231.76c.56-1.68,1.48-3.11,2.83-4.25-.67,1.6-1.33,3.21-2.83,4.25Z"/>
        <path class="cls-2" d="M843.81,192.81c.86-.94,1.79-1.77,3.05-2.15-.54,1.39-1.89,1.63-3.05,2.15Z"/>
        <path class="cls-4" d="M778.13,326.35c-.62-1.06-.94-2.08.37-2.89.37,1.03.25,1.99-.37,2.89Z"/>
        <path class="cls-2" d="M929.75,599.48c-.55.43-1.1.85-1.64,1.28-.46-1.72.58-1.51,1.64-1.28Z"/>
        <path class="cls-2" d="M802.05,241.35c.08-1.01.43-1.87,1.4-2.35-.34.86-.61,1.76-1.4,2.35Z"/>
        <path class="cls-2" d="M806.36,234.14c.11-1,.47-1.84,1.41-2.33-.07,1.02-.53,1.81-1.41,2.33Z"/>
        <path class="cls-2" d="M892.74,167.41c.5-1.07,1.42-.99,2.37-.85-.65.68-1.54.67-2.37.85Z"/>
        <path class="cls-2" d="M832.78,202.02c.35-.82.85-1.44,1.85-1.39-.33.84-1.19.99-1.85,1.39Z"/>
        <path class="cls-2" d="M803.5,238.96c-.02-.78.29-1.39.94-1.83.18.86-.36,1.36-.94,1.83Z"/>
        <path class="cls-2" d="M816.45,219.73c0-.96.63-1.43,1.38-1.82-.07.9-.58,1.47-1.38,1.82Z"/>
        <path class="cls-4" d="M780.04,308.6c-.58-.62-.5-1.11.29-1.46.23.55.16,1.04-.29,1.46Z"/>
        <path class="cls-2" d="M911.47,162.3c.33-.69.9-.62,1.5-.47-.51.13-.73,1.18-1.5.47Z"/>
        <path class="cls-2" d="M907.65,163.19c.29-.63.83-.52,1.35-.45-.37.39-.69.91-1.35.45Z"/>
        <path class="cls-2" d="M916.3,161.2c.33-.59.85-.46,1.36-.38-.35.5-.74.84-1.36.38Z"/>
        <path class="cls-4" d="M779.14,315.81c-.62-.6-.59-1.1.23-1.48.27.54.23,1.04-.23,1.48Z"/>
        <path class="cls-2" d="M805.45,235.65c-.11-.72.2-1.19.87-1.45-.13.58-.33,1.12-.87,1.45Z"/>
        <path class="cls-2" d="M813.57,223.57c-.09-.71.29-1.11.9-1.36-.08.6-.45,1-.9,1.36Z"/>
        <path class="cls-2" d="M811.17,226.89c-.09-.71.31-1.08.91-1.33-.08.59-.52.94-.91,1.33Z"/>
        <path class="cls-2" d="M812.12,225.51c-.08-.71.29-1.11.9-1.36-.06.61-.5.97-.9,1.36Z"/>
        <path class="cls-2" d="M839.49,196.19c.26-.61.67-.95,1.37-.84-.2.7-.9.59-1.37.84Z"/>
        <path class="cls-2" d="M814.52,222.15c-.03-.71.34-1.13.98-1.35.05.73-.55.97-.98,1.35Z"/>
        <path class="cls-4" d="M782.01,297.1c-.51-.46-.36-.78.23-.99.17.39.1.72-.23.99Z"/>
        <path class="cls-4" d="M782.98,292.31c-.53-.5-.33-.8.27-.99.16.4.05.72-.27.99Z"/>
        <path class="cls-2" d="M1050.56,599.43c-.29.36-.59.38-.9.03.29-.32.59-.33.9-.03Z"/>
        <path class="cls-2" d="M877.39,173.13c.13-.26.34-.33.61-.23-.2.08-.4.15-.61.23Z"/>
      </g>
    </g>
  </g>
</svg>