<?xml version="1.0" encoding="UTF-8"?>
<svg xmlns="http://www.w3.org/2000/svg" version="1.1" viewBox="0 0 335 404">
  <defs>
    <style>
      .cls-1 {
        fill: #085b9d;
      }

      .cls-2 {
        fill: #0f4f97;
      }

      .cls-3 {
        fill: #5bc7f7;
      }

      .cls-4 {
        fill: #0b559a;
      }

      .cls-5 {
        fill: #31b8f5;
      }

      .cls-6 {
        fill: #5fc8f7;
      }
    </style>
  </defs>
  <!-- Generator: Adobe Illustrator 28.7.4, SVG Export Plug-In . SVG Version: 1.2.0 Build 166)  -->
  <g>
    <g id="Calque_1">
      <g>
        <path class="cls-6" d="M326.9,10.6c-1.6,1.2-3.4,2.2-4.7,3.6-82.8,82.7-165.6,165.5-248.3,248.4-3.3,3.3-5,3.1-8.1,0-17.3-17.6-34.7-35-52.3-52.3-3.3-3.3-3.7-4.9-.1-8.5,62.5-62.3,124.9-124.7,187.2-187.2,4-4,7.8-5.5,13.4-5.5,35.5.2,70.9.1,106.4.1,1.8,0,3.7,0,5.5,0,.3.5.7,1,1,1.5Z"/>
        <path class="cls-3" d="M159.9,236.9c14.7-14.7,29.3-29.5,43.9-44.3,1.3-1.3,2.7-1.8,4.4-1.8,38.9,0,77.9,0,117,0-.1,2.3-1.9,3.2-3.1,4.4-32.2,32.3-64.5,64.5-96.7,96.8-1.5,1.5-3.5,2.7-3.9,5-.5,0-1,0-1.5,0,0-1.9-1.5-2.9-2.6-4.1-17.8-17.8-35.6-35.6-53.5-53.5-1.2-1.2-2.2-2.5-4.1-2.5Z"/>
        <path class="cls-1" d="M220,297c.5,0,1,0,1.5,0,34.9,34.8,69.8,69.5,104.7,104.4-2,1.6-3.5,1.1-4.9,1.1-37,0-74,0-110.9,0-3.3,0-5.6-.9-7.9-3.3-13.9-14.2-27.8-28.2-41.8-42.3.7-.7,1.4-1.4,2.1-2.2.4.6.9,1,1.7.7,10.9-3.7,21.8-7.2,32.4-11.6,6.4-.9,12.3-3.7,18.1-6.2,4.8-2,4.6-3.1.7-6.6-2.9-2.5-5.3-5.4-8.2-8-2.6-2.4-4-5.2-3.8-8.7.5-1.9,2.2-2.9,3.4-4.2,4.2-4.5,8.5-8.9,12.8-13.3Z"/>
        <path class="cls-5" d="M220,297c-4.3,4.4-8.6,8.8-12.8,13.3-1.2,1.3-2.9,2.3-3.4,4.2-5.3,4-10,8.7-14,14-9.7,8.1-18.2,17.4-26.9,26.4-.7.7-1.4,1.4-2.1,2.2-19.6-19.4-39.1-38.9-58.7-58.3-1.7-1.7-1.5-2.9.1-4.5,19.2-19.1,38.4-38.2,57.6-57.3,1.9,0,2.9,1.4,4.1,2.5,17.8,17.8,35.6,35.6,53.5,53.5,1.2,1.2,2.6,2.2,2.6,4.1Z"/>
        <path class="cls-4" d="M189.8,328.4c4-5.3,8.7-10,14-14-.1,3.5,1.2,6.3,3.8,8.7,2.8,2.6,5.3,5.5,8.2,8,4,3.5,4.2,4.6-.7,6.6-5.9,2.5-11.7,5.3-18.1,6.2,1.2-2.6.3-4.5-1.7-6.3-2.7-2.5-6-4.7-5.4-9.2Z"/>
        <path class="cls-2" d="M189.8,328.4c-.6,4.5,2.7,6.7,5.4,9.2,2.1,1.9,2.9,3.7,1.7,6.3-10.6,4.5-21.5,7.9-32.4,11.6-.7.2-1.2-.2-1.7-.7,8.7-9,17.2-18.3,26.9-26.4Z"/>
      </g>
    </g>
  </g>
</svg>