<?xml version="1.0" encoding="UTF-8"?>
<svg xmlns="http://www.w3.org/2000/svg" version="1.1" viewBox="0 0 138.8 139">
  <defs>
    <style>
      .cls-1 {
        fill: #fff;
      }

      .cls-2 {
        fill: #3056a3;
      }
    </style>
  </defs>
  <!-- Generator: Adobe Illustrator 28.7.4, SVG Export Plug-In . SVG Version: 1.2.0 Build 166)  -->
  <g>
    <g id="Calque_1">
      <g>
        <circle class="cls-2" cx="69.2" cy="69.2" r="68.6"/>
        <path class="cls-1" d="M49.7,45.1c.4,0,.8.2,1.1.4,2,1.1,4,2.2,6,3.3.3.2.6.2.9,0,1.3-.7,2.6-1.3,4-1.7.3-.1.5-.3.6-.6.6-2.2,1.3-4.4,1.9-6.7.3-1.1.9-1.6,2.1-1.6,1.9,0,3.8,0,5.6,0,1.2,0,1.8.4,2.1,1.6.7,2.2,1.3,4.4,1.9,6.7,0,.3.2.5.6.6,1.4.4,2.8,1,4.1,1.7.3.2.5.2.9,0,2-1.1,4.1-2.2,6.1-3.4,1-.5,1.8-.5,2.6.3,1.4,1.4,2.7,2.7,4.1,4.1.8.8.9,1.5.4,2.5-1.1,2-2.2,4-3.3,6-.2.4-.2.7,0,1.1.7,1.2,1.2,2.5,1.6,3.9.1.4.3.6.7.7,2.1.6,4.3,1.2,6.4,1.9,1.4.4,1.7.9,1.7,2.3,0,1.8,0,3.6,0,5.4,0,1.4-.4,1.9-1.7,2.3-2.2.6-4.3,1.3-6.5,1.9-.3,0-.5.2-.6.6-.4,1.4-1,2.8-1.7,4.2-.2.3,0,.5,0,.8,1.1,2,2.2,4,3.3,6,.6,1.1.5,1.8-.4,2.6-1.3,1.3-2.7,2.7-4,4-.8.8-1.5.9-2.5.3-2-1.1-4-2.2-6-3.3-.3-.2-.6-.2-1,0-1.2.7-2.5,1.2-3.9,1.6-.5.1-.7.4-.8.8-.6,2.1-1.2,4.2-1.8,6.3-.4,1.4-.9,1.8-2.3,1.8-1.8,0-3.7,0-5.5,0-1.2,0-1.7-.4-2.1-1.5-.7-2.2-1.3-4.5-2-6.7,0-.3-.2-.5-.6-.6-1.4-.4-2.8-1-4.1-1.7-.3-.2-.6-.2-.9,0-1.9,1.1-3.9,2.2-5.9,3.2-1.3.7-1.9.6-2.9-.4-1.3-1.3-2.6-2.6-3.9-3.9-.7-.7-.8-1.5-.3-2.4,1.1-2.1,2.2-4.1,3.4-6.1.2-.3.2-.6,0-1-.7-1.3-1.2-2.6-1.7-4,0-.3-.3-.5-.6-.6-2.2-.6-4.4-1.3-6.6-1.9-1.2-.4-1.7-.9-1.7-2.2,0-1.9,0-3.8,0-5.6,0-1.1.5-1.7,1.5-2,2.2-.6,4.4-1.3,6.7-1.9.3,0,.6-.2.7-.6.4-1.4,1-2.8,1.7-4.1.2-.3.1-.5,0-.8-1.1-2-2.2-4.1-3.4-6.1-.6-1-.5-1.8.3-2.6,1.3-1.3,2.7-2.7,4-4,.4-.4.9-.7,1.5-.7ZM84.1,70.9c0-8.2-6.7-14.9-14.9-14.9-8.2,0-14.9,6.7-14.9,14.9,0,8.2,6.7,14.9,14.9,14.8,8.2,0,14.9-6.7,14.9-14.9Z"/>
      </g>
    </g>
  </g>
</svg>