<?xml version="1.0" encoding="UTF-8"?>
<svg xmlns="http://www.w3.org/2000/svg" version="1.1" viewBox="0 0 1502.4 992.1">
  <defs>
    <style>
      .cls-1 {
        fill: #9b9b9b;
      }
    </style>
  </defs>
  <!-- Generator: Adobe Illustrator 28.7.4, SVG Export Plug-In . SVG Version: 1.2.0 Build 166)  -->
  <g>
    <g id="Calque_1">
      <g>
        <path class="cls-1" d="M780.4,479.7c0-.3.2-.5.3-.8-1.5-1-2.9-2.3-4.4-3.7-.2-.2-.5-.5-.7-.6-.1,0-.3-.2-.4-.3-6.6,6-13.3,11.9-17.7,20-4.7,8.5-3.7,13.8,3.7,20.2.8.7,1.7,1.2,2.4,2,.2,0,.3,0,.5,0,.9.1,1.8,0,2.8,0,1.6-1.9,3.9-3,5.7-4.8,4.3-4.4,4.5-7.7-.7-11.1-3.8-2.5-4-4.8-2.1-8.3,2.7-5,5.4-9.9,10.7-12.6Z"/>
        <path class="cls-1" d="M733.8,517.6c.2,0,.5-.2.8-.3,0,0,0,0,0,0,1.5-2.4,4.1-3.6,6.1-5.5,3.9-3.8,4.2-7.9-.2-10.6-5.2-3.2-4-6.5-1.8-10.4,1.6-2.8,3.1-5.9,5.8-7.8,1.9-1.3,2.8-2.6,3.1-4-1.8-1.1-3.5-2.5-5.1-3.8-8.2,7.1-15.4,14.9-20,24.9v5.9c2.2,4.7,6.6,7.7,9.8,11.6.5,0,1,0,1.5,0Z"/>
      </g>
    </g>
  </g>
</svg>