<?xml version="1.0" encoding="UTF-8"?>
<svg xmlns="http://www.w3.org/2000/svg" version="1.1" viewBox="0 0 60.9 45.3">
  <defs>
    <style>
      .cls-1 {
        fill: #9b9b9b;
      }
    </style>
  </defs>
    <g id="Calque_1">
      <g id="Calque_1-2" data-name="Calque_1">
          <path class="cls-1" d="M20.7,3.4c-.7-.6-1.6-1.1-2.2-1.9-.4-.3-.8-.6-1-.8,0,0-.2-.1-.3-.2-.5.2-1.1.3-1.6.5,0,0-.3.1-.4.2-1.6,2-4,3.1-5.8,4.9-4.3,4.4-4.5,7.7.7,11.1,3.8,2.5,4,4.8,2.1,8.3-2.8,5.2-5.6,10.2-11.2,12.9v.6c.3.3.6.7.9,1.1,1.1,1.4,1.9,2.9,2.6,4.4,0,0,0,0,0,.2.4,0,.8-.2,1.4-.3,6.9-6.3,14-12.4,18.6-20.7,4.7-8.5,3.7-13.8-3.7-20.2h-.2Z"/>
          <path class="cls-1" d="M50.5,1.6c-.4-.3-.9-.6-1.3-.9-.3,0-.7,0-1,.1h-.2c-.2,0-.4,0-.5.1-.3.1-.5.3-.8.5-1.5,2-3.9,3.1-5.6,4.8-3.9,3.8-4.2,7.9.2,10.6,5.2,3.2,4,6.5,1.8,10.4-1.6,2.8-3.1,5.9-5.8,7.8-1.7,1.2-2.6,2.4-3,3.6,0,0,0,.2,0,.3.4.8.7,1.7,1,2.5,0,.2.2.3.3.5.5.7.9,1.4,1.2,2.1,0,.2.2.3.3.5h.3c9-7.5,16.9-15.8,21.8-26.5v-4.9c-1.5-5-5.6-7.9-8.8-11.5Z"/>
      </g>
    </g>
</svg>