<?xml version="1.0" encoding="UTF-8"?>
<svg xmlns="http://www.w3.org/2000/svg" version="1.1" viewBox="0 0 254 186">
  <defs>
    <style>
      .cls-1 {
        fill: #9b9b9b;
      }
    </style>
  </defs>
    <g id="Calque_1">
        <path class="cls-1" d="M185.8,179.6c-3.8-.5-6.9-1-9.8-3.5-6.2-5.3-12.4-10.5-18.1-16.4-18.5-19.3-19.8-40.6-8.8-63.9,8-16.8,18.5-31.9,30.6-46,13.9-16,29.7-30,45.2-44.3,2.3-2.1,4-1.8,6,0,5.8,5.5,11.7,10.9,18.1,15.6,3.1,2.2,1,4.5-.8,5.5-21.7,12.1-32.9,32.8-43.8,53.7-6.9,13.1-4.8,21.3,6.9,30.4,3.7,2.8,7.7,5.3,11.1,8.4,9.2,8.4,10.4,18.1,3.8,28.6-4.3,6.8-9.8,12.6-16.3,17.4-5.2,3.9-10.7,7.4-15.1,12.2-2.7,2.9-6.5.6-9.1,2.1Z"/>
        <path class="cls-1" d="M8.6,123.2c-2-9,1.3-16.6,5.4-24.3,16.5-30.7,38.9-56.7,64.4-80.1,3.4-3.1,7.1-6.1,10.3-9.4,2.1-2.1,3.6-2,5.8-.2,5.3,4.3,10.8,8.4,16.4,12.3,2,1.4,2,2.6,1.2,4.6-2.1,5.4-5.9,9.3-10.4,12.5-6.8,4.8-12.2,10.8-16.5,17.8-4.9,7.9-9.7,15.9-13.6,24.4-6.6,14.2-3.9,23.8,9,32.7,1.8,1.2,3.6,2.4,5.4,3.6,11.4,8.1,14,19.8,6.9,31.9-3.8,6.4-9,11.5-14.9,16-6.6,5.1-13.5,9.7-18.5,16.6-2.4,3.2-9.1,3.7-11.6.8-9.4-11-20.6-20.3-29.9-31.5-6.6-8.1-12.1-16.4-9.4-27.5Z"/>
    </g>
</svg>