<?xml version="1.0" encoding="UTF-8"?>
<svg id="Calque_1" xmlns="http://www.w3.org/2000/svg" version="1.1" xmlns:xlink="http://www.w3.org/1999/xlink" viewBox="0 0 123.8 123.3">
  <!-- Generator: Adobe Illustrator 29.3.1, SVG Export Plug-In . SVG Version: 2.1.0 Build 151)  -->
  <defs>
    <style>
      .st0 {
        fill: #fff;
      }

      .st1 {
        fill: none;
      }

      .st2 {
        fill: #3056a2;
      }

      .st3 {
        clip-path: url(#clippath);
      }
    </style>
    <clipPath id="clippath">
      <rect class="st1" width="123.3" height="123.3"/>
    </clipPath>
  </defs>
  <g class="st3">
    <g>
      <path class="st2" d="M61.6,123.3c34,0,61.6-27.6,61.6-61.6S95.7,0,61.6,0,0,27.6,0,61.6s27.6,61.6,61.6,61.6Z"/>
      <path class="st0" d="M37.2,82.2v-35.9h12.5c2.5,0,4.6.4,6.2,1.3,1.6.9,2.8,2,3.6,3.4.8,1.4,1.2,3,1.2,4.8s-.3,2.8-.8,3.8c-.5,1-1.2,1.8-2.1,2.4-.9.6-1.8,1-2.9,1.3v.4c1.1,0,2.2.5,3.3,1.2,1.1.7,2,1.7,2.8,3,.7,1.3,1.1,2.9,1.1,4.8s-.4,3.4-1.2,4.9-2.1,2.6-3.9,3.4c-1.8.8-4.1,1.3-6.9,1.3h-13ZM41.6,78.3h8.6c2.8,0,4.9-.5,6-1.6,1.2-1.1,1.8-2.5,1.8-4s-.3-2.3-.9-3.4c-.6-1-1.5-1.9-2.6-2.5-1.1-.6-2.5-.9-4.1-.9h-8.8v12.5ZM41.6,62.1h8.1c1.3,0,2.5-.3,3.5-.8,1.1-.5,1.9-1.2,2.5-2.2.6-.9.9-2,.9-3.3s-.5-2.9-1.6-4c-1.1-1.1-2.8-1.7-5.2-1.7h-8.2v11.9ZM69.3,82.2v-35.9h21.6v3.9h-17.3v12.1h16.2v3.9h-16.2v12.2h17.6v3.9h-21.9Z"/>
    </g>
  </g>
</svg>