<?xml version="1.0" encoding="UTF-8"?>
<svg id="Calque_1" xmlns="http://www.w3.org/2000/svg" version="1.1" viewBox="0 0 1119.3 1071.6">
  <!-- Generator: Adobe Illustrator 29.4.0, SVG Export Plug-In . SVG Version: 2.1.0 Build 152)  -->
  <defs>
    <style>
      .st0 {
        fill: #fdfefe;
      }

      .st1 {
        fill: #bf3840;
      }

      .st2 {
        fill: #2f4487;
      }
    </style>
  </defs>
  <g id="Calque_11">
    <g>
      <path class="st2" d="M31.3,1028.3c2,0,4.1-.4,6.2-.4h500.8c3.4,0,6.9-.2,10.2,0,8.1.6,13.8-3,18-9.6,11.2-18.1,25-34.4,36.8-52,12.2-18.2,25.1-36.2,36.9-54.8,22.1-34.9,43.7-70.4,63.6-106.5,16.5-30.1,32.7-60.1,47.2-91.1,10.6-22.5,20.5-45.2,30.7-67.9,1.5-3.4,2.9-7,4.4-10.4,1.9-4.2,1.9-8.5.6-12.7-2.4-7.9-3.1-16.1-3.9-24.2-1.7-17.5-4.6-34.6-8.1-51.6-2.2-11.2-3.5-11.2-14.8-12.5-45.4-5.2-91.1-3.9-136.7-5.5-24-.7-47.7-3.2-70.9-10.1-6.9-2-13.7-4.6-20.5-7.1-1.6-.6-3.4-1.4-3.1-3.5,0-1.6,1.5-2,2.7-2.5,12.6-4.7,24.1-11.6,34.6-19.6,8.7-6.6,16.3-6.7,25.3-1.7,9.5,5.2,20.1,7.5,30.6,9.2,24.8,4.2,50.2,6.6,75.3,7,22,.2,43.7.5,65.6.4,18.8,0,37.6,2.2,56.1,4.6,3.7.5,6,2.4,6.7,6.5,5,25.1,9.1,50.5,15.7,75.2,3,10.9.4,19.1-3.5,28.1-9.9,22.8-19.2,45.9-29.3,68.6-7.7,17.5-16.6,34.6-24,52.1-9.4,22-21,42.5-31.6,63.6-7.6,15.2-15.2,30.6-24.7,44.9-3.9,5.9-6.7,12.2-10.5,18.1-16.7,26.2-31.7,53.5-50.3,78.6-14.5,19.6-28.8,39.4-42.8,59.3-4.4,6.2-11,8.6-17.1,11.5-14.3,6.9-29.4,12.5-43.7,19.5-9.1,4.5-18,5.1-27.4,5.1H37.6c-2,0-4.1-.2-6.2-.4v-8h0v-.2Z"/>
      <path class="st2" d="M1066.2,305.9c-2,.7-3.2,2.2-4.4,4.2-7.6,13.5-14.8,27.3-23.2,40.3-10.9,17.1-23.3,32.9-37.3,47.8-15.2,16-30.7,31.7-43.2,50-6.1,9-11.1,18.7-14,29.7-5.6,21.7-11.9,43.2-19.1,64.4-6.7,19.5-9.9,39.8-14,59.9-.5,2.5,0,4.9,1,7.4,5.2,15.2,13.5,28.8,22.2,42.2,10.7,16.3,22.7,31.9,28.8,50.9,3.9,12,4.7,24.6,4.9,37.1,0,1.6-.6,3-1.7,4.1-10.7,10.7-22.6,20.1-35.2,28.8-12.6,8.7-25.8,15.7-39.7,21.8-13.5,6-26.8,12.1-41.5,14.7-3.1.6-4.5,2.4-5.1,5.2-5,21.7-6.9,43.8-8.6,66.1-.4,4.6-.9,9-1.2,13.6-.2,2.5-1.6,4.1-3.7,5.2-14,7.9-27.7,15.8-41.5,23.7-1.9,1-3.5,1.6-5.2.4-1.6-1.2-1.5-3.1-.9-4.7,1.4-3.5,1-7.1,1-10.7-.2-19.5,2-38.5,5.4-57.6,3-16.1,11.6-29.3,22.3-41,21.3-23.5,47.5-40.7,76.8-52.9,7.4-3.1,14.5-6,22-8.7,3.5-1.4,4.4-3.2,3.9-7-2.9-23.5-14.7-43.2-27.1-62.5-8.2-13-14.8-26.9-19.2-41.8-1.5-5,1.1-9.7,1.6-14.6,2.4-25,8.4-49.3,12.7-74,1.9-9.9,5-19.5,7.4-29.2,1.1-4.6,1.7-9.4,2.6-14,3.1-15.7,13.1-27.6,22.7-39.5,21.8-27.1,48.3-50.2,67.2-79.5,9.9-15.2,18.1-31.3,27.4-46.7,9.7-15.8,20.3-31.3,29.4-47.4,4.7-8.5,10.1-15.3,19.1-19.5,2.2-1,4.5-2,7-2.4v36.6-.2h.4Z"/>
      <path class="st1" d="M765.2,259.9c1.5,25.1-5.9,48.8-14.1,71.6-6,16-14.6,31.3-26.1,44.7-7.7,9-15.1,18.5-23.2,27.3-6.9,7.4-14.3,14.3-22.5,20.7-18,14-37.4,25.1-58.8,32.8-14.2,5.1-28.8,9.1-44.2,10.1-5.9.4-11.6,1.2-17.6,1.4-28.8.6-56.4-5.4-82.3-16.8-21.2-9.4-40.2-22.5-57.3-38.7-15.1-14.1-27.2-30.2-36.6-48.3-10.1-19.7-18.7-39.9-21.1-62.5-.9-8.7-1.4-17.3-2.4-26.1-1.6-12.7,1.2-25.3,2.6-37.9,2-18.2,9.9-34.7,17.1-51.5,6.5-14.8,15.2-27.9,25.2-40.3,5.1-6.4,11.4-12,17.2-17.8,4.5-4.5,9.1-8.6,13.6-12.8,22.1-21.6,48.3-36.1,77.6-44.8,31.9-9.4,64.2-10.7,97.4-3.7,20.3,4.4,38.9,11.6,56.8,21.2,13.8,7.4,26.1,17.6,37.4,28.4,20.8,19.7,37.2,42.9,47.5,69.4,5.7,14.7,10.9,30.3,11.7,46.8.5,9.1,1.1,18.1,1.9,27.3v-.2h-.1ZM671.9,328.5c-.6,1.5-1.7,2.2-3,3.2-3.1,2-4.1,5.4-2.6,8.6,3.2,7,4.9,14.3,7.4,21.6,4.4,13,7.6,26.2,9.6,39.8.6,3.7,3.1,5.7,6.1,3.7,3.5-2.1,7.5-4.1,10-7.4,8.5-11.4,18.5-21.5,24.5-34.7,4-8.7,8.7-17.2,11.9-26.4,5.4-15.6,8.4-31.7,10.6-48.2,2.4-17.1-.5-33.6-2.7-50.3-.4-2-1.1-4.5-3.6-4.4-2,0-3.2,2.1-3.4,4.1-1.1,7.1-4.7,13.1-7.5,19.6-3.7,8.7-9.1,16.6-14.8,24.1-3.1-2.7-1.6-6.7-2.5-10.1.4-1.2.6-2.6,1.1-3.7,6.7-13.8,10.5-28.4,10.9-43.8.4-12.6-1-25.2-7.6-35.7-12-19.1-30.2-31.6-49.5-42.5-2.2-1.4-4.9-4.5-7.5-3.1-3.6,1.9,0,5.6-.7,8.4v1.1c.4,19.1-9,34.6-17.2,50.8-6.5,12.7-17.1,22-26.2,32.6-4.7,5.6-5.1,6.5-.5,12.5,4,5,8.2,10.1,11.6,15.5,12.2,19.5,24.5,38.9,33.1,60.3,1.7,4.2,4,5.2,7.6,2.5,1.6,1.6,3.4,2.4,5.6,2h-.4ZM634.3,357.8c.5-1,.6-2.2,1.4-3,4.1-3.9,1.1-4.6-2.2-5.1,8.7-6.9,9.4-7.2,4.5-17.3-6-12.4-12.2-24.6-20-36.2-6.4-9.7-12.2-20-19-29.6-7.1-10.1-7.7-10.1-18-2.9-20.7,14.8-43.9,24.6-68.5,31.3-18.6,5-37.6,4.5-56.6,4.6-8.4,0-8.7,0-8,8.1,2.2,25.1,7.5,49.8,14.1,74.1.5,1.7,1.7,2.9,3.5,3.4,14.1,3.7,28.4,4.5,42.8,3,14.5-1.5,28.8-3,43.2-6.7,12.7-3.4,25.1-7.2,37.4-11.5,10.6-3.7,21-8.6,31.4-12.8-.5.7-.7,1.7-1.5,2.4-1,1.2-4.1,2-2.5,4.1,1,1.5,3.5.6,5.2-.2s2.4-1.9,3.6-2.6c2.7-1.7,5.2-3.9,8.7-2.9-3.6,2.6-7.2,5.6-11.1,7.7-29.8,16-60.3,30.4-94.2,35.6-17.2,2.5-34.4,5.7-52,3.4-2-.2-4.4-.9-4.7,2.5-.4,4.2,7.9,20,11.6,22,16.3,8.7,33.6,14.7,51.9,17.8,23.8,3.9,47.5,3.1,71.4-1,12.1-2.1,23.3-6.5,34.9-10.1,7.7-2.4,15.1-6.1,21.7-11.4,2.5-2,4.7-4.1,3.9-7.6-4.2-15.1-8.6-30.2-12.8-45.2-1.7-5.9-5.7-10.7-7-16.7-.7-3.7-3.4-3.4-6-1.6-2.4,1.7-3.9,4.9-7.4,4.7h.2v-.2ZM484.5,281.7c15.8.4,29.3-1.4,42.7-4.4,19.1-4.2,36.2-12.6,53.3-21.3,6.4-3.4,6.5-7,1.6-11.7-4.7-4.6-9.1-9.6-13.1-14.7-13.7-17.6-29.7-32.8-45.8-48.2-2.2-2.1-4.7-2.5-7.2-.6-12.1,9.1-26.3,11.4-40.8,12.4-4.4.4-7.4,1.6-8.7,5.7-3.4,10.1-7.7,20-10.1,30.2-3,13.2-6.4,26.4-7.4,40.3-.6,7.9-.2,8.6,7.7,10.2,10,2,20,2.5,27.8,2.2h0ZM589,129.1c-8-.2-16,.4-23.8,1.4-4.2.6-8,1.9-9.1,6.4-2,8.4-7.6,14.5-13.2,20.2-3.6,3.6-3.1,5.4-.2,8.7,19.8,22.3,42.7,42,59.8,66.7,1.4,2,3.2,3.6,5.6,1.2,8.5-8.6,16-18,21.7-28.4,10.5-19.5,11-40.3,7.4-61.5-.7-4.7-3-10.1-8.6-11.1-13.1-2.2-26.1-4.6-39.5-3.6h.1ZM390.1,205.6c-.9,16.3,3.1,28.8,10.4,39.9,5.5,8.4,13.6,14.6,21,21.3,3.4,3.1,7.4,1.9,8.7-2.7,2.2-7.4,4-15,5.9-22.5,4-16.5,10.6-31.9,18.5-46.8,2-3.7,2-5.4-1.6-7.6-9.5-6.1-15.3-14.2-13.2-26.6.7-4.4-3.1-7.2-6.9-5.1-5.9,3.1-12.1,3.4-18.2,3.5-5.9.2-9.6,3-12.7,7.2-4.4,5.7-5.6,12.6-8,19.1-2.9,7.7-2.4,15.6-3.6,20.6v-.2h-.1ZM380.1,285.4c.4,3.7,0,7.4.7,10.9,5,19.2,11.6,37.6,21.3,54.9,3.4,6,6.5,12,12.5,15.8,6.5,4.4,13.8,7.2,20.7,10.9,1.1.6,2.4,1.5,3.6.2,1.1-1,.7-2.4.5-3.6-3.4-10-4.4-20.3-6.2-30.6-2.9-14.1-5-28.4-5-42.8s-2-7.7-6.5-9.4c-15.3-5.6-27.9-15-37.9-27.8-1.1-1.5-2.2-3.5-4.5-2.6-2.2.9-1.5,3.4-1.2,5,.6,6.4,3,12.6,2.1,19.1h-.1ZM548.9,89.8c-4.7,0-8.4,3.1-12.6,4.7-1.2.6-3.4.9-3.1,2.9,0,1.7,1.9,2.2,3.2,3,4.5,2.4,10,3.5,12.7,8.2,4.2,7,10.6,7.1,17.3,6,11.1-2,22.1-3.4,33.3-3.5,2.6,0,5.2-.5,7.9-.7,1.1,0,2.2-.6,2.4-2s-.9-2-2-2.5c-18.3-10.2-38.2-16-59.4-16.1h.2ZM420.4,143c4.6-.9,7.9-1.1,10.9-2.1,8.4-3.1,18.1-2.7,25.1-9.5,4.5-4.2,7-9.9,11.6-13.8,2-1.7.6-3.9-1.2-5.2-2.9-2-5.5-1.5-8.6,0-13.1,5.7-23.8,15.3-35.8,22.7-1.6,1-2.7,2.6-3.4,4.6-.6,2.2,0,3.7,1.2,3.6h0l.2-.2ZM493.4,174.5v-.5c4,0,8,.2,12,0,2,0,4.1-1.4,4.9-3.4.5-1.2-.4-2.9-1.5-3.4-5.5-2.4-9-7.4-14.1-10.5-3.4-2.1-6.4-1.2-7.9,2.5-1.4,3.4-3,6.5-5.6,9.1-1.1,1.2-2.1,2.9-1.1,4.7.9,1.6,2.7,1,4.1,1.1,3.1.2,6,.4,9.1.6v-.2h.1ZM479.3,148.4c-3.4.5-7.1.9-10.9,1.6-12.7,2.1-13.7,5-5.6,15.3,3.4,4.2,7,4.5,10.2,0,3.2-4.2,6-8.7,8.7-13.2s1.2-4-2.5-3.7h0ZM672.9,123.6c.5-2.4-.6-3.1-1.4-3.9-8.2-7.1-18-11.9-26.8-18.1-.7-.6-1.7-.6-2.6-1-1.1-.4-2.4-.5-3.1.6s0,2.2.7,3.1c2.1,2.1,4.9,3.7,6.5,6.2,6.5,10,17.6,8.7,26.7,12.8h0ZM539.1,141.2c0-3.1-1.2-6.1-4.4-5-5.2,2-10.7,2-15.8,3.5-1.7.5-2.9,2-1.2,3.4,4.4,3.9,7.4,9.1,12.6,12.1,1.6.9,3.4,1.2,4.4-.7,1.9-4.4,4.7-8.4,4.7-13.2h-.2ZM527.4,122.4c-.2-.4-.5-1-.9-1.6-4.2-4.9-11.5-4.4-14.6,1-.9,1.6-2,3.2-3,4.7-.6.9-1.9,1.9-.7,2.9.7.9,2.1.5,3.2,0,4.7-1.5,9-3.7,14-4.6,1-.2,2-.9,2.2-2.6h0l-.2.2ZM495.3,102.5c6.9-5.2,16.6-2.9,25.1-6,.6-.2,1.4-.6,2-1,1-.6,2-1.2,1.7-2.6-.5-1.9-2-1.6-3.2-1.1-8.9,3.2-18.3,4.2-27.6,6.1-1.5.4-3.4.6-3.1,2.6s2.2,1.4,5,1.9h.1ZM499.6,115c-3.4,0-6,1.9-6.4,5-.5,2.6,2,4,4.5,3.9,3.6,0,5.1-2.7,5.7-6,.5-2.6-1.6-3-3.6-3h-.2ZM468,134.3c2.5-.6,6-.9,6.5-5,.2-2.4-1.4-3.6-3.6-3.2-3.6.6-6.2,3.1-7.1,6.5-.5,1.9,2,1.7,4.1,1.9h.1ZM448.9,402.9c0-2-1.2-3.6-3.5-4.1-1.4-.2-2.1.6-2,2,0,2.2,1.5,3.7,3.6,4.5,1.4.4,2-.6,2-2.1h0v-.2Z"/>
      <path class="st2" d="M870,413.9c5.6.2,12.4,0,18.5-3.6,1.7-1,4.2-2,5.9-.4,2,2-.5,3.9-1.6,5.4-9.4,12.6-19.3,24.2-34.2,31.3-29.7,14.2-63.6,6.2-85.1-16.8-15.8-17.1-20.7-36.9-18.1-59.8,3.1-27.1,19.1-44.2,41-57.1,1.1-.6,2.2-1.2,3-2.5,6.2-13,16.5-22.6,27.9-30.6,17.8-12.2,37.2-16.3,58.4-9.9,9,2.7,18,5.5,25.4,11.5,15.2,12.1,25,27.1,28.4,46.4,2.4,13.8,1,27.3-3.5,39.8-4.6,12.7-12.7,23.7-24.1,31.8-3.2,2.2-6.5,4.6-10,6.6-1.5.9-3.4,1.5-4.7,0-1.5-1.4-1-3.2-.4-4.7,8.6-22.5,4.2-42.8-9-62.3-5.2-7.6-11.4-14.8-18.6-19.5-19.6-12.5-41.2-16.7-64.1-9.1-6.1,2-7.2,7.5-8.7,12.4-5.5,16.8-2,32.8,4.7,48.8,5.9,13.7,15.8,23.3,27.4,31.8,1.9,1.4,4,2.1,6,3,11,4,21.8,8.9,35.4,7.7h0v-.2Z"/>
      <path class="st1" d="M325.6,971.7c4.7-.2,9.5-.6,14.1-.7,6-.2,7.1,1.5,5.1,7.2-.2.6-.5,1-.6,1.6-.2,1.9-3.4,3.9-.9,5.4,2.1,1.2,5-.2,6.5-2.2,4.9-6.2,10.1-12.5,14.1-19.3,2.2-3.9,6-5.9,8.5-8.9,15-18.1,29.9-36.3,44.9-54.3,2.2-2.7,4.7-5.4,7.2-8.1,1.2-1.4,2.7-2.1,4.6-1.9,9.1,1.1,18.1-.4,27.3,0,4.6,0,7,1.9,7.4,6.7,1.9,27.8,3.9,55.6,6,83.5,0,1.7.5,3.4.9,5,1.7,6.2-.6,9.9-7,9.6-7.7-.2-15.5.2-23.3-.7-4.4-.6-6.1-2.1-6-6.4.6-12.6-.9-11.4-12.4-11.4s-18.6.4-27.9.2c-3.4,0-5.9,1-7.6,3.9-2.5,3.7-6,6.7-8.5,10.7-1.9,3.1-5.9,3.6-9.2,3.6-11.5,0-23.2,0-34.7-.2-13.5,0-26.8-.2-40.3.2-7,.2-14-1.1-21-.2-3.5.5-5-2.5-3.4-6,9-18.5,14.2-38.4,22.2-57.3,4.9-11.9,8.7-24.2,12.7-36.4,1.1-3.5,3.5-4.9,6.9-4.7,7.7.6,15.3,1.2,23.2-.6,3.7-.9,5.6,1.6,4,5.1-4.5,9.9-7.1,20.3-11.9,30.2-5.2,10.6-7.1,22.8-12.4,33.7-.7,1.7-1.6,3.4-2.5,5.1-2.5,4.5-1.1,7.2,4,7.6,3.2.4,6.5,0,9.7,0h.2-.1ZM420.7,955v.5h3.4c8.2.2,10-1.7,8.4-9.7-.9-4.6-.6-9-.6-13.6s1-3.9-.9-4.7c-2.1-.9-3.2,1.6-4.5,2.9-5.7,6-9,14-15.6,19.2-3.2,2.5-1.4,4.9,2,5.5,2.6.5,5.2,0,8,0h-.1Z"/>
      <path class="st1" d="M457.4,856.6c-5.2-.5-15.6.4-25.7-3.9-22.8-9.6-28.2-27.7-23.1-49.5,3.5-15.2,11.4-28.3,22.3-38.8,13.1-12.5,28.7-21.6,46.3-26.3,10.5-2.7,21.1-4.9,31.9-5.2,14.7-.5,28.8,2.7,40.7,12.1,4.7,3.9,7,10,9.9,15.2,1.9,3.5-1.4,7.4-6.4,9.1-8.1,2.7-16.6,3.9-24.6,7-3.5,1.4-6.4,0-8.2-3.9-4.7-10.4-16.3-15.6-27.4-12.6-11.9,3.4-24.3,6.9-32.2,16.6-9.1,11.4-18.1,23.8-13.7,40.3,2.1,7.9,9.4,14.2,17.5,14.8,10.1.7,20.1.9,29.4-4.4,4.1-2.2,7.4-5.5,10.2-8.9,2.4-2.7,1.6-5-2.1-5.5-4.7-.6-9.4-1.5-14.1-.2-2.9.6-5.9.7-7.7-2-2-3.1,0-5.7,1.9-7.6,2.4-2.6,4-5.2,3.9-9,0-3.6,2.5-4.7,5.7-4.9,9-.4,18.1-.6,27.2-1,10.9-.5,21.6.9,32.4-.6,5.5-.7,8,2.9,5.7,8.5-6.1,14.7-14.1,28.2-27.1,38-19.8,15.3-42.2,24-72.7,22.7v.2-.4Z"/>
      <path class="st1" d="M592.9,854.5h-32.6c-3.5,0-6.4-1.2-8.2-4.2-1.9-3.1,1.6-4.2,2.5-6.2,3.5-8.5,7-16.7,10.1-25.3,3.6-10.1,7.4-20.2,11.9-30.1,4.9-10.6,8.1-22.1,11.7-33.2,1.6-5,5-9.5,4.9-15.1,0-1.9,1.5-2.5,3.1-2.9,3.4-.7,6.6-1.5,10.1-1.4,20.3.7,40.7,1.1,61-.2,6.5-.5,7.7,1.2,5.9,7.5-.6,1.9-1.5,3.5-2,5.4-2.5,10.7-8.5,15.6-20.2,14.5-6.6-.6-13.6-.2-20.5-.4-7.6,0-14.3,7.6-13.6,15.2.2,2,1.2,3,3.4,3.2,8.7.7,17.7,1,26.4.4,7-.6,9.2,1.6,6.7,8-8.5,22-3.7,18.1-24.8,18.7-6.2.2-12.6,0-18.8-.2-3.4,0-5.4,1.2-6.4,4.4-.9,3.1-1.6,6.2-2.7,9.2-1.7,4.4.5,6,4,6,9.5,0,18.8-.2,28.3-.6,6-.2,8.1,2.2,6,8-1.9,5.1-5.1,9.6-5.7,15.3-.4,3.5-4.5,3.6-7.4,3.7h-33.2v.4h.1Z"/>
      <path class="st1" d="M370,737c15.2-.6,26.8.7,38.3-1.2,1.9-.4,3.7,0,5.6.5,3.4.6,4.5,2.6,3.1,5.9-2.7,6.1-5.7,12.4-8.6,18.5-1.4,3-3.9,3.1-6.6,3.1-8.9,0-17.8-.4-26.8-.2-9.5,0-15.3,6-16,15.2-.2,3.1,1.7,3.2,4.1,3.2h30.1c3.7,0,5.9,2.1,4.1,5.5-2.5,4.9-3.9,10.1-6,15.2-2,4.5-5,6.2-9.9,6.1-9.1-.2-18.2,0-27.3-.4-4.4-.2-7,1.4-8.2,5.4-.6,2-1.1,4-1.9,6-2.7,8.6-2.6,8.7,6.6,8.7s16.7.2,25-.9c5-.6,6.4,1.4,5.6,6.4-.9,5.5-3.4,10.5-6,15.3-2,4-5.7,5-9.6,4.9-17.7-.6-35.3,1.1-52.9-.7-2.9-.4-5.6.4-8.5.7-2.6.5-5.4.4-7.4-2-1.9-2.4-.6-4.7.4-7,8.9-20.7,16.1-42,23.2-63.4,4.7-14,10.4-27.4,15.5-41.2.9-2.4,2.7-2.2,4.5-2.7,11-2.4,22.1.2,29.3-.5v-.5h.2Z"/>
      <path class="st1" d="M122.8,976.4c-6.2-.4-12.5.5-18.7-.9-4-.9-6.6,2.4-9.4,4.6-2,1.5-4,3.4-5,5.4-4.2,9.1-11.9,10.1-20.6,9.4-4.7-.4-9.5-.2-14.2-.4-2,0-3.7-1-4.5-3-.7-2,1.2-2.5,2.2-3.4,15.5-14.6,26.9-32.8,40.9-48.5,11.1-12.5,21.7-25.3,32.4-38.2,1.1-1.2,2.4-2.5,3.1-4,2.7-5.2,7.4-6.7,12.8-6.5,7.7.2,15.3,1.5,23.3-.5,3.7-.9,5.2,2,5.7,5.5,1.5,11,2.1,22,3.1,32.8,1.6,20.1,3.4,40,5.2,60,.4,3.5-1,5.6-4.6,5.9-8.6.4-17.1.7-25.6.5-4.5,0-6.5-3.4-5.7-8,1.2-7.9-1.5-10.9-9.4-10.6h-11.4ZM141.3,939.1h-.2v-8.6c0-1.6.9-3.7-1-4.6-1.6-.6-2.4,1.5-3.4,2.4-6.6,6.2-9.9,15.3-17,21.1-.9.6-1.5,1.9-.9,3,.6,1.5,2,2.5,3.6,2.1,4.4-.9,8.7.2,13,.4,4,0,6-1.7,6-5.9v-10.2.2h-.1Z"/>
      <path class="st1" d="M566.7,886.8c9.9-.6,18.8,3.1,27.9,6.4,4.7,1.7,4.7,4.6,1.1,8.4-4,4.4-9.1,7.2-13.1,11.4-2.9,3.1-6,2.1-8.9.6-8.2-4.4-16.3-4.7-24.8-.6-3.2,1.6-6,3.7-5.6,7s2.6,6,6.4,7.1c6.7,2,13.6,3.9,19.8,6.7,13.5,6,15.8,13,10.4,28.3-7.4,20.8-24.8,28.8-44.9,32.9-18,3.6-35.1,2.2-51.4-6.5-5.4-2.9-5.2-4.1-.6-8.1,4-3.4,8-7.1,11.5-11,4.7-5.4,6.2-5.9,12.4-1.9,6.9,4.6,14,7.4,22.5,6.2,6.1-.6,10.7-3.6,14.7-7.7,3.1-3.2,2.1-7.6-2-10-5.9-3.4-12.5-4.7-18.7-6.6-2.5-.7-5.1-1.1-7.5-2.5-11.5-6.6-13.3-12.5-8.7-25,7.7-21,25-29.3,44.9-34.1,4.7-1.1,9.7-2.2,14.8-1.5h0v.4Z"/>
      <path class="st1" d="M192.6,854c-14.3.9-29.2-1.1-44-.9-4.7,0-5.7-1.6-3.6-6,8.1-17.8,13.6-36.6,21.1-54.5,6.9-16.3,11.7-33.3,18.3-49.7,1.9-4.5,5.6-5.6,9.7-5.9,7.7-.5,15.5.6,23.5-.6,2.7-.5,4,1.5,4,4.4s-1.4,6.6-2.6,9.9c-8.1,22.7-18.6,44.5-25.8,67.6-2.5,8.2-1.2,9.5,7.4,9.2,8.6-.2,17,.7,25.6.2,4-.4,5.7,2.1,4.6,6-1.5,4.9-3.1,9.9-5.2,14.3-2,4.2-6.1,6-11,6h-21.8Z"/>
      <path class="st1" d="M249.1,890.3c13.7-.4,27.3,1.2,40.9-.6,2-.4,3.7.4,4.9,2.1s.6,3.4-.6,4.7c-2.7,3.5-4.2,7.4-4.7,12-.5,4.2-3.6,5.9-7.9,5.6-5.6-.5-11.4-1.9-16.8,0-2.6.9-4.9,1.9-5.7,4.9-3.2,11.4-10,21.3-13.2,32.8-3.7,13-10.5,24.8-14,37.9-.7,3-2.5,5-6,5.2-7.6.6-15.2.5-22.7-.5-6-.6-6.6-3.1-4.1-8.5,3.7-8.1,7.6-16.2,10.2-24.7,4-13.1,9.7-25.6,14.1-38.4,2.1-6.2.5-9.1-6-9.1s-6.9.4-10.2.2c-4.7,0-7.1-3-5.6-7.5,1.4-4.1,3.1-8.2,5-12.1,1.6-3.4,4.6-4.1,8.1-4.1h34.4Z"/>
      <path class="st1" d="M260.3,854.6c-5.2-2-11.4,0-17.7,0-7.5-.4-9-4-5.9-10.9,5.7-11.9,11.1-24,15.2-36.6,2.9-8.7,6-17.6,9.9-26.1,5.9-12.7,9.1-26.1,14.1-39,1.6-4.1,4.9-5.5,7.9-5.1,8.2.9,16.3-1.1,24.5-.2,6,.6,7.4,2.9,4.7,8.5-9,20.1-16.6,40.8-24,61.5-4.7,13.3-9.7,26.7-14.6,40-2,5.4-6.4,8.1-14.1,8h0Z"/>
      <path class="st2" d="M392.2,629.1c-2.7-.5-7,1.9-9-2-2-3.7,2-6,3.7-8.9,3.1-5.2,5-11.1,6.6-16.8,1.4-5.2-3.2-8.7-8.4-7.1-7.7,2.4-11.2,8.7-14.1,15.3-1.9,4.4-3.5,8.7-5,13.3-1.6,4.6-4.4,6.9-9.4,6.2-3-.4-6,0-9.1-.2-3.4-.4-4.9-2.6-3.4-5.6,10.6-20.7,17.5-42.8,25.7-64.4,2-5.4,5.4-6.9,10.2-6.9h5.7c2,0,4.6-.2,5.6,1.9,1.1,2.4,0,5.1-1.5,6.9-5.1,5.6-3.7,14.1-8.9,19.7-.7.7-.7,2.7.5,3.6,1.7,1.4,3.7.9,5.2-.4,6.5-5.5,13.8-4.2,21.1-2.9,6,1.1,8.2,5,7.7,11.2-.6,8.6-4.7,15.8-7.5,23.7-.4,1-1,2-1.4,3.1-2.5,6.5-7.4,9.6-14.5,9.4l-.2.5v.2Z"/>
      <path class="st2" d="M305.4,699.2h-93.4c-2,0-4.2,0-6.2-.5-2.1-.5-4.1-1.5-4-4.1,0-2.4,2-3.5,4.1-4.1,3.7-1,7.5.2,11.4.2h171.7c18.7,0,14,1.2,20.7-14.5,2.9-6.6,5.7-13.2,7.4-20.3.2-1.2.6-2.6,2-3.4,2.1-1.2,16.5,0,18,2,1.5,2,3,1.9,4.9,1.1,3.9-1.5,7.7-3,11.7-4.5,2-.6,4.4-1,5.7.9,1.5,2,.6,4-.5,5.9-2.9,4.6-5,8.2-12.5,7.5-8.6-.7-14.1,6.4-18,13.7-2.2,4.6-4,9.5-5.5,14.2-1.1,4-3.5,5.5-7.4,5.5h-110v.4h0Z"/>
      <path class="st2" d="M278.9,629.3c-8.5-4.1-18.6,2-28.9,1-16.7-1.6-24.2-17-14.1-30.6,8.9-12,21.1-19.5,36.8-19.2,1.4,0,2.9,0,3.9.5,8.2,4.9,16.5,1.7,24.8.5,4.7-.7,7.4,1.5,5.2,5.9-3.4,7.4-4.4,15.6-9.4,22.5-2,2.9-2,7.2-3.2,10.7-2.9,8.4-4.7,9.5-15.3,8.7h.2ZM263.7,616.5c6.9.2,16-7,17.2-13.6.6-3-1-4.5-3.4-5.9-7.2-4.4-13.1-1-18.8,2.9-3.4,2.4-6.7,5.7-5,10.5,1.6,4.6,5.6,6,10.1,6h-.1Z"/>
      <path class="st2" d="M533.9,629.9c-12.5-.2-13.2-1.7-7.9-12.1,2.4-4.7,4.7-9.5,6.6-14.5,2.1-6-1.4-9.9-7.6-8.5-4.9,1-8.6,3.6-10.7,8.5-3.1,7-6.1,14-8.4,21.2-1,3.6-3.2,5.4-7.1,5.2-4,0-8,0-12-.4-2.9-.4-5.4-1.9-3.1-5.4,6.2-10.1,8.9-21.7,13.1-32.7,3.4-8.7,6.6-11.4,15.8-9.1,6.5,1.6,12.6,1.9,19-.6,4.1-1.6,8.6-1.6,13-1.2,9.5.7,14.3,9.6,10.6,18.2-3.6,8.6-7.1,17.1-9.9,26.1-2,6.4-7.7,4.9-11.6,5.2h.1Z"/>
      <path class="st2" d="M645.6,699.2c-2.9,0-6.1-.2-9.2-2-1.7-1-3.4-1.2-5.4,0-7.6,4.1-15.7,3.5-23.7,1.5-6.5-1.7-10.4-7.2-10.1-14,.4-8,3-14.7,9-20.7,7.9-7.6,17.2-11.1,27.3-13.8,2-.6,4.4-.7,6.1.4,8.1,4.7,16.7,2,25,1.4,2.6-.2,5.4-1.4,7.4,1.2,2.1,2.9,0,5-1.5,7.2-2.1,3-3.5,6.2-4.2,9.9-1.7,8.5-6,15.8-8.7,24-1.5,4.6-4,5.4-12,5.2l.2-.2h-.1ZM634.8,665.1c-6.1.6-11.4,3.7-14.6,9.6-3.4,5.7,0,11.4,6.7,11.2,5.9,0,11.2-1.6,14.8-6.9,2-2.9,4.6-5.6,2.7-9.1s-5.4-4.5-9.7-4.7h0Z"/>
      <path class="st2" d="M540.8,651.9c1.4,0,4.4-.6,7.4-.6,4.6-.2,7.6,1.6,8.1,6.7.4,3.7.9,7.5,1.6,11.2.2,1.6.5,3.6,2.2,4.4,2,.6,3.6-.6,5-2,4.9-5,10.1-9.9,14.7-15.1,2.5-2.9,5.1-4.2,8.7-4.4,3.6,0,7.2-.6,10.7-.9,1.9,0,4-.6,4.9,1.6.6,1.9-.6,3.2-1.9,4.5-8.5,8.4-16.7,17.1-25.6,25-13.6,12.1-25.8,25.8-39.7,37.6-6.9,5.7-14.1,3.4-21.1,2.4-4.2-.6-1.4-3.9.7-5.6,8.1-6.4,15.3-13.5,22.7-20.7,3.2-3.1,3.4-6.2,2-10.2-3.5-9.6-6.7-19.3-10-28.9-1.5-4.5,0-5.4,9.2-4.7h.1Z"/>
      <path class="st2" d="M476.8,700.3c-5.2-.6-13.5.2-19.8-6.1-4.1-4.1-6-8.5-4.5-14.2,4.2-15.3,15.1-24.8,31.2-26.3,1.2,0,2-.7,3.1-1.2,10.1-4.9,20.5-2.9,28.8,2.4,11.4,7,11,15.3,3.4,26.2-9.4,13.5-23.1,19.8-42.2,19.5h0ZM492,665.2c-7,0-12,3.1-16.1,8-1.9,2.1-3.2,4.4-1.7,7.2,1.7,3,3.6,6,7.6,5.7,6.1-.6,12-2,16.1-7.2,2-2.6,4-5.2,2.4-8.7-1.7-3.6-4.9-5.1-8.4-4.9h.1Z"/>
      <path class="st2" d="M624.7,598.2c-.4,8.6-2.5,10.1-11.2,9.9-10.4-.2-20.7.2-31.2.4-1.6,0-3,.6-3.4,2.4-.5,2,.2,3.9,2,5,4,2.4,8.1,4.2,12.7,1.7,5.6-3,11.7-2.7,17.8-3.2,2,0,4,.4,4.4,2.7.4,2.1-.9,3.5-2.5,4.7-10,7.6-22,8.9-33.6,9.4-6.5.2-13-3.1-18-7.9-3.4-3.2-4.9-7.6-3.4-12.6,3.5-11.7,11.4-19.6,21.8-25.7,9-5.2,19-4.6,28.6-5.2,8.6-.6,16.6,9.2,16.1,18.5h-.2ZM594.9,599.9c2.2,0,4.7,0,7.2-.5,2-.4,4.4-1,4.5-3.6,0-2.4-2-3.4-4-4.2-2.7-1.2-5.6-1-8.2,0-3.1,1.2-8.7.6-8.1,5.2.5,4.6,5.7,1.7,8.7,2.9h0v.2Z"/>
      <path class="st2" d="M671.7,608c-6-1-13.7,1.9-21.5,0-2.2-.5-4.1.5-4.9,2.9-.7,2.7.4,5,2.9,6.1,4.7,2.1,9.7,2,14.3,0,5.2-2.2,10.7-2,16.2-2.7,2-.2,3.9.2,4.6,2.4.6,2-.6,3.4-2.1,4.2-13.1,9.1-27.4,12.7-43,8.2-11.7-3.4-15.1-15.1-9.7-25.8,5.9-12,16-18.1,27.4-21.1,8.5-2.2,17.7-4.1,26.6.4,6.7,3.4,11.2,11.5,9.9,18.8-.7,4.4-3.6,6.5-8.1,6.4h-12.5v.2h-.1ZM664.5,598.7v.2c1.1,0,2.2.2,3.4,0,2.2,0,5.1-.2,5.5-3,.5-2.7-2.2-3.5-4.4-4.5-5.2-2.1-9.5,1.4-14.1,2.4-1.2.4-2,1.9-1.5,3.4.5,1.4,1.9,2,3.2,2,2.6,0,5.2-.5,7.9-.6h0Z"/>
      <path class="st2" d="M444.1,630.6c-4.5-.6-9.1.2-13.5-1.4-12.7-4.7-15.3-17.3-6.6-29.9,11.1-15.7,27.2-19.5,44.7-18.2,7.1.5,14.3,3.7,16.7,12.6,2.4,8.9-2.7,14.5-11.6,14.1-10.1-.4-20.1.2-30.2.6-2.2,0-4.6,1.1-4.9,4-.2,2.6,1.5,4.4,3.5,5.4,3.7,1.7,8,2.2,11.5.4,5.7-3.1,11.6-3,17.7-3.5,2-.2,4.5-.5,5.2,2.1.6,2.2-1,3.6-2.6,4.6-9.2,5.5-18.5,10.7-29.9,9.2h0ZM456.4,599.4c2.4.2,3.4.4,4.4.4,2.4,0,5.2.2,5.9-3.1.5-3.2-2.1-4.1-4.5-4.9-4.7-1.9-9.2-.2-13.6,2-1.7.7-2.6,2.1-2,4.1.5,1.9,2,2,3.6,2,2.6,0,5.2-.4,6.4-.5h-.1Z"/>
      <path class="st2" d="M681.6,698.9c-2.2.2-4.6.2-6.9.6-4.9.6-7.5-2-5.5-6.2,10.4-22.1,18.1-45,27.4-67.5,0-.2,0-.4.2-.6,1.5-3,18.1-4.9,20.1-2.1,1.2,1.7.9,3.6,0,5.4-5,9.9-8.5,20.3-12.4,30.6-4.7,12.1-9.2,24.3-13.3,36.7-1.7,5-6,3.5-9.7,3.4h0Z"/>
      <path class="st2" d="M315.7,629.4h-3.4c-6.6,0-7.9-2-4.7-7.7,3.2-6,4.5-12.8,8.1-18.7,1.4-2.1.7-4.6-.7-6.9-3.5-4.9-2.6-9.7,2.5-12.7,4.5-2.7,8.9-5.1,8.9-11.4s.6-2.2,2-2.6c6.1-2,12.7-2.9,19.1-2.1,3.6.5,2.4,4.6.5,6.9-3.2,4-4,6.4,2.4,7.4,3.4.5,4.7,3.4,3.4,6.5-2,4.9-4.6,9.2-11.1,8.7-3.4-.2-5,1.5-6,4.7-2.1,6.9-4.7,13.6-7.4,20.3-2.7,7.5-3.1,7.6-13.2,7.6h-.2Z"/>
      <path class="st2" d="M598.4,574.4c-2.2,0-4.1-.9-4.9-3.1-.6-2.1.5-3.6,2.2-4.7,4.5-2.2,8.1-5.6,11.9-8.7,2.2-2,4.9-2.9,7.9-2.4,2.7.5,5.1,1.7,5.6,4.7.5,2.9-2,3.7-4,4.7-4.7,2.4-9.7,4.1-13.8,7.6-1.2,1.1-3,1.6-4.7,1.6h0v.2Z"/>
      <path class="st2" d="M457.7,573.8c-1.2,0-3.4-.5-4-3s.9-3.7,3-4.7c3.9-1.7,7.2-4,10.1-7.1,1.1-1.1,2.7-2.1,4.2-2.6,3.4-.9,7.1-1.7,8.9,2.4,2,4.4-2.1,5.2-4.7,6.7-3.1,1.9-6.1,3.6-9.2,5.5-2.2,1.4-4.6,2.7-8.2,2.7h0Z"/>
      <path class="st0" d="M620.6,357.1c-10.5,4.4-20.7,9.1-31.4,12.8-12.4,4.4-24.8,8.2-37.4,11.5-14.2,3.7-28.7,5.1-43.2,6.7-14.3,1.5-28.8.7-42.8-3-1.9-.5-3.1-1.6-3.5-3.4-6.6-24.3-11.9-48.9-14.1-74.1-.6-8.1-.5-8.1,8-8.1,19,0,38,.5,56.6-4.6,24.6-6.7,47.7-16.5,68.5-31.3,10.1-7.2,10.9-7.4,18,2.9,6.7,9.6,12.6,19.8,19,29.6,7.6,11.6,14,23.8,20,36.2,4.9,10.1,4.2,10.5-4.5,17.3-5,1.1-8.5,5-12.8,7.4h-.2Z"/>
      <path class="st0" d="M666.3,326.5c-3.6,2.7-6,1.9-7.6-2.4-8.7-21.3-20.8-40.8-33.1-60.3-3.4-5.5-7.5-10.4-11.6-15.5-4.7-6-4.4-6.9.5-12.5,9-10.6,19.7-19.7,26.2-32.6,8.2-16.2,17.6-31.8,17.2-50.8v-1.1c.9-2.7-2.7-6.5.7-8.4,2.6-1.4,5.2,1.9,7.5,3.1,19.2,11,37.6,23.5,49.5,42.5,6.6,10.5,7.9,23.2,7.6,35.7-.4,15.3-4.1,30.1-10.9,43.8-.6,1.1-.7,2.5-1.1,3.7-3.5,6-7.6,11.7-10.1,18.3-2.2.7-3.4,2.9-4.7,4.6-4.2,5.4-8.6,10.6-12.8,16-5,6-12.6,9.4-17.5,15.5h.1Z"/>
      <path class="st0" d="M634.3,357.8c3.5,0,5-3.1,7.4-4.7,2.6-1.9,5.2-2.2,6,1.6,1.2,6,5.2,11,7,16.7,4.4,15.1,8.7,30.2,12.8,45.2,1,3.5-1.4,5.7-3.9,7.6-6.5,5-14,8.9-21.7,11.4-11.5,3.5-22.8,7.9-34.9,10.1-23.7,4.2-47.5,5-71.4,1-18.3-3-35.6-9-51.9-17.8-3.7-2-12-17.7-11.6-22,.2-3.4,2.7-2.7,4.7-2.5,17.6,2.4,34.8-.7,52-3.4,34.1-5,64.4-19.5,94.2-35.6,4-2.1,7.4-5.1,11.1-7.7h.1Z"/>
      <path class="st0" d="M484.5,281.7c-7.9.2-18-.2-27.8-2.2-8-1.7-8.4-2.4-7.7-10.2,1-13.7,4.5-26.9,7.4-40.3,2.4-10.2,6.6-20.2,10.1-30.2,1.4-4.1,4.5-5.4,8.7-5.7,14.5-1,28.7-3.2,40.8-12.4,2.5-2,4.9-1.5,7.2.6,16.1,15.2,32.1,30.6,45.8,48.2,4.1,5.1,8.5,10.1,13.1,14.7,4.9,4.7,4.7,8.6-1.6,11.7-17.1,8.7-34.2,17.2-53.3,21.3-13.5,3-26.8,4.7-42.7,4.4h0Z"/>
      <path class="st0" d="M589,129.1c13.3-.9,26.4,1.5,39.5,3.6,5.6.9,7.7,6.2,8.6,11.1,3.5,21.1,3.1,42-7.4,61.5-5.7,10.6-13.2,20-21.7,28.4-2.4,2.4-4.2.7-5.6-1.2-17.1-24.8-39.9-44.5-59.8-66.7-3-3.4-3.4-5,.2-8.7,5.7-5.7,11.4-11.7,13.2-20.2,1-4.6,4.9-6,9.1-6.4,7.9-1,15.8-1.6,23.8-1.4h-.1Z"/>
      <path class="st0" d="M713.9,282.1c5.7-7.5,11.1-15.3,14.8-24.1,2.7-6.4,6.4-12.6,7.5-19.6.4-1.9,1.4-4,3.4-4.1,2.6,0,3.4,2.2,3.6,4.4,2.2,16.7,5.1,33.1,2.7,50.3-2.2,16.5-5.2,32.6-10.6,48.2-3.2,9.1-7.9,17.7-11.9,26.4-6,13.1-16.1,23.3-24.5,34.7-2.2,3.2-6.4,5.1-10,7.4-3.1,1.9-5.6,0-6.1-3.7-2-13.6-5.4-26.8-9.6-39.8-2.4-7.2-4.1-14.6-7.4-21.6-1.5-3.1-.5-6.5,2.6-8.6,1.4-.9,2.4-1.7,3-3.2,4.1-4.2,9-7.6,12.6-12.6,7.1-6.2,14.1-12.5,19.5-20.3,4.2-3.9,7.1-8.9,10.1-13.7h.1Z"/>
      <path class="st0" d="M390.1,205.6c1.2-4.9.7-12.7,3.6-20.6,2.4-6.5,3.6-13.3,8-19.1,3.2-4.2,7-7,12.7-7.2,6.1-.2,12.5-.5,18.2-3.5,3.9-2,7.6.7,6.9,5.1-2.1,12.4,3.7,20.3,13.2,26.6,3.5,2.2,3.5,3.9,1.6,7.6-7.7,15-14.5,30.3-18.5,46.8-1.9,7.5-3.6,15.1-5.9,22.5-1.4,4.5-5.4,5.7-8.7,2.7-7.4-6.7-15.5-13-21-21.3-7.4-11.1-11.4-23.5-10.4-39.9v.2h.1Z"/>
      <path class="st0" d="M380.1,285.4c.7-6.4-1.5-12.7-2.1-19.1-.2-1.7-1-4.1,1.2-5s3.4,1.1,4.5,2.6c10,12.8,22.6,22.2,37.9,27.8,4.5,1.6,6.5,4.4,6.5,9.4,0,14.3,2.2,28.7,5,42.8,2,10.1,3,20.7,6.2,30.6.5,1.2.6,2.6-.5,3.6-1.2,1.1-2.5.4-3.6-.2-6.9-3.6-14.1-6.5-20.7-10.9-6-3.9-9.1-10-12.5-15.8-9.7-17.3-16.3-35.7-21.3-54.9-.9-3.5-.5-7.2-.7-10.9h.1Z"/>
      <path class="st0" d="M548.9,89.8c21.2,0,40.8,5.9,59.4,16.1,1,.6,2,1.1,2,2.5s-1.2,1.9-2.4,2c-2.6.4-5.2.7-7.9.7-11.4,0-22.2,1.5-33.3,3.5-6.6,1.2-13.1,1.1-17.3-6-2.9-4.7-8.2-5.9-12.7-8.2-1.4-.6-3-1.2-3.2-3,0-2,1.9-2.2,3.1-2.9,4.1-1.7,7.7-4.7,12.6-4.7h-.2Z"/>
      <path class="st0" d="M420.4,143c-1.4,0-1.9-1.5-1.2-3.6.5-2,1.7-3.5,3.4-4.6,12.1-7.4,22.7-17,35.8-22.7,3.1-1.2,5.7-2,8.6,0,2,1.4,3.2,3.5,1.2,5.2-4.7,4-7.4,9.6-11.6,13.8-7.1,6.9-16.7,6.4-25.1,9.5-3,1.1-6.2,1.2-10.9,2.1h0l-.2.2Z"/>
      <path class="st0" d="M493.4,174.5c-3.1-.2-6-.4-9.1-.6-1.5,0-3.4.6-4.1-1.1-.9-1.7,0-3.4,1.1-4.7,2.6-2.6,4.2-5.7,5.6-9.1,1.5-3.7,4.4-4.7,7.9-2.5,4.9,3.1,8.5,8.1,14.1,10.5,1.1.5,2,2,1.5,3.4-.7,2-2.7,3.4-4.9,3.4-4,.2-8,0-12,0v.9Z"/>
      <path class="st0" d="M479.3,148.4c3.7-.2,3.9,1.5,2.5,3.7-2.7,4.5-5.5,9-8.7,13.2-3.4,4.4-7,4.1-10.2,0-8.1-10.2-7.1-13.1,5.6-15.3,3.6-.6,7.4-1.1,10.9-1.6h0Z"/>
      <path class="st0" d="M672.9,123.6c-9.1-4.1-20.2-3-26.7-12.8-1.6-2.4-4.4-4.1-6.5-6.2-.7-.7-1.6-1.9-.7-3.1.7-1.1,2-1,3.1-.6.9.2,2,.5,2.6,1,8.9,6,18.6,10.9,26.8,18.1.7.6,2,1.4,1.4,3.9h0Z"/>
      <path class="st0" d="M539.1,141.2c0,5-2.7,9-4.7,13.2-.9,2-2.7,1.7-4.4.7-5.2-3-8.2-8.2-12.6-12.1-1.6-1.4-.5-3,1.2-3.4,5.2-1.5,10.7-1.5,15.8-3.5,3.2-1.2,4.5,2,4.4,5h.2Z"/>
      <path class="st0" d="M527.4,122.4c-.2,1.7-1.2,2.4-2.2,2.6-4.9.7-9.2,3.1-14,4.6-1,.4-2.4.7-3.2,0-1-1.1.2-2,.7-2.9,1-1.6,2-3.2,3-4.7,3.2-5.5,10.4-6,14.6-1,.5.6.6,1.2.9,1.6h0l.2-.2Z"/>
      <path class="st0" d="M495.3,102.5c-2.7-.5-4.7.2-5-1.9-.2-2,1.7-2.2,3.1-2.6,9.2-2,18.6-3.1,27.6-6.1,1.1-.5,2.7-.6,3.2,1.1.4,1.4-.6,2-1.7,2.6-.6.4-1.4.6-2,1-8.6,3.1-18.2.6-25.1,6h-.1Z"/>
      <path class="st2" d="M634.3,357.8h0c-3.5-1-6,1.2-8.7,2.9-1.2.7-2.4,1.9-3.6,2.6-1.7.9-4.2,1.7-5.2.2-1.6-2.1,1.5-2.9,2.5-4.1.6-.6.9-1.6,1.5-2.4,4.5-2.2,7.9-6.1,12.8-7.4,3.4.6,6.2,1.2,2.2,5.1-.6.6-.9,2-1.4,3h-.1Z"/>
      <path class="st2" d="M713.9,282.1c-3,4.7-5.9,9.9-10.1,13.7-.5-2-.6-4.1-2.6-5.2,2.5-6.6,6.6-12.4,10.1-18.3,1,3.4-.6,7.4,2.5,10.1h0v-.2Z"/>
      <path class="st0" d="M499.6,115c2,0,4,.4,3.6,3-.5,3.1-2,5.9-5.7,6-2.5,0-4.7-1.2-4.5-3.9.6-3.2,3-5,6.4-5h.2Z"/>
      <path class="st2" d="M684.3,316.1c-3.4,4.9-8.5,8.4-12.6,12.6-2.2.4-4.1-.5-5.6-2,4.9-6.1,12.5-9.5,17.5-15.5.2,1.7.5,3.4.6,5h.1Z"/>
      <path class="st0" d="M468,134.3c-2.1,0-4.6,0-4.1-1.9.7-3.4,3.4-5.9,7.1-6.5,2.2-.5,3.9.9,3.6,3.2-.5,4.2-4,4.5-6.5,5h-.1Z"/>
      <path class="st0" d="M448.9,402.9c0,1.6-.6,2.6-2,2.1-2.1-.6-3.5-2-3.6-4.5,0-1.4.7-2.1,2-2,2.2.5,3.4,2,3.5,4.1h0v.2Z"/>
      <path class="st0" d="M420.7,955c-2.6,0-5.4.4-8,0-3.4-.6-5.1-3-2-5.5,6.7-5.2,10-13.2,15.6-19.2,1.2-1.2,2.2-3.6,4.5-2.9,2,.7.9,3.1.9,4.7,0,4.6-.2,9.1.6,13.6,1.6,8,0,10-8.4,9.7h-3.4v-.5h.1Z"/>
      <path class="st0" d="M141.3,939.1v10.2c0,4-2,5.9-6,5.9s-8.6-1.2-13-.4c-1.6.4-3-.6-3.6-2.1-.6-1.2,0-2.2.9-3,7.2-5.9,10.4-14.8,17-21.1,1-1,1.9-3.1,3.4-2.4,2,.7,1,3,1,4.6v8.6h.2v-.2h.1Z"/>
      <path class="st0" d="M263.7,616.5c-4.5,0-8.5-1.5-10.1-6-1.7-4.7,1.5-8.1,5-10.5,5.7-3.9,11.6-7.4,18.8-2.9,2.2,1.4,4,2.9,3.4,5.9-1.2,6.6-10.4,13.8-17.2,13.6h.1Z"/>
      <path class="st0" d="M634.8,665.1c4.4.2,8,1.2,9.7,4.7,1.9,3.6-.7,6.4-2.7,9.1-3.6,5.2-9,6.6-14.8,6.9-6.7,0-10.1-5.4-6.7-11.2,3.4-5.7,8.5-8.9,14.6-9.6h0Z"/>
      <path class="st0" d="M492,665.2c3.4-.2,6.6,1.1,8.4,4.9,1.6,3.4-.4,6.1-2.4,8.7-4.1,5.1-10,6.7-16.1,7.2-4.1.4-6-2.7-7.6-5.7-1.6-2.7-.2-5,1.7-7.2,4.1-4.7,9.1-7.9,16.1-8h-.1Z"/>
      <path class="st0" d="M594.9,599.9c-3.1-1.1-8.4,1.7-8.7-2.9-.5-4.6,5-4,8.1-5.2,2.6-1.1,5.5-1.4,8.2,0,2,.9,4.1,1.9,4,4.2,0,2.5-2.4,3.4-4.5,3.6-2.4.4-4.9.4-7.2.5h0v-.2Z"/>
      <path class="st0" d="M664.5,598.7c-2.6.2-5.2.5-7.9.6-1.4,0-2.7-.5-3.2-2-.5-1.5.2-3,1.5-3.4,4.7-1.1,9-4.6,14.1-2.4,2.1.9,4.7,1.7,4.4,4.5s-3.2,2.9-5.5,3h-3.4v-.2h0Z"/>
      <path class="st0" d="M456.4,599.4c-1.1,0-3.7.4-6.4.5-1.5,0-3.2,0-3.6-2-.6-2,.5-3.4,2-4.1,4.4-2.1,8.7-3.7,13.6-2,2.2.7,5,1.7,4.5,4.9-.6,3.4-3.4,3-5.9,3.1-.9,0-1.9,0-4.4-.4h.1Z"/>
      <path class="st1" d="M684.3,316.1c-.2-1.7-.5-3.4-.6-5,4.4-5.4,8.6-10.6,12.8-16,1.4-1.7,2.4-3.7,4.7-4.6,2,1.1,2.1,3.4,2.6,5.2-5.4,7.9-12.6,14.1-19.5,20.3h-.1Z"/>
    </g>
  </g>
</svg>