<?xml version="1.0" encoding="UTF-8"?>
<svg xmlns="http://www.w3.org/2000/svg" version="1.1" viewBox="0 0 907 907">
  <defs>
    <style>
      .cls-1 {
        fill: #fdfefe;
      }

      .cls-2 {
        fill: #bf3840;
      }

      .cls-3 {
        fill: #2f4487;
      }
    </style>
  </defs>
  <!-- Generator: Adobe Illustrator 28.7.4, SVG Export Plug-In . SVG Version: 1.2.0 Build 166)  -->
  <g>
    <g id="Calque_1">
      <g>
        <path class="cls-1" d="M906.9,232c0,223.5,0,446.9,0,670.4,0,3.7-.8,4.6-4.6,4.6-299.3-.1-598.5-.1-897.8,0-3.7,0-4.7-.8-4.6-4.6.3-10.2.1-20.3.1-30.5,1.8.1,3.6.3,5.5.3,24.8,0,49.6,0,74.5,0,121,0,241.9,0,362.9,0,8.4,0,16.1-.6,24.1-4.5,12.5-6.1,25.7-11,38.3-17,5.4-2.6,11.2-4.6,15-10.1,12.3-17.5,24.8-34.8,37.5-51.9,16.2-22,29.4-45.9,44-68.9,3.3-5.2,5.8-10.8,9.2-15.9,8.3-12.5,15-26,21.6-39.3,9.3-18.5,19.5-36.6,27.7-55.8,6.6-15.4,14.2-30.4,21-45.7,8.9-19.9,17.1-40.1,25.7-60.1,3.4-7.9,5.6-15.1,3.1-24.6-5.9-21.6-9.5-43.9-13.8-65.9-.7-3.6-2.6-5.3-5.9-5.7-16.4-2-32.7-4.1-49.2-4-19.2.1-38.3,0-57.5-.3-22.2-.3-44.2-2.4-66-6.1-9.2-1.5-18.5-3.5-26.8-8.1-7.9-4.4-14.5-4.3-22.2,1.5-9.2,7-19.4,12.9-30.3,17.2-1.1.4-2.3.8-2.4,2.2-.1,1.9,1.3,2.6,2.7,3.1,6,2.1,11.9,4.3,17.9,6.2,20.2,6.2,41.1,8.2,62.1,8.9,39.9,1.4,79.9.2,119.8,4.8,9.9,1.1,10.9,1.1,13,10.9,3.1,15,5.6,30.1,7.1,45.3.7,7.1,1.3,14.3,3.4,21.2,1.2,3.9,1.1,7.5-.5,11.2-1.3,3-2.4,6.1-3.8,9.1-8.9,19.8-17.6,39.8-26.9,59.5-12.8,27.1-26.9,53.5-41.3,79.8-17.5,31.8-36.3,62.8-55.8,93.4-10.3,16.3-21.6,32-32.4,48-10.4,15.5-22.4,29.8-32.3,45.6-3.6,5.8-8.6,9-15.7,8.4-3-.3-6,0-9,0-146.3,0-292.5,0-438.8,0-1.8,0-3.6.2-5.5.3,0-286.8,0-573.5,0-860.3C0,.8.9,0,4.6,0,303.9.1,603.1.1,902.4,0c3.7,0,4.6.8,4.6,4.6-.1,65.2,0,130.3,0,195.5-2.2.3-4.1,1.2-6.1,2.1-7.7,3.7-12.5,9.8-16.7,17.1-8.1,14.1-17.4,27.6-25.8,41.5-8.2,13.5-15.4,27.6-24,40.9-16.6,25.7-39.8,46-58.9,69.6-8.4,10.5-17.2,20.8-19.9,34.6-.8,4.1-1.3,8.2-2.3,12.2-2.1,8.6-4.9,17-6.5,25.6-3.9,21.6-9.1,42.9-11.2,64.8-.4,4.3-2.8,8.3-1.4,12.8,3.8,13,9.6,25.1,16.8,36.6,10.7,17,21.2,34.2,23.7,54.8.4,3.3-.3,4.9-3.4,6.1-6.5,2.4-12.8,5-19.2,7.7-25.7,10.7-48.5,25.6-67.3,46.3-9.3,10.3-17,21.9-19.6,36-3.1,16.7-5,33.5-4.7,50.5,0,3.2.3,6.3-.9,9.4-.5,1.4-.7,3,.8,4.1,1.5,1.2,3.1.6,4.6-.3,12.1-7,24.2-13.9,36.4-20.8,1.9-1.1,3.1-2.4,3.3-4.6.4-4,.8-7.9,1.1-11.9,1.5-19.4,3.1-38.8,7.5-57.9.6-2.6,1.8-4.2,4.5-4.6,12.8-2.3,24.6-7.7,36.4-12.9,12.1-5.3,23.8-11.5,34.8-19.1,11-7.6,21.3-15.8,30.8-25.2,1-1,1.6-2.2,1.5-3.6-.2-11-1-22-4.3-32.5-5.3-16.6-15.8-30.3-25.2-44.6-7.7-11.7-14.8-23.6-19.5-36.9-.7-2.1-1.3-4.2-.9-6.4,3.6-17.6,6.3-35.4,12.2-52.5,6.4-18.5,11.8-37.4,16.7-56.4,2.5-9.6,6.8-18.1,12.2-26,10.9-16,24.6-29.8,37.8-43.8,12.3-12.9,23.2-26.9,32.7-41.9,7.3-11.5,13.6-23.5,20.3-35.3.9-1.7,1.9-3,3.8-3.7ZM643.1,191.7c-.5-8-1.2-15.9-1.6-23.9-.7-14.3-5.2-28-10.3-41-9.1-23.2-23.4-43.5-41.7-60.8-10.1-9.5-20.7-18.4-32.8-24.9-15.6-8.4-32-14.8-49.7-18.6-29-6.2-57.3-5-85.4,3.3-25.7,7.5-48.7,20.3-68,39.2-3.9,3.8-8.1,7.5-11.9,11.3-5.1,5.1-10.6,10-15.1,15.6-8.8,10.8-16.4,22.4-22.1,35.3-6.4,14.6-13.2,29-15,45.1-1.3,11-3.7,22.1-2.3,33.2.9,7.6,1.3,15.2,2.1,22.8,2.1,19.8,9.6,37.5,18.5,54.8,8.1,15.9,18.8,29.8,32,42.3,15,14.2,31.6,25.7,50.2,33.9,22.9,10.1,47,15.3,72.2,14.8,5.2-.1,10.3-.9,15.4-1.2,13.4-.7,26.2-4.2,38.7-8.8,18.7-6.8,35.8-16.5,51.5-28.8,7.1-5.5,13.7-11.5,19.7-18.1,7.1-7.7,13.5-15.9,20.3-23.9,10-11.6,17.6-25.1,22.8-39.1,7.4-20,13.8-40.7,12.4-62.7ZM734.9,326.6c-11.9,1-21.3-3.3-31-6.8-1.8-.7-3.8-1.4-5.3-2.6-10.1-7.5-18.9-15.9-24-27.9-5.9-13.9-9-27.9-4.2-42.7,1.4-4.2,2.3-9,7.7-10.8,20.1-6.7,39-2.9,56.2,8,6.4,4.1,11.7,10.3,16.3,17.1,11.6,17.1,15.5,34.9,7.9,54.6-.6,1.4-1,3,.3,4.2,1.3,1.2,2.9.8,4.2,0,3-1.8,5.9-3.8,8.7-5.8,9.9-7.1,17.1-16.7,21.1-27.9,4-11.1,5.2-22.9,3.1-34.9-3-17-11.6-30.1-24.9-40.7-6.6-5.3-14.4-7.7-22.3-10.1-18.6-5.7-35.6-2.1-51.2,8.6-10.2,7-19.1,15.4-24.5,26.8-.5,1.1-1.5,1.6-2.6,2.2-19.3,11.4-33.4,26.4-36,50.1-2.3,20,2,37.4,15.9,52.4,19,20.4,48.6,27.3,74.6,14.8,13-6.3,21.7-16.4,29.9-27.4,1-1.3,3-2.9,1.4-4.7-1.4-1.5-3.6-.6-5.1.3-5.5,3.1-11.4,3.5-16.2,3.2ZM257.9,815.4s0,0,0-.1c-2.8,0-5.7.2-8.5,0-4.5-.4-5.6-2.8-3.5-6.7.8-1.5,1.4-3,2.2-4.5,4.6-9.5,6.2-20.1,10.8-29.5,4.2-8.6,6.6-17.8,10.4-26.4,1.4-3-.2-5.3-3.5-4.5-6.8,1.7-13.5,1.1-20.3.6-2.9-.2-5,1-6,4.1-3.6,10.7-6.8,21.5-11.2,31.9-6.9,16.6-11.5,34-19.5,50.2-1.5,3-.1,5.5,2.9,5.2,6.2-.7,12.3.5,18.4.2,11.7-.4,23.5-.2,35.3-.2,10.1,0,20.3.2,30.4.2,3,0,6.4-.5,8.1-3.2,2.1-3.5,5.2-6,7.4-9.4,1.6-2.5,3.8-3.4,6.7-3.4,8.2,0,16.3-.2,24.5-.2,10,0,11.4-1.2,10.8,9.9-.2,3.7,1.4,5.1,5.2,5.6,6.8.9,13.6.5,20.4.7,5.5.2,7.5-2.9,6.1-8.4-.4-1.4-.7-2.9-.8-4.4-1.8-24.4-3.5-48.8-5.2-73.1-.3-4.3-2.4-5.7-6.4-5.9-8-.3-15.9,1.1-23.9,0-1.6-.2-2.9.5-4,1.6-2.1,2.3-4.3,4.6-6.3,7.1-13.1,15.8-26.3,31.7-39.3,47.6-2.3,2.8-5.5,4.5-7.4,7.8-3.5,6-8,11.4-12.3,16.9-1.4,1.8-3.9,3.1-5.7,2-2.1-1.3.6-3.1.8-4.7,0-.5.3-.9.5-1.4,1.7-5,.6-6.5-4.5-6.3-4.2.2-8.3.5-12.4.7ZM373.4,714.5c26.7,1.1,46.3-6.4,63.7-19.9,11.2-8.7,18.3-20.5,23.7-33.3,2-4.9-.2-8-5-7.4-9.5,1.3-19,.2-28.4.6-7.9.3-15.9.6-23.8.9-2.8.1-5.1,1.1-5,4.3.1,3.3-1.3,5.6-3.4,7.9-1.6,1.7-3.4,4-1.6,6.7,1.7,2.4,4.3,2.4,6.8,1.7,4.2-1.1,8.3-.3,12.4.2,3.3.4,4,2.4,1.9,4.8-2.6,3-5.4,5.8-9,7.8-8.2,4.5-16.9,4.4-25.8,3.8-7.1-.5-13.4-6.2-15.3-13-4-14.5,3.9-25.3,12-35.3,6.9-8.6,17.8-11.6,28.2-14.5,9.7-2.8,19.9,1.9,24,11,1.6,3.4,4.1,4.6,7.2,3.4,7-2.7,14.4-3.8,21.5-6.1,4.4-1.5,7.2-4.9,5.6-8-2.4-4.7-4.3-10-8.6-13.3-10.4-8.2-22.8-11-35.6-10.6-9.4.3-18.8,2.2-28,4.6-15.6,4.1-29.2,12.2-40.6,23.1-9.6,9.2-16.5,20.7-19.6,34-4.5,19.2.2,35.1,20.2,43.4,8.8,3.7,17.9,3,22.5,3.4ZM492.1,712.6s0,0,0,0c4.8,0,9.7,0,14.5,0,4.8,0,9.7,0,14.5,0,2.7,0,6.2-.1,6.5-3.3.5-5,3.4-8.9,5-13.4,1.8-5-.1-7.2-5.3-7-8.3.3-16.5.5-24.8.5-3.2,0-5.1-1.4-3.5-5.2,1.1-2.6,1.6-5.4,2.4-8.1.8-2.7,2.5-4,5.6-3.8,5.5.2,11,.3,16.5.2,18.5-.5,14.4,2.7,21.8-16.4,2.2-5.7.2-7.5-5.9-7-7.7.6-15.5.4-23.2-.3-1.8-.2-2.7-.9-2.9-2.8-.7-6.6,5.3-13.4,11.9-13.3,6,0,12.1-.2,17.9.3,10.3.9,15.5-3.3,17.7-12.7.4-1.6,1.2-3.1,1.7-4.7,1.7-5.6.6-7-5.1-6.6-17.8,1.2-35.6.9-53.4.2-3-.1-6,.5-8.9,1.2-1.4.3-2.7.9-2.7,2.5,0,4.9-2.9,8.8-4.3,13.2-3.2,9.8-6,19.8-10.3,29.1-3.9,8.6-7.1,17.4-10.4,26.3-2.7,7.5-5.8,14.9-8.9,22.2-.8,1.8-3.8,2.8-2.2,5.5,1.6,2.6,4,3.7,7.2,3.7,9.5,0,19,0,28.5,0ZM296.8,609.7c-6.5.6-16.1-1.7-25.7.4-1.6.3-3.2.3-3.9,2.4-4.5,12-9.5,23.9-13.6,36.1-6.2,18.7-12.5,37.4-20.3,55.5-.9,2-1.8,4.1-.3,6.1,1.6,2.1,4,2.2,6.4,1.8,2.5-.4,4.9-1,7.4-.7,15.4,1.7,30.9.2,46.4.7,3.4.1,6.7-.8,8.4-4.3,2.1-4.3,4.3-8.6,5.2-13.5.8-4.4-.5-6.2-4.9-5.6-7.3,1-14.6.7-21.9.8-8.1,0-8.2,0-5.8-7.6.6-1.7,1-3.5,1.6-5.3,1.1-3.5,3.4-4.8,7.2-4.7,8,.3,16,.2,23.9.3,4.1,0,6.9-1.5,8.6-5.4,1.9-4.4,3.1-9,5.3-13.3,1.5-2.9-.3-4.7-3.6-4.8-8.8,0-17.6-.1-26.3-.1-2,0-3.8,0-3.6-2.8.6-8.1,5.7-13.2,14-13.3,7.8-.1,15.6,0,23.5.2,2.5,0,4.6,0,5.8-2.7,2.5-5.4,5.1-10.8,7.5-16.2,1.2-2.7.3-4.6-2.7-5.1-1.6-.3-3.4-.7-4.9-.4-10.1,1.8-20.3.6-33.6,1.1ZM80.3,819.4c3.3,0,6.7,0,10,0,6.9-.2,9.3,2.4,8.2,9.3-.7,4.1,1,6.9,5,7,7.5.3,14.9-.1,22.4-.4,3.1-.1,4.2-1.9,4-5.1-1.6-17.5-3.2-35.1-4.6-52.6-.8-9.6-1.4-19.2-2.7-28.8-.4-3-1.7-5.6-5-4.8-6.8,1.7-13.6.6-20.4.4-4.8-.1-8.8,1.1-11.3,5.7-.7,1.3-1.8,2.4-2.7,3.5-9.5,11.1-18.7,22.4-28.4,33.4-12.3,13.9-22.3,29.8-35.9,42.5-.9.8-2.7,1.3-2,3,.7,1.7,2.1,2.5,3.9,2.6,4.2,0,8.3,0,12.5.3,7.6.6,14.2-.2,18-8.2.9-1.9,2.7-3.4,4.4-4.7,2.4-1.9,4.8-4.8,8.2-4,5.5,1.2,10.9.5,16.4.8ZM469.2,740.9c-4.6-.7-8.9.4-13,1.3-17.4,4.1-32.5,11.4-39.3,29.8-4,11-2.4,16.1,7.7,21.9,2.1,1.2,4.4,1.5,6.6,2.2,5.5,1.7,11.3,2.9,16.4,5.8,3.6,2.1,4.4,6,1.8,8.7-3.5,3.6-7.6,6.2-12.9,6.8-7.4.9-13.7-1.4-19.7-5.5-5.3-3.6-6.6-3.2-10.8,1.6-3.1,3.5-6.6,6.6-10.1,9.6-4,3.5-4.1,4.5.6,7.1,14.3,7.6,29.3,8.9,45,5.7,17.6-3.6,32.9-10.7,39.3-28.9,4.7-13.4,2.7-19.5-9.1-24.8-5.6-2.5-11.6-4.2-17.4-5.9-3.3-1-5.3-3.4-5.6-6.2-.3-2.8,2-4.7,4.9-6.1,7.5-3.7,14.6-3.2,21.8.5,2.5,1.3,5.3,2.1,7.8-.6,3.5-3.7,8-6.3,11.5-10,3.1-3.3,3.2-5.8-1-7.3-8-2.9-15.9-6.1-24.5-5.6ZM141.3,712.2c6.5,0,12.7,0,18.9,0,4.2,0,7.8-1.4,9.6-5.2,2-4,3.3-8.3,4.6-12.6,1-3.2-.5-5.4-4-5.2-7.5.5-15-.4-22.4-.2-7.6.2-8.7-.9-6.4-8.1,6.3-20.2,15.6-39.3,22.6-59.2,1-2.8,2.2-5.6,2.3-8.6,0-2.5-1.1-4.2-3.5-3.8-6.8,1.1-13.7,0-20.5.5-3.6.2-6.9,1.3-8.5,5.1-5.8,14.3-10.1,29.2-16.1,43.5-6.6,15.7-11.4,32.2-18.5,47.8-1.7,3.8-1,5.3,3.2,5.2,13-.2,25.9,1.6,38.6.8ZM190.9,744c-10,0-20,0-30,0-3.1,0-5.7.7-7.1,3.6-1.7,3.4-3.2,7-4.4,10.6-1.3,4,.7,6.5,4.9,6.6,3,0,6-.2,9-.2,5.7,0,7.2,2.5,5.3,8-3.9,11.3-8.8,22.2-12.4,33.7-2.3,7.4-5.7,14.6-9,21.6-2.2,4.7-1.6,6.8,3.6,7.4,6.6.8,13.2.9,19.9.4,3-.2,4.5-2.1,5.2-4.6,2.9-11.5,8.9-21.9,12.2-33.2,2.9-9.9,8.8-18.7,11.6-28.7.7-2.6,2.7-3.5,5-4.3,5-1.7,9.9-.4,14.8,0,3.7.3,6.5-1.2,6.9-4.9.4-4,1.7-7.4,4.2-10.5,1-1.3,1.4-2.7.5-4.1-1-1.5-2.5-2.1-4.3-1.9-11.9,1.7-23.9.3-35.9.6ZM200.7,712.7c6.7,0,10.6-2.4,12.3-7,4.3-11.7,8.6-23.4,12.8-35.1,6.5-18.1,13.1-36.3,21-53.9,2.2-4.9,1-6.8-4.2-7.4-7.1-.8-14.2,1-21.4.2-2.7-.3-5.6.9-6.9,4.5-4.3,11.3-7.2,23.1-12.3,34.2-3.4,7.4-6.1,15.1-8.6,22.8-3.6,11.1-8.3,21.6-13.3,32-2.8,6-1.5,9.2,5.1,9.5,5.4.2,10.9-1.7,15.5.1ZM316.2,515.1q9.4.3,12.7-8.2c.4-.9.9-1.8,1.2-2.7,2.4-6.9,6-13.3,6.6-20.8.4-5.5-1.5-8.8-6.8-9.8-6.4-1.3-12.8-2.3-18.5,2.5-1.3,1.1-3.1,1.5-4.6.3-1.1-.9-1.1-2.5-.4-3.2,4.5-4.9,3.4-12.3,7.8-17.3,1.4-1.6,2.4-3.9,1.3-6-.9-1.9-3.1-1.6-4.9-1.6-1.7,0-3.3,0-5-.1-4.4,0-7.2,1.3-9,6-7.2,18.9-13.2,38.3-22.5,56.4-1.4,2.6,0,4.6,2.9,4.9,2.6.2,5.3-.1,8,.2,4.4.5,6.8-1.5,8.2-5.5,1.3-3.9,2.8-7.8,4.4-11.7,2.5-5.9,5.5-11.4,12.3-13.5,4.6-1.4,8.6,1.6,7.3,6.2-1.4,5.1-3.1,10.2-5.8,14.8-1.4,2.5-5,4.5-3.3,7.8,1.7,3.3,5.5,1.3,7.9,1.7ZM240.2,576.6c0,0,0-.2,0-.3,32.1,0,64.3,0,96.4,0,3.5,0,5.5-1.3,6.5-4.8,1.3-4.3,2.8-8.6,4.8-12.5,3.3-6.5,8.2-12.7,15.7-12,6.4.6,8.4-2.5,10.9-6.6,1-1.6,1.7-3.4.4-5.1-1.3-1.7-3.3-1.5-5-.8-3.4,1.2-6.9,2.6-10.3,3.9-1.7.6-3,.8-4.3-1-1.2-1.7-13.8-2.8-15.7-1.7-1.2.6-1.5,1.8-1.7,2.9-1.4,6.2-3.9,12.1-6.4,17.8-6.1,13.9-1.8,12.7-18.2,12.7-50.1,0-100.3,0-150.4,0-3.3,0-6.6-1.1-9.9-.2-1.9.5-3.5,1.5-3.6,3.6-.1,2.3,1.6,3.2,3.5,3.6,1.8.3,3.6.4,5.5.4,27.3,0,54.6,0,81.9,0ZM217,515.3c9.3.6,10.8-.4,13.4-7.7,1.1-3.1.9-6.9,2.8-9.4,4.4-6,5.2-13.2,8.2-19.7,1.8-3.8-.5-5.8-4.6-5.1-7.2,1.2-14.5,4-21.7-.4-.9-.5-2.3-.4-3.4-.4-13.7-.1-24.4,6.4-32.3,16.8-8.9,11.9-2.3,25.3,12.3,26.8,9.1.9,17.9-4.5,25.4-.9ZM440.4,515.9c3.5-.3,8.4,1,10.2-4.6,2.5-7.8,5.4-15.3,8.6-22.8,3.3-7.6-1-15.2-9.3-16-3.8-.3-7.8-.3-11.4,1.1-5.6,2.1-10.8,1.9-16.6.5-8.1-2-11,.3-13.9,8-3.7,9.6-5.9,19.7-11.5,28.6-2,3.1.2,4.4,2.7,4.7,3.5.4,7,.2,10.5.3,3.3,0,5.2-1.5,6.2-4.6,1.9-6.4,4.5-12.5,7.3-18.6,1.9-4.2,5.1-6.5,9.4-7.4,5.5-1.2,8.6,2.2,6.7,7.4-1.6,4.4-3.6,8.6-5.8,12.7-4.7,9.1-4,10.4,6.9,10.6ZM538.3,576.6c7,0,9.2-.6,10.5-4.6,2.4-7.1,6.2-13.6,7.7-21,.6-3.1,1.8-6,3.7-8.6,1.3-1.8,3.2-3.8,1.3-6.3-1.8-2.3-4.1-1.2-6.4-1.1-7.3.5-14.8,2.9-21.9-1.2-1.6-.9-3.6-.8-5.4-.3-8.8,2.4-17,5.4-23.9,12.1-5.4,5.2-7.6,11.1-7.9,18.1-.3,5.9,3.1,10.8,8.9,12.2,7,1.8,14.1,2.3,20.8-1.3,1.7-.9,3.2-.7,4.7.1,2.7,1.6,5.7,1.8,8.1,1.7ZM446.5,535.1c-8.1-.5-9.4.3-8.1,4.2,2.8,8.5,5.6,17,8.7,25.4,1.3,3.6,1,6.4-1.7,9-6.4,6.3-12.9,12.5-19.9,18.1-1.9,1.5-4.4,4.4-.7,4.9,6.1.8,12.5,2.9,18.5-2.1,12.2-10.3,22.9-22.3,34.8-32.9,7.8-6.9,15-14.6,22.4-21.9,1.1-1.1,2.2-2.3,1.6-3.9-.8-2.1-2.7-1.5-4.3-1.4-3.2.2-6.3.7-9.4.8-3.2,0-5.5,1.3-7.7,3.8-4.1,4.6-8.5,8.8-12.9,13.2-1.2,1.2-2.5,2.4-4.4,1.8-1.7-.6-1.8-2.3-2-3.8-.6-3.3-1.1-6.5-1.4-9.8-.4-4.5-3-6-7.1-5.9-2.7.1-5.3.4-6.5.6ZM390.4,577.5c16.7.3,28.7-5.2,36.9-17,6.6-9.6,6.9-16.9-3-23-7.4-4.6-16.5-6.3-25.3-2.1-.9.4-1.6,1-2.7,1.1-14,1.4-23.6,9.7-27.3,23.1-1.4,5.1.3,8.9,3.9,12.5,5.6,5.6,12.8,4.8,17.4,5.4ZM520,488.1c.4-8.1-6.6-16.7-14.1-16.2-8.4.6-17.1,0-25,4.6-9.2,5.3-16,12.2-19.1,22.5-1.3,4.3.1,8.1,3,11,4.3,4.2,10,7.1,15.7,6.9,10.3-.4,20.7-1.5,29.4-8.2,1.4-1.1,2.5-2.3,2.2-4.1-.3-2.1-2.1-2.5-3.8-2.4-5.3.3-10.7.2-15.6,2.8-4.2,2.2-7.7.7-11.2-1.5-1.5-.9-2.1-2.5-1.7-4.4.3-1.6,1.5-2.1,3-2.1,9.1-.1,18.2-.5,27.3-.3,7.6.2,9.4-1.1,9.8-8.6ZM561.2,496.6c4.6,0,7.8,0,10.9,0,3.9,0,6.3-1.8,7.1-5.6,1.3-6.4-2.7-13.5-8.6-16.5-7.8-3.9-15.9-2.3-23.3-.3-10.1,2.8-18.9,8.1-24,18.5-4.6,9.4-1.8,19.6,8.5,22.6,13.6,4,26.2.7,37.7-7.2,1.2-.9,2.4-2,1.9-3.7-.6-2-2.4-2.3-4-2.1-4.7.7-9.6.4-14.2,2.4-4.1,1.7-8.5,1.8-12.6,0-2.2-1-3.2-2.9-2.5-5.4.6-2.1,2.2-3,4.3-2.5,6.8,1.5,13.5-1,18.8,0ZM361.7,516.4c10,1.3,18.1-3.3,26.2-8.1,1.4-.8,2.9-2,2.3-4-.7-2.3-2.7-2.1-4.6-1.9-5.3.5-10.6.4-15.5,3.1-3.1,1.7-6.9,1.2-10.1-.3-1.9-.8-3.4-2.3-3.1-4.7.3-2.5,2.3-3.4,4.3-3.5,8.8-.4,17.6-.9,26.4-.6,7.8.3,12.2-4.7,10.2-12.4-2-7.7-8.4-10.5-14.6-11-15.3-1.1-29.5,2.1-39.1,16-7.7,11-5.4,22,5.8,26.2,3.8,1.4,7.9.7,11.8,1.2ZM569.9,576.3c3.2.2,7,1.5,8.5-2.9,3.6-10.8,7.6-21.5,11.7-32.1,3.5-9,6.4-18.2,10.8-26.8.8-1.6,1-3.2,0-4.7-1.7-2.3-16.3-.7-17.6,1.9,0,.1-.1.3-.2.5-8.2,19.6-14.9,39.9-24,59.1-1.8,3.8.5,6.2,4.8,5.5,2-.3,4-.3,6-.5ZM249.2,515.4c8.9,0,9.2-.2,11.6-6.7,2.2-5.9,4.5-11.8,6.4-17.8.9-2.9,2.4-4.4,5.3-4.2,5.7.5,7.9-3.4,9.7-7.6,1.1-2.8,0-5.3-2.9-5.7-5.6-.8-4.9-2.9-2.1-6.4,1.6-2,2.8-5.6-.4-6-5.5-.7-11.2.2-16.7,1.9-1,.3-1.7,1.3-1.7,2.3,0,5.4-3.9,7.6-7.8,10-4.5,2.7-5.3,7-2.2,11.2,1.5,2,1.9,4.1.7,6-3.2,5.1-4.3,11.1-7.1,16.4-2.7,5.1-1.6,6.9,4.2,6.8,1,0,2,0,3-.1ZM497,467.2c1.5,0,3-.4,4.2-1.4,3.6-3.1,8-4.6,12.1-6.7,1.8-.9,3.9-1.6,3.5-4.2-.4-2.7-2.4-3.8-4.9-4.2-2.6-.4-4.9.4-6.9,2.1-3.3,2.8-6.5,5.6-10.4,7.6-1.6.8-2.6,2.2-2,4.1.7,2,2.4,2.7,4.3,2.7ZM373.6,466.7c3.2,0,5.2-1.2,7.2-2.4,2.7-1.6,5.4-3.2,8.1-4.8,2.4-1.3,5.9-2.1,4.2-5.9-1.5-3.5-4.9-2.9-7.8-2.1-1.4.4-2.8,1.2-3.7,2.3-2.6,2.7-5.5,4.8-8.9,6.2-1.9.8-3.2,2-2.6,4.1.5,2.2,2.4,2.5,3.5,2.6Z"/>
        <path class="cls-3" d="M.1,864.9c1.8-.1,3.6-.3,5.5-.3,146.3,0,292.5,0,438.8,0,3,0,6-.2,9,0,7.1.6,12.1-2.6,15.7-8.4,9.8-15.9,21.9-30.2,32.3-45.6,10.7-16,22-31.7,32.4-48,19.4-30.6,38.3-61.6,55.8-93.4,14.4-26.3,28.6-52.7,41.3-79.8,9.3-19.7,17.9-39.6,26.9-59.5,1.3-3,2.5-6.1,3.8-9.1,1.6-3.7,1.6-7.4.5-11.2-2.1-6.9-2.7-14.1-3.4-21.2-1.5-15.3-4-30.3-7.1-45.3-2-9.8-3.1-9.8-13-10.9-39.8-4.6-79.8-3.4-119.8-4.8-21-.7-41.8-2.8-62.1-8.9-6-1.8-12-4-17.9-6.2-1.4-.5-2.9-1.2-2.7-3.1,0-1.4,1.3-1.8,2.4-2.2,11-4.2,21.1-10.2,30.3-17.2,7.7-5.8,14.3-5.9,22.2-1.5,8.3,4.6,17.6,6.6,26.8,8.1,21.8,3.7,43.9,5.8,66,6.1,19.2.2,38.3.4,57.5.3,16.5,0,32.9,2,49.2,4,3.3.4,5.2,2.1,5.9,5.7,4.4,22,8,44.3,13.8,65.9,2.6,9.5.3,16.7-3.1,24.6-8.6,20-16.8,40.2-25.7,60.1-6.8,15.3-14.5,30.3-21,45.7-8.2,19.2-18.4,37.3-27.7,55.8-6.7,13.3-13.3,26.8-21.6,39.3-3.4,5.1-5.9,10.7-9.2,15.9-14.6,23-27.8,46.9-44,68.9-12.7,17.2-25.2,34.5-37.5,51.9-3.8,5.5-9.6,7.5-15,10.1-12.6,6-25.8,10.9-38.3,17-8,3.9-15.7,4.5-24.1,4.5-121,0-241.9,0-362.9,0-24.8,0-49.6,0-74.5,0-1.8,0-3.6-.2-5.5-.3,0-2.3,0-4.7,0-7Z"/>
        <path class="cls-3" d="M906.9,232c-1.8.7-2.8,2-3.8,3.7-6.7,11.8-13,23.9-20.3,35.3-9.5,15-20.4,28.9-32.7,41.9-13.3,14-26.9,27.8-37.8,43.8-5.4,7.9-9.7,16.4-12.2,26-4.9,19-10.4,37.8-16.7,56.4-5.9,17.1-8.6,34.9-12.2,52.5-.4,2.2.1,4.3.9,6.4,4.6,13.3,11.8,25.2,19.5,36.9,9.4,14.3,19.9,28,25.2,44.6,3.4,10.5,4.1,21.5,4.3,32.5,0,1.4-.5,2.6-1.5,3.6-9.4,9.4-19.8,17.6-30.8,25.2-11,7.6-22.6,13.8-34.8,19.1-11.8,5.2-23.5,10.6-36.4,12.9-2.7.5-3.9,2.1-4.5,4.6-4.4,19-6,38.4-7.5,57.9-.3,4-.8,7.9-1.1,11.9-.2,2.2-1.4,3.6-3.3,4.6-12.2,6.9-24.3,13.9-36.4,20.8-1.6.9-3.1,1.4-4.6.3-1.4-1.1-1.3-2.7-.8-4.1,1.2-3.1.9-6.2.9-9.4-.2-17,1.7-33.8,4.7-50.5,2.6-14.1,10.2-25.7,19.6-36,18.7-20.6,41.6-35.6,67.3-46.3,6.4-2.7,12.7-5.3,19.2-7.7,3.1-1.2,3.8-2.8,3.4-6.1-2.5-20.6-12.9-37.8-23.7-54.8-7.2-11.4-13-23.6-16.8-36.6-1.3-4.4,1-8.5,1.4-12.8,2.1-21.9,7.3-43.2,11.2-64.8,1.6-8.6,4.4-17,6.5-25.6,1-4,1.5-8.2,2.3-12.2,2.7-13.8,11.5-24.2,19.9-34.6,19.1-23.7,42.3-43.9,58.9-69.6,8.6-13.3,15.8-27.4,24-40.9,8.5-13.9,17.8-27.4,25.8-41.5,4.2-7.4,8.9-13.5,16.7-17.1,2-.9,3.9-1.8,6.1-2.1v32Z"/>
        <path class="cls-2" d="M643.1,191.7c1.3,22-5.1,42.7-12.4,62.7-5.2,14-12.8,27.4-22.8,39.1-6.8,7.9-13.2,16.2-20.3,23.9-6,6.5-12.6,12.6-19.7,18.1-15.7,12.2-32.8,22-51.5,28.8-12.5,4.5-25.3,8-38.7,8.8-5.1.3-10.2,1.1-15.4,1.2-25.2.6-49.4-4.7-72.2-14.8-18.6-8.2-35.2-19.7-50.2-33.9-13.2-12.4-23.8-26.4-32-42.3-8.8-17.3-16.4-35-18.5-54.8-.8-7.6-1.2-15.2-2.1-22.8-1.4-11.2,1.1-22.2,2.3-33.2,1.8-16,8.6-30.4,15-45.1,5.7-13,13.3-24.5,22.1-35.3,4.5-5.6,10-10.5,15.1-15.6,3.9-3.9,8-7.5,11.9-11.3,19.3-18.9,42.3-31.6,68-39.2,28-8.2,56.3-9.4,85.4-3.3,17.8,3.8,34.1,10.2,49.7,18.6,12.1,6.5,22.8,15.4,32.8,24.9,18.3,17.3,32.6,37.6,41.7,60.8,5,12.9,9.5,26.6,10.3,41,.4,8,1,15.9,1.6,23.9ZM561.3,251.8c-.5,1.3-1.5,2-2.6,2.8-2.7,1.8-3.6,4.7-2.3,7.5,2.8,6.1,4.3,12.6,6.4,18.9,3.8,11.4,6.7,23,8.4,34.9.5,3.3,2.7,5,5.4,3.3,3.1-1.9,6.6-3.6,8.7-6.4,7.4-9.9,16.2-18.8,21.4-30.4,3.5-7.7,7.6-15.1,10.4-23.2,4.7-13.7,7.3-27.8,9.3-42.2,2.1-15-.4-29.4-2.4-44-.3-1.8-1-3.9-3.2-3.8-1.8,0-2.8,1.9-3,3.6-1,6.2-4.2,11.5-6.6,17.2-3.3,7.7-8,14.5-13,21.1-2.7-2.4-1.4-5.9-2.2-8.8.3-1.1.5-2.3,1-3.3,5.9-12.1,9.2-24.9,9.5-38.4.3-11-.9-22.1-6.7-31.3-10.5-16.7-26.5-27.7-43.4-37.3-2-1.2-4.3-3.9-6.6-2.7-3.2,1.6,0,4.9-.7,7.3-.1.3-.1.7-.1,1,.3,16.7-7.9,30.3-15.1,44.5-5.7,11.2-15,19.2-23,28.5-4.2,4.9-4.5,5.7-.4,10.9,3.5,4.4,7.2,8.8,10.2,13.6,10.7,17,21.4,34.1,29,52.8,1.5,3.7,3.5,4.6,6.7,2.2,1.4,1.4,3,2.1,4.9,1.8ZM528.4,277.5c.4-.9.6-2,1.2-2.6,3.6-3.4,1-4-2-4.5,7.6-6,8.2-6.3,3.9-15.2-5.3-10.8-10.7-21.5-17.5-31.7-5.6-8.5-10.7-17.5-16.6-25.9-6.2-8.9-6.8-8.8-15.7-2.5-18.2,13-38.5,21.5-60,27.4-16.3,4.4-32.9,3.9-49.6,4-7.3,0-7.6,0-7,7.1,2,22,6.6,43.6,12.3,64.9.4,1.5,1.5,2.5,3.1,2.9,12.3,3.3,24.9,3.9,37.5,2.6,12.7-1.3,25.3-2.6,37.8-5.9,11.1-2.9,22-6.3,32.8-10.1,9.3-3.3,18.4-7.5,27.5-11.3-.4.7-.7,1.5-1.3,2.1-.9,1.1-3.6,1.7-2.2,3.6.9,1.3,3.1.6,4.6-.2,1.1-.6,2.1-1.6,3.2-2.3,2.4-1.5,4.6-3.4,7.7-2.5-3.2,2.3-6.3,4.9-9.7,6.8-26.1,14-52.8,26.7-82.5,31.1-15.1,2.2-30.2,5-45.6,2.9-1.7-.2-3.8-.8-4.1,2.2-.3,3.7,6.9,17.5,10.2,19.2,14.3,7.7,29.4,12.9,45.5,15.6,20.9,3.4,41.7,2.7,62.5-.9,10.6-1.9,20.4-5.7,30.6-8.8,6.8-2.1,13.2-5.4,19-9.9,2.2-1.7,4.2-3.6,3.4-6.7-3.7-13.2-7.5-26.4-11.3-39.6-1.5-5.1-5-9.4-6.1-14.7-.7-3.3-2.9-3-5.3-1.4-2.1,1.5-3.4,4.3-6.5,4.2ZM397.2,210.8c13.9.3,25.7-1.2,37.4-3.8,16.7-3.7,31.7-11,46.7-18.7,5.6-2.9,5.7-6.1,1.4-10.3-4.1-4-8-8.4-11.5-12.9-12-15.4-26-28.8-40.1-42.2-2-1.9-4.1-2.2-6.3-.6-10.6,8-23.1,9.9-35.7,10.8-3.8.3-6.5,1.4-7.7,5-3,8.8-6.8,17.5-8.8,26.5-2.6,11.6-5.6,23.2-6.5,35.3-.5,6.9-.2,7.5,6.8,9,8.7,1.8,17.5,2.2,24.4,2ZM488.8,77c-7-.2-14,.3-20.9,1.2-3.7.5-7,1.6-8,5.6-1.7,7.3-6.7,12.7-11.6,17.7-3.2,3.2-2.7,4.7-.2,7.6,17.4,19.6,37.4,36.8,52.4,58.5,1.2,1.7,2.8,3.2,4.9,1.1,7.4-7.5,14-15.7,19-24.9,9.2-17,9.6-35.3,6.5-53.9-.7-4.2-2.6-8.9-7.5-9.7-11.5-2-22.9-4-34.7-3.2ZM314.4,144.1c-.8,14.3,2.7,25.3,9.1,35,4.8,7.3,11.9,12.8,18.4,18.7,2.9,2.7,6.5,1.6,7.7-2.4,2-6.5,3.5-13.1,5.1-19.7,3.5-14.4,9.3-28,16.2-41,1.7-3.3,1.7-4.7-1.4-6.7-8.3-5.4-13.5-12.5-11.6-23.3.7-3.8-2.7-6.3-6-4.5-5.1,2.7-10.6,2.9-16,3.1-5.1.2-8.4,2.6-11.2,6.3-3.8,5-4.9,11-7,16.7-2.5,6.8-2.1,13.7-3.2,18ZM305.6,214c.3,3.3-.1,6.4.7,9.5,4.4,16.8,10.2,32.9,18.7,48.1,3,5.3,5.7,10.5,10.9,13.9,5.7,3.8,12.1,6.3,18.1,9.5,1,.5,2.1,1.3,3.2.2,1-.9.7-2.1.4-3.2-3-8.7-3.8-17.8-5.5-26.8-2.5-12.4-4.4-24.9-4.4-37.5,0-4.4-1.8-6.8-5.7-8.2-13.4-4.9-24.5-13.1-33.2-24.4-1-1.3-2-3.1-3.9-2.3-2,.8-1.3,2.9-1.1,4.4.6,5.6,2.6,11,1.9,16.7ZM453.5,42.6c-4.1,0-7.3,2.7-11,4.2-1.1.5-2.9.8-2.7,2.5.1,1.5,1.6,2,2.8,2.6,3.9,2.1,8.7,3.1,11.1,7.2,3.7,6.1,9.3,6.2,15.2,5.2,9.7-1.7,19.4-3,29.2-3.1,2.3,0,4.6-.4,6.9-.7,1-.1,2-.5,2.1-1.7.1-1.2-.8-1.7-1.7-2.2-16.1-9-33.4-14-52-14.1ZM341,89.2c4-.8,6.9-1,9.5-1.9,7.3-2.7,15.8-2.4,22-8.3,3.9-3.7,6.1-8.6,10.2-12.1,1.7-1.5.6-3.4-1.1-4.6-2.5-1.8-4.8-1.3-7.5-.1-11.5,5-20.9,13.4-31.4,19.9-1.4.9-2.4,2.3-2.9,4-.5,2-.1,3.3,1.1,3.2ZM404.9,116.8c0-.1,0-.3,0-.4,3.5,0,7,.2,10.5,0,1.8-.1,3.6-1.2,4.3-3,.4-1.1-.3-2.5-1.3-3-4.8-2.1-7.9-6.5-12.3-9.2-3-1.9-5.6-1.1-6.9,2.2-1.2,3-2.6,5.7-4.9,8-1,1.1-1.9,2.5-1,4.1.8,1.4,2.4.9,3.6,1,2.7.2,5.3.3,8,.5ZM392.6,93.9c-3,.4-6.2.8-9.5,1.4-11.2,1.9-12,4.4-4.9,13.4,2.9,3.7,6.1,3.9,9,0,2.8-3.7,5.2-7.7,7.6-11.6,1.2-2,1.1-3.5-2.2-3.3ZM562.2,72.2c.4-2.1-.5-2.7-1.2-3.4-7.2-6.2-15.7-10.4-23.5-15.8-.7-.5-1.5-.6-2.3-.9-1-.3-2.1-.4-2.7.6-.7,1,0,2,.7,2.7,1.9,1.9,4.3,3.3,5.7,5.5,5.7,8.7,15.4,7.7,23.4,11.3ZM445,87.6c0-2.7-1.1-5.4-3.8-4.4-4.6,1.8-9.4,1.8-13.9,3.1-1.5.4-2.5,1.7-1.1,3,3.8,3.4,6.4,8,11,10.6,1.4.8,3,1.1,3.8-.7,1.6-3.8,4.1-7.3,4.1-11.6ZM434.8,71.2c-.2-.3-.4-.9-.8-1.4-3.7-4.3-10.1-3.8-12.8.9-.8,1.4-1.7,2.8-2.6,4.2-.5.8-1.6,1.6-.7,2.5.7.8,1.9.4,2.8,0,4.1-1.3,7.9-3.3,12.2-4,.9-.2,1.8-.8,2-2.3ZM406.7,53.7c6-4.6,14.5-2.5,22-5.2.6-.2,1.2-.5,1.8-.9.9-.5,1.8-1.1,1.5-2.3-.4-1.6-1.8-1.4-2.8-1-7.8,2.8-16.1,3.7-24.2,5.4-1.3.3-2.9.6-2.7,2.3.2,1.8,2,1.2,4.4,1.6ZM410.4,64.6c-3,0-5.2,1.6-5.6,4.4-.4,2.3,1.7,3.5,3.9,3.4,3.2,0,4.5-2.4,5-5.2.4-2.3-1.4-2.6-3.2-2.6ZM382.7,81.6c2.2-.6,5.3-.8,5.7-4.4.2-2.1-1.2-3.2-3.2-2.8-3.2.6-5.5,2.7-6.2,5.7-.4,1.6,1.8,1.5,3.6,1.6ZM366,316.9c-.1-1.8-1.1-3.2-3.1-3.6-1.2-.2-1.9.5-1.8,1.7,0,2,1.3,3.3,3.2,3.9,1.2.3,1.7-.5,1.8-1.9Z"/>
        <path class="cls-3" d="M734.9,326.6c4.9.2,10.8-.1,16.2-3.2,1.5-.9,3.7-1.7,5.1-.3,1.7,1.8-.4,3.4-1.4,4.7-8.2,11-16.9,21.2-29.9,27.4-26,12.5-55.7,5.5-74.6-14.8-13.9-15-18.2-32.4-15.9-52.4,2.7-23.7,16.7-38.7,36-50.1,1-.6,2-1.1,2.6-2.2,5.5-11.4,14.4-19.8,24.5-26.8,15.6-10.7,32.6-14.3,51.2-8.6,7.9,2.4,15.7,4.8,22.3,10.1,13.3,10.6,21.9,23.7,24.9,40.7,2.1,12.1.9,23.9-3.1,34.9-4,11.1-11.2,20.8-21.1,27.9-2.8,2-5.7,4-8.7,5.8-1.3.8-2.9,1.3-4.2,0-1.3-1.2-.9-2.8-.3-4.2,7.5-19.7,3.7-37.5-7.9-54.6-4.6-6.7-9.9-13-16.3-17.1-17.2-10.9-36.1-14.7-56.2-8-5.4,1.8-6.3,6.6-7.7,10.8-4.8,14.8-1.7,28.8,4.2,42.7,5.1,12,13.9,20.4,24,27.9,1.6,1.2,3.5,1.9,5.3,2.6,9.6,3.5,19.1,7.8,31,6.8Z"/>
        <path class="cls-2" d="M257.9,815.4c4.1-.2,8.3-.6,12.4-.7,5.2-.2,6.2,1.3,4.5,6.3-.2.5-.4.9-.5,1.4-.2,1.6-2.9,3.4-.8,4.7,1.9,1.1,4.4-.2,5.7-2,4.3-5.5,8.8-10.9,12.3-16.9,2-3.4,5.2-5.1,7.4-7.8,13.1-15.9,26.2-31.8,39.3-47.6,2-2.4,4.2-4.7,6.3-7.1,1.1-1.2,2.4-1.9,4-1.6,8,1,15.9-.3,23.9,0,4,.1,6.1,1.6,6.4,5.9,1.6,24.4,3.4,48.8,5.2,73.1.1,1.5.4,3,.8,4.4,1.5,5.5-.5,8.6-6.1,8.4-6.8-.2-13.6.2-20.4-.7-3.8-.5-5.4-1.9-5.2-5.6.6-11-.8-9.9-10.8-9.9-8.2,0-16.3.3-24.5.2-3,0-5.1.9-6.7,3.4-2.2,3.3-5.3,5.9-7.4,9.4-1.6,2.7-5.1,3.2-8.1,3.2-10.1,0-20.3-.1-30.4-.2-11.8,0-23.5-.2-35.3.2-6.1.2-12.2-1-18.4-.2-3.1.4-4.4-2.2-2.9-5.2,7.9-16.2,12.5-33.7,19.5-50.2,4.3-10.4,7.6-21.2,11.2-31.9,1-3.1,3.1-4.3,6-4.1,6.8.5,13.5,1.1,20.3-.6,3.3-.8,4.9,1.4,3.5,4.5-3.9,8.6-6.2,17.8-10.4,26.4-4.6,9.3-6.2,20-10.8,29.5-.7,1.5-1.4,3-2.2,4.5-2.2,3.9-1,6.3,3.5,6.7,2.8.3,5.7,0,8.5,0,0,0,0,0,0,.1ZM341.3,800.7c0,.1,0,.2,0,.4,1,0,2,0,3,0,7.2.2,8.7-1.5,7.3-8.5-.8-4-.5-7.9-.6-11.9,0-1.4.9-3.4-.8-4.1-1.9-.8-2.8,1.4-3.9,2.5-5,5.2-7.9,12.2-13.7,16.8-2.8,2.2-1.2,4.3,1.7,4.8,2.3.4,4.6,0,7,0Z"/>
        <path class="cls-2" d="M373.4,714.5c-4.6-.4-13.7.3-22.5-3.4-20-8.4-24.7-24.3-20.2-43.4,3.1-13.3,10-24.8,19.6-34,11.5-10.9,25.1-18.9,40.6-23.1,9.2-2.4,18.5-4.3,28-4.6,12.9-.4,25.2,2.4,35.6,10.6,4.2,3.4,6.1,8.7,8.6,13.3,1.6,3.1-1.2,6.5-5.6,8-7.1,2.4-14.5,3.4-21.5,6.1-3.1,1.2-5.6,0-7.2-3.4-4.2-9.1-14.3-13.7-24-11-10.4,3-21.3,6-28.2,14.5-8,10-15.9,20.9-12,35.3,1.9,6.9,8.2,12.5,15.3,13,8.8.7,17.6.8,25.8-3.8,3.6-2,6.4-4.8,9-7.8,2.1-2.4,1.4-4.4-1.9-4.8-4.1-.5-8.2-1.3-12.4-.2-2.5.6-5.1.7-6.8-1.7-1.8-2.7,0-5,1.6-6.7,2.1-2.3,3.5-4.6,3.4-7.9-.1-3.2,2.2-4.2,5-4.3,7.9-.3,15.9-.6,23.8-.9,9.5-.4,18.9.8,28.4-.6,4.8-.7,7,2.5,5,7.4-5.4,12.9-12.4,24.7-23.7,33.3-17.4,13.4-36.9,21-63.7,19.9Z"/>
        <path class="cls-2" d="M492.1,712.6c-9.5,0-19,0-28.5,0-3.1,0-5.6-1.1-7.2-3.7-1.6-2.7,1.4-3.7,2.2-5.5,3.1-7.4,6.1-14.7,8.9-22.2,3.2-8.8,6.4-17.7,10.4-26.3,4.3-9.3,7.1-19.3,10.3-29.1,1.4-4.4,4.4-8.3,4.3-13.2,0-1.6,1.3-2.2,2.7-2.5,2.9-.7,5.8-1.3,8.9-1.2,17.8.7,35.6,1,53.4-.2,5.7-.4,6.8,1.1,5.1,6.6-.5,1.6-1.3,3.1-1.7,4.7-2.2,9.4-7.4,13.7-17.7,12.7-5.8-.5-11.9-.2-17.9-.3-6.7,0-12.6,6.7-11.9,13.3.2,1.8,1.1,2.6,2.9,2.8,7.7.7,15.5.9,23.2.3,6.1-.5,8.1,1.4,5.9,7-7.4,19.2-3.3,15.9-21.8,16.4-5.5.2-11,0-16.5-.2-3-.1-4.7,1.1-5.6,3.8-.8,2.7-1.4,5.5-2.4,8.1-1.5,3.8.4,5.2,3.5,5.2,8.3,0,16.5-.2,24.8-.5,5.2-.2,7.1,2,5.3,7-1.6,4.5-4.5,8.4-5,13.4-.3,3.1-3.9,3.2-6.5,3.3-4.8.1-9.7,0-14.5,0-4.8,0-9.7,0-14.5,0,0,0,0,0,0,0Z"/>
        <path class="cls-2" d="M296.8,609.7c13.3-.5,23.5.7,33.6-1.1,1.6-.3,3.3.1,4.9.4,3,.5,3.9,2.3,2.7,5.1-2.4,5.4-5,10.8-7.5,16.2-1.2,2.6-3.4,2.7-5.8,2.7-7.8-.1-15.6-.3-23.5-.2-8.3.1-13.4,5.2-14,13.3-.2,2.7,1.5,2.8,3.6,2.8,8.8,0,17.6,0,26.3.1,3.3,0,5.1,1.9,3.6,4.8-2.2,4.3-3.4,8.9-5.3,13.3-1.7,3.9-4.4,5.5-8.6,5.4-8-.2-16,0-23.9-.3-3.8-.2-6.1,1.2-7.2,4.7-.6,1.7-1,3.5-1.6,5.3-2.4,7.5-2.3,7.6,5.8,7.6,7.3,0,14.6.2,21.9-.8,4.4-.6,5.6,1.2,4.9,5.6-.8,4.8-3,9.2-5.2,13.5-1.7,3.5-5,4.4-8.4,4.3-15.5-.5-30.9,1-46.4-.7-2.5-.3-4.9.3-7.4.7-2.3.4-4.7.3-6.4-1.8-1.6-2.1-.6-4.2.3-6.1,7.8-18.1,14.1-36.8,20.3-55.5,4.1-12.2,9.1-24,13.6-36.1.8-2.1,2.4-2,3.9-2.4,9.6-2.1,19.3.2,25.7-.4Z"/>
        <path class="cls-2" d="M80.3,819.4c-5.5-.3-10.9.4-16.4-.8-3.5-.8-5.8,2.1-8.2,4-1.7,1.3-3.5,2.9-4.4,4.7-3.7,8-10.4,8.8-18,8.2-4.1-.3-8.3-.2-12.5-.3-1.8,0-3.3-.9-3.9-2.6-.7-1.7,1.1-2.2,2-3,13.6-12.8,23.6-28.7,35.9-42.5,9.7-10.9,19-22.2,28.4-33.4,1-1.1,2.1-2.2,2.7-3.5,2.4-4.6,6.5-5.9,11.3-5.7,6.8.2,13.5,1.3,20.4-.4,3.3-.8,4.6,1.8,5,4.8,1.3,9.6,1.9,19.2,2.7,28.8,1.4,17.6,3,35.1,4.6,52.6.3,3.1-.9,4.9-4,5.1-7.5.3-15,.7-22.4.4-3.9-.1-5.7-2.9-5-7,1.1-6.9-1.3-9.5-8.2-9.3-3.3,0-6.7,0-10,0ZM96.4,786.8c0,0-.2,0-.2,0,0-2.5,0-5,0-7.5,0-1.4.8-3.3-.9-4-1.4-.5-2.1,1.3-3,2.1-5.8,5.5-8.6,13.4-14.9,18.5-.8.6-1.3,1.6-.8,2.6.6,1.3,1.8,2.2,3.2,1.9,3.8-.8,7.6.2,11.4.3,3.5,0,5.3-1.5,5.3-5.1,0-3,0-6,0-9Z"/>
        <path class="cls-2" d="M469.2,740.9c8.6-.5,16.5,2.7,24.5,5.6,4.2,1.5,4.1,4,1,7.3-3.5,3.8-8,6.3-11.5,10-2.5,2.7-5.3,1.9-7.8.6-7.2-3.8-14.3-4.2-21.8-.5-2.8,1.4-5.2,3.3-4.9,6.1.3,2.8,2.3,5.2,5.6,6.2,5.9,1.8,11.9,3.4,17.4,5.9,11.8,5.3,13.9,11.4,9.1,24.8-6.4,18.3-21.7,25.3-39.3,28.9-15.7,3.2-30.7,2-45-5.7-4.7-2.5-4.6-3.6-.6-7.1,3.5-3,7-6.2,10.1-9.6,4.2-4.7,5.5-5.1,10.8-1.6,6,4,12.2,6.4,19.7,5.5,5.4-.6,9.4-3.2,12.9-6.8,2.7-2.8,1.9-6.7-1.8-8.7-5.1-2.9-10.9-4.1-16.4-5.8-2.2-.7-4.5-1-6.6-2.2-10.1-5.8-11.7-10.9-7.7-21.9,6.8-18.4,21.9-25.7,39.3-29.8,4.1-1,8.5-2,13-1.3Z"/>
        <path class="cls-2" d="M141.3,712.2c-12.6.8-25.6-1-38.6-.8-4.2,0-5-1.4-3.2-5.2,7.1-15.6,11.9-32,18.5-47.8,6-14.3,10.3-29.2,16.1-43.5,1.6-3.9,4.9-4.9,8.5-5.1,6.8-.4,13.6.6,20.5-.5,2.4-.4,3.5,1.3,3.5,3.8,0,3.1-1.2,5.8-2.3,8.6-7.1,19.9-16.3,39-22.6,59.2-2.2,7.2-1.1,8.3,6.4,8.1,7.5-.2,14.9.7,22.4.2,3.5-.3,5,1.9,4,5.2-1.3,4.3-2.7,8.6-4.6,12.6-1.8,3.7-5.4,5.2-9.6,5.2-6.2,0-12.3,0-18.9,0Z"/>
        <path class="cls-2" d="M190.9,744c12-.3,23.9,1.1,35.9-.6,1.8-.3,3.3.3,4.3,1.9,1,1.5.5,2.9-.5,4.1-2.4,3.1-3.7,6.5-4.2,10.5-.4,3.7-3.2,5.1-6.9,4.9-4.9-.4-9.9-1.6-14.8,0-2.3.8-4.3,1.6-5,4.3-2.8,10-8.7,18.7-11.6,28.7-3.3,11.4-9.2,21.7-12.2,33.2-.7,2.6-2.2,4.4-5.2,4.6-6.7.5-13.3.4-19.9-.4-5.2-.6-5.8-2.7-3.6-7.4,3.3-7.1,6.7-14.2,9-21.6,3.5-11.5,8.5-22.4,12.4-33.7,1.9-5.5.4-8-5.3-8-3,0-6,.3-9,.2-4.2,0-6.2-2.6-4.9-6.6,1.2-3.6,2.7-7.2,4.4-10.6,1.4-2.9,4-3.6,7.1-3.6,10,.1,20,0,30,0Z"/>
        <path class="cls-2" d="M200.7,712.7c-4.6-1.8-10,.1-15.5-.1-6.6-.3-7.9-3.5-5.1-9.5,5-10.4,9.7-21,13.3-32,2.5-7.7,5.3-15.4,8.6-22.8,5.1-11.1,8-22.9,12.3-34.2,1.4-3.6,4.3-4.8,6.9-4.5,7.2.8,14.3-1,21.4-.2,5.3.6,6.4,2.5,4.2,7.4-7.9,17.6-14.5,35.7-21,53.9-4.2,11.7-8.5,23.4-12.8,35.1-1.7,4.7-5.6,7.1-12.3,7Z"/>
        <path class="cls-3" d="M316.2,515.1c-2.4-.4-6.1,1.6-7.9-1.7-1.7-3.3,1.8-5.3,3.3-7.8,2.7-4.6,4.4-9.7,5.8-14.8,1.2-4.6-2.8-7.6-7.3-6.2-6.8,2.1-9.8,7.6-12.3,13.5-1.6,3.8-3.1,7.7-4.4,11.7-1.4,4-3.8,6-8.2,5.5-2.6-.3-5.3,0-8-.2-3-.3-4.3-2.3-2.9-4.9,9.3-18.1,15.3-37.5,22.5-56.4,1.8-4.7,4.7-6,9-6,1.7,0,3.3,0,5,.1,1.8,0,4-.2,4.9,1.6,1,2.1,0,4.5-1.3,6-4.5,4.9-3.3,12.3-7.8,17.3-.7.7-.7,2.4.4,3.2,1.5,1.2,3.3.8,4.6-.3,5.7-4.8,12.1-3.7,18.5-2.5,5.3,1,7.2,4.4,6.8,9.8-.6,7.5-4.2,13.9-6.6,20.8-.3.9-.9,1.8-1.2,2.7q-3.3,8.5-12.7,8.2Z"/>
        <path class="cls-3" d="M240.2,576.6c-27.3,0-54.6,0-81.9,0-1.8,0-3.7,0-5.5-.4-1.9-.4-3.6-1.3-3.5-3.6.1-2.1,1.7-3.1,3.6-3.6,3.3-.9,6.6.2,9.9.2,50.1,0,100.3,0,150.4,0,16.4,0,12.2,1.1,18.2-12.7,2.5-5.8,5-11.6,6.4-17.8.2-1.1.6-2.3,1.7-2.9,1.9-1.1,14.4,0,15.7,1.7,1.3,1.8,2.6,1.6,4.3,1,3.4-1.3,6.8-2.6,10.3-3.9,1.8-.6,3.8-.9,5,.8,1.3,1.7.6,3.5-.4,5.1-2.5,4-4.4,7.2-10.9,6.6-7.5-.7-12.4,5.6-15.7,12-2,4-3.5,8.3-4.8,12.5-1,3.5-3.1,4.8-6.5,4.8-32.1,0-64.3,0-96.4,0,0,0,0,.2,0,.3Z"/>
        <path class="cls-3" d="M217,515.3c-7.4-3.6-16.3,1.7-25.4.9-14.6-1.4-21.2-14.9-12.3-26.8,7.8-10.5,18.5-17,32.3-16.8,1.2,0,2.5-.1,3.4.4,7.2,4.3,14.4,1.5,21.7.4,4.2-.7,6.4,1.3,4.6,5.1-3,6.4-3.8,13.7-8.2,19.7-1.8,2.5-1.7,6.3-2.8,9.4-2.5,7.3-4.1,8.3-13.4,7.7ZM203.7,504.1c6,.2,14-6.1,15.1-11.9.5-2.6-.9-3.9-3-5.1-6.3-3.8-11.5-.9-16.5,2.5-3,2.1-5.9,5-4.4,9.2,1.4,4,4.9,5.2,8.8,5.3Z"/>
        <path class="cls-3" d="M440.4,515.9c-10.9-.2-11.6-1.5-6.9-10.6,2.1-4.1,4.2-8.3,5.8-12.7,1.9-5.3-1.2-8.6-6.7-7.4-4.3.9-7.5,3.2-9.4,7.4-2.7,6.1-5.4,12.2-7.3,18.6-.9,3.2-2.8,4.7-6.2,4.6-3.5-.1-7,.1-10.5-.3-2.5-.3-4.7-1.6-2.7-4.7,5.5-8.8,7.8-19,11.5-28.6,2.9-7.6,5.8-9.9,13.9-8,5.7,1.4,11,1.6,16.6-.5,3.6-1.4,7.5-1.4,11.4-1.1,8.3.7,12.6,8.4,9.3,16-3.2,7.5-6.2,15-8.6,22.8-1.8,5.6-6.8,4.3-10.2,4.6Z"/>
        <path class="cls-3" d="M538.3,576.6c-2.5.1-5.4-.2-8.1-1.7-1.5-.9-2.9-1.1-4.7-.1-6.7,3.6-13.8,3.1-20.8,1.3-5.7-1.5-9.1-6.3-8.9-12.2.3-7,2.6-12.9,7.9-18.1,6.9-6.7,15.1-9.7,23.9-12.1,1.8-.5,3.8-.7,5.4.3,7.1,4.2,14.6,1.8,21.9,1.2,2.3-.2,4.7-1.2,6.4,1.1,1.9,2.5,0,4.4-1.3,6.3-1.9,2.6-3.1,5.5-3.7,8.6-1.5,7.4-5.3,13.9-7.7,21-1.3,4-3.5,4.7-10.5,4.6ZM528.9,546.7c-5.4.5-9.9,3.3-12.8,8.4-2.9,5,0,9.9,5.9,9.8,5.1-.1,9.8-1.4,13-6,1.7-2.5,4-4.9,2.4-8-1.6-3.1-4.7-3.9-8.5-4.1Z"/>
        <path class="cls-3" d="M446.5,535.1c1.2-.1,3.8-.5,6.5-.6,4-.2,6.7,1.4,7.1,5.9.3,3.3.8,6.6,1.4,9.8.2,1.4.4,3.2,2,3.8,1.8.6,3.2-.6,4.4-1.8,4.3-4.4,8.8-8.6,12.9-13.2,2.2-2.5,4.5-3.7,7.7-3.8,3.2,0,6.3-.6,9.4-.8,1.6-.1,3.5-.6,4.3,1.4.6,1.6-.5,2.8-1.6,3.9-7.4,7.3-14.6,15-22.4,21.9-11.9,10.6-22.6,22.6-34.8,32.9-6,5-12.4,2.9-18.5,2.1-3.7-.5-1.2-3.4.7-4.9,7.1-5.6,13.5-11.8,19.9-18.1,2.8-2.7,3-5.5,1.7-9-3.1-8.4-5.9-16.9-8.7-25.4-1.3-3.9,0-4.7,8.1-4.2Z"/>
        <path class="cls-3" d="M390.4,577.5c-4.6-.6-11.8.2-17.4-5.4-3.6-3.6-5.3-7.4-3.9-12.5,3.7-13.5,13.2-21.7,27.3-23.1,1.1-.1,1.8-.7,2.7-1.1,8.8-4.3,17.9-2.5,25.3,2.1,9.9,6.1,9.6,13.4,3,23-8.2,11.8-20.2,17.4-36.9,17ZM403.7,546.8c-6.1.1-10.5,2.7-14.1,7-1.6,1.9-2.8,3.8-1.5,6.3,1.5,2.6,3.2,5.3,6.7,5,5.4-.5,10.5-1.8,14.1-6.3,1.8-2.3,3.5-4.6,2.1-7.7-1.5-3.2-4.3-4.5-7.3-4.3Z"/>
        <path class="cls-3" d="M520,488.1c-.3,7.5-2.2,8.8-9.8,8.6-9.1-.2-18.2.2-27.3.3-1.4,0-2.6.5-3,2.1-.4,1.8.2,3.4,1.7,4.4,3.5,2.1,7.1,3.7,11.2,1.5,4.9-2.6,10.3-2.4,15.6-2.8,1.7-.1,3.5.3,3.8,2.4.3,1.9-.8,3.1-2.2,4.1-8.7,6.7-19.2,7.8-29.4,8.2-5.7.2-11.4-2.7-15.7-6.9-2.9-2.8-4.3-6.7-3-11,3.1-10.3,9.9-17.2,19.1-22.5,7.9-4.6,16.6-4,25-4.6,7.5-.5,14.5,8.1,14.1,16.2ZM493.9,489.5c2-.1,4.2,0,6.3-.4,1.8-.3,3.8-.9,3.9-3.2,0-2.1-1.8-2.9-3.5-3.7-2.4-1.1-4.9-.9-7.2.1-2.7,1.1-7.6.6-7.1,4.6.4,4,5,1.5,7.7,2.5Z"/>
        <path class="cls-3" d="M561.2,496.6c-5.3-.9-12,1.6-18.8,0-2-.4-3.6.4-4.3,2.5-.7,2.4.3,4.4,2.5,5.4,4.1,1.9,8.5,1.8,12.6,0,4.6-2,9.4-1.7,14.2-2.4,1.7-.2,3.4.2,4,2.1.5,1.7-.6,2.9-1.9,3.7-11.5,8-24.1,11.2-37.7,7.2-10.3-3-13.2-13.2-8.5-22.6,5.1-10.5,14-15.8,24-18.5,7.4-2,15.5-3.6,23.3.3,5.9,3,9.8,10.1,8.6,16.5-.7,3.8-3.2,5.7-7.1,5.6-3.2,0-6.3,0-10.9,0ZM554.9,488.6c0,0,0,.2,0,.2,1,0,2,.2,3,.1,2-.1,4.5-.2,4.8-2.6.4-2.4-2-3.1-3.8-3.9-4.6-1.9-8.3,1.2-12.4,2.1-1.1.3-1.7,1.6-1.3,2.9.4,1.2,1.6,1.7,2.8,1.7,2.3-.1,4.6-.4,6.9-.6Z"/>
        <path class="cls-3" d="M361.7,516.4c-3.9-.5-8,.2-11.8-1.2-11.2-4.2-13.5-15.2-5.8-26.2,9.7-13.8,23.8-17,39.1-16,6.2.4,12.6,3.3,14.6,11,2,7.7-2.4,12.7-10.2,12.4-8.8-.3-17.6.2-26.4.6-2,0-4,1-4.3,3.5-.2,2.3,1.3,3.8,3.1,4.7,3.3,1.5,7,2,10.1.3,5-2.7,10.2-2.6,15.5-3.1,1.8-.2,3.9-.4,4.6,1.9.6,2-.9,3.2-2.3,4-8.1,4.8-16.2,9.4-26.2,8.1ZM372.5,489.1c2.1.2,2.9.3,3.8.3,2.1,0,4.6.2,5.1-2.7.4-2.8-1.9-3.6-3.9-4.3-4.2-1.6-8.1-.2-11.9,1.7-1.5.7-2.3,1.9-1.8,3.6.4,1.6,1.8,1.7,3.2,1.7,2.3-.1,4.6-.3,5.6-.4Z"/>
        <path class="cls-3" d="M569.9,576.3c-2,.2-4,.2-6,.5-4.3.6-6.6-1.8-4.8-5.5,9.1-19.3,15.8-39.5,24-59.1,0-.2.1-.3.2-.5,1.3-2.6,15.9-4.3,17.6-1.9,1.1,1.5.8,3.2,0,4.7-4.4,8.6-7.4,17.8-10.8,26.8-4.1,10.6-8.1,21.3-11.7,32.1-1.5,4.4-5.3,3.1-8.5,2.9Z"/>
        <path class="cls-3" d="M249.2,515.4c-1,0-2,.1-3,.1-5.8.1-6.9-1.7-4.2-6.8,2.8-5.3,3.9-11.3,7.1-16.4,1.2-1.9.7-4-.7-6-3.1-4.3-2.3-8.5,2.2-11.2,3.9-2.4,7.8-4.5,7.8-10,0-1,.6-2,1.7-2.3,5.4-1.7,11.2-2.5,16.7-1.9,3.2.4,2.1,4,.4,6-2.8,3.5-3.5,5.6,2.1,6.4,3,.4,4.1,2.9,2.9,5.7-1.8,4.3-4,8.1-9.7,7.6-2.9-.2-4.4,1.3-5.3,4.2-1.9,6-4.2,11.9-6.4,17.8-2.4,6.6-2.7,6.7-11.6,6.7Z"/>
        <path class="cls-3" d="M497,467.2c-2,0-3.6-.8-4.3-2.7-.6-1.9.4-3.2,2-4.1,3.9-2,7.1-4.9,10.4-7.6,2-1.7,4.3-2.5,6.9-2.1,2.4.4,4.5,1.5,4.9,4.2.4,2.5-1.7,3.3-3.5,4.2-4.1,2.1-8.5,3.6-12.1,6.7-1.1,1-2.6,1.4-4.2,1.4Z"/>
        <path class="cls-3" d="M373.6,466.7c-1.1,0-3-.4-3.5-2.6-.5-2.2.8-3.3,2.6-4.1,3.4-1.5,6.3-3.5,8.9-6.2,1-1,2.4-1.9,3.7-2.3,2.9-.8,6.2-1.5,7.8,2.1,1.7,3.8-1.9,4.6-4.2,5.9-2.7,1.6-5.4,3.2-8.1,4.8-2,1.2-4,2.4-7.2,2.4Z"/>
        <path class="cls-1" d="M516.4,276.8c-9.2,3.8-18.2,8-27.5,11.3-10.8,3.8-21.7,7.2-32.8,10.1-12.5,3.3-25.1,4.5-37.8,5.9-12.6,1.3-25.2.7-37.5-2.6-1.6-.4-2.7-1.4-3.1-2.9-5.8-21.3-10.4-42.9-12.3-64.9-.6-7.1-.4-7.1,7-7.1,16.6-.1,33.3.4,49.6-4,21.5-5.9,41.8-14.4,60-27.4,8.9-6.3,9.5-6.4,15.7,2.5,5.9,8.4,11,17.4,16.6,25.9,6.7,10.2,12.2,20.9,17.5,31.7,4.3,8.9,3.7,9.2-3.9,15.2-4.4,1-7.4,4.4-11.3,6.4Z"/>
        <path class="cls-1" d="M556.4,250c-3.2,2.4-5.2,1.6-6.7-2.1-7.6-18.7-18.3-35.8-29-52.8-3-4.8-6.6-9.1-10.2-13.6-4.1-5.2-3.8-6,.4-10.9,7.9-9.3,17.3-17.3,23-28.5,7.2-14.2,15.4-27.9,15.1-44.5,0-.3,0-.7.1-1,.8-2.4-2.4-5.7.7-7.3,2.3-1.2,4.6,1.6,6.6,2.7,16.8,9.6,32.9,20.6,43.4,37.3,5.8,9.2,6.9,20.3,6.7,31.3-.3,13.5-3.6,26.3-9.5,38.4-.5,1-.7,2.2-1,3.3-3.1,5.3-6.7,10.3-8.9,16.1-2,.7-2.9,2.5-4.1,4-3.7,4.7-7.5,9.3-11.3,14-4.4,5.3-11,8.2-15.3,13.6Z"/>
        <path class="cls-1" d="M528.4,277.5c3.1,0,4.4-2.7,6.5-4.2,2.3-1.6,4.6-2,5.3,1.4,1.1,5.3,4.6,9.6,6.1,14.7,3.8,13.2,7.6,26.4,11.3,39.6.9,3.1-1.2,5-3.4,6.7-5.7,4.4-12.2,7.8-19,9.9-10.1,3.1-20,6.9-30.6,8.8-20.8,3.7-41.6,4.4-62.5.9-16.1-2.6-31.2-7.9-45.5-15.6-3.3-1.8-10.5-15.5-10.2-19.2.2-2.9,2.4-2.4,4.1-2.2,15.4,2.1,30.5-.7,45.6-2.9,29.8-4.4,56.4-17.1,82.5-31.1,3.5-1.9,6.5-4.5,9.7-6.8,0,0,0,0,0,0Z"/>
        <path class="cls-1" d="M397.2,210.8c-6.9.2-15.7-.2-24.4-2-7-1.5-7.3-2.1-6.8-9,.9-12,3.9-23.6,6.5-35.3,2.1-9,5.8-17.7,8.8-26.5,1.2-3.6,3.9-4.7,7.7-5,12.7-.9,25.1-2.8,35.7-10.8,2.2-1.7,4.3-1.3,6.3.6,14.1,13.3,28.1,26.8,40.1,42.2,3.6,4.5,7.4,8.9,11.5,12.9,4.3,4.2,4.2,7.5-1.4,10.3-15,7.7-30,15.1-46.7,18.7-11.8,2.6-23.5,4.1-37.4,3.8Z"/>
        <path class="cls-1" d="M488.8,77c11.7-.8,23.2,1.3,34.7,3.2,4.9.8,6.8,5.5,7.5,9.7,3.1,18.5,2.7,36.8-6.5,53.9-5,9.3-11.6,17.5-19,24.9-2.1,2.1-3.7.7-4.9-1.1-15-21.7-35-39-52.4-58.5-2.6-2.9-3-4.4.2-7.6,5-5,9.9-10.3,11.6-17.7.9-4,4.3-5.2,8-5.6,6.9-.9,13.9-1.4,20.9-1.2Z"/>
        <path class="cls-1" d="M598.2,211.1c5-6.6,9.7-13.4,13-21.1,2.4-5.6,5.6-11,6.6-17.2.3-1.6,1.2-3.5,3-3.6,2.3-.1,3,2,3.2,3.8,2,14.6,4.5,29,2.4,44-2,14.4-4.6,28.5-9.3,42.2-2.8,8-6.9,15.5-10.4,23.2-5.2,11.5-14.1,20.4-21.4,30.4-2,2.8-5.6,4.5-8.7,6.4-2.7,1.6-4.9,0-5.4-3.3-1.7-11.9-4.7-23.5-8.4-34.9-2.1-6.3-3.6-12.8-6.4-18.9-1.3-2.7-.4-5.7,2.3-7.5,1.2-.8,2.1-1.5,2.6-2.8,3.6-3.7,7.9-6.7,11-11,6.2-5.5,12.4-10.9,17.1-17.8,3.7-3.4,6.2-7.8,8.8-12Z"/>
        <path class="cls-1" d="M314.4,144.1c1.1-4.3.7-11.1,3.2-18,2.1-5.7,3.2-11.7,7-16.7,2.8-3.7,6.1-6.1,11.2-6.3,5.4-.2,10.9-.4,16-3.1,3.4-1.8,6.7.7,6,4.5-1.9,10.8,3.3,17.8,11.6,23.3,3.1,2,3.1,3.4,1.4,6.7-6.8,13.1-12.7,26.6-16.2,41-1.6,6.6-3.2,13.2-5.1,19.7-1.2,3.9-4.7,5-7.7,2.4-6.5-5.9-13.6-11.4-18.4-18.7-6.4-9.7-9.9-20.6-9.1-35Z"/>
        <path class="cls-1" d="M305.6,214c.7-5.6-1.3-11.1-1.9-16.7-.2-1.5-.9-3.6,1.1-4.4,2-.8,2.9,1,3.9,2.3,8.7,11.3,19.8,19.5,33.2,24.4,3.9,1.4,5.7,3.8,5.7,8.2,0,12.6,2,25.1,4.4,37.5,1.8,8.9,2.6,18.1,5.5,26.8.4,1.1.6,2.3-.4,3.2-1.1,1-2.2.3-3.2-.2-6-3.2-12.4-5.7-18.1-9.5-5.2-3.4-8-8.7-10.9-13.9-8.5-15.2-14.3-31.3-18.7-48.1-.8-3.1-.4-6.3-.7-9.5Z"/>
        <path class="cls-1" d="M453.5,42.6c18.6,0,35.8,5.1,52,14.1.9.5,1.8,1,1.7,2.2-.1,1.2-1.1,1.6-2.1,1.7-2.3.3-4.6.7-6.9.7-9.9,0-19.5,1.3-29.2,3.1-5.8,1.1-11.5,1-15.2-5.2-2.5-4.1-7.2-5.1-11.1-7.2-1.2-.6-2.6-1.1-2.8-2.6-.1-1.7,1.6-2,2.7-2.5,3.6-1.5,6.8-4.2,11-4.2Z"/>
        <path class="cls-1" d="M341,89.2c-1.2,0-1.6-1.3-1.1-3.2.4-1.7,1.5-3.1,2.9-4,10.6-6.5,19.9-14.9,31.4-19.9,2.7-1.1,5-1.7,7.5.1,1.7,1.2,2.8,3.1,1.1,4.6-4.1,3.5-6.4,8.4-10.2,12.1-6.2,6-14.7,5.6-22,8.3-2.6,1-5.5,1.1-9.5,1.9Z"/>
        <path class="cls-1" d="M404.9,116.8c-2.7-.2-5.3-.3-8-.5-1.3-.1-2.9.5-3.6-1-.8-1.5,0-3,1-4.1,2.3-2.3,3.7-5,4.9-8,1.3-3.3,3.8-4.1,6.9-2.2,4.3,2.7,7.4,7.1,12.3,9.2,1,.4,1.8,1.8,1.3,3-.7,1.8-2.4,2.9-4.3,3-3.5.2-7,0-10.5,0,0,.1,0,.3,0,.4Z"/>
        <path class="cls-1" d="M392.6,93.9c3.3-.2,3.4,1.3,2.2,3.3-2.4,3.9-4.8,7.9-7.6,11.6-2.9,3.8-6.1,3.6-9,0-7.1-9-6.2-11.5,4.9-13.4,3.2-.6,6.5-1,9.5-1.4Z"/>
        <path class="cls-1" d="M562.2,72.2c-8-3.6-17.7-2.6-23.4-11.3-1.4-2.1-3.8-3.6-5.7-5.5-.7-.7-1.4-1.6-.7-2.7.7-1,1.7-.9,2.7-.6.8.2,1.7.4,2.3.9,7.8,5.3,16.3,9.5,23.5,15.8.7.6,1.7,1.2,1.2,3.4Z"/>
        <path class="cls-1" d="M445,87.6c0,4.4-2.4,7.9-4.1,11.6-.8,1.8-2.4,1.5-3.8.7-4.6-2.6-7.2-7.2-11-10.6-1.4-1.2-.4-2.6,1.1-3,4.6-1.3,9.4-1.3,13.9-3.1,2.8-1.1,3.9,1.7,3.8,4.4Z"/>
        <path class="cls-1" d="M434.8,71.2c-.2,1.5-1.1,2.1-2,2.3-4.3.7-8.1,2.7-12.2,4-.9.3-2.1.7-2.8,0-.9-1,.2-1.8.7-2.5.9-1.4,1.8-2.8,2.6-4.2,2.8-4.8,9.1-5.2,12.8-.9.4.5.6,1.1.8,1.4Z"/>
        <path class="cls-1" d="M406.7,53.7c-2.4-.4-4.1.2-4.4-1.6-.2-1.7,1.5-2,2.7-2.3,8.1-1.7,16.3-2.7,24.2-5.4,1-.4,2.4-.6,2.8,1,.3,1.2-.6,1.8-1.5,2.3-.6.3-1.2.6-1.8.9-7.5,2.7-16,.5-22,5.2Z"/>
        <path class="cls-3" d="M528.4,277.5s0,0,0,0c-3.1-.9-5.3,1.1-7.7,2.5-1.1.7-2.1,1.6-3.2,2.3-1.5.8-3.7,1.5-4.6.2-1.4-1.9,1.3-2.5,2.2-3.6.5-.6.8-1.4,1.3-2.1,3.9-2,6.9-5.4,11.3-6.4,2.9.5,5.5,1.1,2,4.5-.6.6-.8,1.7-1.2,2.6Z"/>
        <path class="cls-3" d="M598.2,211.1c-2.6,4.2-5.1,8.6-8.8,12-.4-1.7-.5-3.6-2.3-4.6,2.2-5.8,5.8-10.8,8.9-16.1.9,2.9-.5,6.4,2.2,8.8Z"/>
        <path class="cls-1" d="M410.4,64.6c1.8,0,3.5.3,3.2,2.6-.4,2.7-1.8,5.1-5,5.2-2.2,0-4.2-1.1-3.9-3.4.5-2.8,2.6-4.4,5.6-4.4Z"/>
        <path class="cls-3" d="M572.3,240.8c-3,4.3-7.4,7.3-11,11-2,.3-3.6-.4-4.9-1.8,4.3-5.4,10.9-8.3,15.3-13.6.2,1.5.4,3,.6,4.4Z"/>
        <path class="cls-1" d="M382.7,81.6c-1.9,0-4,0-3.6-1.6.7-3,3-5.1,6.2-5.7,2-.4,3.4.8,3.2,2.8-.4,3.7-3.5,3.9-5.7,4.4Z"/>
        <path class="cls-1" d="M366,316.9c0,1.4-.5,2.3-1.8,1.9-1.9-.5-3.1-1.8-3.2-3.9,0-1.2.7-1.9,1.8-1.7,2,.4,3,1.8,3.1,3.6Z"/>
        <path class="cls-1" d="M341.3,800.7c-2.3,0-4.7.3-7,0-2.9-.5-4.5-2.6-1.7-4.8,5.9-4.6,8.7-11.6,13.7-16.8,1.1-1.1,2-3.2,3.9-2.5,1.7.7.8,2.7.8,4.1,0,4-.2,8,.6,11.9,1.4,7,0,8.7-7.3,8.5-1,0-2,0-3,0,0-.1,0-.2,0-.4Z"/>
        <path class="cls-1" d="M96.4,786.8c0,3,0,6,0,9,0,3.5-1.8,5.1-5.3,5.1-3.8,0-7.5-1.1-11.4-.3-1.4.3-2.6-.6-3.2-1.9-.5-1.1,0-2,.8-2.6,6.3-5.1,9.1-13,14.9-18.5.9-.9,1.6-2.7,3-2.1,1.8.7.9,2.6.9,4,0,2.5,0,5,0,7.5,0,0,.2,0,.2,0Z"/>
        <path class="cls-1" d="M203.7,504.1c-3.9,0-7.4-1.3-8.8-5.3-1.5-4.2,1.3-7.1,4.4-9.2,5-3.4,10.2-6.4,16.5-2.5,2,1.2,3.5,2.5,3,5.1-1.1,5.8-9.1,12.1-15.1,11.9Z"/>
        <path class="cls-1" d="M528.9,546.7c3.8.2,7,1.1,8.5,4.1,1.6,3.2-.7,5.6-2.4,8-3.2,4.6-7.9,5.8-13,6-5.9.1-8.8-4.7-5.9-9.8,2.9-5,7.4-7.8,12.8-8.4Z"/>
        <path class="cls-1" d="M403.7,546.8c3-.2,5.8,1,7.3,4.3,1.4,3-.3,5.4-2.1,7.7-3.6,4.5-8.7,5.9-14.1,6.3-3.6.3-5.3-2.4-6.7-5-1.4-2.4-.2-4.4,1.5-6.3,3.6-4.2,8-6.9,14.1-7Z"/>
        <path class="cls-1" d="M493.9,489.5c-2.7-1-7.3,1.5-7.7-2.5-.4-4,4.4-3.5,7.1-4.6,2.3-1,4.8-1.2,7.2-.1,1.7.8,3.6,1.6,3.5,3.7,0,2.2-2.1,2.9-3.9,3.2-2.1.3-4.3.3-6.3.4Z"/>
        <path class="cls-1" d="M554.9,488.6c-2.3.2-4.6.4-6.9.6-1.2,0-2.4-.4-2.8-1.7-.4-1.3.2-2.6,1.3-2.9,4.1-1,7.9-4,12.4-2.1,1.9.8,4.2,1.5,3.8,3.9-.4,2.4-2.8,2.5-4.8,2.6-1,0-2,0-3-.1,0,0,0-.2,0-.2Z"/>
        <path class="cls-1" d="M372.5,489.1c-1,0-3.3.3-5.6.4-1.3,0-2.8,0-3.2-1.7-.5-1.7.4-2.9,1.8-3.6,3.8-1.9,7.6-3.3,11.9-1.7,2,.7,4.4,1.5,3.9,4.3-.5,2.9-2.9,2.6-5.1,2.7-.8,0-1.6-.1-3.8-.3Z"/>
        <path class="cls-2" d="M572.3,240.8c-.2-1.5-.4-3-.6-4.4,3.8-4.7,7.5-9.3,11.3-14,1.2-1.5,2.1-3.3,4.1-4,1.8,1,1.9,2.9,2.3,4.6-4.7,6.9-11,12.3-17.1,17.8Z"/>
      </g>
    </g>
  </g>
</svg>