<?xml version="1.0" encoding="UTF-8"?>
<svg id="Calque_1" xmlns="http://www.w3.org/2000/svg" version="1.1" viewBox="0 0 907 907">
  <!-- Generator: Adobe Illustrator 29.4.0, SVG Export Plug-In . SVG Version: 2.1.0 Build 152)  -->
  <defs>
    <style>
      .st0 {
        fill: #fdfefe;
      }

      .st1 {
        fill: #bf3840;
      }

      .st2 {
        fill: #2f4487;
      }
    </style>
  </defs>
  <g id="Calque_11" data-name="Calque_1">
    <g>
      <path class="st0" d="M829.6,289.5v613.3c0,3.4-.7,4.2-4.2,4.2-273.8,0-547.5,0-821.3,0-3.4,0-4.3-.7-4.2-4.2.3-9.3,0-18.6,0-27.9,1.6,0,3.3.3,5,.3h400.1c7.7,0,14.7-.5,22-4.1,11.4-5.6,23.5-10.1,35-15.6,4.9-2.4,10.2-4.2,13.7-9.2,11.3-16,22.7-31.8,34.3-47.5,14.8-20.1,26.9-42,40.3-63,3-4.8,5.3-9.9,8.4-14.5,7.6-11.4,13.7-23.8,19.8-36,8.5-16.9,17.8-33.5,25.3-51,6-14.1,13-27.8,19.2-41.8,8.1-18.2,15.6-36.7,23.5-55,3.1-7.2,5.1-13.8,2.8-22.5-5.4-19.8-8.7-40.2-12.6-60.3-.6-3.3-2.4-4.8-5.4-5.2-15-1.8-29.9-3.8-45-3.7-17.6,0-35,0-52.6-.3-20.3-.3-40.4-2.2-60.4-5.6-8.4-1.4-16.9-3.2-24.5-7.4-7.2-4-13.3-3.9-20.3,1.4-8.4,6.4-17.7,11.8-27.7,15.7-1,.4-2.1.7-2.2,2,0,1.7,1.2,2.4,2.5,2.8,5.5,1.9,10.9,3.9,16.4,5.7,18.5,5.7,37.6,7.5,56.8,8.1,36.5,1.3,73.1.2,109.6,4.4,9.1,1,10,1,11.9,10,2.8,13.7,5.1,27.5,6.5,41.4.6,6.5,1.2,13.1,3.1,19.4,1.1,3.6,1,6.9-.5,10.2-1.2,2.7-2.2,5.6-3.5,8.3-8.1,18.1-16.1,36.4-24.6,54.4-11.7,24.8-24.6,48.9-37.8,73-16,29.1-33.2,57.4-51,85.4-9.4,14.9-19.8,29.3-29.6,43.9-9.5,14.2-20.5,27.3-29.5,41.7-3.3,5.3-7.9,8.2-14.4,7.7-2.7-.3-5.5,0-8.2,0H5c-1.6,0-3.3.2-5,.3V81.5c0-3.5.8-4.2,4.2-4.2,273.8,0,547.5,0,821.3,0,3.4,0,4.2.7,4.2,4.2,0,59.6,0,119.2,0,178.8-2,.3-3.8,1.1-5.6,1.9-7,3.4-11.4,9-15.3,15.6-7.4,12.9-15.9,25.2-23.6,38-7.5,12.3-14.1,25.2-22,37.4-15.2,23.5-36.4,42.1-53.9,63.7-7.7,9.6-15.7,19-18.2,31.7-.7,3.8-1.2,7.5-2.1,11.2-1.9,7.9-4.5,15.6-5.9,23.4-3.6,19.8-8.3,39.2-10.2,59.3-.4,3.9-2.6,7.6-1.3,11.7,3.5,11.9,8.8,23,15.4,33.5,9.8,15.6,19.4,31.3,21.7,50.1.4,3-.3,4.5-3.1,5.6-5.9,2.2-11.7,4.6-17.6,7-23.5,9.8-44.4,23.4-61.6,42.4-8.5,9.4-15.6,20-17.9,32.9-2.8,15.3-4.6,30.6-4.3,46.2,0,2.9.3,5.8-.8,8.6-.5,1.3-.6,2.7.7,3.8,1.4,1.1,2.8.5,4.2-.3,11.1-6.4,22.1-12.7,33.3-19,1.7-1,2.8-2.2,3-4.2.4-3.7.7-7.2,1-10.9,1.4-17.7,2.8-35.5,6.9-53,.5-2.4,1.6-3.8,4.1-4.2,11.7-2.1,22.5-7,33.3-11.8,11.1-4.8,21.8-10.5,31.8-17.5,10.1-7,19.5-14.5,28.2-23.1.9-.9,1.5-2,1.4-3.3-.2-10.1-.9-20.1-3.9-29.7-4.8-15.2-14.5-27.7-23.1-40.8-7-10.7-13.5-21.6-17.8-33.8-.6-1.9-1.2-3.8-.8-5.9,3.3-16.1,5.8-32.4,11.2-48,5.9-16.9,10.8-34.2,15.3-51.6,2.3-8.8,6.2-16.6,11.2-23.8,10-14.6,22.5-27.3,34.6-40.1,11.3-11.8,21.2-24.6,29.9-38.3,6.7-10.5,12.4-21.5,18.6-32.3.8-1.6,1.7-2.7,3.5-3.4h-.2ZM588.3,252.6c-.5-7.3-1.1-14.5-1.5-21.9-.6-13.1-4.8-25.6-9.4-37.5-8.3-21.2-21.4-39.8-38.1-55.6-9.2-8.7-18.9-16.8-30-22.8-14.3-7.7-29.3-13.5-45.5-17-26.5-5.7-52.4-4.6-78.1,3-23.5,6.9-44.6,18.6-62.2,35.9-3.6,3.5-7.4,6.9-10.9,10.3-4.7,4.7-9.7,9.1-13.8,14.3-8.1,9.9-15,20.5-20.2,32.3-5.9,13.4-12.1,26.5-13.7,41.3-1.2,10.1-3.4,20.2-2.1,30.4.8,7,1.2,13.9,1.9,20.9,1.9,18.1,8.8,34.3,16.9,50.1,7.4,14.5,17.2,27.3,29.3,38.7,13.7,13,28.9,23.5,45.9,31,20.9,9.2,43,14,66,13.5,4.8,0,9.4-.8,14.1-1.1,12.3-.6,24-3.8,35.4-8.1,17.1-6.2,32.7-15.1,47.1-26.3,6.5-5,12.5-10.5,18-16.6,6.5-7,12.3-14.5,18.6-21.9,9.1-10.6,16.1-23,20.9-35.8,6.8-18.3,12.6-37.2,11.3-57.4v.2ZM672.3,376c-10.9.9-19.5-3-28.4-6.2-1.6-.6-3.5-1.3-4.8-2.4-9.2-6.9-17.3-14.5-22-25.5-5.4-12.7-8.2-25.5-3.8-39.1,1.3-3.8,2.1-8.2,7-9.9,18.4-6.1,35.7-2.7,51.4,7.3,5.9,3.8,10.7,9.4,14.9,15.6,10.6,15.6,14.2,31.9,7.2,49.9-.5,1.3-.9,2.7.3,3.8s2.7.7,3.8,0c2.7-1.6,5.4-3.5,8-5.3,9.1-6.5,15.6-15.3,19.3-25.5,3.7-10.2,4.8-20.9,2.8-31.9-2.7-15.6-10.6-27.5-22.8-37.2-6-4.8-13.2-7-20.4-9.2-17-5.2-32.6-1.9-46.8,7.9-9.3,6.4-17.5,14.1-22.4,24.5-.5,1-1.4,1.5-2.4,2-17.7,10.4-30.6,24.2-32.9,45.8-2.1,18.3,1.8,34.2,14.5,47.9,17.4,18.7,44.5,25,68.2,13.5,11.9-5.8,19.9-15,27.4-25.1.9-1.2,2.7-2.7,1.3-4.3-1.3-1.4-3.3-.5-4.7.3-5,2.8-10.4,3.2-14.8,2.9h0ZM235.9,823.2h0c-2.6,0-5.2,0-7.8,0-4.1-.4-5.1-2.6-3.2-6.1.7-1.4,1.3-2.7,2-4.1,4.2-8.7,5.7-18.4,9.9-27,3.8-7.9,6-16.3,9.5-24.2,1.3-2.7-.2-4.8-3.2-4.1-6.2,1.6-12.3,1-18.6.5-2.7-.2-4.6.9-5.5,3.8-3.3,9.8-6.2,19.7-10.2,29.2-6.3,15.2-10.5,31.1-17.8,45.9-1.4,2.7,0,5,2.7,4.8,5.7-.6,11.3.5,16.8.2,10.7-.4,21.5-.2,32.3-.2s18.6.2,27.8.2,5.9-.5,7.4-2.9c1.9-3.2,4.8-5.5,6.8-8.6,1.5-2.3,3.5-3.1,6.1-3.1,7.5,0,14.9-.2,22.4-.2s10.4-1.1,9.9,9.1c-.2,3.4,1.3,4.7,4.8,5.1,6.2.8,12.4.5,18.7.6,5,.2,6.9-2.7,5.6-7.7-.4-1.3-.6-2.7-.7-4-1.6-22.3-3.2-44.6-4.8-66.9-.3-3.9-2.2-5.2-5.9-5.4-7.3-.3-14.5,1-21.9,0-1.5-.2-2.7.5-3.7,1.5-1.9,2.1-3.9,4.2-5.8,6.5-12,14.5-24.1,29-36,43.5-2.1,2.6-5,4.1-6.8,7.1-3.2,5.5-7.3,10.4-11.3,15.5-1.3,1.6-3.6,2.8-5.2,1.8-1.9-1.2.5-2.8.7-4.3,0-.5.3-.8.5-1.3,1.6-4.6.5-5.9-4.1-5.8-3.8.2-7.6.5-11.3.6h-.2ZM341.6,730.9c24.4,1,42.4-5.9,58.3-18.2,10.2-8,16.7-18.8,21.7-30.5,1.8-4.5-.2-7.3-4.6-6.8-8.7,1.2-17.4.2-26,.5-7.2.3-14.5.5-21.8.8-2.6,0-4.7,1-4.6,3.9,0,3-1.2,5.1-3.1,7.2-1.5,1.6-3.1,3.7-1.5,6.1,1.6,2.2,3.9,2.2,6.2,1.6,3.8-1,7.6-.3,11.3.2,3,.4,3.7,2.2,1.7,4.4-2.4,2.7-4.9,5.3-8.2,7.1-7.5,4.1-15.5,4-23.6,3.5-6.5-.5-12.3-5.7-14-11.9-3.7-13.3,3.6-23.1,11-32.3,6.3-7.9,16.3-10.6,25.8-13.3,8.9-2.6,18.2,1.7,22,10.1,1.5,3.1,3.8,4.2,6.6,3.1,6.4-2.5,13.2-3.5,19.7-5.6,4-1.4,6.6-4.5,5.1-7.3-2.2-4.3-3.9-9.1-7.9-12.2-9.5-7.5-20.9-10.1-32.6-9.7-8.6.3-17.2,2-25.6,4.2-14.3,3.8-26.7,11.2-37.1,21.1-8.8,8.4-15.1,18.9-17.9,31.1-4.1,17.6.2,32.1,18.5,39.7,8.1,3.4,16.4,2.7,20.6,3.1v-.2ZM450.2,729.2h26.5c2.5,0,5.7,0,5.9-3,.5-4.6,3.1-8.1,4.6-12.3,1.6-4.6,0-6.6-4.8-6.4-7.6.3-15.1.5-22.7.5s-4.7-1.3-3.2-4.8c1-2.4,1.5-4.9,2.2-7.4.7-2.5,2.3-3.7,5.1-3.5,5,.2,10.1.3,15.1.2,16.9-.5,13.2,2.5,19.9-15,2-5.2.2-6.9-5.4-6.4-7,.5-14.2.4-21.2-.3-1.6-.2-2.5-.8-2.7-2.6-.6-6,4.8-12.3,10.9-12.2,5.5,0,11.1-.2,16.4.3,9.4.8,14.2-3,16.2-11.6.4-1.5,1.1-2.8,1.6-4.3,1.6-5.1.5-6.4-4.7-6-16.3,1.1-32.6.8-48.9.2-2.7,0-5.5.5-8.1,1.1-1.3.3-2.5.8-2.5,2.3,0,4.5-2.7,8.1-3.9,12.1-2.9,9-5.5,18.1-9.4,26.6-3.6,7.9-6.5,15.9-9.5,24.1-2.5,6.9-5.3,13.6-8.1,20.3-.7,1.6-3.5,2.6-2,5,1.5,2.4,3.7,3.4,6.6,3.4h26.1v-.3ZM271.5,635c-5.9.5-14.7-1.6-23.5.4-1.5.3-2.9.3-3.6,2.2-4.1,11-8.7,21.9-12.4,33-5.7,17.1-11.4,34.2-18.6,50.8-.8,1.8-1.6,3.8-.3,5.6,1.5,1.9,3.7,2,5.9,1.6,2.3-.4,4.5-.9,6.8-.6,14.1,1.6,28.3.2,42.4.6,3.1,0,6.1-.7,7.7-3.9,1.9-3.9,3.9-7.9,4.8-12.3.7-4-.5-5.7-4.5-5.1-6.7.9-13.4.6-20,.7-7.4,0-7.5,0-5.3-7,.5-1.6.9-3.2,1.5-4.8,1-3.2,3.1-4.4,6.6-4.3,7.3.3,14.6.2,21.9.3,3.8,0,6.3-1.4,7.9-4.9,1.7-4,2.8-8.2,4.8-12.2,1.4-2.7-.3-4.3-3.3-4.4-8.1,0-16.1,0-24.1,0s-3.5,0-3.3-2.6c.5-7.4,5.2-12.1,12.8-12.2,7.1,0,14.3,0,21.5.2,2.3,0,4.2,0,5.3-2.5,2.3-4.9,4.7-9.9,6.9-14.8,1.1-2.5.3-4.2-2.5-4.7-1.5-.3-3.1-.6-4.5-.4-9.2,1.6-18.6.5-30.7,1v.4ZM73.4,826.9h9.1c6.3-.2,8.5,2.2,7.5,8.5-.6,3.8.9,6.3,4.6,6.4,6.9.3,13.6,0,20.5-.4,2.8,0,3.8-1.7,3.7-4.7-1.5-16-2.9-32.1-4.2-48.1-.7-8.8-1.3-17.6-2.5-26.3-.4-2.7-1.6-5.1-4.6-4.4-6.2,1.6-12.4.5-18.7.4-4.4,0-8.1,1-10.3,5.2-.6,1.2-1.6,2.2-2.5,3.2-8.7,10.2-17.1,20.5-26,30.6-11.3,12.7-20.4,27.3-32.8,38.9-.8.7-2.5,1.2-1.8,2.7s1.9,2.3,3.6,2.4c3.8,0,7.6,0,11.4.3,7,.5,13-.2,16.5-7.5.8-1.7,2.5-3.1,4-4.3,2.2-1.7,4.4-4.4,7.5-3.7,5,1.1,10,.5,15,.7h0ZM429.2,755.1c-4.2-.6-8.1.4-11.9,1.2-15.9,3.8-29.7,10.4-36,27.3-3.7,10.1-2.2,14.7,7,20,1.9,1.1,4,1.4,6,2,5,1.6,10.3,2.7,15,5.3,3.3,1.9,4,5.5,1.6,8-3.2,3.3-7,5.7-11.8,6.2-6.8.8-12.5-1.3-18-5-4.8-3.3-6-2.9-9.9,1.5-2.8,3.2-6,6-9.2,8.8-3.7,3.2-3.8,4.1.5,6.5,13.1,7,26.8,8.1,41.2,5.2,16.1-3.3,30.1-9.8,36-26.4,4.3-12.3,2.5-17.8-8.3-22.7-5.1-2.3-10.6-3.8-15.9-5.4-3-.9-4.8-3.1-5.1-5.7-.3-2.6,1.8-4.3,4.5-5.6,6.9-3.4,13.4-2.9,19.9.5,2.3,1.2,4.8,1.9,7.1-.5,3.2-3.4,7.3-5.8,10.5-9.1,2.8-3,2.9-5.3-.9-6.7-7.3-2.7-14.5-5.6-22.4-5.1h0ZM129.3,728.8h17.3c3.8,0,7.1-1.3,8.8-4.8,1.8-3.7,3-7.6,4.2-11.5.9-2.9-.5-4.9-3.7-4.8-6.9.5-13.7-.4-20.5-.2-7,.2-8-.8-5.9-7.4,5.8-18.5,14.3-36,20.7-54.2.9-2.6,2-5.1,2.1-7.9,0-2.3-1-3.8-3.2-3.5-6.2,1-12.5,0-18.8.5-3.3.2-6.3,1.2-7.8,4.7-5.3,13.1-9.2,26.7-14.7,39.8-6,14.4-10.4,29.5-16.9,43.7-1.6,3.5-.9,4.8,2.9,4.8,11.9-.2,23.7,1.5,35.3.7h0ZM174.6,757.9h-27.4c-2.8,0-5.2.6-6.5,3.3-1.6,3.1-2.9,6.4-4,9.7-1.2,3.7.6,5.9,4.5,6,2.7,0,5.5-.2,8.2-.2,5.2,0,6.6,2.3,4.8,7.3-3.6,10.3-8.1,20.3-11.3,30.8-2.1,6.8-5.2,13.4-8.2,19.8-2,4.3-1.5,6.2,3.3,6.8,6,.7,12.1.8,18.2.4,2.7-.2,4.1-1.9,4.8-4.2,2.7-10.5,8.1-20,11.2-30.4,2.7-9.1,8.1-17.1,10.6-26.3.6-2.4,2.5-3.2,4.6-3.9,4.6-1.6,9.1-.4,13.5,0,3.4.3,5.9-1.1,6.3-4.5.4-3.7,1.6-6.8,3.8-9.6.9-1.2,1.3-2.5.5-3.8-.9-1.4-2.3-1.9-3.9-1.7-10.9,1.6-21.9.3-32.8.5h0ZM183.6,729.3c6.1,0,9.7-2.2,11.3-6.4,3.9-10.7,7.9-21.4,11.7-32.1,5.9-16.6,12-33.2,19.2-49.3,2-4.5.9-6.2-3.8-6.8-6.5-.7-13,.9-19.6.2-2.5-.3-5.1.8-6.3,4.1-3.9,10.3-6.6,21.1-11.3,31.3-3.1,6.8-5.6,13.8-7.9,20.9-3.3,10.2-7.6,19.8-12.2,29.3-2.6,5.5-1.4,8.4,4.7,8.7,4.9.2,10-1.6,14.2,0h0ZM289.3,548.5c5.7.2,9.6-2.3,11.6-7.5.4-.8.8-1.6,1.1-2.5,2.2-6.3,5.5-12.2,6-19,.4-5-1.4-8.1-6.2-9-5.9-1.2-11.7-2.1-16.9,2.3-1.2,1-2.8,1.4-4.2.3-1-.8-1-2.3-.4-2.9,4.1-4.5,3.1-11.3,7.1-15.8,1.3-1.5,2.2-3.6,1.2-5.5-.8-1.7-2.8-1.5-4.5-1.5s-3,0-4.6,0c-4,0-6.6,1.2-8.2,5.5-6.6,17.3-12.1,35-20.6,51.6-1.3,2.4,0,4.2,2.7,4.5,2.4.2,4.8,0,7.3.2,4,.5,6.2-1.4,7.5-5,1.2-3.6,2.6-7.1,4-10.7,2.3-5.4,5-10.4,11.3-12.3,4.2-1.3,7.9,1.5,6.7,5.7-1.3,4.7-2.8,9.3-5.3,13.5-1.3,2.3-4.6,4.1-3,7.1s5,1.2,7.2,1.6l.2-.4ZM219.7,604.7v-.3h88.2c3.2,0,5-1.2,5.9-4.4,1.2-3.9,2.6-7.9,4.4-11.4,3-5.9,7.5-11.6,14.4-11,5.9.5,7.7-2.3,10-6,.9-1.5,1.6-3.1.4-4.7-1.2-1.6-3-1.4-4.6-.7-3.1,1.1-6.3,2.4-9.4,3.6-1.6.5-2.7.7-3.9-.9-1.1-1.6-12.6-2.6-14.4-1.6-1.1.5-1.4,1.6-1.6,2.7-1.3,5.7-3.6,11.1-5.9,16.3-5.6,12.7-1.6,11.6-16.6,11.6h-137.6c-3,0-6-1-9.1-.2-1.7.5-3.2,1.4-3.3,3.3,0,2.1,1.5,2.9,3.2,3.3,1.6.3,3.3.4,5,.4h74.9,0ZM198.5,548.7c8.5.5,9.9-.4,12.3-7,1-2.8.8-6.3,2.6-8.6,4-5.5,4.8-12.1,7.5-18,1.6-3.5-.5-5.3-4.2-4.7-6.6,1.1-13.3,3.7-19.9-.4-.8-.5-2.1-.4-3.1-.4-12.5,0-22.3,5.9-29.5,15.4-8.1,10.9-2.1,23.1,11.3,24.5,8.3.8,16.4-4.1,23.2-.8h0ZM402.9,549.2c3.2-.3,7.7.9,9.3-4.2,2.3-7.1,4.9-14,7.9-20.9,3-7-.9-13.9-8.5-14.6-3.5-.3-7.1-.3-10.4,1-5.1,1.9-9.9,1.7-15.2.5-7.4-1.8-10.1.3-12.7,7.3-3.4,8.8-5.4,18-10.5,26.2-1.8,2.8.2,4,2.5,4.3,3.2.4,6.4.2,9.6.3,3,0,4.8-1.4,5.7-4.2,1.7-5.9,4.1-11.4,6.7-17,1.7-3.8,4.7-5.9,8.6-6.8,5-1.1,7.9,2,6.1,6.8-1.5,4-3.3,7.9-5.3,11.6-4.3,8.3-3.7,9.5,6.3,9.7h0ZM492.4,604.7c6.4,0,8.4-.5,9.6-4.2,2.2-6.5,5.7-12.4,7-19.2.5-2.8,1.6-5.5,3.4-7.9,1.2-1.6,2.9-3.5,1.2-5.8-1.6-2.1-3.8-1.1-5.9-1-6.7.5-13.5,2.7-20-1.1-1.5-.8-3.3-.7-4.9-.3-8.1,2.2-15.6,4.9-21.9,11.1-4.9,4.8-7,10.2-7.2,16.6-.3,5.4,2.8,9.9,8.1,11.2,6.4,1.6,12.9,2.1,19-1.2,1.6-.8,2.9-.6,4.3,0,2.5,1.5,5.2,1.6,7.4,1.6l-.2.2ZM408.4,566.8c-7.4-.5-8.6.3-7.4,3.8,2.6,7.8,5.1,15.6,8,23.2,1.2,3.3.9,5.9-1.6,8.2-5.9,5.8-11.8,11.4-18.2,16.6-1.7,1.4-4,4-.6,4.5,5.6.7,11.4,2.7,16.9-1.9,11.2-9.4,20.9-20.4,31.8-30.1,7.1-6.3,13.7-13.4,20.5-20,1-1,2-2.1,1.5-3.6-.7-1.9-2.5-1.4-3.9-1.3-2.9.2-5.8.6-8.6.7-2.9,0-5,1.2-7,3.5-3.8,4.2-7.8,8.1-11.8,12.1-1.1,1.1-2.3,2.2-4,1.6-1.6-.5-1.6-2.1-1.8-3.5-.5-3-1-5.9-1.3-9-.4-4.1-2.7-5.5-6.5-5.4-2.5,0-4.8.4-5.9.5h0ZM357.1,605.6c15.3.3,26.3-4.8,33.8-15.6,6-8.8,6.3-15.5-2.7-21-6.8-4.2-15.1-5.8-23.1-1.9-.8.4-1.5.9-2.5,1-12.8,1.3-21.6,8.9-25,21.1-1.3,4.7.3,8.1,3.6,11.4,5.1,5.1,11.7,4.4,15.9,4.9h0ZM475.7,523.8c.4-7.4-6-15.3-12.9-14.8-7.7.5-15.6,0-22.9,4.2-8.4,4.8-14.6,11.2-17.5,20.6-1.2,3.9,0,7.4,2.7,10.1,3.9,3.8,9.1,6.5,14.4,6.3,9.4-.4,18.9-1.4,26.9-7.5,1.3-1,2.3-2.1,2-3.8-.3-1.9-1.9-2.3-3.5-2.2-4.8.3-9.8.2-14.3,2.6-3.8,2-7,.6-10.2-1.4-1.4-.8-1.9-2.3-1.6-4,.3-1.5,1.4-1.9,2.7-1.9,8.3,0,16.6-.5,25-.3,7,.2,8.6-1,9-7.9h0ZM513.4,531.6h10c3.6,0,5.8-1.6,6.5-5.1,1.2-5.9-2.5-12.3-7.9-15.1-7.1-3.6-14.5-2.1-21.3-.3-9.2,2.6-17.3,7.4-22,16.9-4.2,8.6-1.6,17.9,7.8,20.7,12.4,3.7,24,.6,34.5-6.6,1.1-.8,2.2-1.8,1.7-3.4-.5-1.8-2.2-2.1-3.7-1.9-4.3.6-8.8.4-13,2.2-3.8,1.6-7.8,1.6-11.5,0-2-.9-2.9-2.7-2.3-4.9.5-1.9,2-2.7,3.9-2.3,6.2,1.4,12.3-.9,17.2,0v-.2ZM330.9,549.7c9.1,1.2,16.6-3,24-7.4,1.3-.7,2.7-1.8,2.1-3.7-.6-2.1-2.5-1.9-4.2-1.7-4.8.5-9.7.4-14.2,2.8-2.8,1.6-6.3,1.1-9.2-.3-1.7-.7-3.1-2.1-2.8-4.3.3-2.3,2.1-3.1,3.9-3.2,8.1-.4,16.1-.8,24.2-.5,7.1.3,11.2-4.3,9.3-11.3-1.8-7-7.7-9.6-13.4-10.1-14-1-27,1.9-35.8,14.6-7,10.1-4.9,20.1,5.3,24,3.5,1.3,7.2.6,10.8,1.1h0ZM521.3,604.5c2.9.2,6.4,1.4,7.8-2.7,3.3-9.9,7-19.7,10.7-29.4,3.2-8.2,5.9-16.6,9.9-24.5.7-1.5.9-2.9,0-4.3-1.6-2.1-14.9-.6-16.1,1.7,0,0,0,.3-.2.5-7.5,17.9-13.6,36.5-22,54.1-1.6,3.5.5,5.7,4.4,5,1.8-.3,3.7-.3,5.5-.5h0ZM228,548.8c8.1,0,8.4-.2,10.6-6.1,2-5.4,4.1-10.8,5.9-16.3.8-2.7,2.2-4,4.8-3.8,5.2.5,7.2-3.1,8.9-7,1-2.6,0-4.8-2.7-5.2-5.1-.7-4.5-2.7-1.9-5.9,1.5-1.8,2.6-5.1-.4-5.5-5-.6-10.2.2-15.3,1.7-.9.3-1.6,1.2-1.6,2.1,0,4.9-3.6,7-7.1,9.1-4.1,2.5-4.8,6.4-2,10.2,1.4,1.8,1.7,3.8.6,5.5-2.9,4.7-3.9,10.2-6.5,15-2.5,4.7-1.5,6.3,3.8,6.2.9,0,1.8,0,2.7,0h0ZM454.6,504.7c1.4,0,2.7-.4,3.8-1.3,3.3-2.8,7.3-4.2,11.1-6.1,1.6-.8,3.6-1.5,3.2-3.8-.4-2.5-2.2-3.5-4.5-3.8-2.4-.4-4.5.4-6.3,1.9-3,2.6-5.9,5.1-9.5,7-1.5.7-2.4,2-1.8,3.8.6,1.8,2.2,2.5,3.9,2.5h0ZM341.8,504.2c2.9,0,4.8-1.1,6.6-2.2,2.5-1.5,4.9-2.9,7.4-4.4,2.2-1.2,5.4-1.9,3.8-5.4-1.4-3.2-4.5-2.7-7.1-1.9-1.3.4-2.6,1.1-3.4,2.1-2.4,2.5-5,4.4-8.1,5.7-1.7.7-2.9,1.8-2.4,3.8.5,2,2.2,2.3,3.2,2.4h0Z"/>
      <path class="st2" d="M0,868.5c1.6,0,3.3-.3,5-.3h401.4c2.7,0,5.5-.2,8.2,0,6.5.5,11.1-2.4,14.4-7.7,9-14.5,20-27.6,29.5-41.7,9.8-14.6,20.1-29,29.6-43.9,17.7-28,35-56.4,51-85.4,13.2-24.1,26.2-48.2,37.8-73,8.5-18,16.4-36.2,24.6-54.4,1.2-2.7,2.3-5.6,3.5-8.3,1.5-3.4,1.5-6.8.5-10.2-1.9-6.3-2.5-12.9-3.1-19.4-1.4-14-3.7-27.7-6.5-41.4-1.8-9-2.8-9-11.9-10-36.4-4.2-73-3.1-109.6-4.4-19.2-.6-38.2-2.6-56.8-8.1-5.5-1.6-11-3.7-16.4-5.7-1.3-.5-2.7-1.1-2.5-2.8,0-1.3,1.2-1.6,2.2-2,10.1-3.8,19.3-9.3,27.7-15.7,7-5.3,13.1-5.4,20.3-1.4,7.6,4.2,16.1,6,24.5,7.4,19.9,3.4,40.2,5.3,60.4,5.6,17.6.2,35,.4,52.6.3,15.1,0,30.1,1.8,45,3.7,3,.4,4.8,1.9,5.4,5.2,4,20.1,7.3,40.5,12.6,60.3,2.4,8.7.3,15.3-2.8,22.5-7.9,18.3-15.4,36.8-23.5,55-6.2,14-13.3,27.7-19.2,41.8-7.5,17.6-16.8,34.1-25.3,51-6.1,12.2-12.2,24.5-19.8,36-3.1,4.7-5.4,9.8-8.4,14.5-13.4,21-25.4,42.9-40.3,63-11.6,15.7-23.1,31.6-34.3,47.5-3.5,5-8.8,6.9-13.7,9.2-11.5,5.5-23.6,10-35,15.6-7.3,3.6-14.4,4.1-22,4.1H5.1c-1.6,0-3.3-.2-5-.3v-6.4h0Z"/>
      <path class="st2" d="M829.6,289.5c-1.6.6-2.6,1.8-3.5,3.4-6.1,10.8-11.9,21.9-18.6,32.3-8.7,13.7-18.7,26.4-29.9,38.3-12.2,12.8-24.6,25.4-34.6,40.1-4.9,7.2-8.9,15-11.2,23.8-4.5,17.4-9.5,34.6-15.3,51.6-5.4,15.6-7.9,31.9-11.2,48-.4,2,0,3.9.8,5.9,4.2,12.2,10.8,23.1,17.8,33.8,8.6,13.1,18.2,25.6,23.1,40.8,3.1,9.6,3.8,19.7,3.9,29.7,0,1.3-.5,2.4-1.4,3.3-8.6,8.6-18.1,16.1-28.2,23.1-10.1,7-20.7,12.6-31.8,17.5-10.8,4.8-21.5,9.7-33.3,11.8-2.5.5-3.6,1.9-4.1,4.2-4,17.4-5.5,35.1-6.9,53-.3,3.7-.7,7.2-1,10.9-.2,2-1.3,3.3-3,4.2-11.2,6.3-22.2,12.7-33.3,19-1.5.8-2.8,1.3-4.2.3-1.3-1-1.2-2.5-.7-3.8,1.1-2.8.8-5.7.8-8.6-.2-15.6,1.6-30.9,4.3-46.2,2.4-12.9,9.3-23.5,17.9-32.9,17.1-18.8,38.1-32.6,61.6-42.4,5.9-2.5,11.6-4.8,17.6-7,2.8-1.1,3.5-2.6,3.1-5.6-2.3-18.8-11.8-34.6-21.7-50.1-6.6-10.4-11.9-21.6-15.4-33.5-1.2-4,.9-7.8,1.3-11.7,1.9-20,6.7-39.5,10.2-59.3,1.5-7.9,4-15.6,5.9-23.4.9-3.7,1.4-7.5,2.1-11.2,2.5-12.6,10.5-22.1,18.2-31.7,17.5-21.7,38.7-40.2,53.9-63.7,7.9-12.2,14.5-25.1,22-37.4,7.8-12.7,16.3-25.1,23.6-38,3.8-6.8,8.1-12.3,15.3-15.6,1.8-.8,3.6-1.6,5.6-1.9v29.3-.2Z"/>
      <path class="st1" d="M588.3,252.6c1.2,20.1-4.7,39.1-11.3,57.4-4.8,12.8-11.7,25.1-20.9,35.8-6.2,7.2-12.1,14.8-18.6,21.9-5.5,5.9-11.5,11.5-18,16.6-14.4,11.2-30,20.1-47.1,26.3-11.4,4.1-23.1,7.3-35.4,8.1-4.7.3-9.3,1-14.1,1.1-23.1.5-45.2-4.3-66-13.5-17-7.5-32.2-18-45.9-31-12.1-11.3-21.8-24.2-29.3-38.7-8.1-15.8-15-32-16.9-50.1-.7-7-1.1-13.9-1.9-20.9-1.3-10.2,1-20.3,2.1-30.4,1.6-14.6,7.9-27.8,13.7-41.3,5.2-11.9,12.2-22.4,20.2-32.3,4.1-5.1,9.1-9.6,13.8-14.3,3.6-3.6,7.3-6.9,10.9-10.3,17.7-17.3,38.7-28.9,62.2-35.9,25.6-7.5,51.5-8.6,78.1-3,16.3,3.5,31.2,9.3,45.5,17,11.1,5.9,20.9,14.1,30,22.8,16.7,15.8,29.8,34.4,38.1,55.6,4.6,11.8,8.7,24.3,9.4,37.5.4,7.3.9,14.5,1.5,21.9v-.2ZM513.5,307.6c-.5,1.2-1.4,1.8-2.4,2.6-2.5,1.6-3.3,4.3-2.1,6.9,2.6,5.6,3.9,11.5,5.9,17.3,3.5,10.4,6.1,21,7.7,31.9.5,3,2.5,4.6,4.9,3,2.8-1.7,6-3.3,8-5.9,6.8-9.1,14.8-17.2,19.6-27.8,3.2-7,7-13.8,9.5-21.2,4.3-12.5,6.7-25.4,8.5-38.6,1.9-13.7-.4-26.9-2.2-40.3-.3-1.6-.9-3.6-2.9-3.5-1.6,0-2.6,1.7-2.7,3.3-.9,5.7-3.8,10.5-6,15.7-3,7-7.3,13.3-11.9,19.3-2.5-2.2-1.3-5.4-2-8.1.3-1,.5-2.1.9-3,5.4-11.1,8.4-22.8,8.7-35.1.3-10.1-.8-20.2-6.1-28.6-9.6-15.3-24.2-25.3-39.7-34.1-1.8-1.1-3.9-3.6-6-2.5-2.9,1.5,0,4.5-.6,6.7,0,.3,0,.6,0,.9.3,15.3-7.2,27.7-13.8,40.7-5.2,10.2-13.7,17.6-21,26.1-3.8,4.5-4.1,5.2-.4,10,3.2,4,6.6,8.1,9.3,12.4,9.8,15.6,19.6,31.2,26.5,48.3,1.4,3.4,3.2,4.2,6.1,2,1.3,1.3,2.7,1.9,4.5,1.6h0ZM483.4,331.1c.4-.8.5-1.8,1.1-2.4,3.3-3.1.9-3.7-1.8-4.1,7-5.5,7.5-5.8,3.6-13.9-4.8-9.9-9.8-19.7-16-29-5.1-7.8-9.8-16-15.2-23.7-5.7-8.1-6.2-8.1-14.4-2.3-16.6,11.9-35.2,19.7-54.9,25.1-14.9,4-30.1,3.6-45.4,3.7-6.7,0-7,0-6.4,6.5,1.8,20.1,6,39.9,11.3,59.4.4,1.4,1.4,2.3,2.8,2.7,11.3,3,22.8,3.6,34.3,2.4,11.6-1.2,23.1-2.4,34.6-5.4,10.2-2.7,20.1-5.8,30-9.2,8.5-3,16.8-6.9,25.2-10.3-.4.6-.6,1.4-1.2,1.9-.8,1-3.3,1.6-2,3.3.8,1.2,2.8.5,4.2-.2,1-.5,1.9-1.5,2.9-2.1,2.2-1.4,4.2-3.1,7-2.3-2.9,2.1-5.8,4.5-8.9,6.2-23.9,12.8-48.3,24.4-75.5,28.5-13.8,2-27.6,4.6-41.7,2.7-1.6-.2-3.5-.7-3.8,2-.3,3.4,6.3,16,9.3,17.6,13.1,7,26.9,11.8,41.6,14.3,19.1,3.1,38.1,2.5,57.2-.8,9.7-1.7,18.7-5.2,28-8.1,6.2-1.9,12.1-4.9,17.4-9.1,2-1.6,3.8-3.3,3.1-6.1-3.4-12.1-6.9-24.2-10.3-36.2-1.4-4.7-4.6-8.6-5.6-13.4-.6-3-2.7-2.7-4.8-1.3-1.9,1.4-3.1,3.9-5.9,3.8h.2ZM363.3,270.1c12.7.3,23.5-1.1,34.2-3.5,15.3-3.4,29-10.1,42.7-17.1,5.1-2.7,5.2-5.6,1.3-9.4-3.8-3.7-7.3-7.7-10.5-11.8-11-14.1-23.8-26.3-36.7-38.6-1.8-1.7-3.8-2-5.8-.5-9.7,7.3-21.1,9.1-32.7,9.9-3.5.3-5.9,1.3-7,4.6-2.7,8.1-6.2,16-8.1,24.2-2.4,10.6-5.1,21.2-5.9,32.3-.5,6.3-.2,6.9,6.2,8.2,8,1.6,16,2,22.3,1.8h0ZM447.1,147.7c-6.4-.2-12.8.3-19.1,1.1-3.4.5-6.4,1.5-7.3,5.1-1.6,6.7-6.1,11.6-10.6,16.2-2.9,2.9-2.5,4.3-.2,7,15.9,17.9,34.2,33.7,47.9,53.5,1.1,1.6,2.6,2.9,4.5,1,6.8-6.9,12.8-14.4,17.4-22.8,8.4-15.6,8.8-32.3,5.9-49.3-.6-3.8-2.4-8.1-6.9-8.9-10.5-1.8-20.9-3.7-31.7-2.9h0ZM287.6,209.1c-.7,13.1,2.5,23.1,8.3,32,4.4,6.7,10.9,11.7,16.8,17.1,2.7,2.5,5.9,1.5,7-2.2,1.8-5.9,3.2-12,4.7-18,3.2-13.2,8.5-25.6,14.8-37.5,1.6-3,1.6-4.3-1.3-6.1-7.6-4.9-12.3-11.4-10.6-21.3.6-3.5-2.5-5.8-5.5-4.1-4.7,2.5-9.7,2.7-14.6,2.8-4.7.2-7.7,2.4-10.2,5.8-3.5,4.6-4.5,10.1-6.4,15.3-2.3,6.2-1.9,12.5-2.9,16.5v-.2ZM279.6,273c.3,3,0,5.9.6,8.7,4,15.4,9.3,30.1,17.1,44,2.7,4.8,5.2,9.6,10,12.7,5.2,3.5,11.1,5.8,16.6,8.7.9.5,1.9,1.2,2.9.2.9-.8.6-1.9.4-2.9-2.7-8-3.5-16.3-5-24.5-2.3-11.3-4-22.8-4-34.3s-1.6-6.2-5.2-7.5c-12.3-4.5-22.4-12-30.4-22.3-.9-1.2-1.8-2.8-3.6-2.1-1.8.7-1.2,2.7-1,4,.5,5.1,2.4,10.1,1.7,15.3h0ZM414.9,116.2c-3.8,0-6.7,2.5-10.1,3.8-1,.5-2.7.7-2.5,2.3,0,1.4,1.5,1.8,2.6,2.4,3.6,1.9,8,2.8,10.2,6.6,3.4,5.6,8.5,5.7,13.9,4.8,8.9-1.6,17.7-2.7,26.7-2.8,2.1,0,4.2-.4,6.3-.6.9,0,1.8-.5,1.9-1.6s-.7-1.6-1.6-2c-14.7-8.2-30.6-12.8-47.6-12.9h0ZM311.9,158.9c3.7-.7,6.3-.9,8.7-1.7,6.7-2.5,14.5-2.2,20.1-7.6,3.6-3.4,5.6-7.9,9.3-11.1,1.6-1.4.5-3.1-1-4.2-2.3-1.6-4.4-1.2-6.9,0-10.5,4.6-19.1,12.3-28.7,18.2-1.3.8-2.2,2.1-2.7,3.7-.5,1.8,0,3,1,2.9h0ZM370.4,184.1v-.4c3.2,0,6.4.2,9.6,0,1.6,0,3.3-1.1,3.9-2.7.4-1-.3-2.3-1.2-2.7-4.4-1.9-7.2-5.9-11.3-8.4-2.7-1.7-5.1-1-6.3,2-1.1,2.7-2.4,5.2-4.5,7.3-.9,1-1.7,2.3-.9,3.8.7,1.3,2.2.8,3.3.9,2.5.2,4.8.3,7.3.5v-.2ZM359.1,163.2c-2.7.4-5.7.7-8.7,1.3-10.2,1.7-11,4-4.5,12.3,2.7,3.4,5.6,3.6,8.2,0,2.6-3.4,4.8-7,7-10.6,1.1-1.8,1-3.2-2-3h0ZM514.3,143.3c.4-1.9-.5-2.5-1.1-3.1-6.6-5.7-14.4-9.5-21.5-14.5-.6-.5-1.4-.5-2.1-.8-.9-.3-1.9-.4-2.5.5-.6.9,0,1.8.6,2.5,1.7,1.7,3.9,3,5.2,5,5.2,8,14.1,7,21.4,10.3h0ZM407.1,157.4c0-2.5-1-4.9-3.5-4-4.2,1.6-8.6,1.6-12.7,2.8-1.4.4-2.3,1.6-1,2.7,3.5,3.1,5.9,7.3,10.1,9.7,1.3.7,2.7,1,3.5-.6,1.5-3.5,3.8-6.7,3.8-10.6h0ZM397.7,142.4c-.2-.3-.4-.8-.7-1.3-3.4-3.9-9.2-3.5-11.7.8-.7,1.3-1.6,2.6-2.4,3.8-.5.7-1.5,1.5-.6,2.3.6.7,1.7.4,2.6,0,3.8-1.2,7.2-3,11.2-3.7.8-.2,1.6-.7,1.8-2.1h0ZM372,126.4c5.5-4.2,13.3-2.3,20.1-4.8.5-.2,1.1-.5,1.6-.8.8-.5,1.6-1,1.4-2.1-.4-1.5-1.6-1.3-2.6-.9-7.1,2.6-14.7,3.4-22.1,4.9-1.2.3-2.7.5-2.5,2.1.2,1.6,1.8,1.1,4,1.5h0ZM375.4,136.4c-2.7,0-4.8,1.5-5.1,4-.4,2.1,1.6,3.2,3.6,3.1,2.9,0,4.1-2.2,4.6-4.8.4-2.1-1.3-2.4-2.9-2.4h0ZM350.1,151.9c2-.5,4.8-.7,5.2-4,.2-1.9-1.1-2.9-2.9-2.6-2.9.5-5,2.5-5.7,5.2-.4,1.5,1.6,1.4,3.3,1.5h0ZM334.8,367.2c0-1.6-1-2.9-2.8-3.3-1.1-.2-1.7.5-1.6,1.6,0,1.8,1.2,3,2.9,3.6,1.1.3,1.6-.5,1.6-1.7h0Z"/>
      <path class="st2" d="M672.3,376c4.5.2,9.9,0,14.8-2.9,1.4-.8,3.4-1.6,4.7-.3,1.6,1.6-.4,3.1-1.3,4.3-7.5,10.1-15.5,19.4-27.4,25.1-23.8,11.4-51,5-68.2-13.5-12.7-13.7-16.6-29.6-14.5-47.9,2.5-21.7,15.3-35.4,32.9-45.8.9-.5,1.8-1,2.4-2,5-10.4,13.2-18.1,22.4-24.5,14.3-9.8,29.8-13.1,46.8-7.9,7.2,2.2,14.4,4.4,20.4,9.2,12.2,9.7,20,21.7,22.8,37.2,1.9,11.1.8,21.9-2.8,31.9-3.7,10.2-10.2,19-19.3,25.5-2.6,1.8-5.2,3.7-8,5.3-1.2.7-2.7,1.2-3.8,0-1.2-1.1-.8-2.6-.3-3.8,6.9-18,3.4-34.3-7.2-49.9-4.2-6.1-9.1-11.9-14.9-15.6-15.7-10-33-13.4-51.4-7.3-4.9,1.6-5.8,6-7,9.9-4.4,13.5-1.6,26.3,3.8,39.1,4.7,11,12.7,18.7,22,25.5,1.5,1.1,3.2,1.7,4.8,2.4,8.8,3.2,17.5,7.1,28.4,6.2h0Z"/>
      <path class="st1" d="M235.9,823.2c3.8-.2,7.6-.5,11.3-.6,4.8-.2,5.7,1.2,4.1,5.8-.2.5-.4.8-.5,1.3-.2,1.5-2.7,3.1-.7,4.3,1.7,1,4-.2,5.2-1.8,3.9-5,8.1-10,11.3-15.5,1.8-3.1,4.8-4.7,6.8-7.1,12-14.5,24-29.1,36-43.5,1.8-2.2,3.8-4.3,5.8-6.5,1-1.1,2.2-1.7,3.7-1.5,7.3.9,14.5-.3,21.9,0,3.7,0,5.6,1.5,5.9,5.4,1.5,22.3,3.1,44.6,4.8,66.9,0,1.4.4,2.7.7,4,1.4,5-.5,7.9-5.6,7.7-6.2-.2-12.4.2-18.7-.6-3.5-.5-4.9-1.7-4.8-5.1.5-10.1-.7-9.1-9.9-9.1s-14.9.3-22.4.2c-2.7,0-4.7.8-6.1,3.1-2,3-4.8,5.4-6.8,8.6-1.5,2.5-4.7,2.9-7.4,2.9-9.2,0-18.6,0-27.8-.2-10.8,0-21.5-.2-32.3.2-5.6.2-11.2-.9-16.8-.2-2.8.4-4-2-2.7-4.8,7.2-14.8,11.4-30.8,17.8-45.9,3.9-9.5,7-19.4,10.2-29.2.9-2.8,2.8-3.9,5.5-3.8,6.2.5,12.3,1,18.6-.5,3-.7,4.5,1.3,3.2,4.1-3.6,7.9-5.7,16.3-9.5,24.2-4.2,8.5-5.7,18.3-9.9,27-.6,1.4-1.3,2.7-2,4.1-2,3.6-.9,5.8,3.2,6.1,2.6.3,5.2,0,7.8,0h0c0,0,.2,0,.2,0ZM312.2,809.8v.4h2.7c6.6.2,8-1.4,6.7-7.8-.7-3.7-.5-7.2-.5-10.9,0-1.3.8-3.1-.7-3.8-1.7-.7-2.6,1.3-3.6,2.3-4.6,4.8-7.2,11.2-12.5,15.4-2.6,2-1.1,3.9,1.6,4.4,2.1.4,4.2,0,6.4,0Z"/>
      <path class="st1" d="M341.6,730.9c-4.2-.4-12.5.3-20.6-3.1-18.3-7.7-22.6-22.2-18.5-39.7,2.8-12.2,9.1-22.7,17.9-31.1,10.5-10,23-17.3,37.1-21.1,8.4-2.2,16.9-3.9,25.6-4.2,11.8-.4,23.1,2.2,32.6,9.7,3.8,3.1,5.6,8,7.9,12.2,1.5,2.8-1.1,5.9-5.1,7.3-6.5,2.2-13.3,3.1-19.7,5.6-2.8,1.1-5.1,0-6.6-3.1-3.8-8.3-13.1-12.5-22-10.1-9.5,2.7-19.5,5.5-25.8,13.3-7.3,9.1-14.5,19.1-11,32.3,1.7,6.3,7.5,11.4,14,11.9,8.1.6,16.1.7,23.6-3.5,3.3-1.8,5.9-4.4,8.2-7.1,1.9-2.2,1.3-4-1.7-4.4-3.8-.5-7.5-1.2-11.3-.2-2.3.5-4.7.6-6.2-1.6-1.6-2.5,0-4.6,1.5-6.1,1.9-2.1,3.2-4.2,3.1-7.2,0-2.9,2-3.8,4.6-3.9,7.2-.3,14.5-.5,21.8-.8,8.7-.4,17.3.7,26-.5,4.4-.6,6.4,2.3,4.6,6.8-4.9,11.8-11.3,22.6-21.7,30.5-15.9,12.3-33.8,19.2-58.3,18.2v.2Z"/>
      <path class="st1" d="M450.2,729.2h-26.1c-2.8,0-5.1-1-6.6-3.4-1.5-2.5,1.3-3.4,2-5,2.8-6.8,5.6-13.4,8.1-20.3,2.9-8.1,5.9-16.2,9.5-24.1,3.9-8.5,6.5-17.7,9.4-26.6,1.3-4,4-7.6,3.9-12.1,0-1.5,1.2-2,2.5-2.3,2.7-.6,5.3-1.2,8.1-1.1,16.3.6,32.6.9,48.9-.2,5.2-.4,6.2,1,4.7,6-.5,1.5-1.2,2.8-1.6,4.3-2,8.6-6.8,12.5-16.2,11.6-5.3-.5-10.9-.2-16.4-.3-6.1,0-11.5,6.1-10.9,12.2.2,1.6,1,2.4,2.7,2.6,7,.6,14.2.8,21.2.3,5.6-.5,7.4,1.3,5.4,6.4-6.8,17.6-3,14.5-19.9,15-5,.2-10.1,0-15.1-.2-2.7,0-4.3,1-5.1,3.5-.7,2.5-1.3,5-2.2,7.4-1.4,3.5.4,4.8,3.2,4.8,7.6,0,15.1-.2,22.7-.5,4.8-.2,6.5,1.8,4.8,6.4-1.5,4.1-4.1,7.7-4.6,12.3-.3,2.8-3.6,2.9-5.9,3-4.4,0-8.9,0-13.3,0h-13.3v.3Z"/>
      <path class="st1" d="M271.5,635c12.2-.5,21.5.6,30.7-1,1.5-.3,3,0,4.5.4,2.7.5,3.6,2.1,2.5,4.7-2.2,4.9-4.6,9.9-6.9,14.8-1.1,2.4-3.1,2.5-5.3,2.5-7.1,0-14.3-.3-21.5-.2-7.6,0-12.3,4.8-12.8,12.2-.2,2.5,1.4,2.6,3.3,2.6,8.1,0,16.1,0,24.1,0,3,0,4.7,1.7,3.3,4.4-2,3.9-3.1,8.1-4.8,12.2-1.6,3.6-4,5-7.9,4.9-7.3-.2-14.6,0-21.9-.3-3.5-.2-5.6,1.1-6.6,4.3-.5,1.6-.9,3.2-1.5,4.8-2.2,6.9-2.1,7,5.3,7s13.4.2,20-.7c4-.5,5.1,1.1,4.5,5.1-.7,4.4-2.7,8.4-4.8,12.3-1.6,3.2-4.6,4-7.7,3.9-14.2-.5-28.3.9-42.4-.6-2.3-.3-4.5.3-6.8.6-2.1.4-4.3.3-5.9-1.6-1.5-1.9-.5-3.8.3-5.6,7.1-16.6,12.9-33.7,18.6-50.8,3.8-11.2,8.3-22,12.4-33,.7-1.9,2.2-1.8,3.6-2.2,8.8-1.9,17.7.2,23.5-.4v-.4Z"/>
      <path class="st1" d="M73.4,826.9c-5-.3-10,.4-15-.7-3.2-.7-5.3,1.9-7.5,3.7-1.6,1.2-3.2,2.7-4,4.3-3.4,7.3-9.5,8.1-16.5,7.5-3.8-.3-7.6-.2-11.4-.3-1.6,0-3-.8-3.6-2.4-.6-1.6,1-2,1.8-2.7,12.4-11.7,21.6-26.3,32.8-38.9,8.9-10,17.4-20.3,26-30.6.9-1,1.9-2,2.5-3.2,2.2-4.2,5.9-5.4,10.3-5.2,6.2.2,12.3,1.2,18.7-.4,3-.7,4.2,1.6,4.6,4.4,1.2,8.8,1.7,17.6,2.5,26.3,1.3,16.1,2.7,32.1,4.2,48.1.3,2.8-.8,4.5-3.7,4.7-6.9.3-13.7.6-20.5.4-3.6,0-5.2-2.7-4.6-6.4,1-6.3-1.2-8.7-7.5-8.5h-9.1ZM88.2,797h-.2v-6.9c0-1.3.7-3-.8-3.7-1.3-.5-1.9,1.2-2.7,1.9-5.3,5-7.9,12.3-13.6,16.9-.7.5-1.2,1.5-.7,2.4.5,1.2,1.6,2,2.9,1.7,3.5-.7,7,.2,10.4.3,3.2,0,4.8-1.4,4.8-4.7v-8.2.2Z"/>
      <path class="st1" d="M429.2,755.1c7.9-.5,15.1,2.5,22.4,5.1,3.8,1.4,3.8,3.7.9,6.7-3.2,3.5-7.3,5.8-10.5,9.1-2.3,2.5-4.8,1.7-7.1.5-6.6-3.5-13.1-3.8-19.9-.5-2.6,1.3-4.8,3-4.5,5.6.3,2.6,2.1,4.8,5.1,5.7,5.4,1.6,10.9,3.1,15.9,5.4,10.8,4.8,12.7,10.4,8.3,22.7-5.9,16.7-19.9,23.1-36,26.4-14.4,2.9-28.1,1.8-41.2-5.2-4.3-2.3-4.2-3.3-.5-6.5,3.2-2.7,6.4-5.7,9.2-8.8,3.8-4.3,5-4.7,9.9-1.5,5.5,3.7,11.2,5.9,18,5,4.9-.5,8.6-2.9,11.8-6.2,2.5-2.6,1.7-6.1-1.6-8-4.7-2.7-10-3.8-15-5.3-2-.6-4.1-.9-6-2-9.2-5.3-10.7-10-7-20,6.2-16.8,20-23.5,36-27.3,3.8-.9,7.8-1.8,11.9-1.2h0Z"/>
      <path class="st1" d="M129.3,728.8c-11.5.7-23.4-.9-35.3-.7-3.8,0-4.6-1.3-2.9-4.8,6.5-14.3,10.9-29.3,16.9-43.7,5.5-13.1,9.4-26.7,14.7-39.8,1.5-3.6,4.5-4.5,7.8-4.7,6.2-.4,12.4.5,18.8-.5,2.2-.4,3.2,1.2,3.2,3.5s-1.1,5.3-2.1,7.9c-6.5,18.2-14.9,35.7-20.7,54.2-2,6.6-1,7.6,5.9,7.4s13.6.6,20.5.2c3.2-.3,4.6,1.7,3.7,4.8-1.2,3.9-2.5,7.9-4.2,11.5-1.6,3.4-4.9,4.8-8.8,4.8h-17.4Z"/>
      <path class="st1" d="M174.6,757.9c11-.3,21.9,1,32.8-.5,1.6-.3,3,.3,3.9,1.7.9,1.4.5,2.7-.5,3.8-2.2,2.8-3.4,5.9-3.8,9.6-.4,3.4-2.9,4.7-6.3,4.5-4.5-.4-9.1-1.5-13.5,0-2.1.7-3.9,1.5-4.6,3.9-2.6,9.1-8,17.1-10.6,26.3-3,10.4-8.4,19.9-11.2,30.4-.6,2.4-2,4-4.8,4.2-6.1.5-12.2.4-18.2-.4-4.8-.5-5.3-2.5-3.3-6.8,3-6.5,6.1-13,8.2-19.8,3.2-10.5,7.8-20.5,11.3-30.8,1.7-5,.4-7.3-4.8-7.3s-5.5.3-8.2.2c-3.8,0-5.7-2.4-4.5-6,1.1-3.3,2.5-6.6,4-9.7,1.3-2.7,3.7-3.3,6.5-3.3,9.1,0,18.3,0,27.4,0h0Z"/>
      <path class="st1" d="M183.6,729.3c-4.2-1.6-9.1,0-14.2,0-6-.3-7.2-3.2-4.7-8.7,4.6-9.5,8.9-19.2,12.2-29.3,2.3-7,4.8-14.1,7.9-20.9,4.7-10.2,7.3-20.9,11.3-31.3,1.3-3.3,3.9-4.4,6.3-4.1,6.6.7,13.1-.9,19.6-.2,4.8.5,5.9,2.3,3.8,6.8-7.2,16.1-13.3,32.7-19.2,49.3-3.8,10.7-7.8,21.4-11.7,32.1-1.6,4.3-5.1,6.5-11.3,6.4h0Z"/>
      <path class="st2" d="M289.3,548.5c-2.2-.4-5.6,1.5-7.2-1.6-1.6-3,1.6-4.8,3-7.1,2.5-4.2,4-8.9,5.3-13.5,1.1-4.2-2.6-7-6.7-5.7-6.2,1.9-9,7-11.3,12.3-1.5,3.5-2.8,7-4,10.7-1.3,3.7-3.5,5.5-7.5,5-2.4-.3-4.8,0-7.3-.2-2.7-.3-3.9-2.1-2.7-4.5,8.5-16.6,14-34.3,20.6-51.6,1.6-4.3,4.3-5.5,8.2-5.5s3,0,4.6,0c1.6,0,3.7-.2,4.5,1.5.9,1.9,0,4.1-1.2,5.5-4.1,4.5-3,11.3-7.1,15.8-.6.6-.6,2.2.4,2.9,1.4,1.1,3,.7,4.2-.3,5.2-4.4,11.1-3.4,16.9-2.3,4.8.9,6.6,4,6.2,9-.5,6.9-3.8,12.7-6,19-.3.8-.8,1.6-1.1,2.5-2,5.2-5.9,7.7-11.6,7.5l-.2.4Z"/>
      <path class="st2" d="M219.7,604.7h-74.9c-1.6,0-3.4,0-5-.4-1.7-.4-3.3-1.2-3.2-3.3,0-1.9,1.6-2.8,3.3-3.3,3-.8,6,.2,9.1.2h137.6c15,0,11.2,1,16.6-11.6,2.3-5.3,4.6-10.6,5.9-16.3.2-1,.5-2.1,1.6-2.7,1.7-1,13.2,0,14.4,1.6,1.2,1.6,2.4,1.5,3.9.9,3.1-1.2,6.2-2.4,9.4-3.6,1.6-.5,3.5-.8,4.6.7,1.2,1.6.5,3.2-.4,4.7-2.3,3.7-4,6.6-10,6-6.9-.6-11.3,5.1-14.4,11-1.8,3.7-3.2,7.6-4.4,11.4-.9,3.2-2.8,4.4-5.9,4.4h-88.2v.3h0Z"/>
      <path class="st2" d="M198.5,548.7c-6.8-3.3-14.9,1.6-23.2.8-13.4-1.3-19.4-13.6-11.3-24.5,7.1-9.6,16.9-15.6,29.5-15.4,1.1,0,2.3,0,3.1.4,6.6,3.9,13.2,1.4,19.9.4,3.8-.6,5.9,1.2,4.2,4.7-2.7,5.9-3.5,12.5-7.5,18-1.6,2.3-1.6,5.8-2.6,8.6-2.3,6.7-3.8,7.6-12.3,7h0ZM186.3,538.4c5.5.2,12.8-5.6,13.8-10.9.5-2.4-.8-3.6-2.7-4.7-5.8-3.5-10.5-.8-15.1,2.3-2.7,1.9-5.4,4.6-4,8.4,1.3,3.7,4.5,4.8,8.1,4.8h0Z"/>
      <path class="st2" d="M402.9,549.2c-10-.2-10.6-1.4-6.3-9.7,1.9-3.8,3.8-7.6,5.3-11.6,1.7-4.8-1.1-7.9-6.1-6.8-3.9.8-6.9,2.9-8.6,6.8-2.5,5.6-4.9,11.2-6.7,17-.8,2.9-2.6,4.3-5.7,4.2-3.2,0-6.4,0-9.6-.3-2.3-.3-4.3-1.5-2.5-4.3,5-8.1,7.1-17.4,10.5-26.2,2.7-7,5.3-9.1,12.7-7.3,5.2,1.3,10.1,1.5,15.2-.5,3.3-1.3,6.9-1.3,10.4-1,7.6.6,11.5,7.7,8.5,14.6-2.9,6.9-5.7,13.7-7.9,20.9-1.6,5.1-6.2,3.9-9.3,4.2h0Z"/>
      <path class="st2" d="M492.4,604.7c-2.3,0-4.9-.2-7.4-1.6-1.4-.8-2.7-1-4.3,0-6.1,3.3-12.6,2.8-19,1.2-5.2-1.4-8.3-5.8-8.1-11.2.3-6.4,2.4-11.8,7.2-16.6,6.3-6.1,13.8-8.9,21.9-11.1,1.6-.5,3.5-.6,4.9.3,6.5,3.8,13.4,1.6,20,1.1,2.1-.2,4.3-1.1,5.9,1,1.7,2.3,0,4-1.2,5.8-1.7,2.4-2.8,5-3.4,7.9-1.4,6.8-4.8,12.7-7,19.2-1.2,3.7-3.2,4.3-9.6,4.2l.2-.2ZM483.8,577.4c-4.9.5-9.1,3-11.7,7.7-2.7,4.6,0,9.1,5.4,9,4.7,0,9-1.3,11.9-5.5,1.6-2.3,3.7-4.5,2.2-7.3s-4.3-3.6-7.8-3.8h0Z"/>
      <path class="st2" d="M408.4,566.8c1.1,0,3.5-.5,5.9-.5,3.7-.2,6.1,1.3,6.5,5.4.3,3,.7,6,1.3,9,.2,1.3.4,2.9,1.8,3.5,1.6.5,2.9-.5,4-1.6,3.9-4,8.1-7.9,11.8-12.1,2-2.3,4.1-3.4,7-3.5,2.9,0,5.8-.5,8.6-.7,1.5,0,3.2-.5,3.9,1.3.5,1.5-.5,2.6-1.5,3.6-6.8,6.7-13.4,13.7-20.5,20-10.9,9.7-20.7,20.7-31.8,30.1-5.5,4.6-11.3,2.7-16.9,1.9-3.4-.5-1.1-3.1.6-4.5,6.5-5.1,12.3-10.8,18.2-16.6,2.6-2.5,2.7-5,1.6-8.2-2.8-7.7-5.4-15.5-8-23.2-1.2-3.6,0-4.3,7.4-3.8h0Z"/>
      <path class="st2" d="M357.1,605.6c-4.2-.5-10.8.2-15.9-4.9-3.3-3.3-4.8-6.8-3.6-11.4,3.4-12.3,12.1-19.9,25-21.1,1,0,1.6-.6,2.5-1,8.1-3.9,16.4-2.3,23.1,1.9,9.1,5.6,8.8,12.3,2.7,21-7.5,10.8-18.5,15.9-33.8,15.6h0ZM369.3,577.5c-5.6,0-9.6,2.5-12.9,6.4-1.5,1.7-2.6,3.5-1.4,5.8,1.4,2.4,2.9,4.8,6.1,4.6,4.9-.5,9.6-1.6,12.9-5.8,1.6-2.1,3.2-4.2,1.9-7-1.4-2.9-3.9-4.1-6.7-3.9h0Z"/>
      <path class="st2" d="M475.7,523.8c-.3,6.9-2,8.1-9,7.9-8.3-.2-16.6.2-25,.3-1.3,0-2.4.5-2.7,1.9-.4,1.6.2,3.1,1.6,4,3.2,1.9,6.5,3.4,10.2,1.4,4.5-2.4,9.4-2.2,14.3-2.6,1.6,0,3.2.3,3.5,2.2.3,1.7-.7,2.8-2,3.8-8,6.1-17.6,7.1-26.9,7.5-5.2.2-10.4-2.5-14.4-6.3-2.7-2.6-3.9-6.1-2.7-10.1,2.8-9.4,9.1-15.7,17.5-20.6,7.2-4.2,15.2-3.7,22.9-4.2,6.9-.5,13.3,7.4,12.9,14.8h0ZM451.8,525.1c1.8,0,3.8,0,5.8-.4,1.6-.3,3.5-.8,3.6-2.9,0-1.9-1.6-2.7-3.2-3.4-2.2-1-4.5-.8-6.6,0-2.5,1-7,.5-6.5,4.2.4,3.7,4.6,1.4,7,2.3h0Z"/>
      <path class="st2" d="M513.4,531.6c-4.8-.8-11,1.5-17.2,0-1.8-.4-3.3.4-3.9,2.3-.6,2.2.3,4,2.3,4.9,3.8,1.7,7.8,1.6,11.5,0,4.2-1.8,8.6-1.6,13-2.2,1.6-.2,3.1.2,3.7,1.9.5,1.6-.5,2.7-1.7,3.4-10.5,7.3-22,10.2-34.5,6.6-9.4-2.7-12.1-12.1-7.8-20.7,4.7-9.6,12.8-14.5,22-16.9,6.8-1.8,14.2-3.3,21.3.3,5.4,2.7,9,9.2,7.9,15.1-.6,3.5-2.9,5.2-6.5,5.1h-10v.2ZM507.6,524.2v.2c.9,0,1.8.2,2.7,0,1.8,0,4.1-.2,4.4-2.4.4-2.2-1.8-2.8-3.5-3.6-4.2-1.7-7.6,1.1-11.3,1.9-1,.3-1.6,1.5-1.2,2.7.4,1.1,1.5,1.6,2.6,1.6,2.1,0,4.2-.4,6.3-.5h0Z"/>
      <path class="st2" d="M330.9,549.7c-3.6-.5-7.3.2-10.8-1.1-10.2-3.8-12.3-13.9-5.3-24,8.9-12.6,21.8-15.6,35.8-14.6,5.7.4,11.5,3,13.4,10.1s-2.2,11.6-9.3,11.3c-8.1-.3-16.1.2-24.2.5-1.8,0-3.7.9-3.9,3.2-.2,2.1,1.2,3.5,2.8,4.3,3,1.4,6.4,1.8,9.2.3,4.6-2.5,9.3-2.4,14.2-2.8,1.6-.2,3.6-.4,4.2,1.7.5,1.8-.8,2.9-2.1,3.7-7.4,4.4-14.8,8.6-24,7.4h0ZM340.8,524.7c1.9.2,2.7.3,3.5.3,1.9,0,4.2.2,4.7-2.5.4-2.6-1.7-3.3-3.6-3.9-3.8-1.5-7.4-.2-10.9,1.6-1.4.6-2.1,1.7-1.6,3.3.4,1.5,1.6,1.6,2.9,1.6,2.1,0,4.2-.3,5.1-.4h0Z"/>
      <path class="st2" d="M521.3,604.5c-1.8.2-3.7.2-5.5.5-3.9.5-6-1.6-4.4-5,8.3-17.7,14.5-36.1,22-54.1,0-.2,0-.3.2-.5,1.2-2.4,14.5-3.9,16.1-1.7,1,1.4.7,2.9,0,4.3-4,7.9-6.8,16.3-9.9,24.5-3.8,9.7-7.4,19.5-10.7,29.4-1.4,4-4.8,2.8-7.8,2.7Z"/>
      <path class="st2" d="M228,548.8c-.9,0-1.8,0-2.7,0-5.3,0-6.3-1.6-3.8-6.2,2.6-4.8,3.6-10.3,6.5-15,1.1-1.7.6-3.7-.6-5.5-2.8-3.9-2.1-7.8,2-10.2,3.6-2.2,7.1-4.1,7.1-9.1s.5-1.8,1.6-2.1c4.9-1.6,10.2-2.3,15.3-1.7,2.9.4,1.9,3.7.4,5.5-2.6,3.2-3.2,5.1,1.9,5.9,2.7.4,3.8,2.7,2.7,5.2-1.6,3.9-3.7,7.4-8.9,7-2.7-.2-4,1.2-4.8,3.8-1.7,5.5-3.8,10.9-5.9,16.3-2.2,6-2.5,6.1-10.6,6.1h0Z"/>
      <path class="st2" d="M454.6,504.7c-1.8,0-3.3-.7-3.9-2.5-.5-1.7.4-2.9,1.8-3.8,3.6-1.8,6.5-4.5,9.5-7,1.8-1.6,3.9-2.3,6.3-1.9,2.2.4,4.1,1.4,4.5,3.8.4,2.3-1.6,3-3.2,3.8-3.8,1.9-7.8,3.3-11.1,6.1-1,.9-2.4,1.3-3.8,1.3h0Z"/>
      <path class="st2" d="M341.8,504.2c-1,0-2.7-.4-3.2-2.4s.7-3,2.4-3.8c3.1-1.4,5.8-3.2,8.1-5.7.9-.9,2.2-1.7,3.4-2.1,2.7-.7,5.7-1.4,7.1,1.9,1.6,3.5-1.7,4.2-3.8,5.4-2.5,1.5-4.9,2.9-7.4,4.4-1.8,1.1-3.7,2.2-6.6,2.2h0Z"/>
      <path class="st0" d="M472.4,330.5c-8.4,3.5-16.6,7.3-25.2,10.3-9.9,3.5-19.9,6.6-30,9.2-11.4,3-23,4.1-34.6,5.4-11.5,1.2-23.1.6-34.3-2.4-1.5-.4-2.5-1.3-2.8-2.7-5.3-19.5-9.5-39.2-11.3-59.4-.5-6.5-.4-6.5,6.4-6.5,15.2,0,30.5.4,45.4-3.7,19.7-5.4,38.2-13.2,54.9-25.1,8.1-5.8,8.7-5.9,14.4,2.3,5.4,7.7,10.1,15.9,15.2,23.7,6.1,9.3,11.2,19.1,16,29,3.9,8.1,3.4,8.4-3.6,13.9-4,.9-6.8,4-10.3,5.9h-.2Z"/>
      <path class="st0" d="M509,306c-2.9,2.2-4.8,1.5-6.1-1.9-7-17.1-16.7-32.7-26.5-48.3-2.7-4.4-6-8.3-9.3-12.4-3.8-4.8-3.5-5.5.4-10,7.2-8.5,15.8-15.8,21-26.1,6.6-13,14.1-25.5,13.8-40.7,0-.3,0-.6,0-.9.7-2.2-2.2-5.2.6-6.7,2.1-1.1,4.2,1.5,6,2.5,15.4,8.8,30.1,18.8,39.7,34.1,5.3,8.4,6.3,18.6,6.1,28.6-.3,12.3-3.3,24.1-8.7,35.1-.5.9-.6,2-.9,3-2.8,4.8-6.1,9.4-8.1,14.7-1.8.6-2.7,2.3-3.8,3.7-3.4,4.3-6.9,8.5-10.3,12.8-4,4.8-10.1,7.5-14,12.4h0Z"/>
      <path class="st0" d="M483.4,331.1c2.8,0,4-2.5,5.9-3.8,2.1-1.5,4.2-1.8,4.8,1.3,1,4.8,4.2,8.8,5.6,13.4,3.5,12.1,7,24.2,10.3,36.2.8,2.8-1.1,4.6-3.1,6.1-5.2,4-11.2,7.1-17.4,9.1-9.2,2.8-18.3,6.3-28,8.1-19,3.4-38.1,4-57.2.8-14.7-2.4-28.5-7.2-41.6-14.3-3-1.6-9.6-14.2-9.3-17.6.2-2.7,2.2-2.2,3.8-2,14.1,1.9,27.9-.6,41.7-2.7,27.3-4,51.6-15.6,75.5-28.5,3.2-1.7,5.9-4.1,8.9-6.2h0Z"/>
      <path class="st0" d="M363.3,270.1c-6.3.2-14.4-.2-22.3-1.8-6.4-1.4-6.7-1.9-6.2-8.2.8-11,3.6-21.6,5.9-32.3,1.9-8.2,5.3-16.2,8.1-24.2,1.1-3.3,3.6-4.3,7-4.6,11.6-.8,23-2.6,32.7-9.9,2-1.6,3.9-1.2,5.8.5,12.9,12.2,25.7,24.5,36.7,38.6,3.3,4.1,6.8,8.1,10.5,11.8,3.9,3.8,3.8,6.9-1.3,9.4-13.7,7-27.4,13.8-42.7,17.1-10.8,2.4-21.5,3.8-34.2,3.5h0Z"/>
      <path class="st0" d="M447.1,147.7c10.7-.7,21.2,1.2,31.7,2.9,4.5.7,6.2,5,6.9,8.9,2.8,16.9,2.5,33.7-5.9,49.3-4.6,8.5-10.6,16-17.4,22.8-1.9,1.9-3.4.6-4.5-1-13.7-19.9-32-35.7-47.9-53.5-2.4-2.7-2.7-4,.2-7,4.6-4.6,9.1-9.4,10.6-16.2.8-3.7,3.9-4.8,7.3-5.1,6.3-.8,12.7-1.3,19.1-1.1h0Z"/>
      <path class="st0" d="M547.2,270.4c4.6-6,8.9-12.3,11.9-19.3,2.2-5.1,5.1-10.1,6-15.7.3-1.5,1.1-3.2,2.7-3.3,2.1,0,2.7,1.8,2.9,3.5,1.8,13.4,4.1,26.5,2.2,40.3-1.8,13.2-4.2,26.1-8.5,38.6-2.6,7.3-6.3,14.2-9.5,21.2-4.8,10.5-12.9,18.7-19.6,27.8-1.8,2.6-5.1,4.1-8,5.9-2.5,1.5-4.5,0-4.9-3-1.6-10.9-4.3-21.5-7.7-31.9-1.9-5.8-3.3-11.7-5.9-17.3-1.2-2.5-.4-5.2,2.1-6.9,1.1-.7,1.9-1.4,2.4-2.6,3.3-3.4,7.2-6.1,10.1-10.1,5.7-5,11.3-10,15.6-16.3,3.4-3.1,5.7-7.1,8.1-11h0Z"/>
      <path class="st0" d="M287.6,209.1c1-3.9.6-10.2,2.9-16.5,1.9-5.2,2.9-10.7,6.4-15.3,2.6-3.4,5.6-5.6,10.2-5.8,4.9-.2,10-.4,14.6-2.8,3.1-1.6,6.1.6,5.5,4.1-1.7,9.9,3,16.3,10.6,21.3,2.8,1.8,2.8,3.1,1.3,6.1-6.2,12-11.6,24.3-14.8,37.5-1.5,6-2.9,12.1-4.7,18-1.1,3.6-4.3,4.6-7,2.2-5.9-5.4-12.4-10.4-16.8-17.1-5.9-8.9-9.1-18.8-8.3-32v.2Z"/>
      <path class="st0" d="M279.6,273c.6-5.1-1.2-10.2-1.7-15.3-.2-1.4-.8-3.3,1-4,1.8-.7,2.7.9,3.6,2.1,8,10.3,18.1,17.8,30.4,22.3,3.6,1.3,5.2,3.5,5.2,7.5,0,11.5,1.8,23,4,34.3,1.6,8.1,2.4,16.6,5,24.5.4,1,.5,2.1-.4,2.9-1,.9-2,.3-2.9-.2-5.5-2.9-11.3-5.2-16.6-8.7-4.8-3.1-7.3-8-10-12.7-7.8-13.9-13.1-28.6-17.1-44-.7-2.8-.4-5.8-.6-8.7h0Z"/>
      <path class="st0" d="M414.9,116.2c17,0,32.7,4.7,47.6,12.9.8.5,1.6.9,1.6,2,0,1.1-1,1.5-1.9,1.6-2.1.3-4.2.6-6.3.6-9.1,0-17.8,1.2-26.7,2.8-5.3,1-10.5.9-13.9-4.8-2.3-3.8-6.6-4.7-10.2-6.6-1.1-.5-2.4-1-2.6-2.4,0-1.6,1.5-1.8,2.5-2.3,3.3-1.4,6.2-3.8,10.1-3.8h0Z"/>
      <path class="st0" d="M311.9,158.9c-1.1,0-1.5-1.2-1-2.9.4-1.6,1.4-2.8,2.7-3.7,9.7-5.9,18.2-13.6,28.7-18.2,2.5-1,4.6-1.6,6.9,0,1.6,1.1,2.6,2.8,1,4.2-3.8,3.2-5.9,7.7-9.3,11.1-5.7,5.5-13.4,5.1-20.1,7.6-2.4.9-5,1-8.7,1.7h0Z"/>
      <path class="st0" d="M370.4,184.1c-2.5-.2-4.8-.3-7.3-.5-1.2,0-2.7.5-3.3-.9-.7-1.4,0-2.7.9-3.8,2.1-2.1,3.4-4.6,4.5-7.3,1.2-3,3.5-3.8,6.3-2,3.9,2.5,6.8,6.5,11.3,8.4.9.4,1.6,1.6,1.2,2.7-.6,1.6-2.2,2.7-3.9,2.7-3.2.2-6.4,0-9.6,0v.5Z"/>
      <path class="st0" d="M359.1,163.2c3-.2,3.1,1.2,2,3-2.2,3.6-4.4,7.2-7,10.6-2.7,3.5-5.6,3.3-8.2,0-6.5-8.2-5.7-10.5,4.5-12.3,2.9-.5,5.9-.9,8.7-1.3h0Z"/>
      <path class="st0" d="M514.3,143.3c-7.3-3.3-16.2-2.4-21.4-10.3-1.3-1.9-3.5-3.3-5.2-5-.6-.6-1.3-1.5-.6-2.5.6-.9,1.6-.8,2.5-.5.7.2,1.6.4,2.1.8,7.1,4.8,14.9,8.7,21.5,14.5.6.5,1.6,1.1,1.1,3.1h0Z"/>
      <path class="st0" d="M407.1,157.4c0,4-2.2,7.2-3.8,10.6-.7,1.6-2.2,1.4-3.5.6-4.2-2.4-6.6-6.6-10.1-9.7-1.3-1.1-.4-2.4,1-2.7,4.2-1.2,8.6-1.2,12.7-2.8,2.6-1,3.6,1.6,3.5,4h0Z"/>
      <path class="st0" d="M397.7,142.4c-.2,1.4-1,1.9-1.8,2.1-3.9.6-7.4,2.5-11.2,3.7-.8.3-1.9.6-2.6,0-.8-.9.2-1.6.6-2.3.8-1.3,1.6-2.6,2.4-3.8,2.6-4.4,8.3-4.8,11.7-.8.4.5.5,1,.7,1.3h0Z"/>
      <path class="st0" d="M372,126.4c-2.2-.4-3.8.2-4-1.5-.2-1.6,1.4-1.8,2.5-2.1,7.4-1.6,14.9-2.5,22.1-4.9.9-.4,2.2-.5,2.6.9.3,1.1-.5,1.6-1.4,2.1-.5.3-1.1.5-1.6.8-6.9,2.5-14.6.5-20.1,4.8h0Z"/>
      <path class="st2" d="M483.4,331.1h0c-2.8-.8-4.8,1-7,2.3-1,.6-1.9,1.5-2.9,2.1-1.4.7-3.4,1.4-4.2.2-1.3-1.7,1.2-2.3,2-3.3.5-.5.7-1.3,1.2-1.9,3.6-1.8,6.3-4.9,10.3-5.9,2.7.5,5,1,1.8,4.1-.5.5-.7,1.6-1.1,2.4h0Z"/>
      <path class="st2" d="M547.2,270.4c-2.4,3.8-4.7,7.9-8.1,11-.4-1.6-.5-3.3-2.1-4.2,2-5.3,5.3-9.9,8.1-14.7.8,2.7-.5,5.9,2,8.1h0Z"/>
      <path class="st0" d="M375.4,136.4c1.6,0,3.2.3,2.9,2.4-.4,2.5-1.6,4.7-4.6,4.8-2,0-3.8-1-3.6-3.1.5-2.6,2.4-4,5.1-4h0Z"/>
      <path class="st2" d="M523.5,297.6c-2.7,3.9-6.8,6.7-10.1,10.1-1.8.3-3.3-.4-4.5-1.6,3.9-4.9,10-7.6,14-12.4.2,1.4.4,2.7.5,4h0Z"/>
      <path class="st0" d="M350.1,151.9c-1.7,0-3.7,0-3.3-1.5.6-2.7,2.7-4.7,5.7-5.2,1.8-.4,3.1.7,2.9,2.6-.4,3.4-3.2,3.6-5.2,4h0Z"/>
      <path class="st0" d="M334.8,367.2c0,1.3-.5,2.1-1.6,1.7-1.7-.5-2.8-1.6-2.9-3.6,0-1.1.6-1.7,1.6-1.6,1.8.4,2.7,1.6,2.8,3.3h0Z"/>
      <path class="st0" d="M312.2,809.8c-2.1,0-4.3.3-6.4,0-2.7-.5-4.1-2.4-1.6-4.4,5.4-4.2,8-10.6,12.5-15.4,1-1,1.8-2.9,3.6-2.3,1.6.6.7,2.5.7,3.8,0,3.7-.2,7.3.5,10.9,1.3,6.4,0,8-6.7,7.8h-2.7v-.4Z"/>
      <path class="st0" d="M88.2,797v8.2c0,3.2-1.6,4.7-4.8,4.7s-6.9-1-10.4-.3c-1.3.3-2.4-.5-2.9-1.7-.5-1,0-1.8.7-2.4,5.8-4.7,8.3-11.9,13.6-16.9.8-.8,1.5-2.5,2.7-1.9,1.6.6.8,2.4.8,3.7v6.9h.2v-.2Z"/>
      <path class="st0" d="M186.3,538.4c-3.6,0-6.8-1.2-8.1-4.8-1.4-3.8,1.2-6.5,4-8.4,4.6-3.1,9.3-5.9,15.1-2.3,1.8,1.1,3.2,2.3,2.7,4.7-1,5.3-8.3,11.1-13.8,10.9h0Z"/>
      <path class="st0" d="M483.8,577.4c3.5.2,6.4,1,7.8,3.8,1.5,2.9-.6,5.1-2.2,7.3-2.9,4.2-7.2,5.3-11.9,5.5-5.4,0-8.1-4.3-5.4-9,2.7-4.6,6.8-7.1,11.7-7.7h0Z"/>
      <path class="st0" d="M369.3,577.5c2.7-.2,5.3.9,6.7,3.9,1.3,2.7-.3,4.9-1.9,7-3.3,4.1-8,5.4-12.9,5.8-3.3.3-4.8-2.2-6.1-4.6-1.3-2.2-.2-4,1.4-5.8,3.3-3.8,7.3-6.3,12.9-6.4h0Z"/>
      <path class="st0" d="M451.8,525.1c-2.5-.9-6.7,1.4-7-2.3-.4-3.7,4-3.2,6.5-4.2,2.1-.9,4.4-1.1,6.6,0,1.6.7,3.3,1.5,3.2,3.4,0,2-1.9,2.7-3.6,2.9-1.9.3-3.9.3-5.8.4h0Z"/>
      <path class="st0" d="M507.6,524.2c-2.1.2-4.2.4-6.3.5-1.1,0-2.2-.4-2.6-1.6-.4-1.2.2-2.4,1.2-2.7,3.8-.9,7.2-3.7,11.3-1.9,1.7.7,3.8,1.4,3.5,3.6s-2.6,2.3-4.4,2.4c-.9,0-1.8,0-2.7,0v-.2h0Z"/>
      <path class="st0" d="M340.8,524.7c-.9,0-3,.3-5.1.4-1.2,0-2.6,0-2.9-1.6-.5-1.6.4-2.7,1.6-3.3,3.5-1.7,7-3,10.9-1.6,1.8.6,4,1.4,3.6,3.9-.5,2.7-2.7,2.4-4.7,2.5-.7,0-1.5,0-3.5-.3h0Z"/>
      <path class="st1" d="M523.5,297.6c-.2-1.4-.4-2.7-.5-4,3.5-4.3,6.9-8.5,10.3-12.8,1.1-1.4,1.9-3,3.8-3.7,1.6.9,1.7,2.7,2.1,4.2-4.3,6.3-10.1,11.3-15.6,16.3h0Z"/>
    </g>
  </g>
</svg>