<?xml version="1.0" encoding="UTF-8"?>
<svg id="Calque_1" xmlns="http://www.w3.org/2000/svg" version="1.1" viewBox="0 0 1136.7 1045.8">
  <!-- Generator: Adobe Illustrator 29.4.0, SVG Export Plug-In . SVG Version: 2.1.0 Build 152)  -->
  <defs>
    <style>
      .st0 {
        fill: #fcfcfc;
      }

      .st1 {
        fill: #a7a7a7;
      }

      .st2 {
        fill: #999;
      }

      .st3 {
        fill: #ababab;
      }

      .st4 {
        fill: #fefefe;
      }

      .st5 {
        fill: #fdfdfd;
      }

      .st6 {
        fill: #989898;
      }
    </style>
  </defs>
  <g id="Calque_11" data-name="Calque_1">
    <g id="Calque_1-2">
      <g>
        <path class="st6" d="M535.7,477.2c4.1-6.1,10.8-8,16.3-11.4,8.4-5.3,17.3-9.8,25.9-14.8,4.2-2.4,8.1-1.4,12.2.5,17.7,8.4,36.7,11.4,55.8,14.2,43.9,6.4,88,3.9,132.1,4.9,15.8.4,31.6,1.8,47.2,4.4,4.6.8,6.7,3.4,7.7,7.5,6.7,26.2,12.6,52.7,17.5,79.3,1.9,10-2.5,18.9-6.2,27.6-11.8,27.6-24,55.1-35.9,82.6-11.8,27.3-25.4,53.7-39,80.1-21,40.7-42.7,81-67.6,119.6-21.5,33.4-44.1,66-67.1,98.4-7.9,11.1-18.6,18-30.9,23.1-14.4,6-28.6,12.4-42.9,18.6-3.8,1.7-7.7,2.5-11.9,2.5H16c-2,0-5.2.9-5.6-1.8-.3-2.7,2.8-3.3,5.1-3.8,1.9-.4,3.9-.6,5.8-.6,149.5,0,299-.2,448.6.2,15.8,0,31.8,1.1,47.6.5,12.9-.4,25.9-.5,38.8-.9,8.3-.3,13.3-5.8,17.6-12,25.7-36.9,51.8-73.5,76.3-111.2,15.9-24.5,30.3-50,45.3-75,24.2-40.4,45.1-82.6,65.7-124.9,11-22.6,20.9-45.8,30.9-68.9,5.9-13.7,4.2-27.8,1.6-42.1-3.3-17.8-5.6-35.8-8.3-53.7-.5-3.1-.7-6.2-1.3-9.3-1.2-6.1-4.5-8.7-10.9-9.5-28.6-3.9-57.4-3.5-86.2-3.7-17.2-.1-34.5-.5-51.7-1.2-31.1-1.1-61.9-3.9-91.1-16.1-2.7-1.1-5.4-2-8.4-3.2h0Z"/>
        <path class="st6" d="M1107.8,219.3c-8.9,14.6-17.5,29.4-26.7,43.8-13.5,21.2-24.9,43.7-39.2,64.4-6.2,9-13.4,17.2-20.8,25.3-19.4,21.4-39.4,42.2-55.8,66.1-7.6,11.1-10.6,23.7-14.3,36.2-7.3,24.9-14.5,49.7-21.5,74.7-4.4,15.8-8.2,31.7-8.2,48.3s1.8,10.6,4.6,15.5c12.8,22.3,28.6,42.7,40.8,65.5,8.2,15.5,11.1,32.4,12,49.6.3,6.9-5.3,11.4-9.8,15.3-14,12.3-29,23.5-45.6,32.4-19.5,10.4-39.6,19.2-61.1,24.6-5.4,1.3-9,3.1-9.6,9.7-1.3,14.3-3.5,28.6-5.4,42.9-1.5,11.2-3.1,22.4-4.6,33.6-.5,3.9-2.6,6.5-5.7,8.3-12.1,7.1-24.3,14-36.6,20.9-1.6.9-3.4,2.3-5.4.6-1.6-1.5-.5-3.2-.4-4.9.6-8.8,1.2-17.6,1.5-26.4.5-19,1.7-38,9.7-55.6,8.9-19.6,24.2-33.7,41.3-46,8.9-6.3,17.9-12.4,26.8-18.8,14.3-10.3,30.5-16.3,47.2-21.4,8.9-2.7,8.7-3.4,7.3-12.6-2.8-18.5-12.6-33.9-21.2-49.8-9.1-16.9-16.7-34.4-24.8-51.8-3.1-6.6.2-13.1,1.2-19.5,4.2-26,8.3-52,14.1-77.6,3.5-15.6,6.8-31.2,11.4-46.5,3.6-11.9,10.6-21.6,18.5-30.8,24.7-28.9,52.1-55.5,72.5-87.9,16.9-26.9,33.8-53.8,49.5-81.3,8.9-15.7,19.8-28.1,36.5-35.4,7.4-3.2,13.3-9.2,21.9-11.3h-.1Z"/>
        <path class="st6" d="M569.4,189.5c0,0-.2-.1-.3-.2-.5-.2-.7-.7-.7-1.2-.3-.4-.5-.7-.8-1.1-.6-.4-1.2-.8-1.8-1.3v1.4c0,0,.3.2.4.3.3,0,.5,0,.7.1.6.4,1.1.9,1.5,1.4.3.2.5.4.8.6,0,.1.3.2.4.3,0-.1-.2-.2-.3-.4h0Z"/>
        <path class="st6" d="M548.4,165c-.5-.6-1-1.1-1.5-1.6-.3-.3-.7-.6-1-.9h0c.8.8,1.6,1.7,2.4,2.5h0Z"/>
        <path class="st6" d="M575.5,196.1c-.2-.4-.4-.8-.6-1.2h-1.5c.4.4.9.8,1.4,1.2.4.2.8.5,1.1.8,0-.3-.3-.5-.4-.8Z"/>
        <path class="st6" d="M567.5,215.5h-2.4v.6l2.4-.6Z"/>
        <path class="st6" d="M583.6,204.2c.3.7.6,1.4,1,2,0,.1,0,.2.2.3,0-.1,0-.2,0-.3-.2-.8-.8-1.5-1.3-2.1h0Z"/>
        <path class="st6" d="M583.4,208.2v2.6c.2-.6.5-1.1.8-1.7-.3-.3-.5-.6-.8-.9h0Z"/>
        <path class="st6" d="M529.1,237.4c-.2.2-.4.4-.6.6,1.7-.3,3.4-.7,5.1-1.1h-2.8c-.5,0-1,.2-1.6.2,0,0,0,.2,0,.2h0Z"/>
        <path class="st6" d="M572.1,223.1c-1,.3-2,.5-3,.4-.2,0-.4-.1-.6-.2-.2.1-.5.3-.7.4.6.1.8.6.8,1.1,1.2-.4,2.4-.8,3.6-1.2,0-.2,0-.3,0-.5Z"/>
        <path class="st6" d="M498.2,243.8c.4.2.5.7.4,1.1h.6c.8-.6,1.7-1,2.6-1.3-1.2,0-2.4.2-3.6.3h0Z"/>
        <path class="st6" d="M460.2,242.3h-.7c.9.4,1.9.7,2.9.9.2,0,.3-.1.5-.2-.8-.3-1.7-.6-2.6-.8h0Z"/>
        <path class="st6" d="M466.2,242.5c.5.4.6,1,.3,1.5.8,0,1.6.2,2.5.2,0-.5.2-1.1.8-1.1h.3c2.9-.3,5.8-.2,8.7,0,3.6-.1,7.3-.4,10.9-.7h-23.7s.2.1.3.2h0Z"/>
        <path class="st6" d="M453.2,224.7v1.3c.1,0,.2.1.3.2.2.2.3.4.4.6v-8.1c-.3,1.7-.7,3.4-1.2,5,.3.2.6.5.6,1h0Z"/>
        <path class="st6" d="M453.9,207.9v.3c-.2,1.3-.3,2.5-.5,3.8.2,0,.4,0,.6.1v-4.2h-.1Z"/>
        <path class="st6" d="M452.8,238.3c.1,0,.2,0,.4.1.2,0,.5.2.7.2v-4.1h0c-.2.4-.7.5-1.2.4v.2c0,1-.1,2,0,3h.1v.2Z"/>
        <path class="st6" d="M458.4,190.6c.1-.4.2-.9.3-1.3.2-.7.3-1.5.4-2.2v.2c-.2.8-.5,1.6-.8,2.4-.1.3-.2.6-.3.9h.4Z"/>
        <path class="st6" d="M474,156.4c0-.2.2-.3.4-.4s.5-.2.7-.3c-.9.1-1.9.3-2.8.5-.3,0-.5.1-.8.2h0c.5.1,1,0,1.4,0h.3c.3,0,.5,0,.7.2h0Z"/>
        <path class="st6" d="M468.1,161.2h.1c-.4-.4-.5-1.2,0-1.6-.2-.2-.4-.4-.4-.7h-.3c-.6,1-.8,2.2-1,3.4,0,.3,0,.6-.1.8.1-.4.2-.8.3-1.2.2-.7.8-.8,1.4-.6h0Z"/>
        <path class="st6" d="M508.3,149.8h0c-1.4.5-2.9.8-4.2,1.4-.4.2-.9.4-1.3.5h.9c1.5-.7,3.2-1.2,4.7-1.9h-.1Z"/>
        <path class="st6" d="M503.8,57c.4-.3.9-.5,1.3-.7h-.9c-1.1.3-2.2.6-3.4.9,1,0,2-.2,2.9-.3h.1Z"/>
        <path class="st6" d="M529,50.3v-.2h0c0,0-.3,0-.5,0-.5,0-1.1,0-1.6,0h-2.8c-.2.4-.5.6-1,.6-2.2,0-4.4.3-6.6.9,0,0-.2.2-.2.3.2,0,.3.3.3.4,3-.4,6.1-1,9.1-1.3,1,0,1.6,1,1.1,1.7.6.5.3,1.8-.6,1.9h0c-2.4,1.1-5,1.5-7.6,1.7h-.3c.4,0,.7.4.7.7,1.2,0,2.4-.2,3.6-.2s1.3,1.1.8,1.7c1-.4,2-1,2.9-1.7,1.4-1.1,2.4-2.6,2.8-4.4,0-.6.2-1.2.2-1.7v-.4l-.2.2Z"/>
        <path class="st6" d="M493.8,63.1c.6.2,1.7,0,2.4-.2,1.1-.2,2.3-.6,3.4-.9-.4-.3-.6-1-.4-1.4-2.5.2-5,.3-7.5,0-.9,0-1.4-1.2-.7-1.9,1.2-1.1,2.6-1.9,4.1-2.4-.1-.4-.1-.8.3-1-.3,0-.5-.3-.6-.5-1.3.4-2.4,1-3.3,1.9-.6.7-1,1.6-1.4,2.4-.3.5-.5,1-.8,1.5,1.3.8,2.5,1.5,3.8,2.3.1,0,.5.3.5.3h.2Z"/>
        <path class="st6" d="M437.9,87.1c.1,0,.3,0,.4,0,0,0,.2,0,.3.2.2,0,.4-.2.6-.4.4-.2.8-.2,1,0,.2,0,.4-.3.6-.4h-1.2c-.2,0-.3,0-.5,0l-.5.2c-.6.2-1.2,0-1.5-.6-.1,0-.2,0-.4.2.5,0,.9.3,1.1.7h.1Z"/>
        <path class="st6" d="M515.6,79.6c.4-.9,1.7-.9,2,0h1.7v-1.9h-.6c-1.3.3-2.5.9-3.4,1.8h.3Z"/>
        <path class="st6" d="M521.3,87.5c-.7.4-1.3.8-2.1,1.2h0c.8-.2,1.6-.4,2.3-.7,0,0,.2-.2.3-.3-.2,0-.4,0-.5-.3h0Z"/>
        <path class="st6" d="M513.8,88.1c-.4-.7-.4-1.5-.4-2.3-.4.6-.7,1.2-1.1,1.7-.2.2-.4.3-.6.4,0,.5.2,1,.8,1.2.8.4,2.1.4,3.1.3-.7-.2-1.3-.6-1.7-1.4h0Z"/>
        <path class="st6" d="M531.5,113.1h-.4c.2,0,.3.3.5.4,1,.8,2.5,1.6,3.8,1.4-1.4-.3-2.7-1-3.9-1.8h0Z"/>
        <path class="st6" d="M521.1,104.2c0,1,.8,1.5,1.6,1.9v-4.7c-.9.7-1.6,1.6-1.6,2.8Z"/>
        <path class="st6" d="M487.8,133.2c.2-.8.5-1.6.8-2.5-.3,0-.6-.2-.7-.5v-.2c-.4.8-.8,1.6-1.1,2.4.2.4.7.6,1.2.7h-.2Z"/>
        <path class="st6" d="M485,133.8c-.4,0-.7-.3-.8-.7-.6,0-1.3-.5-1-1.4.1-.4.2-.9.4-1.4-.2.3-.3.6-.5.9-.6,1.1-.6,1.7.5,2.4.6.4,1.2.6,1.9.8-.2-.2-.4-.4-.5-.6Z"/>
        <path class="st6" d="M406.4,125.7s0,0-.1.2c.7-.3,1.5-.7,2.3-.8.3-.6.6-1.2.9-1.8-1,.6-2,1.2-3,1.5.1.3.1.6,0,1h0Z"/>
        <path class="st6" d="M637.3,239.1c-6-9.6-12.2-19.2-18.8-28.4-4-5.6-3.8-7.8.8-12.8,1.3-1.5,2.7-2.8,2.8-5,0-.6-.4-1-.9-1.3-4.7-1.1-6.2,3.6-9.4,5.3-2.8,1.3-4.1-.9-5.7-2.3-16.6-19.4-32.3-39.5-50.9-57.2-3.4-3.2-6.7-6.7-10-10-3-3-3.7-6.5-.6-9.3,9.1-8.2,11.2-21.1,19.9-29.5-2.3-3.9-3.1-8.4-4.8-12.5-6.4-5.8-11.5-13.1-20.1-16.6-3.9-1.6-1.9-4.8.7-6.9,3.1-2.4,7.2-3,9.8-6.2.8-7.6,1.2-15.1-.4-22.6-14.1.9-27.3,5.6-40.5,10.2-6.8,2.4-14.1,3.4-20.4,7-30.4,17.2-58.5,37.1-80.2,65.1-15.6,20.1-29.9,40.9-36.8,65.8-6.4,22.7-12.5,45.6-10.9,69.6,1.2,18.5,4.5,36.7,9.7,54.5,1.8,1.3,3.5.5,4.9-.6,4.2-3.5,8.7-6.7,11-12-.2-3.8-1.5-7.3-2.6-10.9-4.7-15.5-5.6-31.6-6.9-47.7-.2-2.1-1-5.4,2-6.1,2.7-.6,3.8,2.4,4.9,4.4,7,11.9,17.1,20.3,29.4,26.3,2.8,1.4,5.5,3,8.5,4.2,6.1,2.4,8.4,6.7,8.7,13.2.6,11.9,0,23.9,3.6,35.5,2.7,9,3,18.6,6.6,27.4,6.7,2.2,10.5.1,15.6-8.6-3.5-16.5-5.1-33.3-6.8-50.1-.7-6.7,1.6-9.1,8.3-8.9,4.1.1,8.1,1.1,12.3,1.1,43.8.3,82.6-14.7,118.3-39,6.8-4.6,8.6-4.7,13.3,2.1,6.3,9,12.4,18.1,18,27.6,1.3,2.2,2.4,4.6,4.8,5.8,7.6-2.3,11.7-8.4,15.7-14.5,0-2.5-1.6-4.4-2.8-6.3v.2ZM537,96.5c1.3-.7,2.7-1.2,4.1-.8,2.1.5,2.6,2.7,2.6,4.5,0,3.3-1.1,6.8-2.3,9.8-.6,1.4-1.2,2.8-1.9,4.1-.5,1-1.1,2-2.2,2.5-3.1,1.4-6.5-.7-8.5-2.9-1-1.1-1.9-2.3-3.1-3.3-.9-.8-1.9-1.4-3-1.9h0c-.2,0-.4-.2-.7-.3-1-.5-2.1-1.2-2.6-2.2-.7-1.2-.5-2.9,0-4.1.7-1.3,1.9-2.3,3.2-2.9.7-.3,1.4-.6,2.2-.7.8,0,1.5.2,2.2,0,3.2-.7,5.6-3.2,9-3.3.8,0,1.2.8.9,1.5h0ZM532.9,84.2c-1.7,2.2-4.6,3.5-7.1,4.5-.9.4-1.9.8-2.9,1.2-.5.5-1,1-1.6,1.3-1,.5-1.8.4-2.5,0-2.5.6-6.1,1.2-8.2-.6-1.1-1-1.3-2.4-1-3.8.4-1.9,1.3-3.9,2.2-5.7.9-1.8,2.2-3.4,4-4.4,1.7-1,3.8-1.2,5.7-1.3,1.7,0,3.5,0,5,.8,1.4.7,2,2.1,2,3.5h1.6v.2c2.3,0,4.4,2.2,2.7,4.3h0ZM488.4,57.9c.5-1,1-2.1,1.8-2.9,2.3-2.5,6.2-3.1,9.4-2.8.5,0,.8.3.9.6.5,0,1,0,1.5,0,.5,0,.8.4,1,.9.4,0,.9-.2,1.3-.3-.2-.5,0-1.1.5-1.4,1.1-.5,2.2-1,3.3-1.3-2.1,0-4.6,0-6.3,1.4-1.1.8-2.6-.8-1.4-1.6,4.2-3,10-2,14.8-1.3.6,0,1.3-.2,1.9-.3,3.9-.7,8.3-2.1,12.3-1.1,2.5.6,2.1,3.4,1.7,5.3-.5,2.1-1.7,3.9-3.3,5.2-3.8,3-9.1,3.7-13.8,4.2-2.5.3-5.1.4-7.6.6-2.2.2-4.4.4-6.5,1-1.7.5-3.3,1-5.1,1.1-1.1,0-1.8-.2-2.7-.8-1.5-.9-2.9-1.8-4.4-2.7-.3-.2-.5-.6-.5-1,.1-1,.8-2.1,1.3-3h0ZM506.9,80.7c-.1.4-.3.8-.6,1.1-.5.7-1.2,1.3-2.1,1.4-.4.3-.8.5-1.3.5s-.9-.2-1.2-.5c-.8.5-1.7.7-2.7.5-.4,0-.8-.6-.7-1.1,0-.3,0-.5.1-.8,0,0-.1-.2-.2-.3h-.8c-.4,0-1-.4-1-.8,0-.9.2-1.7.6-2.5h0v-.8c-.2-.3-.3-.8,0-1.2,0,0,0,0,.1-.2h-1.1c-.7,0-1.2-.7-1-1.4.6-1.6,2.2-2.3,3.8-2.2h.2c1.3-.6,3.1-.5,4.5-.3s3,.5,4,1.6c1,1,.8,2.5.4,3.7-.3.9-.7,1.8-1.2,2.6v.6h.2ZM489,117.1v-.3c.4-1.2,1-2.4,2.3-2.6,1.6-.3,3.3.4,4.8,1,6.8,2.6,14.6,6.5,16.9,14,.4,1.4.4,3-.6,4.2-.9,1.1-2.3,1.6-3.5,2.2-3.7,1.6-7.4,2.5-11.5,2.4-2,0-4-.3-5.9-.5-2.1-.3-4.2-.5-6.3-1-1.6-.4-3.7-1.2-4.5-2.9-.6-1.4,0-2.8.8-4,1.6-2.8,3-5.6,4.6-8.4.8-1.4,1.7-2.9,2.8-4.2h0ZM482.6,108.9s.1,0,.2,0c.2,0,.3,0,.5.2h0c1.4.4,2.4,1.6,2.1,3.1-.3,1.9-1.8,3.7-2.9,5.1-.5.6-1,1.2-1.5,1.7v1.2h-1c-.1,0-.2.3-.4.4-.8,1.3-1.6,2.5-2.5,3.6-1.3,2.1-2.8,4.3-5.1,5.4v.2h-.4s-.2,0-.2.1c-3.6,1.4-6.7-1.1-8.8-3.9,0,0-.1-.2-.2-.3-1.5-1.1-2.5-2.8-2.9-4.7v-.4c0-.2-.2-.4-.2-.6h-.1v-.3c-.4-1.1-.8-2.3-.9-3.4-.3-1.9-.3-4.1.9-5.5v-.3h.3c.4-.3.8-.6,1.3-.8,1.8-.6,3.9-.9,5.8-1.2,1.7-.3,3.3-.5,5-.6,1.6-.2,3.3-.2,4.9,0,1.1,0,2.3,0,3.4.2.6,0,1.2.2,1.7.3.4,0,.8,0,1.2.3l-.2.2ZM475.2,84.4c1.6.9,1.4,3.2.7,4.7,0,.2-.2.3-.2.4v.8c.5.2.8.8.7,1.3.2-.5.4-1,.7-1.4v-.6c0-.9.9-1.2,1.5-.9.5-.3,1-.5,1.5-.7.7-.2,1.3.4,1.3,1.1,0,1.3-1.2,2.6-2.1,3.4-1.1,1.1-2.4,2.2-3.9,2.6-.5.2-1,.2-1.5,0-.7.5-1.5.9-2.5,1-.4,0-1,0-1.2-.6,0-.2-.1-.4-.2-.6-.4,0-.8,0-1.2,0-.4,0-.6-.3-.8-.6h-.3c-.6.2-1.1.2-1.5,0-.3,0-.7,0-1,0-.9,0-1.4-.6-1.3-1.4.1-.7.4-1.3.7-1.9-.1-.2-.2-.4-.2-.7,0-2.1,1.9-3,3.9-3.2h.7c.8-1.2,2-2.2,3.2-2.9.9-.5,2.1-.8,3-.3v.4ZM420.7,96.8c0-.2,0-.4.1-.6,1.1-2,2.9-3.5,4.7-4.8,1.7-1.5,3.6-2.8,5.5-4.1,4.1-2.7,8.4-4.9,12.8-7,.3-.2.5-.4.8-.6-.4-.4-.5-1,0-1.5,1.4-1.3,3.1-2.2,4.9-2.6.4,0,.7,0,1,.3,0,0,.2,0,.2-.2,2.1-1.1,4.1-2.7,6.4-3.6.4-.3.7-.6,1.1-.9,3.1-2.5,7.9-5.4,11.2-1.8,1.3,1.4,3.1,3.8,2.5,5.8-.3,1-.9,2-1.4,2.9-.3.5-.7,1.1-1.1,1.5v3.1c0,1.4-2.2,1.3-2.1,0v-2.4c-.5.8-1,1.6-1.5,2.4-.4.9-.7,1.7-1.2,2.6-.2.4-.6.5-1,.5-.2.2-.3.4-.5.6-3.3,4.2-7.2,8-11.6,11-3.8,2.6-8.1,4.4-12.7,4.7-.2.4-.4.7-.6,1.1-.6,1.2-2.4.7-2.1-.6-.4,0-.9.2-1.3.2-1,0-1.9-1.1-.9-1.8.4-.3.7-.6,1.1-.8h-1.6c-1.4,1.5-3.2,2.8-5.1,3.8-1.8.9-4,1.7-6,1.3-2.1-.4-4.2-2.3-4.2-4.5s1.2-2.9,2.6-3.7v-.2ZM447.9,180.2c-.3,2.5-1.3,4.9-2.4,7.1-.8,1.5-1.6,2.8-2.5,4.2-.4,1-.7,2-1.1,3.1v3.6h-1c-.8,3.6-1.1,7.3-1.8,11-.4,2.1-1.1,4.1-1.7,6.2-.6,2-1.1,4-1.4,6-.4,2.1-.7,4.2-.8,6.4,0,.6,0,1.3-.1,1.9v1.1h-.1c0,.5-.2,1-.4,1.4-1.9,5-7.7,1.5-10.6-.5-.5-.3-.9-.6-1.4-1h-2v-1.5c-.5-.4-1.1-.8-1.6-1.2-3-2-5.9-4.1-8.6-6.4-.2-.2-.5-.4-.7-.6h-1v-.9c-2-1.9-3.9-3.9-5.5-6.2-1.2-1.7-2.3-3.5-3.3-5.4h-.2v-.4c-.3-.5-.6-1.1-.8-1.6,0-.1-.1-.2-.2-.3-.5-1.1-1.2-2.1-1.9-3.1-1.1-1.8-2.3-3.8-2.3-5.9-.1-.2-.2-.5-.3-.7h-1.1v-2.9c-.6-1.7-1.2-3.4-1.8-5.2h-1v-3.4c-.3-1.1-.5-2.2-.8-3.3-.4-1.9-.7-3.8-.9-5.7h-.4v-3.6c-.4-5-.3-10,.1-15,.3-3.7.7-7.3,1.6-10.9.9-3.4,2.2-6.7,3.8-9.9,1.4-2.9,3-6.1,5.1-8.6,1.2-1.4,2.6-2.3,4.1-3.4,0,0-.2,0-.3,0-.4-.2-.5-.8-.4-1.2.8-3,3.3-3.7,6.1-3.9,2.2-1.2,5-1.2,7.4-1.3h.3c4.1-1.2,8.1-2.9,12.2-4.3,4.5-1.5,10.2-2.5,13.2,1.9h.2v.4h0c.2.4.2.8,0,1.1v2h.7v6.9h.2v2.3c.1.2.2.4.2.6-.1,2,.3,4.1,1,6,.2,0,.3,0,.5.2,1.6,1,2.9,2.5,4,4,.7,1,1.6,2.4,1.7,3.7h1.4v1.2c.9.4,1.7.9,2.5,1.4h2.3v1.6c.4.4.9.7,1.2,1.1,1,1.1,1.8,2.5,1.9,4,.1,1.4-.3,2.6-.9,3.8-.7,1.3-1.5,2.6-2.2,4,0,0,0,.1-.1.2v1.5h-.8c-.5.9-1,1.8-1.5,2.7-.4.6-.7,1.1-1.1,1.7-1.2,4.1-2.9,8-4.7,11.9,0,.2-.2.4-.3.5v.4c0,.1,0,.2-.1.3.2.2.4.5.4.9h0ZM589.8,213c-.3.4-.9.6-1.3.4-.2.4-.4.7-.7,1,0,.1-.2.2-.3.3.5.4.7,1.2,0,1.6-.9.7-1.9,1.4-2.8,2.2h0c-2.1,2.3-5,4-8,4.9.3.6,0,1.3-.7,1.5-3.8.7-7.4,2.1-11,3.5v.5h-1.3c0,.4,0,.8-.6,1h-.3c-3.1,1.1-6.2,2-9.4,2.8-2.3.9-4.6,1.8-6.8,2.8-2.1,1-4.2,1.7-6.4,2.3-2.4.6-4.7,1.4-7.1,2.1-2.2.7-4.5,1.3-6.8,1.9-2.3.6-4.6,1-6.8,1.7-4,1.3-8,3.2-12.3,3.2-1.5.5-3.1.4-4.6.3-2.6-.1-5.2-.3-7.8-.2-3,.1-5.9.7-8.9.7s-2.9,0-4.3-.2c-1.3-.2-2.6-.5-3.8-.7-2.5-.3-5-.4-7.4-.5h-1.2c-3,.1-6.1.9-9-.1-.7-.2-.9-1-.6-1.6-2.2-.8-4.3-1.8-6.5-2.7-1.7-.7-4.1,0-4.5-2.4-.2-1,0-2,.2-3s.3-2,.3-3.1,0-1.8.1-2.6c-.2-1.6,0-3.1.5-4.7v-.4c0-4.4.7-8.7,1.4-13,.6-3.6.6-7.5,2.2-10.8,0-1,.1-2.1.3-3.1.3-1.4.5-2.8.8-4.2.4-1.7,1-3.4,1.6-5,.3-1.2.6-2.3,1.2-3.5,0-.1,0-.3.1-.4.8-2.7,1.4-5.5,2.3-8.1.9-2.7,1.9-5.3,2.8-8s1.6-5.4,2-8.3c.3-2.1,1-4,2.5-5.5.3-.3.7-.5,1-.7h-.2c-1-.5-.9-1.7.1-2.1,2.8-.9,6-1.2,9-.8.4,0,.6.3.8.5h0v-.2h3.1c.2-.4.5-.7,1-.7h.6c1-.2,2.1,0,3.1,0h4.5c.7,0,1.3-.2,2-.4,1.1-.3,2.2-.8,3.3-1.2,1.1-.4,2.3-.7,3.5-1.1,2-.6,4-1.2,5.8-2.3.5-.3.9-.1,1.2.1.3,0,.7-.2,1-.3l3-1.5h0c.6-.9,1.5-1.2,2.3-1.8,1-.7,1.9-1.5,2.8-2.3,1.6-1.5,3.5-2.9,5.6-3.7s4.8.5,6.5,1.6c.9.6,1.4,1.3,2,2.1.3,0,.6,0,.9.3.9.9,1.6,2.1,2.4,3.1h0s.2,0,.2.1c1.5,1.1,2.6,2.5,3.6,4,.4,0,.8.3.9.8,0,.3.4.5.6.7.4.4.7.9,1.1,1.3.2.2.3.5.5.7h0v.2c.3.5.7,1,1,1.5.3-.1.7,0,1,.3,3.3,4.1,7.9,6.8,11.3,10.8,1.1,1.2,2,2.5,3,3.8h.8v1.1c0,.1.2.2.3.4.4-.3,1-.2,1.4.2.5.5,1,1.2,1.4,1.9,2,1.1,3.7,3.2,5.1,5,1,1.3,1.7,2.8,2.4,4.3.4-.6,1.4-.7,1.9,0,1.1,2,2.9,3.6,4.4,5.4.3.4.6.8.9,1.2.2,0,.5,0,.7.2,1.4,1.1,2.3,2.6,3.2,4.1.5.9,1.1,1.7,1.7,2.6.6.7,1.1,1.5,1.6,2.2,0,0,0,.1,0,.2,1.9,2.7,4.1,5.2,6.2,7.7.6.6,1.1,1.3,1.6,2h0s0,.1.2.2c.3.4.2.9,0,1.2.5.2.9.5,1,1.2.2.9,0,2-.6,2.8v.7Z"/>
        <path class="st6" d="M438.5,115.8c-1.3-1-3.1-1.3-4.9-1.1-1.5.2-3,.6-4.5,1.1h9.4Z"/>
        <path class="st6" d="M503.7,74.8h1.8-.2c-.3,0-.5-.2-.8-.3-.2,0-.3,0-.5,0h-.7c.2.2.3.4.4.6v-.2Z"/>
        <path class="st6" d="M506.2,75.3h0q0,0-.2-.2h0v2.2c0-.2.2-.5.2-.7v-.2h0v-.7h0v-.4Z"/>
        <path class="st6" d="M421.5,102.4c.6.4,1.3.5,2.1.5s1.1,0,1.6-.3c-.1-.2-.2-.4-.2-.7-.2-.2-.3-.4-.3-.6h-.4v-1h-.2c-1.3.2-2.6.5-3.8.6.2.6.8,1.2,1.3,1.5h-.1Z"/>
        <path class="st6" d="M463.7,71.1s.2,0,.2,0c.8-.4,1.5-.8,2.3-1.1h0c-.9,0-1.8,0-2.6.5.1.2.1.5,0,.8h.1Z"/>
        <path class="st6" d="M440.9,99.5c1.2-.2,2.5-.6,3.6-1h-1.5c-.7.4-1.4.7-2.2,1h.1Z"/>
        <path class="st6" d="M475.3,160c-.4,0-.9.1-1.3.2.2.7.4,1.4.7,2,.2,0,.3.2.5.3,0-.8.1-1.7.1-2.5h0Z"/>
        <path class="st6" d="M471.2,164h-2.6c0,.2,0,.4-.1.6h1.5l1.2-.6h0Z"/>
        <path class="st6" d="M571.7,216.7c-.2.4-.5.8-.8,1.2h0s.2,0,.3-.1c1-.4,2-.9,3-1.3.2-.1.4-.3.5-.4-1,.2-2.1.5-3.1.7h0Z"/>
        <path class="st6" d="M541.8,160.9c.2,0,.4-.1.6,0h0c-.7-1-1.5-1.9-2.1-2.9-.2,0-.4-.1-.5-.3,0,0-.2-.2-.2-.3v1.6c.8.6,1.6,1.3,2.3,2.1v-.2Z"/>
        <path class="st6" d="M665.1,75.9c1.5.9,3.1,1.8,4.4,3-.2-.4-.4-.8-.6-1.1,0-.2-.3-.4-.4-.6-.9-.5-1.7-1-2.6-1.5-.3,0-.6,0-1,0h0c0,0,0,.2.2.3h0Z"/>
        <path class="st6" d="M663.4,78.5c-2.2-1.5-4.2-3.2-6.2-4.9-1.1-.7-2.1-1.4-3.1-2.1-.8-.4-1.7-.8-2.5-1.3,1.4,1.4,2.8,2.8,4.4,4,2.2,1.7,4.6,3.1,7,4.4,1.2.7,2.4,1.3,3.6,1.8-1.1-.6-2.1-1.2-3.2-1.9Z"/>
        <path class="st6" d="M745.2,122.7c-19.8-33.1-46.2-59.2-80.5-77-36.1-18.7-74.2-27.2-114.9-21.8-1.1,7.3-.8,14.7,0,22,2,2,4.7,1.6,7.2,1.9,17.2,2.4,34.2,5.3,49.8,13.4,2.1,1.1,4.2,2.2,5.8,3.9,2,2.1,1.7,3.8-1.2,4.8-1.3.4-2.7.5-4.1.5-15-.4-29.7,3-44.5,4.9-1.5.2-3.3,0-3.8,2.1,0,4.5,1.9,8.2,4.8,11.4,1.7,1.5,3.7.9,5.6.7,21.4-3.1,42.5-1.5,63.6,3,4,.9,6.7,2.8,8.2,6.7,5.2,13.3,6.8,26.8,3.6,40.9-3.6,16-11,30.1-20.9,43-2,2.6-5.1,5.3-2.3,9.3,3,1.6,4.1-1,5.6-2.6,8.3-9.2,16-19,22-29.8,8.4-15.2,14.5-31.4,14.5-49.2s1.8-8.8,8.3-5.2c11,6.1,20.7,14.1,30.6,21.9,11.4,9.1,21.4,19.1,24.9,34,0,.6.6,1,1.1,1.4.9.6,2,.5,2.7-.2,7.9-7.4,16.3-14.4,22.6-23.4-2.4-5.8-5.4-11.2-8.6-16.6h0ZM686.9,88.4c-.4.4-.8.7-1.4.6-.5,0-1-.3-1.4-.5-1.1-.4-2-1-3-1.7h0c-2.7-.5-5.3-2.5-7.3-4.2-.4-.4-.9-.8-1.5-1.3,0,.2,0,.4-.3.5.2.4.3.7.4,1.1.2.8-.7,1.4-1.4,1.3-2.8-.7-5.5-1.9-8.1-3.2-3.9-2-7.7-4.4-10.9-7.4-2.8-2.6-5.8-5.7-7.5-9.2-.2-.4-.2-.8,0-1-.9-1-1.7-2-2.4-3.2s1.2-2.2,1.9-1c.8,1.4,1.8,2.5,3,3.6-.2-.5,0-1.2.6-1.4-1-.5-2-1.2-3-1.9-1-.8,0-2.6,1.1-1.9.3-.5.9-.8,1.5-.5,4.9,2.7,10.3,5.2,14.3,9.1.2.2.3.5.3.7,4.9,2.6,9.5,5.6,14.1,8.6s4.6,3,6.6,4.9,3.5,4.1,4.5,6.7c.2.5,0,.9-.2,1.3h.1Z"/>
        <path class="st6" d="M418.8,931.9c-.6,0-1.4,0-2.2,0,.8,0,1.6,0,2.4,0,.5,0,.9,0,1.4,0h-1.6,0Z"/>
        <path class="st6" d="M469.8,960.5c-1.4-22.4-2.9-44.8-5.1-67.2-.6-6.2-.2-12.4-1.6-18.6-1.1-4.8-3.9-6.7-8.1-6.8-6.7-.3-13.4-.2-20,0-4.1,0-7.4,2.1-10.1,5.2-10.2,12.1-20.4,24.1-30.5,36.2-9.6,11.5-19.1,23.1-29,34.4-5.4,6.2-9.2,13.6-15.4,19-2.2,1.9-5.2,4.7-8.3,2.2-3.2-2.5-1.2-5.8.3-8.5,2.3-4.1.6-5.3-3.4-5-6.2.4-12.5.9-18.7,1-11.9.2-13.9-2.5-9.8-13.5,7.9-21.4,16.1-42.6,24.3-63.9,1.8-4.7.5-7.2-4.6-7.2s-10.1,1.1-15.2.8c-5.5-.2-8.2,2.4-9.9,7.1-10.7,28.9-21.4,57.7-32.2,86.6-3,8.1-2.9,8.3,5.9,8.3,27.9,0,55.8,0,83.7,0,8.6,0,14.9-2.9,19.8-10.1,2.8-4,6-8.7,11.8-8.8,13-.2,25.9-.2,38.9,0,3.9,0,6,2.2,6.3,6.2q1.1,12.5,13.7,12.5h7.7c9.8,0,10.2,0,9.6-9.9h0ZM437.5,919.6c-.1,3-.6,6-.9,8.9,0,1.4,0,3.1-.7,4.3-.1.2-.3.4-.5.6-.4.8-1.1,1.5-2,1.9-1.5.6-3.3.2-4.9.3-1.8.2-3.5.6-5.3.7-1.8,0-3.5,0-5.3-.2-1.4,0-2.8,0-4.1-.4-1-.2-2-.6-2.8-1.2-2.3-.7-4.3-2.7-3.7-5.4.3-1.2,1.1-2.3,1.8-3.3.1-.4.3-.7.4-1,.2-.4.5-.6.8-.6.5-.7,1.1-1.3,1.7-1.9,1.1-1.1,2.3-2,3.2-3.3,1-1.5,2-3.1,3-4.7,2-2.9,4.3-5.8,6.7-8.3,1.1-1.1,2.2-2.1,3.2-3.2.9-1,1.9-2.1,3.2-2.6h.3c.3-.4.8-.5,1.3,0,2.4,2.1,3.5,5.2,3.8,8.3.2,1.8.2,3.5.3,5.3.1,2.1.3,4.1.2,6.2l.3-.3Z"/>
        <path class="st6" d="M464.7,830.4c-9.6.6-19.8-1.7-30-4.7-15.4-4.5-31.9-29.1-22.3-49.3,6.8-14.4,12.6-28.9,24.9-39.8,17-15,36.5-24.2,59.1-27,14-1.7,27.7-3.1,41.5,2.1,10,3.8,17.5,9.9,22.7,19.1,2.1,3.8,1.7,6.7-2.8,8.3-8.5,2.9-17,5.8-25.4,8.8-3.1,1.1-5.2.6-6.8-2.4-2.3-4.5-3.8-9.8-9.3-11.5-7.5-2.3-15.1-3.5-23.1-2.2-26,4-43.8,26.7-48,52-1.6,9.6,7.8,22.7,17.7,24.8,17.3,3.7,32.4-.6,45.3-13,2.6-2.5,3.5-5.4,2.5-8.5-1.1-3.3-4.4-2.8-7-2.8-4.5,0-9,0-13.6,0s-4.8-2.1-3.8-5c1.4-4,2.7-8.5,5.4-11.6,3.9-4.5,10.1-3.4,15.3-3.2,15.7.8,31.3,1.2,46.9-.2,2-.2,3.9-.4,5.4,1.4,1.8,2.1,0,3.5-1,5.1-7,11.2-12.8,23.2-22.9,32.4-19.7,18-42.5,28-70.7,27.3h0Z"/>
        <path class="st6" d="M514.1,368.4c-.2,0-.4,0-.6.1,1.3-.1,2.6-.3,3.9-.4,0-.2.3-.3.6-.3,1.5-.3,2.9-.5,4.4-.7h0c-2.8,0-5.5.6-8.1,1.3h-.1Z"/>
        <path class="st6" d="M672.8,310.3c-2.2-4.8-2.9-8.7.9-12.8,1.2-1.3,2.2-2.8,1.7-4.7-.5-.9-1.3-1.9-2.3-1.6-6.8,2-8.8-2.8-11.2-7.5-5.8-11.4-10.8-23.2-17.9-33.8-1.1-1.7-1.4-4.7-4.7-4.2-4.4,4.9-8.9,9.7-14,13.9-1.9,2.6.3,4.4,1.3,6.4,6,11.5,13,22.4,18.7,34,2.7,5.5,2.3,7.9-2.3,10.5-18.6,10.5-37.1,21.4-57.3,28.8-20.8,7.6-43,8.8-64.5,13.2-16.4,3.3-32.4,1-48.6-.4-5.6-.5-8.9-3.3-10-9-1.1-5.4-2.6-10.7-4.3-15.9-.6-2-.8-4.4-3.4-5-3.9,3.5-6.7,8.6-13,8.2-2.5,2.8,0,5.5.1,8.2.3,5.6-1.9,7.5-7,5.2-7-3.1-13.8-6.8-20-11.2-4.9-3.5-8.9-7.7-11.2-13.4-4.3-10.8-10.3-20.8-15-31.3-.7-1.5-1.2-3.5-3.5-3.5-4.9,3.9-7.8,10.3-14.7,11.8,11.6,37.3,33.8,67.3,63.3,92.3,4.7,4,9.2,8.4,15.3,10.4,4.8,1.4,9.7.4,14.5.8,7.5.8,12-2.9,15.2-8.7-.2-.3-.4-.6-.6-1-1.2-1-2.4-2.2-2.5-3.9,0-.8.7-1.1,1.4-.9-.1-.2-.2-.4-.4-.6-1-1.7-2.3-3.3-2.9-5.2-.3-.9-.5-1.8-.9-2.7-.3-.8-.9-1.4-1.2-2.1-.4-.9-.2-1.8.2-2.6h0c-.9-.5-.4-1.7.4-1.9.5-.2.9-.7,1.3-1.1.5-.4,1-.7,1.6-.8.8-.2,1.6-.1,2.3.2,1.6-.4,3.3-.5,5-.5s4.2.5,6.2.6c2,.2,4,.2,5.9.3h1c.1-.2.3-.4.7-.4,6-.8,12-.5,17.8-2,2.8-.7,5.5-1.1,8.4-1.2,2.3,0,4.7-.5,7,.2,0,0,.2.1.3.2,1.5-.6,3-1.3,4.5-1.8,2.3-.8,4.8-1,7.2-1.3,1.5-.2,3-.4,4.5-.6.2-.4.7-.6,1.2-.5.5.2,1,.1,1.6.1h.5c1.1-.3,2.3-.6,3.4-1,.3-.1.7-.2,1-.3.5-.2.9-.5,1.4-.7,2.1-.9,4.4-.8,6.5-1.6,2-.8,3.9-1.8,6.1-1.7.3,0,.6.2.8.4.3,0,.5-.2.7-.3,1.8-.7,3.7-1.5,5.5-2.2,2.6-1,5-2.1,7.5-3.3,0-.2.3-.4.7-.5.2,0,.4,0,.7-.1l1.2-.6c3.4-1.5,6.9-3,10.4-4.4,1.8-.7,3.5-1.5,5.3-2.3.3-.1.6-.3.9-.4,0,0,0,0,.2-.1.5-.3,1-.5,1.5-.8.6-.4,1.3-.8,1.9-1.1,1.3-.8,2.8-1.4,4.1-2.2,1.1-.7,2.4-1.6,3.7-1.7h.4c1.7-1.2,3.6-2.2,5.4-3.2,1.4-.8,2.8-1.6,4.2-2.5s2.7-1.9,4.2-2.7c1.4-.8,2.9-1.4,4.4-2.1,1.4-.7,2.7-1.6,4-2.5s2.5-1.7,4-2.3c1.3-.6,2.7-1,4-1.5,1.9-1.4,3.8-2.7,5.8-4,.4-.3.8-.2,1.1,0,0-.1.2-.3.3-.4.6-.5,1.3-.4,2-.2.4,0,.6.4.7.8h.3c.8,0,1.2,1,.9,1.6h0c0,0,.2.1.3.2,0,.1.2.2.2.4v.3h0c0,.3,0,.5,0,.6v.3h0c1.2,2.1,1.7,4.5,2.6,6.8.5,1.3.9,2.6,1.5,3.9.5,1.1,1.2,1.9,1.2,3.1s-.2.7-.6.9c.3.8.7,1.6,1.1,2.4.4.8.7,1.6,1.1,2.4.4.9.9,1.9,1.1,2.9.9,1.5,1.2,3.3,1.5,5.1,0,.7.3,1.4.3,2.1.2.1.3.3.3.5.3,1.1.6,2.3.9,3.4,1.8.7,3.4-.2,4.6-1.5,4-4,8.6-7.4,11.5-12.3-.6-10.6-5.5-19.8-9.9-29.1l.4.3ZM455.1,374.2c0,.3-.4.6-.7.7-.1.3-.3.6-.6.9v.2c0,.7,0,1.6-.8,2-1.1.6-2.5-.6-3.3-1.3-.9-.7-1.7-1.4-2.5-2.2-.6-.6-1.3-1.4-1.8-2.2-.5-.4-1-.7-1.5-1.1-1.5-1.2-2.9-2.4-4.4-3.4-.8-.5-1.7-1.1-2.1-1.9-.3-.6-.4-1.2-.4-1.8h0v-.3h0v-.3h0c0-.2,0-.4.2-.5l.2-.2c.1-.1.3-.2.5-.3h.3c.1,0,.3,0,.4.1.1,0,.2.1.3.2,0,.1.2.2.2.4h0c.2.1.4.1.7.1s.3.1.5.2c.1,0,.3,0,.4-.1.5-1.5,2-1.9,3.6-1.8.3-.1.7-.2,1-.2.6,0,1.2.2,1.7.4.6.2,1.2.3,1.8.4,1.3.2,2.7.6,3.5,1.6.7.9,1,1.9,1.4,2.9.5,1.2,1,2.4,1.3,3.6.3,1.4.3,2.8,0,4.2v-.3Z"/>
        <path class="st6" d="M811.5,271c8.9-11.8,17.3-22.7,30-29.8,24.9-14,58.8-12.1,81,5.8,18.9,15.2,28.8,35,28.4,59.5-.5,25.3-12.5,44.6-32.7,59-2.4,1.7-4.4,6.9-7.9,4.2-2.1-1.6,1.1-5.6,1.8-8.5,4.4-17.9,2.1-34.7-6.8-50.9-7.5-13.6-17.1-25.2-31.2-32.2-18.6-9.2-37.8-14.5-58.5-6.8-.5.2-1.2.2-1.7.2s-1.1-.2-2.3-.5h0Z"/>
        <path class="st6" d="M804,279.6c-1.3,9.5-2.9,18.7-2.9,28.1,0,36.7,28.5,66.1,61.6,72.8,9.5,1.9,19.4,2.8,29.1.5,2.3-.6,4.5-1.1,6.4-2.6,1-.8,2-1.2,3.1-.2,1.3,1.1.4,2.3,0,3.1-12.7,18.4-28.4,32.8-51.5,36.4-26.3,4.2-48.5-3.9-66.7-23.1-9.9-10.4-15.1-23-17.6-36.9-2.3-13-.9-25.6,3.3-38.1,4.3-12.7,12.5-22.4,22.6-30.6,4-3.2,6.6-8.4,12.6-9.4h.1Z"/>
        <path class="st6" d="M333.2,826.8h-31.2c-6.4,0-6.8-.3-4.5-6.1,7.7-20,15.7-39.9,23.3-59.9,5-13.1,9.6-26.4,14.2-39.6,2.9-8.2,4.2-9.2,12.6-9.2h60.1c6.9,0,7.7,1.1,5.4,7.5q-5.3,14.6-20.5,14.2c-7.8-.2-15.7,0-23.6-.2-4.7,0-8,1.8-8.7,6.8-.4,2.8-1.9,5.1-3.1,7.5-2.9,6.1-.9,9.8,6,10.1,8.6.3,17.3,0,25.9,0s7.2,1,4.7,7.2c-.9,2.4-1.9,4.7-2.9,7-2.4,5.9-6.5,9-13.1,8.5-9.1-.6-18.4,1.2-27.5-1-3.2-.8-5.2.8-6.3,3.8-1.5,4.4-3.3,8.8-4.7,13.2-1.7,5.1,0,7.3,5.5,7.4,9.2,0,18.5,0,27.7,0s8.2,1.6,5.4,8.4c-6.7,16.2-5.3,14.1-21.7,14.2h-23v.2Z"/>
        <path class="st6" d="M597,826.8c-10.8,0-21.6,0-32.4,0-4.7,0-6-1.6-4.3-6,13.4-34.5,26.7-69,40.1-103.6,1.5-3.9,4.6-5.1,8.4-5.1,20.8,0,41.6-.2,62.5,0,5.2,0,6.6,2.2,4.8,7.1-1,2.9-2.2,5.9-3.6,8.7-1.9,4-5.1,5.3-9.7,6.1-11.1,2-22.2-1.9-33.3.5-3.3.7-5.3,1.8-6.4,4.9-1.4,4-3.3,7.9-3.7,12.3-.4,4.6,1.5,6.5,6,6.4,8.6,0,17.3,0,25.9,0s7.4,0,4.8,7.2c-1.1,3.1-2.7,6-3.9,9.1-2,5-6,6.3-10.8,6.3-8.6,0-17.3,0-25.9,0-4.7,0-7.8,1.5-9.2,6.3-.9,2.8-2.7,5.2-3.8,7.9-2.6,6.6-.2,10.4,7,10.3,9.2,0,18.4-.8,27.6-.9,6.4,0,6.9.9,4.5,6.8-7.5,18.7-4.8,15.4-23.5,15.7h-21.2c0,0,.1.2.1.2Z"/>
        <path class="st6" d="M173.6,963.2c-1.6-16.1-3-32.2-4.4-48.4-1.2-14.2-2.4-28.4-3.6-42.6-.3-3.2-1.9-4.8-5.4-4.7-5.9.3-11.9-.4-17.7.4-5.1.7-10.9-.5-15,4.9-6,7.9-12.5,15.4-18.9,23.1-9.4,11.2-18.8,22.4-28.2,33.6-10.1,12.1-20.3,24.2-30.4,36.3-2.8,3.3-.9,4.6,2.3,4.8,4.5.2,9.1-.3,13.5,0,7.7.6,12.9-2.8,17.4-8.7,4-5.3,8.6-10.3,16.2-10.3,11.4,0,22.8,0,34.2,0,4.6,0,6.3,2.2,6.8,6.3,1.1,8.6,5.9,12.9,14.4,12.9h12.3c5.3-.2,6.9-2.3,6.4-7.4v-.2ZM138.7,922.1c-.1,1.5-.3,3.1-.3,4.6s-.2,3.1-.7,4.6c-.2.5-.5,1-.8,1.5,0,.5-.2.9-.8,1.1-.1,0-.3,0-.5.2-1.1.8-2.4,1.4-3.6,1.7h-.8c-.2,0-.3.2-.5.3-.5.2-1,.3-1.5.4-.4,0-.6-.2-.8-.5-.7,0-1.3,0-2,.2-3.1,0-6.3,0-9.3-.9-2.1-.5-5.1-1.2-5.7-3.7-.5-1.8.5-3.8,1.3-5.4.8-1.6,1.9-3,2.8-4.5h0v-.8c.3-1,.8-1.9,1.3-2.8.3-.5.9-.6,1.4-.3.7-1.6,1.4-3.2,2.7-4.3.2,0,.3-.2.5-.3.4-.6.8-1.1,1.2-1.7,1.1-1.4,2.4-2.6,3.6-4,1.8-2.2,3.4-4.7,5.9-6.1.9-.5,1.9-.9,3-.8.3,0,.5,0,.7.2h.5c.6,0,1.1.2,1.3.8,1,3.3,1.3,6.5,1.4,10,0,3.5,0,7.1-.2,10.6h0Z"/>
        <path class="st6" d="M520.6,973c-11.4-1.1-23-1.3-33.1-8.1-2.9-2-3.5-3-.3-5.5,4.3-3.4,8.6-7.1,11.8-11.4,3.1-4.2,5.6-3.5,9.1-1.1,6,4,11.7,8.2,19.6,8.2s15.8-4.1,22.1-9.5c4.9-4.2,1.7-12.2-5.9-14.9-9-3.3-18.1-6.2-26.6-10.5-7.1-3.6-9.1-8.2-6.7-15.8,7.1-22.3,23.4-33.7,45.6-37.9,12.6-2.4,24.9-.6,36.9,3.3,6,2,6.3,3.3,2.2,7.7-1.2,1.3-2.2,2.8-3.2,4.2-5.7,7.7-8.4,8.3-17.1,4.2-8.7-4.1-23.2-1.2-29.4,5.9-3.9,4.6-3.5,8.3,1.6,11.6,7.8,5.1,17,6.5,25.5,9.7,11.7,4.5,15.1,11.9,10.8,23.4-8.6,22.9-26.4,32.7-49.4,35.2-4.5.5-8.8,2-13.4,1.3h0Z"/>
        <path class="st6" d="M202.7,826.7c-13.7,1.9-30.2,1-46.7,1.1-2.1,0-4.3-.2-6.4-.6-7.6-1.4-8.1-2.3-5.4-9.4,12.1-32,24.2-64.1,36.4-96.1,3-8,5.3-9.4,14-9.6,5.3,0,10.5-.8,15.8-.9,4.7-.2,6.4,2,4.7,6.6-8.9,25.1-17.5,50.4-28.8,74.6-4.1,8.8-1.8,12.8,8.1,12.8s16.4-.8,24.6-.9c7,0,8,1.8,5,8.1-.4.9-.9,1.7-1.3,2.6-3.3,7.8-10,11.7-20.1,11.7h0Z"/>
        <path class="st6" d="M250,867.8h31.8c8.8,0,9.5,1.1,6.2,9-.5,1.3-.9,2.6-1.4,3.8-2.6,6.5-5.8,8.3-12.7,7.3-1.7-.3-3.4-.8-5.2-.8-10.5-.4-11.7.7-15.3,10.4-8.5,22.4-17.2,44.7-25.8,67.1-1.4,3.6-4,5.8-8,5.9-5.9.2-11.8,0-17.7.2-4.1,0-5.2-1.6-3.7-5.5,8.5-21.5,14.7-44,25.5-64.6.5-.9,1-1.7,1.3-2.6,2-6.2.1-9.9-6.2-10.7-4.8-.6-9.8-.3-14.7-.3s-3.9-.9-2.8-4c4.9-13.3,7.2-15.7,19.3-15.2h29.4Z"/>
        <path class="st6" d="M250.5,826.8c-3.1,0-6.3-.2-9.4,0-5.3.4-6.2-2.1-4.5-6.4,4.9-12.1,9.8-24.2,14.7-36.3,8.3-20,14.4-40.8,22-61,3.8-10.2,5.4-11.4,16.3-11.1,4.7,0,9.4,0,14.1-.3,4.9-.2,6.7,1.9,5,6.3-12.4,34.3-25.6,68.2-39.2,102-2,4.9-5.1,7.1-10.3,6.7-2.9-.2-5.9,0-8.8,0h.1Z"/>
        <path class="st6" d="M698,371.9c-7.8,3-9.7,2.1-10.8-6.1-1.1-8.9-2.1-17.7-5.4-26.1-5.7,3.5-8.7,10.2-15,13,0,.1-.2.2-.3.4,1.3,5,2.6,10,4.5,14.8,1,2.4,2.4,4.7,2.8,7.2,0,.2.2.5,0,.7v1.5c.4.1.8.5.8,1,0,1.2.6,2.2.8,3.3.2,1.1,0,2.1,0,3.2.3.4,0,.9-.2,1.2-.2,1.3-.5,2.6-1.3,3.8-1,1.4-2.5,2.2-4,3.1-1.7,1-3.4,1.9-5.2,2.8-2.2,1-4.4,1.9-6.7,2.7,0,.4-.3.7-.8.7-2.6.3-5,1.5-7.3,2.8-1.1.6-2.2,1.1-3.5,1.4-1.7.8-3.5,1.3-5.2,2.2-1.4.7-3,1.7-4.6,1.6-.9.5-1.9,1.2-2.9,1.3-.8.4-1.5.7-2.3,1-1.5.7-3,1.4-4.7,1.7-1.6.3-3.2.3-4.8.7-1.5.4-2.9,1.2-4.3,1.7-1.1.4-2.2.6-3.4.7,0,0-.2.2-.3.2-.7.3-1.2.7-2,.8-.7.1-1.4.2-2.1.1h-1.1c-.9.5-1.7,1-2.6,1.4-1.9.8-3.9.9-6,1-4.6.4-9.2.5-13.8.5s-.4,0-.6-.2c-.7.2-1.4.1-2.1,0h-1.2s0,0-.2.1c-1.6.9-3.9.4-5.7.4-2.8,0-5.6,0-8.4-.2-2.5-.2-5-.4-7.5-.6-2.4-.1-4.8,0-7.3-.4-1.6-.3-3.1-.6-4.7-1h-3.9c-2.5,0-4.9-.9-7.3-1.5-1.3-.3-2.5-.6-3.8-1-1.2-.4-2.3-.7-3.6-.9h-.2c0,.4-.5.6-1,.5-1.6-.2-3.1-.8-4.7-1.3-1.6-.4-3-1-4.5-1.6-1.7-.7-3.5-1.2-5.2-1.6-.3.1-.6.2-1,0s-.4-.2-.7-.3c-.8-.2-1.6-.3-2.4-.4-1.6-.3-3.1-.7-4.5-1.4-1.3-.6-2.5-1.3-3.9-1.9-1.7-.7-3.7-1.2-5.3-2.3-.5-.2-1.1-.4-1.6-.6-.2,0-.4.1-.7,0-3.5-.9-6.4-3.3-9.4-5.1-1.5-.9-2.7-1.9-3.8-3.2-1-1.1-2.1-2.1-2.9-3.4h-.1c-4.4,4.8-8.6,9.1-16.4,7.7-3.9-.7-8.6-1-12.8.7,3.9,4.3,9.1,6.7,14.1,9.2,21.7,11.4,44.4,19.4,69.2,21.8,17.8,1.7,35.6,3.1,53.2.5,38.3-5.7,73.1-19.9,102.6-45.7,4.6-4,9.8-7.9,12.6-13.7-.9.3-1.9.6-2.8,1h0Z"/>
        <path class="st6" d="M599,415.6c-.8,0-1.6,0-2.4.1h-.4c.9,0,1.9-.1,2.8-.2h0Z"/>
        <path class="st6" d="M717.4,352.7c5.8-9.9,12.3-19.4,17.9-29.4,11.3-20,16.8-41.5,19.6-64.1,2.4-19.5,2.1-39-1.3-58.3-.4-2.1-.5-4.3-1.4-6.3-1.1-2.5-2.7-5-6-4.7-2.9.3-4.6,2.5-4.9,5.2-1.8,17.8-11.3,32.3-20.4,46.9-6.1,9.8-12.8,19.3-21.4,27.1-1.4.9-2.4.5-3-1.1.3-4.2,3.3-6.9,5.5-10.1,7.5-11.2,16.2-21.8,20.9-34.5,6.4-17.2,10.6-34.8,5.7-53.4-.6-2.3-1.9-4.9.6-7.1,8.2-7.9,16.3-15.7,24.5-23.6,8,17.3,12.6,35.5,14.4,54.4.8,8.1,2.2,16.2,3.1,24.3.7,6.3-1.3,12.4-2.1,18.5-2.3,17.3-3.7,34.9-10.5,51.3-9.3,22.6-20.5,44.1-37.1,62.4-.9,1-2.1,1.7-3.2,2.5-.4.4-.8.4-1.1,0h.2Z"/>
        <path class="st6" d="M310.6,669.9h-100.7c-3.2,0-7.5,0-7.5-3.6s4.7-3.4,7.6-3.4c4.7,0,9.3.8,14,.8h172c9.6,0,9.8-.3,13.5-9.6,3.2-8,6.3-16,10.1-23.7,3.3-6.8,8-9.1,14.5-4.4,5.5,3.9,11.5,2.4,17.2-.4,2.3-1.1,5.3-3.9,7.1-.4,1.7,3.3-.8,6.2-3.5,8.3-2.3,1.7-5,2-7.8,2.1-10.1.2-15.3,4.1-18.7,13.7-1.3,3.7-2.6,7.3-4.1,10.9-3,7.4-6.2,9.5-14.3,9.5h-99.5v.2Z"/>
        <path class="st6" d="M414.9,563.1c-3,10-6,20.7-11.5,30.4-2,3.5-6.5,5-10.6,5.5-4.4.5-6.8-3-5.1-7.3,2.3-5.8,4.9-11.5,7.3-17.2,1.7-4.2,2.3-8.6-2-11.5-4.2-2.8-11.8-1.4-15.1,2.2-6.5,6.9-9.3,15.7-12.9,24.1-2.7,6.3-6.3,8.9-13,8.8-4.1,0-6-1.3-4.2-5.7,4.1-10.3,8.1-20.7,12.1-31,4.2-10.7,8.1-21.5,12.5-32.1,2-5,11.3-7.9,15.9-5.5,2.1,1.1,1.1,2.5.5,4-2.5,6.1-5,12.3-7.4,18.4-.5,1.3-1,2.6-1.2,3.9-.8,5.8,2,8.3,7,5.5,6-3.3,12.1-2.7,18.3-2.6,5.2,0,9.6,4.8,9.4,10.1h0Z"/>
        <path class="st6" d="M675,625.1c-3.3-3.2-7.4-.3-11.1.4-.4,0-.7.2-1.1.4-4.9,2-9.5,1.6-14-1.1-2.3-1.4-4.7-2.5-7.7-2-10.2,1.7-19.5,5.7-27.5,12.1-6.4,5.2-10.6,11.8-9.8,20.8.7,7.9,9.4,16.5,16.6,15,11-2.3,21.8-4.7,33-1.8,4.6.8,7.3-1.1,9-5.5,3.6-9.5,7.8-18.7,11.4-28.2,1.2-3.2,4.9-6.8,1.4-10.2h-.2ZM652.4,645.2c-.2.9-.6,1.8-1,2.7-.3.8-.6,1.6-1,2.4-.7,1.5-1.7,2.6-3,3.5-1.5,1-2.9,2-4.5,3-1.5.9-3.1,1.7-4.9,1.9h0c-.8.3-1.7.6-2.7.7-1.7,0-3.4-.2-5-.7-.8-.2-1.5-.6-2.1-1-.8-.3-1.6-.7-2.3-1.4-1-.5-2.1-1-2.6-2.2-.6-1.3-1.3-2.7-1.3-4.1s0-2.5.6-3.5h0c.2-1,.6-2,1.1-2.9.8-1.7,2-3.3,3.6-4.3s1.7-.8,2.5-1.3c.7-.4,1.2-.8,1.9-1,.5-.3,1-.6,1.5-.9,1.5-.7,2.9-1,4.5-1.1,3.9-.3,9.1-1.2,12.3,1.5,1.5,1.2,1.9,3,2,4.8.4,1.3.5,2.6.2,4h.2Z"/>
        <path class="st6" d="M302.7,554.3c-2.2-2.6-5.4-1-8.2-.6-6.1.8-12.2,2.9-18.5.9-2.8-.9-5.5-2.2-6.9-1.9-17.1,1.4-29.1,8.4-36.2,22.4-2.9,5.7-3.1,11.8,1.5,17.5,5.1,6.2,13,8.1,23.4,4.9,5.9-1.9,11.6-2.4,17.6.2,6.2,2.6,12.6,0,14.8-5.6,3.9-9.9,7.7-19.9,11.4-30,.9-2.4,3.4-5.1,1.2-7.6v-.2ZM276.5,581.6c-1.3,1.3-2.7,2.4-4.1,3.5-1.5,1.1-2.9,2.3-4.8,2.3s-.4,0-.5,0c-1.1.4-2.2.6-3.4.6s-2.9,0-4.4,0c-1.5-.2-2.6-1.1-4-1.4-2.4-.5-5-2.6-6-4.8-1-2.4-.3-5.4,1.2-7.5.8-1.1,1.9-2,2.7-3.1.9-1.1,1.8-2.3,2.9-3.3,1.1-.9,2.4-1.6,3.6-2.5.5-.4,1.1-.6,1.6-.6,1-.9,2.1-1.5,3.6-1.5.1,0,.3-.2.4-.3.8-.3,1.6-.2,2.4-.2h2.5c1.5,0,3.1.3,4.5.9,1.6.6,3,1.6,4.2,2.8s2.1,2.1,2.3,3.6c0,.7,0,1.5-.2,2.3-.2,3.6-2.2,6.8-4.7,9.4h.2Z"/>
        <path class="st6" d="M481.3,641.9c.7-.7,1.4-1.3,2.3-1.7h0c-.8.4-1.5,1-2.2,1.7h0Z"/>
        <path class="st6" d="M521.8,631.4c-5-7.1-12.3-8.2-20.6-7.8-4.1-.5-8.5.5-13,1.2-16.2,2.7-27.4,11.2-32.4,27.2-1.4,4.4-.5,8.2,2.9,11.2,4.6,4.1,9.9,6.3,16.3,6.9,9.5.9,18-2.3,26.8-4.5,11.3-2.8,17.7-10.8,21.8-21,1.8-4.5,1.2-9.1-1.8-13.2h0ZM504.9,646c-.6,1.4-1.5,2.6-2.1,3.9-.5,1.1-1,2.3-2,3-.1,0-.3.2-.4.2-.5.9-1.2,1.6-2.1,2.1-1.1.7-2.3,1.3-3.4,1.9-1.1.6-2.1,1.1-3.2,1.4-1.2.3-2.4.7-3.6.8-1.3.2-2.6,0-3.9,0-1.6,0-3.4,0-4.8-.9-2.2-.3-4.5-1.8-4.7-4.1h0c-.3-.4-.6-.7-.7-1-.4-.9-.3-2-.2-3,.1-1,.3-2,.8-2.9.3-.4.5-.7.6-1.2.1-.6.3-1,.7-1.5.2-.2.3-.2.5-.3,0-.3.2-.6.3-.8.6-1.1,1.8-1.7,2.8-2.6,1-.8,1.8-1.7,2.9-2.4.5-.3.9-.5,1.3-.9.1,0,.3-.3.4-.4,1.2-1.3,3.4-1.6,4.9-2,1.3-.4,2.4-1,3.7-1.2,1.5-.2,2.9.4,4.4.6,1.5.2,2.9.5,4.2,1.2.7.3,1.3.8,2,1.2.5.3,1.1.7,1.5,1.1.8,1,1,2.3,1,3.5s-.1,3-.7,4.4h-.2Z"/>
        <path class="st6" d="M546.3,624.8c11,.3,12.1,1.4,13.1,12.4.2,1.7.6,3.5,1.2,5.1,2.1,6,5.3,6.8,9.8,2.4,4.6-4.5,9.3-9,13.7-13.8s10-6.5,16.2-7.2c1.6-.2,3.8-.9,4.7,1.1s-.8,3.2-2.1,4.4c-9.3,9.3-18.1,19.1-28,27.7-10.9,9.6-20.7,20.3-31.2,30.2-5.1,4.9-10.8,8.1-18.3,6.4-3.7-.8-3.8-2.3-1.6-4.6,3.8-4,7.4-8.2,11.7-11.6,12.2-9.8,13.2-12,9.1-26.7-1.6-5.6-3.5-11.1-5.3-16.7-3-9.2-2.8-9.5,7-9.2h0Z"/>
        <path class="st6" d="M511.3,553.9c2.7.2,3.9,0,5,.3,6.5,2,12.6,2.3,19.1-1,4.7-2.3,10.4-.8,15.5,0,5.3.7,8.2,5.9,6.4,11-3.4,9.7-7.1,19.4-10.9,28.9-1.9,4.6-9.9,7-14,4.5-2.3-1.4-1.9-3.5-1.1-5.7,2.3-6.8,4.6-13.7,6.7-20.5,2-6.4,0-9.5-6.5-9.7-6.7-.2-12.4,1.8-15.4,8.4-3.5,7.6-6.7,15.3-10.3,22.9-2.2,4.6-11.6,7.2-15.9,4.6-1.8-1.1-1.6-2.4-.7-4,5.5-10.4,8.6-21.7,12.7-32.6,1.9-5,5.4-7.5,9.3-7.1h.1Z"/>
        <path class="st6" d="M687.1,554.1c-17.2-4.6-39.4,1.2-49.5,16.8-6.9,10.7-6.3,18.6,2.1,24.3,10.1,6.8,36.9,3.8,45.5-4.8s1.1-1.3,1.1-1.9c0-1.2-1.2-1.4-2.2-1.4-4.3-.2-8.5,0-12.7,1.6-5.4,1.8-10.8,3-16.6,1-4.3-1.4-6.1-4.4-5.7-8.4.4-4.1,4-4.4,7.1-4.5,5.1,0,10.2,0,15.3,0h0c5.3,0,10.6.2,15.9,0,3.6-.2,7-.9,8.3-5.1,2.2-7-1.6-15.5-8.7-17.4v-.2ZM680.9,567.8c-.7.9-2,1.3-2.9,1.9-1.1.7-2.3,1.3-3.6,1.5-2.9.4-5.9-.3-8.9-.5-2.3-.2-5.1,0-7.1-1.6-1.4-1.1-2.5-4-.9-5.4,0,0,.2-.2.4-.3,0,0,.2-.2.3-.3.4-.4,1-.6,1.6-.8,1.5-.5,3.2-.6,4.7-.8,3.3-.5,6.5-1.3,9.8-1.5,2.3-.2,4.3,0,5.7,2.1,1.1,1.6,2.3,4,.9,5.7h0Z"/>
        <path class="st2" d="M621.5,556.3c-6.7-3.8-13.8-4.6-21.3-3.4-13.7,2.1-26.1,7.5-32.5,20.1-6.2,12.3-4.5,21.1,10.3,25,13.6,3.5,25.8-.4,37.6-6.8,1.5-.8,2.7-2.1,1.9-3.6-.7-1.2-2.3-1.5-4.2-1.1-6.2,1.5-12.4,3.4-18,3h-4.5c-5.9-.2-9.1-2.8-8.8-7.7.3-5.9,4.9-5,8.7-5.1,9.6-.4,19.1-.7,28.7-1,5.3-.2,8.2-3.1,8.5-8.4.3-5-2.1-8.5-6.4-11ZM612.8,567.3c-.7,1.7-2.4,2.4-4.1,2.9,0,0-.2,0-.3.2-1.7.8-3.8.4-5.6.5-2.6.3-5.3,0-7.9.5-2,.3-4,.2-5.8-.7-1.2-.6-2-1.8-1.4-2.9,0,0,0-.2,0-.3-.2-1,.3-2,1-2.7,1.7-1.8,4.3-2.6,6.3-3.8.2,0,.4,0,.5,0,1.2-.9,2.8-1.3,4.1-1.6,2.3-.6,5-1,7.1.3.2,0,.3.2.4.3.2,0,.4,0,.6.2.3,0,.6.2.9.3.6.2,1.2.4,1.7.7.4.2.8.4,1.1.7.3,0,.5.4.6.6,1.6.9,1.5,3.4.9,4.9h0Z"/>
        <path class="st2" d="M484.4,562.3c-1.2-4.7-4.8-7.2-9.1-8.2-9.2-2.1-18.2-2.4-27.5.8-12.3,4.2-21.3,11.2-25,24-2.7,9.3,1.7,16.8,11.1,19.1,11.7,2.8,22.9.8,33.6-4.3,2.4-1.2,7-1.9,5.9-5.1-1-3.1-5.3-1.7-8-1-7.1,1.8-14.3,2.2-21.5,2-5,0-6.5-3-5.9-7.4.7-5.2,4.6-6.3,9-6.5,5.1-.2,10.2,0,15.3,0s8.7-.3,13,0c10.6,1,10.9-6.5,9.1-13.4h0ZM468.1,568.9c-1.3,1.1-3,2-4.7,2.2h-5.1c-1.1,0-2.3,0-3.4,0-.6,0-1.2,0-1.7-.2-.7.2-1.4.2-2.1,0-.2,0-.4-.2-.5-.3h0c-.7,0-1.5-.2-2.1-.5-.3-.2-.5-.5-.7-.8h-.2c-.4,0-.6-.4-.7-.8-.2,0-.4-.2-.5-.3-.6-.6-.7-1.3-.6-2.1.1-1.6.6-3.6,2-4.5s3.2-.9,4.8-.8c1.1-.4,2.2-.5,3.3-.5h.4c.4,0,.7,0,1.1-.2,2.6-.4,5.7-.5,8.3.2,2,.6,3.4,1.8,3.8,3.9.3,1.7.2,3.5-1.2,4.7h-.2Z"/>
        <path class="st6" d="M714.1,594.3c8.7-.2,8.9.2,5.8,8.2-7.6,19.6-15.3,39.2-23,58.7-2.1,5.2-6.4,7.9-11.6,8.7-5.5.9-7.5-2-5.6-7,8-21.1,16.3-42.2,23.9-63.4,2.2-6.1,6.7-4.8,10.4-5.2h0Z"/>
        <path class="st6" d="M316.1,598.1c-9.1,0-10.3-1.7-6.6-9.3,2.1-4.4,4.5-8.7,6.5-13.2,1.7-3.7,2.3-7.5-.7-11-2.2-2.6-1.8-5,.6-7.2,5.1-4.7,11.3-8.1,13.1-15.9.7-3.1,10.6-3.7,13.5-1.6,2.1,1.6,1,3.4.6,5.3-1.2,4.6-1.5,8.8,5.3,8.8s2.7,1,1.7,3c-1.6,3.4-2.9,6.6-7.7,6.9-5.9.4-7.8,5.2-9.1,10.1-1.6,6.1-4.1,11.7-6.9,17.4-2.3,4.7-5.4,7.6-10.2,6.6h0Z"/>
        <path class="st6" d="M461.1,542.1c-1.6,0-2.4-1.2-3-2.4-.8-1.3.2-2.2,1.2-2.9,4.9-3.4,9.9-6.8,14.8-10.2,3.1-2.1,4.8.4,6.2,2.3,2,2.5-.8,3.4-2.2,4.2-4.7,2.7-9.5,5.2-14.3,7.8-.9.5-1.8.8-2.7,1.2h0Z"/>
        <path class="st6" d="M605.5,541.3c-1.7.2-2.7-.3-3.4-1.4-.8-1.3,0-2.3.8-3,5-3.7,10-7.4,15.1-10.9,1.2-.8,3.1-.5,4.3,1,1,1.2,1.1,2.7,0,3.7-5,4.7-11,8-16.9,10.6h.1Z"/>
        <path class="st1" d="M717.4,352.7h1.1c-2,3.7-5.6,5.8-8.4,8.8.5-4.5,4.3-6.4,7.3-8.8h0Z"/>
        <path class="st4" d="M548.4,165c-.5-.6-1-1.1-1.5-1.6-.3-.3-.7-.6-1-.9h0c.8.8,1.6,1.7,2.4,2.5h0Z"/>
        <path class="st4" d="M539.5,158.8c.8.6,1.6,1.3,2.3,2.1.2,0,.4-.1.6,0h0c-.7-1-1.5-1.9-2.1-2.9-.2,0-.4-.1-.5-.3,0,0-.2-.2-.2-.3v1.6-.2Z"/>
        <path class="st4" d="M537.1,149.8c0,.3.4.5.6.7.4.4.7.9,1.1,1.3.2.2.3.5.5.7h0v.2c.3.5.7,1,1,1.5.3-.1.7,0,1,.3,2.2,2.7,5,4.9,7.6,7.2-6-6.2-12-12.3-18-18.5.4.5.7,1,1.1,1.5h0s.2,0,.2.1c1.5,1.1,2.6,2.5,3.6,4,.4,0,.8.3.9.8l.3.2Z"/>
        <path class="st4" d="M555.8,169.2h.5c-.7-.7-1.4-1.5-2.1-2.2.6.7,1.1,1.5,1.6,2.2Z"/>
        <path class="st4" d="M569.4,189.5c0,0-.2-.1-.3-.2-.5-.2-.7-.7-.7-1.2-.3-.4-.5-.7-.8-1.1-.6-.4-1.2-.8-1.8-1.3v1.4c0,0,.3.2.4.3.3,0,.5,0,.7.1.6.4,1.1.9,1.5,1.4.3.2.5.4.8.6,0,.1.3.2.4.3,0-.1-.2-.2-.3-.4h0Z"/>
        <path class="st4" d="M575.5,196.1c-.2-.4-.4-.8-.6-1.2h-1.5c.4.4.9.8,1.4,1.2.4.2.8.5,1.1.8,0-.3-.3-.5-.4-.8Z"/>
        <path class="st4" d="M583.4,208.2v2.6c.2-.6.5-1.1.8-1.7-.3-.3-.5-.6-.8-.9h0Z"/>
        <path class="st4" d="M583.6,204.2c.3.7.6,1.4,1,2,0,.1,0,.2.2.3,0-.1,0-.2,0-.3-.2-.8-.8-1.5-1.3-2.1h0Z"/>
        <path class="st4" d="M571.7,216.7c-.2.4-.5.8-.8,1.2h0s.2,0,.3-.1c1-.4,2-.9,3-1.3.2-.1.4-.3.5-.4-1,.2-2.1.5-3.1.7h0Z"/>
        <path class="st4" d="M588.7,205.8c-3.4-4.2-6.8-8.4-10.3-12.4.5.7.9,1.5,1.5,2.2s1.1,1.5,1.6,2.2c0,0,0,.1,0,.2,1.9,2.7,4.1,5.2,6.2,7.7.6.6,1.1,1.3,1.6,2h0s0,.1.2.2c.3.4.2.9,0,1.2.5.2.9.5,1,1.2.2.9,0,2-.6,2.8-.3.4-.9.6-1.3.4-.2.4-.4.7-.7,1,0,.1-.2.2-.3.3.5.4.7,1.2,0,1.6-.9.7-1.9,1.4-2.8,2.2h0c-.9,1-2,1.9-3.2,2.7,1.6-.9,3.1-1.8,4.7-2.8,6.1-3.7,6.9-6.9,2.3-12.6h0Z"/>
        <path class="st4" d="M574,225.4c-3.1.7-6,1.9-9,3v.5h-1.3c0,.4,0,.8-.6,1h-.3c-3.1,1.1-6.2,2-9.4,2.8-2.3.9-4.6,1.8-6.8,2.8-2.1,1-4.2,1.7-6.4,2.3-2.4.6-4.7,1.4-7.1,2.1-2.2.7-4.5,1.3-6.8,1.9-2.3.6-4.6,1-6.8,1.7s-4.3,1.6-6.5,2.2c21.6-3.5,41.8-10.5,61-20.6v.3Z"/>
        <path class="st4" d="M529.1,237.4c-.2.2-.4.4-.6.6,1.7-.3,3.4-.7,5.1-1.1h-2.8c-.5,0-1,.2-1.6.2,0,0,0,.2,0,.2h0Z"/>
        <path class="st4" d="M568.6,224.8c1.2-.4,2.4-.8,3.6-1.2,0-.2,0-.3,0-.5-1,.3-2,.5-3,.4-.2,0-.4-.1-.6-.2-.2.1-.5.3-.7.4.6.1.8.6.8,1.1Z"/>
        <path class="st4" d="M453.1,242c-1.1-.4-2.4-.3-3.4-.8,1,1.5,2.6,2.5,5,2.8,1.6.2,3.1.4,4.7.6-2.1-.8-4.2-1.8-6.3-2.6h0Z"/>
        <path class="st4" d="M460.2,242.3h-.7c.9.4,1.9.7,2.9.9.2,0,.3-.1.5-.2-.8-.3-1.7-.6-2.6-.8h0Z"/>
        <path class="st4" d="M498.2,243.8c.4.2.5.7.4,1.1h.6c.8-.6,1.7-1,2.6-1.3-1.2,0-2.4.2-3.6.3h0Z"/>
        <path class="st4" d="M466.2,242.5c.5.4.6,1,.3,1.5.8,0,1.6.2,2.5.2,0-.5.2-1.1.8-1.1h.3c2.9-.3,5.8-.2,8.7,0,3.6-.1,7.3-.4,10.9-.7h-23.7s.2.1.3.2h0Z"/>
        <path class="st4" d="M453.2,224.7v1.3c.1,0,.2.1.3.2.2.2.3.4.4.6v-8.1c-.3,1.7-.7,3.4-1.2,5,.3.2.6.5.6,1h0Z"/>
        <path class="st4" d="M452.7,238.3h.1c.1,0,.2,0,.4.1.2,0,.5.2.7.2v-4.1h0c-.2.4-.7.5-1.2.4v.2c0,1-.1,2,0,3v.2Z"/>
        <path class="st4" d="M453.3,211.9c.2,0,.4,0,.6.1v-4.2.3c-.2,1.3-.3,2.5-.5,3.8h-.1Z"/>
        <path class="st4" d="M451,212.8c.2-1.1.3-2.3.5-3.5-.4,2.6-.8,5.2-1.2,7.8.2-1.5.5-2.9.7-4.4h0Z"/>
        <path class="st4" d="M470.8,164h-2.3c0,.2,0,.4-.1.6h1.5l1.2-.6h-.3Z"/>
        <path class="st4" d="M474,156.4c0-.2.2-.3.4-.4s.5-.2.7-.3c-.9.1-1.9.3-2.8.5-.3,0-.5.1-.8.2h0c.5.1,1,0,1.4,0h.3c.3,0,.5,0,.7.2h0Z"/>
        <path class="st4" d="M474.4,152c-.5,0-1,.1-1.4.2h4c.4,0,.6.3.8.5h0v-.2h3.1c.2-.4.5-.7,1-.7h.6c1-.2,2.1,0,3.1,0h4.5c.7,0,1.3-.2,2-.4,1.1-.3,2.2-.8,3.3-1.2,1.1-.4,2.3-.7,3.5-1.1,2-.6,4-1.2,5.8-2.3.5-.3.9-.1,1.2.1.3,0,.7-.2,1-.3l3-1.5h0c.6-.9,1.5-1.2,2.3-1.8.7-.5,1.4-1.1,2.1-1.6-12.1,7.8-25.9,9-39.8,10v.3Z"/>
        <path class="st4" d="M508.2,149.8c-1.4.5-2.9.8-4.2,1.4-.4.2-.9.4-1.3.5h.9c1.5-.7,3.2-1.2,4.7-1.9h-.1Z"/>
        <path class="st4" d="M457.2,186.3c0-.1,0-.3.1-.4.8-2.7,1.4-5.5,2.3-8.1.9-2.7,1.9-5.3,2.8-8,.5-1.4.9-2.9,1.2-4.4-3.5,8.8-6.3,17.8-8.6,26.9.3-.8.6-1.7.9-2.5.3-1.2.6-2.3,1.2-3.5h.1Z"/>
        <path class="st4" d="M475.3,160c-.4,0-.9.1-1.3.2.2.7.4,1.4.7,2,.2,0,.3.2.5.3,0-.8.1-1.7.1-2.5h0Z"/>
        <path class="st4" d="M467.8,158.8h-.3c-.6,1-.8,2.2-1,3.4,0,.3,0,.6-.1.8.1-.4.2-.8.3-1.2.2-.7.8-.8,1.4-.6h.1c-.4-.4-.5-1.2,0-1.6-.2-.2-.4-.4-.4-.7h0Z"/>
        <path class="st4" d="M453.4,199.6c-.3,1.4-.6,2.7-.8,4.1.2-.6.4-1.1.6-1.7,0-.8,0-1.6.2-2.4h0Z"/>
        <path class="st4" d="M459.2,187.1v.2c-.2.8-.5,1.6-.8,2.4-.1.3-.2.6-.3.9h.4c.1-.4.2-.9.3-1.3.2-.7.3-1.5.4-2.2h0Z"/>
        <path class="st4" d="M449.7,226.2v-.4c0-2,.1-4,.3-5.9-.6,5.2-1.1,10.4-1.4,15.7v2.3c0-.4.1-.8.2-1.3.2-1,.3-2,.3-3.1s0-1.8.1-2.6c-.2-1.6,0-3.1.5-4.7Z"/>
        <path class="st4" d="M502.7,247.2c-2.6-.1-5.2-.3-7.8-.2-3,.1-5.9.7-8.9.7s-2.9,0-4.3-.2c-1.3-.2-2.6-.5-3.8-.7-2.4-.3-4.9-.4-7.4-.5,6.7,1,13.6,1.9,21.1,1.6,3.7.2,7.9-.2,12.3-.7h-1.2Z"/>
        <path class="st4" d="M576.8,223.5v.4c.9-.5,1.8-.9,2.6-1.4-.9.4-1.8.8-2.7,1.1h.1Z"/>
        <path class="st4" d="M567.5,215.5h-2.4v.6l2.4-.6Z"/>
        <path class="st4" d="M567.8,181.5c-.7-.7-1.4-1.5-2-2.2.5.9.9,1.8,1.4,2.7.2-.2.4-.4.7-.4h-.1Z"/>
        <path class="st4" d="M442.9,191.5c-.4,1-.7,2-1.1,3.1v1.9c.7-2.2,1.3-4.4,2.1-6.6-.3.5-.7,1.1-1,1.6Z"/>
        <path class="st4" d="M447.9,178.1c0,.2-.2.4-.3.5v.4c0,.1,0,.2-.1.3,0,0,.1.1.2.2,2.4-6,5.1-11.9,8.3-17.7h-.7c-.5.9-1,1.8-1.5,2.7-.4.6-.7,1.1-1.1,1.7-1.2,4.1-2.9,8-4.7,11.9h0Z"/>
        <path class="st4" d="M398.6,206.4c-.5-1.1-1.2-2.1-1.9-3.1-1.1-1.8-2.3-3.8-2.3-5.9-.1-.2-.2-.5-.3-.7h-.9c1.7,4,3.8,7.9,6.3,11.7h0c-.3-.6-.6-1.1-.8-1.7,0-.1-.1-.2-.2-.3h0Z"/>
        <path class="st4" d="M418.8,228.2c-1.4-.9-2.8-1.9-4.1-2.9,1.8,1.6,3.7,3.1,5.8,4.5v-.5c-.5-.4-1.1-.8-1.6-1.2h0Z"/>
        <path class="st4" d="M440.1,202.8c.4-1.5.8-3.1,1.3-4.6h-.5c-.3,1.5-.6,3-.8,4.6Z"/>
        <path class="st4" d="M435,227.7c0,.6,0,1.3-.1,1.9v1.1h-.1c0,.5-.2,1-.4,1.4v.2c.4-.8.7-1.8.9-3,.3-1.9.2-3.9.3-5.8-.2,1.4-.4,2.7-.5,4.1h0Z"/>
        <path class="st4" d="M423.9,231.8c-.5-.3-.9-.6-1.4-1h-.6c1.5,1,3,2,4.6,3,2.5,1.5,4.6,1.7,6.2.6-2.6,1.3-6.5-1.2-8.7-2.7h-.1Z"/>
        <path class="st4" d="M391.3,188.6h-.8c.7,2.5,1.6,5,2.6,7.4v-2.2c-.6-1.7-1.2-3.4-1.8-5.2h0Z"/>
        <path class="st4" d="M389.5,181.8c-.4-1.9-.7-3.8-.9-5.7h-.4v-3.6c-.3-4.3-.3-8.7,0-13-1.1,9.5-.5,19.1,2,28.4v-2.8c-.3-1.1-.5-2.2-.8-3.3h0Z"/>
        <path class="st4" d="M406.4,125.7s0,0-.1.2c.7-.3,1.5-.7,2.3-.8.3-.6.6-1.2.9-1.8-1,.6-2,1.2-3,1.5.1.3.1.6,0,1h0Z"/>
        <path class="st4" d="M403,124.7s-.2,0-.3,0c-.4-.2-.5-.8-.4-1.2,0-.2,0-.3.1-.5-.9.9-1.6,1.8-2.2,2.9-.6,1-1.2,2-1.7,3,.2-.2.3-.4.5-.6,1.2-1.4,2.6-2.3,4.1-3.4h-.1Z"/>
        <path class="st4" d="M433.7,114.7c-1.5.2-3,.6-4.5,1.1h9.4c-1.3-1-3.1-1.3-4.9-1.1Z"/>
        <path class="st4" d="M441.4,115.8h.2v.4h0c.2.4.2.8,0,1.1v2h.7v6.9h.2v2.3c.1.2.2.4.2.6-.1,2,.3,4.1,1,6,.2,0,.3,0,.5.2.8.5,1.6,1.1,2.2,1.8-3-4.7-3.9-10.3-3.8-16.3.1-3.4-.5-6.1-3.5-7.3.8.5,1.5,1.2,2.2,2.1v.2Z"/>
        <path class="st4" d="M416,118.2c2.7-.7,5.2-1.7,7.8-2.7-4.4.8-8.8,1.7-13.2,3.1,1.6-.4,3.4-.4,5-.4h.4Z"/>
        <path class="st4" d="M451.4,143v1.2c.9.4,1.7.9,2.5,1.4h1.1c-.7-.6-1.5-1.2-2.4-1.9-.5-.4-.9-.8-1.3-1.2-.8-.7-1.5-1.3-2.2-2,.5.8.9,1.7.9,2.5h1.4Z"/>
        <path class="st4" d="M456.1,146.5v.7c.4.4.9.7,1.2,1.1,1,1.1,1.8,2.5,1.9,4,.1,1.4-.3,2.6-.9,3.8-.7,1.3-1.5,2.6-2.2,4,0,0,0,.1-.1.2v1.2h0c4.9-9,5.5-10.5,0-15h.1Z"/>
        <path class="st4" d="M421.5,102.4c.6.4,1.3.5,2.1.5s1.1,0,1.6-.3c-.1-.2-.2-.4-.2-.7-.2-.2-.3-.4-.3-.6h-.4v-1h-.2c-1.3.2-2.6.5-3.8.6.2.6.8,1.2,1.3,1.5h-.1Z"/>
        <path class="st4" d="M433.8,100.7c.4-.3.7-.6,1.1-.8h-1.6c-1.4,1.5-3.2,2.8-5.1,3.8-.5.2-.9.5-1.4.6,2.5-.6,5.1-1.2,7.8-1.7-.9,0-1.7-1.2-.8-1.9Z"/>
        <path class="st4" d="M422.2,104.9c-1.7-.3-3.4-1.7-4-3.4,0,.8,0,1.6.2,2.4.5,1.7,2.8.7,4.7,1.2.2,0,.4,0,.5,0-.5,0-1,0-1.5,0h0Z"/>
        <path class="st4" d="M463.7,71.1s.2,0,.2,0c.8-.4,1.5-.8,2.3-1.1h0c-.9,0-1.8,0-2.6.5.1.2.1.5,0,.8h.1Z"/>
        <path class="st4" d="M445.6,77.5c-2.9,2-5.8,4.1-8.6,6.3,2.3-1.2,4.6-2.4,6.9-3.5.3-.2.6-.4.8-.6-.4-.4-.5-1,0-1.5.3-.3.6-.5.8-.7h.1Z"/>
        <path class="st4" d="M462.9,67.7c-5.8,2.5-11.2,5.7-16.3,9.2,1-.6,2-1,3.1-1.3.4,0,.7,0,1,.3,0,0,.2,0,.2-.2,2.1-1.1,4.1-2.7,6.4-3.6.4-.3.7-.6,1.1-.9,3.1-2.5,7.9-5.4,11.2-1.8.8.8,1.8,2.1,2.3,3.5-.6-4.2-4.7-6.9-9-5.1h0Z"/>
        <path class="st4" d="M440.9,99.5c1.2-.2,2.5-.6,3.6-1h-1.5c-.7.4-1.4.7-2.2,1h.1Z"/>
        <path class="st4" d="M467.3,81.6v-1.4c-.5.8-1,1.6-1.5,2.4-.4.9-.7,1.7-1.2,2.6-.2.4-.6.5-1,.5-.2.2-.3.4-.5.6-3.2,4.1-6.9,7.8-11.2,10.7,6-3.8,10.8-9.1,15.5-14.5v-.9Z"/>
        <path class="st4" d="M470.6,78.1c-.3.5-.7,1.1-1.1,1.5v.2c.5-.5.9-1.1,1.4-1.6s.7-1.4.8-2.2c-.3.7-.7,1.4-1.1,2.1h0Z"/>
        <path class="st4" d="M437.9,87.1c.1,0,.3,0,.4,0,0,0,.2,0,.3.2.2,0,.4-.2.6-.4.4-.2.8-.2,1,0,.2,0,.4-.3.6-.4h-1.2c-.2,0-.3,0-.5,0l-.5.2c-.6.2-1.2,0-1.5-.6-.1,0-.2,0-.4.2.5,0,.9.3,1.1.7h.1Z"/>
        <path class="st4" d="M513.1,129.1c0,.5.2,1,.2,1.5.6-1.9,0-4-1.8-5.5-.2-.2-.5-.4-.7-.6,1,1.4,1.8,2.9,2.3,4.6Z"/>
        <path class="st4" d="M505.3,136.9c.7,0,1.4-.3,2-.6.6-.2,1.1-.5,1.6-.7-1.2.5-2.4.9-3.7,1.3h.1Z"/>
        <path class="st4" d="M487.8,133.2c.2-.8.5-1.6.8-2.5-.3,0-.6-.2-.7-.5v-.2c-.4.8-.8,1.6-1.1,2.4.2.4.7.6,1.2.7h-.2Z"/>
        <path class="st4" d="M485,133.8c-.4,0-.7-.3-.8-.7-.6,0-1.3-.5-1-1.4.1-.4.2-.9.4-1.4-.2.3-.3.6-.5.9-.6,1.1-.6,1.7.5,2.4.6.4,1.2.6,1.9.8-.2-.2-.4-.4-.5-.6Z"/>
        <path class="st4" d="M491.6,137.5c-2.1-.3-4.2-.5-6.3-1-1.6-.4-3.7-1.2-4.5-2.9-.6-1.4,0-2.8.8-4,1.6-2.8,3-5.6,4.6-8.4.8-1.4,1.7-2.9,2.8-4.2v-.3c.4-1.2,1-2.4,2.3-2.6,1.6-.3,3.3.4,4.8,1,1.4.5,2.9,1.1,4.3,1.8-1.1-.7-2.1-1.4-3.2-2.1-3.2-2.1-6.5-1.8-8.7,1.6-2.7,4.1-5.1,8.3-7.4,12.6-2,3.9-1,6.9,3.5,8,2.1.5,4.2.7,5.5.9,1.2,0,2.4-.2,3.6-.3-.7,0-1.5-.2-2.2-.3v.2Z"/>
        <path class="st4" d="M503.8,57c.4-.3.9-.5,1.3-.7h-.9c-1.1.3-2.2.6-3.4.9,1,0,2-.2,2.9-.3h.1Z"/>
        <path class="st4" d="M529,50.3v-.2h0c0,0-.3,0-.5,0-.5,0-1.1,0-1.6,0h-2.8c-.2.4-.5.6-1,.6-2.2,0-4.4.3-6.6.9,0,0-.2.2-.2.3.2,0,.3.3.3.4,3-.4,6.1-1,9.1-1.3,1,0,1.6,1,1.1,1.7.6.5.3,1.8-.6,1.9h0c-2.4,1.1-5,1.5-7.6,1.7h-.3c.4,0,.7.4.7.7,1.2,0,2.4-.2,3.6-.2s1.3,1.1.8,1.7c1-.4,2-1,2.9-1.7,1.4-1.1,2.4-2.6,2.8-4.4,0-.6.2-1.2.2-1.7v-.4l-.2.2Z"/>
        <path class="st4" d="M501.6,52.2c-.6.5-1.4,0-1.7-.4-.3,0-.6.2-1,.3h.5c.5,0,.8.3.9.6.5,0,1,0,1.5,0,.5,0,.8.4,1,.9.4,0,.9-.2,1.3-.3-.2-.5,0-1.1.5-1.4,1.1-.5,2.2-1,3.3-1.3-2.1,0-4.6,0-6.3,1.4h0Z"/>
        <path class="st4" d="M532.2,50.8c-.4-3.4-2.8-3.8-5.6-3.7-5.2.2-10.3.8-15.3,1.8,1.2,0,2.5.3,3.6.5.6,0,1.3-.2,1.9-.3,3.9-.7,8.3-2.1,12.3-1.1,2.5.6,2.1,3.4,1.7,5.3-.5,2-1.6,3.8-3.3,5.1.2,0,.4,0,.6,0,4-.9,4.3-4.1,4-7.4h0Z"/>
        <path class="st4" d="M494.8,54.7c-1.3.4-2.4,1-3.3,1.9-.6.7-1,1.6-1.4,2.4-.3.5-.5,1-.8,1.5,1.3.8,2.5,1.5,3.8,2.3.1,0,.5.3.5.3.6.2,1.7,0,2.4-.2,1.1-.2,2.3-.6,3.4-.9-.4-.3-.6-1-.4-1.4-2.5.2-5,.3-7.5,0-.9,0-1.4-1.2-.7-1.9,1.2-1.1,2.6-1.9,4.1-2.4-.1-.4-.1-.8.3-1-.3,0-.5-.3-.6-.5h.2Z"/>
        <path class="st4" d="M487.7,61.9h0c.4,2,2.2,2.3,4.2,2.6-1.4-.9-2.8-1.7-4.2-2.6Z"/>
        <path class="st4" d="M478.1,107.2c-4.6,1.4-10.4.8-16,1.6-4.1.6-6.1,3.2-4.7,7.7.4,1.3,1,2.6,1.6,3.8v-.2c-.4-1.1-.8-2.3-.9-3.4-.3-1.9-.3-4.1.9-5.5v-.3h.3c.4-.3.8-.6,1.3-.8,1.8-.6,3.9-.9,5.8-1.2,1.7-.3,3.3-.5,5-.6,1.6-.2,3.3-.2,4.9,0,1.1,0,2.3,0,3.4.2.6,0,1.2.2,1.7.3.4,0,.8,0,1.2.3,0,0,.1,0,.2,0,.2,0,.3,0,.5.2h0c1.4.4,2.4,1.6,2.1,3.1-.3,1.9-1.8,3.7-2.9,5.1-.5.6-1,1.2-1.5,1.7v1.2h-1c-.1,0-.2.3-.4.4-.8,1.3-1.6,2.5-2.5,3.6-1.3,2.1-2.8,4.3-5.1,5.4v.2h-.4s-.2,0-.2.1c-1.9.7-3.6.4-5.1-.5,2.7,2.4,5.8,2.4,8.1-.5,3.5-4.2,6.9-8.6,9.7-13.3,3.5-5.8,1.7-8.7-5.9-8.7h-.1Z"/>
        <path class="st4" d="M525.7,110.4c-.9-.8-1.9-1.4-3-1.9h0c-.2,0-.4-.2-.7-.3-.6-.3-1.2-.7-1.7-1.1.5.8,1.3,1.6,2.3,2.4,1.9,1.4,3.9,2.7,5.9,4-.9-1-1.7-2.1-2.7-3h0Z"/>
        <path class="st4" d="M531.5,113.1h-.4c.2,0,.3.3.5.4,1,.8,2.5,1.6,3.8,1.4-1.4-.3-2.7-1-3.9-1.8h0Z"/>
        <path class="st4" d="M537.7,94.2c-4.9.5-9.6,1.8-14.1,3.8-1.7.8-3,1.8-3.7,3,.7-.9,1.7-1.6,2.7-2.1.7-.3,1.4-.6,2.2-.7.8,0,1.5.2,2.2,0,3.2-.7,5.6-3.2,9-3.3.8,0,1.2.8.9,1.5,1.3-.7,2.7-1.2,4.1-.8,2.1.5,2.6,2.7,2.6,4.5,0,3.3-1.1,6.8-2.3,9.8-.6,1.4-1.2,2.8-1.9,4.1-.5,1-1.1,2-2.2,2.5-.7.3-1.4.5-2.1.5,1.9.5,3.8,0,4.9-2,2.2-4.3,3.4-9.1,4.8-13.2-.5-5-1.7-8.3-7.2-7.8v.2Z"/>
        <path class="st4" d="M521.1,104.2c0,1,.8,1.5,1.6,1.9v-4.7c-.9.7-1.6,1.6-1.6,2.8Z"/>
        <path class="st4" d="M515.4,79.6h.2c.4-.9,1.7-.9,2,0h1.7v-1.9h-.6c-1.3.3-2.5.9-3.4,1.8h0Z"/>
        <path class="st4" d="M510.6,90.5c-1.1-1-1.3-2.4-1-3.8.4-1.9,1.3-3.9,2.2-5.7.9-1.8,2.2-3.4,4-4.4,1.7-1,3.8-1.2,5.7-1.3,1.7,0,3.5,0,5,.8,1.4.7,2,2.1,2,3.5h1.6v.2c.8,0,1.6.3,2.2.8,0-2.4-1.7-3.7-4.2-4.7-8.3-3.3-15.7.2-18.8,9.1-1.8,5.3,0,7.7,5.4,6.7h.3c-1.7,0-3.3-.2-4.5-1.2h0Z"/>
        <path class="st4" d="M521.3,87.5c-.7.4-1.3.8-2.1,1.2h0c.8-.2,1.6-.4,2.3-.7,0,0,.2-.2.3-.3-.2,0-.4,0-.5-.3h0Z"/>
        <path class="st4" d="M525.8,88.7c-.9.4-1.9.8-2.9,1.2h0c1.8-.5,3.7-1,5.5-1.5,2-.6,3.2-1.8,3.7-3.4-1.7,1.7-4.2,2.8-6.3,3.7Z"/>
        <path class="st4" d="M512.4,89.1c.8.4,2.1.4,3.1.3-.7-.2-1.3-.6-1.7-1.4-.4-.7-.4-1.5-.4-2.3-.4.6-.7,1.2-1.1,1.7-.2.2-.4.3-.6.4,0,.5.2,1,.8,1.2h0Z"/>
        <path class="st0" d="M463.9,93.3c.1-.7.4-1.3.7-1.9-.1-.2-.2-.4-.2-.7,0-2.1,1.9-3,3.9-3.2h.7c.8-1.2,2-2.2,3.2-2.9.9-.5,2.1-.8,3-.3,1.6.9,1.4,3.2.7,4.7,0,.2-.2.3-.2.4v.8c.5.2.8.8.7,1.3.2-.5.4-1,.7-1.4v-.6c0-.9.9-1.2,1.5-.9.2-.2.5-.3.8-.4-.3-3.6-2-5.3-5.2-5.3s-10.7,5.6-10.5,8.9c0,.6.1,1.1.3,1.7v-.2h-.1Z"/>
        <path class="st0" d="M475.3,95.2c-.5.2-1,.2-1.5,0-.7.5-1.5.9-2.5,1-.4,0-1,0-1.2-.6,0-.2-.1-.4-.2-.6-.4,0-.8,0-1.2,0-.4,0-.6-.3-.8-.6h-.3c-.6.2-1.1.2-1.5,0-.3,0-.7,0-1,0-.4,0-.8,0-1-.3.7,1.8,2.1,3.1,4.3,3,5.9,0,9-1.5,10.3-4.3-1,.9-2.1,1.7-3.4,2.1v.2Z"/>
        <path class="st5" d="M506.1,76.3h0v-.7h0v-.2h0q0,0-.2-.2h0v2.2c0-.2.2-.5.2-.7v-.4Z"/>
        <path class="st5" d="M504.6,74.5c-.2,0-.3,0-.5,0h-.7c.2.2.3.4.4.6h1.8-.2c-.3,0-.5-.2-.8-.3v-.2Z"/>
        <path class="st5" d="M508.2,76.9c0,.2,0,.4-.2.6-.3.9-.7,1.8-1.2,2.6v.6c-.1.4-.3.8-.6,1.1-.5.7-1.2,1.3-2.1,1.4-.4.3-.8.5-1.3.5s-.9-.2-1.2-.5c-.8.5-1.7.7-2.7.5-.4,0-.8-.6-.7-1.1,0-.3,0-.5.1-.8,0,0-.1-.2-.2-.3h-.8c-.4,0-1-.4-1-.8,0-.9.2-1.7.6-2.5h0v-.8c-.2-.3-.3-.8,0-1.2,0,0,0,0,.1-.2h-1.1c-.2,0-.3,0-.5-.2-.2.7-.3,1.5-.3,2.5,0,4.6,2.2,6.4,6.3,6.6,4.3.2,6.3-2.3,6.9-6.2,0-.7-.2-1.3-.3-1.8h.2Z"/>
        <path class="st4" d="M605.3,195.9c3-.9,4.7,2,7.2,2.5-3.4,2-5.2-.4-7.2-2.5Z"/>
        <path class="st4" d="M647.6,61.4c-1-.5-2-1.2-3-1.9-.6-.5-.5-1.3,0-1.7-1,0-2,0-2.5,1.1-.8,1.5-.5,3.1.8,4.3.8.8,1.6,1.6,2.3,2.5-.2-.4-.5-.8-.7-1.2-.2-.4-.2-.8,0-1-.9-1-1.7-2-2.4-3.2s1.2-2.2,1.9-1c.8,1.4,1.8,2.5,3,3.6-.2-.5,0-1.2.6-1.4h0Z"/>
        <path class="st4" d="M684.6,81.3c-.7-.9-1.7-1.6-2.7-2.3-8.5-5.6-16.9-11.3-25.5-16.8-1.1-.7-2.2-1.3-3.3-1.9,3,1.7,5.9,3.5,8.3,5.9.2.2.3.5.3.7,4.9,2.6,9.5,5.6,14.1,8.6s4.6,3,6.6,4.9c1.8,1.7,3.2,3.6,4.2,5.8,0-1.7-.9-3.5-2.1-5h.1Z"/>
        <path class="st4" d="M684,88.6c-1.1-.4-2-1-3-1.7h0c-2.7-.5-5.3-2.5-7.3-4.2-.4-.4-.9-.8-1.5-1.3,0,.2,0,.4-.3.5.2.4.3.7.4,1.1.2.5-.2,1-.6,1.2,2.9,1.1,5.8,2.2,8.7,3.4,1.6.6,3.5,2.7,5.1,1.4h0c-.5,0-1-.3-1.4-.5h0Z"/>
        <path class="st4" d="M656,74.2c2.2,1.7,4.6,3.1,7,4.4,1.2.7,2.4,1.3,3.6,1.8-1.1-.6-2.1-1.2-3.2-1.9-2.2-1.5-4.2-3.2-6.2-4.9-1.1-.7-2.1-1.4-3.1-2.1-.8-.4-1.7-.8-2.5-1.3,1.4,1.4,2.8,2.8,4.4,4Z"/>
        <path class="st4" d="M665.1,75.9c1.5.9,3.1,1.8,4.4,3-.2-.4-.4-.8-.6-1.1,0-.2-.3-.4-.4-.6-.9-.5-1.7-1-2.6-1.5-.3,0-.6,0-1,0h0c0,0,0,.2.2.3h0Z"/>
        <path class="st4" d="M418.8,931.9c-.6,0-1.4,0-2.2,0,.8,0,1.6,0,2.4,0,.5,0,.9,0,1.4,0h-1.6,0Z"/>
        <path class="st4" d="M435.9,903.7c-.5-1.7-1.2-2.8-2.1-3.3.9,1,1.6,2.1,2.1,3.3Z"/>
        <path class="st4" d="M437.1,909.7c0,1.2,0,2.5.2,3.7.1,2.1.3,4.1.2,6.2-.1,3-.6,6-.9,8.9v2.3c1.3-7,1.6-14.1.6-21.1h-.1Z"/>
        <path class="st4" d="M410.5,924.1c.5-.7,1.1-1.3,1.7-1.9,1.1-1.1,2.3-2,3.2-3.3.9-1.3,1.8-2.7,2.7-4.1-1.3,1.7-2.6,3.4-3.9,5.1-1.1,1.4-2.6,2.8-3.8,4.3h.2-.1Z"/>
        <path class="st4" d="M411,934.5c-.5,0-.9-.3-1.3-.6.8.7,1.7,1.1,2.6,1.3-.5-.2-.9-.5-1.3-.8h0Z"/>
        <path class="st4" d="M656.9,322c-.7-2.2-1.4-3.8-2.1-4.9,0,.2,0,.4,0,.5h0c0,0,.2.1.3.2,0,.1.2.2.2.4v.3h0c0,.3,0,.5,0,.6v.3h0c1.2,2.1,1.7,4.5,2.6,6.8.5,1.3.9,2.6,1.5,3.9,0,.2.2.4.3.6-1-3-1.9-6-2.9-8.9v.2Z"/>
        <path class="st4" d="M661.3,336.8c.4.8.7,1.6,1.1,2.4,0,.2.2.5.3.7-.7-2.1-1.3-4.1-2-6.2,0,.3-.3.5-.5.7.3.8.7,1.6,1.1,2.4h0Z"/>
        <path class="st4" d="M665.3,349.2c.2.1.3.3.3.5,1.5,6.1,2.9,12.2,5.3,18,.2.4.3.7.5,1.1-1.8-5.3-3.5-10.7-4.6-16.2-.6-2-1.3-4-1.9-6v.4c0,.7.3,1.4.3,2.1h.1Z"/>
        <path class="st4" d="M646.8,390.8c.2,0,.5-.1.7-.2.4,0,.7,0,.9.3.2,0,.3-.1.5-.2.3-.2.6-.3.9-.5h-2c-.4.2-.7.4-1.1.6h0Z"/>
        <path class="st4" d="M675.7,383.5c0,.4,0,.9,0,1.3.3.4,0,.9-.2,1.2,0,.8-.3,1.5-.5,2.3.8-1.3,1-2.9.8-4.8Z"/>
        <path class="st4" d="M608.1,412.7c-.7,0-1.5,0-2.2.1.8.1,1.6.2,2.4.3,0-.1,0-.2,0-.4h-.1Z"/>
        <path class="st4" d="M650.1,401.9c-1.1.6-2.2,1.1-3.5,1.4-1.7.8-3.5,1.3-5.2,2.2-1.4.7-3,1.7-4.6,1.6-.9.5-1.9,1.2-2.9,1.3-.5.2-1,.5-1.5.7,8.2-2.8,16.2-6,24.1-9.7-2.3.4-4.4,1.5-6.5,2.6h.1Z"/>
        <path class="st4" d="M622.2,411.7c-1.1.3-2.2.8-3.2,1.3,2.1-.5,4.1-1.1,6.1-1.7-1,.1-2,.2-2.9.4h0Z"/>
        <path class="st4" d="M596.5,415.7h-.4c.9,0,1.9-.1,2.8-.2-.8,0-1.6,0-2.4.1h0Z"/>
        <path class="st4" d="M582.6,418c-.3.2-.7.3-1.1.4,2.2,0,4.5-.2,6.7-.3h-1.6c-.2,0-.4,0-.6-.2-.7.2-1.4.1-2.1,0h-1.2s0,0-.2.1h0Z"/>
        <path class="st4" d="M534.2,410.6c-.3,0-.6-.2-.9-.3-.3-.1-.5-.3-.6-.6-.9,0-1.9-.2-2.8-.3h-.4c1.5.3,2.9.7,4.4,1.2h.4-.1Z"/>
        <path class="st4" d="M546.1,413.2h-1.8c.7.1,1.4.2,2.2.3v-.3h-.4,0Z"/>
        <path class="st4" d="M485.3,397c-1.5-.9-2.7-1.9-3.8-3.2-1.1-1.2-2.2-2.3-3-3.7v.3c3.1,4.5,7.3,7.5,12,9.9-1.8-1-3.5-2.2-5.2-3.3h0Z"/>
        <path class="st4" d="M524.5,412.2c-1.6-.4-3-1-4.5-1.6-1.7-.7-3.5-1.2-5.2-1.6-.3.1-.6.2-1,0s-.4-.2-.7-.3c-.8-.2-1.6-.3-2.4-.4-.3,0-.5-.1-.8-.2,5.7,1.9,11.5,3.6,17.3,4.9-.9-.3-1.8-.6-2.7-.8Z"/>
        <path class="st4" d="M576.9,418.5c-2.8,0-5.6,0-8.4-.2-2.5-.2-5-.4-7.5-.6-2.4-.1-4.8,0-7.3-.4-1.6-.3-3.1-.6-4.7-1h-4.3c10.3,1.5,20.7,2.2,31.3,2.2h1.9-1.1.1Z"/>
        <path class="st4" d="M537.8,414.8c-1.3-.3-2.5-.6-3.8-1-1.2-.4-2.3-.7-3.6-.9h-.2c0,.4-.5.6-1,.5-.2,0-.4,0-.6-.1,4.3,1,8.7,1.8,13.1,2.5-1.3-.3-2.6-.7-3.9-1Z"/>
        <path class="st4" d="M502.3,405c-1.7-.7-3.7-1.2-5.3-2.3-.5-.2-1.1-.4-1.6-.6-.2,0-.4.1-.7,0-.4-.1-.8-.2-1.2-.4,0,0,.2,0,.3.1,3.9,1.7,7.8,3.3,11.8,4.7-1.1-.5-2.2-1.1-3.3-1.6h0Z"/>
        <path class="st4" d="M473,376.6c-.2-.4-.4-.7-.6-1.1.1.4.3.9.5,1.4s.4,1,.7,1.5c-.2-.6-.4-1.2-.6-1.8Z"/>
        <path class="st4" d="M631.7,329.1c.7-.6,1.4-1.1,2.1-1.7-.4.3-.9.5-1.3.8-.3.1-.6.3-.8.4,0,.2,0,.3,0,.5h0Z"/>
        <path class="st4" d="M639.7,321.3c1.3-.6,2.7-1,4-1.5,1.9-1.4,3.8-2.7,5.8-4,.4-.3.8-.2,1.1,0,0-.1.2-.3.3-.4.2-.2.4-.3.6-.3-1.4.1-3.3,1-5.8,2.5-2.2,1.3-4.5,2.7-6.7,4,.2-.1.5-.2.7-.4h0Z"/>
        <path class="st4" d="M631.7,326.1c1.4-.7,2.7-1.6,4-2.5.2-.1.4-.3.6-.4-2.2,1.3-4.5,2.7-6.7,4,.7-.3,1.4-.7,2.1-1h0Z"/>
        <path class="st4" d="M547.1,368.9c.6,0,1.2,0,1.8-.1,1.2-.1,2.5-.3,3.8-.5.2,0,.3-.2.5-.2h-2.5c-.7.1-1.4.3-2.1.4-.5.1-1,.2-1.5.3h0Z"/>
        <path class="st4" d="M514.1,368.4c-.3,0-.7.2-1,.2h0c1.1-.1,2.2-.2,3.3-.4.2,0,.5,0,.7-.1,0-.2.3-.4.7-.5,1.5-.3,2.9-.5,4.4-.7h0c-2.8,0-5.5.6-8.1,1.3v.2Z"/>
        <path class="st4" d="M496.4,368.1c3.9-.5,7.8-.6,11.7-1-7.4.6-14.9.8-22.5.8,1.1.1,2.2.3,3.3.4,2,.2,4,.2,5.9.3h1c.1-.2.3-.4.7-.4h-.1Z"/>
        <path class="st4" d="M529.6,365.2c0,0,.2.1.3.2,1.2-.5,2.4-1,3.6-1.4-1.8.3-3.6.6-5.5.9.5,0,1.1.2,1.6.3h0Z"/>
        <path class="st4" d="M569.3,358.6c-.2,0-.5.2-.7.3,0,0-.3.2-.4.2h0s0-.1,0-.2c-.3.7-1.2.8-1.7.5-.5.3-1.1.5-1.7.7h0v.6c.4,0,.9-.2,1.3-.2,0-.2.2-.4.5-.5,1-.4,2-.7,3.1-.8,1.1-.8,2.2-1.5,3.5-2.1-.6.3-1.3.5-1.9.8-.6.3-1.3.5-1.9.7h0Z"/>
        <path class="st4" d="M542.5,362.1c1.2-.2,2.5-.3,3.7-.5.2-.4.7-.6,1.2-.5.5.2,1,.1,1.6.1h.5c1.1-.3,2.3-.6,3.4-1,.3-.1.7-.2,1-.3.5-.2.9-.5,1.4-.7,2.1-.9,4.4-.8,6.5-1.6,2-.8,3.9-1.8,6.1-1.7.3,0,.6.2.8.4.3,0,.5-.2.7-.2,1.8-.7,3.7-1.5,5.5-2.2,2.6-1,5-2.1,7.5-3.3,0-.2.3-.4.7-.5.2,0,.4,0,.7-.1l1.2-.6c3.4-1.5,6.9-3,10.4-4.4,1.8-.7,3.5-1.5,5.3-2.3.3-.1.6-.3.9-.4,0,0,0,0,.2-.1.5-.3,1-.5,1.5-.8.6-.4,1.3-.8,1.9-1.1,1.3-.8,2.8-1.4,4.1-2.2,0,0,.2-.1.3-.2-21.7,10.9-44.1,19.1-67.2,24.1h0Z"/>
        <path class="st4" d="M565.9,363.4h1.6c.3-.1.5-.2.8-.4,0,0-.2,0-.2-.1-.7.2-1.5.3-2.2.5h0Z"/>
        <path class="st4" d="M621.3,331.9c-3,1.7-6.1,3.3-9.1,4.9.3,0,.6-.2.9-.2h.4c1.7-1.2,3.6-2.2,5.4-3.2,1.4-.8,2.8-1.6,4.2-2.5.2-.2.5-.3.7-.5-.8.5-1.7,1-2.5,1.4h0Z"/>
        <path class="st4" d="M479.3,367.8h-2.9c.4,0,.7.1,1.1.3.6-.1,1.2-.3,1.8-.3Z"/>
        <path class="st4" d="M558.1,369h2.6v-1h-1.4s-.2.2-.3.2c0,.1-.3.2-.4.2-.3.1-.6.1-.9,0,0,.1.2.3.2.5h.2Z"/>
        <path class="st5" d="M447,361.5c.6.2,1.2.3,1.8.4h.3c-.9-.3-1.8-.5-2.8-.6.2,0,.4.1.6.2h.1Z"/>
        <path class="st5" d="M453,364.5c.3.6.5,1.2.8,1.9.5,1.2,1,2.4,1.3,3.6.3,1.4.3,2.8,0,4.2,0,.3-.4.6-.7.7-.1.3-.3.6-.6.9v.2h0c1.5-1,1.7-2.5,1.7-4.1,0-2.9-1-5.4-2.6-7.2v-.2Z"/>
        <path class="st5" d="M439,362.9h0c.2.1.4.1.7.1s.3.1.5.2c.1,0,.3,0,.4-.1.2-.6.5-1,1-1.3-.9.2-2,.4-2.8.8,0,0,.1.2.2.3h0Z"/>
        <path class="st3" d="M677.1,290.7c-.3-1.7.7-2.9,1.8-4.1,6.1-6.3,12.2-12.6,18.3-18.8.5,1,1.5,1.1,2.4,1.2-6.5,8.3-13.2,16.5-22.6,21.7h0Z"/>
        <path class="st4" d="M138.5,906c0-1.4.2-2.9-.8-4,.4,1.3.6,2.6.8,4Z"/>
        <path class="st4" d="M138.6,923.3c0,1.2-.2,2.3-.3,3.5,0,1.5-.2,3.1-.7,4.6-.2.5-.5,1-.8,1.5,0,.5-.2.9-.8,1.1-.1,0-.3,0-.5.2-1,.8-2.3,1.3-3.5,1.7,4.2-.5,6.5-3.2,6.4-7.6,0-1.6,0-3.3.2-4.9h0Z"/>
        <path class="st4" d="M128.3,936c-.7,0-1.3,0-2,.2-3.1,0-6.3,0-9.3-.9-2.1-.5-5.1-1.2-5.7-3.7-.5-1.8.5-3.8,1.3-5.4h0s-.2.2-.2.3c-2.9,4.9-1.2,7.5,4.3,8.8,3.8.9,7.7.9,11.6.7h0Z"/>
        <path class="st4" d="M626,656.3c-1-.5-2.1-1-2.6-2.2-.6-1.3-1.3-2.7-1.3-4.1v-1.2c-.5,3.6,1.1,6.4,4.9,8.4,1.1.6,2.1,1,3.1,1.3-.7-.2-1.3-.5-1.8-.9-.8-.3-1.6-.8-2.3-1.4h0Z"/>
        <path class="st4" d="M652.4,645.2c-.2.9-.6,1.8-1,2.7-.3.8-.6,1.6-1,2.4s-.7,1.2-1.1,1.8c2.8-3.3,4-7.8,3-11.5,0-.4-.3-.8-.4-1.2.2.6.3,1.3.3,1.9.4,1.3.5,2.6.2,4h0Z"/>
        <path class="st4" d="M647.4,653.7c-.8.5-1.6,1.1-2.3,1.6h.2c1.1-.6,2.2-1.3,3.1-2.2-.3.2-.6.5-.9.7h0Z"/>
        <path class="st4" d="M628.5,638.6c.5-.2.9-.4,1.4-.7.7-.4,1.2-.8,1.9-1,.5-.3,1-.6,1.5-.9.2,0,.4-.2.6-.3-2,.7-3.9,1.6-5.5,2.8h0Z"/>
        <path class="st4" d="M637.9,634.9c1.4,0,2.9-.3,4.4-.4h-.4c-1.9,0-3.8.2-5.5.6.5,0,1,0,1.5-.2h0Z"/>
        <path class="st4" d="M279.1,566.4c.5.5,1,1,1.4,1.5,0,0,0,0-.1-.2-1.1-2-2.7-3.1-4.5-3.7,1.2.6,2.3,1.4,3.3,2.4h0Z"/>
        <path class="st4" d="M280.1,576.6c.9-1.8,1.5-3.8,1.3-5.7,0,.4,0,.9-.2,1.3,0,1.6-.5,3-1.1,4.4h0Z"/>
        <path class="st4" d="M276.5,581.6c-1.1,1.1-2.3,2.1-3.5,3.1,2.1-1.3,3.9-2.9,5.2-4.9.2-.2.3-.5.5-.7-.6.9-1.4,1.8-2.1,2.6h-.1Z"/>
        <path class="st4" d="M254.1,586c1.2.6,2.4,1.1,3.8,1.4-.9-.4-1.7-.8-2.6-1-.4,0-.8-.2-1.2-.4h0Z"/>
        <path class="st4" d="M483.9,637.2h.1c-1.5.8-3,1.8-4.4,2.9-2.9,2.3-5,5-5.7,8.2.1-.4.3-.7.5-1.1.3-.4.5-.7.6-1.2.1-.6.3-1,.7-1.5.2-.2.3-.2.5-.3,0-.3.2-.6.3-.8.6-1.1,1.8-1.7,2.8-2.6,1-.8,1.8-1.7,2.9-2.4.5-.3.9-.5,1.3-.9.1,0,.3-.2.4-.4h0Z"/>
        <path class="st4" d="M479.8,658.6c-.2,0-.4-.2-.5-.3-.7,0-1.4-.3-2-.6.8.4,1.6.7,2.5.9h0Z"/>
        <path class="st4" d="M489,659.1c1.1-.2,2.2-.5,3.3-.8-.2,0-.5,0-.7.2-.8.2-1.7.5-2.6.6h0Z"/>
        <path class="st4" d="M493.4,657.9c1.1-.5,2.2-1,3.2-1.7-.6.3-1.2.7-1.8,1-.5.3-.9.5-1.4.7h0Z"/>
        <path class="st4" d="M488.9,635.1c.6-.2,1.2-.4,1.7-.6-1.3.3-2.5.7-3.7,1.2.7-.2,1.4-.4,2-.5h0Z"/>
        <path class="st4" d="M498.8,634.9c-1.2-.4-2.5-.6-3.6-.7.6,0,1.1.3,1.7.3s1.3.2,1.9.4Z"/>
        <path class="st4" d="M505.5,640.1v1.5c0,1.5-.1,3-.7,4.4s-1.5,2.6-2.1,3.9c-.2.4-.3.8-.5,1.1,1.4-1.8,2.4-3.8,3-5.9.6-1.9.6-3.6.2-5h.1Z"/>
        <path class="st4" d="M481.3,641.9c.7-.7,1.4-1.3,2.3-1.7h0c-.8.4-1.5,1-2.2,1.7h0Z"/>
        <path class="st5" d="M680.9,567.8c-.7.9-2,1.3-2.9,1.9-.5.3-.9.5-1.4.8.4,0,.8-.3,1.1-.5,1.5-.9,3.6-1.7,3.8-3.5,0,.5-.3.9-.6,1.3h0Z"/>
        <path class="st4" d="M594.9,571.4c-.4,0-.7,0-1.1,0,.2,0,.3,0,.5.2.9-.3,1.8-.4,2.6-.5-.7,0-1.4,0-2.1.2h0Z"/>
        <path class="st4" d="M613.2,564.4c0,1,0,2-.4,2.8-.7,1.7-2.4,2.4-4.1,2.9,0,0-.2,0-.3.2-1.7.8-3.8.4-5.6.5h-1c1.8,0,3.6,0,5.3,0,3-.3,5.4-1.7,6-4.7,0-.7,0-1.2,0-1.7h0Z"/>
        <path class="st4" d="M465.6,570.5c1-.4,1.8-.9,2.5-1.5-.7.6-1.6,1.1-2.5,1.5Z"/>
        <path class="st4" d="M446.9,568.5c-.2,0-.4-.2-.5-.3-.6-.6-.7-1.3-.6-2.1v-.6c0,.2,0,.4-.1.6-.2,1.4.5,2.3,1.4,2.9,0,0-.2-.3-.2-.4h0Z"/>
      </g>
    </g>
  </g>
</svg>