<?xml version="1.0" encoding="UTF-8"?>
<svg id="Calque_1" xmlns="http://www.w3.org/2000/svg" version="1.1" viewBox="0 0 225 225">
  <!-- Generator: Adobe Illustrator 29.3.0, SVG Export Plug-In . SVG Version: 2.1.0 Build 146)  -->
  <defs>
    <style>
      .st0 {
        fill: #e7e9ea;
      }

      .st1 {
        fill: #e8e9ea;
      }

      .st2 {
        fill: #34a8db;
      }

      .st3 {
        fill: #33a8db;
      }

      .st4 {
        fill: #0067b1;
      }

      .st5 {
        fill: #b1cae2;
      }

      .st6 {
        fill: #e5e8ea;
      }

      .st7 {
        fill: #1672b5;
      }

      .st8 {
        fill: #0069b2;
      }

      .st9 {
        fill: #0fa1d8;
      }

      .st10 {
        fill: #fdfdfe;
      }

      .st11 {
        fill: #006bb2;
      }

      .st12 {
        fill: #0065b0;
      }
    </style>
  </defs>
  <rect class="st5" x="14" width="197" height="1"/>
  <path class="st7" d="M210,1l1,1-18.02,198.22c-.81,1.5-4.3,2.72-5.96,3.3-23.6,8.28-50.62,12.63-74.61,20.39l-81.31-22.01L14,2l1-1h195ZM112,39c-.47.07-.89.52-1,1-20.32.03-40.68-.02-61,0,1.68,8.17.9,17.23,3,24.99.24,1.53.91,0,1,0,18.98.18,38.02-.06,57,0l1,1v23c-.47.07-.89.52-1,1-9.32.03-18.68-.02-28,0l2.01,25c8.65.04,17.34-.02,25.99,0l1,1v38c-7.2-.28-18.95-6.7-26.87-7.13l-2.13-19.87h-25l3,36.5.98,2.02,50.03,13.47c0,.33,0,.67,0,1,.05,8.98-.04,18.01,0,27l65.87-18.12,15.12-171.87h-81c-.02,7.32.03,14.68,0,22Z"/>
  <polygon class="st8" points="14 2 14 1 15 1 14 2"/>
  <polygon class="st8" points="211 2 210 1 211 1 211 2"/>
  <path class="st3" d="M112,39c.03-7.32-.02-14.68,0-22h81l-15.12,171.87-65.87,18.12c-.05-8.98.04-18.01,0-27l50.8-14.21,11.2-125.79c-1.04-1.66-3.79-1-5.49-1.02-15.7-.17-42.11-2.07-56.51.02Z"/>
  <g>
    <path class="st10" d="M174,40l-11.2,125.79-50.8,14.21c0-.33,0-.67,0-1-.04-8.32,0-16.68,0-25,6.85.26,20.27-6.65,27.87-7.13l3.15-29.39c.06-1.34.47-1.97-1.02-2.48-3.07-1.05-22.78.03-28,0-.33,0-.67,0-1,0v-25c10.46-.05,20.96,0,31.44.04,1.23-.33.31-2.09.56-3.04,1.26-4.77,2.17-14.01,2-19-.03-1,.05-2.01,0-3-11.32-.03-22.69.04-34.01,0-.33,0-.67,0-1,0,0-8.32-.03-16.68,0-25,20.65.02,41.35-.01,62,0Z"/>
    <path class="st1" d="M112,179l-50.03-13.47-.98-2.02-3-36.5h25l2.13,19.87c7.92.44,19.67,6.86,26.87,7.13,0,8.32-.04,16.68,0,25Z"/>
    <path class="st0" d="M111,40c.33,0,.67,0,1,0-.03,8.32,0,16.68,0,25-.33,0-.67,0-1,0-18.98-.06-38.02.18-57,0h-1c-2.09-7.76-1.32-16.83-3-24.99,20.32-.03,40.68.02,61,0Z"/>
    <path class="st2" d="M114,115c6.87,1.76,15.29,1.09,22.51,1.02,1.69-.02,4.45.64,5.49-1.02,1.49.51,1.08,1.14,1.02,2.48l-3.15,29.39c-7.6.49-21.02,7.4-27.87,7.13v-39c.33,0,.67,0,1,0s.67,0,1,0Z"/>
    <path class="st3" d="M113,65c9.71,2.42,20.64.24,30.59.93,2.02.14,2.45.17,3.41,2.07.17,4.99-.74,14.23-2,19-.95,1.9-1.38,1.93-3.41,2.07-9.17.64-20.9-1.33-29.59-.07v-24c.33,0,.67,0,1,0Z"/>
    <path class="st6" d="M111,90c.33,0,.67,0,1,0s.67,0,1,0v25c-.33,0-.67,0-1,0s-.67,0-1,0c-8.65-.03-17.34.03-25.99,0l-2.01-25c9.32-.01,18.68.03,28,0Z"/>
    <path class="st4" d="M112,40c-.33,0-.67,0-1,0,.11-.48.53-.93,1-1,0,.33,0,.67,0,1Z"/>
    <path class="st8" d="M53,65h1c-.09,0-.76,1.53-1,0Z"/>
    <path class="st8" d="M112,66l-1-1c.33,0,.67,0,1,0v1Z"/>
    <path class="st12" d="M112,90c-.33,0-.67,0-1,0,.11-.48.53-.93,1-1v1Z"/>
    <path class="st11" d="M112,116l-1-1c.33,0,.67,0,1,0v1Z"/>
    <path class="st9" d="M174,40c-20.65-.01-41.35.02-62,0,0-.33,0-.67,0-1,14.41-2.09,40.81-.18,56.51-.02,1.69.02,4.45-.64,5.49,1.02Z"/>
    <path class="st9" d="M113,65c11.32.04,22.69-.03,34.01,0,.04,1-.04,2,0,3-.95-1.9-1.38-1.93-3.41-2.07-9.96-.69-20.88,1.49-30.59-.93Z"/>
    <path class="st9" d="M145,87c-.25.95.67,2.71-.56,3.04-10.47-.04-20.97-.09-31.44-.04-.33,0-.67,0-1,0v-1c8.69-1.26,20.42.71,29.59.07,2.02-.14,2.45-.17,3.41-2.07Z"/>
    <path class="st9" d="M142,115c-1.04,1.66-3.79,1-5.49,1.02-7.22.08-15.64.75-22.51-1.02,5.22.03,24.93-1.05,28,0Z"/>
  </g>
</svg>