<?xml version="1.0" encoding="UTF-8"?>
<svg id="Calque_1" xmlns="http://www.w3.org/2000/svg" version="1.1" viewBox="0 0 304 166">
  <!-- Generator: Adobe Illustrator 29.3.0, SVG Export Plug-In . SVG Version: 2.1.0 Build 146)  -->
  <defs>
    <style>
      .st0 {
        fill: #e84e11;
      }

      .st1 {
        fill: #ebe8e7;
      }

      .st2 {
        fill: none;
        stroke: #ee652d;
        stroke-miterlimit: 10;
        stroke-width: .5px;
      }

      .st3 {
        fill: #eae8e8;
      }

      .st4 {
        fill: #e24e26;
      }

      .st5 {
        fill: #e14616;
      }

      .st6 {
        fill: #e24f27;
      }

      .st7 {
        fill: #ebf5f6;
      }

      .st8 {
        fill: #ee652b;
      }

      .st9 {
        fill: #ee652d;
      }

      .st10 {
        fill: #fefcfc;
      }

      .st11 {
        fill: #ed5400;
      }

      .st12 {
        fill: #e23d00;
      }

      .st13 {
        fill: #fefefe;
      }
    </style>
  </defs>
  <g>
    <path class="st6" d="M82,2c46.33-1.91,93.94,1.45,140.41-.02,1.15.16.49,2.09.59,3.02-1.5.14-1.5,2.86,0,3-2.52,43.5-8.51,87.05-11.99,130.51-.25,3.12.27,6.29-.11,9.39l-59.4,16.18-58.37-16.2L81,9c1.67-1.92.93-4.64,1-7ZM152,30c-.04.2-.81.61-1,1-7.99.02-16.01-.04-24,0l-.51-.99-1.49.99c-5.99.04-12.02-.03-18.01,0,.6,6.64,3.03,53.02,5.01,55.01.97.97,1,.91,2.4,1.05,11.02,1.15,26.07-.06,37.6-.05,0,8.99-.02,18.01,0,27-2.39.04-18.81-4.15-19.76-5.24-2.29-2.66.03-9.91-2.24-12.76-.28-.35-.49-.89-1-1-4.07-.86-10.58.62-15,0l-1,1c.43,4.41,0,24.08,1.91,26.59,1.58,2.07,5.24,1.75,7.33,2.5,4.34,1.56,10.19,3.28,14.76,4.38,4.41,1.06,10.78,3.6,15,3.53.05,6.32-.04,12.68,0,19l47.08-13.66,10.91-125.34h-58c-.63,5.16.87,12.13,0,17Z"/>
    <path class="st5" d="M82,2c-.07,2.36.67,5.08-1,7l-.99-6.99c.66-.04,1.33.02,1.99,0Z"/>
    <path class="st5" d="M223,8c-1.5-.14-1.5-2.86,0-3,.1.92.05,2.06,0,3Z"/>
    <path class="st9" d="M152,30c.87-4.87-.63-11.84,0-17h58l-10.91,125.34-47.08,13.66c-.05-6.32.04-12.68,0-19,6.72-.11,22.12-5.99,29.63-7.97,2.6-.69,5.34.49,6.87-2.02l5.51-54.5c-13.94-.98-28.03-.46-42.01-.51v-19c14.11-.05,28.26-.01,42.39.06,1.96-.53,1.43-10.02,1.61-12.06,0-.07.93-.26,1-1,.1-1.05.19-3.07,0-4-.13-.65-.26-.99-1-1-14.32-.03-28.68.04-43,0l-1-1Z"/>
    <path class="st8" d="M173,86c1.4-.24.98,1.45.91,2.39-.51,6.8-2.22,13.6-2.03,20.48-6.08,1.16-13.82,5.02-19.87,5.13-.02-8.99,0-18.01,0-27,6.77,0,14.77.84,21-1Z"/>
    <path class="st0" d="M127,31c-.67,0-1.33,0-2,0l1.49-.99.51.99Z"/>
    <path class="st0" d="M153,31c-.33,0-.67,0-1,0s-.67,0-1,0c.19-.39.96-.8,1-1l1,1Z"/>
    <path class="st4" d="M152,49v19c-7.99-.03-16.02.02-24.01,0l-1-19.01c8.32-.01,16.68.03,25,0Z"/>
    <g>
      <path class="st1" d="M125,31c.67,0,1.33,0,2,0,7.99-.04,16.01.02,24,0,.33,0,.67,0,1,0v18c-8.32.03-16.68-.02-25,0l1,19.01c7.99.01,16.02-.03,24.01,0,0,5.99,0,12.01,0,18h-40c-1.98-1.99-4.41-48.36-5.01-55.01,5.99-.02,12.02.04,18.01,0Z"/>
      <path class="st3" d="M129,95l1,1c2.27,2.85-.05,10.09,2.24,12.76.95,1.1,17.37,5.29,19.76,5.24.01,6.32-.05,12.68,0,19-4.22.07-10.59-2.47-15-3.53-4.56-1.1-10.42-2.82-14.76-4.38-2.09-.75-5.76-.43-7.33-2.5-1.91-2.51-1.48-22.18-1.91-26.59l1-1c4.42.62,10.93-.86,15,0Z"/>
      <path class="st12" d="M152,86v1c-11.53,0-26.58,1.2-37.6.05-1.4-.15-1.43-.08-2.4-1.05h40Z"/>
      <path class="st7" d="M113,96l1-1-1,1Z"/>
      <path class="st7" d="M130,96l-1-1c.51.11.72.65,1,1Z"/>
      <path class="st10" d="M152,68c13.98.05,28.07-.46,42.01.51l-5.51,54.5c-1.54,2.51-4.27,1.33-6.87,2.02-7.51,1.98-22.91,7.86-29.63,7.97-.05-6.32.01-12.68,0-19,6.06-.11,13.8-3.97,19.87-5.13-.19-6.88,1.52-13.68,2.03-20.48.07-.94.49-2.63-.91-2.39h-21c0-5.99,0-12.01,0-18Z"/>
      <path class="st13" d="M196,31l1,1c.19.93.1,2.95,0,4l-1,1c-.18,2.04.34,11.53-1.61,12.06-14.12-.07-28.27-.11-42.39-.06v-18c.33,0,.67,0,1,0,14.32.04,28.68-.03,43,0Z"/>
      <path class="st1" d="M197,32l-1-1c.74.01.87.35,1,1Z"/>
      <path class="st1" d="M196,37l1-1c-.07.74-.99.93-1,1Z"/>
      <path class="st11" d="M173,86c-6.23,1.84-14.23,1-21,1v-1h21Z"/>
    </g>
  </g>
  <path class="st2" d="M196.01,30.49c.15,2.2.24,4.41.29,6.62.29-.39.36-.89.41-1.37.08-.79.12-1.58.15-2.38.04-.83.08-1.66.12-2.49.29,1.95.26,3.95-.09,5.89"/>
  <path class="st2" d="M196.32,30.61c.2,1.53.19,3.07.13,4.61,0-1.31.11-2.61.36-3.89-.08,0-.17.03-.22.1"/>
  <path class="st2" d="M188.85,122.2l-5.19,3.48c.99-.09,1.94-.45,2.87-.8.58-.22,1.16-.44,1.75-.66.17-.06.34-.13.48-.25s.23-.3.19-.48c-.64.21-1.27.44-1.9.7"/>
  <path class="st2" d="M189.16,122.48c-.58.2-1.14.45-1.68.74.39.04.78,0,1.17-.09-1.06.43-2.08.99-3.01,1.66,1.44-.59,2.83-1.3,4.14-2.14-1.34.51-2.65,1.11-3.92,1.8.55-.36,1.13-.68,1.73-.96-.85.49-1.69,1.02-2.5,1.58l3.54-2c-1.1.7-2.2,1.38-3.31,2.06-.42.26-.86.52-1.35.59.11-.31.29-.59.53-.82l-.71.31c.53-.59,1.21-1.01,1.88-1.42,1.19-.72,2.37-1.45,3.56-2.17"/>
  <path class="st2" d="M182.42,125.03l4.15-2.35c.53-.3,1.06-.6,1.5-1.01s.8-.95.88-1.55"/>
  <path class="st2" d="M189.05,121.2c-.94.57-1.65,1.46-2.57,2.07-.39.25-.81.45-1.22.65-.66.31-1.32.62-1.98.93"/>
</svg>