<?xml version="1.0" encoding="UTF-8"?>
<svg xmlns="http://www.w3.org/2000/svg" version="1.1" viewBox="0 0 371.3 136.1">
  <defs>
    <style>
      .cls-1, .cls-2, .cls-3 {
        fill: none;
      }

      .cls-2, .cls-3 {
        stroke: #999;
        stroke-miterlimit: 10;
      }

      .cls-3 {
        stroke-width: 3px;
      }

      .cls-4 {
        fill: #999;
      }
    </style>
  </defs>
  <!-- Generator: Adobe Illustrator 28.7.4, SVG Export Plug-In . SVG Version: 1.2.0 Build 166)  -->
  <g>
    <g id="Calque_1">
      <g id="Calque_1-2" data-name="Calque_1">
        <g>
          <path class="cls-1" d="M370.3-1.7c-10.8,0-21.7,0-32.5,0,0,0,0,.2,0,.2,0,0,0,0,0,.2,0,0,0,0,0,.1,0,.1,0,.3,0,.4,0,0,0,0,0,0,0,.1,0,.2,0,.4,0,.1,0,.2,0,.2,0,.1.1.2.2.3,0,0,0,0,0,0,0,0,0,0,0,0,0,.1.2.2.2.3.6.6,1.2,1.2,1.7,1.8.3,0,.6.2.8.5,0,0,0,0,0,0,0,0,0,.1.1.2,0,0,0,0,0,0,0,0,0,0,0,.1,0,0,0,0,0,.1,0,0,0,0,0,.1,0,0,0,.1,0,.2,0,0,0,0,0,0s0,0,0,0c0,0,0,.1,0,.2,0,.3,0,.5-.2.7,0,0,0,0,0,0-.2.5-.6.9-1.1,1-1.2.3-2.5.3-3.7.1-.6,0-1.2-.2-1.7-.3-.2,0-.4,0-.5-.1,0,0-.7-.1-.2,0-.3,0-.6-.1-.9-.2-.8-.1-1.4-.7-1.4-1.6,0-.2,0-.4.2-.6,0,0,0,0,0,0,0-.8.8-1.5,1.6-1.4.8,0,1.5.2,2.3.3-.3-.5-.6-1-.7-1.6-.2-.6-.1-1.3,0-2-111.2,0-222.4,0-333.6,0C.4-1.7.2-1.5.2-.7c0,44.7,0,89.4,0,134.1,0,.8.2,1,1,1,61.5,0,123,0,184.6,0s123,0,184.6,0c.8,0,1-.2,1-1,0-44.7,0-89.4,0-134.1,0-.8-.2-1-1-1ZM77.2,50c.9,0,1.3.4,1.3,1.2,0,.5-.1,1.1-.2,1.6,0,1.2-.8,1.8-2,2.2-1.5.5-3,.4-4.6.4-2.2,0-4.4.2-6.6.2-3.1,0-6.3,0-9.5,0-.6,0-1.2,0-1.7-.2-.8-.2-1.2-.6-1-1.5.1-.6,0-1.1,0-1.7-.3-1.2.3-2,1.6-2,3.3,0,6.5-.2,9.4,0h0c3.5,0,6.7,0,9.8,0,1.2,0,2.3-.1,3.5-.2ZM71.4,37.2c.4.6.8,1.2,1.5,1.6.4.3.4.8.2,1.2-.9,1.9-.9,3.9-.7,5.9.1,1.3-.3,1.7-1.6,1.9-2.2.4-4.4.8-6.6.6-1.2,0-2.3-.2-3.5,0-1.2.2-1.7-.5-1.6-1.7,0-.8,0-1.5,0-2.3-.2-1.4.1-2,1.4-2.6.2,0,.3-.2.5-.2.3-.1.7-.3.6-.7,0-.4-.5-.4-.9-.4-.4,0-.9,0-1.3,0-.4,0-.8,0-1-.5-.1-.4,0-.8.3-1.1,1.3-1.6,2.8-3.1,5-3.3.3,0,.6-.2.9-.3.6-.2.8-.5.3-1.1-.5-.5-.7-1.1-.7-1.9,0-2.8,0-5.5,0-8.3s.2-1.5,1.3-1.4c1.2,0,1.5.3,1.5,1.5v4.9h0c0,1.7,0,3.4,0,5,0,.6.2.9.7,1.2,1.2.7,2.8.9,3.7,2.2ZM64.2,19.7c0-1.6.5-2.4,1.5-2.3.8,0,1.4.9,1.4,2.1,0,1.1-.8,1.9-1.8,1.8-1.1,0-1-1-1.1-1.6ZM17.1,123.8c0,.8-.2,1.3-1.2,1.3-.9,0-1.3-.5-1.3-1.3,0-1.5,0-3,0-4.6,0-1.4-.2-1.7-1.7-1.7-1.4,0-2.9,0-4.3,0-1,0-1.4.5-1.4,1.5,0,1.6,0,3.1.1,4.7,0,.9-.2,1.5-1.2,1.5-1,0-1.2-.7-1.1-1.5.3-3.6,0-7.3.1-11,0-.8,0-1.6-.2-2.4,0-1.1.3-1.6,1.2-1.6.9,0,1.4.6,1.2,1.7-.3,1.3,0,2.7-.2,4-.2.8.3,1.3,1.2,1.3,1.6,0,3.1,0,4.7,0,1.2,0,1.6-.4,1.6-1.7,0-1.3,0-2.5-.1-3.8,0-1.1.4-1.6,1.4-1.7,1,0,1,.8,1.1,1.5,0,2,0,3.9,0,5.9v1.1h0c0,2.2,0,4.5,0,6.7ZM29.4,124.9c-.5.3-1.1.5-1.5.1-.9-.7-1.6-.4-2.5,0-1.4.8-2.7.4-3.9-.5-1.1-.8-1.4-2-1.1-3.2.4-1.6,1.8-2.3,3.2-2.8.7-.2,1.5-.3,2.3-.3s1.2-.4,1.2-1.3c0-2.4-1.5-3.4-3.7-2.7-.3.1-.7.2-1,.3-.5,0-1,0-1.1-.6-.2-.5,0-.9.4-1.2,1.6-1.2,5.7-.6,6.9,1,.5.6.7,1.2.7,1.9v3.2h0c0,1.6,0,3.3.3,4.9,0,.4.3.8-.2,1.1ZM43,125.1c-.6.3-1.2.3-1.8-.3-.4-.5-1-.4-1.5,0-2.3,1.4-3.7.6-5.2-.5-.7-.5-.9-1.3-.9-2.1,0-1.1,0-2.2,0-3.3,0-1.8,0-3.6-.5-5.4-.2-.7.2-1,.9-1.1,1.3,0,1.7.2,1.7,1.1,0,2-.1,4-.1,6s-.3,2.4.7,3.4c.9.8,1.8,1,3.1.4,1-.5,1.8-1,1.7-2.4-.2-2.5.2-4.9-.4-7.4-.3-1,.7-1.1,1.3-1.2.7-.1,1.3.2,1.2,1-.2,2.3,0,4.6-.1,7,0,1.1,0,2.2.2,3.3,0,.5.3,1.2-.4,1.5ZM34.3,54.4c-3.3,2.8-5.2,6.3-5.8,10.5,0,.3,0,.7-.2.9v2c.5,1.1.5,2.4.7,3.6.6,2.5,1.8,4.7,2.5,7.2.1.4.3.8.8.8.6-.1.6-.7.6-1.2.1-2.4.9-4.5,1.8-6.7.6-1.5,1.6-2.8,2.6-4,.3-.4.8-.7,1.2-.6.5.2.5.8.5,1.2,0,4.3-.2,8.7-.2,13,0,2.5,0,5,1.4,7.3.7,1.2,1,2.6,2.2,3.5.2.2.3.5.1.8-.2.4-.5.2-.8,0-4.3-1.8-8.5-3.7-12.3-6.4-5.2-3.6-9.7-7.9-13.3-13.2-2.1-3.1-3.8-6.5-5.5-9.8-.8-1.7-1.6-3.5-2.1-5.3-.1-.4-.3-.8-.2-1.3,0-.2,0-.4,0-.6h0c-1.4-2.2-1.4-4.8-1.9-7.2,0-.1,0-.2,0-.3-.4-1.1-.6-2.3-.6-3.4,0-2.9-.3-5.7-.3-8.6,0-9.6-.1-19.3-.2-28.9,0-.1,0-.3,0-.4-.3-2.5-.1-2.6,2.4-2.4,1,0,2,.1,2.9.1,17.8,0,35.7,0,53.5,0s1.6-.2,2.4-.2c1.2,0,1.6.5,1.1,1.6-.2.5-.3,1.1-.6,1.6-1.2,2.5-3.2,3.8-5.9,4.5-4.2,1-8.5.5-12.8.6-2.8.1-5.6.7-8.3,1.2-2.3.4-4.3,1.5-6.3,2.5-1.3.7-2.7,1.7-3.2,3.2-.4,1.2-1.1,1.9-2.2,2.6-2.6,1.6-5.2,3.3-7.5,5.4-.5.4-1,.7-1.5,1.1-.3.2-.6.5-.4.9.2.4.6.5,1,.5.3,0,.6-.2,1-.2.3,0,.7-.2.9.2.2.3,0,.6-.1.9-.2.3-.4.5-.5.8-.5.9-.5,1.8.1,2.5.6.7,1.3,1.5,2,2.1.5.5.9.4,1.4-.1.6-.8,1.3-1.5,2.2-2,1.5-.8,3.1-.7,4.6,0,1.5.6,2.8,1.4,4.2,2.4.7.5.8,1,.7,1.7-.8,3.4-5.3,5.4-8.2,4.5-1.8-.6-2.2-.3-2,1.6.3,2.3,1.8,4.1,3.6,5.5.5.5,1,.1,1.4-.4,1.2-1.5,2.6-2.8,4.3-3.8,1.8-1,3.7-1.3,5.7-1.5,2.7-.3,5.3-.8,7.6-2.4,1.1-.8,1.9-1.9,2-3.4,0-.5.2-1,.5-1.5.5,1.5,1.1,3,.2,4.7-1.5,2.7-3.4,4.6-6.2,6-3.6,1.7-7.2,3.6-10.3,6.2ZM36.9,23.5c-.8.4-1.8.3-2.7.3-.5,0-.9,0-1.4,0-.4,0-.6-.2-.7-.5-.1-.3,0-.6.2-.9.7-.6,1.4-1.3,2.5-.9.7.3,1.6-.1,2.2.5.7.6.6,1.1-.2,1.5ZM52.9,125.3c-2.6,1.1-5.1-.5-5.1-3.3,0-1.1.1-2.1,0-3.2h0c0-1,0-2,0-3,0-.8-.2-1.2-1-1.3-.6,0-1.2-.2-1.2-1,0-.8.6-1,1.2-1.2.7-.2,1-.5,1-1.2s.6-1.1,1.3-1c.8,0,1,.5.8,1.2-.1.8.3,1.1,1,1.1.5,0,1,0,1.5,0,.7,0,1.2.3,1.3,1,0,.8-.5,1.2-1.2,1.3-.5,0-.9-.1-1.4-.2-.8,0-1.3.3-1.3,1.2,0,1.9,0,3.8,0,5.6s.7,2.2,2.3,1.8c.7-.2,1.3,0,1.5.6.3.8-.1,1.3-.9,1.6ZM53.7,90.3c-1.3.5-2.6,1.3-3.9,1.8-.5.2-1,.4-1.4,0-.4-.5,0-.9.3-1.3.6-.9.7-2.1,1.2-2.9,1.1-1.5.8-3.2.9-4.9.3-4.7.2-9.4.2-14,0-3-.1-6-.2-9,0-.7-.3-1.2-.8-1.6-.3-.3-.5-.7-.3-1.1.2-.5.6-.6,1.1-.6,3.8.3,7.5,0,11.3,0,3.9,0,7.8,0,11.7-.2,1.9,0,3.9,0,5.9,0,.9,0,1,.8.9,1.5-.6,2.9-1.9,5.5-3.1,8.1-.2.4-.4.9-1,.8-.7-.1-.5-.7-.5-1.1-.2-2.8-1.7-4.4-3.9-4.3-1,0-1.9.5-2.8.9-.3.1-.5.4-.5.7-.1,1.6-.6,3.1-.3,4.7.3,1.8-.1,3.6,0,5.4,0,1.7,0,3.3,0,5,0,1.2-.5,2.2-1.5,2.8-.9.6-1.5,1.5-2.4,2-.8.5-1.1.4-1.1-.6,0-2.9,0-5.7,0-8.6h0c0-2.5,0-5.1,0-7.6,0-.7,0-1.4-.2-2.1-.5-2.2-2-3.1-4.2-2.6-.5.1-1,.3-1.4.5-.7.3-1,.8-1.1,1.5-.7,6.9-.4,13.8-.4,20.6,0,.9,0,1.8,0,2.7,0,1.7-1,2.6-2.3,3.2ZM57.7,119.6c.2,1.3.5,2.6,1.8,3.3.9.5,1.8.7,2.8.4.5-.2,1.1-.2,1.6-.3.5,0,1-.2,1.2.5.2.6,0,1.2-.7,1.4-1.6.7-3.2.7-4.9.2-2.3-.6-3.2-2.3-3.7-4.5-.6-2.6-.1-4.9,1.5-7,1.4-1.8,3.4-1.6,5.2-1.2,1.7.4,2.2,1.9,2.5,3.4.4,2.5.3,2.6-2.2,2.6h-1.4s0,0,0,0c-.9,0-1.9,0-2.8,0-.7,0-1,.3-.9,1.1ZM81.2,125.2c-.9,0-1.7,0-2.6-.1h0c-1.2,0-2.4-.1-3.6,0-1,.1-1-.8-1-1.5.2-3.2,0-6.3.1-9.5,0-1.3,0-2.7,0-4-.1-1.1.2-1.3,1.3-1.3,1.9,0,3.8.3,5.8,0,.8-.2,1.1.4,1.1,1.1s-.4,1.2-1.2,1c-1.1-.2-2.2,0-3.4-.2-.9,0-1.3.4-1.3,1.3,0,.8,0,1.6,0,2.4,0,.9.4,1.2,1.3,1.2,1,0,2,0,3,0,.7,0,1.2,0,1.3.8.1.8-.4,1-1,1.2-.9.2-1.8,0-2.7,0-1.6,0-1.8.2-1.8,1.8,0,.8,0,1.5,0,2.3,0,1,.3,1.5,1.3,1.5,1.2,0,2.3.2,3.5,0,.7-.1,1.5,0,1.5.9,0,1-.7,1.2-1.4,1.2ZM93.9,113.5c-.1.8-.8,1.2-1.6,1-.6-.2-1.2-.3-1.9-.3-2,0-2.9,1.8-3.2,3.2-.2,1.3,0,2.5.3,3.8.6,1.8,2.4,2.7,4.3,2.1.1,0,.3,0,.4-.1.7-.2,1.3-.2,1.5.6.2.8-.2,1.2-.9,1.4-4.2,1.2-8-1.5-7.7-6.5h0c-.5-1.7.6-3.1,1.5-4.5.7-1,1.8-1.7,3.1-1.8,1,0,2,0,3,0,.7,0,1.3.2,1.2,1.1ZM105.3,123.2c-1.2,1.8-3.6,2.7-5.9,2-2.1-.6-3.6-2.7-3.6-4.8,0-.5,0-.9,0-1.4h0c0-2,0-4,1.7-5.5.9-.8,1.8-1.3,3-1.2,1,.1,2-.2,2.9.3,1.6.8,2.5,2.1,2.8,3.7.3,2.3.6,4.7-.9,6.9ZM111,125.3c-.8,0-1.2-.3-1.2-1.2.1-2.3.1-4.6.1-7h0c0-1.7,0-3.3,0-5,0-1.3,0-2.6-.3-3.9-.3-.9.2-1.5,1.1-1.6.9-.1,1.3.2,1.3,1.3,0,4.1,0,8.1,0,12.2s0,2.6.1,3.9c0,.8-.3,1.2-1.1,1.3ZM123.1,118.5c-.3,0-.6,0-1,0h0c-1.2,0-2.5.1-3.7,0-.8,0-1.1.3-1,1.1.4,3,2.6,4.4,5.5,3.4.3,0,.5-.2.8-.2.7,0,1.2.1,1.3.8.1.7-.2,1-.8,1.2-2.1.6-4.1.8-6.2-.2-.3-.1-.5-.3-.7-.5-2.4-2.7-2.8-7.2-.5-10.2,1.2-1.6,3.5-2.1,5.6-1.5,1.7.5,2.3,2.1,2.5,3.6.4,2.3.4,2.3-2,2.3ZM142.8,125.2c-.6.3-1,.1-1.5-.3-.5-.4-1-.4-1.5-.1-2.9,1.3-5.5.3-6.3-2.8-.7-2.7-.7-5.6,1.5-8,1-1.1,2.2-1.6,3.7-1.6.4,0,.9,0,1.3,0,.8,0,1.2-.4,1.1-1.2-.1-1-.2-2-.3-3,0-.9.3-1.4,1.2-1.4.9,0,1.2.6,1.2,1.3,0,2.7,0,5.4,0,8.2h0c0,2.6-.2,5.1,0,7.7,0,.5,0,1-.5,1.3ZM156.1,124.4c-.1.3-.4.5-.7.6-1.4.2-2.8.6-4.3.3-3.1-.6-4.3-2.7-4.5-5.7-.2-1.9,0-3.9,1.4-5.6,1.2-1.5,3.6-2.2,5.7-1.6,1.4.4,2.4,2,2.5,4,0,.3,0,.6,0,1,0,.8-.3,1.1-1.1,1.1h-2.6c0,0,0,.1,0,.1-1,0-2,0-3,0-.5,0-1.1.3-.9.8.4,1.2.5,2.6,1.9,3.4,1.5,1,2.9.6,4.4,0,.4-.2.9-.3,1.2.2.3.4.4.8.1,1.2ZM159.2,93.2c-4.5,0-9.1,0-13.6,0-2.3,0-4.7-.2-7,.2-.8.1-1.4-.3-2.1-.4-.5-.1-.4-.6-.2-1v-.6c-.2-.3-.1-.6-.1-1,0-9.7,0-19.3,0-29,0-2,0-1.9-2-2-3.2-.3-6.3.2-9.5,0-3.5-.1-7,0-10.5,0s-1.9.3-1.3,1.8c0,.2.1.3.1.5-.7,6.4-.1,12.9-.3,19.3,0,2.4,0,4.9,0,7.4,0,1,.2,2,.2,3,0,1.6-.4,1.8-1.9,1.7-2.3,0-4.6,0-7,0h-32.9c-1.9,0-3.8,0-5.6,0s-.7,0-.8-.4c0-.3,0-.6.3-.8,1.5-.8,2.6-2.1,4-2.9,0,0,.2-.2.3-.2,0-.1,0-.2.2-.2h0c.1-.6.6-.9,1-1.1,1.5-1.1,2.3-2.7,3.7-3.8,0,0,0-.1,0-.1,0-.5.4-.8.9-1.1.2-.3.4-.6.7-.9,0-.3.1-.5.5-.6,0,0,.1-.2.2-.3,0-.3.1-.4.3-.5.7-.6,1.1-1.3,1.6-2.1.1-1.3,1.1-2.1,1.7-3.1,1.7-2.8,2.8-5.8,4.2-8.7,0-.3.2-.6.3-.8.7-1.6.8-3.5,1.7-5,0-.1,0-.3,0-.4-.1-1,.4-1.8.5-2.7.3-2.2.9-4.3,1.3-6.5,0-.3,0-.5,0-.8-.2-.9.1-1.8.3-2.7.7-3.8,1.1-7.6,1.4-11.4.7-9.1.8-18.2.7-27.3,0-.8,0-1.7-.2-2.5-.3-.8.4-.6.7-.6,2,0,4-.1,6,0,4.5.2,9,0,13.5,0,2,0,2.3.4,2.2,2.3,0,2.4,0,4.7,0,7.1v22.1c0,2.1.2,2.3,2.3,2.3,6.7,0,13.3,0,19.9,0,.7,0,1-.3,1.1-.9,0-.3,0-.7,0-1.1V7.4c0-1.5.1-1.5,1.6-1.5,7,0,14,0,21,0,1.5,0,2.1.6,2.1,2.1v78.5c0,1.7,0,3.5,0,5.2s-.4,1.6-1.6,1.6ZM167.3,123.2c0,.3,0,.6,0,.9,0,.7-.3,1.2-1.1,1.2s-1.3-.5-1.2-1.2c.1-1.3,0-2.7,0-4v-3.2h0c-.1-2.9.3-5.8-.2-8.7-.1-.8.2-1.4,1.2-1.4,1,0,1.4.5,1.3,1.4-.2,5,0,10,0,15ZM179.3,125c-.5.3-1,.3-1.4,0-.8-.7-1.4-.5-2.1,0-1.3.9-3.5.4-4.6-.9-.9-1.1-.7-3,.5-4.2,1-1,2.3-1.5,3.7-1.6.8,0,1.8.1,2-1,.3-1.2-.5-2.7-1.6-3-.8-.3-1.6-.2-2.3,0-.4.1-.8.3-1.3.2-.5-.1-.8-.3-.9-.8,0-.5.2-.9.6-1,1.7-.5,3.5-.8,5.2-.2,1.4.5,2,1.7,2.2,3.1.1,1.2,0,2.4,0,4.1h0c0,1.1.2,2.6.3,4,0,.5.2,1-.3,1.3ZM184.3,93.2c-1.7,0-3.5,0-5.2,0-1.1,0-1.4-.5-1.2-1.5.2-.8,0-1.6,0-2.4v-40.4h0,0c0-13.9,0-27.8,0-41.7,0-1,.5-1.4,1.3-1.3,1.6.2,3.2,0,4.9,0,12.8,0,25.5,0,38.3,0,1.3,0,2.5-.1,3.8,0,.8.2.9.5.9,1.2,0,3.4,0,6.8,0,10.2,0,2.4-.2,4.9.1,7.3.2,1.3-.6,1.9-1.9,1.9-7-.3-14,0-20.9-.1h-.2c-1.9.1-2,.1-2,2.1,0,3.3,0,6.5,0,9.8,0,.7.3,1.1,1,1.3,1.2.3,2.4.3,3.6.2,4.1-.1,8.2,0,12.3,0,1,0,1.9,0,2.8-.2,1.4-.2,2.2.5,2,1.8-.2,1.7-.1,3.3,0,5,0,3.8-.2,7.5,0,11.3,0,1.1-.4,1.5-1.6,1.5-6,0-12.1,0-18.1,0-1.9,0-2.1.2-2.1,2.1v9.7c0,1.2.3,1.6,1.5,1.6,6.9,0,13.8,0,20.7,0,1.3,0,2.5.2,3.8-.1.7-.2,1.4.7,1.4,1.6-.3,5.6-.2,11.2-.1,16.7,0,2.5,0,2.4-2.6,2.3-1.7,0-3.5,0-5.2,0-12.5,0-25,0-37.5,0ZM196.6,117.3c-1.1.7-2.3,1.3-3.7,1.2-.9,0-1.3.3-1.3,1.3,0,1.4,0,2.8,0,4.2,0,.8-.3,1.2-1.1,1.2-.7,0-1.2-.3-1.2-1.1,0-1.2,0-2.5.1-3.7,0-2.8,0-5.6,0-8.5s0-1.2-.2-1.8c0-.8.2-1.2,1-1.3,1,0,2-.1,3.3-.2h0c1.4.3,3,.2,4.2,1.7,2.2,2.6.7,5.6-1.4,7ZM207.1,114.3c0,0-.1,0-.2,0-2.9,1.1-2.9,1.1-3,4.2,0,1.8,0,3.5,0,5.3,0,.8-.1,1.4-1.1,1.3-.9,0-1.2-.7-1-1.4.2-1.3,0-2.6.1-3.9h0c.1-1.8-.1-3.5-.1-5.2,0-.3-.1-.6-.2-.8-.1-.4-.5-.9,0-1.2.6-.3,1.2-.6,1.8.1.5.8,1.1.7,1.7.1.5-.4.9-.7,1.6-.6.5,0,.9.3,1,.8,0,.6,0,1-.6,1.2ZM219.3,122c-.8,2.5-2.7,3.3-4.9,3.4-1.8,0-3.4-.8-4.4-2.4-.9-1.3-.8-2.8-.8-4.2h0c-.1-1.6,0-3.1,1.1-4.5,1.2-1.7,2.8-2.2,4.6-2,3.7.3,4.7,2.3,5,5.4.2,1.5,0,2.9-.6,4.3ZM232.1,113.5c-1.3,2.4-1.8,5-2.9,7.5-.5,1-.8,2.1-1.2,3.2-.2.7-.6,1.2-1.4.9h0c-.9,0-1.3-.3-1.5-1.1-.9-3.4-2.1-6.8-3.4-10.1-.2-.6-.5-1.2.3-1.5.9-.4,1.6-.1,1.9.8.7,2.3,1.3,4.6,2,6.9.1.4,0,1.1.7,1.1.6,0,.7-.5.9-1,.8-2.3,1.6-4.6,2.3-6.9.3-.9,1.1-1.3,1.9-.9.5.3.5.7.3,1.1ZM237.3,113.6c-.3,1.9,0,3.8,0,5.7h0c0,1.5,0,3,0,4.5,0,.7,0,1.5-1,1.4-.9,0-1.3-.5-1.2-1.5.3-2.8.2-5.5,0-8.3,0-.6-.2-1.1-.3-1.7-.1-.9.3-1.4,1.2-1.5.9,0,1.5.5,1.4,1.4ZM236.2,110.7c-.9,0-1.6-.6-1.6-1.5,0-.9.7-1.6,1.5-1.7h0c.9,0,1.5.7,1.5,1.6,0,.9-.6,1.5-1.5,1.6ZM251.3,123.9c0,.8-.2,1.3-1,1.3s-1.4-.5-1.3-1.4c.2-1.9,0-3.8.1-5.7,0-.5,0-.9,0-1.4-.2-2.2-1.2-3-3.5-2.5-1.4.3-1.8.7-1.8,2.2,0,2.4,0,4.9,0,7.3,0,.8-.1,1.4-1.1,1.5-.9,0-1.4-.3-1.3-1.2.3-3,.2-6,0-9,0-.4-.1-.8-.2-1.2,0-.4-.3-.9.1-1.2.5-.3,1.1-.4,1.5,0,.7.6,1.2.5,2,.2,1.2-.5,2.5-.6,3.8-.3,1.2.2,2.4,2,2.5,3.6,0,.7,0,1.3,0,2v2h0c0,1.3,0,2.6,0,3.9ZM263.5,113.5c-.2.7-.7,1.3-1.5,1-.7-.2-1.5-.3-2.2-.2-.9.2-1.6.6-2.2,1.3-1.6,2.1-1.1,6.1.9,7.4.8.5,1.7.7,2.6.3.4-.2.8-.3,1.2-.3.5,0,.9.2,1.1.7.2.6,0,1-.6,1.2-2.5,1-6.3.5-7.6-2.8-1-2.6-.8-5.1.7-7.5,1.1-1.8,2.7-2.5,4.8-2.4h0c.7,0,1.3,0,2,.1.6,0,1.2.2,1,1.1ZM267.3,120c.5,2.6,2.1,4.3,5.7,3.1.8-.2,1.5-.3,1.8.6.2.8-.5,1.1-1.1,1.3-1.7.5-3.4.7-5.1,0-2.7-1.1-3.6-4.5-3.2-7.2.2-1.6.5-3.1,1.9-4.3,1.3-1.1,4.2-1.7,5.6-.8,1.4.8,1.9,2.2,2,3.7.2,2.2.1,2.2-2.1,2.2h-1.6c-.9,0-1.8,0-2.7,0-1,0-1.3.4-1.1,1.4ZM292.6,125.1c-.6.3-1.1,0-1.6-.4-.4-.4-.9-.2-1.3,0-2.8,2.1-6.8-1-6.5-4.1,0-.5,0-1,0-1.7h0c-.1-1.5,0-3,1.2-4.4,1.2-1.5,2.5-2.2,4.4-2.2.2,0,.5,0,.8,0,1.3,0,1.6-.5,1.4-1.7-.1-.8-.3-1.6-.4-2.4-.2-1,.2-1.5,1.4-1.6.9,0,1.2.3,1.2,1.4-.2,5.2,0,10.4,0,15.5,0,.6.1,1.2-.5,1.5ZM289.5,56.1c-1,.8-1.9,1.8-3.3,2-.3.2-.6.3-.9.5-.7.9-1.8,1.2-2.7,1.6-.8.4-1.6.8-2.5.9-.5.2-1.1.5-1.7.5-.9.4-1.6,1-2.7.8-.1,0-.3,0-.4,0-1.8.3-3.6.9-5.5,1-.3,0-.7,0-1,0-.1,0-.3.1-.4.1-2.1.1-2.1.1-2.1,2.1,0,6.8,0,13.6,0,20.4,0,1.8-.1,3.6,0,5.4.1,1.3-.6,1.9-1.9,1.7-.3,0-.6,0-1,0h-19.3c-1.8,0-1.9-.2-1.9-2.1,0-2.2,0-4.3,0-6.5,0-23.2,0-46.3,0-69.5,0-2.5,0-5.1,0-7.6,0-.5.1-.8.6-.8.4,0,.7-.2,1.1-.1,3.5.1,6.8-.7,10.3-1,2.6-.2,5.3-.4,7.9-.4,3.6,0,7.2,0,10.8,0,2.2,0,4.3.8,6.4,1,.2,0,.4.2.5.3.2,0,.4,0,.6.1,1.5-.2,2.9.4,4.3.8,3.5,1.2,6.8,2.9,9.6,5.3,2.8,2.3,4.8,5.3,6,8.7,1.7,4.8,1.8,9.8,1.1,14.8-.3,2-.6,3.9-1.4,5.7-.7,1.6-1.4,3.2-2.3,4.8-.8,1.3-1.6,2.7-2.5,3.9-1.7,2.2-3.7,4-5.9,5.6ZM306,117.9c0,.6-.5.6-1,.6-.9,0-1.8,0-2.7,0h0s0,0,0,0c-.9,0-1.8,0-2.7,0-1.2,0-1.5.6-1,1.7.1.3.2.5.3.8.7,2,2.7,2.9,4.7,2.2.3-.1.7-.3,1-.3.6,0,1,.3,1.2.8s-.1.9-.6,1c-2.3.8-5.2,1.1-7.3-1-.8-.8-1.2-1.8-1.4-2.9-.5-3-.5-6.3,2.3-7.9,2.8-1.6,5.7-1.3,6.8,2.2.3.8.2,1.8.2,2.7ZM322.4,125.2c-2.2-.2-4.4,0-6.6-.1-.8,0-.6-.7-.6-1.2,0-2.1.1-4.3,0-6.4h0c-.1-2.5.2-4.9-.2-7.4,0-.7,0-1.3.9-1.3.8,0,1.2.4,1.3,1.2,0,.7,0,1.4,0,2.1,0,3.3,0,6.5,0,9.8,0,1,.4,1.5,1.3,1.4,1.3,0,2.5.2,3.8-.1.7-.2,1.4,0,1.5.9.1.9-.5,1.3-1.3,1.2ZM328.1,118.8h0v5c0,1.1-.4,1.6-1.2,1.5-1-.1-1.1-.9-1-1.7.3-2.9,0-5.9,0-8.8s-.1-.7-.2-1c-.2-.5-.3-.9.2-1.3.5-.3,1-.4,1.5-.2.6.2.6.7.6,1.2,0,1.7,0,3.5,0,5.2ZM328.6,109.2c0,.8-.7,1.6-1.5,1.6-.9,0-1.7-.7-1.7-1.5,0-.9.7-1.7,1.6-1.7.8,0,1.6.8,1.6,1.6h0ZM341.3,117.9c-.2.4-.5.7-1,.5-1.9,0-3.8,0-5.7,0-.7.3-.9.8-.6,1.5.2.6.3,1.3.4,2,.2.2.5.5.8.7,1.4.6,2.9.9,4.4.2.8-.4,1.5,0,1.8.8.3.9-.3,1.2-1,1.4-1.5.4-3,.6-4.6.2-.5-.1-1-.3-1.4-.8,0,0-.2-.1-.3-.2-.3,0-.5-.1-.5-.4-.2-.2-.4-.4-.5-.5-.9-.6-1-1.6-1.2-2.5-.4-1.4-.7-2.9.2-4.3,0-.2,0-.5,0-.7,0-.5.1-.9.5-1.2,0,0,0,0,0,0,0-.5.4-.8.8-1l.7-.8c1.1-1.1,2.4-.9,3.8-.6h.5c.3,0,.6,0,.8.4h0s0,0,0,0c.4,0,.7.4.8.8,0,0,0,0,0,0,.8.7,1.6,3.4,1.2,4.3ZM333.8,107c.2,0,.4,0,.7.2,1.1.6,2.2,1.3,3.3,2,.4.3.8.7.5,1.2-.3.5-.8.6-1.3.4-1.2-.7-2.4-1.4-3.7-2.1-.4-.2-.5-.6-.3-1,.1-.4.4-.6.9-.6ZM354.1,114.2c-1.5.4-1.4.4-1.2,1.9.3,2.1-1.6,5-4.6,4.7-.4,0-.7-.1-1.1-.1-.6,0-1,.3-1.1.9,0,.6.2,1,.8,1.2.6.2,1.2.2,1.8.2h0c1.1,0,2.2-.2,3.4,0,2.2.2,3.2,2,2.5,4-1.3,3.5-6.9,4.8-9.8,3.3-1.3-.7-1.9-3.2-1.1-4.5.6-.9,1.2-1.7.5-2.9-.4-.7.1-1.5.7-2.1.4-.5.6-.9.1-1.4-1.4-1.7-1.5-3.3-.6-5,.9-1.5,2.9-2.5,4.9-2,1.5.4,3,.3,4.5,0,.6,0,1.1-.1,1.2.6.1.7-.2,1.1-.9,1.2ZM365.5,124.7c-2.9,1.5-7.8.8-8.7-3.5-.5-2.1-.5-4,.3-5.9.9-2.2,2.4-3.3,5.2-3.1,2,.1,3,1,3.5,3.3.4,1.9-.4,2.9-2.3,2.9-.4,0-.7,0-.9,0h0c-1.1,0-2,0-2.9,0-1,0-1.3.5-1.1,1.5.8,3,2.6,4,5.5,3.1.3,0,.6-.2.8-.2.5,0,.8.2,1,.7.2.5,0,.9-.5,1.1ZM364.9,93.3c-2,0-4.1,0-6.1,0-12.5,0-25.1,0-37.6,0-2.5,0-4.9-.2-7.3,0-.8,0-1.1-.6-1.1-1.3.4-7.9,0-15.9.2-23.8,0-6.2,0-12.3,0-18.5h0V9.8c0-.9,0-1.9-.2-2.8-.1-.6,0-.9.8-.9,4.8-.2,9.7-.2,14.5-.2,2.6,0,5.2,0,7.8,0,1.6,0,1.6,0,1.6,1.6,0,20.5,0,41.1,0,61.6s0,1.5,0,2.2c0,1,.5,1.5,1.4,1.5,1.9,0,3.8,0,5.7,0,6.8,0,13.5.1,20.3,0,1.2,0,1.7.4,1.6,1.6-.3,4.2-.1,8.3,0,12.5,0,1.7-.2,3.4.2,5.2.1.7-.7,1.3-1.7,1.3Z"/>
          <path class="cls-4" d="M63.2,74.1c0-2.5,0-5.1,0-7.6,0-.7,0-1.5-.2-2.1-.5-2.2-2-3.1-4.2-2.6-.5.1-1,.3-1.4.5-.7.3-1,.8-1.1,1.5-.7,6.9-.4,13.8-.4,20.6,0,.9,0,1.8,0,2.7,0,1.7-1,2.6-2.3,3.2-1.3.5-2.6,1.3-3.9,1.8-.5.2-1,.4-1.4,0-.4-.5,0-.9.3-1.3.6-.9.7-2,1.2-2.9,1.1-1.5.8-3.2.9-4.9.3-4.7.2-9.4.2-14,0-3-.1-6-.2-9,0-.7-.3-1.2-.8-1.6-.3-.3-.5-.6-.3-1.1.2-.5.6-.6,1.1-.6,3.8.3,7.5,0,11.3.1,3.9,0,7.8,0,11.7-.2,1.9,0,3.9.1,5.9,0,.9,0,1,.8.9,1.5-.6,2.9-1.9,5.5-3.1,8.1-.2.4-.4,1-1,.8-.7-.1-.5-.7-.5-1.1-.2-2.8-1.7-4.3-3.9-4.3-1,0-1.9.5-2.8.9-.3.1-.5.4-.5.7-.1,1.6-.6,3.1-.3,4.7.3,1.8-.2,3.6,0,5.4,0,1.7,0,3.3,0,5,0,1.2-.5,2.2-1.5,2.8-.9.6-1.5,1.5-2.4,2-.8.5-1.1.4-1.1-.6,0-2.9,0-5.7,0-8.6h0,0Z"/>
          <path class="cls-4" d="M67,28.8c0,1.7,0,3.3,0,5,0,.6.2.9.7,1.2,1.2.7,2.8.9,3.7,2.2.4.6.8,1.2,1.5,1.6.4.3.4.8.2,1.2-.9,1.9-.9,3.9-.7,5.9.1,1.3-.3,1.7-1.6,1.9-2.2.4-4.4.8-6.6.6-1.2,0-2.3-.2-3.5,0-1.2.2-1.7-.5-1.6-1.7,0-.8,0-1.5,0-2.3-.2-1.4.1-2,1.4-2.6.2,0,.3-.2.5-.2.3-.2.7-.3.6-.7,0-.4-.5-.4-.9-.4-.4,0-.9,0-1.3,0-.4,0-.8,0-1-.5-.2-.4,0-.8.3-1.1,1.3-1.6,2.8-3.1,5-3.3.3,0,.6-.2.9-.3.6-.2.8-.5.3-1.1-.5-.5-.7-1.1-.7-1.9,0-2.8,0-5.5,0-8.3,0-.9.2-1.5,1.3-1.4,1.2,0,1.5.3,1.5,1.5v4.9h0Z"/>
          <path class="cls-4" d="M63.9,50.2c3.5,0,6.7,0,9.8,0,1.2,0,2.3-.1,3.5-.2.9,0,1.3.4,1.3,1.2,0,.5-.1,1.1-.2,1.6,0,1.3-.8,1.8-2,2.2-1.5.5-3,.4-4.6.4-2.2,0-4.4.2-6.6.2-3.2,0-6.3,0-9.5,0-.6,0-1.2,0-1.7-.2-.8-.2-1.2-.6-1-1.5.2-.6,0-1.1,0-1.7-.3-1.3.3-2,1.6-2,3.3,0,6.5-.1,9.4,0h0Z"/>
          <path class="cls-4" d="M348.7,123c1.1,0,2.2-.2,3.4,0,2.2.2,3.2,2,2.5,4-1.3,3.5-6.9,4.8-9.8,3.3-1.3-.7-2-3.2-1.1-4.5.6-.9,1.2-1.7.5-2.9-.4-.7.1-1.5.7-2.1.4-.5.6-.9.1-1.4-1.4-1.7-1.5-3.3-.6-5,.9-1.5,2.9-2.5,4.9-2,1.5.4,3,.3,4.5,0,.6,0,1.1-.1,1.2.6,0,.7-.2,1.1-.9,1.2-1.5.4-1.4.4-1.2,1.9.3,2.1-1.6,5-4.6,4.7-.4,0-.7,0-1.1-.1-.6,0-1,.3-1.1.9,0,.6.2,1,.8,1.2.6.2,1.2.2,1.8.2h0ZM348.6,124.8h0c-.5,0-1.1,0-1.6,0-.7,0-1.5.2-1.6,1-.1.9-.6,1.9.5,2.6,2.1,1.4,5.1.7,6.5-1.5.8-1.2.3-2.1-1-2.1-.9,0-1.9,0-2.8,0h0ZM345.9,116.3c0,1.8.9,2.8,2.4,2.8,1.5,0,2.6-1.3,2.6-2.9,0-1.4-1.2-2.5-2.6-2.5-1.4,0-2.4,1.1-2.4,2.6h0Z"/>
          <path class="cls-4" d="M17.1,117.1c0,2.2,0,4.5,0,6.7,0,.8-.2,1.3-1.2,1.3-.9,0-1.3-.5-1.3-1.3,0-1.5,0-3,0-4.6,0-1.4-.2-1.7-1.7-1.7-1.5,0-2.9,0-4.3,0-1,0-1.4.5-1.4,1.5,0,1.5,0,3.1.1,4.7,0,.9-.2,1.5-1.2,1.5-1,0-1.2-.7-1.1-1.5.3-3.7,0-7.3.1-11,0-.8,0-1.6-.2-2.4,0-1.1.3-1.6,1.2-1.6.9,0,1.4.6,1.2,1.7-.3,1.3,0,2.7-.2,4-.2.8.3,1.3,1.2,1.3,1.6,0,3.1,0,4.7,0,1.2,0,1.6-.4,1.6-1.7,0-1.3,0-2.5-.1-3.8,0-1.1.4-1.6,1.4-1.7s1,.8,1.1,1.5c0,2,0,3.9,0,5.9v1.1h0,0Z"/>
          <path class="cls-4" d="M283.1,118.9c-.1-1.5,0-3,1.2-4.4,1.2-1.5,2.5-2.2,4.4-2.2.2,0,.5,0,.8,0,1.3,0,1.6-.5,1.4-1.7-.1-.8-.3-1.6-.4-2.4-.2-1,.2-1.5,1.4-1.6.9,0,1.2.3,1.2,1.4-.2,5.2,0,10.4,0,15.5,0,.6.2,1.2-.5,1.5-.6.3-1.1,0-1.6-.4-.4-.4-.9-.3-1.3,0-2.8,2.1-6.8-1-6.5-4.1,0-.5,0-1,0-1.7h0ZM290.9,118.6h0c0-.9,0-1.8,0-2.7,0-1.1-.5-1.5-1.4-1.6-2.1-.3-3.7.7-4.2,2.8-.7,2.9-.2,4.8,1.5,6.1,1.2.9,2.1.2,3.2-.2.9-.3,1-1.1.9-1.9,0-.8,0-1.7,0-2.5h0Z"/>
          <path class="cls-4" d="M143.2,116.2c0,2.6-.2,5.2,0,7.7,0,.5,0,1-.5,1.3s-1,.1-1.5-.3c-.5-.4-1-.4-1.5-.1-2.9,1.3-5.5.3-6.3-2.8-.7-2.7-.7-5.6,1.5-8,1-1.1,2.2-1.6,3.7-1.6.4,0,.9,0,1.3,0,.8,0,1.2-.4,1.1-1.2-.1-1-.2-2-.3-3,0-.9.3-1.4,1.2-1.4.9,0,1.2.6,1.2,1.3,0,2.7,0,5.4,0,8.2h0ZM135.2,118.8c0,.7.2,1.4.3,2,0,1,.6,1.7,1.4,2.2,1.1.8,2.2.4,3.2-.1.9-.5,1-1.3.9-2.2,0-1.5,0-3,0-4.5,0-1.6-.6-2.2-2.2-2-2.3.3-3.7,2-3.7,4.6h0Z"/>
          <path class="cls-4" d="M78.6,125.1c-1.2,0-2.4-.1-3.6,0-1,.1-1-.8-1-1.5.2-3.2,0-6.3.1-9.5,0-1.3,0-2.7,0-4-.1-1.1.2-1.3,1.3-1.3,1.9,0,3.8.3,5.8,0,.8-.2,1.1.4,1.1,1.1s-.4,1.2-1.2,1c-1.1-.2-2.2,0-3.4-.2-.9,0-1.3.4-1.3,1.3,0,.8,0,1.6,0,2.4,0,.9.4,1.2,1.3,1.2,1,0,2,0,3,0,.7,0,1.2,0,1.3.8.1.8-.4,1-1,1.2-.9.2-1.8,0-2.7,0-1.6,0-1.8.2-1.8,1.8,0,.8,0,1.5,0,2.3,0,1,.3,1.5,1.3,1.5,1.2,0,2.3.2,3.5,0,.7-.1,1.5,0,1.5.9,0,1-.7,1.2-1.4,1.2s-1.7,0-2.6-.1h0Z"/>
          <path class="cls-4" d="M251.2,120c0,1.3,0,2.6,0,3.9,0,.8-.2,1.3-1,1.3-.9,0-1.4-.5-1.3-1.4.2-1.9,0-3.8.1-5.7,0-.5,0-.9,0-1.4-.2-2.2-1.2-3-3.5-2.5-1.4.3-1.8.7-1.8,2.2,0,2.4,0,4.8,0,7.3,0,.8-.1,1.4-1.1,1.5-.9,0-1.4-.3-1.3-1.2.3-3,.2-6,0-9,0-.4-.1-.8-.2-1.2,0-.4-.3-.9.1-1.2.5-.3,1.1-.4,1.5,0,.7.6,1.2.5,2,.2,1.2-.5,2.5-.6,3.8-.3,1.2.2,2.4,2,2.5,3.6,0,.7,0,1.3,0,2v2h0Z"/>
          <path class="cls-4" d="M193.8,108.7c1.4.3,3,.2,4.2,1.7,2.2,2.6.7,5.6-1.4,7-1.1.7-2.3,1.3-3.7,1.2-.9,0-1.3.3-1.3,1.3,0,1.4,0,2.8,0,4.2,0,.8-.3,1.2-1.1,1.2s-1.2-.3-1.2-1.1c0-1.2,0-2.5.1-3.7,0-2.8,0-5.6,0-8.5,0-.6,0-1.2-.2-1.8,0-.8.2-1.2,1-1.3,1,0,2-.1,3.3-.2h0ZM191.6,115.6c0,1,.4,1.4,1.3,1.3.7,0,1.3-.3,2-.6,1.6-.7,2.3-2.7,1.6-4.2-.7-1.4-2.7-2.1-4.2-1.5-.5.2-.7.5-.7,1,.2,1.4.3,2.7,0,4h0Z"/>
          <path class="cls-4" d="M33.7,118.8c0-1.8,0-3.6-.5-5.4-.2-.7.2-1,.9-1.1,1.2,0,1.7.1,1.7,1.1,0,2,0,4-.1,6,0,1.2-.3,2.4.7,3.4.9.8,1.8,1,3.1.4,1-.5,1.8-1,1.7-2.4-.2-2.4.2-4.9-.4-7.4-.3-1,.7-1.1,1.3-1.2.7-.1,1.3.2,1.2,1-.2,2.3,0,4.6-.1,7,0,1.1,0,2.2.2,3.3,0,.5.3,1.2-.4,1.5-.6.3-1.2.3-1.8-.3-.4-.5-1-.4-1.5,0-2.3,1.4-3.7.6-5.2-.5-.7-.5-.9-1.3-.9-2.1,0-1.1,0-2.2,0-3.3h0Z"/>
          <path class="cls-4" d="M209.1,118.8c-.1-1.6,0-3.1,1.1-4.5,1.2-1.7,2.8-2.2,4.6-2,3.7.3,4.7,2.3,5,5.4.2,1.5,0,2.9-.6,4.3-.8,2.4-2.7,3.3-4.9,3.4-1.8,0-3.4-.8-4.4-2.4-.9-1.3-.8-2.8-.8-4.2h0ZM211.2,118.5c0,1.7,0,2.5.5,3.2.5,1.2,1.7,1.9,2.9,1.8,1.4-.1,2.2-.9,2.7-2.1.7-1.8.5-3.6,0-5.3-.4-1.3-1.2-1.9-2.6-2-1.4,0-2.3.5-2.9,1.6-.5.9-.5,2-.5,2.8h0Z"/>
          <path class="cls-4" d="M95.7,119c0-2,0-4,1.7-5.5.9-.8,1.8-1.3,3-1.2,1,.1,2-.2,2.9.3,1.6.8,2.5,2.1,2.8,3.7.3,2.3.6,4.7-.9,6.9-1.2,1.8-3.6,2.7-5.9,2-2.1-.6-3.6-2.7-3.6-4.8,0-.5,0-.9,0-1.4h0ZM104.3,118.7c0-1.3-.2-2.6-1-3.7-.9-1.1-2.1-1-3.3-.9-1,.1-1.6.9-1.9,1.9-.5,1.7-.6,3.5,0,5.2.4,1.3,1.5,2.2,2.8,2.2,1.3,0,2.5-.7,3-1.9.4-.9.5-1.9.4-2.9h0Z"/>
          <path class="cls-4" d="M29.2,118.9c0,1.6,0,3.3.3,4.9,0,.4.3.8-.2,1.1-.5.3-1.1.5-1.5.1-.9-.7-1.6-.4-2.5,0-1.4.8-2.7.4-3.9-.5-1.1-.8-1.4-2-1.1-3.2.4-1.6,1.8-2.3,3.2-2.8.7-.2,1.5-.3,2.3-.3s1.2-.4,1.2-1.3c0-2.4-1.5-3.4-3.7-2.7-.3.1-.7.2-1,.3-.5,0-1,0-1.1-.6-.2-.5,0-.9.4-1.2,1.6-1.2,5.7-.6,6.9,1,.5.6.7,1.2.7,1.9v3.2h0ZM27.2,121.2c-.1-.6.2-1.6-1-1.5-.9.1-1.8.4-2.7.8-1,.4-1.3,1.2-.7,2.2.5.9,1.2,1.1,2.1.8,1.7-.5,2.3-1,2.3-2.4h0Z"/>
          <path class="cls-4" d="M152.5,118.6c-1,0-2,0-3,0-.5,0-1.1.3-.9.8.4,1.2.6,2.6,1.9,3.4,1.5,1,2.9.6,4.4,0,.4-.2.9-.3,1.2.2.3.4.3.8.1,1.2-.2.3-.4.5-.7.6-1.4.2-2.8.6-4.3.3-3.1-.6-4.3-2.7-4.5-5.7-.1-1.9,0-3.9,1.4-5.6,1.2-1.5,3.6-2.2,5.7-1.6,1.4.4,2.4,2,2.5,4,0,.3,0,.7,0,1,0,.8-.3,1.1-1.1,1.1h-2.6c0,0,0,.1,0,.1ZM151.2,117c.5,0,1,0,1.4,0,.5,0,1.1,0,1.3-.5.3-.6.1-1.1-.3-1.6-1.2-1.6-3.7-1.3-4.6.5-.5,1.2-.2,1.6,1,1.6.4,0,.8,0,1.1,0h0Z"/>
          <path class="cls-4" d="M302.3,118.6c-.9,0-1.8,0-2.7,0-1.2,0-1.5.6-1,1.7.1.3.2.5.3.8.7,2,2.7,2.9,4.7,2.2.3-.1.7-.3,1-.3.6,0,1,.3,1.2.8.2.5-.1.9-.6,1-2.3.8-5.2,1.1-7.3-1-.8-.8-1.2-1.8-1.4-2.9-.5-3-.5-6.3,2.3-7.9,2.8-1.6,5.7-1.3,6.8,2.2.3.8.2,1.8.2,2.7s-.5.6-1,.6c-.9,0-1.8,0-2.7,0h0s0,0,0,0ZM302.2,117.1c.8,0,1.3,0,1.7-.6.3-.6,0-1.1-.4-1.6-.6-.7-1.3-1.2-2.3-.9-1.1.3-2.1.8-2.5,2-.2.7.2,1.1.8,1,1,0,1.9,0,2.7,0h0Z"/>
          <path class="cls-4" d="M122.1,118.6c-1.2,0-2.5,0-3.7,0-.8,0-1.1.3-1,1.1.4,3,2.6,4.4,5.5,3.4.3,0,.5-.2.8-.2.7,0,1.2.1,1.3.8.2.7-.2,1-.8,1.2-2.1.6-4.1.8-6.2-.2-.2-.1-.5-.3-.7-.5-2.4-2.7-2.8-7.2-.5-10.2,1.2-1.6,3.5-2.1,5.6-1.5,1.7.5,2.3,2.1,2.5,3.6.4,2.3.4,2.3-2,2.3-.3,0-.7,0-1,0h0c0,0,0,0,0,0ZM120.5,116.9c.3,0,.6,0,1,0,.5,0,1.1,0,1.3-.5.3-.6,0-1.2-.3-1.6-.6-.7-1.2-1.3-2.2-1-1.2.3-2,1-2.5,2-.2.5,0,.8.5,1,.8.2,1.5.2,2.3,0h0Z"/>
          <path class="cls-4" d="M362.6,118.5c-1.1,0-2,0-2.9,0-1,0-1.3.5-1.1,1.5.8,3,2.6,4,5.5,3.1.3,0,.6-.2.8-.2.5,0,.8.2,1,.7.2.5,0,.9-.5,1.1-2.9,1.5-7.8.8-8.7-3.5-.5-2.1-.5-4,.3-5.9.9-2.2,2.4-3.2,5.2-3.1,2,.2,3,1,3.5,3.3.4,1.9-.4,2.9-2.3,2.9-.4,0-.7,0-.9,0h0ZM362,117.1c.8,0,1.5,0,1.8-.8.3-.7,0-1.3-.7-1.8-1.4-1.2-4-.4-4.4,1.5-.2.7.2,1.1.8,1,.9,0,1.7,0,2.5,0h0Z"/>
          <path class="cls-4" d="M61.4,118.5c-.9,0-1.9,0-2.8,0-.7,0-1,.3-.9,1.1.2,1.3.5,2.6,1.8,3.3.9.5,1.8.7,2.8.4.5-.2,1.1-.2,1.6-.3.5,0,1-.2,1.2.5.2.6,0,1.2-.7,1.4-1.6.7-3.2.7-4.9.2-2.3-.6-3.2-2.3-3.7-4.5-.6-2.6-.1-4.9,1.5-7,1.4-1.8,3.4-1.6,5.2-1.2,1.7.4,2.3,1.9,2.5,3.4.4,2.5.3,2.6-2.2,2.6h-1.4s0,0,0,0ZM60.3,117h0c.3,0,.7,0,1,0,.7,0,1.5,0,1.7-.8.2-.8-.2-1.5-.9-1.9-1.4-.9-3.5-.2-4.1,1.3-.3.8,0,1.2.8,1.3.5,0,1,0,1.5,0h0Z"/>
          <path class="cls-4" d="M271.1,118.5c-.9,0-1.8,0-2.7,0-1,0-1.3.4-1.1,1.4.5,2.6,2.1,4.3,5.7,3.1.8-.2,1.5-.3,1.8.6.2.8-.5,1.1-1.1,1.3-1.7.5-3.4.7-5.1,0-2.7-1.1-3.6-4.5-3.2-7.2.2-1.6.5-3.1,1.9-4.3,1.3-1.1,4.2-1.7,5.6-.8,1.4.8,1.9,2.2,2,3.7.2,2.2.1,2.2-2.1,2.2h-1.6ZM270,117.1h0c.5,0,1,0,1.5,0,1.3-.1,1.6-.9.9-1.9-.6-.9-1.4-1.4-2.5-1.2-.9.2-2.4,1.5-2.5,2.2,0,.5.3.7.7.8.6,0,1.2,0,1.8.1h0Z"/>
          <path class="cls-4" d="M179.3,119.8c0,1.1.2,2.5.3,4,0,.5.2,1-.3,1.3-.5.3-1,.3-1.4,0-.8-.6-1.4-.5-2.1,0-1.3.9-3.5.4-4.6-.9-.9-1.1-.7-3,.5-4.2,1-1,2.3-1.5,3.7-1.6.8,0,1.8.1,2-1,.3-1.2-.5-2.7-1.6-3-.8-.3-1.6-.2-2.3,0-.4.1-.8.3-1.3.2-.5-.1-.8-.3-.9-.8,0-.5.2-.9.6-1,1.7-.5,3.5-.8,5.2-.2,1.4.5,2,1.7,2.2,3.1.2,1.2,0,2.5,0,4.1h0ZM175.5,123.5c.3-.2.7-.4,1-.5.5,0,.8-.3.8-.8,0,0,0-.2.1-.3.5-.7.1-1.4-.2-1.9-.2-.3-.6-.5-1,0-.3,0-.7.2-1.1.3-.4-.1-.8,0-1.1.3-.6.1-1,.5-1.2,1-.6.7-.2,1.3.3,1.8.7.7,1.5.8,2.4.2h0Z"/>
          <path class="cls-4" d="M226.6,125.1c-.9,0-1.3-.3-1.5-1.1-.9-3.4-2.1-6.8-3.4-10.1-.3-.6-.5-1.2.3-1.5.9-.4,1.6,0,1.9.8.7,2.3,1.3,4.6,2,6.9.1.4,0,1.1.7,1.1.6,0,.7-.5.9-1,.8-2.3,1.6-4.6,2.3-6.9.3-.9,1.1-1.3,1.9-.9.5.3.5.7.3,1.1-1.3,2.4-1.8,5-2.9,7.5-.5,1-.8,2.1-1.2,3.2-.2.7-.6,1.2-1.4.9h0Z"/>
          <path class="cls-4" d="M260.6,112.3c.7,0,1.3,0,2,.1.6,0,1.2.2,1,1.1-.2.7-.7,1.3-1.5,1-.8-.2-1.5-.3-2.2-.2-.9.2-1.6.6-2.2,1.3-1.6,2.1-1.1,6.1.9,7.4.8.5,1.7.7,2.6.3.4-.2.8-.3,1.2-.3.5,0,.9.2,1.1.7.2.6,0,1-.6,1.2-2.5,1-6.3.5-7.6-2.8-1-2.6-.8-5.1.7-7.5,1.1-1.8,2.7-2.5,4.8-2.4h0Z"/>
          <path class="cls-4" d="M340.4,118.5c-1.9,0-3.8,0-5.7,0-1-.1-1.4.2-1.1,1.1.2.6.3,1.1.4,1.7,0,.3,0,.7.5.7.2.2.5.5.8.7.1.6.6.6,1.1.8,1.1.3,2.2.2,3.2-.2.6-.3,1.2-.3,1.4.5.2.7-.4.8-1,1-1.9.6-3.8.5-5.6-.2,0,0-.2-.1-.3-.2,0-.3-.2-.4-.5-.4-.2-.2-.4-.3-.5-.5-.7-1.2-.9-2.5-1.1-3.9-.2-1,.4-2,0-3,0-.2,0-.5,0-.7.4-.3.5-.8.5-1.2,0,0,0,0,0,0,.4-.2.7-.5.8-1,.2-.3.5-.5.7-.8,1.2-.6,2.5-.4,3.8-.6.2,0,.3,0,.5,0,.2.3.5.3.8.3,0,0,0,0,0,0,.1.4.4.7.8.8,0,0,0,0,0,0,.5,1,.7,2.1.8,3.2,0,.7,0,1.2-.6,1.7h0ZM336.4,117h0c.5,0,.9,0,1.4,0,.5,0,1-.1,1.2-.6.2-.5.1-1-.2-1.4-.6-.7-1.3-1.3-2.3-1.1-1,.2-1.8.7-2.3,1.6-.5.9,0,1.5,1,1.6.4,0,.9,0,1.3,0h0Z"/>
          <path class="cls-4" d="M85,118.7c-.5-1.7.6-3.1,1.5-4.5.7-1.1,1.8-1.7,3.1-1.8,1,0,2,0,3,0,.7,0,1.3.2,1.2,1.1-.1.8-.8,1.2-1.6,1-.6-.2-1.2-.3-1.9-.3-2,0-2.9,1.8-3.2,3.2-.3,1.3,0,2.5.3,3.8.6,1.8,2.4,2.7,4.3,2.1.1,0,.3,0,.4-.1.7-.2,1.2-.2,1.5.6.2.8-.2,1.2-.9,1.4-4.2,1.2-8-1.5-7.7-6.5h0Z"/>
          <path class="cls-4" d="M315.1,117.5c0-2.5.2-4.9-.2-7.4,0-.7,0-1.3.9-1.3.8,0,1.2.4,1.3,1.2,0,.7,0,1.4,0,2.1,0,3.3,0,6.5,0,9.8,0,1,.4,1.4,1.3,1.4,1.3,0,2.5.2,3.8-.1.7-.2,1.4,0,1.5.9,0,.9-.5,1.3-1.3,1.2-2.2-.2-4.4,0-6.6-.1-.8,0-.6-.7-.6-1.2,0-2.1.1-4.3,0-6.4h0Z"/>
          <path class="cls-4" d="M109.9,117.2c0-1.7,0-3.3,0-5,0-1.3,0-2.6-.3-3.9-.3-.9.2-1.5,1.1-1.6.9-.1,1.3.2,1.3,1.3,0,4,0,8.1,0,12.2s0,2.6.1,3.9c0,.8-.3,1.2-1.1,1.3-.8,0-1.2-.3-1.2-1.2.1-2.3.2-4.6.1-7h0Z"/>
          <path class="cls-4" d="M165.1,116.8c-.1-2.9.3-5.8-.2-8.7-.2-.8.2-1.4,1.2-1.4,1,0,1.3.5,1.3,1.4-.2,5,0,10,0,15,0,.3,0,.6,0,.9,0,.7-.3,1.2-1.1,1.2-.8,0-1.2-.5-1.2-1.2.1-1.3,0-2.7,0-4v-3.2h0Z"/>
          <path class="cls-4" d="M201.9,119.9c.1-1.7-.1-3.5-.1-5.2,0-.3-.1-.6-.2-.8-.2-.4-.5-.9,0-1.2.6-.3,1.2-.6,1.8.1.5.8,1.1.7,1.7.1.5-.4.9-.7,1.6-.6.5,0,.9.3,1,.8s0,1-.6,1.2c0,0-.1,0-.2,0-2.9,1.1-2.9,1.1-3,4.2,0,1.8,0,3.5,0,5.3,0,.8-.1,1.4-1.1,1.3-.9,0-1.2-.7-1-1.4.2-1.3,0-2.6.1-3.9h0Z"/>
          <path class="cls-4" d="M237.2,119.3c0,1.5,0,3,0,4.5,0,.7,0,1.5-1,1.4-.9,0-1.3-.5-1.2-1.5.3-2.8.2-5.6,0-8.3,0-.6-.2-1.1-.3-1.7-.1-.9.3-1.4,1.2-1.5.9,0,1.5.5,1.4,1.4-.3,1.9,0,3.8,0,5.7h0Z"/>
          <path class="cls-4" d="M328.1,118.8v5c0,1.1-.4,1.7-1.2,1.5-1-.1-1.1-.9-1-1.7.3-2.9.1-5.9,0-8.8,0-.3-.1-.7-.2-1-.2-.5-.3-.9.2-1.3.5-.3,1-.4,1.5-.2.6.2.6.7.6,1.2,0,1.7,0,3.5,0,5.2h0Z"/>
          <path class="cls-4" d="M28.3,67.8c-.3.9,0,1.8,0,2.7,0,0,0,.1,0,.2-.2,2.4,1.2,4.3,2,6.5.5,1.3.7,2.6,1.6,3.6,0,.5-.2.8-.7.7-.7,0-1.9-1.6-1.6-2.2.3-.9,0-1.5-.7-1.9-.6-.4-.8-.9-.6-1.7.3-.8-.5-3.2-1.1-3.4-.9-.3-.8-.8-.6-1.5.4-1.3.5-2.5,0-3.8-.2-.4-.1-.9,0-1.3.2-.6.2-1.3,0-1.9-.2-.6-.1-1,.5-1.3.7-.3,1.1-.9,1.2-1.5.1-.8.6-1.2,1.2-1.6,0,.8-.4,1.5-.7,2.1-.7,1.4-.7,2.9-.5,4.4v2h0Z"/>
          <path class="cls-4" d="M47.9,118.8c0-1,0-2,0-3,0-.8-.2-1.2-1-1.3-.6,0-1.2-.2-1.2-1,0-.8.6-1,1.2-1.2.7-.2,1-.5,1-1.2s.6-1.1,1.3-1c.8,0,1,.5.8,1.2-.2.8.3,1,1,1.1.5,0,1,0,1.5,0,.7,0,1.2.3,1.3,1,0,.8-.5,1.2-1.2,1.3-.5,0-.9-.1-1.4-.2-.8,0-1.3.3-1.3,1.2,0,1.9,0,3.8,0,5.6s.7,2.2,2.3,1.8c.7-.2,1.3,0,1.5.6.3.8-.1,1.3-.9,1.6-2.6,1.1-5.1-.5-5.1-3.3,0-1,.1-2.1,0-3.2h0ZM48.1,118.9c0,1.5,0,2.5,0,3.6,0,1.5.9,2.4,2.4,2.5.5,0,1.1,0,1.6,0,.6,0,1.3-.2,1.1-1-.2-.7-.8-.5-1.4-.4-1.2.3-2.3-.5-2.3-1.8,0-2.2,0-4.3,0-6.5,0-.8.4-1.2,1.2-1.2.3,0,.6,0,.9,0,.7,0,1.7.2,1.6-.8,0-1-.9-.8-1.6-.7-.3,0-.7,0-1,0-.7,0-1.2-.3-1.1-1.1,0-.6,0-1.1-.8-1-.7,0-.8.5-.8,1.1,0,.7-.2,1.1-1,1.1-.5,0-1,.2-1,.8,0,.6.5.7,1,.8.8,0,1.3.6,1.1,1.4-.2,1.3,0,2.5,0,3.4h0Z"/>
          <path class="cls-4" d="M34.2,23.9c-.5,0-.9,0-1.4,0-.4,0-.6-.2-.7-.5-.1-.3,0-.6.2-.9.7-.6,1.4-1.3,2.5-.9.7.3,1.6-.1,2.2.5.6.6.6,1.1-.2,1.5-.8.4-1.8.3-2.7.3h0Z"/>
          <path class="cls-4" d="M333.8,107c.2,0,.4,0,.7.2,1.1.6,2.2,1.3,3.3,2,.4.3.8.7.5,1.2-.3.5-.8.6-1.3.4-1.2-.7-2.5-1.4-3.7-2.1-.4-.2-.5-.6-.3-1,.2-.4.5-.5.9-.6h0Z"/>
          <path class="cls-4" d="M328.6,109.2c0,.8-.7,1.5-1.5,1.6-.9,0-1.7-.7-1.7-1.5,0-.9.8-1.7,1.6-1.7.8,0,1.6.8,1.6,1.6h0Z"/>
          <path class="cls-4" d="M236.1,107.6c.9,0,1.5.7,1.5,1.6,0,.9-.6,1.5-1.5,1.6-.9,0-1.6-.6-1.6-1.5,0-.9.7-1.6,1.5-1.7h0Z"/>
          <path class="cls-4" d="M6.2,48.8c.4-1.7-.3-3.4,0-5.1.8-.1,1.1.4,1.1,1.1s0,2,0,2.9c0,.9.1,1.9.7,2.8.4.7,1,1.6,0,2.4-.2-.4-.4-.7-.6-1.1-.4-.9-.5-1.8-1-2.6,0-.1,0-.2,0-.3h0Z"/>
          <path class="cls-4" d="M64.2,19.7c0-1.6.5-2.4,1.5-2.3.8,0,1.4.9,1.4,2.1,0,1.1-.8,1.9-1.8,1.9-1.2-.1-1-1-1.1-1.6Z"/>
          <path class="cls-4" d="M334.2,124.6c1.8.7,3.7.8,5.6.2.5-.2,1.2-.3,1-1-.2-.7-.8-.7-1.4-.5-1,.5-2.1.5-3.2.2-.4-.1-.9-.2-1.1-.8,1.4.7,2.9.9,4.4.2.8-.4,1.5,0,1.8.8.3.9-.3,1.2-1,1.4-1.5.4-3,.6-4.6.2-.5-.1-1-.3-1.4-.8h0Z"/>
          <path class="cls-4" d="M84.2,66.5c.2.4,0,.9-.2,1.2-1.2,3.5-3.2,6.7-5.1,9.9-.1.2-.2.6-.7.6.1-1.3,1.1-2.1,1.7-3.1,1.7-2.8,2.8-5.8,4.2-8.7h0Z"/>
          <path class="cls-4" d="M88.1,51.1c.4,1.1.1,2.3,0,3.4-.4,2-.6,4-1.7,5.8-.1-1,.4-1.8.5-2.7.3-2.2.9-4.3,1.3-6.5h0Z"/>
          <path class="cls-4" d="M8.2,54.5c0,.6.2,1.2-.1,1.7-1.4-2.2-1.4-4.8-1.9-7.2.5.8.6,1.8,1,2.6.2.4.4.8.6,1.1-.1.6,0,1.2.4,1.7h0Z"/>
          <path class="cls-4" d="M331.9,116.7c.2,1-.3,1.9,0,3,.2,1.3.5,2.7,1.1,3.9-.9-.6-1-1.6-1.2-2.5-.4-1.4-.7-2.9.2-4.3h0Z"/>
          <path class="cls-4" d="M280.1,61.2c.3-.7,1-.7,1.6-1,1.2-.5,2.4-1,3.6-1.6-.7,1-1.8,1.2-2.7,1.6-.8.4-1.6.7-2.5.9Z"/>
          <path class="cls-4" d="M340.4,118.5c.5-.4.7-.9.6-1.7-.2-1.1-.3-2.2-.8-3.2.8.7,1.6,3.4,1.2,4.3-.2.5-.5.7-1,.5h0Z"/>
          <path class="cls-4" d="M269.9,63.5c1.7-1,3.6-1.1,5.5-1-1.8.3-3.6.9-5.5,1Z"/>
          <path class="cls-4" d="M86.2,60.6c-.2,1.8-.5,3.6-1.7,5,.7-1.6.8-3.5,1.7-5Z"/>
          <path class="cls-4" d="M334.4,122c-.4,0-.5-.4-.5-.7,0-.6-.2-1.1-.4-1.7-.3-.9,0-1.2,1.1-1.1-.7.3-.9.8-.6,1.5.2.6.3,1.3.4,2h0Z"/>
          <path class="cls-4" d="M337.9,112.3c-1.2.2-2.6,0-3.8.6,1.1-1.1,2.4-.9,3.8-.6Z"/>
          <path class="cls-4" d="M275.8,62.5c.8-.6,1.6-1,2.7-.8-.9.4-1.7.9-2.7.8Z"/>
          <path class="cls-4" d="M333.4,113.7c-.1.5-.4.8-.8,1,0-.5.4-.8.8-1Z"/>
          <path class="cls-4" d="M340.1,113.5c-.4-.1-.7-.4-.8-.8.4,0,.7.3.8.8Z"/>
          <path class="cls-4" d="M332.5,114.7c0,.5-.2.9-.5,1.2,0-.5.1-.9.5-1.2Z"/>
          <path class="cls-4" d="M339.2,112.7c-.3,0-.6,0-.8-.3.3-.1.6,0,.8.3Z"/>
          <path class="cls-4" d="M333.4,124c.3,0,.5,0,.5.4-.3,0-.5-.1-.5-.4Z"/>
          <path class="cls-4" d="M76.1,81.2c0,.3,0,.6-.5.6,0-.3.1-.5.5-.6Z"/>
          <path class="cls-4" d="M76.7,80.4c0,.3,0,.5-.3.5,0-.3.1-.4.3-.5Z"/>
          <path class="cls-4" d="M69.4,88.8c0,0-.1.1-.2.2,0-.1,0-.2.2-.2Z"/>
          <g>
            <path class="cls-4" d="M160.8,86.2V7.9c0-1.5-.6-2.1-2.1-2.1-7,0-14,0-21,0-1.5,0-1.6,0-1.6,1.5v30.3c0,.4,0,.7,0,1.1,0,.6-.4.9-1.1.9-6.7,0-13.3,0-19.9,0s-2.3-.2-2.3-2.3V15.2c0-2.4,0-4.7,0-7.1,0-2-.3-2.3-2.2-2.3-4.5,0-9,.1-13.5,0-2,0-4,0-6,0-.3,0-1-.2-.7.6.3.8.2,1.6.2,2.5.1,9.1,0,18.2-.7,27.3-.3,3.8-.7,7.6-1.4,11.4-.1.9-.5,1.8-.3,2.7.4,0,.3-.4.4-.7,1-2.8.9-5.7,1.4-8.5.6-3.8.2-7.8.9-11.6.3-1.9.2-4,.2-6,.1-5.2,0-10.5,0-15.8,0-.8,0-1.3,1.1-1.3,6.3,0,12.5,0,18.8,0s.7,0,.9.5c0,0,.1.2.2.2.1.1.2.3.2.4,0-.1,0-.2-.2-.3,0,0-.1-.2-.2-.2-.2-.4-.5-.5-.9-.5-6.3,0-12.5,0-18.8,0-1,0-1.1.5-1.1,1.3,0,5.2,0,10.5,0,15.8,0,2,0,4-.2,6-.6,3.9-.2,7.8-.9,11.6-.5,2.8-.4,5.8-1.4,8.5,0,.3,0,.6-.4.7,0,.3,0,.5,0,.8.4,1.1.1,2.3,0,3.4-.4,2-.6,4-1.7,5.8,0,.1,0,.3,0,.4-.2,1.8-.5,3.6-1.7,5,0,.3-.2.5-.3.8.2.4,0,.8-.2,1.2-1.2,3.5-3.2,6.7-5.1,9.9-.1.2-.3.6-.7.6-.5.7-1,1.5-1.6,2.1,0,.3,0,.5-.3.5,0,0-.1.2-.2.3,0,.3,0,.6-.5.6-.2.3-.4.6-.7.9,0,0,0,.1,0,.2,0,0,0,0,0,0,0,0,0-.1,0-.2-.4.2-.8.6-.9,1.1,0,0,0,0,0,0,0,0,0,0,0,.1,0,0,0,.2,0,.3,0,0,0,0,0,0,0-.1,0-.2,0-.3h0c-1.4,1.1-2.2,2.8-3.7,3.8-.4.3-.8.5-1,1.1,1.3-.5,2.2-1.7,3.1-2.7.4-.5.9-.9,1.3-1.4,0,0,0,0,0,0-.3.5-.8.9-1.2,1.3-.9,1-1.8,2.1-3.1,2.7h0c0,.1-.1.2-.2.2,0,0-.2.1-.3.2,0,0,0,0,0,0-1.5.8-2.6,2.1-4,2.9-.3.1-.3.5-.3.8,0,.5.5.4.8.4,1.9,0,3.8,0,5.6,0h32.9c2.3,0,4.6,0,7,0,1.5,0,1.9-.1,1.9-1.7,0-1-.2-2-.2-3,0-2.5,0-4.9,0-7.4.2-6.5-.4-12.9.3-19.3,0-.2,0-.3-.1-.5-.5-1.5-.4-1.8,1.3-1.8,3.5,0,7,0,10.5,0,3.2.1,6.3-.3,9.5,0,2,.2,2,0,2,2,0,9.7,0,19.3,0,29s0,.7.1.9c0,0,0,0,0,0v.6s0,0,0,0h0s0,0,0,0c-.2.4-.2.8.3.9.7.2,1.4.5,2.1.4,2.3-.4,4.7-.1,7-.1,4.5,0,9.1,0,13.6,0,1.2,0,1.6-.4,1.6-1.6,0-1,0-2,0-3,.2-.8.2-1.6,0-2.3ZM66.2,91.8c-.2.2-.5.3-.4.6,0,0,0,0,0,0-.2-.4.2-.5.4-.6,1-.8,2.2-1.3,2.8-2.5h0c-.6,1.3-1.8,1.8-2.8,2.6ZM75.7,91.4c-1.9,0-3.7-.5-5.6-.2-.3,0-.7,0-.8-.4,0,0,0,0,0,0,.1.3.5.3.8.3,1.9-.3,3.7.2,5.6.2.2,0,.3,0,.5,0,0,0,.1,0,.2,0-.2,0-.4,0-.6,0ZM110.8,38.3v-9c0-6.4,0-12.8,0-19.2,0-.6-.1-1.2-.3-1.8,0,0,0-.2-.1-.2,0,.1.1.2.1.3.2.6.3,1.2.3,1.8,0,6.4,0,12.8,0,19.2v9c0,.5.1,1,.3,1.3-.2-.4-.3-.9-.3-1.4ZM137.8,6.6c4.4,0,8.8,0,13.3,0,2.7,0,5.4.4,8.1-.1.2,0,.4,0,.6.2.8.5.4,1.1.3,1.8.3.2.2.4.1.6,0,.5,0,1,0,1.5v59.6c0,4.8,0,9.6,0,14.4,0,0,0,0,0,0,0-4.8,0-9.6,0-14.4,0-19.9,0-39.7,0-59.6s0-1,0-1.5c-.4-.1-.4-.3-.1-.6.1-.6.5-1.3-.3-1.8-.2-.1-.4-.3-.6-.2-2.7.5-5.4,0-8.1.1-4.4,0-8.8,0-13.3,0s-.5,0-.8,0c.2,0,.5,0,.8,0ZM136.5,91.1h0c0-4.2,0-8.3,0-12.5,0-6.1,0-12.3,0-18.5,0,0,0,0,0,0,0,6.1,0,12.3,0,18.5,0,4.2,0,8.3,0,12.5.6-.1.5-.6.6-1.1,0,0,0-.2,0-.3,0,0,0,.2,0,.3,0,.5,0,1-.6,1.1,0,0,0,0,0,0ZM158.9,37.2c-.2,5.4-.3,10.8-.3,16.2,0-5.4,0-10.8.3-16.2,0-1.8,0-3.5,0-5.3,0,1.8,0,3.6,0,5.3ZM133.4,40.3c0,.3-.3.4-.5.4h-4.8c-.3,0-.5,0-.5-.4h-8.7c-.5.6-1,.6-1.5,0h-1.8c-.4.6-.9.6-1.3,0-.2,0-.3,0-.4,0-.3.3-.5.2-.7-.2-.1,0-.3,0-.4,0-.6.4-.8,0-.8-.5,0,0,0,0,0,0,.3,0,.6.2.8.5.1,0,.3,0,.4,0,.2,0,.5,0,.7.2.2,0,.3,0,.4,0h19.2c.8,0,1.6,0,2.4,0,0,0,0,0,0,0-.8,0-1.6,0-2.4,0Z"/>
            <path class="cls-4" d="M160.2,90.9s0,0,0,0c0,0,0,0,0,0h0Z"/>
          </g>
          <path class="cls-4" d="M127.6,40.2h5.9c0,.3-.3.4-.5.4h-4.8c-.3,0-.5,0-.5-.4h0Z"/>
          <path class="cls-4" d="M117.3,40.2h1.5c-.5.6-1,.6-1.5,0Z"/>
          <path class="cls-4" d="M114.2,40.2h1.3c-.4.6-.9.6-1.3,0Z"/>
          <path class="cls-4" d="M111.9,39.5c.3,0,.6.2.8.5-.6.4-.8,0-.8-.5Z"/>
          <path class="cls-4" d="M113.1,40c.2,0,.5,0,.7.2-.3.3-.5.2-.7-.2Z"/>
          <path class="cls-4" d="M112.2,37.5c0,.2,0,.3-.1.4-.3-.2-.1-.4.1-.4Z"/>
          <path class="cls-4" d="M111.9,6.8c0,0,.1.1.2.2,0,0-.1-.1-.2-.2Z"/>
          <path class="cls-4" d="M229.7,74.1c0-.9-.6-1.8-1.4-1.6-1.3.3-2.5.1-3.8.1-6.9,0-13.8,0-20.7,0s-.2,0-.2,0c-.3,0-.5-.1-.8-.2-.4-.2-.5-.6-.5-1.4v-9.7c0-1.9.2-2.1,2.1-2.1,6,0,12.1,0,18.1,0s1.7-.4,1.6-1.5c-.3-3.8,0-7.5,0-11.3,0-1.7-.1-3.3,0-5,.2-1.3-.7-2-2-1.8-.9.1-1.9.2-2.8.2-4.1,0-8.2,0-12.3,0-1.2,0-2.4,0-3.6-.2-.7-.2-1-.5-1-1.3,0-3.3,0-6.5,0-9.8,0-2,0-2,2-2.1h.2c7,0,14-.2,20.9.1,1.3,0,2-.6,1.9-1.9-.3-2.4,0-4.8-.1-7.3,0-3.4,0-6.8,0-10.2,0-.7,0-1.1-.9-1.2-1.3-.2-2.5,0-3.8,0-12.8,0-25.5,0-38.3,0-1.6,0-3.2.1-4.9,0-.9,0-1.3.3-1.3,1.3,0,13.9,0,27.8,0,41.7h0s0,0,0,0v2.6c-.1,2.9,0,5.8,0,8.6,0,.1,0,.2,0,.3v16.7c0,.4-.1.8,0,1.2,0,.6,0,1.2,0,1.7v9.2c0,.8,0,1.6,0,2.4-.2,1.1.1,1.5,1.2,1.5,1.7,0,3.5,0,5.2,0,12.5,0,25,0,37.5,0,1.7,0,3.5,0,5.2,0,2.5,0,2.6.2,2.6-2.3,0-5.6-.2-11.1.1-16.7ZM222.7,43c0,.9,0,1.7-.3,2.6-.1.5-.3,1-.2,1.5.3,1.4.2,2.7.2,4.1,0,1-.1,2-.4,3-.2.6-.3,1.1,0,1.6.2.4.4.9,0,1.3-.2.2-.5.3-.8.3.3,0,.5-.1.7-.3.4-.4.2-.9,0-1.3-.3-.5-.2-1,0-1.6.3-1,.4-2,.4-3,0-1.4.2-2.8-.2-4.1-.1-.5.1-1,.2-1.5.2-.9.2-1.7.3-2.6,0-1-.3-1-1-1.1-4.3-.3-8.5-.2-12.8-.2-.5,0-.9,0-1.4,0,.5,0,1,0,1.4,0,4.3,0,8.5,0,12.8.2.7,0,1.1.1,1,1.1ZM217.3,6.6c2.6,0,5.2,0,7.7,0,.5,0,.9,0,1,.3-.2-.2-.5-.3-1-.3-2.6,0-5.2,0-7.7,0-3,0-6,0-9.1,0,0,0-.2,0-.2,0,3.1,0,6.2,0,9.3,0ZM202.3,24.8c.4-.6.9-.7,1.5-.7,4.1-.5,8.2.4,12.3.3,2.2,0,4.5-.2,6.7-.2.6,0,.8-.3,1.1-.8,1.8-3.7,1-7.6.9-11.4,0-1-.2-2-.2-3,0-.3,0-.5-.2-.6.1.1.2.4.2.7,0,1,.2,2,.2,3,0,3.8.9,7.7-.9,11.4-.3.5-.5.8-1.1.8-2.2,0-4.5.2-6.7.2-4.1.2-8.2-.8-12.3-.3-.6,0-1.1.2-1.5.7-.4.6.6.5.5,1h0c.1-.5-.9-.4-.5-1ZM202.3,40.4h0c6.7,0,13.4,0,20,0,.4,0,.7,0,.9.2-.2-.1-.5-.2-.8-.2-6.7,0-13.4,0-20,0-.3.3-.4,0-.4-.2.2,0,.3,0,.4.2ZM178.3,7.8c0-.9.3-1.2,1.2-1.2.7,0,1.3,0,2,0,0,0,0,0-.1,0-.6,0-1.2,0-1.9,0-.9,0-1.2.3-1.2,1.2,0,1,0,2.1,0,3.1,0,.3,0,.5,0,.8,0,.2,0,.5,0,.7,0,0,0,.1,0,.2,0-1.6,0-3.2,0-4.9ZM178.3,44.2c0-4.7,0-9.5,0-14.2,0,.2,0,.5,0,.7,0,4.4,0,8.8,0,13.2,0,.1,0,.2,0,.3ZM200.8,40.4c0-.2-.1-.4-.4-.5-.7-.3-.6-.8-.4-1.4.9-2.1.8-4.3.6-6.5,0-.3,0-.6,0-.9,0-.9.2-1.9-.6-2.7-.4-.4-.4-1,.1-1.5.2-.2.4-.2.5-.2-.2,0-.3,0-.5.2-.5.5-.5,1.1-.1,1.5.8.8.6,1.7.6,2.7,0,.3,0,.6,0,.9.2,2.2.3,4.4-.6,6.5-.2.5-.4,1.1.4,1.4.2,0,.3.3.4.5.3,1,1.1,1.5,2,1.5-.9,0-1.7-.4-2-1.5Z"/>
          <path class="cls-4" d="M202.3,40.4c-.3.3-.4,0-.5-.2.2,0,.3,0,.5.2Z"/>
          <path class="cls-4" d="M201.7,40.1c-.3,0-.5-.1-.5-.4.3,0,.4.2.5.4Z"/>
          <path class="cls-4" d="M366.5,91.9c-.4-1.7-.1-3.4-.2-5.2-.1-4.2-.3-8.3,0-12.5,0-1.2-.4-1.7-1.6-1.6-6.8.2-13.5,0-20.3,0-1.9,0-3.8,0-5.7,0s-1.5-.4-1.4-1.5c0-.7,0-1.4,0-2.2,0-20.5,0-41.1,0-61.6s0-1.4-.6-1.5c0,0-.1,0-.2,0-.2,0-.5,0-.8,0-2.6,0-5.2,0-7.8,0-4.8,0-9.7,0-14.5.2-.7,0-.9.3-.8.9.2.9.2,1.9.2,2.8v39.7h0c0,6.2,0,12.3,0,18.5,0,8,.2,15.9-.2,23.8,0,.7.3,1.4,1.1,1.3,2.5-.2,4.9,0,7.3,0,12.5-.1,25.1,0,37.6,0s4.1,0,6.1,0c.9,0,1.8-.7,1.7-1.3ZM336.8,7.9c-.2.8.3,1.5.3,2.3,0,19.6,0,39.2,0,58.8,0,0,0,0,0,0,0-19.6,0-39.2,0-58.8,0-.8-.5-1.5-.3-2.3.1-.6,0-1-.2-1.2.3.2.4.6.3,1.2ZM316.3,7.9c1.7-.2,3.3.1,5,0,4.2,0,8.3,0,12.5,0s1.5.1,1.8.8c-.2-.7-.6-.8-1.8-.8-4.2,0-8.3,0-12.5,0-1.7,0-3.3-.3-5,0-.8,0-1.2.3-1.5.7.2-.4.7-.6,1.5-.7ZM315.6,92.2c-.6,0-1.1,0-1.4-.3.3.2.8.3,1.4.3.8,0,1.7.2,2.5.2,0,0,0,0,.1,0-.9,0-1.7-.2-2.6-.2ZM322.2,92.6c-.4,0-.9,0-1.3-.1,0,0,0,0,0,0,.4,0,.8,0,1.2,0,12,0,23.9,0,35.9,0,0,0,0,0,.1,0,0,0,0,0,0,0-12,.1-24,0-36,0ZM365.2,73.4c.4.3.4.8.2,1.1-.5.9-.3,1.9-.4,2.8,0,0,0,0,0-.1,0-.9,0-1.8.4-2.7.2-.3.2-.8-.2-1.1-.2-.1-.4-.2-.6-.1.2,0,.4,0,.6.1ZM365.5,91.3c0,.8-.3,1.2-1.1,1.2-1.5,0-3,0-4.4,0,0,0,0,0,.1,0,1.4,0,2.9,0,4.3,0,.9,0,1.1-.3,1.1-1.2,0-2.2.1-4.5,0-6.7-.1-1.7,0-3.4,0-5.1,0-.3.1-.8-.2-1,.4.2.3.6.3,1,0,1.7,0,3.4,0,5.1.1,2.2,0,4.5,0,6.7Z"/>
          <polygon class="cls-4" points="335.8 10.6 335.8 10.6 335.8 67.3 335.8 67.3 335.8 10.6"/>
          <path class="cls-4" d="M160,8.4c.3.2.2.4.1.6-.4-.1-.4-.4-.1-.6Z"/>
          <path class="cls-4" d="M160.2,90.9c0,0,0,.1,0,.2,0,0-.2,0-.2-.1,0,0,.1,0,.2,0Z"/>
          <g>
            <path class="cls-4" d="M13.5,60.6s0,0,0,0c0,0,0,0,0,0h0Z"/>
            <path class="cls-4" d="M66.2,5c-.8,0-1.6.2-2.4.2-17.8,0-35.7,0-53.5,0-1,0-2,0-2.9-.1-2.5-.2-2.6,0-2.4,2.4,0,.1,0,.3,0,.4,0,9.6.2,19.3.2,28.9,0,2.9.2,5.7.3,8.6,0,1.1.2,2.3.6,3.4.4-1.7-.3-3.4,0-5.1-.2-3.3-.2-6.6-.2-10,0,3.3,0,6.6.2,9.9.8-.1,1.1.4,1.1,1.1s0,2,0,2.9c0,.9.1,1.9.7,2.8.4.7,1,1.7,0,2.4-.1.6,0,1.2.4,1.7h0s.5,0,.5,0c1.3,0,1.4,0,.9,1.3-.2.5-.4,1.1.3,1.5.4.2.5.8.5,1.2,0,.7,0,1.4,0,2.2s0,.2,0,.4c.8-.2,1.1-.2,1.2.8,0,.9.7,1.7,1.5,2.2.5.3.7.7.5,1.2-.2.6-.1,1,.5,1.4.4.2.7.7.7,1.2.1,1.1.6,1.9,1.4,2.7.4.4.9,1,1,1.5.2,1.1,1,1.8,1.6,2.6.4.5.9.7,1.4.5.7-.3.2-.8,0-1.2,0-.2-.2-.6,0-.6,1-.2.9-1.1,1.2-1.8.2-.4.8-.3,1.2-.1.4.2.6.5.5,1,0,.5-.3.8-.8.9-1.3.3-1.4.4-.5,1.4.6.6.5,1.2,0,1.8-.2.2-.4.4-.6.7-.2.2-.4.5-.3.8.2.3.6.2.9.1.2,0,.4-.1.5-.2.5-.3.6,0,.7.4.1,1.2,1.1,1.6,2.1,1,.3-.2.3-.5.2-.9,0-.3-.2-.6,0-1,.5,1,.8,1.9,0,2.7-.5.5-.4.8.2,1,.9.3,1.4.8,1.8,1.6.3.8,1.2.8,1.8,1.2,1.1.7,1.9,1.9,3.2,2.4.5.2.8.4,1.2,0,.6-.5,1-.2,1.1.4.2,1.3,1.6,1.4,2.2,2.3.1.2.6.2.9,0,.2-.2.1-.5,0-.8-.2-.2-.3-.5-.2-.8.2-1.3.4-2.5-.6-3.7-.2-.3.1-1,.1-1.6,0-1.8-.2-3.5-.4-5.3,0-.5-.1-1,0-1.4.6-1.3,0-2.7.5-4.1,0-.2,0-.5-.3-.7-.3-.2-.5.1-.7.4-.6.8-.8,1.7-.8,2.8,0,1.4,0,1.4-1.3,1.1,0,.5-.3.9-.5,1.2.7.2.6.9.7,1.4,0,.8,0,1.6,0,2.4,0,.8-.4,1-1.1.6-.4.9-.9.5-1.5.2,0,.5-.2.8-.7.7-.7,0-1.9-1.6-1.6-2.2.3-.9,0-1.5-.7-1.9-.6-.4-.8-.9-.6-1.7.3-.8-.5-3.2-1.1-3.4-.9-.3-.8-.8-.6-1.5.4-1.3.5-2.6,0-3.8-.2-.4-.1-.9,0-1.3.2-.6.2-1.3,0-1.9-.2-.6-.1-1,.5-1.3.7-.3,1.1-.9,1.2-1.5.1-.8.6-1.2,1.2-1.6.4-.2.5-.6.5-1-.7-.6-.6-1.9.4-2.5.9-.5,1-.9.5-1.7-.4-.6,0-.9.4-1.3.8-.7,1.7-1.2,2.3-2,.1-.2.2-.3.4-.3.3,0,.4.3.4.6,0,1.2.5.9,1.2.5.7-.5,1.4-1,2-1.6.4-.5.9-.9,1.6-1.1.3,0,.6-.3.6-.7,0-.4-.4-.5-.7-.6-1-.5-1.9-.2-2.5,1-.4.8-.8.8-1.4.5-.7-.3-1.4-.6-1.9.6-.2.6-1.1,1.2-2.1,1.3.2-1.9,1.8-2.8,3.2-3.6,2.9-1.7,6.2-1.8,9.5-2.3,3-.4,5.3-1.9,6.5-4.7,0-.2,0-.5.4-.4.3,0,.3.4.3.6-.3,1-.8,1.9-1.4,2.8-1.4,2.2-3.6,3.4-5.7,4.6-1,.5-2,1-3,1.5-2.2,1-4.1,2.6-6.2,3.9-1.9,1.3-3.3,3-4.8,4.8,0,.4,0,.8-.5,1,0,.8-.4,1.4-.7,2.1-.7,1.4-.7,2.9-.5,4.4.3-.3.2-.6.2-.9.7-4.2,2.5-7.7,5.8-10.5,3.1-2.6,6.7-4.5,10.3-6.2,2.8-1.3,4.8-3.3,6.2-6,.9-1.7.3-3.1-.2-4.7-.2.5-.4,1-.5,1.5,0,1.5-.9,2.6-2,3.4-2.2,1.6-4.9,2.1-7.6,2.4-2,.2-3.9.5-5.7,1.5-1.7.9-3.1,2.2-4.3,3.8-.4.5-.9.8-1.4.4-1.7-1.5-3.2-3.2-3.6-5.5-.3-1.8.2-2.1,2-1.6,2.9.9,7.4-1.1,8.2-4.5.2-.7,0-1.2-.7-1.7-1.3-.9-2.7-1.7-4.2-2.3-1.5-.6-3-.8-4.6,0-.9.5-1.6,1.2-2.2,2-.4.6-.9.6-1.4.1-.7-.7-1.4-1.4-2-2.1-.7-.8-.6-1.7-.1-2.5.2-.3.4-.5.5-.8.2-.3.3-.6.1-.9-.2-.3-.6-.3-.9-.2-.3,0-.6.2-1,.2-.4,0-.8,0-1-.5-.2-.4.1-.7.4-.9.5-.4,1-.7,1.5-1.1,2.3-2.1,4.9-3.8,7.5-5.4,1.1-.7,1.8-1.4,2.2-2.6.6-1.5,1.9-2.5,3.2-3.2,2-1.1,4-2.1,6.3-2.5,2.8-.5,5.5-1.1,8.3-1.2,4.3-.2,8.6.4,12.8-.6,2.6-.6,4.6-2,5.9-4.5.2-.5.3-1.1.6-1.6.5-1.1.2-1.7-1.1-1.6ZM5.9,30.4s0,0,0,0c-.1-6.1-.2-12.1-.2-18.2,0,0,0,0,0,0,0,6,.1,12.1.2,18.1,0,0,0,0,0,0ZM26.8,51.6c.5-.5.5-1.2.7-1.8,0-.1,0-.2-.1-.4,0,.1.1.2.1.4.4.2.8.5,1,.9.3.5.8.7,1.3.7,0,0,0,0,0,0,.1.4.8.8.2,1.3-.5.5-.9,0-1.3-.3-.4-.3-.8-.5-1.3-.1-.2.2-.5.3-.8,0s-.2-.6,0-.8ZM23.6,76.9h0c.1-.8.7-.9,1-1.1,0,0,.2.2.2.2-.2.5-.7.5-1.2.9ZM26.5,40.8c.3-.2.9,0,1.2.3.8.7,1.6.9,2.7.4.7-.3,1.5-.4,2.1-.9.7-.5,1-1.2.8-2.1,0-.5-.4-.8-.9-.8-.5,0-.4.5-.4.8,0,.2,0,.5,0,.8,0,.5-.4.8-.9.8-.7,0-1-.8-1.2-1.3-.1-.6-.7-1.4.1-1.8.7-.4.6-.8.6-1.4,0,0,0,0,0,0,.7,0,1.3.2,1.8.6.5.4,1,.8,1.6,1.2,1.5.9,1.6,2.2,0,3.3-.4.3-.8.6-1,1.1,0,0-.1.2-.2.3-.8.9-4.3,1.4-5.3.7-.7-.5-1.6-.6-2.2-.1s-.7,1.2-.5,2.1c.3,1,.5,2.1.8,3.1,0,0,0,0,0,0-1.2,0-2-.9-2-2.4,0-.8-.1-1.8.3-2.4.6-.9,1.5-1.5,2.4-2.1ZM21,37.7c.3,1,1,1.2,1.8,1.3.4,0,.9,0,1.3.2.2,0,.4,0,.5.1-.2,0-.3,0-.5-.1-.4-.1-.9-.2-1.3-.2-.9,0-1.5-.2-1.8-1.3-.1-.4-.5-.6-.9-.6.4,0,.8.2,1,.6ZM55.8,7c2,0,4.1.4,6.1.2-2.1.1-4.1-.2-6.2-.2-2,0-4-.2-5.9-.1,2,0,4,0,6,.1ZM41.4,6.5c1.8.3,3.6.5,5.5.5-1.8,0-3.7-.2-5.5-.5,0,0-.2,0-.3,0,.1,0,.2,0,.3,0ZM14.7,63.7c-.5.1-.6-.4-.6-.7-.2-.8-1.3-1.4-.5-2.4-.2-.9-.4-1.7-.6-2.5,0-.3-.2-.7.2-.9.5-.2.7.2.8.5.3,1.7,1,3.2,1.3,4.9.1.4,0,.9-.5,1ZM17.9,35.6c-.4.2-.5.5-.4.9,0,.4.3.7.8.8,0,0,0,0,0,0-.4,0-.7-.3-.8-.8,0-.4,0-.7.4-.9,1.3-.8,1.5-2.8.2-3.6-.8-.5-1-1.4-2-1.6-.4-.1-.2-.6,0-.9.9-.8,1.4-2,2.5-2.7.2,0,.2-.3.4-.4,1.5-.3,2.2-1.6,3.2-2.5.2-.1.4-.3.5-.3,0,0,0,0,0,0-.2,0-.4.2-.5.3-1,.9-1.7,2.2-3.2,2.5-.2,0-.2.3-.4.4-1.1.7-1.6,1.8-2.5,2.7-.3.3-.5.8,0,.9.9.2,1.2,1.2,2,1.6,1.3.7,1.1,2.8-.2,3.6ZM28.1,22.4c-2,1-3.8,2.4-5.7,3.5-1.6.9-2.8,2.3-4.3,3.2-.3.2-.5.4-.6.6,0-.2.3-.5.6-.7,1.5-1,2.7-2.3,4.3-3.2,1.9-1.1,3.7-2.6,5.7-3.5.3-.1.5-.3.6-.5-.2.2-.4.4-.7.5ZM27.3,19.5c-.7,0-.8.3-.6.9.1.4.3.9,0,1.2-1,.8-1.8,2-3.2,2.1,1.4-.1,2.2-1.3,3.2-2.1.4-.3.2-.8,0-1.2-.2-.6,0-1,.6-.9.8,0,1.1-.3,1.5-1,.5-.9,1.4-1.5,2.3-1.9.3-.2.8-.1.9-.6,0-.3.2-.6.4-.7,0,0,0,0,0,0-.2.2-.3.4-.4.7,0,.4-.5.4-.9.6-.9.5-1.9,1-2.3,1.9-.4.7-.7,1.1-1.5,1ZM59.4,12.6c-4.3.3-8.6.1-13,.2-1.9,0-3.9.2-5.7.8-1.8.6-3.7.9-5.4,1.5-1,.4-2,1.3-3,1.9-.8.5-1.5,1.3-2.2,1.9-.3.3-.7.6-.9,1,.2-.4.6-.7.9-1,.7-.7,1.4-1.4,2.2-1.9,1-.6,1.9-1.5,3-1.9,1.8-.6,3.6-.9,5.4-1.5,1.8-.6,3.7-.8,5.7-.8,4.3,0,8.6.1,13-.2.2,0,.4,0,.5,0-.2,0-.4,0-.6,0ZM64.9,7.8c-.6.8-1,1.8-2.2,1.8-.5,0-.9.2-1.2.5-1.1,1.2-2.6,1.3-4,1.8-.2,0-.3,0-.4,0,.1,0,.3,0,.4,0,1.4-.5,2.9-.6,4-1.8.3-.3.7-.5,1.2-.5,1.2,0,1.7-1,2.2-1.8.3-.4-.1-.9-.7-1,.5,0,1,.6.7,1Z"/>
            <path class="cls-4" d="M6.2,48.8s0,0,0,0c0,0,0,0,0,0h0Z"/>
          </g>
          <path class="cls-4" d="M29.9,58.3c-.7-.6-.6-1.9.4-2.5.9-.5,1-.9.5-1.7-.4-.6,0-.9.4-1.3.8-.7,1.7-1.2,2.3-2,0-.2.2-.3.4-.3.3,0,.4.3.4.6,0,1.2.5.9,1.2.5.7-.5,1.4-1,2-1.6.4-.5.9-.9,1.6-1.1.3,0,.6-.3.6-.7,0-.4-.4-.5-.7-.6-1-.5-1.9-.2-2.5,1-.4.8-.8.8-1.4.5-.8-.3-1.4-.6-1.9.6-.2.6-1.1,1.2-2.1,1.3.2-2,1.8-2.8,3.2-3.6,2.9-1.7,6.2-1.8,9.5-2.3,3-.4,5.3-1.9,6.5-4.7,0-.2,0-.5.4-.4.3,0,.3.4.3.6-.3,1-.8,1.9-1.4,2.8-1.4,2.2-3.6,3.4-5.7,4.6-1,.5-2,1-3,1.5-2.2,1-4.1,2.6-6.2,3.9-1.9,1.3-3.3,3-4.8,4.8h0Z"/>
          <path class="cls-4" d="M25.8,47.8c-1.2,0-2-.9-2-2.4,0-.8-.1-1.8.3-2.4.6-.9,1.6-1.5,2.4-2.1.3-.2.8,0,1.2.3.8.7,1.6.9,2.7.4.7-.3,1.5-.4,2.1-.9.7-.5,1-1.2.8-2.1,0-.5-.4-.8-.9-.8-.6,0-.4.5-.4.8,0,.2,0,.5,0,.8,0,.5-.4.8-.9.8-.7,0-1-.8-1.2-1.3-.1-.6-.7-1.4.1-1.9.7-.4.7-.9.6-1.4.7,0,1.3.2,1.8.6.5.4,1,.8,1.6,1.2,1.5.9,1.6,2.2,0,3.3-.4.3-.8.6-1,1.1,0,.1-.1.2-.2.3-.8.9-4.3,1.4-5.3.7-.7-.5-1.6-.6-2.2-.1s-.7,1.2-.5,2.1c.3,1,.5,2.1.8,3.1h0Z"/>
          <path class="cls-4" d="M29.9,51.5c.1.4.8.8.2,1.3-.5.5-.9,0-1.3-.3-.4-.3-.8-.5-1.3-.1-.2.2-.5.3-.8,0-.2-.2-.2-.6,0-.8.5-.5.5-1.2.7-1.8.4.2.8.5,1,.9.3.5.8.7,1.3.7h0Z"/>
          <path class="cls-1" d="M348.6,124.8c.9,0,1.9,0,2.8,0,1.4,0,1.8,1,1,2.1-1.5,2.2-4.5,2.9-6.5,1.5-1.1-.7-.7-1.8-.5-2.6.1-.8.8-1,1.6-1h1.6s0,0,0,0Z"/>
          <path class="cls-1" d="M345.9,116.3c0-1.5.9-2.6,2.4-2.6,1.3,0,2.5,1.1,2.6,2.5,0,1.6-1.1,2.9-2.6,2.9-1.5,0-2.3-1-2.4-2.8h0Z"/>
          <path class="cls-1" d="M290.9,118.6c0,.8,0,1.7,0,2.5,0,.8,0,1.5-.9,1.9-1,.4-2,1.1-3.2.2-1.7-1.3-2.2-3.2-1.5-6.1.5-2.1,2.1-3.1,4.2-2.8,1,.1,1.5.6,1.4,1.6,0,.9,0,1.8,0,2.7h0,0Z"/>
          <path class="cls-1" d="M135.2,118.8c0-2.6,1.3-4.3,3.7-4.6,1.6-.2,2.1.4,2.2,2,0,1.5,0,3,0,4.5,0,.9,0,1.7-.9,2.2-1.1.5-2.1.9-3.2.1-.8-.6-1.3-1.2-1.4-2.2,0-.7-.2-1.4-.3-2h0Z"/>
          <path class="cls-1" d="M191.6,115.6c.3-1.2.2-2.6,0-4,0-.5.2-.8.7-1,1.5-.6,3.6,0,4.2,1.5.7,1.5,0,3.5-1.6,4.2-.6.3-1.3.6-2,.6-1,0-1.3-.3-1.3-1.3h0Z"/>
          <path class="cls-1" d="M211.2,118.5c0-.8,0-1.8.5-2.8.6-1.2,1.5-1.7,2.9-1.6,1.4,0,2.3.7,2.6,2,.5,1.8.7,3.5,0,5.3-.5,1.2-1.3,2-2.7,2.1-1.1,0-2.3-.6-2.9-1.8-.4-.8-.5-1.6-.5-3.2h0Z"/>
          <path class="cls-4" d="M33.8,76.3c.7.2.6.9.7,1.4,0,.8,0,1.6,0,2.4,0,.9-.4,1-1.1.6,0-1.5-.2-3,.4-4.4Z"/>
          <path class="cls-4" d="M38.9,90.8c.2-.9.9-.3,1.3-.5.2.5,1.2.8.7,1.4-.4.5-1-.3-1.5-.5-.2,0-.4-.2-.5-.4Z"/>
          <path class="cls-1" d="M104.3,118.7c0,1,0,2-.4,2.9-.5,1.3-1.7,2-3,1.9-1.3,0-2.3-.9-2.8-2.2-.6-1.8-.5-3.5,0-5.2.3-1,.8-1.7,1.9-1.9,1.2-.2,2.4-.3,3.3.9.8,1.1,1.1,2.3,1,3.7h0Z"/>
          <path class="cls-1" d="M27.2,121.2c0,1.4-.5,1.9-2.3,2.4-.9.2-1.6,0-2.1-.8-.5-1-.3-1.8.7-2.2.9-.3,1.8-.7,2.7-.8,1.2-.1.8.9,1,1.5h0Z"/>
          <path class="cls-1" d="M151.2,117c-.3,0-.7,0-1.1,0-1.3,0-1.6-.4-1-1.6.8-1.8,3.4-2.1,4.6-.5.4.5.5,1,.3,1.6-.3.6-.8.5-1.3.5-.4,0-.9,0-1.4,0h0Z"/>
          <path class="cls-1" d="M302.2,117.1c-.8-.1-1.7-.2-2.7,0-.6,0-1-.3-.8-1,.3-1.3,1.3-1.7,2.5-2,1-.3,1.7.2,2.3.9.4.5.7,1,.4,1.6-.3.7-.9.6-1.7.6h0Z"/>
          <path class="cls-1" d="M120.5,116.9c-.8.1-1.5.2-2.3,0-.5-.1-.8-.5-.5-1,.5-1.1,1.4-1.8,2.5-2,1-.2,1.6.4,2.2,1,.4.5.6,1,.3,1.6-.3.5-.8.5-1.3.5-.3,0-.7,0-1,0h0Z"/>
          <path class="cls-1" d="M362,117.1c-.7-.2-1.6-.2-2.5,0-.6,0-1-.3-.8-1,.4-1.8,3-2.7,4.4-1.5.5.5.9,1.1.7,1.8-.3.7-1,.7-1.8.8h0Z"/>
          <path class="cls-1" d="M60.3,117c-.5,0-1,0-1.5,0-.9,0-1.2-.5-.8-1.3.6-1.6,2.7-2.2,4.1-1.3.7.5,1.1,1.1.9,1.9-.2.9-1,.8-1.7.8s-.7,0-1,0h0s0,0,0,0Z"/>
          <path class="cls-1" d="M270,117.1c-.6,0-1.2,0-1.8-.1-.4,0-.8-.2-.7-.8,0-.7,1.6-2.1,2.5-2.2,1.1-.2,1.9.3,2.5,1.2.7,1,.3,1.8-.9,1.9-.5,0-1,0-1.5,0h0c0,0,0,0,0,0Z"/>
          <path class="cls-1" d="M175.1,120.1c.3,0,.7-.2,1.1-.3,1.2.2,1,1.3,1.2,2,0,0,0,.2-.1.3-.3.2-.6.5-.8.8-.3.2-.7.4-1,.5-2.3-.2-2.5-.3-2.7-2,.2-.5.6-.9,1.2-1,.4,0,.8,0,1.1-.3h0Z"/>
          <path class="cls-4" d="M172.8,121.4c.2,1.7.3,1.9,2.7,2-.9.6-1.7.5-2.4-.2-.5-.5-.9-1.1-.3-1.8Z"/>
          <path class="cls-4" d="M177.3,121.8c-.2-.8,0-1.8-1.2-2,.4-.4.8-.2,1,0,.3.6.7,1.2.2,1.9h0Z"/>
          <path class="cls-4" d="M176.5,122.9c.2-.3.4-.6.8-.8,0,.5-.3.8-.8.8Z"/>
          <path class="cls-4" d="M175.1,120.1c-.3.3-.7.3-1.1.3.3-.4.7-.5,1.1-.3Z"/>
          <path class="cls-1" d="M336.4,117c-.4,0-.9,0-1.3,0-1,0-1.5-.6-1-1.6s1.3-1.5,2.3-1.6c1-.2,1.7.4,2.3,1.1.4.4.4.9.2,1.4-.2.5-.7.6-1.2.6-.5,0-.9,0-1.4,0h0c0,0,0,0,0,0Z"/>
          <path class="cls-4" d="M48.1,118.9c0-.8-.1-2.1,0-3.4.1-.8-.3-1.3-1.1-1.4-.5,0-1-.2-1-.8,0-.6.5-.8,1-.8.8,0,1-.3,1-1.1,0-.6,0-1.1.8-1.1.7,0,.8.5.8,1,0,.8.4,1.1,1.1,1.1.3,0,.7,0,1,0,.7,0,1.6-.3,1.6.7,0,1.1-.9.8-1.6.8-.3,0-.6,0-.9,0-.8,0-1.2.3-1.2,1.2,0,2.2,0,4.3,0,6.5,0,1.3,1.1,2,2.3,1.8.5-.1,1.2-.3,1.4.4.2.8-.5,1-1.1,1-.5,0-1.1,0-1.6,0-1.5-.1-2.4-1-2.4-2.5,0-1,0-2.1,0-3.6h0Z"/>
          <path class="cls-4" d="M266.1,46.4c-.6.3-1,.4-1.2-.5-.4-1.7-.5-3.3,0-5,0,0,0-.1,0-.2,0-3.6.2-7.2-.2-10.7,0-.1,0-.2,0-.3.1-2.3-.3-4.6,0-6.9.1-1,1.1-1.2,1.8-1.5,1.7-.6,3.8-.5,5.2.1,1.5.6,3.3.4,4.5,1.7.4.5.9.2,1.3-.1.3-.2.5-.9,1-.5.5.5-.3.6-.5.8-.2.3-.6.7-.3,1.1.7.8.8,1.9,1.8,2.5.5.3,1.1.8.4,1.5-.2.2-.2.5,0,.6.7.6.5,1.3.5,2v5c0,.8-.2,1.5-1.1,1.7,0-2.7,0-5.4.2-8.1,0-.5,0-.9-.3-1.2-.5-.7-.8-1.5-1.1-2.2-.9-1.8-2.5-3-4.3-3.5-1.6-.5-3.4-.4-5-.1-.2,0-.3,0-.5,0-1.5-.7-2.4-.1-2.4,1.4,0,.5,0,1,0,1.5.3,4.2,0,8.5.2,12.7,0,2.7-.5,5.5,0,8.2h0Z"/>
          <path class="cls-4" d="M268.7,22.7c1.7-.3,3.5-.4,5,.1,1.8.6,3.4,1.7,4.3,3.5.4.8.6,1.5,1.1,2.2.3.4.3.8.3,1.2-.3,2.7-.3,5.4-.2,8.1-.1.6,0,1.2-.6,1.7-1.2.3-1.5,1.3-2,2.2-.2.3.1.4.4.5,0,.4-.3.6-.6.8-.1,0-.3,0-.3,0-1.2,1.7-3,2.5-5,2.9-1.5.3-3,.9-4.5.8-.1-.2-.4-.2-.6-.2-.6-2.7,0-5.5,0-8.2-.1-4.2.1-8.5-.2-12.7,0-.5,0-1,0-1.5,0-1.5.9-2.1,2.4-1.4-1.7.4-1.9.5-1.9,2.4v18.9c0,1.7.3,1.9,2,1.7.2,0,.4,0,.5,0,2.6,0,4.6-1.2,6.3-3,1.7-1.7,2.7-3.7,3.2-6.2.5-2.7.5-5.1-.2-7.8-.9-3-2.9-4.5-5.7-5.4-1.2-.4-2.5-.2-3.7-.7h0Z"/>
          <path class="cls-4" d="M266.7,46.7c1.6.1,3-.5,4.5-.8,2-.4,3.7-1.2,5-2.9,0,0,.2,0,.3,0,0,1.4-1.2,2-2.1,2.7-1.2,1-2.6,1.5-4.2,1.3-.3,0-.5.2-.7.4-.7.8-1.6.8-2.5.6-.8-.2-1.1-.6-.3-1.3h0Z"/>
          <path class="cls-4" d="M292.1,49.2c0,.3-.2.5-.5.6-.4.2-.7,0-1-.2-.3-.4-.6-.7-1-1-.3-.2-.5-.6-.3-1,.2-.4.4-.7.9-.8.5,0,.5.4.7.7.1.4.4.7.8.9.2.1.5.4.5.7h0Z"/>
          <g>
            <path class="cls-4" d="M300.5,21.4c-1.2-3.4-3.2-6.3-6-8.7-2.9-2.4-6.1-4.1-9.6-5.3-1.4-.5-2.7-1-4.2-.9,0,0,0,0-.1,0-.2,0-.4,0-.6-.1,0,0,0,0-.1,0-.1-.1-.3-.3-.4-.3-2.2-.2-4.2-1-6.4-1-3.6,0-7.2,0-10.8,0-2.6,0-5.3.1-7.9.4-3.4.3-6.8,1.1-10.3,1-.4,0-.7,0-1.1.1-.5,0-.6.4-.6.8,0,2.5,0,5.1,0,7.6,0,23.2,0,46.3,0,69.5s0,4.3,0,6.5c0,1.8,0,2.1,1.9,2.1h9.8c.6,0,1.3,0,1.9,0h7.5c.3,0,.7,0,1,0,1.3.2,2-.4,1.9-1.7-.2-1.8,0-3.6,0-5.4,0-6.8,0-13.6,0-20.4s0-2,2.1-2.1c.1,0,.3,0,.4-.1,0,0,0,0-.1,0,0,0,0,0,0,0,0,0,0,0,0,0,.3,0,.7,0,1,0,.4-.2.8-.4,1.2-.5.3,0,.6-.2.9-.2,1.1-.2,2.3-.2,3.4-.2.1,0,.3,0,.4,0,.8-.6,1.6-1,2.7-.8.6,0,1.2-.2,1.7-.5h0c.3-.7,1-.8,1.6-1,1.2-.5,2.4-1,3.6-1.6.3-.2.6-.3.9-.5.9-.8,1.8-1.7,2.8-2.3,1.7-1.1,2.9-2.5,4.2-3.9.8-.9,1.6-1.9,2.4-2.9.7-.9,1.3-1.8,1.8-2.7-.5,1-1.1,1.9-1.8,2.8-.8,1-1.5,2-2.4,2.9-1.3,1.4-2.6,2.8-4.2,3.9-1,.7-1.8,1.5-2.8,2.3,1.4-.2,2.2-1.3,3.2-2,2.2-1.6,4.2-3.5,5.9-5.6,1-1.2,1.7-2.6,2.5-3.9.9-1.5,1.6-3.2,2.3-4.8.8-1.8,1.1-3.7,1.4-5.7.1-.8.2-1.7.3-2.5,0-.2,0-.4,0-.6,0,0,0-.1,0-.2.3-3.9-.1-7.7-1.4-11.4ZM243.1,16.2s0,0,0,0c0,14.2,0,28.5,0,42.7,0,0,0,0,0,0,0-14.2,0-28.5,0-42.7ZM244.4,92.7c-1,0-1.3-.4-1.3-1.4,0-4.7,0-9.4,0-14.1,0,0,0,0,0,0,0,4.7,0,9.4,0,14,0,1,.3,1.4,1.3,1.4,2.5,0,5.1,0,7.6,0,0,0,0,0,0,0-2.5,0-5.1,0-7.6,0ZM266,90.3c0,.6,0,1.1-.2,1.6-.1.4-.4.8-.8.6-.9-.3-1.7,0-2.5,0-1.4,0-2.8,0-4.3,0,0,0,0,0,0,0,1.4,0,2.8,0,4.2,0,.8,0,1.6-.3,2.5,0,.4.1.7-.2.8-.7.1-.5.2-1.1.2-1.6h0ZM280.4,31.1v5c0,.8-.2,1.5-1.1,1.7-.1.6,0,1.2-.6,1.7,0,1.2-.8,2-1.6,2.7,0,.4-.3.6-.6.8,0,1.4-1.2,2-2.1,2.7-1.2,1-2.6,1.5-4.2,1.3-.3,0-.5.2-.7.4-.7.8-1.6.8-2.5.6-.8-.2-1.1-.6-.3-1.3h0c-.2-.2-.4-.2-.6-.2-.6.3-1,.4-1.2-.5-.4-1.7-.5-3.3,0-5,0,0,0-.1,0-.2,0-3.6.2-7.2-.2-10.7,0,0,0-.2,0-.3.1-2.3-.3-4.6,0-6.9.1-1,1.1-1.2,1.8-1.5,1.7-.6,3.8-.5,5.2.1,1.5.6,3.3.4,4.5,1.7.4.5.9.2,1.3-.1.3-.2.5-.9,1-.5.5.5-.3.6-.5.8-.2.3-.6.7-.3,1.1.7.8.8,1.9,1.8,2.5.5.3,1.1.8.4,1.5-.1.2-.1.5,0,.6.7.6.5,1.3.5,2ZM298.9,41.3c0,.1,0,.3-.2.4,0,0,.1-.2.1-.3.3-1.5.6-2.9,1-4.4,0,0,0,0,0,0-.4,1.4-.6,2.9-1,4.3Z"/>
            <path class="cls-4" d="M286.2,58.2s0,0,0,0c0,0,0,0,0,0h0Z"/>
          </g>
          <path class="cls-4" d="M277.1,42.2c-.3,0-.5-.2-.4-.5.5-.9.8-1.9,2-2.2,0,1.2-.8,2-1.6,2.7h0Z"/>
          <g>
            <path class="cls-4" d="M42.2,92c-1.1-.9-1.5-2.3-2.2-3.5-1.3-2.2-1.4-4.8-1.4-7.3,0-4.3.1-8.7.2-13,0-.5,0-1.1-.5-1.2-.4-.2-.9.2-1.2.6-1,1.3-2,2.5-2.6,4-.8,2.2-1.6,4.3-1.8,6.7,0,.4,0,1-.6,1.1-.5,0-.7-.4-.8-.8-.8-2.4-2-4.7-2.5-7.2-.3-1.2-.3-2.4-.7-3.6-.3.9,0,1.7,0,2.6,0,0,0,.1,0,.2-.2,2.4,1.2,4.3,2,6.5.5,1.3.7,2.6,1.6,3.6.5.3,1.1.7,1.5-.2,0-1.5-.2-3,.4-4.4.2-.4.5-.8.5-1.2.2-2.1.8-4,2.2-5.6.3-.3.5-.7.7-1.1.2-.2.3-.5.7-.4.4,0,.4.5.4.8h0c0-.3,0-.7-.4-.8-.3,0-.5.2-.7.4-.2.3-.4.8-.7,1.1-1.3,1.6-2,3.5-2.2,5.6,1.3.3,1.4.2,1.3-1.1,0-1,.2-1.9.8-2.8.1-.2.3-.5.7-.4.3.1.3.4.3.7-.4,1.3,0,2.8-.5,4.1-.2.4-.1.9,0,1.4.2,1.8.4,3.5.4,5.3,0,.5-.3,1.3-.1,1.6.9,1.2.7,2.4.6,3.7,0,.3,0,.6.2.8.2.2.3.6,0,.8-.3.2-.8.3-.9,0-.6-.9-2-1-2.2-2.3-.1-.6-.5-.9-1.1-.4-.5.4-.7.2-1.2,0-1.3-.5-2.1-1.7-3.2-2.4-.6-.4-1.4-.4-1.8-1.2-.3-.8-.9-1.4-1.8-1.6-.6-.2-.7-.5-.2-1,.8-.8.5-1.7,0-2.7-.3.4-.2.7,0,1,.1.3,0,.7-.2.9-1,.6-2,.2-2.1-1,0-.5-.2-.7-.7-.4-.2,0-.3.2-.5.2-.3,0-.7.2-.9-.2-.2-.3.1-.5.3-.8.2-.2.4-.4.6-.6.4-.6.5-1.2,0-1.8-.9-1-.9-1.1.5-1.4.5-.1.8-.4.8-.9,0-.4-.1-.8-.5-1-.4-.2-1-.3-1.2.1-.3.7-.3,1.5-1.2,1.8-.1,0,0,.4,0,.6.2.4.7.9,0,1.2-.5.2-1,0-1.4-.5-.6-.8-1.4-1.4-1.6-2.6,0,0,0,0,0,0,.4,0,.7,0,1.1,0,2.6-.4,4.1-2.4,4.3-4.9.2-1.6-.2-3.2-.8-4.7,0-.4-.1-.7-.2-1.1-.5-1.5-.6-2.2-.4-3.7.3-2.7-2.5-5-5-5s-2,.3-2.7.8c-1.9.5-3.3,1.9-3.9,3.6-.1-.3,0-.6.1-1,.5-1.2.5-1.3-.9-1.3h-.5c0,.6.2,1.2-.1,1.7,0,.2,0,.4,0,.6,0,0,0,0,0,0-.2.4,0,.9.2,1.3.5,1.8,1.3,3.7,2.1,5.3.6,1.3,1.3,2.6,2,3.8,0,.3.2.6.3,1,.4.9.9,1.7,1.5,2.3.5.9,1.1,1.8,1.7,2.7,3.6,5.3,8.1,9.5,13.3,13.2,3.8,2.7,8,4.6,12.3,6.3.3.1.5.3.8,0,.2-.3.1-.6-.1-.8ZM38.1,69.4c-.5,2.7.3,5.4.1,8.2.2-2.7-.6-5.4-.1-8.2ZM40.9,91.6c-.4.5-1-.3-1.5-.5-.2,0-.3-.2-.5-.3.2-.9.9-.3,1.3-.5-.3-.4-.8-.8-.8-1.2-.4-2.3-1.1-4.5-1.2-6.9,0,2.3.8,4.6,1.2,6.9,0,.4.6.8.8,1.2.2.5,1.2.8.7,1.4Z"/>
            <path class="cls-4" d="M28.3,67.8s0,0,0,0c0,0,0,0,0,0h0Z"/>
          </g>
          <path class="cls-4" d="M23.6,76.9c.1-.8.7-.9,1-1.1,0,0,.2.2.2.2-.2.5-.7.5-1.2.9h0Z"/>
          <path class="cls-1" d="M268.7,22.7c1.2.4,2.5.3,3.7.7,2.8.9,4.8,2.4,5.7,5.4.8,2.6.7,5.1.2,7.8-.4,2.5-1.5,4.5-3.2,6.2-1.7,1.7-3.7,3-6.3,3-.2,0-.4,0-.5,0-1.7.2-2,0-2-1.7v-18.9c0-1.9.2-2.1,1.9-2.4.2,0,.3,0,.5,0h0Z"/>
        </g>
      </g>
      <path class="cls-3" d="M26.9,73.5c-.3,0-.6,0-.9,0,.3-.5.5-.9.8-1.4-.8,1-1.7,2-2.7,2.9-.3-1.4.5-2.9.4-4.3-1.1,1.2-2.2,2.5-3.6,3.3,0-.5-.1-1.1-.2-1.6-.2.6-.4,1.2-.5,1.8,1,0,1.6-1.2,2.6-1.4"/>
      <path class="cls-2" d="M223.8,8.5c.2,4.5.3,9,.3,13.5"/>
      <path class="cls-2" d="M224.7,8c-.1,1.8-.2,3.6,0,5.3,0,.7.2,1.5.3,2.2.2,2.1.1,4.1-.3,6.2-.1.6-.3,1.2-.7,1.5"/>
      <path class="cls-2" d="M223.2,23.6c-2.6.6-5.3.2-7.9.5-.8,0-1.5.3-2.3.3-2.8.3-5.7-.2-8.6-.2-.5,0-.9,0-1.3.2-.4.1-.7.4-1.1.6-.8.6-1.6,1.2-1.9,2-.7,1.7.5,3.5.4,5.3"/>
      <path class="cls-2" d="M200.6,41.1c1.9,1,4.1,1.3,6.2,1.3,2.4,0,4.8-.1,7.3-.3.9,0,1.8-.1,2.6-.3.5-.1,1-.3,1.5-.3,1-.1,2,.2,3,.5.4.1.8.3,1.1.6.4.5.3,1.3,0,2-.2.6-.5,1.2-.9,1.8"/>
      <path class="cls-4" d="M218.9,6.7c-.2,0-.3,0-.5,0-2.9-.7-5.9-.4-9-.4-.1,0-.3,0-.4,0-.1,0-.3,0-.4,0-2.6-.6-5.4.8-6.2,3.5-.6,2.2.5,4.8,2.6,5.8-3.9.1-7.5,1.4-10.8,3.6-2.2,1.5-2.6,3.8-2,5.8-.5,3-.7,6-.5,9.1.2,2.9,0,5.7,0,8.5.2,3.5,3.3,5.1,6,4.8.9,1.4,2.4,2.3,4.1,2.4.6.3,1.3.5,2,.5,3.5.2,7,.3,10.5.2.5,0,.9,0,1.4-.2.8,0,1.6,0,2.4,0,1.3-.1,2.6-.5,3.5-1.5.9-.9,1.5-2.3,1.5-3.5,0-1.3-.5-2.6-1.5-3.5-.9-.9-2.2-1.6-3.5-1.5-1.1,0-2.1.1-3.2.1-.3,0-.5,0-.8,0-.6,0-1.2-.1-1.8-.2-.2,0-.5,0-.8,0-3.2,0-6.4-.2-9.6-.3,0,0-.1,0-.2,0,0-1.5.2-3,0-4.5-.2-2.8-.3-5.6.1-8.4,0-.1,0-.3,0-.4,5.8-2,12.4.4,18.5-.5,7.9-1.1,4.2-8.4,5.7-13.6,1.4-4.7-4-7.4-7.3-5.6Z"/>
      <path class="cls-4" d="M288.7,33.5c.3-3.7-.2-7.4-1.6-10.9-.8-2.1-2.6-3.1-4.5-3.3,0-1.2-.3-2.5-1.4-3.7-5.1-5.5-14.1-4.3-20.6-2.5-1.7.5-2.7,1.6-3.2,2.8-1.6.7-2.8,2.1-2.8,4.4,0,2.4,0,4.3.8,6.6.3.9.4,1.8.4,2.8-.9,7,0,14.1-1.4,21-1.3,6.3,8.3,9,9.6,2.7,1.3-6.5.6-13.1,1.2-19.6.3-.7.5-1.4.5-2.3,0-2.2.1-4.5-.4-6.6-.2-.6-.4-1.2-.7-1.8-.1-.2-.2-.4-.2-.5,0,0,0,0,0,0,3-.8,7.7-1.9,9.7.3.9,1,1.9,1.4,3,1.5,0,.3.2.7.3,1.1,1.3,3.1,1.6,6.2,1.1,9.5-.2,1.4-.7,2.9-.8,4.3,0,1.4.2,2.7.2,4.1-.3,6.4,9.7,6.4,10,0,0-1.3-.2-2.6-.1-3.9.2-2,.7-3.9.9-5.9Z"/>
      <path class="cls-4" d="M23.6,56.9c-3,0-4.7,2.3-5,5-.3,2.8-.4,5.7-.2,8.5.2,2.7,2.2,5,5,5s5.2-2.3,5-5c-.2-2.8-.1-5.7.2-8.5.3-2.7-2.5-5-5-5Z"/>
    </g>
  </g>
</svg>