<?xml version="1.0" encoding="UTF-8"?>
<svg xmlns="http://www.w3.org/2000/svg" version="1.1" viewBox="0 0 306 165">
  <defs>
    <style>
      .cls-1 {
        fill: #a3a7cc;
      }

      .cls-2 {
        fill: #777bb3;
      }

      .cls-3 {
        fill: #7b7faf;
      }

      .cls-4 {
        fill: #020202;
      }

      .cls-5 {
        fill: #4a4e8a;
      }

      .cls-6 {
        fill: #f0f0f2;
      }

      .cls-7 {
        fill: #7a7eb4;
      }

      .cls-8 {
        fill: #030303;
      }

      .cls-9 {
        fill: #8a8ebb;
      }

      .cls-10 {
        fill: #6b6fa2;
      }

      .cls-11 {
        fill: #9699c2;
      }

      .cls-12 {
        fill: #5c6098;
      }

      .cls-13 {
        fill: #7175a7;
      }

      .cls-14 {
        fill: #aeb2d4;
      }
    </style>
  </defs>
  <!-- Generator: Adobe Illustrator 28.7.4, SVG Export Plug-In . SVG Version: 1.2.0 Build 166)  -->
  <g>
    <g id="Calque_1">
      <g>
        <path class="cls-2" d="M187,6.7c2.7.4,5.5-.2,8,1.2,2.6,4.1,5.7,7.3,11,7.1,2.7.7,5.3,1.3,8,2,6,1.7,12,3.3,18,5,.8.3,1.5.7,2.3,1,18.4,6.8,35.8,15.3,49.2,30.1,7.7,8.5,12.6,18.5,12.3,30.1-.4,11.5-5.4,21.4-13.4,29.7-11.5,12-25.6,19.8-40.8,26-28.1,11.3-57.6,14.6-87.5,16-14.3-1-28.6-2-43-3-1.7-1.9-4.1-1-6.1-1.4-14.3-2.5-28.1-7-41.9-11.6-.7-.5-1.2-1.1-2-1.4-18.6-7.6-34.9-18.2-46-35.5-2.7-6.7-5.2-13.6-5-21,.8-5.9,2.2-11.7,5-17,2.1-5,5.8-8.8,9-12.9,3.3-3,6.7-6,10-9,11.9-8.1,24.6-14.5,38.2-19.2,25.5-8.9,51.9-12.1,78.7-12.8,4.7,0,9.3,0,14,0,3.9,2,8,.5,12,1,2.1.2,4.2-.2,6.3.6,1.7.6,3.9,1.1,5.1-.2,1.7-1.8-1.2-3-1.4-4.7ZM121.6,93.6c.3.2.6.5.8.7-.5,2.8-.9,5.6-1.4,8.3-.8,4.2.7,6.3,5.2,6.2,3.5-.1,7-.3,10.5,0,5.3.6,7.4-1.8,8.3-6.8,2.2-12.4,4.8-24.8,7.2-37.1.3-.3.5-.6.8-.9,3,0,6-.2,9-.2,7.6,0,8.3.9,6.8,8.5-2,10.3-3.8,20.5-6,30.8-.9,4.2,1,5.5,4.6,5.6,4.5,0,9,.1,13.5,0,2.8-.1,3.5,1,3,3.6-.8,3.7-1.4,7.5-2.3,11.2-1.1,4.3.8,6,4.7,6.1,3.8.1,7.7-.2,11.5,0,4.5.3,7.2-1.1,7.8-6.1.6-4.8.4-10.9,3.2-13.7,3.2-3.2,9.5-.9,14.4-1.1,16.6-.7,29.4-7.5,35.9-23.2,8.3-20,1.4-39.8-23.4-40.9-11.5-.5-23-.1-34.4-.3-2.9,0-4.6,1.5-5.1,4.4-.6,3.2-1.5,6.4-2.4,10.4-1.9-8-7-11.8-13.9-13.3-6.5-1.5-13.2-1.6-19.8-1.5-2.8,0-3.9-.4-3.1-3.6,1-4,1.6-8.1,2.3-12.2.5-3.1-.7-4.8-4.1-4.7-4,0-8,.4-12,0-5.4-.6-7.3,1.8-8.1,6.8-1.8,10.6-4,21.1-6.3,32.7-4.4-12.5-13-17.5-24.6-18.4-11.8-1-23.6-.2-35.4-.5-3.2,0-5,1.1-5.7,4.7-4.3,22.8-8.8,45.6-13.4,68.4-2.4,12.1-2.6,12.1,10,12.1,13.9,0,11.4.5,13.7-11.3,1.9-9.5,1.8-9.7,11.8-9.5,14.5.2,27.4-3.1,36.7-15.2Z"/>
        <path class="cls-5" d="M154,154.9c29.9-1.4,59.4-4.6,87.5-16,15.2-6.2,29.4-14,40.8-26,8-8.3,13-18.2,13.4-29.7.4-11.6-4.6-21.6-12.3-30.1-13.4-14.8-30.8-23.3-49.2-30.1-.8-.3-1.5-.6-2.3-1-.3-2-.7-3.9-1-5.9,17.4,5.3,33.6,13,47.7,24.7,11.2,9.3,20.1,20.1,22.2,35.2-1.3,1.8-1.8,3.6.5,5,0,.6,0,1.3,0,1.9-2.4,1.5-1.8,3.2-.5,5-.1,1-.2,2-.3,3-1.3.3-2.1.8-.7,2-2.9,12.6-10.6,22-20.1,30-18.2,15.5-40,23.9-62.8,29.8-21.2,5.4-42.8,7.6-64.6,7.6-2.1,0-4.3-.3-6.4-.4,2.4-2.1,6.8-.9,8-5Z"/>
        <path class="cls-14" d="M151,10c-26.8.7-53.2,3.9-78.7,12.8-13.6,4.7-26.3,11.2-38.2,19.2-1.8-1.5-.7-3.5-1.1-5.3,8.9-7.4,19.4-12.2,30-16.5,19.3-7.8,39.6-11.9,60.3-14.4,6.6-.8,13.3-.2,19.8-1.6,2.2-.4,4.7-.5,6.9.5.3,1.7.7,3.4,1,5.1Z"/>
        <path class="cls-13" d="M15.1,102c11.1,17.3,27.4,27.9,46,35.5.7.3,1.3.9,2,1.4-1.5,1.9-2.9.4-4.3-.2-4-1.4-7.9-3-12.3-2.7-17.8-8.8-32.6-20.5-39.5-40.1,2.1,0,3.2,1.4,4.1,3,.9,1.6,2,3,4,3Z"/>
        <path class="cls-10" d="M46.4,136.1c4.4-.4,8.3,1.2,12.3,2.7,1.4.5,2.8,2,4.3.2,13.8,4.6,27.5,9,41.9,11.6,2,.4,4.4-.5,6.1,1.4-3.4,2-7.6,1.1-11,3.1-18.9-3.5-37.1-8.7-53.6-18.9Z"/>
        <path class="cls-12" d="M100,155c3.4-1.9,7.6-1.1,11-3.1,14.3,1,28.6,2,43,3-1.2,4.1-5.6,2.9-8,5-15.5.4-30.9-1.5-46-5Z"/>
        <path class="cls-3" d="M15.1,102c-2,0-3.1-1.5-4-3-.9-1.6-2-2.9-4.1-3-2.9-6.8-3.3-13.8-1.8-20.9,1.6,2,3.2,4,4.9,5.9-.2,7.4,2.3,14.2,5,21Z"/>
        <path class="cls-9" d="M10.1,81c-1.6-2-3.2-4-4.9-5.9.2-.7.3-1.4.5-2.1,1.2-.4,1.5-1,.5-1.9.9-4.8,3-9.1,5.9-13,1,2,2,4,2.9,5.9-2.8,5.4-4.2,11.1-5,17Z"/>
        <path class="cls-12" d="M231,16.1c.3,2,.7,3.9,1,5.9-6-1.7-12-3.3-18-5,1-1.7,1.1-3.5.9-5.4,5.5,1,10.9,2.5,16.1,4.5Z"/>
        <path class="cls-11" d="M15,64c-1-2-2-4-2.9-5.9,2.2-4.3,5.2-8,8.9-11.1,1,1.4,2.1,2.7,3.1,4.1-3.2,4.2-7,8-9,12.9Z"/>
        <path class="cls-1" d="M24.1,51c-1-1.4-2.1-2.7-3.1-4.1,3.4-4.1,7.5-7.4,12-10.2.4,1.8-.6,3.8,1.1,5.3-3.3,3-6.7,6-10,9Z"/>
        <path class="cls-11" d="M177,11c-4-.5-8.1,1.1-12-1-1.6-1.8-2.9-4-5.1-5.2,5.2.1,10.5-.4,15.6.7-1.1,2.3,1.1,3.6,1.5,5.4Z"/>
        <path class="cls-9" d="M177,11c-.3-1.9-2.6-3.2-1.5-5.4,3.8.6,7.7-.2,11.5,1.1.2,1.7,3.1,2.9,1.4,4.7-1.2,1.3-3.4.8-5.1.2-2.1-.8-4.2-.4-6.3-.6Z"/>
        <path class="cls-1" d="M159.9,4.9c2.3,1.2,3.5,3.3,5.1,5.2-4.7,0-9.3,0-14,0-.3-1.7-.7-3.4-1-5.1,3.3,0,6.6,0,9.9,0Z"/>
        <path class="cls-10" d="M214.9,11.7c.2,1.9,0,3.7-.9,5.4-2.7-.7-5.3-1.3-8-2-.3-1.9-1.4-3.7-1-5.7,3.3.8,6.6,1.5,9.9,2.3Z"/>
        <path class="cls-13" d="M205,9.4c-.4,2,.7,3.8,1,5.7-5.3.2-8.4-3.1-11-7.1,3.3.5,6.7,1,10,1.4Z"/>
        <path class="cls-12" d="M301.4,81c-2.4-1.4-1.8-3.2-.5-5,.5,1.6,1,3.3.5,5Z"/>
        <path class="cls-12" d="M301,88c-1.4-1.8-1.9-3.6.5-5,.5,1.7.3,3.4-.5,5Z"/>
        <path class="cls-12" d="M300,93c-1.4-1.2-.6-1.7.7-2-.2.7-.5,1.4-.7,2Z"/>
        <path class="cls-3" d="M6.2,71.1c1.1.9.7,1.5-.5,1.9.2-.6.3-1.3.5-1.9Z"/>
        <path class="cls-6" d="M121.6,93.6c-9.3,12.2-22.2,15.5-36.7,15.2-9.9-.2-9.9,0-11.8,9.5-2.4,11.8.2,11.4-13.7,11.3-12.5,0-12.4,0-10-12.1,4.6-22.8,9.1-45.5,13.4-68.4.7-3.6,2.5-4.8,5.7-4.7,11.8.3,23.6-.5,35.4.5,11.6,1,20.2,5.9,24.6,18.4,2.3-11.6,4.6-22.1,6.3-32.7.8-5,2.7-7.4,8.1-6.8,3.9.5,8,.2,12,0,3.3,0,4.6,1.6,4.1,4.7-.7,4.1-1.2,8.2-2.3,12.2-.8,3.2.4,3.7,3.1,3.6,6.6-.1,13.3,0,19.8,1.5,7,1.6,12,5.3,13.9,13.3.9-4,1.8-7.2,2.4-10.4.6-2.9,2.2-4.4,5.1-4.4,11.5.2,22.9-.2,34.4.3,24.8,1.1,31.7,20.8,23.4,40.9-6.5,15.7-19.3,22.5-35.9,23.2-4.9.2-11.3-2.1-14.4,1.1-2.8,2.9-2.6,9-3.2,13.7-.6,5-3.3,6.3-7.8,6.1-3.8-.2-7.7,0-11.5,0-3.9-.1-5.9-1.8-4.7-6.1,1-3.7,1.5-7.5,2.3-11.2.6-2.6-.2-3.7-3-3.6-4.5.2-9,0-13.5,0-3.7,0-5.5-1.3-4.6-5.6,2.2-10.2,4-20.5,6-30.8,1.5-7.6.8-8.5-6.8-8.5-3,0-6,.1-9,.2-.6,0-.9.3-.8.9-2.4,12.4-5,24.7-7.2,37.1-.9,5-3,7.4-8.3,6.8-3.5-.4-7-.2-10.5,0-4.5.2-6-1.9-5.2-6.2.5-2.8.9-5.6,1.4-8.3.1-.6.4-1.6.3-1.7-.9-.4-.8.6-1.1,1ZM51.4,126c4.7,0,8.9-.3,13,0,3.4.3,4.3-1.2,4.7-4.1.6-4.4,1.7-8.8,2.4-13.2.4-2.7,1.4-3.9,4.5-3.7,5.3.3,10.7.1,16,0,16.4-.5,29.1-10.8,32.8-26.8,3.8-16.3-2.9-27.7-19.1-29.5-12.3-1.4-24.9-.5-37.4-.6-1.8,0-2,1.1-2.2,2.6-1.1,6-2.3,12-3.5,18.1-3.7,18.9-7.4,37.7-11.2,57.3ZM217.5,105c2.7,0,5.3,0,8,0,15.5-.5,27.8-10.2,32-25.2,4.7-16.9-1.9-28.8-18.5-31.2-12.3-1.8-24.9-.3-37.4-.6-2.2,0-2.3,1.6-2.5,3-4.4,22.5-8.8,44.9-13.1,67.4-1.4,7.5-1.3,7.6,6.6,7.6q8.9,0,10.5-8.9,2.1-12,14.5-12.1ZM156,27.1c-4.9,0-9.5.1-14.1,0-2.1,0-2.7.6-3.1,2.7-4.8,25-9.8,50-14.7,75.4,5,0,9.7-.1,14.3,0,2.3,0,2.6-.9,3-2.8,1.8-9.6,3.9-19.2,5.7-28.8,2.7-14.6,2.7-14.6,17.9-13.2,7.4.7,9.2,3.1,7.7,10.6-2.1,10.4-4,20.8-6.2,31.2-.4,2.1-.3,3.1,2.2,3,4-.1,8-.1,12,0,2,0,2.4-.7,2.8-2.5,2.2-12.2,5-24.4,6.8-36.6,1.5-10.3-2.7-15.1-12.8-17.1-7.4-1.5-14.9-.7-22.4-.8-2.5,0-3.1-.7-2.6-3.2,1.3-5.8,2.4-11.7,3.6-17.9Z"/>
        <path class="cls-13" d="M152.2,65c0-.6.2-.9.8-.9-.3.3-.5.6-.8.9Z"/>
        <path class="cls-8" d="M51.4,126c3.8-19.6,7.5-38.4,11.2-57.3,1.2-6,2.4-12,3.5-18.1.3-1.5.4-2.6,2.2-2.6,12.5.1,25.1-.8,37.4.6,16.2,1.8,22.9,13.2,19.1,29.5-3.7,16-16.3,26.4-32.8,26.8-5.3.1-10.7.3-16,0-3-.2-4,1-4.5,3.7-.7,4.4-1.8,8.8-2.4,13.2-.4,2.9-1.3,4.4-4.7,4.1-4.1-.4-8.3,0-13,0ZM83.7,93c16.5.8,23.8-6.4,24.3-23,.1-4.8-2.5-7.7-7.1-9-5.2-1.5-10.6-.6-15.9-1-3.2-.3-4.4,1-4.9,3.9-1.2,6.7-2.5,13.4-3.9,20q-1.8,9.1,7.4,9.1Z"/>
        <path class="cls-4" d="M217.5,105q-12.4.1-14.5,12.1-1.6,8.9-10.5,8.9c-7.9,0-8,0-6.6-7.6,4.3-22.5,8.7-44.9,13.1-67.4.3-1.4.3-3.1,2.5-3,12.5.3,25.1-1.2,37.4.6,16.6,2.4,23.2,14.2,18.5,31.2-4.2,15-16.4,24.7-32,25.2-2.7,0-5.3,0-8,0ZM216.8,93c16.5.9,23.9-6.4,24.3-22.8.1-5.1-2.4-8-7.2-9.2-5.9-1.5-11.9-.6-17.9-.9-1.9,0-1.9,1.2-2.2,2.6-1.4,7.1-2.8,14.3-4.2,21.4-1.9,8.9-1.9,8.9,7.1,8.9Z"/>
        <path class="cls-4" d="M156,27.1c-1.2,6.2-2.3,12.1-3.6,17.9-.6,2.4,0,3.1,2.6,3.2,7.5.1,15-.7,22.4.8,10.1,2,14.3,6.8,12.8,17.1-1.8,12.3-4.6,24.4-6.8,36.6-.3,1.8-.8,2.6-2.8,2.5-4-.1-8-.1-12,0-2.5,0-2.6-.9-2.2-3,2.1-10.4,4.1-20.8,6.2-31.2,1.5-7.4-.3-9.8-7.7-10.6-15.2-1.5-15.1-1.5-17.9,13.2-1.8,9.6-3.9,19.2-5.7,28.8-.4,1.9-.7,2.9-3,2.8-4.6-.2-9.3,0-14.3,0,5-25.4,9.9-50.4,14.7-75.4.4-2.1,1-2.7,3.1-2.7,4.6.2,9.3,0,14.1,0Z"/>
        <path class="cls-2" d="M121.6,93.6c.4-.4.3-1.4,1.1-1,.1,0-.2,1.1-.3,1.7-.3-.2-.6-.5-.8-.7Z"/>
        <path class="cls-6" d="M83.7,93q-9.2,0-7.4-9.1c1.3-6.7,2.7-13.3,3.9-20,.5-2.9,1.7-4.2,4.9-3.9,5.3.4,10.6-.4,15.9,1,4.6,1.3,7.2,4.2,7.1,9-.5,16.6-7.8,23.8-24.3,23ZM91.9,63.7q-8,0-9.6,7.9c-.4,2.1-1.2,4.2-1.1,6.3.1,4-4.6,8.8-.4,11.5,3.3,2.1,8.4.2,12.6-.7,7.4-1.6,12-10.1,10.9-19.4-.5-4.6-2.6-5.5-12.5-5.6Z"/>
        <path class="cls-6" d="M216.8,93c-9,0-9,0-7.1-8.9,1.5-7.1,2.9-14.3,4.2-21.4.3-1.3.2-2.7,2.2-2.6,6,.3,12-.6,17.9.9,4.8,1.2,7.3,4.2,7.2,9.2-.4,16.4-7.8,23.7-24.3,22.8ZM225.1,63.7c-7.9,0-7.9,0-9.6,7.9-1,5-1.7,10.2-2.9,15.1-.7,2.8.3,3.2,2.6,3.1,3.1-.3,6.3-.4,9.4-.8,5.9-.6,9.6-3.8,11.5-9.5,4.1-12.3,1.8-15.7-11.1-15.8Z"/>
        <path class="cls-7" d="M91.9,63.7c9.9,0,11.9,1,12.5,5.6,1.1,9.4-3.5,17.8-10.9,19.4-4.2.9-9.4,2.8-12.6.7-4.2-2.7.5-7.5.4-11.5,0-2.1.7-4.2,1.1-6.3q1.6-7.9,9.6-7.9Z"/>
        <path class="cls-7" d="M225.1,63.7c12.9.1,15.2,3.5,11.1,15.8-1.9,5.7-5.6,8.9-11.5,9.5-3.1.3-6.3.5-9.4.8-2.3.2-3.3-.3-2.6-3.1,1.2-5,1.9-10.1,2.9-15.1,1.7-8,1.7-8,9.6-7.9Z"/>
      </g>
    </g>
  </g>
</svg>