<?xml version="1.0" encoding="UTF-8"?>
<svg xmlns="http://www.w3.org/2000/svg" version="1.1" viewBox="0 0 130.7 129.2">
  <defs>
    <style>
      .cls-1 {
        fill: #f8fafa;
      }

      .cls-2 {
        fill: #21618f;
      }

      .cls-3 {
        fill: #fdcc3d;
      }

      .cls-4 {
        fill: #1f618d;
      }

      .cls-5 {
        fill: #fdfcf6;
      }

      .cls-6 {
        fill: #356d99;
      }
    </style>
  </defs>
  <!-- Generator: Adobe Illustrator 28.7.4, SVG Export Plug-In . SVG Version: 1.2.0 Build 166)  -->
  <g>
    <g id="Calque_1">
      <g>
        <path class="cls-6" d="M4.9,51.2c1.9-10.4,9.4-16.7,20.2-16.9,11.3-.1,22.6,0,33.9,0,1,0,2,.1,3,0,1.3-.2,3.5,1,3.6-1.4,0-2.4-2.2-1.5-3.4-1.5-8.1-.2-16.3-.2-24.4-.3-.3-.5-.6-.6-.9,0-4.5-13.1,4.6-27,18.5-27.6,7.3-.3,14.6-.3,21.9,0,10.8.4,18.9,8.7,19.3,19.7.2,6.6.2,13.3,0,19.9-.3,11.3-8.7,19.6-20.1,20-6.6.2-13.3,0-19.9,0-14.1.1-23.7,9.7-24,23.8q-.1,7.4-7.5,7.2c-12.1-.3-20.3-8.5-20.4-20.4,0-7.1.2-14.3.3-21.4.1,0,.4-.2.4-.2,0-.2-.2-.5-.3-.7ZM43.5,18c.3,3.8,2.4,5.8,5.8,5.7,3.6,0,5.8-2.3,5.6-6.1-.2-3.5-2.5-5.4-5.9-5.3-3.5.2-5.2,2.4-5.4,5.7Z"/>
        <path class="cls-3" d="M89.5,95c-6.7,0-13.3,0-20,0-1.1,0-2.6-.3-2.6,1.4,0,1.7,1.5,1.5,2.6,1.5,7.7,0,15.3.2,23,0,3.3-.1,4.2,1,4.2,4.2.2,15.6-7.8,23.8-23.4,23.9-5.7,0-11.3,0-17,0-11.6-.2-20.2-8.7-20.4-20.2-.1-6.5-.2-13,0-19.5.3-11.3,8.9-19.7,20.1-20,6.8-.2,13.6,0,20.5,0,13.4-.2,23.2-10,23.3-23.4,0-8.4-1.6-7.6,7.8-7.5,11.7,0,20.1,8.5,20.2,20.2,0,6.5,0,13,0,19.5-.1,11.4-8.4,19.7-19.9,20-6.2.1-12.3,0-18.5,0ZM88.9,111.5c-.1-3.8-2.3-5.8-5.6-5.8-3.3,0-5.6,2-5.7,5.5,0,3.8,2.1,5.9,5.8,5.9,3.6,0,5.2-2.3,5.5-5.6Z"/>
        <path class="cls-4" d="M36.8,31.1c.4-.5.7-.4.9,0h-.5c0,0-.5,0-.5,0Z"/>
        <path class="cls-2" d="M4.9,51.2c.1.2.2.5.3.7,0,0-.2.2-.4.2-.1-.3-.1-.6,0-.9Z"/>
        <path class="cls-1" d="M43.5,18c.2-3.3,1.9-5.5,5.4-5.7,3.4-.2,5.7,1.7,5.9,5.3.3,3.8-1.9,6.1-5.6,6.1-3.4,0-5.5-2-5.8-5.7Z"/>
        <path class="cls-5" d="M88.9,111.5c-.2,3.3-1.9,5.6-5.5,5.6-3.7,0-5.8-2.1-5.8-5.9,0-3.6,2.4-5.6,5.7-5.5,3.3,0,5.5,2.1,5.6,5.8Z"/>
      </g>
    </g>
  </g>
</svg>