<?xml version="1.0" encoding="UTF-8"?>
<svg id="Calque_1" xmlns="http://www.w3.org/2000/svg" version="1.1" viewBox="0 0 225 225">
  <!-- Generator: Adobe Illustrator 29.3.0, SVG Export Plug-In . SVG Version: 2.1.0 Build 146)  -->
  <defs>
    <style>
      .st0 {
        fill: #f6de1e;
      }

      .st1 {
        fill: #050501;
      }

      .st2 {
        fill: #030200;
      }
    </style>
  </defs>
  <path class="st0" d="M225,0v225H0V0h225ZM200.94,119.91c-8.25-23.95-49.1-23.89-58.43-.91-5.95,14.65-.74,28.41,11.97,37.02,6.56,4.44,29.17,11.93,31.07,17.92,6.35,19.94-29.43,18.07-33.66,2.14l-17.89,8.94c13.98,34.93,84.18,28.61,72.56-16.07-5.43-20.87-27.22-20.6-40.49-30.51-11.81-8.81-1.07-21.84,11.68-16.68,3.06,1.24,6.36,7.26,6.85,7.33,2.87.41,12.47-8.62,16.35-9.17ZM123,178.5v-74c0-.11-1.39-1.5-1.5-1.5h-20.5v78.5c0,1-4.34,5.89-5.71,6.29-1.86.54-6.74.49-8.74.15-6.38-1.09-8.25-10.07-10.89-9.84-1.93,1.58-15.55,8.67-15.74,9.57-1.67,7.99,17.29,18.58,24.58,19.32,21.37,2.17,36.32-6.05,38.49-28.49Z"/>
  <g>
    <path class="st2" d="M200.94,119.91c-3.87.55-13.48,9.58-16.35,9.17-.5-.07-3.79-6.09-6.85-7.33-12.74-5.16-23.48,7.87-11.68,16.68,13.27,9.9,35.06,9.64,40.49,30.51,11.63,44.69-58.58,51-72.56,16.07l17.89-8.94c4.23,15.93,40,17.8,33.66-2.14-1.91-5.99-24.51-13.48-31.07-17.92-12.71-8.61-17.92-22.37-11.97-37.02,9.34-22.98,50.19-23.05,58.43.91Z"/>
    <path class="st1" d="M123,178.5c-2.17,22.44-17.12,30.66-38.49,28.49-7.29-.74-26.25-11.33-24.58-19.32.19-.9,13.8-7.98,15.74-9.57,2.64-.23,4.5,8.75,10.89,9.84,2,.34,6.88.4,8.74-.15,1.36-.4,5.71-5.29,5.71-6.29v-78.5h20.5c.11,0,1.5,1.39,1.5,1.5v74Z"/>
  </g>
</svg>