<?xml version="1.0" encoding="UTF-8"?>
<svg xmlns="http://www.w3.org/2000/svg" version="1.1" viewBox="0 0 319.7 169.9">
  <defs>
    <style>
      .cls-1 {
        fill: #e38e04;
      }

      .cls-2 {
        fill: #baccd7;
      }

      .cls-3 {
        fill: #307b9d;
      }

      .cls-4 {
        fill: #0f668e;
      }

      .cls-5 {
        fill: #005783;
      }

      .cls-6 {
        fill: #04628a;
      }

      .cls-7 {
        fill: #e4910b;
      }

      .cls-8 {
        fill: #06638b;
      }

      .cls-9 {
        fill: #e4900a;
      }
    </style>
  </defs>
  <!-- Generator: Adobe Illustrator 28.7.4, SVG Export Plug-In . SVG Version: 1.2.0 Build 166)  -->
  <g>
    <g id="Calque_1">
      <g>
        <path class="cls-4" d="M206.7,5.1c7.9,3,14.9,7.5,23.5,9.4,14.1,3.1,24.1,13.4,32.9,24.5,7.2,9.2,10,20.5,15.5,30.6,1.8,3.4,3.9,5.7,7.5,7.2,9.2,3.8,16.9,9.6,23.8,17.6-5.5,2.7-11.4,1.8-17.3,4.7,6.1,5.6,14,8.7,18.3,15.7-.3.3-.5.6-.8.9-5.8-3.5-11.7-6.8-17.5-10.5-3.1-2-6.7-4.9-6-8.5.6-2.6,5.3-2.6,8.4-3.2,2.7-.5,5.6-.6,8.8-1.4-5-3.5-9.3-8.4-15.2-9.9-8.8-2.2-13.5-7.6-16.9-15.7-4.3-10.2-8.1-20.8-15.8-29.2-9.6-10.5-20-19.5-35.3-20.2-3.7-.2-5.8-3.8-9-4.9-3-1-6.5-4.5-9.1-1.6-2.7,3.1,1.2,6,3.1,8.4,3.2,4.1,5.6,8.6,7.1,13.6,1.5,5.1,3.2,10.1,7.1,14.1,2.5,2.5.9,5.3,0,7.9-2.8,7.8-2.8,15.6.1,23.4.4,1.1.9,2.1,1.6,3.1.5.8,1.2,1.8,2.3,1.5,1.3-.4.8-1.6.9-2.5.5-5.2,1.3-10.3,5.9-14.1,3.1,8.6,7.8,16.3,12.2,24.2-5.5-3.2-8.9-8-11.6-13.8-2,1.8-1.3,4-1.9,5.7-.6,2.1-.9,4.3-3.5,5-2.8.8-4.8-.7-6.4-2.8-4.5-5.9-5.4-12.7-5.1-19.8.2-4.2,1.3-8.2,2.5-12.2.4-1.5.7-2.7-.5-4.1-3.8-4.2-5.6-9.4-7.2-14.6-1.5-5.1-4.1-9.4-7.3-13.4-5.2-6.4-5.1-9.1,0-15h5Z"/>
        <path class="cls-6" d="M83.7,164.9c-1.1-4.5,0-6.4,5.3-6.2,8.3.5,16.6.2,24.9.1,6.8,0,7.8-1.1,7.8-7.7-8.6-2.3-17.2-1.5-25.9-.4-10.4-1.9-12.7-4.5-12.6-14.7,0-4.8.3-9.6,0-14.5-.2-3.7,2.4-3.1,4.3-2.8,2.1.3,5.8-2,5.8,2.9,0,5.7.2,11.3,0,16.9-.2,4.5,1.6,6.5,6,6.4,6.3,0,12.6-.2,19,0,3.1.1,3.5-1.2,3.4-3.8-.2-5.6.3-11.3-.1-16.9-.3-4.5,1-6.4,5.6-5.6,1.1.2,2.3.2,3.5.3,0,10.8,0,21.5,0,32.3,0,1.9-.7,4,.8,5.7-.6,3.9-3.6,5.5-6.7,7.1-1.4.7-3.3.2-4.2,2h-3c-1.3-1.6-3.1-1-4.6-1-9.8,0-19.6,0-29.3,0Z"/>
        <path class="cls-2" d="M2.8,108c.3,0,.6,0,1,0,0,.7.1,1.4.2,2.1,0,13.7-.1,27.3-.2,41-.3.3-.7.6-1,.9,0-14.6,0-29.3,0-43.9Z"/>
        <path class="cls-3" d="M83.7,164.9c9.8,0,19.6,0,29.3,0,1.6,0,3.4-.6,4.6,1h-34v-1Z"/>
        <path class="cls-8" d="M4,110c0-.7-.1-1.4-.2-2.1,5.9-7.2,16.5-6.1,20.2,2.3,4.8,10.9,9.5,21.8,14.3,32.8,2.1-1.2,2.4-3.4,3.2-5.1,4.2-9.2,8.4-18.4,12.4-27.7,3.8-8.8,12.2-7.9,18.1-5,2.3,1.2,2.7,3.7,2.7,6.1,0,12.3,0,24.6,0,36.9,0,4.6-3.1,2.9-5.2,2.9-2.1,0-5.3,1.6-5.2-3,.2-9.6,0-19.3,0-28.9,0-1.8.5-3.6-.9-6.1-3.3,7-6.3,13.5-9.3,20-1.9,4.2-3.8,8.5-5.6,12.7-1.6,4-4.4,6-8.8,6.1-4.6.1-8.1-1.1-10.1-5.6-4-8.9-8-17.8-12.1-26.8-.9-2.1-1.9-4.2-3.9-6.2,0,2.3,0,4.6,0,6.9,0,8.6,0,17.3,0,25.9,0,1.5.9,3.3-.8,4.6-.4-.7-.8-.5-1,.1-2.3.5-4.6.4-7,0,0-11.9,0-23.8,0-35.8,0-1.8.6-3.7-.8-5.2Z"/>
        <path class="cls-7" d="M237.4,149.3c3.1,2.9,6,5.6,9.3,8.7-6.8,1-12.5,1.1-16.7-4.5-1.7-2.2-3.9-2.5-6.6-2.3-5.8.3-11.7.7-17.5,0-9.7-1-14.2-5.1-13.7-14.7.4-6.5,0-13,0-19.5.1-7.1,2.9-11,10-12.1,10.2-1.5,20.6-1.5,30.8,0,7.2,1,10.1,5.1,10.3,12.5.1,6.7,0,13.3,0,20,0,4.9-.8,9.3-6,11.8ZM211.5,137.1c6.9,0,12.6-1.4,16.6,4,.7,1,1.8,2.8,3.6,1.9,1.6-.8,2-2.5,2-4.3,0-7.1,0-14.3,0-21.4,0-4.1-2.4-5.9-5.8-6-6.1-.3-12.3-.3-18.5,0-4.1.2-6.3,2.4-6.2,6.8.2,4.3,0,8.6,0,13,0,13.6,1.5,14.9,15.4,13.7,0,0,.2-.2.4-.5-2.2-2-4.4-4.1-7.5-7Z"/>
        <path class="cls-9" d="M167.2,104.2c5.4,0,9.6,0,13.7,0,2.3,0,4.9-.9,5,3.3.1,4.2-2.4,3.5-4.8,3.5-7.8,0-15.6,0-23.5,0-6.4,0-7.4,1-7.3,6.6,0,5.7,1.2,6.8,7.7,6.9,5.2,0,10.3,0,15.5.4,8.8.9,12.1,4.8,12.1,13.2,0,7.8-3.8,12.2-12.1,12.7-10.3.6-20.6.3-30.9.5-2.8,0-2.7-1.6-2.8-3.5-.1-2.4.8-3.2,3.1-3.2,8.5,0,17,.1,25.5,0,5.5-.1,6.6-1.7,6.9-6.9.3-4.8-2.1-6.6-6.4-6.8-5.8-.4-11.7.4-17.4-.7-11.8-2.2-13-8.1-10.6-18.7,1-4.5,5.5-5.9,9.7-6.8,5.9-1.2,12-.2,16.7-.6Z"/>
        <path class="cls-1" d="M249.6,123.1c0-5.2.2-10.3,0-15.4-.2-4.2,2.5-3.6,4.8-3.4,2.3.2,5.6-1.5,5.5,3.3-.2,9.5,0,18.9,0,28.4,0,7.2,1.4,8.7,8.8,8.8,7.6.1,15.3,0,22.9,0,2.3,0,3.7.2,3.7,3.1,0,3-1.2,3.6-3.9,3.5-9.3-.2-18.6,0-27.9-.5-10-.5-13.9-4.9-13.9-14.9,0-4.3,0-8.6,0-13Z"/>
        <path class="cls-5" d="M4,110c1.4,1.6.8,3.5.8,5.2,0,11.9,0,23.8,0,35.8-.3,0-.7,0-1,0,0-13.7.1-27.3.2-41Z"/>
        <path class="cls-5" d="M131.6,156.9c-1.5-1.7-.8-3.8-.8-5.7,0-10.8,0-21.5,0-32.3,1.1.1,1.2.9,1.2,1.8-.1,12.1-.2,24.1-.4,36.2Z"/>
        <path class="cls-5" d="M95.8,150.7c8.7-1.1,17.3-1.9,25.9.4-8.6-.1-17.3-.3-25.9-.4Z"/>
        <path class="cls-4" d="M221.3,25.5c5.2-.2,6.2,1.1,4.4,6.7-1.6-2.4-3-4.4-4.4-6.7Z"/>
        <path class="cls-4" d="M310.8,114.8c.8.2,1.2.8.7,1.4-.6.7-1-.2-1.5-.5.3-.3.5-.6.8-.9Z"/>
        <path class="cls-5" d="M11.8,151c.3-.6.6-.8,1-.1-.3,0-.7,0-1,.1Z"/>
      </g>
    </g>
  </g>
</svg>