<?xml version="1.0" encoding="UTF-8"?>
<svg xmlns="http://www.w3.org/2000/svg" version="1.1" viewBox="0 0 1502.4 992.1">
  <defs>
    <style>
      .cls-1 {
        fill: #fff;
      }
    </style>
  </defs>
  <!-- Generator: Adobe Illustrator 28.7.4, SVG Export Plug-In . SVG Version: 1.2.0 Build 166)  -->
  <g>
    <g id="Calque_1">
      <g id="Calque_1-2" data-name="Calque_1">
        <g>
          <path class="cls-1" d="M434.5,695.8c-1-4.9-1.9-9.9-2-14.9,0-.7,0-1.3-.1-2,0-101.9,0-203.8,0-305.7,0-3,.1-6,.2-9.1.3-6.3.5-12.6.8-18.9.2-2,.4-4,.5-6,.2-1,.4-2,.6-3.1v-2c.4-1,.6-1.9.8-2.9,1.5-4,2.9-8.1,4.4-12.1,5.8-10.2,13.7-18.2,24-23.8,4-1.5,8-2.9,11.9-4.4,1-.3,2-.5,3-.8.7,0,1.4,0,2-.1,1-.2,2-.4,3.1-.6l9.9-.3h14.9c10,0,20,0,30,0,5,0,10,0,15,0,5,0,10,0,14.9,0,10,0,20,0,30,0,5,0,10,0,15,0,5,0,10,0,14.9,0,10,0,20,0,30,0,5,0,10,0,15,0h14.9c5,0,10,0,15,0h15.9c4.4-.1,8.7-.1,13.1-.1,5.6,0,11.2,0,16.9,0,4.4,0,8.7,0,13.1,0,14,0,27.9.2,41.9,0,16.3-.2,32.6-1.2,47.9,6.3,10.2,6,18.6,13.8,24.7,24,2.1,4.8,4.2,9.7,6.2,14.5v.3c0,3.4,1.6,6.6,1.1,10.1-1.6,1.5-.9,3.4-1,5.2,0,15,0,29.9,0,44.9,0,26.7,0,53.5,0,80.2,0,12.5,0,24.9,0,37.4,0,1.7-.7,3.7,1,5.2,0,5.3,0,10.7,0,16-.4.2-.8.3-1.3.5.4.2.8.3,1.3.5v5c-.4.2-.8.3-1.3.5.4.2.8.3,1.3.5v23c-.4.2-.8.3-1.3.5.4.2.8.3,1.3.5v5c-.4.2-.8.3-1.3.5.4.2.8.3,1.3.5v23c-.4.2-.8.3-1.3.5.4.2.8.3,1.3.5v5c-.4.2-.8.3-1.3.5.4.2.8.3,1.3.5v23c-.4.2-.8.3-1.3.5.4.2.8.3,1.3.5v5c-.4.2-.8.3-1.3.5.4.2.8.3,1.3.5v23c-.4.2-.8.3-1.3.5.4.2.8.3,1.3.5v5c-.4.2-.8.3-1.3.5.4.2.8.3,1.3.5v21c-.4.2-.8.3-1.3.5l1.2.5c.5,16-4.7,29.9-15.2,41.9l-.8.8c-8.5,8-18.3,13.3-29.8,15.5-5,.3-10,.7-15,1.1h-30c-21.6,0-43.2,0-64.8,0-39.3,0-78.7,0-118,0-14.9,0-29.9.2-44.8.3-2-.4-4.1-.4-6.1,0-7-.3-14-.4-21,.3-.9,0-1.8,0-2.8,0h-9.3l-2.8.2c-15.8-.7-31.7.9-47.4-2.3v.2c-4.1-1.8-8.3-3.7-12.5-5.5-5-3-9.6-6.5-14-10.3-.3-.3-.6-.7-.9-1-3.6-4.5-7-9-9.7-14-1.4-3.7-2.8-7.3-4.1-11-.1-.6-.2-1.3-.4-1.9h0ZM490.8,686.6c0,1.3-.1,2.9,1.8,1.2,1.3.2,2.7.5,4,.7v.4c.5,2.2,1.5,2.5,3,.8,2.7,0,5.3-.2,8-.2,5.6.4,11.2.4,16.9,0,4.4,0,8.7,0,13.1,0,5.6.4,11.2.4,16.9,0,4.4,0,8.7,0,13.1,0,5.6.4,11.2.4,16.9,0,4.4,0,8.7,0,13.1,0,5.6.4,11.2.4,16.9,0,4.4,0,8.7,0,13.1,0,5.6.4,11.2.4,16.9,0,4.4,0,8.7,0,13.1,0,5.6.4,11.3.4,16.9,0,4.4,0,8.7,0,13.1,0,5.6.4,11.2.4,16.9,0,4.4,0,8.7,0,13.1,0,5.6.4,11.2.4,16.9,0,4.4,0,8.7,0,13.1,0,5.6.4,11.2.4,16.9,0,4.7,0,9.4,0,14.1.2,5.3,0,10.6,0,15.9,0,4.3,0,8.7,0,13.1,0,3.3,0,6.6.1,9.9.2,1.5,1.7,2.5,1.6,3.1-.7,1.3-.7,2.7-1.4,4-2.1,3.7-1.4,6.1-4.1,7.2-7.9,1.5-2.5,1.4-5.4,2-8.1,2.4-.5,2-2.5,1.7-4-.7-4,2-8.4-1.7-12,0-.7-.1-1.3-.2-2h.2c0-.1.2,0,.2,0,2.1-.9,1.4-2.8,1.4-4.3,0-52.1,0-104.2,0-156.3,0-1.5.8-3.5-1.4-4.3-.8-2.6-.7-5.6-3.5-7.1-.3-1.5-.7-2.4-2.1-.7h-28.8c-1.4-1.7-1.8-.7-2.1.7-.1.2-.3.4-.4.6-2,1.1-1.8,3-1.5,4.7.8,4.3,1.9,8.5,2.9,12.7l1.2,11v18.9c-.7,5-1.4,10-2,15-2.4,10.2-5.8,20.2-9.8,29.8-2.2,4.2-4.3,8.5-6.4,12.7-1.6,2.5-3.2,4.9-4.9,7.3-2,2.9-4.1,5.8-6.1,8.7-4.7,5.1-9.4,10.2-14,15.2-3.2,2.6-6.3,5.2-9.5,7.8l-9.4,6.9-3.9,2.3c-5,2.7-10,5.3-15,8-4.9,2-9.7,4-14.6,5.9h-.3c-5,1.2-10.1,2.6-15.1,3.9l-10,1.5c-9.9,1.1-19.9,1.4-29.9,1-1.7-.1-3.4-.3-5-.4l-14.9-2.6c-5-1.4-10.1-2.8-15.1-4.2-1.6-.6-3.3-1.2-4.9-1.8-3.4-1.4-6.7-2.8-10.1-4.2-5-2.8-10-5.5-14.9-8.2-.3-.9-1.1-1-1.9-1.2-4-2.9-8-5.8-12-8.8-2-1.7-4-3.3-6-5-3.4-3.3-6.8-6.6-10.1-9.8-1.5-1.7-3-3.3-4.5-5-3.1-4.1-6.1-8.2-9.2-12.3-.7-1-1.3-1.9-2-2.9-2.8-5.3-5.5-10.6-8.3-15.9-1.5-4-2.9-8.1-4.4-12.1-.5-1.7-1-3.3-1.4-4.9-.8-3.7-1.7-7.3-2.5-10.9-2.5-16.1-3.1-32.2-.2-48.3,1.1-4.1,2.4-8.2,1.4-12.6-.4-2.1-1.9-2.9-3.7-3.4-3.3-1-6.7-.4-10.1-.4-6,0-11.9-.2-17.9-.2-2.9,0-5.7.6-6.8,3.9-1.7,4.6-1.5,9.3-1.1,14v149.9c0,7.7-.6,15.3.7,23-.2,2.9.3,5.6,1.9,8,.7,1.7,1.5,3.3,2.2,5-.2,2.4.9,3.3,3.2,2.8h0c0,0,0,0,0,0ZM755.1,427.7c2.6,1,5.3,1.3,8.1,1.2,1.8.6,3.8-.4,5.6.7-.2.4-.4.7-.6,1.1,1.9.4,3.8,1,5.1-1.1.6.1,1.2.2,1.8.4.1.4.2,1.1.3,1.1.9,0,.5-.7.7-1.1,2.3-.1,4.6-.2,7-.3,3,0,6,0,9,.1,1,.1,2,.2,3,.3.2.4.3.8.5,1.3.2-.4.3-.8.5-1.3,1.7-.5,3.3-.6,5-.1.1.4.2,1.1.3,1.1.9,0,.5-.7.7-1.1.6-.1,1.2-.3,1.8-.4,1.2,1.7,2.3,2.2,3.2-.2.3-.1.7-.3,1-.5,3.5.3,6.9,0,10.2-.8,7.5-1.8,12.6-6,13.7-14.1,1.6-6.6,1-13.3.9-19.9v-15c0-5,0-10,0-14.9,0-5.2.2-10.4-2.7-15-1.1-3.5-3.8-5.5-7-6.9-.9-.7-1.7-1.4-2.9-1.2-.3-.1-.7-.3-1-.4-1.3-.1-2.7-.3-4.1-.4-12.9-1.4-25.8-.5-38.7-.6-5.1,0-10.2-.7-15.3.5-13.3.6-20.3,9.3-19.7,24.2v30c-.2,5.7-.4,11.4.8,17,.2,4.6,1.5,8.8,5.1,11.9,1,1.5,2.2,2.6,3.9,3,.8.7,1.7,1.4,2.9,1.3.3.1.7.3,1,.5h0ZM688.3,431.2c-5.1-2-10.4-3.1-15.9-3.7-4.7-.9-9.3-1.4-14.1-1.1-5.4-.1-10.8.2-16,1.6-5.3.3-10.3,1.8-15.2,4-25.5,9.3-43,26.7-52.6,52.1-2.1,4.8-3.8,9.7-4.1,15-.4,2-.9,4.1-1.3,6.1-1.8.5-1.6,1.2-.2,2-.3,5.6-.6,11.2.5,16.8-.2,0-.4,0-.6-.2-.9-.4-1.5-.3-1.3.8.2,1.4,1,.7,1.6.4.2,1,.5,2,.7,3,.7,5.5,1.6,11,4.3,16,6.9,19.7,19.5,34.7,37.5,45,.7.8,1.5,1.5,2.7,1.7,3.8,2.3,7.8,4.5,12.2,5.4,5.3,2.6,10.9,4,16.7,4.6.6,0,1.3.2,1.9.2.5,0,1,.2,1.4.3,1.8.8,3.7.6,5.6.6h3c.9.6,1.9.6,2.9.1,5.1.3,10.1.2,15.1-1.1,3.8-.2,7.5-.9,11.1-2.4.3-.2.7-.3,1-.5.7-.1,1.3-.2,2-.4,11.9-3.8,22.7-9.4,31.9-17.9,2-1.3,4-2.6,5.3-4.8,9.5-9,16.4-19.7,20.5-32.1,1.5-3.6,2.7-7.2,3.1-11,.4-1.7.8-3.3,1.3-5,2.8-1,2.2-2.4.6-4.1,0-1.3-.1-2.6-.2-3.9,0-4.3.2-8.6.2-13,1.5-1.6,2-3.1-.7-4-.1-1.2-.3-2.3-.4-3.5,0-.3.9-.3.3-.8,0,0-.3.4-.5.6-.2,0-.4-.1-.6-.2-.5-4.9-1.8-9.6-4-14-7.2-19.8-20-34.8-38.5-45.1-.7-.4-1.4-.7-2.1-1.1-4.7-3.1-9.8-5.5-15.3-6.7h0Z"/>
          <path class="cls-1" d="M884,517c-1.6-1.5-.9-3.4-1-5.2,0-12.5,0-24.9,0-37.4,0-26.7,0-53.5,0-80.2,0-15,0-29.9,0-44.9,0-1.7-.7-3.7,1-5.2,1.6,8.2.6,16.5.7,24.8,0,14.4-.4,28.8-.3,43.2,0,20.1,0,40.2.2,60.2.2,13.4,0,26.8.2,40.2,0,1.5.2,3-.7,4.3h0Z"/>
          <path class="cls-1" d="M883.9,540c-.4-.2-.8-.3-1.3-.5.4-.2.8-.3,1.3-.5v1Z"/>
          <path class="cls-1" d="M883.9,534c-.4-.2-.8-.3-1.3-.5.4-.2.8-.3,1.3-.5v1Z"/>
          <path class="cls-1" d="M883.9,599.9c-.4-.2-.8-.3-1.3-.5.4-.2.8-.3,1.3-.5v1Z"/>
          <path class="cls-1" d="M883.9,653.9c-.4-.2-.8-.3-1.3-.5.4-.2.8-.3,1.3-.5v1Z"/>
          <path class="cls-1" d="M883.9,629.9c-.4-.2-.8-.3-1.3-.5.4-.2.8-.3,1.3-.5v1Z"/>
          <path class="cls-1" d="M883.9,623.9c-.4-.2-.8-.3-1.3-.5.4-.2.8-.3,1.3-.5v1Z"/>
          <path class="cls-1" d="M883.9,681.9l-1.2-.5c.4-.2.8-.3,1.3-.5,0,.3,0,.7,0,1Z"/>
          <path class="cls-1" d="M883.9,659.9c-.4-.2-.8-.3-1.3-.5.4-.2.8-.3,1.3-.5v1Z"/>
          <path class="cls-1" d="M883.9,570c-.4-.2-.8-.3-1.3-.5.4-.2.8-.3,1.3-.5v1Z"/>
          <path class="cls-1" d="M883.9,593.9c-.4-.2-.8-.3-1.3-.5.4-.2.8-.3,1.3-.5v1Z"/>
          <path class="cls-1" d="M883.9,564c-.4-.2-.8-.3-1.3-.5.4-.2.8-.3,1.3-.5v1Z"/>
          <path class="cls-1" d="M432.3,678.9c0,.7,0,1.3.1,2-.4-.2-.8-.4-1.2-.6l1.1-1.5h0Z"/>
          <path class="cls-1" d="M833.6,653c0-.7-.2-1.3-.2-2,0-53.7,0-107.3,0-161,0-.7.1-1.3.2-2,2.2.8,1.4,2.8,1.4,4.3,0,52.1,0,104.2,0,156.3,0,1.5.7,3.4-1.4,4.3h0Z"/>
          <path class="cls-1" d="M439,708.8c-1.8,0-3.5,0-5.3,0,.5-3.7-1.2-7.6,1.2-11.1,1.4,3.7,2.8,7.3,4.1,11h0Z"/>
          <path class="cls-1" d="M833.3,670.9c-.1-2.3-.2-4.6-.3-7,.1-3,.2-6,.4-9,3.7,3.5,1,8,1.7,12,.2,1.5.7,3.5-1.7,4h0Z"/>
          <path class="cls-1" d="M749.4,527c.2-1.4-.3-2.8.6-4.1,1.6,1.6,2.1,3.1-.6,4.1Z"/>
          <path class="cls-1" d="M750.1,506.1c-.8-1.2-.8-2.6-.7-4,2.7.9,2.2,2.4.7,4Z"/>
          <path class="cls-1" d="M480.6,290c.6-2.3,1.6-2.3,3.1-.6-1,.2-2,.4-3.1.6Z"/>
          <path class="cls-1" d="M433.8,339.3c-1.7-1.4-1.7-2.5.6-3.1-.2,1-.4,2-.6,3.1Z"/>
          <path class="cls-1" d="M803.9,429.6l3.2-.2c-.9,2.4-2,2-3.2.2Z"/>
          <path class="cls-1" d="M768.8,429.7h4.5c-1.3,2.1-3.3,1.5-5.1,1.1.2-.4.4-.7.6-1.1h0Z"/>
          <path class="cls-1" d="M496.5,689l3.1.8c-1.5,1.8-2.5,1.4-3.1-.8Z"/>
          <path class="cls-1" d="M487.6,683.9c1.1.9,2.2,1.9,3.2,2.8-2.3.5-3.4-.4-3.2-2.8Z"/>
          <path class="cls-1" d="M817,689.7c1-.2,2-.5,3.1-.7-.6,2.3-1.6,2.4-3.1.7Z"/>
          <path class="cls-1" d="M568.8,523.8l.3,1.2c-.6.3-1.4,1-1.6-.4-.1-1.2.5-1.3,1.3-.8h0Z"/>
          <path class="cls-1" d="M830.1,480.9l-2.1-.7c1.4-1.7,1.8-.7,2.1.7Z"/>
          <path class="cls-1" d="M799.2,480.2c-.7.2-1.4.5-2.1.7.3-1.4.7-2.4,2.1-.7Z"/>
          <path class="cls-1" d="M490.8,686.6c.6.4,1.2.8,1.8,1.2-2,1.7-1.8,0-1.8-1.2Z"/>
          <path class="cls-1" d="M652.3,602c1-1.4,2-1.4,3,0h-3Z"/>
          <path class="cls-1" d="M645.3,601.1c.4-.7,1.1-1.4,1.8-1,.9.5,0,.9-.4,1.2-.5,0-1-.2-1.4-.3h0Z"/>
          <path class="cls-1" d="M795.2,430.2h1c-.2.4-.3.8-.5,1.3-.2-.4-.3-.8-.5-1.3Z"/>
          <path class="cls-1" d="M801.1,430h1c-.1.5.2,1.2-.7,1.1-.2,0-.2-.8-.3-1.1h0Z"/>
          <path class="cls-1" d="M569.1,505.1c0,.7-.1,1.4-.2,2-1.4-.8-1.6-1.5.2-2Z"/>
          <path class="cls-1" d="M775.2,430.1h1c-.1.5.2,1.2-.7,1.1-.2,0-.2-.7-.3-1.1h0Z"/>
          <path class="cls-1" d="M820.2,341c-.9,1-.8.1-1-.4.3.1.7.3,1,.4Z"/>
          <path class="cls-1" d="M684.4,598.6c.1-.5.1-1.5,1-.5-.3.2-.7.3-1,.5Z"/>
          <path class="cls-1" d="M754.1,427.3c.9-1,.8-.1,1,.5-.3-.1-.7-.3-1-.5Z"/>
          <path class="cls-1" d="M748.7,498.3c.2-.2.5-.6.5-.6.7.5-.2.5-.3.8l-.2-.2h0Z"/>
        </g>
      </g>
    </g>
  </g>
</svg>