<?xml version="1.0" encoding="UTF-8"?>
<svg xmlns="http://www.w3.org/2000/svg" version="1.1" viewBox="0 0 225 225">
  <defs>
    <style>
      .cls-1 {
        fill: #e8eef7;
      }

      .cls-2 {
        fill: #2372c3;
      }

      .cls-3 {
        fill: #1d70c3;
      }

      .cls-4 {
        fill: #096bc0;
      }

      .cls-5 {
        fill: #126dc1;
      }

      .cls-6 {
        fill: #3178c5;
      }

      .cls-7 {
        fill: #fcfcfd;
      }

      .cls-8 {
        fill: #166ec2;
      }

      .cls-9 {
        fill: #1c6fc2;
      }

      .cls-10 {
        fill: #076bc0;
      }

      .cls-11 {
        fill: #fcfdfd;
      }
    </style>
  </defs>
  <!-- Generator: Adobe Illustrator 28.7.4, SVG Export Plug-In . SVG Version: 1.2.0 Build 166)  -->
  <g>
    <g id="Calque_1">
      <g>
        <path class="cls-6" d="M0,218V7C1.1,3.4,3.5,1.1,7,0h211c3.5,1.1,5.9,3.4,7,7v211c-1.1,3.6-3.5,5.9-7,7H7C3.5,223.9,1.1,221.6,0,218ZM124.9,119.8c0-6.2,0-12.4,0-18.6-1.5-1.4-3.4-1.1-5.2-1.1-23,0-45.9,0-68.9,0-1.7,0-3.3-.1-4.8.9-.4.4-.8.7-1.1,1.1-1.4,5.6-1.5,11.3,0,16.9,1.3,1.5,3.1.8,4.7.8,7.5.1,14.9.2,22.4.2l1.3,1.1c.1,2,.3,4,.3,5.9,0,23,0,46.1,0,69.1,0,2,.3,3.9.4,5.9,7.3,1.6,14.7,1.6,22,0,.1-17.8.2-35.5.3-53.3,0-9.3.2-18.6.3-27.8.4-.3.9-.6,1.3-.9,8.7,0,17.3,0,26,0,.3,0,.6-.2.9-.2ZM133.9,199c1.2,1.8,3.3,2.3,5.1,2.8,14.3,4.1,28.8,5.5,43.3,1,18.6-5.8,23.8-20.8,19.4-36.9-2.4-8.8-9.6-13.7-17.2-17.7-6.6-3.5-13.9-5.6-20.2-9.7-4-2.5-7.4-5.6-6.2-10.9,1-4.9,5.1-6.7,9.5-7.7,9.5-2.2,18.4-.1,27.1,3.8,1.4.6,2.5,2.4,4.4,1.3,1.4-6.7,1.8-13.3-.3-19.9-7.3-2.8-15.1-3.4-22.8-4.1-1.7-1.2-3.3-1.2-5,0-7.9,1-15.8,1.9-23,5.9-17,9.5-19.5,32.2-4.9,45.1,4.5,4,9.9,6.6,15.4,9,4.7,2,9.6,3.8,13.9,6.7,5.5,3.6,7.7,7.5,6.4,11.8-1.5,5.2-6,7-10.7,7.6-10.5,1.4-20.5-.6-29.5-6.4-1.4-.9-2.5-2.8-4.6-2.5-1.6,7-1.5,14,0,21Z"/>
        <path class="cls-1" d="M7,0C3.5,1.1,1.1,3.4,0,7Q0,0,7,0Z"/>
        <path class="cls-1" d="M225,7c-1.1-3.6-3.5-5.9-7-7q7,0,7,7Z"/>
        <path class="cls-1" d="M0,218c1.1,3.6,3.5,5.9,7,7Q0,225,0,218Z"/>
        <path class="cls-1" d="M218,225c3.5-1.1,5.9-3.4,7-7q0,7-7,7Z"/>
        <path class="cls-7" d="M176,101c7.7.7,15.4,1.3,22.8,4.1,0,6.6.2,13.3.3,19.9-1.9,1.2-3-.7-4.4-1.3-8.7-3.9-17.6-5.9-27.1-3.8-4.4,1-8.4,2.7-9.5,7.7-1.1,5.3,2.3,8.3,6.2,10.9,6.3,4,13.6,6.2,20.2,9.7,7.7,4.1,14.8,8.9,17.2,17.7,4.4,16.1-.8,31.1-19.4,36.9-14.5,4.5-29,3.1-43.3-1-1.8-.5-3.9-1-5.1-2.8,0-7,0-14,0-21,2.1-.3,3.2,1.6,4.6,2.5,9.1,5.8,19,7.8,29.5,6.4,4.7-.6,9.2-2.3,10.7-7.6,1.3-4.3-1-8.2-6.4-11.8-4.3-2.8-9.1-4.7-13.9-6.7-5.5-2.3-10.9-4.9-15.4-9-14.6-12.9-12.1-35.6,4.9-45.1,7.2-4,15.1-4.9,23-5.9,1.7,0,3.3,0,5,0Z"/>
        <path class="cls-11" d="M96.7,120.9c-.1,9.3-.3,18.6-.3,27.8-.1,17.8-.2,35.5-.3,53.3-7.3,0-14.7,0-22,0-.2-2-.4-3.9-.4-5.9,0-23,0-46.1,0-69.1,0-2-.2-4-.3-5.9,0-.9-.5-1.1-1.3-1.1-7.5,0-14.9,0-22.4-.2-1.6,0-3.3.7-4.7-.8,0-5.6,0-11.3,0-16.9.4-.4.8-.7,1.1-1.1,26.3,0,52.6.2,78.9.2,0,6.2,0,12.4,0,18.6-.3,0-.6.1-.9.2-8.7,0-17.3,0-26,0-.7,0-1.2,0-1.3.9Z"/>
        <path class="cls-8" d="M125,101.2c-26.3,0-52.6-.2-78.9-.2,1.5-1,3.2-.9,4.8-.9,23,0,45.9,0,68.9,0,1.8,0,3.7-.2,5.2,1.1Z"/>
        <path class="cls-10" d="M74,202c7.3,0,14.7,0,22,0-7.3,1.6-14.7,1.6-22,0Z"/>
        <path class="cls-5" d="M134,178c0,7,0,14,0,21-1.4-7-1.5-14,0-21Z"/>
        <path class="cls-8" d="M199,125c0-6.6-.2-13.3-.3-19.9,2.1,6.6,1.7,13.3.3,19.9Z"/>
        <path class="cls-4" d="M44.9,102c0,5.6,0,11.3,0,16.9-1.5-5.6-1.4-11.3,0-16.9Z"/>
        <path class="cls-3" d="M176,101c-1.7,0-3.3,0-5,0,1.7-1.2,3.3-1.2,5,0Z"/>
        <path class="cls-2" d="M72,120c.8,0,1.3.1,1.3,1.1-.4-.4-.8-.7-1.3-1.1Z"/>
        <path class="cls-9" d="M96.7,120.9c.1-.8.6-1,1.3-.9-.4.3-.9.6-1.3.9Z"/>
        <path class="cls-9" d="M124,120c.3-.1.6-.2.9-.2-.3,0-.6.2-.9.2Z"/>
      </g>
    </g>
  </g>
</svg>