<?xml version="1.0" encoding="UTF-8"?>
<svg id="Calque_1" xmlns="http://www.w3.org/2000/svg" version="1.1" viewBox="0 0 1920 717">
  <!-- Generator: Adobe Illustrator 29.3.0, SVG Export Plug-In . SVG Version: 2.1.0 Build 146)  -->
  <defs>
    <style>
      .st0 {
        fill: #00abd6;
      }
    </style>
  </defs>
  <path class="st0" d="M0,302v-4l21.31-26.69,8.17-3.34,427.08-.03c3.34-.2,5.34,1.08,5.53,4.55.13,2.44-6.42,22.59-7.88,25.22s-3.54,4.19-6.69,4.31c-37.02.22-74.05-.35-111.06-.06-109.21.83-221.94,4.36-331.01,1.08-1.9-.06-3.79.09-5.45-1.04Z"/>
  <path class="st0" d="M168.73,182.23l339.26.28c4.32,2.01-1.91,9.65-3.57,12.41-3.76,6.25-12.81,21.83-19.97,23.03-114.02.63-227.85-.57-341.79-1.1-3.1-1.5-1.23-3.68-.08-5.77,1.98-3.57,18.68-24.62,21.49-26.51,1.45-.97,2.98-1.81,4.66-2.34Z"/>
  <path class="st0" d="M247.73,354.23l189.75-.2c2.12.39,4.1,2.36,4.5,4.5-.2,7.53-.04,16.5-1.06,23.88-.61,4.4-2.69,7.35-7.39,7.61-68.43.57-136.67-.83-205.02-1.02-4.25-.82-2.26-4.28-1.04-7.04,1.96-4.46,12.43-23.05,15.6-25.39,1.38-1.02,3.05-1.76,4.67-2.33Z"/>
  <path class="st0" d="M953,0l38.04,5.46c84.4,17.41,159.32,70.07,202.13,144.87,4.72,8.24,16.19,28.41,18.35,36.64,1.42,5.38.32,7.88-4.17,10.89-58.37,16.05-117.01,31.69-175.84,46.21-2.89-.13-5.35-1.85-7.53-3.54-11.17-8.61-20.38-23.51-33.06-32.94-92.16-68.53-224.16-3.82-266.09,91.74-50.31,114.66,11.58,244.38,145.72,236.72,63.87-3.65,113.72-44.41,146.45-96.55l-179.53-.46c-19.71-1.43-24.15-10.85-17.94-29.02,9.18-26.89,29.16-67.7,42.96-93.04,7.11-13.05,11.41-22.71,27.99-24.01l301.44-.07c16.02-52.37,46.16-101.47,81.58-142.91,77.86-91.08,189.68-137.02,309.02-141.98,157.07-6.53,304.76,93.07,332.17,251.8l5.31,39.19v59c-2.7,11.78-3.36,24.05-5.48,36.02-29.2,165.57-185.74,296.19-349.17,317.83-11.9,1.58-23.9,2.1-35.85,3.15-3.79.33-8.93.9-12.51,1.99h-39c.56-3.17-1.59-1.78-3.49-1.97-107.19-10.66-205.84-65.66-259.68-160.36-11.58-20.37-19.38-41.68-27.33-63.67-62.74,121.86-176.05,206.7-314.12,221.87-186.13,20.45-349.09-97.88-363.37-288.39C493.85,208.82,685.46,11.54,897.4.91l1.6-.91h54ZM1564.8,180.3c-92.25,6.51-164.74,70.08-187.51,158.49-35.63,138.34,98.15,239.48,225.07,184.07,68.24-29.79,116.91-87.81,127.5-162.5,14.25-100.5-62.73-187.28-165.06-180.06Z"/>
</svg>