<?xml version="1.0" encoding="UTF-8"?>
<svg xmlns="http://www.w3.org/2000/svg" version="1.1" viewBox="0 0 1502.36 992.13">
  <defs>
    <style>
      .cls-1 {
        fill: #e5e5e5;
      }

      .cls-2 {
        fill: #211d1e;
      }

      .cls-3 {
        fill: #fbfbfb;
      }

      .cls-4 {
        fill: #5f82a9;
      }

      .cls-5 {
        fill: #fefefe;
      }
    </style>
  </defs>
  <!-- Generator: Adobe Illustrator 28.7.4, SVG Export Plug-In . SVG Version: 1.2.0 Build 166)  -->
  <g>
    <g id="Calque_1">
      <g>
        <path class="cls-4" d="M287.92,693.2c-1.05-4.93-1.89-9.88-2.05-14.93-.04-.67-.07-1.35-.11-2.02,0-101.9,0-203.8-.01-305.69.06-3.02.12-6.04.18-9.06.27-6.3.54-12.6.8-18.89.18-1.99.36-3.98.54-5.97.21-1.02.42-2.04.63-3.06l.15-2.04c.22-.96.45-1.91.67-2.87,1.46-4.04,2.92-8.07,4.37-12.11,5.77-10.21,13.71-18.22,24.05-23.81,3.98-1.47,7.95-2.93,11.93-4.4.99-.28,1.97-.55,2.96-.83.68-.04,1.36-.09,2.03-.13,1.02-.22,2.04-.43,3.06-.65l9.92-.33,14.94-.02c9.99.01,19.97.03,29.96.04,5,0,10.01-.01,15.01-.02,4.98,0,9.96-.02,14.94-.02,9.99.01,19.97.03,29.96.04,5,0,10.01-.01,15.01-.02,4.98,0,9.96-.02,14.94-.02,9.99.01,19.97.03,29.96.04,5,0,10.01-.01,15.01-.02,4.98,0,9.95,0,14.93,0,5.01-.03,10.03-.05,15.04-.08l15.89-.13c4.36,0,8.72.02,13.08.03,5.63,0,11.25-.02,16.88-.03,4.36,0,8.72.02,13.08.03,13.96.04,27.92.25,41.87.09,16.29-.18,32.64-1.2,47.91,6.27,10.16,6.03,18.64,13.79,24.68,24.05,2.07,4.84,4.15,9.68,6.22,14.52l-.12.31c.04,3.4,1.76,6.59,1.2,10.06-1.62,1.48-.94,3.43-.95,5.17-.05,14.97-.04,29.94-.03,44.92.02,26.73.07,53.46.08,80.19,0,12.46-.08,24.91-.06,37.37,0,1.74-.68,3.69.95,5.17-.02,5.34-.04,10.67-.06,16.01-.42.16-.84.33-1.26.49.42.16.84.33,1.26.49v5.01c-.42.16-.84.33-1.26.49.42.16.84.33,1.26.49v23c-.42.16-.84.33-1.26.49.42.16.84.33,1.26.49v5.01c-.42.16-.84.33-1.26.49.42.16.84.33,1.26.49v23c-.42.16-.84.33-1.26.49.42.16.84.33,1.26.49v5.01c-.42.16-.84.33-1.26.49.42.16.84.33,1.26.49v23c-.42.16-.84.33-1.26.49.42.16.84.33,1.26.49v5.01c-.42.16-.84.33-1.26.49.42.16.84.33,1.26.49v23c-.42.16-.84.33-1.26.49.42.16.84.33,1.26.49v5.01c-.42.16-.84.33-1.26.49.42.16.84.33,1.26.49v21c-.42.16-.84.31-1.26.47l1.23.51c.53,15.99-4.73,29.88-15.18,41.88-.26.26-.51.51-.77.77-8.45,8.04-18.34,13.32-29.84,15.49-5.01.35-10.03.71-15.04,1.06h-29.95c-21.58-.02-43.16-.05-64.75-.05-39.35,0-78.7-.02-118.04.03-14.93.02-29.86.2-44.78.3-2.05-.42-4.1-.42-6.15,0-7-.29-13.99-.42-20.97.31-.92-.03-1.84-.06-2.76-.09-3.1,0-6.21,0-9.31,0-.94.07-1.88.14-2.82.21-15.8-.65-31.71.92-47.38-2.35,0,0,.08.2.08.2-4.2-1.84-8.4-3.68-12.61-5.52-4.97-3.01-9.59-6.48-14-10.26-.31-.35-.61-.7-.92-1.04-3.57-4.46-6.96-9.03-9.74-14.04-1.38-3.66-2.77-7.33-4.15-10.99-.12-.64-.24-1.28-.35-1.93ZM344.2,683.97c.05,1.27-.13,2.89,1.84,1.2,1.34.25,2.69.49,4.03.74l-.09.42c.55,2.16,1.55,2.53,3.09.78,2.66-.08,5.32-.16,7.99-.25,5.62.42,11.25.41,16.87.03,4.36,0,8.72-.02,13.08-.03,5.62.42,11.25.41,16.88.03,4.36,0,8.72-.02,13.08-.03,5.62.42,11.25.41,16.87.03,4.36,0,8.72-.02,13.08-.03,5.62.42,11.25.41,16.88.03,4.36,0,8.72-.02,13.08-.03,5.62.42,11.25.41,16.87.03,4.36,0,8.72-.02,13.08-.03,5.62.42,11.25.41,16.87.03,4.36,0,8.72-.02,13.08-.03,5.62.42,11.25.41,16.88.03,4.36,0,8.72-.02,13.08-.03,5.62.42,11.25.41,16.87.03,4.36,0,8.72-.02,13.08-.03,5.62.42,11.25.41,16.87.03,4.69.05,9.37.1,14.06.15,5.3-.02,10.61-.03,15.91-.05,4.35-.03,8.7-.07,13.06-.1,3.29.05,6.57.11,9.86.16,1.45,1.72,2.5,1.61,3.07-.67,1.34-.71,2.67-1.43,4.01-2.14,3.73-1.42,6.1-4.07,7.16-7.91,1.46-2.5,1.42-5.38,2.02-8.09,2.44-.5,1.99-2.53,1.74-3.97-.7-3.98,1.97-8.44-1.7-11.97-.06-.66-.12-1.32-.18-1.98l.25-.12.23.15c2.11-.9,1.44-2.79,1.44-4.35.03-52.09.03-104.18,0-156.26,0-1.51.81-3.46-1.43-4.29-.75-2.59-.69-5.58-3.54-7.12-.26-1.46-.7-2.41-2.06-.73-9.6,0-19.2,0-28.8,0-1.38-1.7-1.81-.68-2.1.74-.14.2-.27.4-.39.6-2.02,1.09-1.79,3.02-1.46,4.72.85,4.27,1.93,8.5,2.91,12.74l1.18,11.03c0,6.31,0,12.61,0,18.92-.68,5.02-1.36,10.03-2.05,15.05-2.36,10.25-5.75,20.16-9.84,29.84-2.15,4.25-4.29,8.49-6.44,12.74-1.62,2.45-3.25,4.9-4.87,7.35-2.05,2.88-4.09,5.77-6.14,8.65-4.68,5.08-9.36,10.16-14.04,15.24-3.15,2.61-6.3,5.23-9.45,7.84l-9.42,6.94-3.89,2.29c-5,2.65-9.99,5.3-14.99,7.95-4.87,1.98-9.73,3.96-14.6,5.93,0,0-.32-.12-.32-.12-5.04,1.35-10.07,2.7-15.11,4.05l-9.95,1.53c-9.93,1.1-19.89,1.38-29.86,1-1.68-.14-3.35-.27-5.03-.41l-14.89-2.57c-5.04-1.4-10.07-2.8-15.11-4.2-1.63-.6-3.27-1.21-4.9-1.81-3.36-1.41-6.71-2.83-10.07-4.24-4.97-2.75-9.95-5.49-14.92-8.24-.29-.92-1.12-.97-1.86-1.17-4.02-2.92-8.03-5.83-12.05-8.75-2-1.65-4-3.31-6-4.96-3.37-3.28-6.75-6.56-10.12-9.83-1.49-1.65-2.99-3.31-4.48-4.96-3.06-4.11-6.12-8.22-9.17-12.34-.66-.97-1.31-1.93-1.97-2.9-2.77-5.3-5.54-10.6-8.31-15.9-1.46-4.04-2.92-8.09-4.38-12.13-.48-1.65-.96-3.3-1.44-4.94-.84-3.65-1.68-7.29-2.52-10.94-2.55-16.1-3.12-32.21-.21-48.33,1.13-4.13,2.37-8.25,1.38-12.61-.37-2.06-1.91-2.85-3.68-3.36-3.34-.96-6.73-.44-10.1-.35-5.96-.07-11.92-.23-17.88-.17-2.87.03-5.67.58-6.77,3.88-1.72,4.58-1.47,9.3-1.08,14.04v149.87c-.09,7.66-.61,15.34.71,22.96-.19,2.86.31,5.57,1.85,8.03.73,1.65,1.46,3.31,2.19,4.96-.16,2.37.91,3.32,3.24,2.79l-.07-.07ZM608.56,425.08c2.6,1.02,5.31,1.3,8.08,1.21,1.82.58,3.85-.38,5.6.74-.2.36-.4.73-.6,1.09,1.87.4,3.79.98,5.14-1.08.61.13,1.21.25,1.82.38.11.4.2,1.13.34,1.14.86.07.54-.68.66-1.14,2.32-.1,4.64-.2,6.96-.31,3.02.03,6.03.07,9.05.1.99.11,1.98.22,2.97.33.16.42.33.84.49,1.26.16-.42.33-.84.49-1.26,1.65-.51,3.32-.59,5-.15.11.4.2,1.14.35,1.15.87.07.54-.69.67-1.15.59-.13,1.18-.27,1.78-.4,1.18,1.74,2.27,2.22,3.18-.2.34-.15.67-.31,1.01-.46,3.46.34,6.87,0,10.24-.81,7.5-1.81,12.6-5.99,13.66-14.08,1.6-6.58,1.02-13.27.93-19.94,0-5.01,0-10.02,0-15.03-.03-4.98-.05-9.95-.08-14.93,0-5.17.22-10.39-2.71-15.03-1.12-3.55-3.84-5.47-7.02-6.93-.87-.68-1.73-1.37-2.94-1.24-.32-.15-.65-.29-.97-.44-1.35-.14-2.71-.29-4.06-.43-12.89-1.37-25.81-.48-38.71-.58-5.1-.04-10.25-.66-15.32.46-13.31.65-20.35,9.28-19.72,24.18,0,4.98,0,9.96,0,14.94,0,5.01,0,10.02,0,15.03-.23,5.68-.39,11.36.79,16.98.2,4.6,1.45,8.75,5.1,11.86.95,1.48,2.19,2.56,3.92,3.01.85.74,1.72,1.42,2.94,1.28.33.15.66.3.98.45ZM541.72,428.55c-5.12-2.01-10.44-3.11-15.89-3.72-4.65-.94-9.34-1.4-14.09-1.13-5.41-.13-10.77.21-16.03,1.59-5.32.33-10.33,1.8-15.16,3.99-25.53,9.29-43.03,26.7-52.6,52.12-2.06,4.8-3.78,9.71-4.1,14.99-.44,2.04-.88,4.08-1.32,6.12-1.78.53-1.57,1.23-.18,2.04-.3,5.62-.57,11.23.5,16.81-.21,0-.4-.06-.57-.18-.88-.43-1.5-.34-1.34.83.18,1.4.97.66,1.6.39.25,1.02.49,2.04.74,3.05.69,5.55,1.62,11.03,4.34,16.03,6.86,19.74,19.48,34.66,37.55,45.04.7.85,1.54,1.49,2.67,1.67,3.84,2.35,7.75,4.55,12.24,5.44,5.27,2.64,10.9,3.98,16.72,4.62.65.08,1.29.15,1.94.23.48.1.96.19,1.44.29,1.8.83,3.71.61,5.6.58h3.03c.94.63,1.91.62,2.9.13,5.07.3,10.12.22,15.07-1.12,3.82-.18,7.54-.87,11.06-2.42.33-.15.65-.3.98-.45.65-.12,1.3-.24,1.95-.36,11.86-3.76,22.67-9.41,31.88-17.89,2.04-1.27,4.01-2.63,5.27-4.77,9.52-8.98,16.37-19.68,20.55-32.09,1.49-3.56,2.66-7.2,3.09-11.05.42-1.66.84-3.32,1.27-4.98,2.77-.95,2.2-2.43.64-4.06-.06-1.29-.12-2.58-.18-3.88.08-4.32.16-8.65.24-12.97,1.49-1.64,1.99-3.11-.69-4.03-.14-1.16-.28-2.33-.42-3.5.04-.31.94-.31.29-.84-.01,0-.35.39-.53.6-.2-.04-.39-.1-.57-.2-.49-4.93-1.78-9.63-4.05-14.05-7.19-19.83-20.04-34.83-38.46-45.07-.7-.36-1.41-.71-2.11-1.07-4.73-3.07-9.75-5.47-15.28-6.73Z"/>
        <path class="cls-2" d="M737.44,514.37c-1.62-1.48-.94-3.43-.95-5.17-.03-12.46.06-24.91.06-37.37-.01-26.73-.06-53.46-.08-80.19-.01-14.97-.03-29.94.03-44.92,0-1.74-.68-3.69.95-5.17,1.56,8.23.62,16.54.67,24.81.08,14.39-.39,28.79-.33,43.19.08,20.08-.09,40.16.23,60.24.21,13.4.02,26.83.16,40.25.01,1.48.21,3.01-.73,4.33Z"/>
        <path class="cls-2" d="M737.37,537.35c-.42-.16-.84-.33-1.26-.49.42-.16.84-.33,1.26-.49v.98Z"/>
        <path class="cls-2" d="M737.37,531.36c-.42-.16-.84-.33-1.26-.49.42-.16.84-.33,1.26-.49v.98Z"/>
        <path class="cls-2" d="M737.37,597.3c-.42-.16-.84-.33-1.26-.49.42-.16.84-.33,1.26-.49v.98Z"/>
        <path class="cls-2" d="M737.37,651.25c-.42-.16-.84-.33-1.26-.49.42-.16.84-.33,1.26-.49v.98Z"/>
        <path class="cls-2" d="M737.37,627.27c-.42-.16-.84-.33-1.26-.49.42-.16.84-.33,1.26-.49v.98Z"/>
        <path class="cls-2" d="M737.37,621.28c-.42-.16-.84-.33-1.26-.49.42-.16.84-.33,1.26-.49v.98Z"/>
        <path class="cls-2" d="M737.34,679.22l-1.23-.51c.42-.16.84-.31,1.26-.47,0,.33-.02.65-.03.98Z"/>
        <path class="cls-2" d="M737.37,657.24c-.42-.16-.84-.33-1.26-.49.42-.16.84-.33,1.26-.49v.98Z"/>
        <path class="cls-2" d="M737.37,567.32c-.42-.16-.84-.33-1.26-.49.42-.16.84-.33,1.26-.49v.98Z"/>
        <path class="cls-2" d="M737.37,591.3c-.42-.16-.84-.33-1.26-.49.42-.16.84-.33,1.26-.49v.98Z"/>
        <path class="cls-2" d="M737.37,561.33c-.42-.16-.84-.33-1.26-.49.42-.16.84-.33,1.26-.49v.98Z"/>
        <path class="cls-1" d="M285.75,676.25c.04.67.07,1.35.11,2.02-.41-.19-.82-.37-1.23-.56l1.12-1.46Z"/>
        <path class="cls-2" d="M687.07,650.34c-.08-.66-.22-1.31-.22-1.97-.01-53.65-.01-107.31,0-160.96,0-.66.14-1.31.22-1.97,2.24.83,1.43,2.78,1.43,4.29.04,52.09.04,104.18,0,156.26,0,1.55.67,3.44-1.44,4.35Z"/>
        <path class="cls-3" d="M292.42,706.12c-1.78.03-3.55.07-5.33.1.54-3.68-1.23-7.61,1.18-11.1,1.38,3.66,2.77,7.33,4.15,10.99Z"/>
        <path class="cls-2" d="M686.73,668.23c-.11-2.32-.22-4.64-.33-6.96.12-3,.25-5.99.37-8.99,3.66,3.53,1,7.99,1.7,11.97.25,1.45.7,3.48-1.74,3.97Z"/>
        <path class="cls-2" d="M602.83,524.35c.17-1.36-.26-2.82.64-4.06,1.56,1.63,2.13,3.11-.64,4.06Z"/>
        <path class="cls-2" d="M603.53,503.45c-.8-1.25-.78-2.63-.69-4.03,2.68.92,2.18,2.39.69,4.03Z"/>
        <path class="cls-5" d="M334.06,287.39c.58-2.29,1.64-2.32,3.06-.65-1.02.22-2.04.43-3.06.65Z"/>
        <path class="cls-5" d="M287.27,336.62c-1.67-1.41-1.66-2.47.63-3.06-.21,1.02-.42,2.04-.63,3.06Z"/>
        <path class="cls-2" d="M657.36,427l3.18-.2c-.91,2.43-2.01,1.95-3.18.2Z"/>
        <path class="cls-2" d="M622.25,427.04c1.51,0,3.03,0,4.54,0-1.35,2.07-3.27,1.49-5.14,1.08.2-.36.4-.73.6-1.09Z"/>
        <path class="cls-2" d="M349.97,686.33c1.03.26,2.06.52,3.09.78-1.53,1.75-2.53,1.38-3.09-.78Z"/>
        <path class="cls-2" d="M341.03,681.25c1.08.93,2.16,1.86,3.24,2.79-2.33.53-3.4-.41-3.24-2.79Z"/>
        <path class="cls-2" d="M670.47,687.05c1.02-.22,2.04-.45,3.07-.67-.57,2.28-1.62,2.4-3.07.67Z"/>
        <path class="cls-2" d="M422.28,521.18l.26,1.22c-.63.27-1.42,1.01-1.6-.39-.15-1.17.46-1.26,1.34-.83Z"/>
        <path class="cls-2" d="M683.53,478.31l-2.06-.73c1.37-1.69,1.8-.73,2.06.73Z"/>
        <path class="cls-2" d="M652.66,477.59c-.7.25-1.4.49-2.1.74.29-1.42.72-2.44,2.1-.74Z"/>
        <path class="cls-2" d="M344.2,683.97c.61.4,1.23.8,1.84,1.2-1.98,1.69-1.79.07-1.84-1.2Z"/>
        <path class="cls-5" d="M505.77,599.35c1.01-1.36,2.02-1.36,3.03,0h-3.03Z"/>
        <path class="cls-5" d="M498.73,598.48c.4-.74,1.06-1.39,1.84-.95.91.53-.05.88-.39,1.24-.48-.1-.96-.19-1.44-.29Z"/>
        <path class="cls-2" d="M648.6,427.55h.98c-.16.42-.33.84-.49,1.26-.16-.42-.33-.84-.49-1.26Z"/>
        <path class="cls-2" d="M654.57,427.4h1.01c-.12.46.2,1.23-.67,1.15-.15-.01-.23-.75-.35-1.15Z"/>
        <path class="cls-2" d="M422.54,502.51c-.06.68-.12,1.36-.18,2.04-1.39-.81-1.6-1.51.18-2.04Z"/>
        <path class="cls-2" d="M628.61,427.42h1.01c-.12.46.2,1.22-.66,1.14-.15-.01-.23-.74-.34-1.14Z"/>
        <path class="cls-3" d="M673.61,338.35c-.86,1.04-.84.13-.97-.44.32.15.65.29.97.44Z"/>
        <path class="cls-5" d="M537.83,595.93c.14-.55.12-1.47.98-.45-.33.15-.65.3-.98.45Z"/>
        <path class="cls-5" d="M607.58,424.64c.87-1.03.84-.1.98.45-.33-.15-.66-.3-.98-.45Z"/>
        <path class="cls-2" d="M602.18,495.68c.18-.21.52-.6.53-.6.65.52-.25.53-.3.84,0,0-.24-.24-.24-.24Z"/>
      </g>
    </g>
  </g>
</svg>