<?xml version="1.0" encoding="UTF-8"?>
<svg id="Calque_1" xmlns="http://www.w3.org/2000/svg" version="1.1" viewBox="0 0 212 238">
  <!-- Generator: Adobe Illustrator 29.3.0, SVG Export Plug-In . SVG Version: 2.1.0 Build 146)  -->
  <defs>
    <style>
      .st0 {
        fill: #659ad1;
      }

      .st1 {
        fill: #f5f8fa;
      }

      .st2 {
        fill: #024482;
      }

      .st3 {
        fill: #024582;
      }

      .st4 {
        fill: #02599c;
      }

      .st5 {
        fill: #fcfdfd;
      }
    </style>
  </defs>
  <path class="st0" d="M110,0l92.34,52.16c3.47,2.04,4.79,4.87,6.66,7.84-12.95,7.08-25.51,14.9-38.32,22.22-1.31.75-3.21.5-3.68.78-9.57-14.8-24.22-27.34-41.58-31.92C63.69,34.75,12.37,99.63,45,155L3,178c-.75-1.13-1.83-2.28-3-3v-111c2.83-4.36,5.13-8.87,9.66-11.84L102,0h8Z"/>
  <g>
    <path class="st2" d="M45,155c27.42,46.53,94.4,45.53,122,0,13.74,7.99,27.92,15.78,42,23-1.87,2.73-3.16,5.92-6.66,7.84l-91.34,52.16h-12c.53-2.42-1.23-2.07-2.63-2.82-29.29-15.75-57.48-33.48-86.71-49.34-3.49-1.96-4.79-5.02-6.66-7.84l42-23Z"/>
    <g>
      <path class="st4" d="M212,64v111c-1.19.73-2.22,1.86-3,3-14.08-7.22-28.26-15.01-42-23-10.2-5.93-20.58-12.12-31-18-9.81-5.54-20.03-11.29-29-18,9.76-5.65,19.45-12.5,29-18,10.26-5.91,20.84-12.18,31-18,.47-.27,2.37-.02,3.68-.78,12.81-7.33,25.37-15.14,38.32-22.22.86,1.36,1.94,2.77,3,4ZM169.01,106.99h-8.01c-.26,1.48.37,7.65.01,8.01s-6.53-.27-8.01-.01v8.01c1.48.26,7.65-.37,8.01-.01s-.27,6.53-.01,8.01h8.01c.26-1.48-.37-7.65-.01-8.01s6.53.27,8.01.01v-8.01c-1.48-.26-7.65.37-8.01.01s.27-6.53.01-8.01ZM198.01,106.99h-8.01c-.26,1.48.37,7.65.01,8.01s-6.53-.27-8.01-.01v8.01c1.48.26,7.65-.37,8.01-.01s-.27,6.53-.01,8.01h8.01c.26-1.48-.37-7.65-.01-8.01s6.53.27,8.01.01v-8.01c-1.48-.26-7.65.37-8.01.01s.27-6.53.01-8.01Z"/>
      <path class="st1" d="M169.01,106.99c.26,1.48-.37,7.65-.01,8.01s6.53-.27,8.01-.01v8.01c-1.48.26-7.65-.37-8.01-.01s.27,6.53.01,8.01h-8.01c-.26-1.48.37-7.65.01-8.01s-6.53.27-8.01.01v-8.01c1.48-.26,7.65.37,8.01.01s-.27-6.53-.01-8.01h8.01Z"/>
      <path class="st1" d="M198.01,106.99c.26,1.48-.37,7.65-.01,8.01s6.53-.27,8.01-.01v8.01c-1.48.26-7.65-.37-8.01-.01s.27,6.53.01,8.01h-8.01c-.26-1.48.37-7.65.01-8.01s-6.53.27-8.01.01v-8.01c1.48-.26,7.65.37,8.01.01s-.27-6.53-.01-8.01h8.01Z"/>
    </g>
    <g>
      <path class="st5" d="M167,83c-10.16,5.82-20.74,12.09-31,18-20.69-32.94-70.11-15.28-64.74,24.24.76,5.57,2.48,6.83,4.74,10.76.53.92.42,2.46,1.53,3.94,14.98,19.91,46.08,18.83,58.47-2.94,10.42,5.88,20.8,12.07,31,18-27.6,45.53-94.58,46.53-122,0C12.37,99.63,63.69,34.75,125.42,51.08c17.35,4.59,32,17.13,41.58,31.92Z"/>
      <path class="st0" d="M136,101c-9.55,5.5-19.24,12.35-29,18-10.17,5.89-20.57,11.58-31,17-2.26-3.93-3.98-5.19-4.74-10.76-5.37-39.52,44.05-57.18,64.74-24.24Z"/>
      <path class="st3" d="M136,137c-12.39,21.77-43.49,22.85-58.47,2.94-1.11-1.48-1-3.02-1.53-3.94,10.43-5.42,20.83-11.11,31-17,8.97,6.71,19.19,12.46,29,18Z"/>
    </g>
  </g>
</svg>