<?xml version="1.0" encoding="UTF-8"?>
<svg id="Calque_1" xmlns="http://www.w3.org/2000/svg" version="1.1" viewBox="0 0 213 236">
  <!-- Generator: Adobe Illustrator 29.3.0, SVG Export Plug-In . SVG Version: 2.1.0 Build 146)  -->
  <defs>
    <style>
      .st0 {
        fill: #659ad1;
      }

      .st1 {
        fill: #024482;
      }

      .st2 {
        fill: #6599d1;
      }

      .st3 {
        fill: #00599b;
      }

      .st4 {
        fill: #014482;
      }

      .st5 {
        fill: #fdfdfd;
      }
    </style>
  </defs>
  <path class="st0" d="M110,0l92.67,51.83c2.82,1.17,4.32,3.11,6.33,5.17-3.29,3.53-8.16,5.78-12.33,8.17-7.25,4.16-15.71,7.81-22.67,11.83-30.41-48.12-99.32-51.16-132.23-3.73-16.32,23.52-18.45,57.37-4.77,82.73L2,177c-.6-.73-1.31-1.36-2-2V61l4.66-5.84L103,0h7Z"/>
  <path class="st3" d="M213,62v112c-.61.64-1.56,1.27-2,2l-37-19c-10.34-7.57-22.7-12.78-34-19s-23.29-13.48-35-20c12.03-6.87,23.95-14.11,36-21,11.13-6.36,22.23-13.79,33-20,6.97-4.02,15.43-7.66,22.67-11.83,4.16-2.39,9.04-4.64,12.33-8.17,1.61,1.65,3.02,2.51,4,5Z"/>
  <path class="st1" d="M174,157l37,19c-.42.69-.28,2.36-1.41,3.05-32.97,19.82-66.96,38.2-100.59,56.95h-6L8.7,182.8c-3.03-1.5-4.62-3.27-6.7-5.8l35-21c7.55,14,24.41,28.37,39.04,34.46,36.33,15.14,79.5,1.36,97.96-33.46Z"/>
  <g>
    <path class="st5" d="M174,77c-10.77,6.21-21.87,13.64-33,20l-12.66-11.84c-34.37-21.07-75.05,13.96-56.34,50.84,13.96,27.51,52.41,28.27,68,2,11.3,6.22,23.66,11.43,34,19-18.46,34.83-61.64,48.6-97.96,33.46-14.62-6.09-31.48-20.47-39.04-34.46-13.68-25.35-11.55-59.2,4.77-82.73,32.91-47.44,101.81-44.39,132.23,3.73Z"/>
    <path class="st2" d="M72,136c-18.71-36.88,21.97-71.91,56.34-50.84l12.66,11.84c-12.05,6.89-23.97,14.13-36,21-10.83,6.19-22.19,11.73-33,18Z"/>
    <path class="st4" d="M105,118c11.71,6.52,23.27,13.54,35,20-15.59,26.27-54.04,25.51-68-2,10.81-6.27,22.17-11.81,33-18Z"/>
  </g>
</svg>