<?xml version="1.0" encoding="UTF-8"?>
<svg id="Calque_1" xmlns="http://www.w3.org/2000/svg" version="1.1" viewBox="0 0 164 306">
  <!-- Generator: Adobe Illustrator 29.3.0, SVG Export Plug-In . SVG Version: 2.1.0 Build 146)  -->
  <defs>
    <style>
      .st0 {
        fill: #e80f11;
      }

      .st1 {
        fill: #e93031;
      }

      .st2 {
        fill: #ea3637;
      }

      .st3 {
        fill: #ea3132;
      }

      .st4 {
        fill: #0b75bd;
      }

      .st5 {
        fill: #e73133;
      }

      .st6 {
        fill: #0775bd;
      }

      .st7 {
        fill: #fdf9f9;
      }

      .st8 {
        fill: #0c76bd;
      }

      .st9 {
        stroke-width: .5px;
      }

      .st9, .st10 {
        fill: none;
        stroke: #e93031;
        stroke-miterlimit: 10;
      }

      .st11 {
        fill: #fdfcfd;
      }

      .st12 {
        fill: #0675bd;
      }

      .st13 {
        fill: #0774bc;
      }

      .st14 {
        fill: #1378be;
      }

      .st15 {
        fill: #fdfafa;
      }
    </style>
  </defs>
  <g>
    <path class="st11" d="M164,0v306H0V0h164ZM104,7c.21,1.22-.19,2.76,0,4-.29,1.34-.71,2.66-1,4-6.06,27.76-42.05,36.23-48.04,56.45-4,13.5,10.88,29.54,20.54,37.55,1.13.93,1.62,2.42,3.5,1.99-4.62-11.43-16.36-20.44-13.55-34.06,4.6-22.23,54.38-38.82,40.55-69.94-.52-1.18.5-3.95-2.49-4.01-1.6-.03.39,3.42.49,4.01ZM117.79,49.8c.42-.74.91-4.18-.77-3.79.35,2.87-3.81,2.14-6.3,3.21-15.18,6.56-33.25,19-27.44,38,3,9.8,13.8,15.06,11.49,26.05-.51,2.41-2.86,4.17-2.77,6.72,1.08,1.1,9.53-7.74,10.43-9.06,10.87-15.88-7.77-21.75-8.48-34.47-.37-6.68,4.93-12.28,9.52-16.49,2.39-2.19,13.88-9.41,14.31-10.17ZM154.66,118.34c-5.72-5.74-15.33-4.89-22.66-3.33l8.05,1.43c9.39,2.51,12.28,10.61,8.14,19.25-3.68,7.68-12.99,12.02-19.2,17.29,13.97-.77,40.36-19.9,25.66-34.65ZM53.99,116.01c-8.08-.2-16.95,1.88-24.35,5.13-5.21,2.29-13.16,5.27-4.33,9.05,15.93,6.82,71.88,4.05,89.14-1.24,2.98-.91,6.18-2.4,8.55-4.45-28.42,1.81-57.83,8.06-85.99,1.49l.46-3.02,16.53-6.95ZM48,140.01c-24.45,8.87,1.82,15.24,13.46,16.03,18.73,1.28,37.34-1.08,55.54-5.05.57-2.32-.47-1.65-1.27-2.28-8.53-6.76-17.19-1.4-27.25-.72-6.24.42-37.13.84-40.51-2.47-2.36-2.3.27-5.3.02-5.51ZM53,163.01c-1.62-1.31-17.58,5.86-1.99,12.48,18.7,7.95,44.39,4.15,62.99-2.5-10.05-10.52-23.06-3.07-35.47-2.94-4.51.05-12.41-.59-16.91-1.18-3.64-.47-11.5-1.23-8.62-5.87ZM36.99,178.01c-6.09-2.67-28.57,4.18-31.49,8.99-4.17,6.88,8.2,8.1,12.16,8.84,24.67,4.63,111.63,7.97,129.86-8.82,4.39-4.04.91-7.39-.51-6.02-.13.13,0,2.26-.94,3.55-4.3,5.84-43.95,9.12-52.53,9.49-18.48.8-42.67.76-60.76-2.32-4.36-.74-21.02-3.76-11.48-8.92l15.7-4.79ZM157.99,192.01c-5.2,2.48-10.2,5.03-15.77,6.72-26.06,7.88-62.54,8.66-89.76,7.32-5.69-.28-11.7-2.36-17.45-1.55,2.86,2.1,7.34,2.64,10.79,3.21,23.2,3.89,89.02,4.54,107.71-9.71.87-.66,5.55-5,4.5-5.99ZM21,223c-2.6.44-9.89-1.34-10.86,1.64l-.23,62.77c-1.09,7.99-8.87,11.4-8.99,12.17-.29,1.88,2.11,4.82,3.8,5.27,7.15,1.9,16.27-11.92,16.27-18.35v-63.5ZM61.41,244.59c-6.37-6.93-8.21-3.98-15.92-3.6-1.48.07-2.99-.91-4.75-.76-1.22.1-9.34,2.48-9.6,2.91-.69,1.1.12,4.3-.14,5.87,1.81,1.85,25.05-9.7,25.08,7.5.01,8.57-7.25,2.44-11.41,3.47-.76.19-.57,1.92-1.28,1.99-1.33.14-2.09-.89-4.9-.07-15.88,4.65-14.2,29.36,4.87,28.03,4.72-.33,9.79-3.37,13.64-5.93-1.44,5.13,5.55,6.93,7.58,4.06,1.2-1.7.77-38.42-.78-41.39-.57-1.1-1.71-1.36-2.38-2.08ZM147.61,241.41c-5.89-2.48-7-.65-12.11-.42-1.34.06-2.88-.93-4.01-.81-1.36.15-11.07,2.41-11.45,2.85-.46.52.58,5.55,1.06,5.88,2.68,1.86,22.18-8.77,23.92,5.56.66,5.41.13,6.25-5.51,6.32-1.61.02-3.33-.98-5.05-.92-1.85.06-1.3,2.03-2.07,2.09-1.05.09-2.01-.9-4.17-.35-6.51,1.66-11.62,9.06-11.15,15.73,1.09,15.44,20.23,14.76,29.42,6.64,1.24-.03.05,4.56.51,5.01.29.29,6.68.33,7.57-.94,1.04-1.5.86-32.7.35-36.48-.23-1.73-1.36-5.29-2.41-6.59-.22-.27-4.62-3.47-4.89-3.58ZM82.9,242.1c-.41-.36-10.86-.35-10.91.41,2.53,5.44,12.11,45.04,14.15,46.35.61.39,10.06.37,11.2-.02,4.81-1.66,14.66-40.13,15.66-46.83h-11c-.68,12.4-4.66,24.34-8.5,36-2.37-4.15-9.19-34.68-10.6-35.91Z"/>
    <path class="st1" d="M147.61,241.41c.28.12,4.68,3.31,4.89,3.58,1.05,1.3,2.17,4.86,2.41,6.59.51,3.78.7,34.98-.35,36.48-.89,1.27-7.28,1.23-7.57.94-.45-.45.73-5.05-.51-5.01-9.19,8.12-28.33,8.8-29.42-6.64-.47-6.67,4.64-14.07,11.15-15.73,2.16-.55,3.12.43,4.17.35.76-.06.21-2.03,2.07-2.09,1.72-.06,3.44.94,5.05.92,5.64-.07,6.17-.91,5.51-6.32-1.74-14.34-21.24-3.7-23.92-5.56-.48-.33-1.52-5.36-1.06-5.88.39-.44,10.09-2.7,11.45-2.85,1.12-.12,2.67.87,4.01.81,5.12-.24,6.22-2.07,12.11.42ZM145,266c-6.31-.26-17.7-.16-18.07,8.53-.49,11.46,16.84,8.25,18.05,1.96.59-3.09-.36-7.22.03-10.48Z"/>
    <path class="st1" d="M61.41,244.59c.67.73,1.8.98,2.38,2.08,1.55,2.97,1.98,39.7.78,41.39-2.03,2.86-9.01,1.07-7.58-4.06-3.85,2.57-8.92,5.6-13.64,5.93-19.06,1.33-20.75-23.38-4.87-28.03,2.82-.82,3.58.2,4.9.07.71-.07.52-1.8,1.28-1.99,4.16-1.03,11.43,5.1,11.41-3.47-.03-17.2-23.27-5.65-25.08-7.5.26-1.57-.55-4.77.14-5.87.27-.43,8.39-2.8,9.6-2.91,1.76-.15,3.27.83,4.75.76,7.71-.38,9.55-3.33,15.92,3.6ZM56.01,265.99c-7.08.03-17.96-.98-18.08,8.5-.16,12.72,17.1,7.19,18.09,2.01.58-3.06-.41-7.26,0-10.51Z"/>
    <path class="st1" d="M106,7c13.82,31.12-35.96,47.71-40.55,69.94-2.82,13.62,8.93,22.63,13.55,34.06-1.88.43-2.37-1.06-3.5-1.99-9.66-8.01-24.54-24.05-20.54-37.55,5.99-20.22,41.99-28.69,48.04-56.45,4.15.51,1.21-2.61,1-4-.19-1.24.21-2.78,0-4h2Z"/>
    <path class="st3" d="M82.9,242.1c1.41,1.23,8.23,31.75,10.6,35.91,3.83-11.66,7.81-23.6,8.5-36.02h11c-.99,6.72-10.84,45.19-15.66,46.85-1.14.39-10.6.41-11.2.02-2.04-1.31-11.62-40.91-14.15-46.35.05-.76,10.5-.77,10.91-.41Z"/>
    <path class="st8" d="M36.99,178.01l-15.7,4.79c-9.54,5.17,7.12,8.18,11.48,8.92,18.1,3.08,42.29,3.12,60.76,2.32,8.58-.37,48.23-3.65,52.53-9.49.95-1.29.81-3.42.94-3.55,1.42-1.37,4.9,1.98.51,6.02-18.23,16.79-105.19,13.45-129.86,8.82-3.95-.74-16.33-1.96-12.16-8.84,2.92-4.81,25.4-11.66,31.49-8.99Z"/>
    <path class="st2" d="M21,223v63.5c0,6.43-9.12,20.26-16.27,18.35-1.69-.45-4.09-3.4-3.8-5.27.12-.77,7.9-4.18,8.99-12.17l.23-62.77c.97-2.98,8.26-1.2,10.86-1.64Z"/>
    <path class="st1" d="M117.79,49.8c-.44.76-11.93,7.98-14.31,10.17-4.59,4.21-9.89,9.81-9.52,16.49.71,12.72,19.35,18.59,8.48,34.47-.9,1.32-9.35,10.16-10.43,9.06-.09-2.55,2.26-4.31,2.77-6.72,2.31-11-8.49-16.25-11.49-26.05-5.82-19,12.25-31.44,27.44-38,2.49-1.07,6.64-.34,6.3-3.21,1.68-.39,1.2,3.05.77,3.79Z"/>
    <path class="st12" d="M53,163.01c-2.87,4.63,4.98,5.4,8.62,5.87,4.5.58,12.4,1.22,16.91,1.18,12.41-.13,25.42-7.58,35.47,2.94-18.59,6.65-44.28,10.45-62.99,2.5-15.59-6.62.37-13.79,1.99-12.48Z"/>
    <path class="st4" d="M53.99,116.01l-16.53,6.95-.46,3.02c28.16,6.57,57.57.31,85.99-1.49-2.37,2.05-5.57,3.54-8.55,4.45-17.25,5.29-73.21,8.06-89.14,1.24-8.83-3.78-.88-6.76,4.33-9.05,7.4-3.25,16.27-5.33,24.35-5.13Z"/>
    <path class="st6" d="M48,140.01c.25.22-2.38,3.22-.02,5.51,3.39,3.3,34.28,2.89,40.51,2.47,10.05-.68,18.72-6.04,27.25.72.8.63,1.84-.04,1.27,2.28-18.2,3.96-36.81,6.33-55.54,5.05-11.64-.8-37.91-7.16-13.46-16.03Z"/>
    <path class="st14" d="M157.99,192.01c1.06.99-3.63,5.33-4.5,5.99-18.69,14.25-84.5,13.6-107.71,9.71-3.45-.58-7.92-1.12-10.79-3.21,5.76-.82,11.77,1.27,17.45,1.55,27.22,1.34,63.7.55,89.76-7.32,5.57-1.68,10.58-4.24,15.77-6.72Z"/>
    <path class="st13" d="M154.66,118.34c14.7,14.75-11.69,33.88-25.66,34.65,6.21-5.27,15.52-9.61,19.2-17.29,4.14-8.64,1.25-16.75-8.14-19.25l-8.05-1.43c7.32-1.56,16.93-2.42,22.66,3.33Z"/>
    <path class="st0" d="M106,7h-2c-.1-.59-2.09-4.04-.49-4.01,2.99.06,1.97,2.83,2.49,4.01Z"/>
    <path class="st0" d="M104,11c.21,1.39,3.15,4.51-1,4,.29-1.34.71-2.66,1-4Z"/>
    <path class="st15" d="M145,266c-.39,3.26.57,7.4-.03,10.48-1.21,6.29-18.54,9.5-18.05-1.96.37-8.68,11.76-8.79,18.07-8.53Z"/>
    <path class="st7" d="M56.01,265.99c-.41,3.25.58,7.46,0,10.51-.99,5.18-18.25,10.71-18.09-2.01.12-9.49,11.01-8.47,18.08-8.5Z"/>
  </g>
  <path class="st1" d="M63.66,246.64c-.38-.58-.76-1.16-1.14-1.74-.34-.52-.68-1.04-1.1-1.5-1.12-1.2-2.69-1.85-4.22-2.44-.88-.34-1.76-.68-2.68-.87-.75-.16-1.52-.23-2.28-.27-3.74-.22-7.5.03-11.17.75"/>
  <path class="st5" d="M39.78,240.89c1.46-1.12,3.4-1.34,5.24-1.42,2.21-.1,4.43-.05,6.63.14.59.05,1.17.11,1.75.2,1.86.28,3.67.85,5.36,1.68,1.54.76,3,1.76,4.01,3.15s1.5,3.22,1.01,4.87"/>
  <path class="st1" d="M56.63,260.78c-.91.22-1.84-.11-2.76-.27-.91-.16-1.85-.15-2.78-.14-1.26.02-2.53.03-3.76.27-.77.15-1.52.38-2.27.59-1.38.39-2.77.71-4.18.96.9-1.11,2.25-1.85,3.66-2-.23.79-.85,1.45-1.62,1.73.45-.39.93-.75,1.43-1.08-.96.65-2.05,1.08-3.19,1.26,1.05-.18,2.33-.62,3.25-1.14-.36.19-.69.45-.96.76.11-.13.23-.26.34-.38-.97.31-1.96.54-2.97.69.44-.26.86-.55,1.26-.86-.67.23-1.31.54-1.89.92,2.21-1.02,4.7-1.22,7.14-1.22s4.88.16,7.29-.18"/>
  <path class="st10" d="M128.91,262.55c1.84-.63,3.69-1.27,5.59-1.7"/>
  <path class="st10" d="M131.22,262.31c.65-.22,1.31-.42,1.97-.6"/>
  <path class="st9" d="M134.44,260.57c-.65-.03-1.32-.06-1.94.15-.17.06-.34.14-.51.21-.24.09-.48.17-.72.27-.24.11-.46.25-.68.39-.6.38-1.19.76-1.79,1.14"/>
  <path class="st9" d="M134.17,260.27c-.72-.07-1.45,0-2.15.21-1.18.35-2.22,1.07-3.23,1.78"/>
  <path class="st9" d="M128.44,261.87c.29-.22.66-.32,1.02-.41.47-.11.94-.2,1.42-.27"/>
  <path class="st9" d="M134.11,260.2c-.48-.04-.97-.03-1.45.05-.46.08-.91.23-1.36.38-.44.15-.87.29-1.31.44-.28.09-.56.24-.85.3-.24.06-.44.09-.67.19-.53.23-1.04.52-1.52.86-.08.06-.17.13-.18.24"/>
  <path class="st9" d="M131.68,260.59c.99-.32,2.03-.46,3.06-.4"/>
  <path class="st9" d="M145.6,241.83c-4.74-1.28-9.74-1.08-14.65-.86,4.44-.46,8.67-.72,13.11-.34"/>
  <path class="st9" d="M145.1,241.06c-.82-.37-1.65-.75-2.53-.91-2.23-.42-4.76-.3-7.02-.11-2.16.18-4.29.65-6.41,1.13"/>
  <path class="st9" d="M141.43,240.7c-2.26-.18-4.53-.27-6.8-.26,1.94-.4,3.95-.46,5.91-.19"/>
  <path class="st9" d="M130.67,240.54c2.69-.63,5.48-.79,8.24-.81.65,0,1.3,0,1.94.1,1.32.21,2.53.83,3.72,1.45"/>
  <path class="st9" d="M141.13,240.35l-.68-.16"/>
  <path class="st9" d="M145.47,259.54c-4.13-.16-8.22.93-12.36.98-1.23.01-2.5-.06-3.66.37-.53.2-1.02.5-1.5.8-1.44.89-2.88,1.78-4.32,2.68"/>
  <path class="st9" d="M144.49,260.23c-2.02.03-4.03.21-6.02.55,1.05,0,2.26-.44,3.29-.64.83-.16,2.12-.69,2.95-.48-.4.1-.81.15-1.23.17l1.09.09"/>
  <path class="st9" d="M139.11,260.32c.27-.04.55-.1.8-.13.52-.08,1.18-.1,1.66-.32-.53-.09-1.16.03-1.69.11-.53.08-1.17.14-1.65.38.28.04.58.01.88-.03Z"/>
  <path class="st9" d="M142.78,260.87c-.74-.13-1.5-.2-2.25-.19"/>
  <path class="st9" d="M144.45,260.59l-1.05-.57c-.09-.05-.19-.1-.28-.07-.19.06-.17.33-.27.5-.11.18-.34.22-.55.25-1.01.12-2.03.24-3.03.04-.33-.07-.65-.17-.99-.19s-.69.05-.94.28"/>
  <path class="st9" d="M145.47,259.41l-4.44.14c-.27,0-.54.02-.81.03-1.49.05-2.99.1-4.46.37-.56.1-1.11.24-1.67.32-1.5.22-3.13.06-4.4.89"/>
  <path class="st9" d="M55.4,260.33c-2.26.96-4.8.95-7.25,1.11-2.24.15-4.48.45-6.68.91,1.15-.2,2.29-.5,3.38-.91-2.74-.16-5.25,1.51-7.97,1.93.17-.49.68-.78,1.16-.99,1.31-.58,2.7-.99,4.09-1.36.48-.13.96-.25,1.45-.34.61-.11,1.22-.17,1.84-.21,3.41-.24,6.84-.08,10.21.47"/>
  <path class="st9" d="M55.41,261.67c-.88-.15-1.76-.29-2.61-.58-.21-.07-.42-.15-.63-.19-.48-.09-.97,0-1.45.08-1.05.15-2.13.18-3.19.11-.4-.03-.81-.07-1.21-.06-.57.01-1.13.12-1.69.24-.55.11-1.09.22-1.64.33-.3.06-.61.12-.92.08-.27-.04-.53-.16-.8-.12-.17.02-.32.1-.47.18-.27.14-.55.29-.82.43"/>
  <path class="st9" d="M35.2,264.04l1.7-1.22c.34-.24.67-.48,1.03-.69.52-.3,1.07-.53,1.63-.76.41-.17.82-.33,1.24-.47,1.22-.41,2.49-.65,3.78-.71s2.48.09,3.72.13"/>
  <path class="st9" d="M40.29,261.81c.15-.1.32-.17.48-.25,1.7-.75,3.47-1.44,5.33-1.55.45-.03.9-.02,1.34-.01,1.69.03,3.37.06,5.06.09,1.34.02,2.68.05,4.01.26"/>
  <path class="st9" d="M38.72,264.74c1.38-.43,2.79-.8,4.21-1.08"/>
  <path class="st9" d="M56.11,260.64c-1.18-.02-2.35-.26-3.52-.15"/>
  <path class="st9" d="M143.56,240.85c2.02-.13,3.96.67,5.68,1.64,1.36.77,2.99,2.07,3.59,3.56-.05-.31-.12-.64-.33-.87-.07-.07-.15-.13-.24-.19-.78-.55-1.56-1.1-2.34-1.64"/>
</svg>