<?xml version="1.0" encoding="UTF-8"?>
<svg xmlns="http://www.w3.org/2000/svg" version="1.1" viewBox="0 0 146.4 166">
  <defs>
    <style>
      .cls-1 {
        fill: #e84e11;
      }

      .cls-2 {
        fill: #ebe8e7;
      }

      .cls-3 {
        fill: none;
        stroke: #ee652d;
        stroke-miterlimit: 10;
        stroke-width: .5px;
      }

      .cls-4 {
        fill: #eae8e8;
      }

      .cls-5 {
        fill: #e24e26;
      }

      .cls-6 {
        fill: #e14616;
      }

      .cls-7 {
        fill: #e24f27;
      }

      .cls-8 {
        fill: #ebf5f6;
      }

      .cls-9 {
        fill: #ee652b;
      }

      .cls-10 {
        fill: #ee652d;
      }

      .cls-11 {
        fill: #fefcfc;
      }

      .cls-12 {
        fill: #ed5400;
      }

      .cls-13 {
        fill: #e23d00;
      }

      .cls-14 {
        fill: #fefefe;
      }
    </style>
  </defs>
    <g id="Calque_1">
        <path class="cls-7" d="M3.9,2c46.3-1.9,93.9,1.5,140.4,0,1.1.2.5,2.1.6,3-1.5.1-1.5,2.9,0,3-2.5,43.5-8.5,87.1-12,130.5-.2,3.1.3,6.3-.1,9.4l-59.4,16.2-58.4-16.2L2.9,9c1.7-1.9.9-4.6,1-7ZM73.9,30c0,.2-.8.6-1,1-8,0-16,0-24,0l-.5-1-1.5,1c-6,0-12,0-18,0,.6,6.6,3,53,5,55,1,1,1,.9,2.4,1.1,11,1.2,26.1,0,37.6,0,0,9,0,18,0,27-2.4,0-18.8-4.2-19.8-5.2-2.3-2.7,0-9.9-2.2-12.8-.3-.3-.5-.9-1-1-4.1-.9-10.6.6-15,0l-1,1c.4,4.4,0,24.1,1.9,26.6,1.6,2.1,5.2,1.8,7.3,2.5,4.3,1.6,10.2,3.3,14.8,4.4,4.4,1.1,10.8,3.6,15,3.5,0,6.3,0,12.7,0,19l47.1-13.7,10.9-125.3h-58c-.6,5.2.9,12.1,0,17h0Z"/>
        <path class="cls-6" d="M3.9,2c0,2.4.7,5.1-1,7l-1-7c.7,0,1.3,0,2,0h0Z"/>
        <path class="cls-6" d="M144.9,8c-1.5-.1-1.5-2.9,0-3,.1.9,0,2.1,0,3Z"/>
        <path class="cls-10" d="M73.9,30c.9-4.9-.6-11.8,0-17h58l-10.9,125.3-47.1,13.7c0-6.3,0-12.7,0-19,6.7-.1,22.1-6,29.6-8,2.6-.7,5.3.5,6.9-2l5.5-54.5c-13.9-1-28-.5-42-.5v-19c14.1,0,28.3,0,42.4,0,2-.5,1.4-10,1.6-12.1,0,0,.9-.3,1-1,.1-1,.2-3.1,0-4-.1-.6-.3-1-1-1-14.3,0-28.7,0-43,0l-1-1h0Z"/>
        <path class="cls-9" d="M94.9,86c1.4-.2,1,1.4.9,2.4-.5,6.8-2.2,13.6-2,20.5-6.1,1.2-13.8,5-19.9,5.1,0-9,0-18,0-27,6.8,0,14.8.8,21-1h0Z"/>
        <path class="cls-1" d="M48.9,31h-2l1.5-1,.5,1Z"/>
        <path class="cls-1" d="M74.9,31h-2c.2-.4,1-.8,1-1l1,1Z"/>
        <path class="cls-5" d="M73.9,49v19c-8,0-16,0-24,0l-1-19c8.3,0,16.7,0,25,0h0Z"/>
        <g>
          <path class="cls-2" d="M46.9,31h2c8,0,16,0,24,0h1v18c-8.3,0-16.7,0-25,0l1,19c8,0,16,0,24,0v18h-40c-2-2-4.4-48.4-5-55,6,0,12,0,18,0h0Z"/>
          <path class="cls-4" d="M50.9,95l1,1c2.3,2.8,0,10.1,2.2,12.8.9,1.1,17.4,5.3,19.8,5.2,0,6.3,0,12.7,0,19-4.2,0-10.6-2.5-15-3.5-4.6-1.1-10.4-2.8-14.8-4.4-2.1-.8-5.8-.4-7.3-2.5-1.9-2.5-1.5-22.2-1.9-26.6l1-1c4.4.6,10.9-.9,15,0Z"/>
          <path class="cls-13" d="M73.9,86v1c-11.5,0-26.6,1.2-37.6,0-1.4-.2-1.4,0-2.4-1.1h40Z"/>
          <path class="cls-8" d="M34.9,96l1-1-1,1Z"/>
          <path class="cls-8" d="M51.9,96l-1-1c.5.1.7.7,1,1Z"/>
          <path class="cls-11" d="M73.9,68c14,0,28.1-.5,42,.5l-5.5,54.5c-1.5,2.5-4.3,1.3-6.9,2-7.5,2-22.9,7.9-29.6,8,0-6.3,0-12.7,0-19,6.1-.1,13.8-4,19.9-5.1-.2-6.9,1.5-13.7,2-20.5,0-.9.5-2.6-.9-2.4h-21v-18h0Z"/>
          <path class="cls-14" d="M117.9,31l1,1c.2.9.1,3,0,4l-1,1c-.2,2,.3,11.5-1.6,12.1-14.1,0-28.3-.1-42.4,0v-18h1c14.3,0,28.7,0,43,0Z"/>
          <path class="cls-2" d="M118.9,32l-1-1c.7,0,.9.4,1,1Z"/>
          <path class="cls-2" d="M117.9,37l1-1c0,.7-1,.9-1,1Z"/>
          <path class="cls-12" d="M94.9,86c-6.2,1.8-14.2,1-21,1v-1h21Z"/>
        </g>
      </g>
      <path class="cls-3" d="M117.9,30.5c.1,2.2.2,4.4.3,6.6.3-.4.4-.9.4-1.4,0-.8.1-1.6.1-2.4,0-.8,0-1.7.1-2.5.3,1.9.3,3.9,0,5.9"/>
      <path class="cls-3" d="M118.2,30.6c.2,1.5.2,3.1.1,4.6,0-1.3.1-2.6.4-3.9,0,0-.2,0-.2.1"/>
      <path class="cls-3" d="M110.7,122.2l-5.2,3.5c1,0,1.9-.4,2.9-.8.6-.2,1.2-.4,1.8-.7.2,0,.3-.1.5-.2s.2-.3.2-.5c-.6.2-1.3.4-1.9.7"/>
      <path class="cls-3" d="M111.1,122.5c-.6.2-1.1.4-1.7.7.4,0,.8,0,1.2,0-1.1.4-2.1,1-3,1.7,1.4-.6,2.8-1.3,4.1-2.1-1.3.5-2.6,1.1-3.9,1.8.6-.4,1.1-.7,1.7-1-.9.5-1.7,1-2.5,1.6l3.5-2c-1.1.7-2.2,1.4-3.3,2.1-.4.3-.9.5-1.4.6.1-.3.3-.6.5-.8l-.7.3c.5-.6,1.2-1,1.9-1.4,1.2-.7,2.4-1.4,3.6-2.2"/>
      <path class="cls-3" d="M104.3,125l4.1-2.3c.5-.3,1.1-.6,1.5-1s.8-.9.9-1.6"/>
      <path class="cls-3" d="M110.9,121.2c-.9.6-1.6,1.5-2.6,2.1-.4.2-.8.4-1.2.7-.7.3-1.3.6-2,.9"/>
</svg>