<?xml version="1.0" encoding="UTF-8"?>
<svg xmlns="http://www.w3.org/2000/svg" version="1.1" viewBox="0 0 225 225">
  <defs>
    <style>
      .cls-1 {
        fill: #f6f6f6;
      }

      .cls-1, .cls-2, .cls-3, .cls-4, .cls-5, .cls-6, .cls-7, .cls-8 {
        stroke: #000;
        stroke-miterlimit: 10;
        stroke-width: .2px;
      }

      .cls-9 {
        fill: #fff;
      }

      .cls-2 {
        fill: #f8f8f8;
      }

      .cls-3 {
        fill: #fafafa;
      }

      .cls-4, .cls-10 {
        fill: #f7f7f7;
      }

      .cls-5 {
        fill: #020202;
      }

      .cls-6 {
        fill: #f3f3f3;
      }

      .cls-7 {
        fill: #f4f4f4;
      }

      .cls-8 {
        fill: #fbfbfb;
      }
    </style>
  </defs>
    <g id="Calque_1">
      <path class="cls-5" d="M214.3,105.9c0-3.3-10.3-6.6-10.6-7.8-1.4-5.9,6.4-6.9,8.2-10.8,2.7-5.9-11.4-6-12-8.2-1.2-5.1,7.1-10,6.6-13-.8-4.4-12-2-13.7-5.4-1.5-3,6.4-12.1,2.5-14.8-3-2.1-10.9,2.5-12.9-.4-2.2-3.4,3.7-12.7.6-14.9-2.9-2-10.7,3.2-14.4,1.1-2.8-2,1.7-9.9-.4-12.9-2.7-3.9-11.8,4-14.8,2.5-3.3-1.7-1-12.9-5.4-13.7-3-.6-8,7.8-13,6.6-1.9-.4-2.5-12.5-6.8-12.4-3.9,0-7.5,11.7-12.7,8.4-.8-.5-3.8-9.5-6.5-10.2-4.2-1.1-7.1,10.1-8.5,10.4-6.3,1.5-8.4-9.7-13-8.5-3.4.9-4.3,11.4-5.5,12.1-4.1,2.6-10.5-7-13.5-6.4-4.4.8-2,12-5.4,13.7-3,1.5-12.1-6.4-14.8-2.5-2.1,3,2.5,11-.4,13-3.7,2.1-11.5-3.1-14.4-1.1-3.1,2.2,2.8,11.4.6,14.9-2,2.8-9.9-1.7-13,.4-3.9,2.7,4,11.8,2.5,14.8-1.7,3.4-12.9,1.2-13.7,5.4-.6,3.1,7.8,8,6.6,13-.5,2.2-14.7,2.3-12,8.2,1.8,3.9,9.6,4.9,8.2,10.8-.3,1.2-10.6,4.4-10.6,7.8s10.3,6.6,10.6,7.8c1.4,5.9-6.4,6.9-8.2,10.8-2.7,5.9,11.4,6,12,8.2,1.2,5.1-7.1,10-6.6,13,.8,4.1,11.9,1.9,13.7,5.4,1.5,3-6.4,12.1-2.5,14.8,3,2.1,11-2.5,13,.4,2.1,3.7-3.1,11.5-1.1,14.4,2.2,3.1,11.4-2.8,14.9-.6,2.8,2-1.7,9.9.4,12.9,2.7,3.9,11.8-4,14.8-2.5,3.3,1.7,1,12.9,5.4,13.7,3,.6,8-7.8,13-6.6,2.2.5,2.3,14.7,8.2,12,3.9-1.8,4.9-9.6,10.8-8.2,1.2.3,4.4,10.6,7.8,10.6s6.6-10.3,7.8-10.6c5.9-1.4,6.9,6.4,10.8,8.2,5.9,2.7,6-11.4,8.2-12,5.1-1.2,10,7.1,13,6.6,4.4-.8,2-12,5.4-13.7,3-1.5,12.1,6.4,14.8,2.5,2.1-3-2.5-10.9.4-12.9,3.4-2.2,12.7,3.7,14.9.6,2-2.9-3.2-10.7-1.1-14.4,2-2.8,9.9,1.7,12.9-.4,3.9-2.7-4-11.8-2.5-14.8,1.7-3.3,12.9-1,13.7-5.4.6-3-7.8-8-6.6-13,.5-2.2,14.7-2.3,12-8.2-1.8-3.9-9.6-4.9-8.2-10.8.3-1.2,10.6-4.4,10.6-7.8h0ZM108.3,18.9c3.5,0,6.3,2.8,6.3,6.3s-2.8,6.3-6.3,6.3-6.3-2.8-6.3-6.3,2.8-6.3,6.3-6.3ZM25.3,81.1c0-3.4,2.8-6.2,6.2-6.2s6.2,2.8,6.2,6.2-2.8,6.2-6.2,6.2-6.2-2.8-6.2-6.2ZM33.7,128.3c-3.4-10.3-3.2-20.9-2.7-31.7,7.1-6.4,21-5.5,14.1-18.7h13.3v50.4h-24.7ZM60.8,177.4c-3.4,0-6.2-2.8-6.2-6.2s2.8-6.2,6.2-6.2,6.2,2.8,6.2,6.2-2.8,6.2-6.2,6.2ZM155.7,177.4c-3.4,0-6.2-2.8-6.2-6.2s2.8-6.2,6.2-6.2,6.2,2.8,6.2,6.2-2.8,6.2-6.2,6.2ZM164.2,159.4c-4.2.8-15-4.9-19.1-.5-2.1,2.3-1.9,12.8-3.3,16.2-1.8,4.2-21.9,8-26.8,8.3-10.4.7-28.6-.8-37.6-6.2-6.8-4.1-.5-19.9-10.7-20.2-3.6-.1-11.8,2.8-14.3,2.3-1.9-.4-5.1-5.6-6.3-7.4h63.7v-23.8h-18.1v-14.3h23.3c1.8,0,6.2,4.2,7.3,6,3.5,5.9,5.8,32,13.6,32h34.7c-1.1,1.8-4.4,7-6.3,7.4h0ZM91.7,92.2v-14.3c.6,0,1.2.1,1.8.2.6-.4,1.3-.6,2.2-.6s1.2.1,1.7.4c4-.4,8-.7,12-.2,4.8-.3,9.4-.4,13.2.3,4.9.9,8.4,7.3,3.8,11.4-.7.6-5.2,2.8-5.7,2.8,0,0-29,0-29,0ZM185.7,112.1c-.4.4-8.2-.4-8.6,0-.7.7,2,11.4-5.4,15-14.5,7.1-13.9-19.7-24-24,16.6-9.4,20.1-30.1,4.6-42.7-3.7-3-12.9-7.2-17.5-7.2H51.7c3.7-8.2,36.4-26.1,42.7-23.3,5.3,2.3,8.5,14.2,17.1,10.5,2.6-1.1,8.7-10.2,11.1-10.8,6.7-1.6,30.2,12.2,35.9,17,3.7,3.2,17.6,18,17.6,22.3s-11.5,14.3-4.1,20.3c1.8,1.5,13.6,5.9,13.6,7.3,0,2.3.6,15.1,0,15.7h0ZM185.1,87.3c-3.4,0-6.2-2.8-6.2-6.2s2.8-6.2,6.2-6.2,6.2,2.8,6.2,6.2-2.8,6.2-6.2,6.2Z"/>
      <path class="cls-8" d="M185.7,112.1c-.4.4-8.2-.4-8.6,0-.7.7,2,11.4-5.4,15-14.5,7.1-13.9-19.7-24-24,16.6-9.4,20.1-30.1,4.6-42.7-3.7-3-12.9-7.2-17.5-7.2H51.7c3.7-8.2,36.4-26.1,42.7-23.3,5.3,2.3,8.5,14.2,17.1,10.5,2.6-1.1,8.7-10.2,11.1-10.8,6.7-1.6,30.2,12.2,35.9,17,3.7,3.2,17.6,18,17.6,22.3s-11.5,14.3-4.1,20.3c1.8,1.5,13.6,5.9,13.6,7.3,0,2.3.6,15.1,0,15.7h0Z"/>
      <path class="cls-3" d="M170.5,152.1c-1.1,1.8-4.4,7-6.3,7.4-4.2.8-15-4.9-19.1-.5-2.1,2.3-1.9,12.8-3.3,16.2-1.8,4.2-21.9,8-26.8,8.3-10.4.7-28.6-.8-37.6-6.2-6.8-4.1-.5-19.9-10.7-20.2-3.6-.1-11.8,2.8-14.3,2.3-1.9-.4-5.1-5.6-6.3-7.4h63.7v-23.8h-18.1v-14.3h23.3c1.8,0,6.2,4.2,7.3,6,3.5,5.9,5.8,32,13.6,32h34.7,0Z"/>
      <path class="cls-2" d="M58.4,77.9v50.4h-24.7c-3.4-10.3-3.2-20.9-2.7-31.7,7.1-6.4,21-5.5,14.1-18.7,0,0,13.3,0,13.3,0Z"/>
      <path class="cls-4" d="M122.5,77.9c-3.8-.7-8.4-.5-13.2-.3.3,0,.6,0,1,.1,2.1.4,3.3,3,2.8,4.9-.6,2.2-2.8,3.1-4.9,2.8-3.7-.6-7.6,0-11.3.3-.7,0-1.3-.1-1.9-.4-3.7-.5-4.2-5.4-1.6-7.2-.6,0-1.2,0-1.8-.2v14.3h29c.5,0,5-2.2,5.7-2.8,4.6-4.1,1.1-10.6-3.8-11.4h0Z"/>
      <circle class="cls-7" cx="108.3" cy="25.2" r="6.3"/>
      <circle class="cls-6" cx="31.5" cy="81.1" r="6.2"/>
      <circle class="cls-6" cx="185.1" cy="81.1" r="6.2"/>
      <circle class="cls-1" cx="60.8" cy="171.2" r="6.2"/>
      <circle class="cls-1" cx="155.7" cy="171.2" r="6.2"/>
      <path class="cls-9" d="M108.3,86.2c2.8.6,5.9.1,8.3-1.4-2.3-1.1-5.2-1.3-7.6-.3"/>
      <path class="cls-9" d="M118,83c-.4-1.1-1.4-1.8-2.4-2.5-.5-.4-1-.7-1.6-1.1-.7-.5-1.4-1-2.2-1.3-.9-.4-1.9-.5-2.9-.5-1.1,0-2.3,0-3.4,0-3.2,0-6.3.2-9.5.3-.7,0-1.5,0-2.2.1-.4,0-.9.1-1.3.4-.7.5-.9,1.4-.9,2.2,0,.6,0,1.3,0,1.9,0,.2,0,.5.2.6.2.3.6.4.9.4s.6-.2.9-.4c.9-.8,2.2-1.2,3.4-1.2s2.5.3,3.7.6c3.3.7,6.8.9,10.2,1,.7,0,1.5,0,2.2,0,.4,0,.8,0,1.2,0,.7,0,1.3,0,2,0,.7,0,1.4,0,2.1,0-.2-.1-.4-.3-.6-.5Z"/>
      <path class="cls-9" d="M94.6,85.8c.5.3.9.5,1.4.7.7.2,1.4.4,2.1.5,2.7.4,5.4.6,8.2.7.8,0,1.7,0,2.4-.4s1.2-1.4.7-2.1c-.4-.6-1.2-.7-1.9-.8-2.8-.3-5.6-.2-8.3-.7-1.8-.3-3.6-1-5.4-1.3s-1.1,0-1.5.3-.6,1.2-.2,1.7c.6.7,1.7,1.1,2.4,1.6Z"/>
      <rect class="cls-10" x="91.8" y="77.9" width="28.1" height="9.7"/>
      <rect class="cls-5" x="91.1" y="75.4" width="30.6" height="2.4"/>
    </g>
</svg>