<?xml version="1.0" encoding="UTF-8"?>
<svg id="Calque_1" xmlns="http://www.w3.org/2000/svg" version="1.1" viewBox="0 0 595.28 841.89">
  <!-- Generator: Adobe Illustrator 29.3.0, SVG Export Plug-In . SVG Version: 2.1.0 Build 146)  -->
  <defs>
    <style>
      .st0 {
        fill: #250086;
      }

      .st1 {
        fill: #30008c;
      }

      .st2 {
        fill: #31028c;
      }

      .st3 {
        fill: #a884de;
      }

      .st4 {
        fill: #240085;
      }

      .st5 {
        fill: #221267;
      }

      .st6 {
        fill: #240084;
      }

      .st7 {
        fill: #a079db;
      }

      .st8 {
        fill: #180081;
      }

      .st9 {
        fill: #30008b;
      }

      .st10 {
        fill: #a077db;
      }

      .st11 {
        fill: #1a0082;
      }

      .st12 {
        fill: #a078db;
      }

      .st13 {
        fill: #380190;
      }

      .st14 {
        fill: #31008d;
      }

      .st15 {
        fill: #390090;
      }

      .st16 {
        fill: #fafafc;
      }

      .st17 {
        fill: #1f0062;
      }

      .st18 {
        fill: #1a1063;
      }

      .st19 {
        fill: #9b71d9;
      }

      .st20 {
        fill: #fefefe;
      }

      .st21 {
        fill: #280068;
      }

      .st22 {
        fill: #190082;
      }

      .st23 {
        fill: #230085;
      }

      .st24 {
        fill: #1c035e;
      }
    </style>
  </defs>
  <g>
    <path class="st7" d="M-3.49,573.88c-8.29-9.38-8-21.21-8.03-32.37-.28-88.01-.13-176.02-.07-264.03.02-23.98,10.59-41.69,31.44-53.66,71.96-41.31,143.81-82.8,215.72-124.21,4.74-2.73,9.72-5.05,14.36-7.93,21.15-13.12,41.82-12.34,63.24.16,55.78,32.56,111.89,64.56,167.88,96.76,18.95,10.9,37.99,21.64,56.86,32.68,11.54,6.75,23.44,13.25,28.93,26.63-20.57,16.46-44.33,27.75-66.96,40.82-10.01,5.78-18.58,15.57-31.87,14.32-22.02-39.83-55.73-66.74-95.79-86.63-3.1-1.54-5.85-3.64-8.37-6.04-13.26-10.72-29.63-13.91-45.48-16.47-20.83-3.37-42.11-4.48-63.24-.77-2.65.47-4.45,1.94-6.14,3.78-3.97,4.43-9.67,4.56-14.86,5.94-50.15,13.38-93.21,37.57-123.51,81.16-2.55,3.67-5.3,7.17-9.35,9.33-10.8,5.82-14.36,15.28-13.5,26.98-5.67,19.54-13.61,38.42-16.19,58.82-.42,3.36-1.49,7-6.08,7.23-1.15-.58-.9-2.17-1.97-2.82-3.99,10.67-2.43,21.94-2.8,30.51.8-4.25-.37-11.05.16-17.76.25-3.15.91-6.03,5.27-4.36,3.48,4.79,3.21,10.38,3.15,15.8-.36,34.45,7.42,66.95,22.93,97.66,2.01,3.98,4.01,8.02,4.02,12.65-.38,3.34-2.86,5.08-5.43,6.49-26.76,14.61-52.12,31.64-79.17,45.74-4.63,2.41-9.23,6.09-15.14,3.6Z"/>
    <path class="st21" d="M-3.49,573.88c27.72-15.79,55.44-31.59,83.17-47.37,4.67-2.66,9-6.19,14.79-6.2,7.9,4.79,12.45,12.81,17.73,19.79,50.82,67.07,119.78,89.4,200.84,82.37,8.89-.77,17.77-1.91,26.61-3.01,5.34.48,9.96-1.33,14.12-4.59,1.2-.57,2.45-.9,3.77-1.05,5.3.29,8.69-3.18,12.26-6.25,25.87-9.27,44.33-29.71,66.65-44.33,6.72-3.19,11.89-7.83,14.13-15.2,5.02-10.12,11.03-19.48,20.12-26.51,3.41-1.39,6.94-1.33,10.04.45,28.21,16.18,56.58,32.07,84.12,49.39.8.5,1.19,1.54,1.57,2.47-6.63,10.35-14.84,18.63-25.82,24.91-74.41,42.51-148.53,85.53-222.82,128.27-8.95,5.15-17.83,10.8-28.7,11.2-5.98-1.3-11.99-.74-18-.25-20.21-3.06-35.36-16.59-52.27-26.11-66.26-37.34-132-75.62-197.84-113.7-10.18-5.89-21.03-11.44-24.47-24.28Z"/>
    <path class="st15" d="M566.43,573.84c-29.24-12.8-55.36-31.19-83.15-46.58-3.95-2.19-7.44-4.72-12.16-4.29-26.24-13.39-50.84-29.65-76.63-43.85-6.46-3.56-12.91-7.11-19.52-10.36-31.34-19.4-64.12-36.33-95.4-55.85.37-8.24,7.9-9.66,13-12.73,26.79-16.11,53.97-31.57,81.07-47.16,24.76-13.53,49.18-27.64,73.41-42.09,6.7-4,13.07-9.25,21.73-8.27,33.25-17.23,63.5-39.85,98.06-54.75,6.39,9.61,6.58,20.57,6.59,31.47.06,87.74.08,175.48-.02,263.22-.01,10.84.19,21.9-6.98,31.23Z"/>
    <path class="st17" d="M271.08,737.97c6.07-4.61,12.07-4.78,18,.25-6.04,2.96-12.04,2.67-18-.25Z"/>
    <path class="st20" d="M468.78,302.67c-31.04,17.65-62.09,35.29-93.13,52.94-12.41-5.92-19.59-17.86-30.08-26.19-37.55-29.84-76.23-29-116.71-7.82-2.45,1.38-4.98,2.65-7.2,4.42-20.25,15.79-35.14,35.16-40.74,60.76-1.6,4.93-1.36,10.01-1.25,15.08.47,9.81-1.16,19.69,1.16,29.42.44,1.41.76,2.86,1.03,4.31,1.82,10.71,5.03,20.85,11.87,29.55,15.27,14.76,27.02,34.44,48.23,41.24,41.25,13.23,80.29,12.03,112.56-22.59,6.24-6.69,11.02-15.54,20.83-18.35,32.17,15.31,61.87,34.97,92.74,52.57,1.47.84,2.03,3.28,3.01,4.98-6.06,8.85-12.12,17.7-18.18,26.54-3.34,6.5-8.89,10.92-14.47,15.31-2.37,1.54-5.08,2.73-7.05,4.67-18.01,17.71-38.95,30.97-61.86,41.3-3.71,2.29-6.77,6.15-11.93,4.87-1,.26-1.99.52-2.99.78-3.24,4.26-9.85,3.02-12.76,7.82-8.6-4.02-16.85.76-24.94,1.87-50.51,6.94-97.47-2.39-142.4-26.19-35.02-18.55-60.91-45.52-80.07-79.63-22.21-40-31.58-82.93-29.23-128.51-1.84-1.9-1.66-3.72.23-5.46,5.11-23.57,10.32-47.1,20.35-69.22.12-10.92,5.74-19.14,13.01-26.55,3.32-.46,4.87-2.98,6.56-5.45,33.53-49.1,81.13-76.08,138.35-87.94,1.38-.29,2.62-1.31,3.92-1.99,1.17-1.45,2.66-2.39,4.47-2.82,20.4-1.68,40.82-.85,61.23-.37,18.25,4.28,37.25,6.32,53.19,17.61,23.21,10.28,44.21,24.42,63.73,40.2,17.18,13.89,30.67,31.59,38.5,52.86Z"/>
    <path class="st10" d="M-8.94,545.96v-272.51c.5,0,.99,0,1.49,0v273.1c-.5-.2-.99-.39-1.49-.59Z"/>
    <path class="st12" d="M250.17,194.99l-1.23.33s-1.27-.14-1.27-.13c-4.49-4.49-1.41-5.76,2.78-6.17,36.52-3.54,72.54-2.44,107.01,12.14,4.04,1.71,8.71,2.78,9.1,8.44-16.87-4.84-33.74-9.67-50.61-14.51-21.92-2.9-43.85-2.75-65.78-.11Z"/>
    <path class="st19" d="M65.47,386.34c-.08,1.82-.15,3.64-.23,5.46-6.92,10.14-.04,22.18-5.1,34.8-1.67-19.15-1.78-36.04,3.34-52.92,3.28,3.98.9,8.6,1.99,12.66Z"/>
    <path class="st10" d="M98.84,290.56c-4.34,8.85-8.68,17.7-13.01,26.55-4.23-13.05,3.53-20.22,13.01-26.55Z"/>
    <path class="st24" d="M438.47,564.83c2.84-6.98,8.12-11.65,14.47-15.31-1.08,8.64-6.27,13.4-14.47,15.31Z"/>
    <path class="st18" d="M357.62,615.67c3.98-1.62,7.96-3.25,11.93-4.87-2.61,4.98-5.5,9.27-11.93,4.87Z"/>
    <path class="st5" d="M341.87,624.27c1.74-6.71,7.96-6.1,12.76-7.82-1.58,6.97-8.45,5.29-12.76,7.82Z"/>
    <path class="st7" d="M189.94,466.43c-5.73-9.2-10.63-18.72-11.47-29.81,3.45-3.75.41-8.65,2.26-12.68.13-1.99-1.73-.32-1.63,0,1.15,3.48,2.14,7.17-.87,10.38-5.25-10.84-2.77-22.29-2.64-33.55,3.59-4.69-.21-10.69,2.76-15.49,4.57-27.09,20.35-46.6,42-62.14,2.39-.12,4.75-.29,5.21-3.39,27.8-22.22,90.28-24.34,121.06,5.53,10.1,9.81,21.05,18.54,29.03,30.33-31.96,18.88-63.93,37.76-95.89,56.64-.27,2.65-1.69,4.77-3.9,5.91-29.17,15.15-55.74,34.93-85.92,48.27Z"/>
    <path class="st21" d="M189.94,466.43c7.69-11.76,21.49-14.58,32.37-21.56,18.51-11.87,38.24-21.85,57.46-32.62,9.1-.22,15.4,5.88,22.52,10.05,24.4,14.31,48.72,28.74,73.08,43.12-38.45,59.02-103.11,68.21-155.98,33.16-11.75-7.79-19.72-21.29-29.43-32.15Z"/>
    <path class="st16" d="M480.11,377.1c4.8-9.36-.7-19.78,3.04-29.25,3.78-3.87,8.05-2.23,12.29-1.12,9.07,9.21,5.57,19.73,3.17,30.14,6.56,5.1,14.09,1.48,21.12,2.17,4.95.49,8.39.83,8.43,7.23.04,6.56-2.69,8.07-8.79,8.49-23.24,1.57-23.22,1.81-21.41,26.85,9.46,4.44,20.23-1.66,29.58,3.65-.02,5.74,2.74,11.98-2.96,16.71-5.97,3.19-11.96,3.07-17.96.08-.92,0-1.84-.02-2.76-.03-.8,1.28-1.07,3.23-3.34,2.67-6.5,5.49-2.39,12.82-3.04,19.24-.56,5.53-2.49,7.71-8.05,7.89-5.9.19-7.8-2.2-7.56-7.8.27-6.36-.05-12.74-.15-19.11,0-.23-.5-.68-.61-.63-.45.18-.83.51-1.23.79-.58.57-1.16,1.15-1.75,1.72-.12-.81-.23-1.62-.35-2.43l.18.23c-6.2-1.99-13.13,1.45-19.06-2.54l-1.26-.65-1.29.59c-1.12.02-2.19.24-3.21.71-4.53,5.59-1.58,12.12-2.2,18.19-.54,5.22,1.23,10.99-7.6,10.99-8.14,0-7.76-4.65-8.34-10.47-.64-6.38,3.59-13.59-2.71-19.15-1.18,2.02-2.2,1.94-3.07-.23-.92,0-1.84.02-2.76.03-7.02,2.65-14,3.77-20.81-.64-1.34-5.49-1.31-10.99-.16-16.51,8.87-3,17.83-2.16,26.79-.54,6.55-7.71,1.74-16.69,2.66-25.03.56-5.02-3.96-4.65-7.38-4.7-4.95-.07-9.92-.26-14.86.03-5.41.32-8.27-1.22-8.12-7.32.13-5.15.77-8.3,7.2-8.3,7.28,0,17.24,3.63,21.31-1.69,5.59-7.31,1.63-18.04,1.73-27.31,1.24-1.9,2.65-3.59,4.93-4.32,3.44.54,7.54-1.94,10.17,2.24,3.06,9.52-2,19.87,3.02,29.18l-.03-.03c9.11,3.31,18.21,3.45,27.3-.08l-.05.06Z"/>
    <path class="st1" d="M498.6,376.88c-4.19-9.39,2.69-20.49-4.53-29.41.79-1.4,1.86-1.58,3.17-.72,8.81,7.21,9.42,20.65,1.37,30.13Z"/>
    <path class="st14" d="M500.8,421.57c0-.99.01-1.98.01-2.97q.05-22.07,24.58-18.64c-18.78-3.09-24.67,5.26-21.57,21.61-1.01,1.07-2.02,1.07-3.03,0Z"/>
    <path class="st14" d="M429.2,421.58c1.82-15.24-.08-27.04-21.82-20.48,24.33-6.57,25.05-5.88,24.68,20.62-1.01,1.13-1.96,1.09-2.85-.14Z"/>
    <path class="st2" d="M438.89,347.43c-1.37.87-2.73,1.74-4.1,2.61-5.76,6.04.16,14.53-6.47,24.35,3.42-11.72-5.5-22.22,7.58-27.75,1.28-.84,2.27-.52,2.99.78Z"/>
    <path class="st23" d="M453.11,442.71c.75-1.7,1.82-1.91,3.21-.71,0,7.84,0,15.67,0,23.51-1.07.05-2.14.1-3.21.16v-22.95Z"/>
    <path class="st9" d="M429.18,442.04c1.02.08,2.05.15,3.07.23,0,9.01,0,18.02,0,27.03-1.02,0-2.05,0-3.07-.01v-27.25Z"/>
    <path class="st9" d="M500.5,444.71c.15-2.1.96-3.37,3.34-2.67,0,9.07,0,18.15,0,27.23l-3.34-.02v-24.53Z"/>
    <path class="st22" d="M500.8,421.57c1.01,0,2.02,0,3.03,0,7.83,1.71,16.76-3.65,23.71,3.7-9.68-2.66-20.56,4.39-29.58-3.65.95,0,1.9-.01,2.85-.05Z"/>
    <path class="st8" d="M429.2,421.58c.95.04,1.91.09,2.86.14.09.88.16,1.77.19,2.66-8.93.18-17.86.36-26.79.54,7.14-6.65,15.9-1.76,23.75-3.34Z"/>
    <path class="st22" d="M477.75,444.37c.91-.39,1.61-.15,2.1.71,0,7.78,0,15.56,0,23.34-.7.03-1.4.05-2.1.08v-24.13Z"/>
    <path class="st23" d="M452.89,377.15v-23.39c1.91,7.85,6.22,15.87-.03,23.36,0,0,.03.03.03.03Z"/>
    <path class="st22" d="M476.94,373.9v-23.2c.79-.03,1.58-.06,2.37-.09v23.18c-.73,1.32-1.52,1.29-2.37.11Z"/>
    <path class="st4" d="M476.94,373.9c.8,0,1.59-.04,2.38-.11.26,1.11.53,2.21.8,3.32,0,0,.05-.06.05-.06-5.85,0-11.71,0-17.56,0-.04-1.05-.09-2.1-.13-3.15h14.46Z"/>
    <path class="st4" d="M408.9,376c4.31-2.84,8.97-2.24,14.38-1.41-4.84,4.41-9.76.62-14.38,1.41Z"/>
    <path class="st4" d="M405.61,441.42c6.94.21,13.87.43,20.81.64-7.1,5.04-14.08,6.25-20.81-.64Z"/>
    <path class="st0" d="M510.48,374.48h12.59c-5.22,3.33-9.16,2.53-12.59,0Z"/>
    <path class="st1" d="M532.32,440.13c-2.47-4.53-2.1-8.51-.32-13.13,2.48,4.52,2.13,8.51.32,13.13Z"/>
    <path class="st1" d="M532,379.26c2.47,4.53,2.12,8.51.33,13.13-2.47-4.52-2.12-8.51-.33-13.13Z"/>
    <path class="st4" d="M458.87,442.06c6.47-.03,13.48-4.12,19.06,2.54-6.51.35-13.4,3.53-19.06-2.54Z"/>
    <path class="st4" d="M506.61,442.06c5.98-1.34,11.97-1.24,17.96-.08-5.96,5.53-11.95,5.08-17.96.08Z"/>
    <path class="st8" d="M438.89,347.43c-1-.26-2.01-.52-3-.78,5.06-3.7,9.85-4.55,14,1.32-3.66-.18-7.33-.36-10.99-.54Z"/>
    <path class="st11" d="M497.23,346.75c-1.06.24-2.11.48-3.17.72-3.64.13-7.28.26-10.92.39,4.27-5.72,9.06-4.96,14.09-1.11Z"/>
    <path class="st11" d="M400.44,426.08c2.29,4.52,2.26,7.54.62,10.81-2.71-2.84-1.65-5.84-.62-10.81Z"/>
    <path class="st8" d="M400.84,382.35c1.97,3.12,1.73,6.15.11,10.25-2.09-3.94-2.24-6.95-.11-10.25Z"/>
    <path class="st7" d="M250.17,194.99c21.94-5.05,43.86-5.25,65.78.11-21.93-.04-43.86-.07-65.78-.11Z"/>
    <path class="st19" d="M178.23,434.31c.3-4.2.6-8.4,1.2-16.92,2.45,9.54,3.74,14.64-.97,19.24-.38-.74-.46-1.51-.23-2.32Z"/>
    <path class="st10" d="M225.56,319.74c2.17,1.19,2.65,2.81.72,4.48-2.27,1.96-4.37,1.55-5.93-1.09,1.74-1.13,3.47-2.26,5.21-3.39Z"/>
    <path class="st3" d="M178.35,385.27c-.29,5.27,2.25,11.05-2.76,15.49-.23-5.37-.77-10.79,2.76-15.49Z"/>
    <path class="st13" d="M456.07,395.18c7.05.32,14.5-3.36,21.04,2.08,4.19,8.01,3.83,16.15.67,24.37-7.31,2.44-14.69,1.83-22.09.45-3.82-9.02-4.2-18,.37-26.91Z"/>
    <path class="st6" d="M456.07,395.18c0,8.82,0,17.64,0,26.45,1.05.63,1.4,1.27,1.05,1.91-.34.64-.69.96-1.04.96-7.35-6.07-7.37-23.01-.02-29.32Z"/>
    <path class="st8" d="M476.9,421.6c.07-8.12.14-16.23.21-24.35,9.09,8.05,4.19,17.53,2.73,26.66-1.34-.32-2.34-1.07-2.95-2.31Z"/>
    <path class="st8" d="M476.9,421.6c.98.77,1.96,1.54,2.95,2.31-7.87,2.12-15.81,1.25-23.75.58,0-.96-.02-1.91-.02-2.87,6.94,0,13.88-.02,20.82-.02Z"/>
  </g>
  <path class="st15" d="M127.17,636.11c.05-.63,0-.38-.12.75l-4.19,4.19.24-.09-4.62-.6.15.11-2.15-2.15c-.36-.91-.46-1.11-.31-.6.11.45.1.29-.01-.47.14.25.03.83.01,1.1-.03.78-.13,1.55-.23,2.32h12c.06-.83.02-1.64-.04-2.47-.03-.37-.06-.75-.07-1.12s.1-1.76-.12-.18h-11.57c.31,1.1.09-1.31-.06-.24-.08.53-.02,1.11-.03,1.64-.02,1.02-.03,2.04-.05,3.05-.05,3.14,2.8,6.14,6,6s5.94-2.64,6-6c.04-2.47.4-5.25-.28-7.64s-3.16-4.52-5.79-4.4c-1.07.05-2.09.32-3.03.82-1.14.6-2.57,2.26-2.76,3.59-.2,1.4-.36,2.65-.27,4.05.06.98.14,1.93.07,2.91-.22,3.14,2.92,6.14,6,6,1.55-.07,3.16-.58,4.24-1.76,1.15-1.25,1.55-2.57,1.76-4.24.35-2.79.4-5.91-1.1-8.41s-4.43-3.6-7.16-2.77c-2.06.63-3.56,2.13-4.19,4.19-.25.8-.26,1.61-.31,2.44-.21,3.14,2.91,6.14,6,6,3.43-.15,5.78-2.64,6-6h0Z"/>
  <path class="st15" d="M527.02,377.03c-.52,3.57,0,6.61.29,10.15.26,3.06.09,6.17-.02,9.23h12c-.29-5.32-.68-10.77.14-16.06.5-3.2-.82-6.45-4.19-7.38-2.85-.78-6.88.97-7.38,4.19-1.01,6.45-.93,12.75-.57,19.25.42,7.69,11.71,7.76,12,0,.1-2.71.19-5.43.08-8.14-.11-2.57-1.15-5.5-.78-8.05.46-3.2-.79-6.45-4.19-7.38-2.82-.77-6.91.96-7.38,4.19h0Z"/>
  <path class="st15" d="M527.93,392.74l-12.81,1.07c-3.95.33-8.75.08-12.58,1.13-8.28,2.28-4.65,12.8-2.95,18.51,2.19,7.39,13.78,4.24,11.57-3.19-.54-1.83-2.37-5.7-1.98-7.65l-4.19,4.19c3.09-1.21,7.78-.8,11.04-1.07l11.9-.99c7.64-.64,7.71-12.64,0-12h0Z"/>
  <path class="st15" d="M530.06,413.77c-8.87.56-17.73.79-26.62.69l5.79,7.6c.55-2.77.82-5.39.56-8.2-.6-6.65-9.57-8.26-11.79-1.6-.98,2.96-.93,5.63-.46,8.68,1.18,7.61,12.75,4.38,11.57-3.19-.08-.81.07-1.58.46-2.3l-11.79-1.6c.16,1.77.21,3.26-.14,5.01-.76,3.81,1.67,7.55,5.79,7.6,8.88.1,17.75-.13,26.62-.69,7.67-.48,7.72-12.49,0-12h0Z"/>
  <path class="st15" d="M528.52,442.84c-4.93-.42-9.87-.85-14.82-1-3.95-.12-9.49-.85-13.22.64-2.66,1.06-4.19,2.89-4.4,5.79-.17,2.39,1.03,4.71,1.97,6.83,3.12,7.05,13.46.95,10.36-6.06l-.33-.77-4.4,5.79c3.05-1.22,8.6-.28,11.88-.14,4.33.19,8.65.56,12.96.93,7.69.65,7.65-11.35,0-12h0Z"/>
  <path class="st15" d="M530.26,439.85c-8.34.88-16.72.71-24.97,2.41-7.56,1.56-4.36,13.13,3.19,11.57,7.16-1.48,14.53-1.21,21.78-1.98s7.68-12.82,0-12h0Z"/>
  <path class="st15" d="M525.21,420.64c.04,4.05.77,7.99,1.47,11.97s.53,7.96,1.2,11.92c1.27,7.6,12.84,4.38,11.57-3.19-.57-3.37-.38-6.91-.93-10.33s-1.27-6.82-1.31-10.37c-.08-7.72-12.08-7.74-12,0h0Z"/>
  <path class="st15" d="M498.1,469.93c-5.44,1.26-10.94,1.17-16.5,1.06v12c5.38.02,10.75-.08,16.13-.32,7.76-.34,7.68-11.46,0-12-6.29-.44-12.58-.73-18.89-.88v12c8.57-.26,17.13-.49,25.7-.36,7.72.12,7.73-11.88,0-12-8.57-.14-17.13.09-25.7.36-7.71.23-7.74,11.82,0,12,6.3.14,12.6.44,18.89.88v-12c-5.38.23-10.75.34-16.13.32-7.73-.03-7.72,11.84,0,12,6.65.13,13.18.02,19.69-1.49,7.52-1.74,4.34-13.31-3.19-11.57h0Z"/>
  <path class="st15" d="M496.18,449.86c1.13,8.48.3,16.96,1.9,25.39,1.44,7.58,13.01,4.37,11.57-3.19s-.49-14.81-1.47-22.2c-.43-3.24-2.45-5.96-6-6-2.91-.03-6.43,2.79-6,6h0Z"/>
  <path class="st15" d="M451.51,470.72l-15.76,1.14c-7.61.55-7.81,12.01,0,12,4.69,0,9.55.35,14.2-.26,7.6-1,7.81-11.19,0-12-4.99-.51-9.98-.8-15-.85v12c4.54-.12,9.06-.02,13.6.13,3.82.12,8.68,1.05,12.33-.26,7.21-2.59,4.1-14.19-3.19-11.57-2.82,1.01-8.04-.14-10.95-.22-3.93-.12-7.85-.18-11.78-.07-7.71.21-7.74,11.92,0,12,5.02.05,10.01.34,15,.85v-12c-4.65.61-9.51.25-14.2.26v12l15.76-1.14c7.66-.55,7.72-12.56,0-12h0Z"/>
  <path class="st15" d="M450.73,448.81c.11,4.13.2,8.25.24,12.38.02,1.9.03,3.81.02,5.71,0,.95,0,1.9,0,2.86-.16,2.55-.01,2.54.45-.03l3.59-2.76c-.14.36-.48.43-1.03.21-7.58.89-7.67,12.9,0,12,5.58-.65,8.73-2.49,8.99-8.47.32-7.27-.05-14.64-.25-21.9-.21-7.71-12.22-7.74-12,0h0Z"/>
  <path class="st15" d="M437.29,472.42c-1.43-8.24-1.03-16.7-2.16-24.99-.44-3.24-4.55-4.94-7.38-4.19-3.47.92-4.63,4.19-4.19,7.38,1.14,8.31.72,16.7,2.16,24.99,1.32,7.59,12.89,4.38,11.57-3.19h0Z"/>
  <path class="st15" d="M405.33,443.02c.16-3.31.33-6.64.13-9.96s-1.11-6.73-1.23-10.12c-.27-7.7-12.27-7.74-12,0,.12,3.42,1.03,6.72,1.23,10.12s.03,6.64-.13,9.96c-.37,7.72,11.64,7.7,12,0h0Z"/>
  <path class="st15" d="M401.4,424.61c4.63,1.19,8.93.07,13.61.07s9.6.7,14.46.29c7.64-.65,7.71-12.66,0-12-4.26.36-8.4-.1-12.65-.24-3.95-.13-8.44,1.28-12.23.31-7.48-1.92-10.68,9.65-3.19,11.57h0Z"/>
  <path class="st15" d="M435.05,415.72c.1-5,1.5-11.9-.05-16.68-1.66-5.13-7.65-5.16-12.1-4.67-5.4.59-10.83,1.21-16.28,1.15-1.92-.02-3.93-1.4-2.2,1.1,2.33,3.35.45-.5.22-.88-.41-.66-1.28-1.18-1.62-1.82-.7-1.31-.96-3.89-1.31-5.34-1.85-7.49-13.42-4.32-11.57,3.19.53,2.17.87,4.56,1.71,6.63.28.93.73,1.77,1.36,2.51.94,1.6,1.19,1.65.74.15,2.29,3.52,3.24,5.36,7.8,6.09s9,.29,13.43,0c2.31-.15,4.59-.44,6.89-.7,1.09-.16,2.19-.27,3.29-.32,1.89.22,2.16.11.82-.33l-2.76-3.59c.79,3.95-.3,9.4-.38,13.49-.15,7.72,11.85,7.72,12,0h0Z"/>
  <path class="st15" d="M393.62,375.54c-.54,6.43-.42,12.8.4,19.2.68,5.28,2.23,9.51,8.24,9.95,7.7.56,7.67-11.44,0-12l-.81-.06,4.24,1.76c.91.76.02-2.28-.06-3.13-.17-1.74-.27-3.49-.33-5.24-.11-3.5.04-6.99.33-10.49.65-7.69-11.36-7.65-12,0h0Z"/>
  <path class="st15" d="M426.15,394.65c-5.17.36-10.3.62-15.48.15v12c3.9-.34,7.77-.47,11.68-.39v-12c-6.14.19-12.27.2-18.41.04-7.72-.2-7.72,11.8,0,12,6.14.16,12.27.14,18.41-.04,7.71-.24,7.74-11.85,0-12-3.91-.08-7.78.05-11.68.39-7.72.68-7.71,11.29,0,12,5.17.48,10.31.21,15.48-.15,7.66-.53,7.72-12.53,0-12h0Z"/>
  <path class="st15" d="M404.11,381.03c7.44-.02,14.88-.28,22.3-.78s7.72-12.52,0-12-14.86.76-22.3.78-7.74,12.02,0,12h0Z"/>
  <path class="st15" d="M423.44,346.01c-.08,6.95-.86,14.28.71,21.1s11.82,5.12,11.79-1.6c-.02-3.3-.04-6.59-.05-9.89h-12c.82,6.35-.32,12.09-.3,18.39.03,7.72,12.03,7.74,12,0-.02-6.31,1.12-12.02.3-18.39-.95-7.41-12.04-7.97-12,0,.02,3.3.04,6.59.05,9.89l11.79-1.6c-1.29-5.6-.35-12.18-.28-17.91.09-7.72-11.91-7.73-12,0h0Z"/>
  <path class="st15" d="M431.94,348.36c9.54.05,19.07-.07,28.6-.35,7.7-.23,7.74-12.23,0-12-9.53.28-19.06.4-28.6.35-7.72-.04-7.73,11.96,0,12h0Z"/>
  <path class="st15" d="M481.64,348.74c5.45.06,10.89.06,16.34,0,7.72-.08,7.74-12.08,0-12-5.45.06-10.89.06-16.34,0-7.72-.08-7.73,11.92,0,12h0Z"/>
  <path class="st15" d="M495.77,350.85c.68,3.53.33,6.88.35,10.45,0,1.72.2,3.39.44,5.09.2,1.36,1.29,3.99,1.05,5.24-1.48,7.54,10.09,10.77,11.57,3.19.89-4.52-1.04-8.97-1.06-13.52s.11-9-.77-13.64c-1.45-7.58-13.02-4.37-11.57,3.19h0Z"/>
  <path class="st15" d="M469.84,349.28c.67,3.8.56,7.67.51,11.52-.02,2.12.81,7.89-.46,9.65l3.59-2.76c-4.98.98-11.24,0-16.35-.04-7.72-.06-7.73,11.94,0,12,5.1.04,10.22.14,15.31,0,4.38-.13,7.62-1.21,9.06-5.76,1.3-4.1.8-8.82.85-13.08.06-4.97-.08-9.8-.94-14.71-1.34-7.59-12.91-4.37-11.57,3.19h0Z"/>
  <path class="st15" d="M473.2,406.01v4.06c0,3.97,5.55,3.72,6,0,.25-2.01.41-4,.49-6.02h-6c.2,4.69,1.13,11.19-.53,15.68l2.1-2.1c-2.67.73-6.06.47-8.83.59-4.69.2-8.7-.23-9.25-5.72-.32-3.17-.64-8.89,2.94-10.08,2.98-.99,7.42.51,10.17,1.52,2.27.84,4.16-1.64,3.69-3.69-.41-1.79-1.01-2.45-2.52-3.42-3.26-2.09-6.27,3.1-3.03,5.18l-.23-.16,3.69-3.69c-5.28-1.95-15.75-4.12-19.17,2.01-1.65,2.96-1.61,7.42-1.58,10.72.03,3.55.68,7.18,3.08,9.93,2.14,2.46,4.98,3.29,8.16,3.46,4.12.21,8.83.07,12.91-.55,2.63-.4,3.6-1.58,4.12-4.14.99-4.9.51-10.59.29-15.55-.17-3.86-5.85-3.87-6,0-.08,2.02-.24,4.01-.49,6.02h6v-4.06c0-3.86-6.01-3.87-6,0h0Z"/>
  <path class="st16" d="M480.57,394.54c-.91,2.1-1.74,4.1-1.73,6.44.01,1.8.47,3.66.78,5.43.51,2.93,3.89,4.66,6.58,4.3s5.45-2.91,5.2-5.89l-.02-.28c-.26-3.12-2.58-6.15-6-6-3.03.14-6.27,2.65-6,6l.02.28,11.79-1.6c-.09-.5-.17-1-.26-1.49-.04-.24-.08-.48-.13-.73-.07-.45-.06-.3.06.44l-.02-.46c.02-.66.01-.62-.03.12-.09-.16.7-1.84.12-.5.67-1.54,1.07-2.94.6-4.62-.38-1.39-1.46-2.9-2.76-3.59-2.59-1.37-6.87-.92-8.21,2.15h0Z"/>
  <path class="st16" d="M478.73,398.67c.59,3.1,1.16,6.2,1.73,9.31s4.49,5.13,7.38,4.19c3.32-1.07,4.79-4.06,4.19-7.38-.56-3.1-1.14-6.21-1.73-9.31s-4.47-5.13-7.38-4.19c-3.3,1.07-4.82,4.07-4.19,7.38h0Z"/>
  <path class="st16" d="M479.84,405.17c.81,7.17.61,14.38.58,21.58-.03,7.72,11.97,7.73,12,0,.03-7.2.23-14.41-.58-21.58-.37-3.25-2.5-5.96-6-6-2.96-.03-6.36,2.78-6,6h0Z"/>
  <path class="st16" d="M482.15,424.5c-9.62-.77-19.22-.45-28.85-.06-7.69.32-7.73,12.32,0,12,9.63-.4,19.23-.72,28.85.06,7.7.62,7.66-11.38,0-12h0Z"/>
  <path class="st16" d="M441.81,392.28c-.25,5.75.16,11.48.15,17.23s-1.1,11.34-.92,17.04c.15,4.9,6.64,8.3,10.24,4.24,4.15-4.69,2.79-12.45,2.93-18.34.17-7.05-.75-14.03-.64-21.06.12-7.72-11.88-7.73-12,0-.09,5.75.73,11.45.71,17.19,0,2.45-.1,4.9-.16,7.35-.03,1.16-.06,2.32-.09,3.48-.02.61-.78,4.64.76,2.9l10.24,4.24c-.17-5.7.91-11.33.92-17.04s-.4-11.48-.15-17.23c.34-7.72-11.66-7.71-12,0h0Z"/>
  <path class="st16" d="M484.83,385.87c-11.57-1.73-23.28-3.46-35.01-2.33-6.88.66-7.98,9.26-1.6,11.79,5.1,2.01,10.9,1.53,16.28,1.59,6.1.08,12.2.16,18.3.24,7.72.1,7.73-11.9,0-12-5.46-.07-10.91-.14-16.37-.21-4.89-.06-10.4.63-15.02-1.19l-1.6,11.79c10.64-1.02,21.32.33,31.82,1.9,7.55,1.13,10.81-10.43,3.19-11.57h0Z"/>
  <path class="st15" d="M474.92,403.05c.36.07.67,0,.94-.21l-2.1-2.1c.83,2.33,1.05,7.15-.14,9.37-1.83,3.4,3.35,6.44,5.18,3.03,1.68-3.13,1.64-7.07,1.26-10.52-.15-1.32-.11-3.03-.82-4.19-1-1.63-2.66-1.57-4.33-1.39-3.8.41-3.84,6.41,0,6h0Z"/>
  <path class="st15" d="M473.58,379.43c2.54.16,6.64.79,7.92-2.07.59-1.31.48-3.01.54-4.42.07-1.63.1-3.27.09-4.91,0-3.27-5.31-4.23-5.89-.8-.54,3.17.37,6.29.01,9.43l.88-2.12-.21.21,2.12-.88h-.28c-3.84.21-3.87,6.21,0,6.01,5.66-.29,2.68-7.61,3.27-11.07l-5.89-.8c0,2.3.31,5.14-.27,7.37l1.38-1.79c.35-.23-1.15-.09-1.44-.1-.74,0-1.49-.04-2.23-.09-3.86-.25-3.84,5.75,0,6h0Z"/>
  <path class="st15" d="M450.99,368.78c-.51,2.86-.63,6.13.78,8.79.73,1.38,1.96,2.3,3.56,2.36,1.47.06,3.05-.4,4.53-.52,1.62-.12,3-1.29,3-3,0-1.53-1.38-3.12-3-3-1.51.11-3.34.65-4.75.49l1.51.41c.6.33.35.65.24-.15-.05-.39-.18-.75-.22-1.14-.09-.88-.03-1.78.12-2.65.28-1.59-.43-3.23-2.1-3.69-1.45-.4-3.4.49-3.69,2.1h0Z"/>
  <path class="st15" d="M429.33,371.99c.04.21.05.42.03.63.02-.27,0-.22-.05.16-.08.47-.16.96-.16,1.44.02.26.05.52.09.77.04.43.06.53.05.31.02.18.01,1.56.17.67l2.1-2.1c.42-.17.25-.01-.16-.03-.27,0-.53-.03-.79-.07-1.56-.18-3.07,1.51-3,3,.08,1.78,1.32,2.8,3,3,2.34.27,4.75-.54,4.76-3.31,0-.75-.17-1.65-.22-2.26.01-.37.02-.43,0-.16l.06-.32c.11-.57.19-1.17.11-1.74-.2-1.55-1.23-3.08-3-3-1.45.06-3.22,1.33-3,3h0Z"/>
  <path class="st15" d="M425.14,380.37l7.22-.23c.61-.02,1.3.03,1.87-.21.87-.37,1.2-1.11,1.21-2.01,0-1.21,0-2.42,0-3.64,0-.78-.69-1.54-1.5-1.5s-1.5.66-1.5,1.5c0,.66,0,1.33,0,1.99,0,.32,0,.63,0,.95,0,.17,0,.35,0,.52v.17c-.01.31.02.23.1-.22l.54-.54c-.31.23.62,0,.23-.05-.19-.02-.41.01-.61.02l-1.04.03-2.18.07-4.35.14c-.78.02-1.54.67-1.5,1.5s.66,1.53,1.5,1.5h0Z"/>
  <path class="st15" d="M450.84,374.94c.07.4.2.79.31,1.18.06.19.12.39.16.59.01.05.02.1.03.15.02.12.02.07-.01-.15,0,0,.02.29.02.3,0,.59-.03,1.13.27,1.68.08.14.18.29.29.42.09.1-.12-.36-.04-.04.06.23.16.44.31.63.47.61,1.11.73,1.84.68.46-.03.92-.07,1.38-.1.92-.07,1.83-.14,2.75-.21.78-.06,1.54-.65,1.5-1.5-.03-.76-.66-1.56-1.5-1.5-.78.06-1.57.12-2.35.18-.38.03-.76.06-1.15.09-.19.01-.38.03-.57.04-.1,0-.19.02-.29.02-.54.04.27-.12.63.34l.39.66c-.15-.41-.26-.8-.55-1.14-.06-.1-.04-.04.06.15.02.22.03.27.02.16,0-.08,0-.17,0-.25,0-.2.01-.4,0-.6-.09-.89-.44-1.69-.6-2.56-.14-.77-1.13-1.28-1.85-1.05-.83.27-1.19,1.01-1.05,1.85h0Z"/>
  <path class="st15" d="M497.84,375.23c.12,1.07.35,2.06.77,3.05.26.62.54,1.22,1.2,1.5.6.25,1.2.18,1.82.15,2.1-.1,4.19-.21,6.29-.31.78-.04,1.54-.66,1.5-1.5-.03-.78-.66-1.54-1.5-1.5-1.25.06-2.49.12-3.74.18-.62.03-1.25.06-1.87.09-.28.01-.57.03-.85.04-.17,0-.34.02-.51.03h-.17c-.18.01-.18.01,0,0l.66.39c.17.15.04.07-.02-.06-.03-.07-.14-.31-.06-.13-.09-.23-.18-.47-.25-.71-.07-.22-.12-.44-.17-.66-.03-.12-.05-.25-.07-.37-.07-.31,0,.15-.03-.2-.09-.78-.63-1.54-1.5-1.5-.74.03-1.6.67-1.5,1.5h0Z"/>
  <path class="st15" d="M502.82,394.63c-1.41.12-2.94.26-4.3.7-.77.25-1.37.77-1.63,1.55-.2.62-.15,1.29-.12,1.93.11,2.86.22,5.73.32,8.59.03.81.67,1.5,1.5,1.5.79,0,1.53-.69,1.5-1.5-.09-2.42-.18-4.85-.27-7.27-.02-.59-.05-1.18-.07-1.76,0-.06.03-.64,0-.67.13.1-.35.5-.36.49.01.03,1.62-.34,1.76-.36.55-.09,1.11-.16,1.67-.21.81-.07,1.5-.64,1.5-1.5,0-.76-.69-1.57-1.5-1.5h0Z"/>
  <path class="st15" d="M429.03,397.53l1.98-.1c.48-.02,1.31-.22,1.71-.05l-.9-.69c-.07-.4-.09-.41-.07-.03v.28c0,.33,0,.66,0,.98,0,.56,0,1.12,0,1.69,0,1.17.02,2.34.03,3.51.02,2.34.04,4.69.07,7.03.02,1.93,3.02,1.93,3,0-.04-3.42-.07-6.84-.09-10.26,0-.84-.01-1.69-.01-2.53s.1-1.68-.46-2.34c-.67-.79-1.64-.67-2.58-.63l-2.68.13c-1.92.09-1.93,3.09,0,3h0Z"/>
  <path class="st15" d="M432.25,419.47c.01.59.02,1.18,0,1.77s0,1.15-.07,1.72l.05-.4s-.01.06-.03.09l.15-.36-.02.04.23-.3-.03.03.3-.23-.04.03.36-.15s-.06.02-.1.02l.4-.05c-.39.01-.78-.03-1.17-.04s-.81-.03-1.21-.05c-.78-.03-1.54.71-1.5,1.5.04.84.66,1.47,1.5,1.5.58.02,1.15.04,1.73.07.37.01.74.06,1.1-.04.41-.11.81-.39,1.02-.76.17-.3.23-.6.26-.94.1-1.14.09-2.3.06-3.44,0-.39-.16-.78-.44-1.06-.26-.26-.69-.46-1.06-.44-.8.04-1.52.66-1.5,1.5h0Z"/>
  <path class="st15" d="M430.3,445.17c.84-.02,1.67-.02,2.51.02.06,0,.29-.03.34.02l-.21-.03c-.47-.18-.72-.46-.75-.86-.05-.22-.01-.02,0,.04,0,.1,0,.21,0,.31.02.5.09,1,.17,1.5.06.39.14.77.21,1.16.04.19.07.39.1.58.06.37-.02-.21,0,0,0,.1.02.19.03.29,0,.09.05,1.05,0,1.05.03-.19.03-.23.02-.11,0,.04-.01.08-.02.11-.02.09-.04.19-.06.28-.02.07-.04.15-.07.22-.11.36.14-.27-.03.07-.34.7-.21,1.65.54,2.05.67.36,1.68.21,2.05-.54.48-.98.66-2.04.58-3.13-.04-.54-.13-1.08-.22-1.61-.05-.26-.1-.51-.14-.77-.02-.11-.04-.21-.06-.32,0-.04-.06-.45-.04-.25.02.21-.01-.15-.02-.19-.01-.13-.02-.26-.02-.39,0-.26,0-.5-.04-.75-.11-.8-.68-1.51-1.5-1.65-1.08-.19-2.25-.13-3.34-.1-.78.02-1.54.67-1.5,1.5s.66,1.52,1.5,1.5h0Z"/>
  <path class="st15" d="M454.71,442.77c-.7-.22-1.33-.02-1.97.26-.27.12-.04-.04.02,0-.01,0-.29.08-.31.09-.31.06-.55.11-.84.26-.98.52-1.44,1.68-1.31,2.75.04.31.09.61.16.91.02.09.05.19.07.28,0,.04.04.31.07.33-.02-.2-.03-.24-.02-.13,0,.05.01.11.02.16,0,.09.01.18.02.28.01.2.02.41.02.61.03,1.05.14,2.04.6,2.99.35.71,1.41.95,2.05.54.72-.47.91-1.3.54-2.05-.12-.25.05.19,0,0-.02-.07-.05-.14-.06-.2-.04-.14-.03-.36-.1-.47.04.07.03.29.01.07,0-.09-.01-.18-.02-.27,0-.17-.02-.33-.02-.5-.02-.77-.07-1.53-.25-2.28-.04-.15-.07-.3-.1-.45-.08-.35,0,.2,0,0,0-.07,0-.15,0-.22-.02-.17-.09.34-.02.09.01-.05.04-.12.05-.17-.1.21-.12.26-.06.16.04-.07.03-.05-.05.05-.2.23.16-.09-.1.09-.11.08-.12.09-.01.02l-.17.08s.2-.04.22-.04c.16-.03.31-.06.47-.12.17-.07.34-.14.5-.21.21-.09-.03.04-.07.03.01,0,.18-.05.19-.06-.11.03-.21.03-.31,0-.14-.03-.14-.03-.01.01.75.23,1.67-.28,1.85-1.05.19-.81-.25-1.6-1.05-1.85h0Z"/>
  <path class="st15" d="M454.43,445.56c6.3-.03,12.6-.03,18.91.02,1.44.01,3.05.22,4.48.04.6.08.66.03.17-.17-.29-.28-.4-.26-.34.07-.15.21-.11.82-.2,1.12-.18.62-.43,1.21-.62,1.82-.84,2.8-.89,5.72-.34,8.58.32,1.64,3.1,1.29,2.95-.4-.19-2.06.13-4.02,1.09-5.86l-2.74-.36c.34,1.55-.03,3.11-.26,4.65s-.39,3.13-.41,4.71c-.04,3.19.85,6.32.73,9.5l2.56-1.06c-1.53-1.87-1.23-5.01-1.52-7.27-.36-2.8-.69-5.64-1.16-8.43s-1.86-5.17-2.94-7.63c-.51-1.16-.89-2.83-2.1-3.45-1.05-.53-2.57-.33-3.7-.24-1.91.15-1.93,3.15,0,3,.62-.05,1.25-.08,1.87-.07.14,0,.28,0,.42.01.26.01.28.01.07,0-.23-.25.13.61.16.67.56,1.28,1.13,2.57,1.69,3.85.52,1.18,1.09,2.34,1.42,3.59s.41,2.63.59,3.95c.35,2.61.77,5.2,1,7.83.2,2.32.57,4.45,2.08,6.3.88,1.07,2.52.13,2.56-1.06.12-3.34-.82-6.62-.72-9.98s1.25-6.48.56-9.68c-.27-1.24-2.16-1.48-2.74-.36-1.19,2.29-1.74,4.8-1.5,7.38l2.95-.4c-.3-1.57-.36-3.18-.15-4.77s.87-2.93,1.22-4.44c.29-1.25.53-3.14-.66-3.99s-3.14-.44-4.46-.45c-6.97-.06-13.93-.07-20.9-.03-1.93,0-1.93,3.01,0,3h0Z"/>
  <path class="st15" d="M501.48,442.35c-.95,0-1.9.02-2.85.1-.57.04-1.13.11-1.64.38-.56.31-1,.88-1.12,1.51s-.03,1.16.07,1.77c.07.48.15.97.22,1.45.15.97.29,1.93.44,2.9.05.35.4.73.69.9.32.19.8.27,1.16.15s.71-.34.9-.69c.2-.38.22-.73.15-1.16-.12-.82-.25-1.65-.37-2.47-.06-.4-.12-.8-.18-1.21-.03-.22-.07-.44-.1-.66-.01-.08-.01-.17-.04-.24.11.37.02.18.01.03,0-.08,0-.15,0-.23,0-.17-.07.38,0,.09-.05.19-.17.29-.29.43-.11.08-.12.09-.01.02l-.2.09s.18-.05.21-.05c.18-.05-.36.03-.09.01.19-.01.37-.03.56-.04.83-.05,1.66-.08,2.49-.07.78,0,1.54-.69,1.5-1.5s-.66-1.49-1.5-1.5h0Z"/>
  <path class="st15" d="M497.55,419.79c-.04.86.09,1.76.41,2.56.17.44.36.89.63,1.28.19.29.42.55.72.73.35.21.76.24,1.16.27,1.78.18,3.57.19,5.34.04.78-.06,1.54-.64,1.5-1.5-.03-.76-.66-1.57-1.5-1.5-1.52.12-3.04.14-4.55.03-.18-.01-.35-.03-.53-.04-.09,0-.18-.02-.26-.02-.12-.01-.09,0,.09.02l.62.47c-.03-.13-.17-.28-.24-.4-.04-.07-.07-.14-.1-.21-.17-.33.06.19,0-.02-.1-.32-.2-.62-.26-.95-.05-.26,0,.05,0,.05,0,0-.02-.21-.02-.23-.01-.19-.01-.39,0-.58.03-.78-.71-1.54-1.5-1.5-.84.04-1.46.66-1.5,1.5h0Z"/>
  <path class="st15" d="M476.24,418.33c-.06.73,0,1.44.11,2.16.05.3.11.6.19.9s.21.56.28.85l-.05-.4s0,.08,0,.12l.05-.4-.02.05.15-.36-.03.04.23-.3-.03.03.3-.23s-.05.03-.08.04l.36-.15s-.06.02-.09.02l.4-.05c-.25.03-.51.02-.76-.02l.4.05c-.07-.01-.15-.02-.22-.04-.4-.08-.79-.06-1.16.15-.31.18-.61.54-.69.9-.09.38-.07.81.15,1.16.2.31.52.62.9.69.45.09.92.15,1.38.11s.89-.17,1.24-.51.52-.79.52-1.27c0-.44-.22-.86-.33-1.27-.1-.34-.16-.69-.21-1.04l.05.4c-.07-.54-.08-1.08-.03-1.62.03-.36-.19-.81-.44-1.06s-.69-.46-1.06-.44-.79.14-1.06.44-.4.64-.44,1.06h0Z"/>
  <path class="st16" d="M494.24,414.21c.28,1.77.5,3.54.65,5.32.14,1.63.08,3.32.35,4.94.6,3.54,4.93,3.06,7.68,3.23,3.57.23,7.15.3,10.73.28,1.71,0,3.42-.04,5.13-.09.9-.02,1.79-.05,2.69-.08.49-.02.98-.03,1.46-.05l.49-.02c.67.08.66-.06-.04-.42l-.15-1.16-.03.22.69-.9-.16.12c-1.54,1.13-.05,3.73,1.51,2.59,1.13-.83,1.3-2.47-.07-3.2-.71-.38-1.47-.27-2.24-.24-.98.04-1.95.07-2.93.1-3.74.11-7.49.17-11.23.08-1.79-.04-3.58-.11-5.36-.22-.97-.06-1.95-.13-2.92-.21-.49-.04-.97-.08-1.46-.13-.45-.05-.63.04-.83-.37-.28-.56-.11-1.74-.15-2.33-.05-.88-.12-1.76-.2-2.63-.18-1.89-.42-3.77-.72-5.64s-3.19-1.09-2.89.8h0Z"/>
  <path class="st16" d="M482.61,440.58c-2.77.39-5.64.22-8.43.23s-5.74.04-8.6.08c-5.74.08-11.47.2-17.21.33-1.93.04-1.93,3.04,0,3,5.9-.13,11.8-.26,17.7-.33,2.87-.04,5.74-.06,8.6-.07s5.84.08,8.74-.33c1.9-.27,1.09-3.16-.8-2.89h0Z"/>
  <path class="st21" d="M349.81,622.16c-2.77-.14-5.41.15-8.13.68l3.19,11.57c3.36-1.39,6.41-1.3,9.16-4.07s2.01-9.38-2.65-10.03c-6.74-.94-11.4,1.54-17.55,3.8l4.62,10.97c2.56-1.87,6.16-2.5,9.15-3.47,3.81-1.23,7.62-2.47,11.42-3.7,7.32-2.37,4.19-13.96-3.19-11.57-4.35,1.41-8.7,2.82-13.06,4.23-3.47,1.12-7.39,1.96-10.38,4.15-5.01,3.67-2.3,13.52,4.62,10.97,3.21-1.18,7.63-4.29,11.17-3.8l-2.65-10.03c-.52.52-3.06.65-3.86.98-7.02,2.91-4.56,13.08,3.19,11.57,1.71-.33,3.2-.34,4.94-.25,7.72.39,7.7-11.61,0-12h0Z"/>
  <path class="st20" d="M444.79,540.77c-7.15,6.4-13.68,13.58-21.74,18.87-6.43,4.22-.43,14.61,6.06,10.36,8.95-5.87,16.24-13.65,24.17-20.75,5.76-5.16-2.74-13.63-8.49-8.49h0Z"/>
  <path class="st20" d="M484.66,440.57c.23,7.24.62,14.29-.47,21.48-.49,3.23.82,6.41,4.19,7.38,2.83.81,6.89-.99,7.38-4.19,1.27-8.32,1.17-16.28.9-24.67-.25-7.7-12.25-7.74-12,0h0Z"/>
  <path class="st20" d="M486.91,392.57c-.62,5.22.61,10.54.44,15.82-.19,5.92-.45,11.83-.68,17.75-.3,7.72,11.7,7.71,12,0,.23-5.92.49-11.83.68-17.75.17-5.28-1.06-10.58-.44-15.82.91-7.65-11.1-7.59-12,0h0Z"/>
</svg>