<?xml version="1.0" encoding="UTF-8"?>
<svg xmlns="http://www.w3.org/2000/svg" version="1.1" viewBox="0 0 959.4 964.2">
  <defs>
    <style>
      .cls-1 {
        fill: #fff;
      }
    </style>
  </defs>
  <!-- Generator: Adobe Illustrator 28.7.4, SVG Export Plug-In . SVG Version: 1.2.0 Build 166)  -->
  <g>
    <g id="Calque_1">
      <g id="Calque_1-2" data-name="Calque_1">
        <g id="Calque_1-2">
          <g>
            <path class="cls-1" d="M512.4,963.8H47.6c-.7-.5-1.5-1-2.4-1-3.1,0-5.9-1-8.8-2-13.4-4.5-23.4-13.1-30-25.5-4.4-8.2-6.3-17.1-6.3-26.5V66.5c0-5.7-.5-11.3.8-17.1.9-4.1,1.8-8.1,3.3-12,3.5-9.2,9.4-16.6,17.2-22.4,10-7.4,21.4-10.7,34-10.7h844.4c4.9,0,9.8-.1,14.8.8,6,1,11.6,2.9,16.9,5.7,8.1,4.2,14.5,10.3,19.4,18,3,4.7,5,9.8,6.6,15.1.9,2.8.3,5.8,1.9,8.4v863c-1.3,2.7-1.1,5.8-1.9,8.7-2.1,7.4-5.2,14.1-10.1,20-7.5,9.2-17.2,15.2-28.7,18.3-2.3.6-4.9,0-6.9,1.5h-248c.7-1.3.5-2.8.5-4.2v-362c0-2.7,1.4-4.1,4.1-4.1h115.7c1,0,2.3.5,2.9-1,.4-.8.6-1.7.3-2.7v-.6c1-3.5,1.8-6.9,1.3-10.5,0-.3,0-.6.2-1,.9-2,1.4-4.1.8-6.2,0-.5,0-1,.2-1.4,1-2,1.4-4,.8-6.2,0-.6,0-1.3.2-1.9.7-1.5,1.4-3.1.7-4.8,0-1,0-1.9.2-2.9,1-1.5,1.4-3,.8-4.8v-2.9c1.5-1.6,1.1-3.8,2-5.7.3-.7,0-1.4-1-1.6v-.9c1.5-1.1,1.2-2.7,1-4.2v-3c1.3-1.2,1.3-2.6,1-4.2v-3c1.1-1.4,1.3-3,.9-4.6v-3.1c1.3-1.2,1.3-2.5.9-4h0c.6,0,1-.5,1-1.1v-7.3c2-.7,1.2-1.5.2-2.4,0-.5,0-.9.2-1.4.9-.7.7-1.6.5-2.6h.2c0,.1-.2,0-.2,0,2-1.1.8-2.4.3-3.7,0-.3,0-.6,0-.9,1.1-2.1,2-4.3.9-6.7,0-.3,0-.6.2-.9,1-2,2-4,.8-6.3,0-.3,0-.6,0-.9,1.2-2.1,1.4-4.4.9-6.7,0-.3,0-.6,0-1,1-2,1.4-4.1.8-6.2,0-.5,0-1,0-1.4,1-2.1,1.3-4.3,1-6.6v-1.1c.8-1.8,1.2-3.6.8-5.6v-.8c.2-.6,0-1.2-.3-1.7-.8-1.6-2.2-1-3.4-1h-134c-44.6,0-3.6,0-3.6-3.6v-90.9c0-1,.4-2.3-1-2.9,0-3,1.2-6,.2-9v-1c1.4-.6,1.4-1.2,0-2v-.9c2-2.9,1.7-6.2,1.8-9.4v-.7c1.5-3.2,2.5-6.5,3.3-9.9l.9-2.1c.5-.2.7-.6.6-1.1.6-1.8,1.5-3.4,2.8-4.8,2-.5,2.9-1.9,2.9-3.9s0-.2.3-.3c.9-.3,1.5-.9,1.8-1.8.6-.5,1.2-1.1,1.8-1.6,1.1-.1,1.7-.7,2.1-1.7.6-.8,1.4-1.3,2.3-1.7.8,0,1.3-.4,1.6-1,.6-.4,1.2-.7,1.8-1.1.2.2.4.4.6.7,1.6-1.6,4.2-1.4,5.9-2.8,2.6-2.1,5.9-2.2,8.7-3.5,3.1-1.4,6.7-1.2,9.9-2.5h.7c4.1-.2,8.3-.7,12.4-.7,27.3,0,54.7,0,82-.1,2.9,0,3.2-.3,3.2-3.1v-124c0-1.5.3-3.1-.9-4.3-1.2-1.8-3.5-2-5.3-.4-.8,0-1.6-.1-2.4-.5-1.9-1.8-5.9-2.1-7.7-.5-.7,0-1.3,0-1.9-.4-.2-.6-.6-.9-1.2-1-2.2-.2-4.4-.4-6.7-.5-1.1,0-2.5-.6-3.2.9-1.5.2-2.8-.8-4.2-.9-4-1.8-8.2-1.1-12.3-.5,0,0-.2.3-.2.4-2.1-.3-4.1-.6-6.2-.8-.4-1.1-1.3-1-2.2-1h-15.7c-.7,0-1.4,0-2,.6-.8-.1-1.5-.3-2.2-.4-.4-1.1-1.3-1.1-2.2-1.1h-52.1c-1.1,0-2.1,0-2.4,1.4h-.9c-2.2-1.1-4.4-.3-6.7-.5-.8,0-1.4.2-1.7,1-1,.2-2.1.3-3.1.5-1.7-.6-3.5-1.3-5,.5-.6.4-1.1.9-1.8.9-.9-1.6-2.4-1-3.6-.7-2.5.6-5,1.1-7.5,1.6-9.5,1.8-18.7,4.5-27.8,7.7-9.1,3.3-17.8,7.4-26.1,12.2-9.5,5.5-18.3,11.8-26.7,18.9-1.3,1.1-3.1,2.1-3.3,4.2-.4.4-.8.8-1.2,1.2-2.5.4-4.6,2.5-5,5,0,.1-.2.2-.3.3-1.2,0-1.9.9-2.5,1.6-6,6.7-11.6,13.6-16.3,21.2-5.8,9.4-11,19.1-15,29.4-2.9,7.6-5.5,15.2-7.6,23.1-1,4-2.2,8-2.9,12-1.2,7.3-2.4,14.6-3.2,22-.8,7.9-1.6,15.7-1.6,23.6-.2,35.6,0,71.3,0,106.9s-.5,3.8-3.7,3.9h-118.9c-1,0-1,.6-.7,1.4-.2.2-.3.4-.5.5-2.2.3-1.4,2-1.4,3.2v138c0,46,0,1.1,0,1.7,0,1,.5,1.4,1.5,1.5h0c.3,2.2,2,1.4,3.2,1.4h117c39,0,3.2-.3,4,1.8.7-1.1.4-2,.5-2.9.9-.2,1.2.2,1.2,1v367.2c0,1.1,0,2.2-.2,3.3h0l.6-.4Z"/>
            <path class="cls-1" d="M785.4,592.1h1c.3,0,.6.2.9.3-.6,1.5-1.9,1-2.9,1h-115.7c-2.7,0-4.1,1.4-4.1,4.1v362c0,1.4.2,2.9-.5,4.2h-.5c-1.3-.5-.6-1.6-.6-2.4v-367.8c.5-.4,1.1-.8,1.6-1.3h119.9c.3.3.6.3.9,0h0Z"/>
            <path class="cls-1" d="M534,239.3c-.6,1-1.2,2.1-1.8,3.1-2.5,5.1-5.1,10.1-6.4,15.6-3.4,8.4-5.4,17.3-7.8,26-.6.2-.8.5-.3,1,0,1.3-.2,2.6-.7,3.8-.6.2-.7.5-.2,1-.6,3.4-1.1,6.7-1.7,10-.8.4-.9.8-.3,1.5-.2,1.9-.5,3.8-.7,5.7-.8.4-.8.9-.2,1.5-.2,2.5-.4,5.1-.7,7.6-1.3.8-1,1.8-.4,2.9-.2,4.2-.3,8.3-.5,12.5-1.4.6-.9,1.9-.9,2.9v108.4c0,1-.5,2.3,1,2.9.3.8-.2,1.2-.9,1.3h-124.4c-.3-.7-.3-1.3.7-1.4h118.9c3.2-.1,3.7-.7,3.7-3.9,0-35.6,0-71.3,0-106.9,0-7.9.8-15.7,1.6-23.6.8-7.4,2-14.7,3.2-22,.7-4,1.8-8,2.9-12,2-7.9,4.7-15.5,7.6-23.1,4-10.3,9.2-20,15-29.4,4.7-7.6,10.4-14.5,16.3-21.2.7-.8,1.4-1.6,2.5-1.6-.5,1.5-2.5,2-2.6,3.7-1.5,1.6-2.9,3.2-4.4,4.9-.7.4-1.4.9-1.4,1.8-.3.4-.6.7-1,1.1-.6.2-1,.6-1,1.4h0c-.6.3-1,.7-.9,1.4-.2.2-.4.4-.5.6-.6.2-1,.6-.9,1.4h0c-.6.3-1,.7-.9,1.4-.2.2-.3.4-.5.6-1.3,1.1-2.3,2.6-2.8,4.2h0c-.9.5-1.3,1.4-1.4,2.4h0c-.7.3-1,.8-.9,1.5-.3.5-.7,1-1,1.5-.7.4-1,1.1-.9,1.8h0c-1,.5-1.3,1.4-1.4,2.4h0c-1.5,1.4-2.3,3.3-2.8,5.2h-.2Z"/>
            <path class="cls-1" d="M663,446.6c0-1.4,0-2.7,0-4v-94.3h.5c1.4.6,1,1.9,1,2.9v90.9q0,3.6,3.6,3.6h134.1c1.2,0,2.6-.6,3.4,1h-142.5Z"/>
            <path class="cls-1" d="M713.6,286.2c1.8-1,3.8-.9,5.8-1,29.3-1.8,58.6-.4,87.9-.8q3.1,0,3.1-3.2v-123.9c0-1.6-.3-2.6-1.8-3.1.5,0,1.1-.1,1.6-.2,1.2,1.2.9,2.8.9,4.3v106c0,35.3,0,12,0,18s-.3,3.1-3.2,3.1c-27.3,0-54.7,0-82,.1-4.1,0-8.3.5-12.4.7h.1Z"/>
            <path class="cls-1" d="M386.8,447.6v142.7c0,.6,0,1.1,0,1.7-.9,0-1.5-.5-1.5-1.5v-139.7c0-1.2-.8-2.9,1.4-3.2h0Z"/>
            <path class="cls-1" d="M386.8,592c1.5,0,3,.2,4.5.2h117c1,0,2.1,0,3.1.2,0,.9.2,1.8-.5,2.9-.8-2.1-2.5-1.8-4-1.8h-117c-1.2,0-2.9.8-3.2-1.4h.1Z"/>
            <path class="cls-1" d="M663,446.6h142.5c.2.5.5,1.1.3,1.7-.8-1.1-2-1.1-3.2-1.1h-137.7c-.7,0-1.7.7-2-.6h0Z"/>
            <path class="cls-1" d="M651.1,153.9c-1,.7-2.3,0-3.3.6-.6-.2-1.2-.2-1.5.5-.8.4-1.7-.2-2.5.4-.5,0-1.1-.2-1.3.4-.6.4-1.2.2-1.8.2-3.8.3-7.4,1.3-10.8,3.2h0c-.9-.1-1.9-.2-2.4.9-5,1.6-9.9,3.4-14.8,5.5-.3-.1-.5,0-.6.2-.2.1-.5.2-.8.3-4.7,1.5-9.1,3.6-13.1,6.6-5.8,3.1-11.3,6.7-16.7,10.7-1.2.4-2.2,1.2-3,2.1-1,.9-2,1.7-3,2.5-.7-.1-1.1.2-1.4.8-1.6,1.5-3.2,3-4.9,4.4-1,0-1.5.6-1.8,1.4-.2.2-.3.4-.5.6-.3,0-.6.2-.9.3.3-2.1,2-3.1,3.3-4.2,8.3-7.1,17.2-13.4,26.7-18.9,8.4-4.9,17.1-8.9,26.1-12.2s18.3-5.9,27.8-7.7c2.5-.5,5-.9,7.5-1.6,1.2-.3,2.7-.9,3.6.7-3,.1-5.9.5-8.7,1.9h0c-.5,0-1-.2-1.4.4h.2Z"/>
            <path class="cls-1" d="M700,149.1h-2.4c-5.8-.6-11.5-.5-17.2.1.3-1.4,1.3-1.4,2.4-1.4h52.1c.9,0,1.8,0,2.2,1.1h-34.7c-.8,0-1.6-.1-2.3.4h0v-.2Z"/>
            <path class="cls-1" d="M700,149.1c.7-.5,1.5-.4,2.3-.4h34.7c.8.1,1.5.3,2.2.4,0,.2,0,.4.2.6-1.5.7-3,.2-4.5.1-10.9-.5-21.8-.7-32.8-.7s-1.4-.1-2.1-.2h0v.2Z"/>
            <path class="cls-1" d="M687.9,294.3c3.2-2.5,7.1-3.7,10.8-5.1,3.5-1.3,7.2-1.7,10.7-2.8,1.2-.4,2.4-.3,3.5,0-3.2,1.3-6.8,1.1-9.9,2.5-2.9,1.3-6.1,1.4-8.7,3.5-1.7,1.3-4.2,1.1-5.9,2.8-.2-.2-.4-.4-.6-.7h0v-.2Z"/>
            <path class="cls-1" d="M652.5,153.5c2.7-1.4,5.7-1.7,8.7-1.9.8,0,1.3-.5,1.8-.9,1.7-.1,3.4.3,5-.5,1-.2,2.1-.3,3.1-.5,1.8.2,3.6-.4,5.3.3-8,1.1-16,2.3-24,3.4h.1Z"/>
            <path class="cls-1" d="M806.5,154c-.8.1-1.6.4-2.3.3-6.7-1.4-13.6-.8-20.2-2.3,3-1,6.1.4,9.1.1.6.5,1.2.5,1.9.4,2.6.2,5.1.3,7.7.5.7.4,1.5.5,2.4.5.5.1,1,.3,1.5.5h0Z"/>
            <path class="cls-1" d="M739.4,149.9c0-.2,0-.4-.2-.6.6-.5,1.3-.6,2-.5h15.7c.9,0,1.8,0,2.2,1-4,.2-8-.5-12,.3-2.5,0-5.1.1-7.6-.2h0Z"/>
            <path class="cls-1" d="M747,150.1c4-.8,8-.1,12-.3,2.1.3,4.1.6,6.2.8,0,.1.3.3.4.4-.6.4-1.2.3-1.8.3-5.6-.4-11.2-.8-16.8-1.2h0Z"/>
            <path class="cls-1" d="M680.3,149.2c5.7-.6,11.5-.7,17.2-.1-6.1.3-12.2.5-18.3.8,0-.2,0-.4.2-.6h.9,0Z"/>
            <path class="cls-1" d="M783,152c-1.7.7-3.5.2-5.2.1-3.2-.3-6.4-.7-9.7-1.1,3.2-.8,6.4,0,9.7-.3,1.4,0,2.7,1.1,4.2.9.3.1.6.3.9.4h0Z"/>
            <path class="cls-1" d="M566.2,195.5c.3,0,.6-.2.9-.3-3.4,3.5-6.7,7-10.1,10.5,0-1.8,2.1-2.2,2.6-3.7,0,0,.2-.2.3-.3,1.7-1.6,3.3-3.3,5-5,.4-.4.8-.8,1.2-1.2h0Z"/>
            <path class="cls-1" d="M777.8,150.7c-3.2.3-6.5-.5-9.7.3h-2.4c0-.1-.3-.3-.4-.4,0-.1,0-.4.2-.4,4.1-.6,8.3-1.3,12.3.5h0Z"/>
            <path class="cls-1" d="M783,152c-.3-.1-.6-.3-.9-.4.7-1.5,2.1-.9,3.2-.9,2.2,0,4.4.3,6.7.5.6,0,1,.4,1.2,1-3,.3-6.1-1.1-9.1-.1h-1.1Z"/>
            <path class="cls-1" d="M787.6,589.2c0-3.6.5-7.1,1.3-10.5.5,3.6-.3,7.1-1.3,10.5Z"/>
            <path class="cls-1" d="M663.5,348.2h-.5c-.6-3.1,0-6.1.7-9,.9,3-.3,6-.2,9Z"/>
            <path class="cls-1" d="M664,335.4c0-3.2.7-6.4,1.8-9.4,0,3.2.2,6.5-1.8,9.4Z"/>
            <path class="cls-1" d="M679.5,149.3c0,.2,0,.4-.2.6-1,0-1.9.1-2.8.2-1.7-.7-3.6-.1-5.3-.3.3-.8.9-1.1,1.7-1,2.2.2,4.5-.6,6.7.5h-.1Z"/>
            <path class="cls-1" d="M792.8,546.5c-.2-2.5,1-4.8,1-7.3.8.2,1.3,1,1,1.6-.9,1.8-.6,4.1-2,5.7Z"/>
            <path class="cls-1" d="M665.9,325.3c.5-3.5,1.5-6.8,3.3-9.9-.8,3.4-1.8,6.7-3.3,9.9Z"/>
            <path class="cls-1" d="M802.7,153.1c-2.6-.2-5.1-.3-7.7-.5,1.8-1.6,5.8-1.4,7.7.5Z"/>
            <path class="cls-1" d="M800,492.7c0-2.3.5-4.5.9-6.7,1.1,2.4.2,4.6-.9,6.7Z"/>
            <path class="cls-1" d="M797.6,512.2c0-2.5-.3-5,1-7.3v6.2c0,2-.4,1-1,1.1Z"/>
            <path class="cls-1" d="M801,485.1c0-2.1.3-4.2.8-6.3,1.3,2.3.2,4.3-.8,6.3Z"/>
            <path class="cls-1" d="M802,477.9c0-2.3.3-4.5.9-6.7.5,2.4.4,4.6-.9,6.7Z"/>
            <path class="cls-1" d="M806.5,154c-.5-.1-1-.3-1.5-.5,1.8-1.6,4.1-1.4,5.3.4-.5,0-1.1.1-1.6.2-.7,0-1.5-.1-2.2-.2h0Z"/>
            <path class="cls-1" d="M803,470.2c-.2-2.1.2-4.2.8-6.2.6,2.2.2,4.3-.8,6.2Z"/>
            <path class="cls-1" d="M790,570c-.5-2.2.3-4.2.8-6.2.6,2.2.2,4.3-.8,6.2Z"/>
            <path class="cls-1" d="M803.9,462.5c0-2.3,0-4.5,1-6.6.4,2.3,0,4.5-1,6.6Z"/>
            <path class="cls-1" d="M789.1,577.7c-.4-2.2.2-4.2.8-6.2.6,2.2,0,4.2-.8,6.2Z"/>
            <path class="cls-1" d="M565,196.7c-1.7,1.6-3.3,3.3-5,5,.4-2.4,2.5-4.6,5-5Z"/>
            <path class="cls-1" d="M805,454.8c-.3-2-.2-3.9.8-5.6.3,2,0,3.8-.8,5.6Z"/>
            <path class="cls-1" d="M673.5,307.5c.7-1.5,1.7-2.8,2.9-3.9,0,2-.9,3.4-2.9,3.9Z"/>
            <path class="cls-1" d="M791.9,554.2c-.5-1.7.4-3.2.8-4.8.6,1.8.2,3.3-.8,4.8Z"/>
            <path class="cls-1" d="M791,561.8c-.6-1.7.3-3.2.7-4.8.7,1.7,0,3.3-.7,4.8Z"/>
            <path class="cls-1" d="M668,150.3c-1.6.8-3.3.4-5,.5,1.5-1.8,3.3-1.1,5-.5Z"/>
            <path class="cls-1" d="M799.6,497.4c-.2-1.2,0-2.5.3-3.7.6,1.3,1.7,2.6-.3,3.7Z"/>
            <path class="cls-1" d="M795.8,523.9c-.4-1.7.4-3.1.9-4.6.3,1.7.2,3.2-.9,4.6Z"/>
            <path class="cls-1" d="M794.7,531.1c-.2-1.5.5-2.8,1-4.2.3,1.6.3,3-1,4.2Z"/>
            <path class="cls-1" d="M793.8,538.3c0-1.5.5-2.8,1-4.2.3,1.5.5,3.1-1,4.2Z"/>
            <path class="cls-1" d="M796.9,516.2c-.4-1.5.2-2.7.8-4,.3,1.5.4,2.8-.8,4Z"/>
            <path class="cls-1" d="M798.7,503.7c-.2-.8,0-1.6.2-2.4,1,.9,1.8,1.7-.2,2.4Z"/>
            <path class="cls-1" d="M663.8,338.3c-.2-.7-.2-1.3,0-2,1.3.7,1.3,1.4,0,2Z"/>
            <path class="cls-1" d="M787.3,592.4c-.3,0-.6-.2-.9-.3.8-.6.7-1.6,1.2-2.3.4.9.2,1.8-.3,2.7h0Z"/>
            <path class="cls-1" d="M799.1,499.9c-.2-.9,0-1.8.5-2.6.2.9.4,1.9-.5,2.6Z"/>
            <path class="cls-1" d="M680.2,299.8c.4-.9,1.1-1.4,2.1-1.7-.3,1-1,1.6-2.1,1.7Z"/>
            <path class="cls-1" d="M676.7,303.2c.3-.9.9-1.5,1.8-1.8-.3.9-.8,1.5-1.8,1.8Z"/>
            <path class="cls-1" d="M684.6,296.5c.4-.5.8-1.1,1.6-1-.3.7-.8,1.1-1.6,1Z"/>
            <path class="cls-1" d="M670,313.3c0-.5.2-.9.6-1.1,0,.5,0,.9-.6,1.1Z"/>
            <path class="cls-1" d="M512.5,445.7c-1.5-.6-1-1.9-1-2.9v-108.4c0-1-.5-2.3.9-2.9.5,1.4.2,2.9.2,4.3v107c0,1,0,1.9,0,2.9h0Z"/>
            <path class="cls-1" d="M598.3,172.7c4-2.9,8.4-5,13.1-6.6-2.3,2-5.2,2.8-7.8,4.2-1.7.9-3.2,2.4-5.3,2.4h0Z"/>
            <path class="cls-1" d="M525.8,258c1.3-5.5,3.9-10.6,6.4-15.6-.7,3.7-2.7,6.9-4.1,10.4-.7,1.8-1,3.7-2.3,5.2h0Z"/>
            <path class="cls-1" d="M629.9,159.2c3.3-1.9,7-2.8,10.8-3.2-3.4,1.8-7.1,2.3-10.8,3.2Z"/>
            <path class="cls-1" d="M534,239.3c.6-1.9,1.3-3.8,2.8-5.2-.5,2-1.6,3.6-2.8,5.2Z"/>
            <path class="cls-1" d="M542.6,224.5c.6-1.7,1.5-3.1,2.8-4.2-.7,1.6-1.3,3.2-2.8,4.2Z"/>
            <path class="cls-1" d="M578.6,185.5c.9-.9,1.8-1.8,3-2.1-.5,1.4-1.9,1.6-3,2.1Z"/>
            <path class="cls-1" d="M512.9,319.1c-.6-1.1-.9-2.1.4-2.9.4,1,.2,2-.4,2.9Z"/>
            <path class="cls-1" d="M664.6,592.2c-.5.4-1.1.8-1.6,1.3-.5-1.7.6-1.5,1.6-1.3Z"/>
            <path class="cls-1" d="M536.8,234.1c0-1,.4-1.9,1.4-2.4-.3.9-.6,1.8-1.4,2.4Z"/>
            <path class="cls-1" d="M541.2,226.8c0-1,.5-1.8,1.4-2.3,0,1-.5,1.8-1.4,2.3Z"/>
            <path class="cls-1" d="M627.5,160.1c.5-1.1,1.4-1,2.4-.9-.7.7-1.5.7-2.4.9Z"/>
            <path class="cls-1" d="M567.6,194.7c.3-.8.8-1.4,1.8-1.4-.3.8-1.2,1-1.8,1.4Z"/>
            <path class="cls-1" d="M538.3,231.7c0-.8.3-1.4.9-1.8.2.9-.4,1.4-.9,1.8Z"/>
            <path class="cls-1" d="M551.3,212.4c0-1,.6-1.4,1.4-1.8,0,.9-.6,1.5-1.4,1.8Z"/>
            <path class="cls-1" d="M514.8,301.3c-.6-.6-.5-1.1.3-1.5.2.5.2,1-.3,1.5Z"/>
            <path class="cls-1" d="M646.3,155c.3-.7.9-.6,1.5-.5-.5.1-.7,1.2-1.5.5Z"/>
            <path class="cls-1" d="M642.5,155.9c.3-.6.8-.5,1.3-.4-.4.4-.7.9-1.3.4Z"/>
            <path class="cls-1" d="M651.1,153.9c.3-.6.8-.5,1.4-.4-.3.5-.7.8-1.4.4Z"/>
            <path class="cls-1" d="M513.9,308.5c-.6-.6-.6-1.1.2-1.5.3.5.2,1-.2,1.5Z"/>
            <path class="cls-1" d="M540.3,228.4c0-.7.2-1.2.9-1.4,0,.6-.3,1.1-.9,1.4Z"/>
            <path class="cls-1" d="M548.4,216.3c0-.7.3-1.1.9-1.4,0,.6-.5,1-.9,1.4Z"/>
            <path class="cls-1" d="M546,219.6c0-.7.3-1.1.9-1.3,0,.6-.5.9-.9,1.3Z"/>
            <path class="cls-1" d="M546.9,218.2c0-.7.3-1.1.9-1.4,0,.6-.5,1-.9,1.4Z"/>
            <path class="cls-1" d="M574.3,188.9c.3-.6.7-.9,1.4-.8-.2.7-.9.6-1.4.8Z"/>
            <path class="cls-1" d="M549.3,214.9c0-.7.3-1.1,1-1.4,0,.7-.5,1-1,1.4Z"/>
            <path class="cls-1" d="M516.8,289.8c-.5-.5-.4-.8.2-1,.2.4,0,.7-.2,1Z"/>
            <path class="cls-1" d="M517.8,285c-.5-.5-.3-.8.3-1,.2.4,0,.7-.3,1Z"/>
            <path class="cls-1" d="M785.4,592.1c-.3.4-.6.4-.9,0,.3-.3.6-.3.9,0Z"/>
            <path class="cls-1" d="M612.2,165.8c0-.3.3-.3.6-.2-.2,0-.4.1-.6.2Z"/>
          </g>
        </g>
      </g>
    </g>
  </g>
</svg>