<?xml version="1.0" encoding="UTF-8"?>
<svg xmlns="http://www.w3.org/2000/svg" version="1.1" viewBox="0 0 1502.36 992.13">
  <defs>
    <style>
      .cls-1 {
        fill: none;
      }

      .cls-2 {
        fill: #999;
      }
    </style>
  </defs>
  <!-- Generator: Adobe Illustrator 28.7.4, SVG Export Plug-In . SVG Version: 1.2.0 Build 166)  -->
  <g>
    <g id="Calque_1">
      <g>
        <path class="cls-1" d="M766.37,549.19c-61.52,0-123.04,0-184.56.02-.82,0-1-.18-1-1,.02-44.71.02-89.43,0-134.15,0-.82.18-1,1-1,123.04.02,246.08.02,369.12,0,.82,0,1,.18,1,1-.02,44.71-.02,89.43,0,134.15,0,.82-.18,1-1,1-61.52-.02-123.04-.02-184.56-.02ZM919.79,527.4c-.17-.33-.44-.43-.79-.32l-.51-.06c-1.34-.33-2.66-.53-3.77.61l-.74.77c-.45.17-.73.48-.82.95-.03.03-.06.06-.07.1-.42.3-.58.72-.53,1.22-.03.24-.05.48-.08.72-.83,1.4-.53,2.86-.17,4.29.23.91.29,1.95,1.21,2.55.18.17.36.35.53.52.07.27.24.41.52.38.09.06.17.11.26.17.35.46.87.62,1.39.75,1.56.4,3.09.18,4.61-.24.72-.19,1.36-.53,1.04-1.43-.29-.82-.95-1.12-1.75-.75-1.5.7-2.94.49-4.38-.16-.25-.24-.5-.49-.75-.73-.13-.67-.18-1.36-.41-1.99-.28-.76-.1-1.22.62-1.51,1.91-.02,3.83-.04,5.74-.06.52.17.85-.09,1.01-.54.33-.89-.48-3.63-1.24-4.28-.02-.04-.04-.07-.07-.09-.08-.44-.35-.7-.78-.8-.03-.03-.06-.06-.09-.07ZM649.98,503.54c-.14-.03-.2.03-.18.17-.09.08-.18.15-.27.23-1.47.79-2.57,2.08-4.05,2.86-.27.14-.33.47-.26.78.1.45.49.38.79.38,1.88,0,3.75-.02,5.63-.02,10.97,0,21.94,0,32.91,0,2.32,0,4.65-.03,6.97.06,1.55.06,1.9-.12,1.92-1.73.01-1.01-.19-2.02-.2-3.03-.02-2.46-.03-4.92.03-7.37.15-6.45-.37-12.9.28-19.34.02-.17-.06-.35-.12-.52-.55-1.55-.36-1.81,1.32-1.81,3.49,0,6.98-.1,10.46.03,3.16.11,6.3-.33,9.47-.07,2.02.16,2.01,0,2.01,2.02-.01,9.65-.02,19.3-.01,28.95,0,.32-.1.65.12.95,0,.22,0,.43,0,.65-.19.4-.24.85.25.96.7.16,1.37.55,2.12.43,2.34-.37,4.7-.11,7.04-.15,4.54-.08,9.08,0,13.62,0,1.23,0,1.63-.37,1.63-1.62,0-1.74-.03-3.48-.03-5.22,0-26.16,0-52.32,0-78.48,0-1.49-.62-2.08-2.11-2.08-7.01.02-14.02.03-21.03.02-1.51,0-1.63.04-1.63,1.52,0,10.09,0,20.17,0,30.26,0,.36,0,.73-.05,1.08-.08.62-.38.92-1.08.92-6.65-.03-13.29-.03-19.94-.03-2.15,0-2.35-.2-2.31-2.27,0-.07,0-.15,0-.22,0-7.29,0-14.59,0-21.88,0-2.36-.05-4.72.02-7.07.06-1.95-.29-2.34-2.25-2.33-4.5.02-9.01.11-13.51-.06-2-.07-3.98,0-5.97.04-.29,0-.97-.2-.66.56.32.81.24,1.64.25,2.47.1,9.1,0,18.21-.72,27.29-.3,3.82-.72,7.63-1.38,11.41-.15.88-.48,1.76-.29,2.68-.02.28-.04.56-.06.83-.39,2.17-1.03,4.29-1.29,6.49-.11.91-.66,1.75-.54,2.71-.03.13-.06.26-.09.39-.92,1.57-1.01,3.41-1.72,5.05-.09.27-.18.55-.27.82-1.42,2.89-2.53,5.94-4.21,8.71-.6.99-1.57,1.82-1.69,3.08-.49.73-.95,1.49-1.62,2.08-.23.1-.37.25-.34.52-.07.09-.14.18-.21.26-.32.08-.45.29-.45.6-.22.3-.43.6-.65.9-.43.24-.77.56-.86,1.07-.05.02-.08.06-.1.12-1.41,1.1-2.23,2.76-3.69,3.83-.37.27-.85.54-.97,1.09l-.04.04ZM588.72,471c.03.21.06.41.09.62-.17.45.04.87.16,1.27.55,1.84,1.27,3.66,2.11,5.34,1.67,3.34,3.37,6.67,5.51,9.79,3.6,5.26,8.13,9.51,13.28,13.16,3.8,2.69,8.05,4.59,12.35,6.35.26.11.55.32.76-.05.16-.28.13-.6-.12-.8-1.13-.9-1.45-2.31-2.15-3.47-1.34-2.23-1.37-4.77-1.36-7.27.02-4.35.12-8.7.18-13.05,0-.48,0-1.07-.48-1.23-.45-.15-.92.19-1.21.57-.98,1.26-1.98,2.48-2.57,4.01-.84,2.17-1.64,4.33-1.75,6.69-.02.42,0,1.05-.6,1.15-.47.08-.68-.39-.79-.76-.76-2.42-1.96-4.67-2.52-7.16-.27-1.19-.26-2.44-.73-3.59,0-.67,0-1.34,0-2.01.27-.26.16-.61.21-.93.67-4.2,2.5-7.71,5.83-10.47,3.14-2.6,6.72-4.45,10.35-6.16,2.8-1.32,4.76-3.28,6.22-5.95.93-1.69.32-3.13-.22-4.66-.23.5-.44,1.02-.46,1.54-.07,1.48-.89,2.6-1.97,3.36-2.25,1.57-4.88,2.14-7.59,2.4-1.98.19-3.92.47-5.71,1.45-1.73.95-3.11,2.23-4.28,3.78-.37.49-.88.82-1.39.37-1.73-1.49-3.21-3.2-3.56-5.55-.28-1.84.18-2.14,1.97-1.57,2.87.92,7.43-1.13,8.22-4.52.16-.7,0-1.21-.65-1.66-1.31-.92-2.7-1.72-4.15-2.35-1.49-.64-3.05-.81-4.6.02-.93.5-1.62,1.21-2.22,2.04-.42.58-.89.62-1.36.14-.69-.69-1.37-1.4-2.01-2.14-.67-.79-.6-1.67-.13-2.54.16-.29.35-.55.52-.83.18-.29.33-.59.11-.91-.23-.33-.57-.25-.89-.17-.32.08-.63.19-.95.24-.43.07-.81-.09-1.01-.48-.21-.42.11-.69.39-.91.49-.38,1.03-.68,1.49-1.09,2.3-2.06,4.87-3.77,7.5-5.36,1.12-.68,1.81-1.43,2.25-2.61.58-1.55,1.9-2.52,3.24-3.24,1.99-1.06,3.97-2.12,6.3-2.53,2.77-.48,5.52-1.1,8.34-1.21,4.27-.17,8.57.4,12.8-.63,2.64-.64,4.65-2.03,5.86-4.48.25-.51.32-1.11.56-1.63.5-1.1.17-1.65-1.07-1.63-.8.01-1.59.16-2.39.16-17.84,0-35.68,0-53.52-.02-.98,0-1.96-.05-2.94-.11-2.5-.16-2.62-.04-2.36,2.43.02.14.02.29.02.43.09,9.65.21,19.29.24,28.94,0,2.87.25,5.72.33,8.58.03,1.11.18,2.29.6,3.37,0,.11.01.22.02.32.47,2.44.53,4.99,1.9,7.19ZM865.94,473.36c.3-.16.61-.31.91-.47,1.37-.23,2.25-1.27,3.27-2.04,2.16-1.64,4.18-3.44,5.86-5.61.96-1.23,1.72-2.56,2.52-3.9.92-1.54,1.58-3.17,2.27-4.79.77-1.8,1.13-3.72,1.42-5.67.77-5.02.62-9.96-1.07-14.77-1.2-3.41-3.2-6.33-5.97-8.67-2.85-2.42-6.1-4.12-9.64-5.29-1.4-.47-2.8-1-4.33-.85-.2-.03-.41-.07-.61-.1-.17-.12-.34-.33-.52-.35-2.17-.19-4.25-.95-6.44-.96-3.6-.02-7.19-.05-10.79-.04-2.65,0-5.29.15-7.93.4-3.42.32-6.8,1.09-10.26.97-.36-.01-.72.1-1.08.14-.51.07-.63.38-.62.85.03,2.53.05,5.07.04,7.6,0,23.18-.01,46.36-.02,69.53,0,2.17.06,4.35.08,6.52.02,1.83.08,2.08,1.9,2.08,6.43,0,12.86,0,19.28,0,.33,0,.66-.01.98.03,1.31.18,2.04-.37,1.9-1.67-.2-1.81-.07-3.62-.08-5.42-.05-6.81-.03-13.62-.02-20.44,0-2.01.02-2.01,2.1-2.12.14,0,.27-.08.41-.12.33.08.66.08.99-.02,1.87-.09,3.66-.64,5.49-.95.13-.02.27-.04.4-.06,1.01.15,1.8-.43,2.66-.8.61-.02,1.16-.24,1.7-.48.88-.16,1.7-.51,2.5-.91.95-.47,2.06-.68,2.71-1.63ZM643.82,488.87s.02,0,.03,0c0,2.87-.02,5.73.01,8.6.01,1,.26,1.07,1.11.59.93-.53,1.53-1.44,2.41-2.02,1.02-.67,1.5-1.64,1.52-2.84.02-1.67.05-3.34,0-5.01-.05-1.81.41-3.63.1-5.42-.28-1.63.23-3.16.34-4.74.02-.31.25-.53.51-.67.87-.46,1.76-.88,2.77-.92,2.24-.09,3.68,1.5,3.91,4.26.04.44-.15,1.03.52,1.15.61.11.83-.44,1-.84,1.17-2.66,2.53-5.26,3.11-8.14.15-.76.04-1.54-.87-1.52-1.96.05-3.92-.12-5.86-.05-3.91.13-7.83.22-11.73.2-3.75-.02-7.51.22-11.26-.1-.47-.04-.87.11-1.09.56-.2.42-.03.77.28,1.07.45.45.74.95.75,1.63.05,3.01.16,6.01.18,9.02.02,4.68.09,9.35-.19,14.03-.1,1.67.21,3.36-.9,4.88-.6.83-.65,1.99-1.25,2.88-.26.38-.68.8-.29,1.26.39.46.94.25,1.42.09,1.36-.46,2.58-1.22,3.92-1.75,1.34-.53,2.37-1.45,2.31-3.17-.03-.9-.08-1.81-.08-2.71-.01-6.88-.33-13.78.37-20.65.08-.8.42-1.28,1.13-1.55.47-.18.95-.36,1.44-.48,2.15-.54,3.7.43,4.15,2.59.15.71.25,1.42.25,2.15-.02,2.54,0,5.08,0,7.62ZM758.55,463.6s.01,0,.02,0c0,13.46,0,26.93,0,40.39,0,.79.08,1.59-.09,2.38-.24,1.07.12,1.51,1.2,1.53,1.74.03,3.49.01,5.23.01,12.5,0,25-.01,37.5-.03,1.72,0,3.46-.08,5.17-.03,2.55.08,2.61.17,2.6-2.31-.02-5.57-.16-11.15.13-16.72.05-.86-.64-1.78-1.37-1.6-1.27.31-2.53.12-3.8.13-6.9.03-13.81.03-20.71.03-1.24,0-1.53-.33-1.54-1.56,0-3.23,0-6.46,0-9.69,0-1.9.22-2.14,2.11-2.14,6.03-.01,12.06-.01,18.1-.02,1.2,0,1.66-.4,1.57-1.53-.31-3.77-.04-7.54-.1-11.31-.02-1.66-.15-3.33.08-5,.18-1.29-.67-2.03-2.04-1.81-.94.15-1.87.22-2.82.22-4.1.02-8.21-.07-12.31.05-1.17.03-2.39.05-3.57-.25-.73-.18-1.02-.55-1.02-1.29.01-3.27-.02-6.53,0-9.8,0-1.95.03-1.95,1.97-2.1.07,0,.15,0,.22,0,6.97.08,13.95-.15,20.92.13,1.3.05,2.04-.59,1.88-1.88-.31-2.43-.1-4.85-.13-7.28-.05-3.41-.02-6.82,0-10.23,0-.7-.09-1.06-.94-1.21-1.28-.23-2.54-.09-3.8-.09-12.75-.01-25.51-.03-38.26.01-1.63,0-3.25.13-4.87-.04-.88-.09-1.34.27-1.33,1.32.03,13.9.02,27.8.02,41.7ZM893.54,464.26s-.01,0-.02,0c0,6.17.04,12.34-.01,18.51-.07,7.94.25,15.89-.16,23.83-.04.69.27,1.37,1.11,1.32,2.45-.14,4.89.08,7.34.06,12.54-.1,25.07-.05,37.61-.04,2.03,0,4.07.03,6.1.04.92,0,1.79-.65,1.65-1.34-.36-1.72-.14-3.44-.18-5.16-.09-4.17-.28-8.33.04-12.5.09-1.21-.36-1.67-1.59-1.64-6.76.19-13.51.03-20.27.08-1.89.01-3.78-.03-5.67-.04-.99,0-1.48-.44-1.44-1.46.03-.72,0-1.45,0-2.18,0-20.54.01-41.08.02-61.62,0-1.57-.01-1.57-1.58-1.56-2.62.02-5.23.04-7.85.05-4.85.01-9.7-.04-14.55.18-.72.03-.9.31-.77.93.19.93.22,1.87.22,2.81,0,13.25,0,26.49,0,39.74ZM647.65,443.5c0-1.63,0-3.27,0-4.9,0-1.15-.32-1.42-1.51-1.47-1.06-.05-1.28.52-1.28,1.42,0,2.76,0,5.51-.05,8.27-.01.75.24,1.36.71,1.88.52.56.34.87-.28,1.1-.31.11-.61.28-.93.31-2.28.19-3.7,1.65-5.04,3.27-.28.34-.43.67-.28,1.09.17.46.57.5.98.51.44,0,.87,0,1.31.04.35.02.81,0,.89.44.07.36-.32.53-.61.68-.16.09-.32.16-.49.25-1.24.66-1.58,1.28-1.36,2.64.12.76.14,1.52.07,2.28-.12,1.22.35,1.86,1.57,1.69,1.18-.16,2.31-.01,3.46.05,2.23.13,4.4-.24,6.59-.62,1.31-.23,1.69-.59,1.57-1.9-.18-2-.19-3.98.7-5.86.2-.41.27-.92-.17-1.18-.66-.39-1.05-1-1.47-1.58-.93-1.27-2.46-1.48-3.69-2.21-.5-.29-.73-.58-.71-1.18.05-1.67.02-3.34.02-5.01ZM644.47,464.96c-2.91-.16-6.17,0-9.44-.01-1.27,0-1.84.71-1.58,1.96.12.58.24,1.16.09,1.72-.24.9.21,1.27.96,1.49.56.16,1.13.23,1.72.23,3.16-.02,6.32-.04,9.47-.03,2.21,0,4.43-.2,6.63-.17,1.56.02,3.04.15,4.57-.36,1.19-.39,1.9-.94,2-2.19.04-.54.13-1.08.15-1.62.03-.85-.4-1.28-1.27-1.23-1.16.07-2.31.19-3.47.2-3.16.03-6.32,0-9.83,0ZM929.31,537.74c-.62,0-1.24,0-1.83-.21-.58-.2-.91-.59-.82-1.23.09-.64.49-.95,1.13-.94.36,0,.72.08,1.08.11,3.06.28,4.91-2.6,4.64-4.67-.2-1.54-.28-1.54,1.24-1.92.69-.17,1.01-.57.91-1.25-.11-.76-.66-.72-1.24-.62-1.5.26-2.97.37-4.51-.03-1.99-.52-4.03.42-4.92,1.95-.97,1.67-.8,3.31.58,5.01.45.55.33.96-.11,1.42-.58.6-1.11,1.44-.71,2.14.7,1.22.16,2-.46,2.93-.85,1.28-.19,3.81,1.1,4.5,2.93,1.56,8.51.25,9.78-3.28.74-2.04-.28-3.83-2.48-3.99-1.13-.08-2.24-.01-3.37.08ZM597.68,531.83s-.06,0-.08,0c0-.36,0-.72,0-1.08.02-1.96.08-3.91.04-5.87-.01-.64-.02-1.47-1.06-1.45-1.03.03-1.43.54-1.39,1.65.05,1.27.09,2.53.11,3.8.02,1.23-.38,1.65-1.61,1.66-1.56.01-3.12-.02-4.68-.05-.87-.01-1.33-.51-1.17-1.33.26-1.33-.09-2.67.18-4,.21-1.04-.31-1.65-1.2-1.67-.91-.02-1.32.52-1.24,1.62.06.79.17,1.59.15,2.38-.13,3.66.17,7.32-.14,10.97-.07.77.11,1.49,1.13,1.5,1.02,0,1.27-.61,1.24-1.5-.06-1.55-.04-3.11-.11-4.67-.04-1.01.37-1.49,1.39-1.48,1.45,0,2.9.01,4.35-.02,1.42-.03,1.72.29,1.67,1.71-.06,1.52-.08,3.04-.08,4.56,0,.85.41,1.35,1.34,1.34.93-.01,1.15-.53,1.15-1.34-.02-2.24,0-4.49,0-6.73ZM863.76,533.67c0,.71.03,1.22,0,1.72-.24,3.12,3.74,6.21,6.54,4.14.4-.29.89-.41,1.31-.04.47.41.93.7,1.56.37.67-.35.53-.98.52-1.54-.08-5.18-.22-10.36.01-15.54.05-1.06-.32-1.44-1.2-1.36-1.17.1-1.56.53-1.41,1.57.11.79.26,1.57.39,2.36.21,1.24-.12,1.65-1.4,1.73-.25.02-.51.02-.76.01-1.83-.02-3.21.69-4.37,2.16-1.11,1.41-1.3,2.93-1.17,4.39ZM723.77,530.89c0-2.72.01-5.44,0-8.16,0-.77-.32-1.36-1.22-1.34-.93.02-1.29.55-1.21,1.43.09,1.01.2,2.02.32,3.03.1.83-.25,1.24-1.09,1.23-.44,0-.87-.01-1.31,0-1.44.04-2.68.52-3.67,1.6-2.16,2.36-2.17,5.26-1.48,8,.8,3.16,3.41,4.14,6.3,2.82.55-.25,1.06-.3,1.51.14.44.43.9.58,1.47.29.57-.3.54-.79.48-1.32-.28-2.57-.03-5.15-.09-7.72ZM659.24,539.8c.87.04,1.74.12,2.61.12.79,0,1.52-.24,1.44-1.22-.08-.95-.82-.99-1.55-.86-1.16.21-2.31.07-3.47.05-1.03-.02-1.4-.55-1.31-1.54.07-.76.07-1.52.06-2.28,0-1.54.26-1.79,1.84-1.79.9,0,1.79.33,2.7.1.62-.16,1.1-.42.99-1.18-.11-.75-.61-.88-1.26-.85-1.01.05-2.03.06-3.04.08-.84.02-1.29-.34-1.26-1.23.03-.8.04-1.59.02-2.39-.03-.92.41-1.36,1.31-1.32,1.12.06,2.25-.03,3.36.16.78.13,1.2-.34,1.2-1.05,0-.66-.29-1.25-1.13-1.1-1.92.36-3.83.09-5.75.07-1.07,0-1.39.23-1.28,1.31.14,1.34.12,2.68.1,4.02-.05,3.15.12,6.3-.11,9.45-.05.66,0,1.61.96,1.48,1.21-.17,2.38-.04,3.58-.04ZM831.85,534.68s-.01,0-.02,0c0-.65,0-1.3,0-1.96,0-.65,0-1.3-.01-1.96-.04-1.6-1.22-3.38-2.45-3.63-1.31-.27-2.62-.2-3.85.31-.73.31-1.31.45-1.97-.16-.43-.4-1.05-.3-1.53.03-.46.31-.23.78-.14,1.2.08.39.17.78.19,1.17.14,3,.23,6-.04,9-.08.93.38,1.32,1.31,1.24.92-.08,1.06-.69,1.06-1.46-.02-2.43-.04-4.85-.02-7.28,0-1.41.4-1.85,1.79-2.15,2.22-.49,3.25.24,3.45,2.47.04.47.04.94.04,1.41-.03,1.88.08,3.77-.12,5.65-.1.88.37,1.37,1.28,1.37.87,0,1.06-.57,1.05-1.32-.02-1.3,0-2.61,0-3.91ZM774.39,523.39c-1.23.08-2.25.13-3.26.23-.76.07-1.07.53-.99,1.28.07.61.16,1.23.16,1.84,0,2.82-.01,5.64-.04,8.46-.01,1.23-.1,2.46-.11,3.69,0,.76.46,1.12,1.19,1.11.75,0,1.1-.38,1.06-1.17-.06-1.41,0-2.83-.09-4.24-.06-.98.4-1.38,1.27-1.32,1.4.1,2.59-.47,3.66-1.2,2.07-1.39,3.61-4.39,1.38-7.02-1.21-1.43-2.86-1.4-4.23-1.66ZM614.33,533.54c0,1.09-.04,2.17.01,3.26.04.8.21,1.59.92,2.13,1.45,1.1,2.91,1.95,5.17.53.51-.32,1.04-.43,1.47.07.52.61,1.14.62,1.76.31.68-.34.46-1.02.37-1.55-.19-1.11-.28-2.2-.25-3.34.05-2.32-.08-4.63.12-6.95.07-.8-.48-1.12-1.21-.99-.66.12-1.59.22-1.33,1.18.66,2.44.19,4.91.41,7.36.12,1.32-.61,1.91-1.65,2.36-1.3.56-2.24.41-3.11-.41-1.04-.98-.7-2.22-.7-3.38,0-1.99.09-3.98.11-5.96,0-.94-.42-1.19-1.68-1.09-.7.06-1.18.36-.94,1.1.57,1.77.59,3.56.53,5.38ZM789.76,533.55c0,1.43-.08,2.84.78,4.18,1.07,1.67,2.64,2.53,4.44,2.44,2.2-.11,4.1-.98,4.91-3.43.48-1.45.75-2.86.57-4.35-.37-3.11-1.31-5.09-5.03-5.4-1.84-.15-3.43.35-4.61,2.03-1,1.42-1.18,2.9-1.06,4.52ZM676.36,533.72c0,.47.01.94,0,1.41-.06,2.11,1.45,4.13,3.58,4.76,2.37.71,4.7-.18,5.93-1.99,1.49-2.19,1.23-4.57.88-6.91-.24-1.61-1.2-2.93-2.77-3.68-.94-.45-1.93-.15-2.89-.28-1.22-.16-2.15.38-3.02,1.18-1.64,1.51-1.72,3.49-1.71,5.5ZM609.86,533.63c0-1.05,0-2.1,0-3.16,0-.72-.2-1.34-.65-1.91-1.22-1.57-5.3-2.17-6.91-.99-.42.31-.6.72-.44,1.24.18.58.64.65,1.14.57.36-.05.7-.18,1.05-.29,2.27-.7,3.71.37,3.73,2.73,0,.88-.37,1.28-1.22,1.28-.77,0-1.53.02-2.26.26-1.47.47-2.84,1.2-3.25,2.77-.31,1.18-.03,2.44,1.07,3.23,1.17.84,2.5,1.27,3.87.46.85-.51,1.57-.8,2.47-.08.45.36,1.06.13,1.55-.14.47-.27.22-.7.15-1.08-.34-1.61-.3-3.25-.28-4.88ZM733.07,533.34s0-.06,0-.09c.87,0,1.74,0,2.61,0,.77,0,1.15-.36,1.09-1.14-.02-.33-.05-.65-.07-.98-.1-1.92-1.14-3.54-2.52-3.97-2.07-.64-4.45.07-5.65,1.56-1.34,1.66-1.53,3.68-1.38,5.57.23,3.03,1.42,5.15,4.5,5.72,1.49.28,2.88-.06,4.29-.31.33-.06.58-.29.73-.6.21-.44.12-.86-.14-1.23-.31-.46-.75-.34-1.17-.19-1.46.51-2.86.87-4.36-.08-1.32-.83-1.47-2.18-1.87-3.42-.18-.54.37-.82.89-.83,1.01-.03,2.03,0,3.04,0ZM882.9,533.28s0-.02,0-.03c.91,0,1.81.01,2.72,0,.44,0,.96-.05.95-.64,0-.9.09-1.86-.19-2.68-1.18-3.46-4.08-3.77-6.84-2.16-2.79,1.62-2.83,4.89-2.32,7.9.18,1.04.58,2.05,1.41,2.87,2.1,2.09,5.04,1.79,7.32.98.43-.15.73-.53.56-1.04-.19-.57-.63-.9-1.24-.84-.35.03-.69.2-1.03.32-1.98.72-3.98-.2-4.72-2.17-.1-.27-.23-.53-.35-.79-.51-1.08-.21-1.64,1.01-1.71.9-.05,1.81-.01,2.72-.01ZM702.69,533.33s0-.06,0-.09c.33-.02.65-.06.98-.06,2.31-.02,2.38-.03,1.95-2.34-.29-1.55-.86-3.16-2.55-3.63-2.18-.61-4.42-.13-5.63,1.48-2.26,3.02-1.88,7.53.53,10.25.18.21.45.36.71.48,2.01,1.02,4.08.8,6.15.22.58-.17.97-.53.82-1.2-.16-.69-.66-.92-1.32-.83-.28.04-.56.15-.83.24-2.88.95-5.04-.41-5.48-3.42-.12-.82.17-1.13.99-1.11,1.23.04,2.46,0,3.7,0ZM943.2,533.27c.15,0,.51-.04.87-.05q2.94-.05,2.32-2.92c-.49-2.26-1.5-3.15-3.53-3.29-2.78-.2-4.27.89-5.17,3.06-.8,1.91-.81,3.85-.35,5.92.93,4.24,5.79,4.95,8.73,3.48.43-.22.62-.62.46-1.1-.15-.48-.52-.69-1-.67-.28.01-.57.09-.85.18-2.93.9-4.74-.11-5.5-3.08-.25-.99.05-1.45,1.09-1.51.9-.05,1.81-.01,2.93-.01ZM642.03,533.26s0-.03,0-.05c.47,0,.94,0,1.42,0,2.54-.05,2.66-.13,2.22-2.62-.27-1.5-.87-2.99-2.52-3.38-1.85-.43-3.82-.59-5.21,1.16-1.65,2.07-2.13,4.37-1.52,7.01.5,2.18,1.38,3.83,3.68,4.46,1.68.46,3.3.42,4.9-.24.64-.26.84-.79.66-1.43-.18-.62-.67-.55-1.16-.45-.53.11-1.09.15-1.6.33-1.02.35-1.9.11-2.81-.39-1.32-.73-1.57-1.98-1.8-3.29-.14-.78.2-1.09.91-1.11.94-.02,1.89,0,2.83,0ZM851.7,533.25s0,0,0,0c.54,0,1.09,0,1.63,0,2.22.01,2.3,0,2.08-2.19-.15-1.46-.65-2.88-2.02-3.67-1.47-.86-4.34-.31-5.63.8-1.35,1.15-1.67,2.71-1.87,4.28-.34,2.73.55,6.15,3.23,7.24,1.72.7,3.41.53,5.11.01.65-.2,1.36-.49,1.11-1.32-.27-.9-1.03-.84-1.8-.59-3.58,1.16-5.11-.54-5.65-3.13-.2-.97.08-1.37,1.08-1.41.91-.03,1.81,0,2.72,0ZM759.93,534.48c.12-1.65.18-2.88.03-4.1-.17-1.42-.85-2.64-2.22-3.1-1.72-.59-3.51-.27-5.24.22-.47.13-.69.52-.64,1.01.06.51.43.73.88.84.45.11.86-.07,1.27-.19.78-.23,1.56-.33,2.35-.07,1.04.34,1.85,1.83,1.58,3.02-.25,1.12-1.22.96-2.03,1.01-1.44.08-2.69.61-3.71,1.58-1.17,1.11-1.37,3.09-.49,4.15,1.11,1.33,3.3,1.81,4.6.9.76-.53,1.37-.7,2.13-.05.41.35.96.35,1.43.07.51-.3.36-.79.32-1.26-.12-1.48-.21-2.96-.28-4.03ZM807.26,539.82c.77.24,1.12-.26,1.37-.94.38-1.06.7-2.14,1.15-3.16,1.08-2.45,1.63-5.09,2.92-7.46.24-.44.2-.85-.29-1.11-.8-.43-1.66-.01-1.94.86-.76,2.3-1.55,4.59-2.35,6.88-.15.43-.31.99-.88.98-.63-.01-.6-.64-.72-1.07-.67-2.29-1.31-4.59-1.99-6.87-.26-.89-1.02-1.17-1.9-.79-.84.36-.57.9-.32,1.52,1.36,3.28,2.49,6.64,3.42,10.06.22.82.63,1.18,1.53,1.09ZM841.21,526.98c-2.06-.11-3.7.62-4.8,2.4-1.47,2.37-1.74,4.89-.72,7.46,1.32,3.35,5.1,3.84,7.61,2.83.56-.23.77-.65.61-1.22-.14-.53-.53-.79-1.06-.73-.39.04-.78.16-1.15.31-.92.38-1.75.24-2.58-.3-2.02-1.32-2.52-5.36-.9-7.43.56-.72,1.26-1.15,2.17-1.31.78-.13,1.5-.01,2.24.21.85.25,1.28-.28,1.5-1.02.26-.88-.4-.97-.98-1.06-.64-.09-1.3-.1-1.95-.14ZM665.62,533.4c-.34,5.02,3.47,7.71,7.65,6.5.76-.22,1.16-.6.93-1.4-.23-.8-.83-.81-1.49-.6-.14.04-.28.09-.41.13-1.87.6-3.67-.27-4.27-2.12-.39-1.22-.55-2.5-.3-3.76.28-1.36,1.26-3.14,3.21-3.19.68-.02,1.28.08,1.91.26.8.24,1.52-.22,1.63-.99.13-.92-.47-1.13-1.2-1.14-1.02-.03-2.04-.09-3.05-.02-1.31.09-2.44.75-3.1,1.8-.89,1.42-1.99,2.85-1.52,4.52ZM895.74,532.21c.11,2.14-.04,4.28-.03,6.42,0,.45-.14,1.14.64,1.15,2.21.04,4.41-.06,6.62.11.75.06,1.4-.28,1.29-1.21-.1-.88-.76-1.03-1.45-.87-1.27.29-2.53.09-3.8.11-.95.02-1.34-.45-1.33-1.43.06-3.26.06-6.53.09-9.79,0-.69.02-1.38-.02-2.06-.05-.77-.45-1.22-1.27-1.15-.84.07-.97.68-.89,1.34.32,2.46.05,4.93.15,7.39ZM690.48,531.89c.03,2.32.02,4.63-.11,6.95-.05.87.42,1.18,1.2,1.16.81-.02,1.14-.45,1.09-1.27-.08-1.3-.11-2.59-.11-3.89,0-4.05.02-8.1.02-12.15,0-1.02-.39-1.38-1.3-1.26-.93.13-1.36.68-1.09,1.6.38,1.28.38,2.55.32,3.87-.08,1.66-.02,3.33-.02,4.99ZM745.74,531.54c0,1.05,0,2.1,0,3.16,0,1.34.03,2.68-.08,4.02-.07.76.37,1.23,1.19,1.23.78,0,1.1-.45,1.09-1.19,0-.29-.03-.58-.03-.87.02-5-.13-10.01.1-15.01.05-.97-.35-1.43-1.31-1.44-.98-.01-1.32.58-1.18,1.41.51,2.89.1,5.8.22,8.69ZM782.56,534.62c-.1,1.3.11,2.61-.11,3.91-.13.77.1,1.37,1.04,1.43.99.07,1.13-.52,1.11-1.3-.03-1.78-.07-3.55-.05-5.33.04-3.13.06-3.13,2.98-4.22.07-.03.14-.05.2-.08.55-.25.72-.69.63-1.25-.09-.55-.5-.79-1.01-.83-.62-.05-1.11.21-1.56.63-.6.57-1.17.67-1.72-.11-.51-.72-1.19-.42-1.76-.13-.6.31-.24.8-.09,1.23.1.27.23.55.22.83-.01,1.74.25,3.47.11,5.22ZM817.86,534.04c.03-1.91-.24-3.83.02-5.74.12-.9-.49-1.44-1.39-1.37-.85.06-1.29.61-1.17,1.48.08.57.23,1.13.28,1.71.24,2.78.28,5.55,0,8.33-.1,1,.3,1.48,1.22,1.54,1.06.07,1.02-.71,1.02-1.4.02-1.52,0-3.03,0-4.55ZM908.72,533.5s.02,0,.03,0c0-1.73-.01-3.47,0-5.2,0-.55-.06-1.01-.63-1.25-.55-.23-1.06-.17-1.54.18-.48.36-.36.8-.2,1.27.11.34.25.7.25,1.05,0,2.93.16,5.86-.1,8.79-.07.82-.05,1.58.99,1.71.8.1,1.19-.41,1.19-1.55,0-1.66,0-3.33,0-4.99ZM628.47,533.52c.08,1.05-.05,2.1-.04,3.15.03,2.82,2.47,4.4,5.09,3.32.73-.3,1.14-.83.87-1.62-.25-.71-.85-.8-1.53-.62-1.61.43-2.3-.12-2.3-1.78,0-1.88,0-3.76-.05-5.64-.02-.92.44-1.25,1.27-1.2.47.03.94.19,1.39.16.73-.06,1.26-.47,1.21-1.26-.04-.75-.58-1.05-1.28-1.04-.51,0-1.01.09-1.52.08-.67-.01-1.16-.3-1.01-1.07.14-.72-.06-1.14-.83-1.18-.72-.03-1.35.16-1.35,1.03,0,.7-.28,1.05-.95,1.22-.59.15-1.24.37-1.18,1.19.06.75.66.87,1.25.96.74.12,1.03.51.98,1.28-.06,1.01-.02,2.03-.02,3.04ZM614.81,438.6c.9,0,1.81.04,2.66-.33.83-.37.88-.84.23-1.47-.66-.65-1.54-.24-2.25-.52-1.16-.45-1.83.25-2.55.89-.27.24-.36.54-.23.88.12.33.38.53.74.55.47.02.94,0,1.41,0ZM914.46,521.71c-.48,0-.78.19-.93.56-.19.44-.03.81.35,1.04,1.21.73,2.43,1.45,3.66,2.13.5.28,1.03.18,1.31-.36.28-.53-.07-.93-.48-1.19-1.07-.68-2.17-1.33-3.26-1.97-.21-.12-.48-.16-.65-.21ZM909.24,523.9c-.02-.82-.82-1.64-1.58-1.63-.88.02-1.67.85-1.62,1.7.04.79.86,1.5,1.72,1.49.8,0,1.5-.75,1.48-1.56ZM816.71,522.29c-.86.01-1.51.71-1.52,1.65-.01.87.72,1.55,1.63,1.51.88-.04,1.47-.67,1.45-1.56-.02-.95-.67-1.61-1.55-1.6ZM644.81,434.41c.06.63-.08,1.55,1.06,1.65,1.02.09,1.78-.72,1.81-1.85.03-1.19-.55-2.09-1.36-2.12-.99-.04-1.48.68-1.51,2.32Z"/>
        <path class="cls-2" d="M643.82,488.87c0-2.54-.01-5.08,0-7.62,0-.73-.1-1.45-.25-2.15-.45-2.16-2-3.14-4.15-2.59-.49.12-.97.3-1.44.48-.7.27-1.04.75-1.13,1.55-.7,6.87-.38,13.77-.37,20.65,0,.9.05,1.8.08,2.71.06,1.72-.98,2.65-2.31,3.17-1.34.53-2.56,1.29-3.92,1.75-.48.16-1.04.38-1.42-.09-.38-.46.03-.89.29-1.26.6-.89.65-2.04,1.25-2.88,1.11-1.53.8-3.22.9-4.88.28-4.67.21-9.35.19-14.03-.01-3.01-.13-6.01-.18-9.02-.01-.67-.29-1.18-.75-1.63-.31-.3-.48-.65-.28-1.07.21-.45.61-.6,1.09-.56,3.75.32,7.51.07,11.26.1,3.9.02,7.82-.07,11.73-.2,1.94-.06,3.9.1,5.86.05.91-.02,1.03.76.87,1.52-.58,2.89-1.94,5.48-3.11,8.14-.17.4-.4.95-1,.84-.67-.12-.48-.71-.52-1.15-.22-2.76-1.66-4.34-3.91-4.26-1,.04-1.9.45-2.77.92-.26.14-.49.36-.51.67-.11,1.58-.61,3.11-.34,4.74.3,1.8-.15,3.61-.1,5.42.05,1.67.01,3.34,0,5.01-.01,1.2-.49,2.18-1.52,2.84-.88.58-1.48,1.49-2.41,2.02-.85.48-1.1.41-1.11-.59-.03-2.86-.01-5.73-.01-8.6,0,0-.02,0-.03,0Z"/>
        <path class="cls-2" d="M649.54,503.94c.09-.08.18-.15.27-.23.06-.06.12-.11.18-.17,0,0,.04-.04.04-.04,1.34-.54,2.23-1.66,3.13-2.68.58-.65,1.4-1.24,1.54-2.23.01-.05.05-.09.1-.12.57-.13.85-.49.86-1.07.22-.3.43-.6.65-.9.38-.03.46-.28.45-.6.07-.09.14-.18.21-.26.32-.04.43-.21.34-.52.67-.59,1.13-1.35,1.62-2.08.41-.01.52-.39.67-.64,1.85-3.23,3.83-6.39,5.08-9.93.13-.37.39-.78.15-1.22.09-.27.18-.55.27-.82,1.19-1.48,1.56-3.23,1.72-5.05.03-.13.06-.26.09-.39,1.14-1.76,1.36-3.83,1.73-5.8.2-1.07.49-2.25.1-3.39.02-.28.04-.56.06-.83.36-.1.34-.44.43-.7.99-2.75.91-5.69,1.36-8.53.61-3.84.24-7.77.86-11.63.31-1.94.21-3.97.25-5.95.11-5.25.04-10.51.02-15.76,0-.79.06-1.27,1.08-1.26,6.26.04,12.53.02,18.8.02.39,0,.72.06.91.45.07.07.13.14.2.22.25.23.17.53.17.82,0,7.21,0,14.42,0,21.62,0,2.68-.04,5.36-.06,8.04-.25.09-.43.19-.13.44-.06.5-.12,1-.19,1.5.06.54.23.9.84.49.15.01.3.03.44.04.12.42.33.48.65.18.15,0,.29.02.44.02.43.6.86.62,1.3,0,.6,0,1.19,0,1.79,0,.5.62,1,.62,1.5,0,2.91,0,5.83,0,8.74,0,.04.32.27.39.55.39,1.59,0,3.18,0,4.77,0,.28,0,.5-.07.54-.39.8,0,1.6,0,2.4.01.31,1.12-.08,1.57-1.17,1.47-1.17-.11-2.34-.13-3.51-.21-1.93-.14-3.83.24-5.75.24-3.03,0-6.06-.19-9.1-.03-.9.05-1.52.16-1.19,1.31.14.49-.05.96-.31,1.44-.23.44-.48.62-.92.49-.47-.13-.71-.47-.7-.97,0-.42.22-.75.46-1.08.62-.84.33-1.63-.65-1.83-1.39-.28-2.21-1.27-2.21-2.68,0-2.99,0-5.99,0-8.98,0-6.39,0-12.77.01-19.16,0-.63-.11-1.23-.27-1.82-.12-.46-.55-.87-.97-.64-1.26.7-2.52.28-3.78.17-1.13-.1-2.22.35-3.35.22-.72-.08-1.49-.35-2.14-.18-2.09.53-4.21.15-6.24-.01-1.56-.12-1.37.52-1.34,1.36.18,6.62-.46,13.26.42,19.87.07.52-.12.97-.64,1.13-.52.15-.64.46-.68.96-.1,1.18-.29,2.36-.41,3.54-.12,1.15-.52,2.33-.14,3.44.57,1.65.15,3.21-.24,4.75-.3,1.2-.65,2.33-.33,3.6.15.61.24,1.34-.12,1.92-.91,1.47-.73,3.13-.92,4.72-.24,1.95-1.2,3.7-1.51,5.66-.12.78-.53,1.62-.65,2.46-.13.96-.02,1.95-.97,2.61-.14.1-.14.47-.13.72.02.6-.15,1.1-.42,1.64-.46.93-.33,2.13-1.3,2.85-.08.06-.05.28-.04.42.11,1.14-.19,2.09-.85,3.09-.92,1.4-1.98,2.69-2.81,4.18-.78,1.4-2.1,2.62-3.25,3.85-1.24,1.32-1.27,1.67-.03,2.95.13.13.26.25.38.39.27.31.35.66.06.98-.34.38-.65.15-.92-.13-.22-.23-.45-.47-.63-.74-.18-.25-.35-.49-.69-.39-.3.09-.56.31-.57.6-.03.74-.31,1.52.27,2.19.56.65.28.92-.45.86-1.3-.11-2.49.02-3.33,1.2-.5.7-1.3,1-2.03,1.39-.26.14-.61.37-.52.75.09.41.49.41.81.36,1.88-.26,3.73.2,5.6.25,2.16.05,4.32-.09,6.49-.06,8.85.09,17.69.05,26.54.03,1.8,0,2.05-.31,1.9-2.04-.02-.29-.06-.59,0-.87.37-1.71.28-3.44.2-5.16-.12-2.58.29-5.13.22-7.7-.07-2.51-.12-5.03-.22-7.54-.1-2.56.23-5.12-.01-7.67-.11-1.14.91-1.65,1.24-2.54.07-.19.36-.21.59-.21,1.8.02,3.6-.28,5.38.19.33.09.73,0,1.07-.1,3.02-.92,6.09-.53,9.16-.37,2.14.11,4.28.14,6.42-.04.49-.04.91-.19,1.27.26.4.5-.13.78-.26,1.16-7.04,0-14.09.02-21.13.02-.55,0-1.08.07-1.6.25-.87.29-1.25.79-.92,1.73.21.62.29,1.26.28,1.92-.01,7.8,0,15.6,0,23.39,0,1.88-.28,3.76-.18,5.64.03.64-.25,1.17-1.01,1.11-2.08-.15-4.17-.16-6.26-.15-9.62.04-19.24.07-28.85-.11-3.15-.06-6.31-.29-9.45.15-.3.04-.62,0-.76-.3-.16-.37.2-.47.42-.64,1-.75,2.18-1.3,2.77-2.5Z"/>
        <path class="cls-2" d="M860.73,475.89c-.54.24-1.09.46-1.7.48-1.03-.22-1.88.18-2.66.8-.13.02-.27.04-.4.06-1.91-.14-3.78-.05-5.49.95-.33.1-.66.1-.99.02-.44-.48-1.02-.26-1.54-.28-1.42-.04-1.62.23-1.39,1.66.05.32.03.65.04.98,0,8.16,0,16.32.02,24.48,0,.55-.09,1.08-.22,1.61-.11.42-.42.8-.85.65-.85-.29-1.65.06-2.48.05-6.02,0-12.03-.01-18.05.01-.99,0-1.33-.4-1.33-1.38.02-25.03.02-50.06.02-75.08,0-.55.06-1.08.16-1.61.36-2.03.05-4.09.23-6.13.01-.16-.07-.36-.16-.51-.52-.87-.09-1.1.71-1.12,3.04-.08,6.09-.16,9.13-.25.36-.01.73-.02,1.09-.05,3.06-.27,6.1-.64,9.17-.8,2.54-.13,5.08-.03,7.62-.02,1.05,0,2.07.19,3.08.43-.3.75-.88,1.01-1.65.94-.86-.08-1.73-.2-2.59-.21-4-.02-7.99,0-11.99-.02-.72,0-1.35.06-1.85.66-.25.29-.63.42-1.08.38-2.48-.23-4.95-.06-7.39.36-.69.12-1.37.25-2.03,0-1.2-.45-1.3-.37-1.36.95-.11,2.49.08,4.97.06,7.46-.1,17.13-.05,34.26-.05,51.38,0,.61.16,1.23.12,1.83-.3,4.93-.06,9.86-.11,14.79,0,1.04.42,2.09.1,3.11-.3.94.09,1.79.16,2.68.03.47.48.67.98.68,1.75.06,3.51.22,5.26.2,4.17-.04,8.34.18,12.51-.18,1.04-.09,1.38-.61,1.49-1.5.09-.77-.32-1.54-.15-2.25.41-1.68.39-3.37.35-5.07-.09-4.06.25-8.12-.19-12.17-.05-.46-.26-.88-.18-1.38.21-1.38.52-2.79-.38-4.09-.1-.15-.14-.51-.04-.61.67-.67,1.1-1.71,1.98-2.01,1.81-.62,3.85-.74,5.63-.63,2.84.17,5.2-1.06,7.76-1.65,1.39-.32,2.4-1.78,4.01-1.85.12,0,.31-.22.35-.37.17-.68.65-.73,1.19-.59.7.19.91-.06.71-.7-.21-.67.13-.81.7-.89,2.14-.3,3.67-1.37,4.97-3.19.76-1.07,1.88-1.87,2.24-3.25.05-.17.5-.23.76-.36.65-.33,1.37-.67,1.41-1.49.05-.9.63-1.44,1.14-2.02.4-.45.69-.86.68-1.52,0-.65.17-1.3.83-1.66.23-.13.38-.3.44-.58.44-2,.83-4.01,1.4-5.98.33-1.14.29-2.36-.07-3.54-.1-.35-.24-.67,0-1.04.34-.52.34-1.17.19-1.69-.42-1.42-.31-2.87-.45-4.3-.08-.86-.21-1.9-1.48-2.11-.59-.1-.74-.65-.62-1.21.32-1.55.07-2.84-1.49-3.62-.37-.19-.68-.59-.65-.96.09-1.09-.7-1.47-1.38-2-.43-.33-.88-.68-1.17-1.12-.37-.55-.85-.81-1.42-1.1-1.19-.6-2.4-1.24-3.43-2.08-.51-.42-.9-.75-1.57-.71-1.69.11-3.24-.55-4.62-1.31-1.07-.59-2.04-.95-3.23-.87-.58.04-1.16.02-1.74,0-.58-.03-.97-.28-.93-.94,1.25.05,2.5.04,3.72-.3.2.03.41.07.61.1,1.79.73,3.65,1.31,5.46,1.96,1.24.45,2.43.93,3.64,1.46,2.63,1.15,4.59,3.14,6.58,5.03,2.4,2.29,3.54,5.47,4.49,8.52.98,3.16,1.07,6.58.75,9.91-.18,1.92-.42,3.86-.98,5.73-.58,1.95-1.3,3.84-2.24,5.68-.75,1.49-1.57,2.88-2.59,4.2-.77.99-1.56,1.95-2.41,2.88-1.32,1.42-2.6,2.82-4.25,3.9-1,.65-1.85,1.54-2.77,2.33-.3.16-.61.31-.91.47-1.21.52-2.42,1.03-3.62,1.56-.57.25-1.28.29-1.59.98Z"/>
        <path class="cls-2" d="M758.55,463.6c0-13.9.01-27.8-.02-41.7,0-1.05.45-1.41,1.33-1.32,1.63.17,3.25.04,4.87.04,12.75-.05,25.51-.03,38.26-.01,1.26,0,2.52-.13,3.8.09.85.15.94.52.94,1.21-.03,3.41-.06,6.82,0,10.23.03,2.43-.18,4.85.13,7.28.16,1.29-.58,1.93-1.88,1.88-6.97-.29-13.95-.06-20.92-.13-.07,0-.15,0-.22,0-1.94.14-1.96.14-1.97,2.1-.01,3.27.02,6.53,0,9.8,0,.74.3,1.11,1.02,1.29,1.18.3,2.4.28,3.57.25,4.11-.12,8.21-.03,12.31-.05.94,0,1.88-.07,2.82-.22,1.36-.22,2.22.52,2.04,1.81-.23,1.67-.1,3.33-.08,5,.06,3.77-.22,7.54.1,11.31.09,1.12-.36,1.53-1.57,1.53-6.03,0-12.06,0-18.1.02-1.89,0-2.11.24-2.11,2.14,0,3.23,0,6.46,0,9.69,0,1.23.3,1.56,1.54,1.56,6.9,0,13.81,0,20.71-.03,1.26,0,2.52.18,3.8-.13.73-.18,1.42.74,1.37,1.6-.29,5.57-.16,11.15-.13,16.72.01,2.48-.05,2.39-2.6,2.31-1.7-.06-3.44.03-5.17.03-12.5.01-25,.02-37.5.03-1.74,0-3.49.01-5.23-.01-1.09-.02-1.44-.46-1.2-1.53.18-.8.09-1.59.09-2.38,0-13.46,0-26.93,0-40.39,0,0-.01,0-.02,0ZM782.95,455.11c-.1-.18-.26-.23-.45-.22-.05-.02-.11-.02-.17-.02-.04-.25-.17-.42-.45-.42-.14-.89.51-1.6.47-2.51-.1-2.05.09-4.12-.08-6.16-.1-1.25.06-2.52-.23-3.76-.12-1,.63-1.23,1.33-1.51,5.38,0,10.75,0,16.13,0,2,0,4,.02,5.99,0,1.22-.01,1.72-.75,1.27-1.87-.19-.46-.23-.86-.11-1.35.18-.69.27-1.42.27-2.14.03-3.23,0-6.46.02-9.69,0-.87-.38-1.7-.19-2.58.23-1.13-.03-1.51-1.09-1.51-2.58.02-5.16,0-7.74-.02-12.61-.07-25.21-.02-37.82-.04-.91,0-1.19.3-1.19,1.2.03,27.69.03,55.37.04,83.06,0,1.57.1,1.68,1.71,1.78.22.01.44.01.65.01,14.35,0,28.7,0,43.05-.02.43,0,.89.01,1.29-.13.8-.29,1.55-.2,2.34,0,1.23.31,1.48.03,1.59-1.27.12-1.41-.04-2.82.04-4.22.25-4.28.08-8.55-.07-12.82-.03-.71-.41-1.05-1.18-.79-.69.24-1.42.22-2.15.27-1.32.09-2.59-.26-3.9-.25-5.25.05-10.5.02-15.75.04-.83,0-1.6-.32-2.48-.1-1.56.39-2.31-.37-1.98-1.97.15-.72.18-1.43.18-2.16,0-2.5-.02-5.01,0-7.51,0-.64-.1-1.22-.44-1.76-.01-.37,0-.73.22-1.05.62-.5,1.26-.79,2.1-.46.46.18,1,.22,1.49.2,5.84-.26,11.67-.26,17.5-.01.71.03,1.12-.3,1.05-.92-.35-3.22-.1-6.45-.09-9.67,0-2.23-.34-4.46-.03-6.69.11-.83-.37-1.03-1.13-1.03-6.68.03-13.36.03-20.04.04Z"/>
        <path class="cls-2" d="M893.54,464.26c0-13.25,0-26.49,0-39.74,0-.94-.02-1.88-.22-2.81-.13-.62.06-.89.77-.93,4.85-.22,9.7-.17,14.55-.18,2.62,0,5.23-.02,7.85-.05,1.56-.01,1.58,0,1.58,1.56,0,20.54-.01,41.08-.02,61.62,0,.73.02,1.45,0,2.18-.04,1.02.46,1.46,1.44,1.46,1.89,0,3.78.05,5.67.04,6.76-.05,13.52.11,20.27-.08,1.23-.03,1.69.43,1.59,1.64-.32,4.17-.14,8.33-.04,12.5.04,1.72-.18,3.44.18,5.16.14.69-.73,1.35-1.65,1.34-2.03,0-4.07-.04-6.1-.04-12.54,0-25.07-.06-37.61.04-2.45.02-4.89-.21-7.34-.06-.84.05-1.14-.63-1.11-1.32.41-7.94.09-15.88.16-23.83.06-6.17.01-12.34.01-18.51,0,0,.01,0,.02,0ZM918.14,488.35c-.29-.34-.58-.67-.87-1.01-.15-1.14.39-2.21.38-3.33,0-19.67,0-39.34.03-59.01,0-.81-.48-1.5-.28-2.34.23-.98-.12-1.36-1.12-1.34-6.68.15-13.36-.26-20.03.21-1.49.11-1.85.42-1.93,1.97-.02.29,0,.58,0,.87,0,25.04,0,50.08,0,75.13,0,1.95-.03,3.89,0,5.84.01,1.24.65,1.59,1.89,1.58,1.33,0,2.66.48,3.98-.1.09-.04.27.08.4.14.71.34,1.47.41,2.23.41,14.06,0,28.11.09,42.17-.14.85-.01,1.12-.33,1.14-1.17.07-2.24.15-4.47.01-6.71-.1-1.7,0-3.41-.02-5.12,0-.41.15-.91-.45-1.08,0-.25-.02-.49-.02-.74.2-1.05-.13-2.16.41-3.2.16-.32.15-.81-.24-1.09-.38-.27-.77-.11-1.13.08-.35.18-.64.48-1.09.39-1.52-.29-3.06-.14-4.59-.18-4.49-.09-8.99.09-13.47-.08-2.46-.09-4.92.8-7.37.02Z"/>
        <path class="cls-2" d="M716.81,506.72c0-.22,0-.43,0-.65.11-.07.23-.14.34-.21.66-.12.53-.64.61-1.1.17-.99-.15-2,.16-2.97.1-.33.24-.74.63-.3.69.78.71,2.2.07,3.16-.34.52-.16.78.3,1.03.99.54,2.06.7,3.16.59,1.79-.18,3.55-.36,5.37-.26,3.47.18,6.96.17,10.43-.16.6-.06,1.26-.18,1.21-.95-.08-1.24.29-2.44.24-3.68-.23-5.62.13-11.24.07-16.87-.12-10.8-.29-21.61.12-32.42.27-7.1-.28-14.21-.2-21.31.02-2.05.03-4.1,0-6.15-.04-1.82-.72-2.29-2.5-1.88-.75.17-1.48.66-2.29.26-.95-.47-1.97-.4-2.99-.4-2.18,0-4.37-.12-6.54.04-1.57.12-3.15.03-4.72.12-1.02.06-2.13.63-3.12-.17-.26-1.07.42-1.11,1.18-1.11,4.42,0,8.84.07,13.26-.03,2.71-.06,5.44.41,8.14-.14.22-.05.4.09.59.22.74.49.39,1.14.28,1.75-.28.28-.26.49.13.63.03.51.07,1.01.07,1.52,0,19.87.01,39.74,0,59.6,0,6.92-.03,13.85-.05,20.77-.06.02-.18.03-.18.06-.02.15.11.12.19.13.04,1.37-.4,1.77-1.69,1.56-.28-.05-.58-.03-.87-.03-6.48,0-12.97-.01-19.45.02-.77,0-1.41-.15-1.97-.66Z"/>
        <path class="cls-2" d="M647.64,443.5c0,1.67.03,3.34-.02,5.01-.02.6.22.89.71,1.18,1.24.72,2.76.94,3.69,2.21.42.57.81,1.19,1.47,1.58.44.26.36.77.17,1.18-.89,1.88-.88,3.86-.7,5.86.12,1.31-.26,1.67-1.57,1.9-2.18.38-4.36.75-6.59.62-1.15-.07-2.28-.22-3.46-.05-1.22.17-1.69-.47-1.57-1.69.08-.76.06-1.52-.07-2.28-.22-1.36.12-1.99,1.36-2.64.16-.08.33-.16.49-.25.29-.16.67-.32.61-.68-.08-.44-.53-.42-.89-.44-.43-.03-.87-.03-1.31-.04-.41,0-.82-.04-.98-.51-.15-.42,0-.76.28-1.09,1.34-1.62,2.76-3.08,5.04-3.27.32-.03.62-.19.93-.31.62-.23.8-.53.28-1.1-.47-.51-.73-1.13-.71-1.88.05-2.76.06-5.51.05-8.27,0-.9.22-1.47,1.28-1.42,1.18.05,1.51.32,1.51,1.47,0,1.63,0,3.27,0,4.9Z"/>
        <path class="cls-2" d="M740.79,505.64c.02-6.92.05-13.85.05-20.77,0-19.87,0-39.74,0-59.6,0-.51-.05-1.01-.07-1.52.09-.24.14-.47-.13-.63.11-.61.47-1.26-.28-1.75-.19-.13-.36-.26-.59-.22-2.7.55-5.43.08-8.14.14-4.42.1-8.84.04-13.26.03-.77,0-1.44.05-1.18,1.11.33,1.47-.06,2.94-.06,4.4,0,7.6,0,15.2,0,22.8,0,.68.07,1.36.14,2.05.11,1.14-.12,2.27-.82,3.24-.8,0-1.6,0-2.4-.01-1.95,0-3.91,0-5.86,0-2.91,0-5.83,0-8.74,0-.5,0-1,0-1.5,0-.6,0-1.19,0-1.79,0-.43,0-.86,0-1.3,0-.15,0-.29-.02-.44-.02-.16-.27-.4-.23-.65-.18-.15-.01-.3-.03-.44-.04-.2-.3-.52-.4-.84-.49.06-.5.12-1,.19-1.5.18-.11.21-.26.13-.44.02-2.68.05-5.36.06-8.04,0-7.21,0-14.42,0-21.62,0-.28.08-.59-.17-.82-.07-.07-.13-.14-.2-.22-.18-.39-.52-.45-.91-.45-6.27,0-12.53.03-18.8-.02-1.02,0-1.08.47-1.08,1.26.03,5.25.09,10.51-.02,15.76-.04,1.98.06,4.01-.25,5.95-.62,3.87-.25,7.8-.86,11.63-.45,2.84-.37,5.77-1.36,8.53-.09.26-.07.6-.43.7-.19-.92.14-1.8.29-2.68.66-3.78,1.07-7.59,1.38-11.41.72-9.08.82-18.18.72-27.29,0-.83.07-1.67-.25-2.47-.3-.76.37-.55.66-.56,1.99-.05,3.97-.11,5.97-.04,4.5.16,9.01.08,13.51.06,1.96,0,2.31.38,2.25,2.33-.07,2.36-.02,4.72-.02,7.07,0,7.29,0,14.59,0,21.88,0,.07,0,.15,0,.22-.04,2.07.17,2.27,2.31,2.27,6.65,0,13.29,0,19.94.03.7,0,1.01-.3,1.08-.92.05-.36.05-.72.05-1.08,0-10.09,0-20.17,0-30.26,0-1.48.12-1.52,1.63-1.52,7.01.02,14.02,0,21.03-.02,1.49,0,2.11.58,2.11,2.08,0,26.16,0,52.32,0,78.48,0,1.74.04,3.48.03,5.22,0,1.25-.41,1.63-1.63,1.62-4.54,0-9.08-.08-13.62,0-2.35.04-4.7-.21-7.04.15-.74.12-1.42-.27-2.12-.43-.49-.11-.45-.56-.25-.96.56.51,1.21.66,1.97.66,6.48-.03,12.97-.02,19.45-.02.29,0,.58-.01.87.03,1.3.21,1.73-.18,1.69-1.56.03-.07.03-.13-.01-.19Z"/>
        <path class="cls-2" d="M586.81,463.49c-.41-1.09-.56-2.26-.6-3.37-.09-2.86-.33-5.72-.33-8.58-.03-9.65-.15-19.29-.24-28.94,0-.15,0-.29-.02-.43-.26-2.47-.14-2.59,2.36-2.43.98.06,1.96.11,2.94.11,17.84.01,35.68.02,53.52.02.8,0,1.59-.15,2.39-.16,1.24-.02,1.57.53,1.07,1.63-.24.52-.31,1.12-.56,1.63-1.21,2.45-3.22,3.84-5.86,4.48-4.23,1.03-8.53.46-12.8.63-2.83.11-5.57.73-8.34,1.21-2.33.4-4.32,1.46-6.3,2.53-1.34.72-2.66,1.7-3.24,3.24-.44,1.17-1.13,1.93-2.25,2.61-2.63,1.59-5.2,3.29-7.5,5.36-.46.41-1,.71-1.49,1.09-.29.22-.6.5-.39.91.2.4.57.55,1.01.48.32-.05.63-.16.95-.24.32-.09.66-.17.89.17.22.32.06.63-.11.91-.17.28-.37.54-.52.83-.47.87-.55,1.75.13,2.54.63.74,1.31,1.45,2.01,2.14.48.47.94.44,1.36-.14.6-.83,1.29-1.54,2.22-2.04,1.56-.84,3.12-.66,4.6-.02,1.45.63,2.84,1.43,4.15,2.35.65.45.81.96.65,1.66-.79,3.4-5.35,5.44-8.22,4.52-1.78-.57-2.25-.27-1.97,1.57.36,2.35,1.84,4.06,3.56,5.55.51.44,1.02.11,1.39-.37,1.17-1.55,2.56-2.84,4.28-3.78,1.79-.98,3.74-1.26,5.71-1.45,2.71-.26,5.34-.83,7.59-2.4,1.09-.76,1.91-1.88,1.97-3.36.02-.52.23-1.03.46-1.54.54,1.54,1.15,2.97.22,4.66-1.47,2.67-3.42,4.63-6.22,5.95-3.63,1.71-7.21,3.56-10.35,6.16-3.32,2.76-5.16,6.27-5.83,10.47-.05.31.06.66-.21.93-.26-1.51-.27-2.99.45-4.41.34-.67.83-1.29.74-2.12.37-.25.49-.6.45-1.03,1.46-1.72,2.85-3.47,4.78-4.76,2.03-1.36,3.96-2.89,6.18-3.94,1.01-.48,2.03-.92,3.01-1.47,2.17-1.21,4.34-2.42,5.73-4.61.57-.89,1.06-1.81,1.36-2.82.07-.25.03-.55-.27-.63-.31-.08-.28.23-.36.42-1.26,2.83-3.52,4.25-6.52,4.69-3.22.47-6.55.6-9.46,2.26-1.44.82-3.03,1.66-3.23,3.64-.47.04-.77.54-1.27.48-.59,0-1.07-.22-1.35-.73-.24-.44-.63-.67-1.02-.92-.18-1-.93-1.56-1.68-2.11-.26-1.04-.49-2.1-.81-3.13-.24-.81-.18-1.62.48-2.06.66-.44,1.49-.38,2.23.13,1.01.69,4.46.19,5.27-.74.07-.08.14-.17.18-.27.2-.49.59-.77,1.01-1.08,1.48-1.05,1.41-2.38-.08-3.3-.55-.34-1.04-.78-1.56-1.17-.53-.4-1.12-.64-1.81-.57-.35,0-.71,0-1.06.01-.08-.58-.54-.59-.97-.67-1.3-.23-3.39.85-4.03,2.54-.32.85-.97,1-1.68.45-.54-.42-1.01-.95-1.59-1.31-1.59-1.01-1.52-2.53-1.23-4.05.18-.97.16-1.34-.95-.96-.83.29-1.27-.31-1.6-.96-.36-.69-.08-1.12.54-1.51,1.52-.95,2.71-2.31,4.28-3.23,1.92-1.13,3.66-2.57,5.7-3.52.53-.25.93-.61.86-1.12-.15-1.12.5-1.75,1.2-2.39.72-.66,1.37-1.44,2.19-1.93,1.02-.61,1.94-1.5,2.98-1.88,1.75-.64,3.64-.86,5.44-1.5,1.75-.62,3.73-.77,5.67-.79,4.32-.05,8.64.11,12.95-.19,1.62-.12,3.01-.83,4.25-1.64,1.54-1,2.34-2.69,2.77-4.51.12-.51-.08-.77-.52-.66-1.1.3-2.11-.22-3.17-.22-18.24,0-36.48,0-54.72,0-.54,0-1.08.14-1.62.15-.7,0-.82.38-.82.98-.01,7.91.12,15.81.27,23.72-.03,4.43-.04,8.85.23,13.27-.22,1.71.49,3.4.09,5.11Z"/>
        <path class="cls-2" d="M860.56,421.2c-1.22.34-2.47.35-3.72.3-.59-.58-1.38-.49-2.1-.64-1.01-.24-2.04-.43-3.08-.43-2.54,0-5.09-.11-7.62.02-3.06.16-6.11.53-9.17.8-.36.03-.72.04-1.09.05-3.04.08-6.09.17-9.13.25-.8.02-1.24.26-.71,1.12.09.15.17.34.16.51-.17,2.04.13,4.1-.23,6.13-.09.54-.16,1.07-.16,1.61,0,25.03,0,50.06-.02,75.08,0,.97.34,1.38,1.33,1.38,6.02-.02,12.03-.02,18.05-.01.82,0,1.62-.35,2.48-.05.43.15.74-.23.85-.65.14-.52.22-1.05.22-1.61-.01-8.16-.01-16.32-.02-24.48,0-.33.02-.66-.04-.98-.22-1.43-.03-1.69,1.39-1.66.51.01,1.1-.2,1.54.28-.14.04-.27.12-.41.12-2.08.11-2.1.11-2.1,2.12,0,6.81-.03,13.62.02,20.44.01,1.8-.11,3.61.08,5.42.14,1.3-.59,1.85-1.9,1.67-.32-.04-.65-.03-.98-.03-6.43,0-12.86,0-19.28,0-1.82,0-1.88-.25-1.9-2.08-.02-2.17-.08-4.34-.08-6.52,0-23.18.02-46.36.02-69.53,0-2.53-.02-5.07-.04-7.6,0-.46.12-.78.62-.85.36-.05.72-.15,1.08-.14,3.46.11,6.84-.65,10.26-.97,2.64-.25,5.28-.39,7.93-.4,3.6,0,7.19.02,10.79.04,2.19.01,4.27.77,6.44.96.18.02.35.23.52.35Z"/>
        <path class="cls-2" d="M644.47,464.96c3.52,0,6.68.02,9.83,0,1.16-.01,2.31-.13,3.47-.2.87-.05,1.3.37,1.27,1.23-.02.54-.11,1.08-.15,1.62-.1,1.26-.81,1.8-2,2.19-1.54.51-3.02.38-4.57.36-2.2-.02-4.41.18-6.63.17-3.16-.01-6.32,0-9.47.03-.59,0-1.16-.07-1.72-.23-.76-.22-1.21-.58-.96-1.49.15-.56.03-1.14-.09-1.72-.26-1.26.31-1.96,1.58-1.96,3.27,0,6.53-.15,9.44.01Z"/>
        <path class="cls-2" d="M929.31,537.74c1.12-.09,2.24-.16,3.37-.08,2.2.17,3.22,1.95,2.48,3.99-1.27,3.53-6.86,4.84-9.78,3.28-1.3-.69-1.96-3.22-1.1-4.5.62-.93,1.16-1.71.46-2.93-.4-.7.13-1.54.71-2.14.44-.46.56-.86.11-1.42-1.38-1.71-1.55-3.34-.58-5.01.89-1.53,2.94-2.47,4.92-1.95,1.55.41,3.01.29,4.51.03.59-.1,1.13-.14,1.24.62.1.68-.22,1.08-.91,1.25-1.52.38-1.44.38-1.24,1.92.28,2.07-1.57,4.95-4.64,4.67-.36-.03-.72-.1-1.08-.11-.64-.02-1.03.3-1.13.94-.09.64.24,1.03.82,1.23.59.2,1.21.22,1.83.21ZM929.18,539.51s0,.01,0,.02c-.54,0-1.09,0-1.63,0-.74.01-1.49.25-1.6,1.02-.13.89-.58,1.91.55,2.64,2.09,1.36,5.06.69,6.55-1.54.77-1.15.34-2.07-1.05-2.14-.94-.05-1.88,0-2.82,0ZM926.54,531.03c.04,1.82.9,2.85,2.37,2.82,1.47-.04,2.64-1.35,2.59-2.91-.04-1.39-1.24-2.55-2.59-2.52-1.44.03-2.4,1.09-2.37,2.62Z"/>
        <path class="cls-2" d="M597.68,531.83c0,2.24-.01,4.49,0,6.73,0,.81-.22,1.33-1.15,1.34-.93.01-1.34-.49-1.34-1.34,0-1.52.02-3.04.08-4.56.05-1.42-.25-1.73-1.67-1.71-1.45.03-2.9.03-4.35.02-1.02,0-1.43.47-1.39,1.48.07,1.55.05,3.11.11,4.67.03.89-.22,1.51-1.24,1.5-1.02,0-1.2-.73-1.13-1.5.32-3.65.02-7.32.14-10.97.03-.79-.08-1.59-.15-2.38-.08-1.1.32-1.64,1.24-1.62.89.02,1.41.62,1.2,1.67-.27,1.33.08,2.67-.18,4-.16.82.3,1.31,1.17,1.33,1.56.03,3.12.06,4.68.05,1.23,0,1.63-.44,1.61-1.66-.02-1.27-.06-2.53-.11-3.8-.05-1.11.36-1.62,1.39-1.65,1.03-.03,1.04.81,1.06,1.45.04,1.95-.02,3.91-.04,5.87,0,.36,0,.72,0,1.08.03,0,.06,0,.08,0Z"/>
        <path class="cls-2" d="M863.76,533.67c-.13-1.46.06-2.98,1.17-4.39,1.16-1.47,2.54-2.19,4.37-2.16.25,0,.51,0,.76-.01,1.29-.08,1.61-.49,1.4-1.73-.13-.79-.28-1.57-.39-2.36-.15-1.04.25-1.47,1.41-1.57.89-.07,1.25.3,1.2,1.36-.23,5.18-.09,10.36-.01,15.54,0,.56.15,1.19-.52,1.54-.63.33-1.09.04-1.56-.37-.42-.37-.91-.26-1.31.04-2.8,2.06-6.77-1.02-6.54-4.14.04-.5,0-1.02,0-1.72ZM871.52,533.3s.02,0,.03,0c0-.91-.04-1.81.01-2.71.06-1.06-.47-1.51-1.44-1.64-2.13-.3-3.65.72-4.19,2.84-.73,2.89-.22,4.8,1.51,6.09,1.16.86,2.12.21,3.15-.19.87-.34.98-1.06.94-1.88-.04-.83,0-1.66,0-2.49Z"/>
        <path class="cls-2" d="M723.77,530.89c.06,2.57-.19,5.15.09,7.72.06.53.09,1.02-.48,1.32-.57.3-1.03.14-1.47-.29-.45-.44-.95-.39-1.51-.14-2.89,1.32-5.5.34-6.3-2.82-.69-2.74-.69-5.64,1.48-8,.99-1.09,2.24-1.56,3.67-1.6.44-.01.87,0,1.31,0,.84,0,1.19-.4,1.09-1.23-.12-1.01-.22-2.02-.32-3.03-.08-.88.28-1.41,1.21-1.43.9-.02,1.22.57,1.22,1.34.02,2.72,0,5.44,0,8.16ZM715.79,533.52c.1.68.21,1.36.28,2.04.1.98.63,1.66,1.39,2.22,1.12.83,2.19.43,3.25-.11.94-.47.95-1.27.92-2.21-.05-1.51.04-3.01,0-4.53-.05-1.6-.59-2.22-2.19-2-2.33.32-3.65,2.01-3.65,4.59Z"/>
        <path class="cls-2" d="M717.16,505.86c-.11.07-.23.14-.34.21-.22-.29-.12-.63-.12-.95,0-9.65,0-19.3.01-28.95,0-2.02,0-1.86-2.01-2.02-3.17-.26-6.31.18-9.47.07-3.48-.12-6.97-.03-10.46-.03-1.68,0-1.87.26-1.32,1.81.06.17.14.35.12.52-.66,6.44-.13,12.89-.28,19.34-.06,2.46-.05,4.92-.03,7.37,0,1.01.21,2.02.2,3.03-.02,1.61-.37,1.79-1.92,1.73-2.32-.09-4.65-.06-6.97-.06-10.97,0-21.94,0-32.91,0-1.88,0-3.75.02-5.63.02-.31,0-.69.07-.79-.38-.07-.31-.02-.63.26-.78,1.48-.77,2.58-2.07,4.05-2.86-.59,1.2-1.78,1.74-2.77,2.5-.22.17-.58.27-.42.64.13.31.46.34.76.3,3.14-.44,6.31-.21,9.45-.15,9.62.18,19.24.15,28.85.11,2.09,0,4.17,0,6.26.15.76.06,1.04-.47,1.01-1.11-.1-1.89.18-3.76.18-5.64,0-7.8,0-15.6,0-23.39,0-.66-.07-1.31-.28-1.92-.33-.94.06-1.45.92-1.73.52-.17,1.04-.25,1.6-.25,7.04,0,14.09,0,21.13-.02.74.23.91.75.9,1.48-.02,6.15-.02,12.31-.02,18.46,0,4.16.02,8.33.04,12.49Z"/>
        <path class="cls-2" d="M659.24,539.8c-1.19,0-2.37-.13-3.58.04-.96.14-1.01-.82-.96-1.48.23-3.15.06-6.3.11-9.45.02-1.34.03-2.68-.1-4.02-.11-1.09.22-1.32,1.28-1.31,1.92.02,3.83.29,5.75-.07.84-.16,1.13.43,1.13,1.1,0,.71-.42,1.18-1.2,1.05-1.12-.19-2.24-.1-3.36-.16-.9-.04-1.34.4-1.31,1.32.02.8,0,1.59-.02,2.39-.04.89.41,1.25,1.26,1.23,1.01-.03,2.03-.03,3.04-.08.66-.03,1.16.09,1.26.85.11.76-.37,1.02-.99,1.18-.91.23-1.8-.1-2.7-.1-1.58,0-1.85.25-1.84,1.79,0,.76,0,1.52-.06,2.28-.09.99.28,1.52,1.31,1.54,1.16.02,2.31.16,3.47-.05.74-.13,1.47-.09,1.55.86.08.97-.65,1.22-1.44,1.22-.87,0-1.74-.07-2.61-.12Z"/>
        <path class="cls-2" d="M831.85,534.68c0,1.3-.01,2.61,0,3.91.01.75-.18,1.31-1.05,1.32-.91,0-1.38-.48-1.28-1.37.21-1.88.09-3.76.12-5.65,0-.47,0-.94-.04-1.41-.2-2.22-1.23-2.95-3.45-2.47-1.39.3-1.78.74-1.79,2.15-.02,2.43,0,4.85.02,7.28,0,.77-.13,1.38-1.06,1.46-.93.09-1.39-.31-1.31-1.24.27-3,.18-6,.04-9-.02-.39-.11-.78-.19-1.17-.08-.42-.32-.88.14-1.2.48-.33,1.09-.43,1.53-.03.66.61,1.23.47,1.97.16,1.23-.51,2.55-.57,3.85-.31,1.23.25,2.41,2.03,2.45,3.63.02.65.01,1.3.01,1.96,0,.65,0,1.3,0,1.96,0,0,.01,0,.02,0Z"/>
        <path class="cls-2" d="M774.39,523.39c1.37.26,3.02.24,4.23,1.66,2.23,2.63.69,5.63-1.38,7.02-1.07.72-2.26,1.3-3.66,1.2-.86-.06-1.33.34-1.27,1.32.09,1.41.03,2.83.09,4.24.03.79-.31,1.17-1.06,1.17-.72,0-1.2-.35-1.19-1.11.01-1.23.1-2.46.11-3.69.03-2.82.05-5.64.04-8.46,0-.61-.09-1.23-.16-1.84-.08-.75.23-1.21.99-1.28,1.01-.09,2.02-.14,3.26-.23ZM772.2,530.28c-.02,1.05.37,1.44,1.33,1.34.69-.07,1.33-.34,1.95-.63,1.57-.74,2.3-2.7,1.6-4.22-.65-1.41-2.68-2.11-4.22-1.47-.46.19-.71.5-.65,1,.18,1.37.29,2.73,0,3.98Z"/>
        <path class="cls-2" d="M614.33,533.54c.07-1.82.04-3.61-.53-5.38-.24-.74.25-1.05.94-1.1,1.25-.1,1.68.14,1.68,1.09-.02,1.99-.1,3.98-.11,5.96,0,1.17-.34,2.41.7,3.38.87.82,1.81.97,3.11.41,1.04-.45,1.76-1.03,1.65-2.36-.22-2.44.25-4.92-.41-7.36-.26-.96.67-1.07,1.33-1.18.72-.13,1.28.19,1.21.99-.2,2.32-.07,4.63-.12,6.95-.02,1.14.06,2.23.25,3.34.09.54.32,1.21-.37,1.55-.63.32-1.24.3-1.76-.31-.43-.5-.96-.39-1.47-.07-2.26,1.42-3.72.57-5.17-.53-.7-.54-.88-1.33-.92-2.13-.05-1.08-.01-2.17-.01-3.26Z"/>
        <path class="cls-2" d="M789.76,533.55c-.12-1.62.07-3.1,1.06-4.52,1.18-1.68,2.77-2.19,4.61-2.03,3.72.31,4.66,2.29,5.03,5.4.18,1.48-.09,2.9-.57,4.35-.81,2.44-2.71,3.31-4.91,3.43-1.8.09-3.37-.77-4.44-2.44-.86-1.33-.78-2.75-.78-4.18ZM791.81,533.27c-.03,1.67.09,2.47.47,3.25.55,1.16,1.73,1.89,2.87,1.78,1.38-.13,2.23-.88,2.71-2.13.69-1.8.45-3.56-.04-5.32-.36-1.3-1.25-1.93-2.63-2.02-1.36-.08-2.35.47-2.92,1.64-.46.94-.51,1.95-.46,2.79Z"/>
        <path class="cls-2" d="M608.88,482.57c.47,1.15.46,2.39.73,3.59.56,2.49,1.76,4.75,2.52,7.16.12.37.32.84.79.76.6-.1.58-.73.6-1.15.11-2.36.91-4.52,1.75-6.69.59-1.52,1.59-2.75,2.57-4.01.3-.38.77-.72,1.21-.57.49.16.48.75.48,1.23-.06,4.35-.16,8.7-.18,13.05-.01,2.5.02,5.04,1.36,7.27.7,1.16,1.02,2.57,2.15,3.47.25.2.28.52.12.8-.21.37-.5.16-.76.05-4.3-1.76-8.55-3.65-12.35-6.35-5.14-3.64-9.67-7.9-13.28-13.16-2.14-3.12-3.83-6.45-5.51-9.79-.84-1.68-1.57-3.5-2.11-5.34-.12-.4-.34-.82-.16-1.27.51.66.67,1.47.98,2.21.27.64.42,1.4,1.28,1.57,0,.12-.02.25-.02.37-.45.81.02,1.55.37,2.13,1.57,2.6,2.63,5.46,4.31,8.02,1.61,2.46,3.27,4.89,5.3,6.96,2.05,2.09,4.09,4.22,6.54,5.95,3.46,2.45,6.84,4.93,10.93,6.24.34.11.66.3.99.45.18.12.34.26.53.35.49.23,1.06.96,1.47.5.48-.54-.46-.87-.68-1.35-.29-.4-.78-.78-.85-1.22-.43-2.62-1.34-5.17-1.16-7.88.08-1.15-.07-2.32.02-3.48.23-2.98-.74-5.96,0-8.94,0-.03,0-.07,0-.11-.01-.33,0-.7-.41-.79-.34-.08-.52.21-.68.44-.25.36-.44.75-.71,1.08-1.35,1.64-1.97,3.55-2.18,5.62.02.48-.26.85-.45,1.25-.67,1.41-.37,2.91-.44,4.38-.39.88-.94.46-1.48.18-.89-1.06-1.12-2.39-1.57-3.65-.76-2.14-2.17-4.05-2-6.48,0-.07-.06-.14-.06-.21-.05-.89-.23-1.78.05-2.66Z"/>
        <path class="cls-2" d="M676.36,533.72c0-2.01.07-3.99,1.71-5.5.87-.8,1.8-1.34,3.02-1.18.96.13,1.96-.17,2.89.28,1.57.75,2.53,2.07,2.77,3.68.34,2.34.61,4.71-.88,6.91-1.23,1.81-3.57,2.7-5.93,1.99-2.13-.64-3.64-2.65-3.58-4.76.01-.47,0-.94,0-1.41ZM684.91,533.46c.05-1.32-.17-2.57-1.02-3.67-.88-1.14-2.1-1.01-3.28-.86-1.05.14-1.62.91-1.88,1.88-.46,1.73-.57,3.47,0,5.22.42,1.28,1.45,2.15,2.76,2.23,1.31.07,2.46-.66,2.98-1.92.38-.92.51-1.88.43-2.88Z"/>
        <path class="cls-2" d="M609.86,533.63c-.02,1.63-.06,3.27.28,4.88.08.37.32.81-.15,1.08-.48.28-1.1.51-1.55.14-.9-.72-1.62-.43-2.47.08-1.37.82-2.69.39-3.87-.46-1.1-.79-1.38-2.05-1.07-3.23.42-1.56,1.78-2.3,3.25-2.77.73-.23,1.5-.26,2.26-.26.85,0,1.23-.4,1.22-1.28-.01-2.36-1.45-3.43-3.73-2.73-.35.11-.69.23-1.05.29-.49.07-.96,0-1.14-.57-.16-.52.02-.93.44-1.24,1.61-1.18,5.69-.57,6.91.99.45.57.65,1.2.65,1.91,0,1.05,0,2.1,0,3.16ZM607.8,535.91c-.12-.56.21-1.59-.96-1.45-.92.11-1.82.44-2.69.77-1.03.4-1.26,1.23-.72,2.2.48.86,1.17,1.08,2.1.84,1.73-.46,2.27-.98,2.26-2.36Z"/>
        <path class="cls-2" d="M733.07,533.34c-1.01,0-2.03-.02-3.04,0-.52.01-1.07.3-.89.83.41,1.23.56,2.58,1.87,3.42,1.51.95,2.9.59,4.36.08.43-.15.86-.27,1.17.19.26.38.35.8.14,1.23-.15.31-.4.54-.73.6-1.42.25-2.8.59-4.29.31-3.09-.57-4.28-2.69-4.5-5.72-.14-1.89.05-3.91,1.38-5.57,1.2-1.49,3.58-2.19,5.65-1.56,1.39.43,2.42,2.05,2.52,3.97.02.33.05.65.07.98.05.78-.33,1.14-1.09,1.14-.87,0-1.74,0-2.61,0,0,.03,0,.06,0,.09ZM731.82,531.75c.55.03.98.06,1.42.08.51.02,1.06.08,1.34-.48.28-.58.11-1.14-.26-1.63-1.23-1.61-3.74-1.33-4.59.5-.54,1.17-.25,1.63,1.03,1.58.4-.01.8-.04,1.08-.05Z"/>
        <path class="cls-2" d="M882.9,533.28c-.91,0-1.81-.04-2.72.01-1.22.07-1.52.63-1.01,1.71.12.26.25.52.35.79.74,1.97,2.74,2.89,4.72,2.17.34-.12.68-.29,1.03-.32.61-.06,1.05.27,1.24.84.17.51-.13.88-.56,1.04-2.28.81-5.22,1.11-7.32-.98-.83-.83-1.23-1.83-1.41-2.87-.52-3.01-.47-6.28,2.32-7.9,2.76-1.61,5.66-1.3,6.84,2.16.28.82.19,1.78.19,2.68,0,.59-.51.63-.95.64-.91.02-1.81,0-2.72,0,0,0,0,.02,0,.03ZM882.82,531.84c.75,0,1.35.02,1.65-.63.28-.62-.04-1.12-.41-1.59-.57-.74-1.29-1.19-2.26-.93-1.12.3-2.12.77-2.47,2.03-.2.74.21,1.1.84,1.03.95-.1,1.88-.03,2.65.09Z"/>
        <path class="cls-2" d="M702.69,533.33c-1.23,0-2.46.03-3.7,0-.82-.03-1.11.28-.99,1.11.43,3.01,2.6,4.37,5.48,3.42.28-.09.55-.2.83-.24.66-.09,1.16.14,1.32.83.15.67-.23,1.03-.82,1.2-2.07.59-4.13.8-6.15-.22-.25-.13-.52-.28-.71-.48-2.41-2.72-2.78-7.23-.53-10.25,1.21-1.62,3.45-2.1,5.63-1.48,1.69.47,2.27,2.08,2.55,3.63.43,2.31.36,2.32-1.95,2.34-.33,0-.65.04-.98.06,0,.03,0,.06,0,.09ZM701.11,531.67c.3.01.62.03.95.04.51.03,1.07.08,1.35-.45.3-.59.07-1.15-.34-1.59-.59-.65-1.24-1.28-2.24-1.04-1.15.28-2.02.96-2.54,2.03-.25.52.03.82.53.96.75.22,1.5.17,2.29.06Z"/>
        <path class="cls-2" d="M943.2,533.27c-1.12,0-2.03-.04-2.93.01-1.04.06-1.34.51-1.09,1.51.76,2.97,2.57,3.98,5.5,3.08.28-.08.56-.16.85-.18.48-.02.85.2,1,.67.15.48-.03.89-.46,1.1-2.94,1.48-7.8.76-8.73-3.48-.45-2.07-.45-4,.35-5.92.91-2.17,2.4-3.25,5.17-3.06,2.03.15,3.05,1.04,3.53,3.29q.62,2.87-2.32,2.92c-.36,0-.72.04-.87.05ZM942.65,531.85c.78-.01,1.49-.01,1.78-.75.29-.74-.1-1.32-.65-1.81-1.41-1.25-4-.39-4.42,1.45-.17.74.2,1.09.84,1.03.87-.09,1.72-.09,2.45.08Z"/>
        <path class="cls-2" d="M642.03,533.26c-.94,0-1.89-.01-2.83,0-.71.01-1.05.32-.91,1.11.23,1.31.48,2.56,1.8,3.29.9.5,1.79.74,2.81.39.51-.17,1.07-.22,1.6-.33.49-.1.98-.16,1.16.45.18.64-.02,1.17-.66,1.43-1.6.66-3.23.7-4.9.24-2.31-.63-3.18-2.28-3.68-4.46-.6-2.64-.12-4.94,1.52-7.01,1.4-1.75,3.36-1.59,5.21-1.16,1.65.38,2.26,1.87,2.52,3.38.44,2.48.33,2.56-2.22,2.62-.47,0-.94,0-1.42,0,0,.02,0,.03,0,.05ZM640.96,531.76s0,.03,0,.05c.33.02.65.05.98.05.7,0,1.46.04,1.67-.84.19-.83-.16-1.47-.9-1.91-1.44-.87-3.47-.21-4.1,1.35-.32.8-.06,1.24.84,1.31.5.04,1.01,0,1.52,0Z"/>
        <path class="cls-2" d="M851.7,533.25c-.91,0-1.82-.02-2.72,0-.99.03-1.28.44-1.08,1.41.54,2.59,2.06,4.29,5.65,3.13.77-.25,1.53-.31,1.8.59.25.83-.46,1.13-1.11,1.32-1.7.52-3.4.69-5.11-.01-2.68-1.1-3.56-4.51-3.23-7.24.19-1.57.52-3.13,1.87-4.28,1.3-1.11,4.16-1.66,5.63-.8,1.37.8,1.87,2.21,2.02,3.67.22,2.2.14,2.2-2.08,2.19-.54,0-1.09,0-1.63,0,0,0,0,0,0,0ZM850.59,531.82s0-.04,0-.06c.5,0,1.01.04,1.51,0,1.27-.13,1.63-.86.93-1.91-.58-.87-1.38-1.37-2.48-1.17-.89.16-2.38,1.55-2.48,2.25-.07.53.28.73.69.79.6.09,1.22.08,1.83.12Z"/>
        <path class="cls-2" d="M759.93,534.48c.07,1.07.15,2.55.28,4.03.04.48.19.96-.32,1.26-.48.28-1.02.28-1.43-.07-.76-.64-1.36-.48-2.13.05-1.3.91-3.5.43-4.6-.9-.88-1.06-.68-3.04.49-4.15,1.03-.98,2.28-1.5,3.71-1.58.8-.05,1.78.11,2.03-1.01.26-1.19-.54-2.68-1.58-3.02-.79-.26-1.57-.16-2.35.07-.41.12-.83.3-1.27.19-.45-.11-.82-.33-.88-.84-.06-.49.17-.88.64-1.01,1.73-.48,3.52-.8,5.24-.22,1.36.46,2.04,1.68,2.22,3.1.15,1.22.09,2.46-.03,4.1ZM756.1,538.18c.33-.18.65-.36.98-.53.5-.04.77-.29.75-.81.04-.1.08-.2.12-.3.52-.71.14-1.36-.21-1.94-.18-.3-.59-.54-.96-.09-.35.1-.71.21-1.06.31-.44-.13-.82-.03-1.12.33-.56.14-.95.48-1.19,1.01-.63.72-.22,1.35.28,1.83.7.67,1.55.77,2.41.2Z"/>
        <path class="cls-2" d="M807.26,539.82c-.9.09-1.3-.27-1.53-1.09-.94-3.42-2.06-6.78-3.42-10.06-.26-.62-.52-1.16.32-1.52.88-.38,1.63-.1,1.9.79.68,2.29,1.32,4.58,1.99,6.87.12.43.09,1.06.72,1.07.57.01.73-.55.88-.98.8-2.29,1.6-4.58,2.35-6.88.28-.87,1.14-1.29,1.94-.86.49.26.53.66.29,1.11-1.29,2.36-1.84,5.01-2.92,7.46-.45,1.02-.77,2.1-1.15,3.16-.24.68-.6,1.18-1.37.94Z"/>
        <path class="cls-2" d="M841.21,526.98c.65.04,1.31.05,1.95.14.57.08,1.24.18.98,1.06-.22.74-.66,1.27-1.5,1.02-.75-.22-1.46-.34-2.24-.21-.92.15-1.61.58-2.17,1.31-1.62,2.07-1.12,6.12.9,7.43.82.54,1.65.68,2.58.3.36-.15.76-.26,1.15-.31.53-.06.92.21,1.06.73.16.57-.05.99-.61,1.22-2.51,1.01-6.28.52-7.61-2.83-1.02-2.57-.75-5.1.72-7.46,1.11-1.78,2.74-2.51,4.8-2.4Z"/>
        <path class="cls-2" d="M920.97,533.18c-1.91.02-3.83.04-5.74.06-1.05-.13-1.39.18-1.1,1.11.17.56.33,1.1.36,1.68.02.32.08.66.52.7.25.24.5.49.75.73.13.57.63.64,1.07.76,1.09.3,2.15.21,3.18-.24.6-.26,1.22-.26,1.41.48.18.71-.43.85-.98,1.02-1.89.59-3.76.55-5.6-.2-.09-.06-.17-.11-.26-.17-.04-.31-.25-.39-.52-.38-.18-.17-.36-.35-.53-.52-.65-1.22-.91-2.54-1.14-3.89-.17-1.02.36-1.96.1-2.95.03-.24.05-.48.08-.72.37-.33.45-.77.53-1.22.02-.04.04-.07.07-.1.42-.19.72-.49.82-.95.25-.26.49-.51.74-.77,1.19-.64,2.51-.39,3.77-.61.17.02.34.04.51.06.18.31.48.32.79.32.04.02.07.04.09.07.13.4.38.67.78.8.03.02.06.06.07.09.49,1,.67,2.07.82,3.18.1.74-.05,1.23-.6,1.65ZM917.02,531.75s0,.04,0,.06c.47,0,.94.01,1.41,0,.49-.02.96-.12,1.16-.64.19-.51.13-1.03-.23-1.43-.62-.69-1.34-1.26-2.35-1.11-1.03.15-1.84.7-2.31,1.62-.47.93-.04,1.55,1.01,1.56.43,0,.87-.04,1.3-.06Z"/>
        <path class="cls-2" d="M665.62,533.4c-.47-1.67.63-3.11,1.52-4.52.67-1.06,1.8-1.72,3.1-1.8,1.01-.07,2.03,0,3.05.02.73.02,1.33.23,1.2,1.14-.11.76-.83,1.22-1.63.99-.63-.19-1.23-.28-1.91-.26-1.95.06-2.94,1.83-3.21,3.19-.26,1.26-.1,2.54.3,3.76.59,1.85,2.4,2.72,4.27,2.12.14-.04.28-.09.41-.13.66-.21,1.25-.2,1.49.6.24.81-.17,1.18-.93,1.4-4.18,1.21-8-1.48-7.65-6.5Z"/>
        <path class="cls-2" d="M895.74,532.21c-.1-2.46.17-4.93-.15-7.39-.09-.66.05-1.27.89-1.34.82-.07,1.22.38,1.27,1.15.04.69.03,1.38.02,2.06-.02,3.26-.03,6.53-.09,9.79-.02.97.38,1.44,1.33,1.43,1.27-.02,2.53.18,3.8-.11.69-.16,1.36,0,1.45.87.1.93-.54,1.27-1.29,1.21-2.21-.17-4.41-.07-6.62-.11-.79-.01-.64-.71-.64-1.15-.01-2.14.14-4.28.03-6.42Z"/>
        <path class="cls-2" d="M690.48,531.89c0-1.67-.06-3.33.02-4.99.06-1.31.06-2.59-.32-3.87-.27-.91.17-1.47,1.09-1.6.9-.12,1.29.23,1.3,1.26,0,4.05-.02,8.1-.02,12.15,0,1.3.03,2.6.11,3.89.05.82-.28,1.25-1.09,1.27-.77.02-1.25-.29-1.2-1.16.13-2.31.15-4.63.11-6.95Z"/>
        <path class="cls-2" d="M745.74,531.54c-.12-2.89.28-5.8-.22-8.69-.15-.84.19-1.43,1.18-1.41.96.01,1.35.47,1.31,1.44-.23,5-.08,10.01-.1,15.01,0,.29.02.58.03.87.01.74-.3,1.18-1.09,1.19-.82,0-1.25-.46-1.19-1.23.12-1.34.09-2.68.08-4.02,0-1.05,0-2.1,0-3.16Z"/>
        <path class="cls-2" d="M782.56,534.62c.14-1.74-.12-3.48-.11-5.22,0-.28-.12-.56-.22-.83-.16-.43-.52-.93.09-1.23.57-.29,1.25-.59,1.76.13.55.78,1.13.68,1.72.11.45-.42.94-.69,1.56-.63.51.05.92.28,1.01.83.09.55-.08,1-.63,1.25-.07.03-.14.05-.2.08-2.92,1.09-2.94,1.09-2.98,4.22-.02,1.78.02,3.55.05,5.33.02.78-.12,1.38-1.11,1.3-.94-.07-1.16-.66-1.04-1.43.22-1.3,0-2.61.11-3.91Z"/>
        <path class="cls-2" d="M866.85,472.89c.92-.78,1.76-1.67,2.77-2.33,1.65-1.07,2.93-2.47,4.25-3.9.86-.93,1.64-1.88,2.41-2.88,1.02-1.31,1.84-2.71,2.59-4.2.93-1.83,1.65-3.72,2.24-5.68.56-1.87.8-3.81.98-5.73.32-3.33.23-6.75-.75-9.91-.95-3.05-2.08-6.23-4.49-8.52-1.99-1.9-3.95-3.88-6.58-5.03-1.21-.53-2.4-1.01-3.64-1.46-1.81-.65-3.67-1.23-5.46-1.96,1.53-.16,2.93.38,4.33.85,3.54,1.17,6.79,2.88,9.64,5.29,2.77,2.35,4.78,5.26,5.97,8.67,1.69,4.81,1.84,9.75,1.07,14.77-.3,1.95-.65,3.87-1.42,5.67-.69,1.62-1.36,3.25-2.27,4.79-.79,1.34-1.56,2.67-2.52,3.9-1.68,2.16-3.7,3.97-5.86,5.61-1.02.77-1.9,1.81-3.27,2.04Z"/>
        <path class="cls-2" d="M817.86,534.04c0,1.52.01,3.03,0,4.55,0,.69.04,1.46-1.02,1.4-.92-.06-1.32-.54-1.22-1.54.28-2.78.24-5.56,0-8.33-.05-.57-.2-1.14-.28-1.71-.12-.87.32-1.41,1.17-1.48.9-.07,1.51.46,1.39,1.37-.26,1.91,0,3.83-.02,5.74Z"/>
        <path class="cls-2" d="M908.72,533.5c0,1.66,0,3.33,0,4.99,0,1.14-.38,1.65-1.19,1.55-1.04-.13-1.07-.89-.99-1.71.26-2.93.11-5.86.1-8.79,0-.35-.13-.71-.25-1.05-.16-.47-.28-.92.2-1.27.48-.35.99-.41,1.54-.18.57.24.63.71.63,1.25-.02,1.73,0,3.47,0,5.2,0,0-.02,0-.03,0Z"/>
        <path class="cls-2" d="M608.88,482.57c-.28.88-.1,1.77-.05,2.66,0,.07.07.14.06.21-.17,2.43,1.25,4.34,2,6.48.45,1.27.67,2.59,1.57,3.65,0,.48-.18.76-.72.69-.68-.09-1.87-1.61-1.63-2.23.33-.87.09-1.46-.65-1.92-.64-.4-.82-.9-.58-1.66.26-.83-.51-3.22-1.13-3.44-.89-.32-.81-.84-.61-1.54.37-1.27.48-2.55-.05-3.83-.17-.42-.12-.85,0-1.28.18-.64.2-1.3,0-1.93-.2-.61-.14-1.02.55-1.27.7-.26,1.12-.87,1.24-1.55.14-.77.62-1.19,1.19-1.59.09.82-.41,1.45-.74,2.12-.72,1.42-.71,2.9-.45,4.41,0,.67,0,1.34,0,2.01Z"/>
        <path class="cls-2" d="M628.47,533.52c0-1.01-.05-2.03.02-3.04.05-.77-.24-1.16-.98-1.28-.59-.09-1.19-.21-1.25-.96-.06-.82.59-1.03,1.18-1.19.67-.17.95-.52.95-1.22,0-.87.63-1.06,1.35-1.03.77.03.97.46.83,1.18-.15.77.34,1.05,1.01,1.07.51.01,1.01-.07,1.52-.08.7,0,1.24.29,1.28,1.04.04.79-.49,1.2-1.21,1.26-.46.04-.93-.13-1.39-.16-.83-.05-1.29.28-1.27,1.2.04,1.88.05,3.76.05,5.64,0,1.66.69,2.2,2.3,1.78.68-.18,1.28-.09,1.53.62.27.79-.14,1.32-.87,1.62-2.62,1.08-5.06-.5-5.09-3.32-.01-1.05.12-2.1.04-3.15ZM628.75,533.62c0,1.48-.04,2.53,0,3.58.07,1.53.9,2.39,2.43,2.54.54.05,1.09.04,1.63-.04.57-.09,1.28-.25,1.08-1.04-.18-.71-.81-.53-1.36-.41-1.24.27-2.27-.5-2.29-1.76-.04-2.17-.02-4.34-.05-6.52,0-.84.41-1.19,1.21-1.17.29,0,.58.04.87.05.7,0,1.66.25,1.64-.83-.02-1-.93-.76-1.6-.74-.33.01-.65.05-.98.04-.73-.01-1.17-.33-1.11-1.13.04-.56-.07-1.07-.77-1.05-.67.02-.83.51-.77,1.07.09.74-.19,1.06-.95,1.09-.47.02-.99.17-1.01.78-.03.62.47.74.96.79.85.08,1.26.56,1.13,1.39-.2,1.26,0,2.53-.07,3.36Z"/>
        <path class="cls-2" d="M614.81,438.6c-.47,0-.94.01-1.41,0-.36-.01-.61-.22-.74-.55-.13-.34-.04-.64.23-.88.73-.64,1.39-1.34,2.55-.89.71.28,1.59-.13,2.25.52.64.63.59,1.1-.23,1.47-.85.38-1.76.34-2.66.33Z"/>
        <path class="cls-2" d="M914.46,521.71c.17.05.44.09.65.21,1.1.64,2.19,1.28,3.26,1.97.41.26.75.66.48,1.19-.28.54-.81.64-1.31.36-1.24-.68-2.46-1.4-3.66-2.13-.37-.23-.54-.6-.35-1.04.16-.37.45-.55.93-.56Z"/>
        <path class="cls-2" d="M909.24,523.9c.02.81-.69,1.55-1.48,1.56-.86,0-1.68-.7-1.72-1.49-.04-.86.75-1.69,1.62-1.7.76-.01,1.56.81,1.58,1.63Z"/>
        <path class="cls-2" d="M816.71,522.29c.88-.01,1.53.65,1.55,1.6.02.89-.56,1.52-1.45,1.56-.91.04-1.64-.64-1.63-1.51.01-.94.66-1.64,1.52-1.65Z"/>
        <path class="cls-2" d="M586.81,463.49c.4-1.71-.31-3.4-.09-5.11.84-.11,1.09.37,1.09,1.09,0,.98-.07,1.96.02,2.92.08.94.11,1.87.66,2.77.4.66.95,1.65-.08,2.41-.2-.38-.42-.74-.58-1.13-.36-.87-.49-1.82-1-2.63,0-.11-.01-.22-.02-.32Z"/>
        <path class="cls-2" d="M644.81,434.41c.02-1.64.52-2.36,1.51-2.32.81.03,1.39.93,1.36,2.12-.03,1.13-.79,1.94-1.81,1.85-1.15-.1-1-1.02-1.06-1.65Z"/>
        <path class="cls-2" d="M591.06,475.41c-.86-.17-1.01-.94-1.28-1.57-.31-.74-.47-1.55-.98-2.21-.03-.21-.06-.41-.09-.62.33-.56.11-1.15.11-1.73.18,0,.36,0,.54,0,1.32,0,1.37.08.86,1.3-.23.55-.4,1.06.34,1.45.43.23.51.75.5,1.24-.01.72-.01,1.44-.02,2.16Z"/>
        <path class="cls-2" d="M914.84,539.3c1.84.74,3.7.79,5.6.2.54-.17,1.16-.31.98-1.02-.19-.74-.81-.74-1.41-.48-1.04.46-2.1.54-3.18.24-.44-.12-.94-.19-1.07-.76,1.44.65,2.88.86,4.38.16.8-.37,1.46-.07,1.75.75.32.9-.33,1.24-1.04,1.43-1.52.41-3.05.63-4.61.24-.52-.13-1.04-.3-1.39-.75Z"/>
        <path class="cls-2" d="M664.82,481.24c.23.44-.02.85-.15,1.22-1.25,3.53-3.24,6.7-5.08,9.93-.14.25-.25.63-.67.64.12-1.27,1.08-2.09,1.69-3.08,1.69-2.78,2.79-5.82,4.21-8.71Z"/>
        <path class="cls-2" d="M668.73,465.78c.39,1.14.11,2.32-.1,3.39-.37,1.97-.59,4.04-1.73,5.8-.12-.96.43-1.8.54-2.71.26-2.2.9-4.32,1.29-6.49Z"/>
        <path class="cls-2" d="M588.83,469.27c0,.58.22,1.17-.11,1.73-1.36-2.2-1.43-4.75-1.9-7.19.51.81.63,1.77,1,2.63.16.39.39.75.58,1.13-.13.63,0,1.2.43,1.7Z"/>
        <path class="cls-2" d="M912.49,531.39c.25.99-.28,1.94-.1,2.95.23,1.35.49,2.67,1.14,3.89-.92-.6-.98-1.64-1.21-2.55-.36-1.43-.66-2.89.17-4.29Z"/>
        <path class="cls-2" d="M654.68,498.59c-.14.99-.96,1.58-1.54,2.23-.9,1.02-1.79,2.14-3.13,2.68.12-.54.6-.81.97-1.09,1.46-1.07,2.28-2.73,3.69-3.83Z"/>
        <path class="cls-2" d="M860.73,475.89c.3-.69,1.02-.73,1.59-.98,1.2-.53,2.42-1.04,3.62-1.56-.66.95-1.77,1.16-2.71,1.63-.8.39-1.62.74-2.5.91Z"/>
        <path class="cls-2" d="M920.97,533.18c.55-.42.7-.9.6-1.65-.15-1.11-.33-2.17-.82-3.18.76.66,1.57,3.4,1.24,4.29-.17.45-.49.71-1.01.54Z"/>
        <path class="cls-2" d="M850.48,478.19c1.71-1,3.58-1.09,5.49-.95-1.83.31-3.62.86-5.49.95Z"/>
        <path class="cls-2" d="M666.8,475.37c-.15,1.83-.53,3.58-1.72,5.05.71-1.64.8-3.49,1.72-5.05Z"/>
        <path class="cls-2" d="M915.01,536.75c-.43-.04-.5-.39-.52-.7-.03-.58-.19-1.13-.36-1.68-.29-.93.05-1.24,1.1-1.11-.72.29-.9.75-.63,1.51.23.63.28,1.32.41,1.99Z"/>
        <path class="cls-2" d="M918.5,527.02c-1.25.22-2.58-.02-3.77.61,1.1-1.14,2.43-.94,3.77-.61Z"/>
        <path class="cls-2" d="M856.37,477.18c.78-.62,1.62-1.02,2.66-.8-.86.37-1.65.94-2.66.8Z"/>
        <path class="cls-2" d="M913.99,528.4c-.11.46-.4.77-.82.95.1-.47.37-.79.82-.95Z"/>
        <path class="cls-2" d="M655.65,497.41c-.01.58-.29.94-.86,1.07.1-.51.44-.82.86-1.07Z"/>
        <path class="cls-2" d="M920.67,528.27c-.4-.13-.66-.4-.78-.8.44.1.7.35.78.8Z"/>
        <path class="cls-2" d="M913.09,529.45c-.07.45-.16.9-.53,1.22-.05-.5.11-.92.53-1.22Z"/>
        <path class="cls-2" d="M919.79,527.4c-.31,0-.61,0-.79-.32.35-.12.62-.02.79.32Z"/>
        <path class="cls-2" d="M914.06,538.75c.27,0,.49.07.52.38-.28.02-.45-.12-.52-.38Z"/>
        <path class="cls-2" d="M656.74,495.9c0,.32-.08.57-.45.6,0-.31.14-.52.45-.6Z"/>
        <path class="cls-2" d="M657.3,495.11c.09.31-.02.48-.34.52-.03-.27.11-.42.34-.52Z"/>
        <path class="cls-2" d="M649.98,503.54c-.06.06-.12.11-.18.17-.02-.14.03-.2.18-.17Z"/>
        <path class="cls-2" d="M717.16,505.86c-.01-4.16-.03-8.33-.04-12.49,0-6.15,0-12.31.02-18.46,0-.73-.17-1.25-.9-1.48.13-.38.66-.66.26-1.16-.36-.45-.78-.3-1.27-.26-2.14.18-4.28.15-6.42.04-3.07-.15-6.14-.55-9.16.37-.34.1-.74.18-1.07.1-1.79-.47-3.59-.16-5.38-.19-.23,0-.51.02-.59.21-.34.88-1.35,1.39-1.24,2.54.24,2.55-.09,5.11.01,7.67.1,2.51.15,5.03.22,7.54.07,2.57-.34,5.13-.22,7.7.08,1.72.17,3.45-.2,5.16-.06.28-.03.58,0,.87.15,1.72-.09,2.04-1.9,2.04-8.85.02-17.69.06-26.54-.03-2.16-.02-4.32.12-6.49.06-1.87-.05-3.72-.51-5.6-.25-.32.04-.71.05-.81-.36-.09-.38.26-.61.52-.75.73-.4,1.53-.7,2.03-1.39.85-1.18,2.03-1.31,3.33-1.2.72.06,1.01-.2.45-.86-.58-.67-.3-1.45-.27-2.19.01-.29.27-.51.57-.6.35-.1.52.14.69.39.18.27.41.5.63.74.27.28.59.51.92.13.28-.32.21-.67-.06-.98-.12-.14-.25-.26-.38-.39-1.23-1.27-1.21-1.62.03-2.95,1.15-1.23,2.47-2.45,3.25-3.85.83-1.49,1.9-2.78,2.81-4.18.66-1,.96-1.95.85-3.09-.01-.14-.04-.36.04-.42.97-.72.84-1.92,1.3-2.85.27-.54.44-1.05.42-1.64,0-.24,0-.62.13-.72.95-.66.84-1.65.97-2.61.12-.84.52-1.68.65-2.46.31-1.96,1.27-3.71,1.51-5.66.19-1.59,0-3.25.92-4.72.36-.58.28-1.31.12-1.92-.32-1.27.03-2.4.33-3.6.38-1.54.81-3.1.24-4.75-.38-1.1.03-2.29.14-3.44.12-1.18.31-2.36.41-3.54.04-.49.16-.8.68-.96.52-.15.71-.6.64-1.13-.88-6.61-.24-13.24-.42-19.87-.02-.84-.22-1.48,1.34-1.36,2.03.16,4.15.54,6.24.01.66-.17,1.43.1,2.14.18,1.13.13,2.22-.32,3.35-.22,1.27.11,2.52.53,3.78-.17.42-.23.84.18.97.64.16.59.27,1.19.27,1.82-.02,6.39-.01,12.77-.01,19.16,0,2.99,0,5.99,0,8.98,0,1.41.82,2.4,2.21,2.68.98.2,1.27.99.65,1.83-.24.33-.45.66-.46,1.08-.01.5.23.84.7.97.44.12.69-.06.92-.49.26-.48.45-.95.31-1.44-.33-1.15.29-1.26,1.19-1.31,3.03-.16,6.07.02,9.1.03,1.92,0,3.82-.38,5.75-.24,1.17.09,2.34.11,3.51.21,1.09.1,1.48-.35,1.17-1.47.7-.97.94-2.1.82-3.24-.07-.68-.14-1.36-.14-2.05,0-7.6,0-15.2,0-22.8,0-1.47.39-2.93.06-4.4.99.8,2.1.23,3.12.17,1.57-.09,3.14,0,4.72-.12,2.17-.16,4.36-.04,6.54-.04,1.01,0,2.04-.07,2.99.4.81.4,1.54-.08,2.29-.26,1.78-.41,2.46.06,2.5,1.88.04,2.05.03,4.1,0,6.15-.08,7.11.47,14.21.2,21.31-.41,10.81-.24,21.61-.12,32.42.06,5.63-.3,11.25-.07,16.87.05,1.23-.32,2.43-.24,3.68.05.77-.61.89-1.21.95-3.47.33-6.96.34-10.43.16-1.83-.1-3.58.09-5.37.26-1.1.11-2.17-.05-3.16-.59-.46-.25-.65-.51-.3-1.03.64-.96.61-2.37-.07-3.16-.39-.44-.53-.03-.63.3-.3.98.02,1.98-.16,2.97-.08.46.05.98-.61,1.1Z"/>
        <path class="cls-2" d="M708.17,454.93c1.95,0,3.91,0,5.86,0-.04.32-.26.39-.55.39-1.59,0-3.18,0-4.77,0-.28,0-.5-.07-.55-.39Z"/>
        <path class="cls-2" d="M697.93,454.94c.5,0,1,0,1.5,0-.5.63-1,.62-1.5,0Z"/>
        <path class="cls-2" d="M694.85,454.94c.43,0,.86,0,1.3,0-.43.62-.86.6-1.3,0Z"/>
        <path class="cls-2" d="M692.48,454.21c.32.09.64.19.84.49-.62.41-.78.06-.84-.49Z"/>
        <path class="cls-2" d="M693.76,454.73c.25-.05.49-.09.65.18-.32.3-.53.23-.65-.18Z"/>
        <path class="cls-2" d="M692.8,452.27c.08.18.05.34-.13.44-.3-.25-.12-.36.13-.44Z"/>
        <path class="cls-2" d="M692.49,421.57c.07.07.13.15.2.22-.07-.07-.13-.14-.2-.22Z"/>
        <path class="cls-2" d="M854.74,420.86c.72.15,1.51.06,2.1.64-.04.66.35.91.93.94.58.03,1.17.05,1.74,0,1.19-.09,2.16.28,3.23.87,1.38.76,2.93,1.42,4.62,1.31.67-.04,1.05.28,1.57.71,1.02.84,2.23,1.48,3.43,2.08.57.29,1.05.55,1.42,1.1.29.44.75.78,1.17,1.12.67.53,1.47.91,1.38,2-.03.37.27.77.65.96,1.56.78,1.82,2.07,1.49,3.62-.12.56.04,1.11.62,1.21,1.26.21,1.39,1.26,1.48,2.11.14,1.43.03,2.88.45,4.3.16.53.15,1.17-.19,1.69-.23.36-.09.69,0,1.04.35,1.17.39,2.4.07,3.54-.57,1.97-.96,3.98-1.4,5.98-.06.28-.21.45-.44.58-.66.36-.84,1.01-.83,1.66,0,.65-.28,1.06-.68,1.52-.51.58-1.09,1.12-1.14,2.02-.05.81-.76,1.16-1.41,1.49-.26.13-.72.18-.76.36-.36,1.38-1.48,2.18-2.24,3.25-1.29,1.81-2.83,2.89-4.97,3.19-.57.08-.91.22-.7.89.2.64-.01.9-.71.7-.53-.15-1.01-.09-1.19.59-.04.15-.22.36-.35.37-1.61.07-2.62,1.53-4.01,1.85-2.56.59-4.92,1.82-7.76,1.65-1.79-.11-3.83.01-5.63.63-.88.3-1.3,1.34-1.98,2.01-.1.1-.06.46.04.61.9,1.3.59,2.71.38,4.09-.08.51.13.92.18,1.38.45,4.05.1,8.11.19,12.17.04,1.7.05,3.39-.35,5.07-.17.71.24,1.48.15,2.25-.11.89-.45,1.41-1.49,1.5-4.17.36-8.34.14-12.51.18-1.75.01-3.5-.14-5.26-.2-.5-.02-.94-.21-.98-.68-.07-.89-.45-1.74-.16-2.68.32-1.03-.11-2.08-.1-3.11.05-4.93-.19-9.86.11-14.79.04-.61-.12-1.22-.12-1.83,0-17.13-.05-34.26.05-51.38.01-2.49-.17-4.97-.06-7.46.06-1.31.16-1.4,1.36-.95.66.25,1.34.12,2.03,0,2.45-.42,4.91-.59,7.39-.36.45.04.83-.09,1.08-.38.51-.6,1.13-.67,1.85-.66,4,.02,7.99,0,11.99.02.86,0,1.73.13,2.59.21.78.07,1.35-.19,1.65-.94ZM847.28,461.38c-.74.64-.43,1.09.33,1.26.89.21,1.82.25,2.48-.59.19-.24.41-.45.72-.4,1.62.26,2.98-.33,4.21-1.28.91-.7,2-1.31,2.08-2.68.27-.2.55-.4.59-.77.85-.72,1.53-1.54,1.61-2.72.49-.46.44-1.1.57-1.67.92-.23,1.13-.92,1.13-1.74,0-1.67,0-3.33,0-5,0-.71.16-1.46-.51-2.02-.18-.15-.18-.42-.03-.6.64-.72.1-1.15-.42-1.48-.95-.6-1.07-1.75-1.76-2.53-.3-.34.04-.74.27-1.07.19-.28.96-.36.49-.84-.46-.48-.72.22-1,.46-.44.38-.89.63-1.32.14-1.17-1.34-3-1.11-4.46-1.74-1.44-.62-3.47-.74-5.2-.14-.7.24-1.64.4-1.76,1.45-.27,2.31.14,4.62,0,6.93,0,.11.02.22.04.32.38,3.57.09,7.16.15,10.74,0,.07-.03.14-.05.21-.43,1.67-.39,3.33.03,5.02.22.89.62.84,1.23.51.21.01.43.02.58.22ZM872.74,463.95c-.01-.33-.22-.54-.47-.67-.38-.2-.62-.49-.75-.88-.11-.34-.17-.76-.66-.7-.42.05-.68.4-.86.75-.18.37-.04.73.29.95.4.26.7.6.97.98.24.32.59.42.96.23.26-.13.47-.34.51-.65ZM869.41,429.41c.68.02,1.42-.05,1.32-.8-.12-.87-1.03-.87-1.75-.93-.43-.03-1.05-.04-.93.57.13.65.51,1.32,1.36,1.16Z"/>
        <path class="cls-2" d="M783.38,440.51c-.7.28-1.45.51-1.33,1.51-.42-.24-.84-.69-1.35-.19-.46.45-.48,1.11-.11,1.48.82.8.64,1.73.61,2.67,0,.28.08.57.1.86.15,2.19.29,4.38-.61,6.47-.23.52-.36,1.07.36,1.36.24.09.3.26.37.48.37,1.17,1.37,1.58,2.39,1.44,1.9-.26,3.8-.19,5.7-.18,4.26.03,8.52-.06,12.78.22.69.05,1.07.12.99,1.07-.07.87-.09,1.73-.28,2.59-.11.49-.34.98-.21,1.49.35,1.36.21,2.74.18,4.11-.02,1-.13,2.02-.41,2.97-.18.6-.29,1.1-.02,1.65.21.44.4.89-.04,1.29-.47.42-1.01.4-1.51.1-.38-.23-.75-.35-1.11-.09-.91.67-1.85.39-2.8.16-.42-.1-.86-.31-1.26-.25-1.92.24-3.82.26-5.73-.05-.38-.06-.8-.09-1.15.19-.76.61-1.64.56-2.49.33-1.55-.43-3.13-.14-4.7-.29-.75-.07-1.01.55-.55,1.16.22.29.48.55.88.58-.21.32-.23.68-.22,1.05-1.28.12-1.52.48-1.17,1.67.1.35.26.7.26,1.05.02,2.32.15,4.66-.03,6.96-.15,1.85-.11,3.47,1.45,4.77.4.34.9.91.07,1.5-.37.26-.1.74.09,1.09.21.39.56.42.94.37.46-.07.52-.41.56-.8.09-1.1.95-2.11,1.9-1.69,1.52.68,2.64-.26,3.92-.28,4.53-.05,9.07-.22,13.59.17.7.06,1.25.22,1.32,1.11.06.81.7.74,1.22.5.35-.16.56-.51.74-.9.38-.84.75-.85,1.32-.11.27.36.48.76.39,1.21-.49,2.56.23,5.11.02,7.68-.07.82-.42,1.63-.19,2.47.29,1.08.17,2.13,0,3.22-.16,1.05-.7,1.39-1.69,1.39-1.54,0-3.08-.09-4.63-.08-12.05.1-24.1.19-36.15-.21-1.3-.04-2.58.16-3.87.06-.25-.02-.51.01-.76-.01-.55-.05-.93-.36-.89-.9.09-1.31-.24-2.59-.24-3.89,0-13.03,0-26.05,0-39.08,0-8.62.05-17.24-.02-25.86-.03-3.99.29-7.96.24-11.95-.02-1.25.29-1.61,1.54-1.49,2.15.2,4.3-.04,6.45-.03,11.81.02,23.61.01,35.42.01.22,0,.44,0,.65,0,.59-.02.84.26.86.85.05,1.01.21,2.01.23,3.02.1,3.84.94,7.73-.88,11.43-.26.53-.52.81-1.11.83-2.24.05-4.49.16-6.73.25-4.13.17-8.22-.79-12.34-.27-.6.08-1.11.16-1.47.74-.4.65.61.53.48,1Z"/>
        <path class="cls-2" d="M783.38,440.51c.13-.47-.88-.36-.48-1,.36-.58.87-.66,1.47-.74,4.13-.53,8.22.43,12.34.27,2.24-.09,4.48-.2,6.73-.25.59-.01.85-.3,1.11-.83,1.82-3.7.97-7.59.88-11.43-.03-1.01-.18-2.01-.23-3.02-.03-.59-.27-.87-.86-.85-.22,0-.44,0-.65,0-11.81,0-23.61.01-35.42-.01-2.15,0-4.29.23-6.45.03-1.25-.12-1.56.24-1.54,1.49.05,3.98-.28,7.96-.24,11.95.07,8.62.02,17.24.02,25.86,0,13.03,0,26.05,0,39.08,0,1.3.33,2.58.24,3.89-.04.54.34.85.89.9.25.02.51,0,.76.01,1.29.1,2.57-.1,3.87-.06,12.05.4,24.1.31,36.15.21,1.55-.01,3.09.08,4.63.08.99,0,1.52-.34,1.69-1.39.17-1.09.28-2.14,0-3.22-.22-.84.13-1.65.19-2.47.21-2.56-.51-5.12-.02-7.68.09-.45-.12-.85-.39-1.21-.57-.73-.94-.72-1.32.11-.17.39-.38.74-.74.9-.53.23-1.16.3-1.22-.5-.07-.89-.62-1.05-1.32-1.11-4.53-.39-9.06-.22-13.59-.17-1.28.01-2.41.95-3.92.28-.95-.43-1.81.59-1.9,1.69-.03.39-.1.73-.56.8-.38.06-.73.02-.94-.37-.19-.36-.46-.83-.09-1.09.83-.59.33-1.17-.07-1.5-1.55-1.3-1.6-2.91-1.45-4.77.19-2.31.06-4.64.03-6.96,0-.35-.16-.7-.26-1.05-.35-1.19-.11-1.55,1.17-1.67.33.54.44,1.13.44,1.76-.02,2.5,0,5.01,0,7.51,0,.72-.03,1.43-.18,2.16-.33,1.6.43,2.37,1.98,1.97.87-.22,1.65.11,2.48.1,5.25-.03,10.5,0,15.75-.04,1.31-.01,2.58.34,3.9.25.72-.05,1.45-.03,2.15-.27.77-.26,1.15.08,1.18.79.16,4.27.32,8.54.07,12.82-.08,1.4.08,2.81-.04,4.22-.11,1.29-.36,1.58-1.59,1.27-.79-.2-1.54-.29-2.34,0-.39.14-.86.13-1.29.13-14.35,0-28.7.01-43.05.02-.22,0-.44,0-.65-.01-1.62-.1-1.71-.21-1.71-1.78,0-27.69-.01-55.37-.04-83.06,0-.9.28-1.2,1.19-1.2,12.61.02,25.21-.03,37.82.04,2.58.01,5.16.04,7.74.02,1.06,0,1.32.38,1.09,1.51-.18.88.2,1.71.19,2.58-.02,3.23,0,6.46-.02,9.69,0,.72-.09,1.45-.27,2.14-.13.5-.08.89.11,1.35.45,1.12-.06,1.86-1.27,1.87-2,.02-4,0-5.99,0-5.38,0-10.75,0-16.13,0Z"/>
        <path class="cls-2" d="M782.09,473.64c-.4-.03-.66-.29-.88-.58-.46-.6-.2-1.23.55-1.16,1.56.15,3.15-.14,4.7.29.85.23,1.73.28,2.49-.33.35-.28.77-.26,1.15-.19,1.91.31,3.81.29,5.73.05.4-.05.84.15,1.26.25.95.23,1.89.51,2.8-.16.36-.26.73-.14,1.11.09.5.3,1.04.32,1.51-.1.45-.4.26-.85.04-1.29-.27-.55-.15-1.06.02-1.65.28-.95.39-1.98.41-2.97.03-1.37.16-2.75-.18-4.11-.13-.51.1-1,.21-1.49.19-.86.21-1.72.28-2.59.07-.95-.3-1.02-.99-1.07-4.26-.28-8.52-.19-12.78-.22-1.9-.01-3.79-.08-5.7.18-1.01.14-2.02-.27-2.39-1.44-.07-.22-.13-.38-.37-.48-.72-.28-.59-.83-.36-1.36.91-2.09.76-4.28.61-6.47-.02-.29-.11-.57-.1-.86.03-.94.21-1.87-.61-2.67-.38-.37-.36-1.03.11-1.48.51-.5.92-.05,1.35.19.29,1.24.13,2.5.23,3.76.17,2.04-.02,4.11.08,6.16.04.91-.61,1.63-.47,2.51-.03.33.14.45.45.42.06,0,.11,0,.17.02.05.29.11.55.45.22,6.68,0,13.36-.01,20.04-.04.76,0,1.24.2,1.13,1.03-.31,2.23.04,4.46.03,6.69-.01,3.22-.26,6.44.09,9.67.07.61-.34.95-1.05.92-5.83-.25-11.67-.25-17.5.01-.5.02-1.04-.02-1.49-.2-.84-.33-1.48-.04-2.1.46Z"/>
        <path class="cls-2" d="M782.95,455.11c-.35.33-.41.07-.45-.22.19,0,.35.04.45.22Z"/>
        <path class="cls-2" d="M782.33,454.87c-.3.02-.48-.1-.45-.42.28,0,.4.17.45.42Z"/>
        <path class="cls-2" d="M945.62,492.4c0,.25.02.49.02.74-.7.46-.51,1.13-.4,1.76.25,1.41.24,2.83.05,4.22-.22,1.63-.18,3.26-.09,4.88.08,1.42-.35,2-1.8,2.08-1.36.07-2.72.05-4.09,0-3.9-.15-7.81.09-11.72.03-8.06-.12-16.13-.04-24.2-.02-.7,0-1.38-.29-2.04-.17-1.74.32-3.48.06-5.21.16-.53.03-.97-.16-1.09-.69-.14-.59-.39-1.29-.2-1.8.61-1.65.19-3.28.17-4.93-.16-18.24.18-36.49-.18-54.74-.1-5.15-.58-10.34.39-15.47.26-1.37-.08-2.72-.02-4.08.05-1.25.44-1.57,1.71-1.72,1.68-.2,3.33.1,5,.06,4.16-.1,8.33-.03,12.5-.03,1.51,0,1.75.2,1.94,1.68.04.32.02.65.02.98,0,19.78,0,39.56,0,59.33,0,.62.03,1.24-.01,1.85-.05.7.27.92.9.83.29.34.58.67.87,1.01-.09.52.09,1.06-.29,1.57-.66.89,0,2.27,1.14,2.42.54.07,1.17.12,1.42-.52.26-.65-.49-.67-.76-.99-.25-.3-.95-.28-.73-.89.22-.62.8-.66,1.37-.63.46.02.8.31,1.16.54.4.26.87.54,1.29.12.48-.48,1.03-.46,1.61-.46.72,0,1.45,0,2.17-.08,2.21-.27,4.43-.23,6.63-.05,1.45.12,2.9.02,4.34.12,1.49.11,3.08-.58,4.48.48.27.21.54.09.81-.04,1.56-.74,1.94-.5,1.94,1.28,0,.67.12,1.15.91,1.17Z"/>
        <path class="cls-2" d="M917.27,487.34c-.63.08-.95-.13-.9-.83.05-.61.01-1.23.01-1.85,0-19.78,0-39.56,0-59.33,0-.33.02-.66-.02-.98-.2-1.48-.43-1.68-1.94-1.68-4.17,0-8.33-.07-12.5.03-1.67.04-3.32-.25-5-.06-1.27.15-1.65.47-1.71,1.72-.06,1.36.28,2.71.02,4.08-.97,5.13-.49,10.32-.39,15.47.36,18.25.02,36.49.18,54.74.01,1.65.44,3.28-.17,4.93-.19.51.07,1.21.2,1.8.12.53.56.72,1.09.69,1.73-.09,3.47.16,5.21-.16.66-.12,1.34.17,2.04.17,8.07-.02,16.13-.09,24.2.02,3.91.06,7.81-.18,11.72-.03,1.36.05,2.72.07,4.09,0,1.46-.08,1.88-.65,1.8-2.08-.09-1.62-.13-3.24.09-4.88.18-1.39.2-2.82-.05-4.22-.11-.64-.31-1.31.4-1.76.6.17.45.68.45,1.08.01,1.71-.08,3.42.02,5.12.13,2.24.05,4.47-.01,6.71-.02.84-.29,1.15-1.14,1.17-14.06.23-28.11.15-42.17.14-.76,0-1.52-.07-2.23-.41-.13-.06-.31-.18-.4-.14-1.32.58-2.65.09-3.98.1-1.24,0-1.88-.33-1.89-1.58-.02-1.95,0-3.89,0-5.84,0-25.04,0-50.08,0-75.13,0-.29-.01-.58,0-.87.08-1.55.44-1.86,1.93-1.97,6.67-.47,13.35-.06,20.03-.21,1.01-.02,1.35.36,1.12,1.34-.2.84.28,1.53.28,2.34-.03,19.67-.03,39.34-.03,59.01,0,1.13-.53,2.19-.38,3.33Z"/>
        <path class="cls-2" d="M945.62,492.4c-.79-.02-.91-.5-.91-1.17,0-1.79-.38-2.03-1.94-1.28-.28.13-.54.24-.81.04-1.39-1.06-2.98-.37-4.48-.48-1.44-.1-2.88,0-4.34-.12-2.2-.18-4.42-.21-6.63.05-.72.09-1.45.07-2.17.08-.58,0-1.13-.02-1.61.46-.42.42-.89.14-1.29-.12-.37-.24-.7-.52-1.16-.54-.57-.03-1.15,0-1.37.63-.22.61.49.59.73.89.27.32,1.02.34.76.99-.25.63-.88.59-1.42.52-1.14-.15-1.8-1.53-1.14-2.42.38-.51.2-1.04.29-1.57,2.45.78,4.9-.12,7.37-.02,4.48.17,8.98-.02,13.47.08,1.53.03,3.07-.12,4.59.18.45.09.74-.21,1.09-.39.36-.19.75-.35,1.13-.08.39.28.4.77.24,1.09-.53,1.03-.21,2.14-.41,3.2Z"/>
        <path class="cls-2" d="M740.62,423.12c.28.16.22.39.13.63-.39-.14-.42-.35-.13-.63Z"/>
        <path class="cls-2" d="M740.79,505.64c.04.06.04.13.01.19-.09-.01-.22.02-.19-.13,0-.03.12-.04.18-.06Z"/>
        <path class="cls-2" d="M588.83,469.27c-.43-.49-.56-1.06-.43-1.7,1.03-.76.48-1.75.08-2.41-.55-.9-.57-1.83-.66-2.77-.09-.97-.02-1.95-.02-2.92,0-.72-.25-1.2-1.09-1.09-.27-4.42-.26-8.84-.23-13.27.81-.11.66-.73.66-1.26,0-4.52,0-9.04,0-13.55,0-.47.05-.93.11-1.4.25-1.93.11-3.89.2-5.84.04-.85.25-1.14.91-1.24.96-.14,1.94-.23,2.91-.24,4.69-.02,9.37,0,14.06-.03.64,0,1.28.09,1.93.08,2.68-.04,5.36-.1,8.04.07,2.01.12,4.12.61,6.07-.44.18-.09.43-.12.63-.08,2.42.43,4.83.63,7.31.45,2.33-.17,4.7.04,7.06.09,2.72.07,5.48.59,8.2-.11.61-.16,1.21.53.89.96-.58.79-1.01,1.82-2.25,1.84-.46,0-.91.2-1.19.49-1.1,1.17-2.64,1.27-4.02,1.77-.58.21-1.01.09-1.3-.42-.26-.46-.56-.47-1.07-.42-2.21.2-4.43.22-6.63,0-.99-.09-1.9-.14-2.71.37-1.07.67-2.23.74-3.36.54-.81-.14-1.91.18-2.37-.93-.1-.25-.14-.67-.55-.44-.35.2-.38.54-.2.95.5,1.1.34,1.33-.88,1.35-.74.01-1.57-.02-1.97.66-.59,1-1.52,1.21-2.49,1.27-.85.06-1.6.07-1.83,1.1-.1.42-.55.41-.86.57-.92.47-1.85,1.04-2.34,1.92-.39.7-.69,1.12-1.52,1.03-.68-.07-.81.28-.61.88.14.41.31.91-.09,1.21-1.17.88-2.04,2.33-3.84,2.07-.17-.02-.39.17-.55.31-.99.91-1.7,2.16-3.15,2.5-.15.04-.25.27-.4.36-1.06.67-1.57,1.85-2.45,2.68-.29.28-.5.79-.08.89.95.23,1.21,1.17,1.97,1.62,1.27.75,1.06,2.83-.25,3.6-.39.23-.46.53-.41.91.06.44.33.72.77.79.36.06.71-.03,1.07-.12.66-.18,1.51-.19,1.72.49.31,1.04.99,1.2,1.85,1.28.43.04.87.08,1.28.21.76.24,1.19.14,1.15-.79-.02-.49.46-.69.75-1.01.97-1.08,2.34-1.32,3.61-1.79.35,0,.71,0,1.06-.01,0,.57.09,1.06-.64,1.42-.84.41-.27,1.27-.13,1.85.12.53.44,1.21,1.16,1.29.5.06.81-.27.91-.75.05-.24,0-.51.03-.76.03-.33-.13-.8.42-.83.51-.03.8.3.88.78.13.86-.14,1.57-.85,2.09-.64.47-1.45.6-2.14.9-1.1.48-1.84.27-2.65-.39-.35-.28-.87-.57-1.2-.34-.89.61-1.86,1.24-2.44,2.11-.41.6-.29,1.6-.28,2.42.02,1.53.78,2.36,2.03,2.39.74.56,1.5,1.11,1.68,2.12-.2.6-.16,1.28-.69,1.77-.22.21-.3.53-.06.77.24.24.55.16.78-.04.47-.41.88-.17,1.26.12.4.3.77.78,1.3.33.59-.5-.11-.87-.22-1.31.51.05.81-.44,1.28-.48.93-.06,1.82-.69,2.07-1.3.48-1.19,1.13-.89,1.87-.62.67.24,1.07.26,1.44-.54.54-1.2,1.47-1.5,2.47-1.02.27.13.69.19.66.61-.03.36-.3.6-.62.67-.68.16-1.14.61-1.58,1.09-.59.64-1.27,1.17-2.01,1.64-.7.44-1.21.67-1.21-.5,0-.26-.08-.51-.39-.57-.21-.04-.31.12-.42.28-.57.87-1.51,1.35-2.26,2.03-.48.43-.79.75-.39,1.33.52.75.42,1.19-.45,1.67-.97.54-1.1,1.88-.41,2.48.04.43-.08.78-.45,1.03-.57.4-1.05.82-1.19,1.59-.12.68-.54,1.29-1.24,1.55-.68.25-.74.65-.55,1.27.2.63.18,1.29,0,1.93-.12.43-.18.86,0,1.28.52,1.27.42,2.55.05,3.83-.21.7-.28,1.22.61,1.54.62.22,1.4,2.6,1.13,3.44-.24.76-.06,1.26.58,1.66.75.46.98,1.05.65,1.92-.23.62.95,2.14,1.63,2.23.54.07.72-.21.72-.69.54.28,1.09.7,1.48-.18.68.37,1.1.25,1.12-.6.01-.78.07-1.58-.02-2.35-.06-.51.05-1.18-.66-1.43.19-.4.47-.77.45-1.25,1.26.28,1.38.23,1.31-1.13-.05-1.04.23-1.93.78-2.76.15-.23.34-.53.69-.36.27.13.34.42.26.66-.45,1.32.09,2.76-.54,4.06-.21.43-.13.93-.07,1.4.21,1.75.42,3.51.4,5.28,0,.53-.35,1.27-.11,1.56.93,1.16.74,2.4.56,3.68-.04.3.06.57.25.81.19.25.29.55.05.79-.26.25-.77.26-.91.07-.63-.86-1.99-.97-2.2-2.26-.09-.59-.51-.94-1.08-.41-.46.42-.73.18-1.21,0-1.31-.53-2.08-1.69-3.21-2.41-.59-.38-1.41-.41-1.75-1.19-.34-.8-.91-1.36-1.77-1.64-.61-.19-.68-.54-.2-1.03.81-.84.54-1.73.06-2.73-.34.4-.19.68-.09.98.11.33.09.65-.24.87-.97.63-1.98.16-2.09-1-.04-.5-.17-.68-.66-.42-.16.08-.33.18-.51.19-.31.02-.71.19-.89-.15-.15-.27.12-.54.29-.76.18-.23.42-.41.57-.65.38-.6.47-1.16-.1-1.77-.94-1.01-.87-1.14.47-1.44.49-.11.76-.39.8-.89.04-.45-.14-.81-.55-.96-.41-.15-1-.27-1.19.14-.31.67-.27,1.52-1.23,1.76-.13.03-.04.4.04.61.15.41.65.92,0,1.2-.49.21-1.03-.03-1.41-.52-.62-.81-1.42-1.46-1.59-2.59-.08-.55-.51-1.15-.95-1.54-.82-.74-1.28-1.59-1.4-2.67-.05-.49-.28-.93-.71-1.17-.61-.33-.71-.79-.49-1.37.22-.58.05-.92-.48-1.24-.8-.48-1.41-1.29-1.5-2.16-.1-.97-.45-1.05-1.2-.81,0-.12.02-.25.02-.37,0-.72,0-1.44.02-2.16,0-.49-.08-1.01-.5-1.24-.73-.39-.57-.9-.34-1.45.5-1.21.46-1.29-.86-1.3-.18,0-.36,0-.54,0ZM594.14,475.32c-.8.92.3,1.54.52,2.36.08.31.11.82.64.7.53-.12.65-.61.55-1.03-.38-1.64-1.03-3.2-1.33-4.86-.06-.34-.3-.72-.78-.53-.41.16-.28.55-.21.85.17.81.38,1.61.61,2.53ZM604.22,491.58c.49-.43,1.03-.38,1.2-.89.02-.05-.15-.21-.17-.2-.38.2-.89.26-1.03,1.09Z"/>
        <path class="cls-2" d="M610.28,450.31c-1.27.47-2.64.71-3.61,1.79-.29.32-.77.52-.75,1.01.03.93-.39,1.03-1.15.79-.41-.13-.85-.17-1.28-.21-.86-.08-1.54-.24-1.85-1.28-.21-.68-1.06-.67-1.72-.49-.36.1-.71.18-1.07.12-.44-.07-.72-.35-.77-.79-.05-.37.02-.67.41-.91,1.31-.77,1.52-2.86.25-3.6-.76-.45-1.02-1.39-1.97-1.62-.42-.1-.21-.61.08-.89.88-.83,1.39-2.01,2.45-2.68.15-.1.24-.33.4-.36,1.45-.34,2.16-1.6,3.15-2.5.15-.14.38-.33.55-.31,1.8.26,2.67-1.19,3.84-2.07.4-.31.23-.8.09-1.21-.2-.6-.08-.95.61-.88.83.09,1.14-.33,1.52-1.03.49-.88,1.42-1.45,2.34-1.92.31-.16.77-.15.86-.57.24-1.03.98-1.04,1.83-1.1.97-.06,1.9-.27,2.49-1.27.4-.67,1.24-.65,1.97-.66,1.22-.02,1.37-.25.88-1.35-.18-.4-.15-.75.2-.95.41-.23.44.19.55.44.46,1.12,1.56.79,2.37.93,1.13.2,2.29.13,3.36-.54.81-.51,1.72-.47,2.71-.37,2.2.21,4.43.19,6.63,0,.51-.05.81-.04,1.07.42.29.51.72.63,1.3.42,1.38-.5,2.91-.61,4.02-1.77.27-.29.73-.49,1.19-.49,1.24-.01,1.67-1.05,2.25-1.84.32-.43-.27-1.12-.89-.96-2.73.7-5.48.17-8.2.11-2.35-.06-4.72-.26-7.06-.09-2.48.18-4.89-.02-7.31-.45-.2-.04-.45-.01-.63.08-1.96,1.05-4.07.56-6.07.44-2.69-.17-5.36-.1-8.04-.07-.65,0-1.28-.08-1.93-.08-4.69.03-9.37,0-14.06.03-.97,0-1.95.1-2.91.24-.65.09-.87.39-.91,1.24-.09,1.95.05,3.9-.2,5.84-.06.47-.11.93-.11,1.4,0,4.52,0,9.04,0,13.55,0,.52.15,1.15-.66,1.26-.15-7.9-.28-15.81-.27-23.72,0-.6.12-.98.82-.98.54,0,1.08-.15,1.62-.15,18.24,0,36.48,0,54.72,0,1.06,0,2.07.51,3.17.22.43-.12.64.15.52.66-.43,1.82-1.23,3.51-2.77,4.51-1.24.81-2.63,1.53-4.25,1.64-4.32.31-8.63.15-12.95.19-1.93.02-3.92.17-5.67.79-1.81.64-3.69.87-5.44,1.5-1.04.38-1.96,1.27-2.98,1.88-.82.49-1.47,1.27-2.19,1.93-.7.64-1.36,1.27-1.2,2.39.07.51-.32.87-.86,1.12-2.04.94-3.78,2.38-5.7,3.52-1.57.93-2.76,2.28-4.28,3.23-.63.39-.91.82-.54,1.51.34.64.78,1.24,1.6.96,1.11-.38,1.14,0,.95.96-.29,1.52-.37,3.04,1.23,4.05.58.36,1.05.89,1.59,1.31.7.55,1.35.4,1.68-.45.64-1.68,2.73-2.77,4.03-2.54.43.08.89.09.97.67Z"/>
        <path class="cls-2" d="M610.52,473.01c-.7-.6-.56-1.94.41-2.48.86-.48.96-.92.45-1.67-.4-.58-.09-.9.39-1.33.75-.68,1.69-1.16,2.26-2.03.1-.16.2-.32.42-.28.31.06.39.31.39.57,0,1.17.51.94,1.21.5.74-.47,1.42-1,2.01-1.64.44-.48.9-.93,1.58-1.09.33-.08.6-.32.62-.67.03-.43-.38-.48-.66-.61-1-.48-1.93-.18-2.47,1.02-.37.81-.77.78-1.44.54-.75-.27-1.39-.57-1.87.62-.25.61-1.13,1.25-2.07,1.3.2-1.98,1.79-2.82,3.23-3.64,2.91-1.66,6.24-1.79,9.46-2.26,3-.44,5.26-1.86,6.52-4.69.08-.18.05-.5.36-.42.3.08.34.38.27.63-.29,1.02-.79,1.93-1.36,2.82-1.39,2.19-3.56,3.4-5.73,4.61-.98.55-2,.99-3.01,1.47-2.21,1.05-4.14,2.58-6.18,3.94-1.93,1.29-3.32,3.04-4.78,4.76Z"/>
        <path class="cls-2" d="M606.42,462.5c-1.25-.02-2.01-.86-2.03-2.39-.01-.82-.13-1.82.28-2.42.58-.86,1.56-1.5,2.44-2.11.33-.23.85.06,1.2.34.81.66,1.56.87,2.65.39.69-.3,1.49-.43,2.14-.9.71-.52.98-1.24.85-2.09-.08-.48-.36-.81-.88-.78-.56.03-.4.5-.42.83-.02.25.02.51-.03.76-.09.48-.4.81-.91.75-.73-.09-1.04-.76-1.16-1.29-.14-.58-.71-1.44.13-1.85.73-.36.65-.85.64-1.42.68-.07,1.27.17,1.81.57.52.39,1.01.83,1.56,1.17,1.49.93,1.56,2.25.08,3.3-.42.3-.81.58-1.01,1.08-.04.1-.11.19-.18.27-.81.93-4.26,1.43-5.27.74-.74-.51-1.57-.57-2.23-.13-.66.44-.72,1.25-.48,2.06.31,1.03.54,2.09.81,3.13Z"/>
        <path class="cls-2" d="M610.47,466.26c.11.43.81.8.22,1.31-.53.45-.9-.03-1.3-.33-.38-.28-.79-.53-1.26-.12-.23.2-.54.29-.78.04-.23-.24-.16-.57.06-.77.52-.49.48-1.17.69-1.77.4.24.78.48,1.02.92.28.51.76.73,1.35.73Z"/>
        <path class="cls-1" d="M929.18,539.51c.94,0,1.88-.04,2.82,0,1.39.07,1.83.99,1.05,2.14-1.5,2.23-4.46,2.89-6.55,1.54-1.13-.73-.68-1.75-.55-2.64.11-.77.85-1.01,1.6-1.02.54,0,1.09,0,1.63,0,0,0,0-.01,0-.02Z"/>
        <path class="cls-1" d="M926.54,531.03c-.03-1.53.93-2.58,2.37-2.62,1.35-.03,2.55,1.13,2.59,2.52.05,1.56-1.12,2.88-2.59,2.91-1.47.04-2.34-.99-2.37-2.82Z"/>
        <path class="cls-1" d="M871.52,533.3c0,.83-.03,1.66,0,2.49.04.82-.08,1.53-.94,1.88-1.02.41-1.99,1.06-3.15.19-1.73-1.29-2.24-3.2-1.51-6.09.54-2.11,2.06-3.13,4.19-2.84.97.14,1.5.58,1.44,1.64-.05.9-.01,1.81-.01,2.71-.01,0-.02,0-.03,0Z"/>
        <path class="cls-1" d="M715.79,533.52c0-2.58,1.32-4.27,3.65-4.59,1.6-.22,2.14.4,2.19,2,.05,1.51-.04,3.02,0,4.53.03.94.02,1.73-.92,2.21-1.07.54-2.13.94-3.25.11-.76-.56-1.29-1.24-1.39-2.22-.07-.68-.19-1.36-.28-2.04Z"/>
        <path class="cls-1" d="M772.2,530.28c.3-1.25.19-2.62,0-3.98-.06-.5.19-.81.65-1,1.54-.64,3.57.06,4.22,1.47.7,1.52-.03,3.48-1.6,4.22-.62.29-1.26.56-1.95.63-.96.1-1.35-.29-1.33-1.34Z"/>
        <path class="cls-1" d="M791.81,533.27c-.04-.84,0-1.85.46-2.79.57-1.17,1.55-1.73,2.92-1.64,1.38.08,2.27.72,2.63,2.02.49,1.76.73,3.52.04,5.32-.48,1.25-1.34,2-2.71,2.13-1.14.1-2.31-.63-2.87-1.78-.37-.78-.5-1.58-.47-3.25Z"/>
        <path class="cls-2" d="M591.04,475.78c.75-.24,1.1-.17,1.2.81.09.87.7,1.67,1.5,2.16.54.33.71.66.48,1.24-.22.57-.12,1.04.49,1.37.43.23.66.68.71,1.17.12,1.08.57,1.93,1.4,2.67.44.39.87.99.95,1.54.17,1.14.97,1.79,1.59,2.59.37.49.92.73,1.41.52.65-.28.16-.79,0-1.2-.08-.21-.17-.57-.04-.61.96-.24.92-1.08,1.23-1.76.19-.41.79-.3,1.19-.14.41.16.59.51.55.96-.04.5-.31.78-.8.89-1.35.3-1.41.43-.47,1.44.56.61.47,1.17.1,1.77-.15.24-.4.42-.57.65-.17.22-.44.49-.29.76.19.34.59.17.89.15.17-.01.35-.1.51-.19.49-.26.61-.08.66.42.1,1.16,1.12,1.63,2.09,1,.33-.22.35-.53.24-.87-.1-.3-.25-.59.09-.98.47,1,.75,1.89-.06,2.73-.48.49-.41.84.2,1.03.86.27,1.43.83,1.77,1.64.33.78,1.16.82,1.75,1.19,1.13.72,1.9,1.89,3.21,2.41.48.19.76.43,1.21,0,.57-.53.98-.17,1.08.41.21,1.29,1.58,1.4,2.2,2.26.13.19.65.18.91-.07.25-.24.14-.54-.05-.79-.19-.24-.29-.51-.25-.81.18-1.28.37-2.52-.56-3.68-.24-.3.1-1.03.11-1.56.02-1.77-.18-3.52-.4-5.28-.06-.47-.14-.96.07-1.4.63-1.3.09-2.74.54-4.06.08-.24,0-.53-.26-.66-.36-.17-.55.13-.69.36-.54.84-.83,1.73-.78,2.76.07,1.35-.05,1.41-1.31,1.13.21-2.07.84-3.98,2.18-5.62.27-.33.47-.73.71-1.08.16-.24.34-.52.68-.44.41.09.4.46.41.79,0,.04,0,.07,0,.11-.75,2.98.22,5.96,0,8.94-.09,1.15.06,2.32-.02,3.48-.18,2.72.73,5.26,1.16,7.88.07.44.56.81.85,1.22-.44.17-1.16-.4-1.32.5-.33-.15-.65-.34-.99-.45-4.09-1.32-7.47-3.8-10.93-6.24-2.45-1.73-4.48-3.87-6.54-5.95-2.03-2.06-3.69-4.5-5.3-6.96-1.68-2.56-2.74-5.42-4.31-8.02-.35-.59-.82-1.33-.37-2.13Z"/>
        <path class="cls-2" d="M614.38,491.01c.71.25.59.92.66,1.43.1.77.03,1.57.02,2.35-.01.85-.44.97-1.12.6.06-1.47-.24-2.97.44-4.38Z"/>
        <path class="cls-2" d="M619.48,505.53c.16-.9.88-.33,1.32-.5.22.48,1.16.81.68,1.35-.41.46-.98-.27-1.47-.5-.19-.09-.36-.23-.53-.35Z"/>
        <path class="cls-1" d="M684.91,533.46c.07,1-.06,1.96-.43,2.88-.52,1.26-1.67,2-2.98,1.92-1.31-.07-2.35-.94-2.76-2.23-.57-1.75-.46-3.49,0-5.22.26-.97.83-1.74,1.88-1.88,1.18-.15,2.4-.28,3.28.86.85,1.09,1.07,2.35,1.02,3.67Z"/>
        <path class="cls-1" d="M607.8,535.91c0,1.38-.54,1.9-2.26,2.36-.93.25-1.62.02-2.1-.84-.54-.97-.31-1.8.72-2.2.87-.34,1.77-.66,2.69-.77,1.17-.14.83.89.96,1.45Z"/>
        <path class="cls-1" d="M731.82,531.75c-.28.01-.68.04-1.08.05-1.28.04-1.57-.41-1.03-1.58.85-1.84,3.36-2.12,4.59-.5.37.49.54,1.05.26,1.63-.27.56-.83.5-1.34.48-.43-.02-.87-.05-1.42-.08Z"/>
        <path class="cls-1" d="M882.82,531.84c-.78-.12-1.7-.2-2.65-.09-.63.07-1.04-.29-.84-1.03.34-1.26,1.35-1.73,2.47-2.03.97-.26,1.69.19,2.26.93.36.47.69.96.41,1.59-.3.66-.9.64-1.65.63Z"/>
        <path class="cls-1" d="M701.11,531.67c-.79.11-1.54.16-2.29-.06-.5-.14-.78-.45-.53-.96.52-1.07,1.39-1.75,2.54-2.03.99-.24,1.64.4,2.24,1.04.41.45.64,1.01.34,1.59-.28.54-.84.48-1.35.45-.32-.02-.65-.03-.95-.04Z"/>
        <path class="cls-1" d="M942.65,531.85c-.73-.17-1.58-.16-2.45-.08-.64.06-1.01-.29-.84-1.03.42-1.84,3.01-2.7,4.42-1.45.55.48.94,1.06.65,1.81-.29.74-.99.73-1.78.75Z"/>
        <path class="cls-1" d="M640.96,531.76c-.51,0-1.02.03-1.52,0-.89-.07-1.16-.51-.84-1.31.64-1.57,2.66-2.22,4.1-1.35.74.45,1.1,1.08.9,1.91-.21.88-.97.84-1.67.84-.33,0-.65-.03-.98-.05,0-.02,0-.03,0-.05Z"/>
        <path class="cls-1" d="M850.59,531.82c-.61-.04-1.22-.03-1.83-.12-.4-.06-.76-.25-.69-.79.1-.7,1.59-2.08,2.48-2.25,1.09-.2,1.89.3,2.48,1.17.7,1.05.35,1.79-.93,1.91-.5.05-1.01,0-1.51,0,0,.02,0,.04,0,.06Z"/>
        <path class="cls-1" d="M755.73,534.81c.35-.1.71-.21,1.06-.31,1.19.22.95,1.26,1.17,2.04-.04.1-.08.2-.12.3-.32.2-.58.47-.75.81-.33.18-.65.36-.98.53-2.35-.16-2.51-.29-2.69-2.03.24-.52.63-.87,1.19-1.01.41,0,.8-.02,1.12-.33Z"/>
        <path class="cls-2" d="M753.42,536.14c.17,1.74.34,1.87,2.69,2.03-.86.57-1.71.47-2.41-.2-.5-.48-.91-1.11-.28-1.83Z"/>
        <path class="cls-2" d="M757.96,536.54c-.21-.78.02-1.82-1.17-2.04.37-.44.78-.2.96.09.35.59.73,1.24.21,1.94Z"/>
        <path class="cls-2" d="M757.09,537.64c.18-.34.43-.61.75-.81.02.52-.26.77-.75.81Z"/>
        <path class="cls-2" d="M755.73,534.81c-.31.31-.71.33-1.12.33.3-.36.68-.46,1.12-.33Z"/>
        <path class="cls-1" d="M917.02,531.75c-.43.02-.87.06-1.3.06-1.05,0-1.48-.64-1.01-1.56.47-.92,1.28-1.47,2.31-1.62,1.01-.15,1.73.42,2.35,1.11.36.41.42.93.23,1.43-.2.52-.67.63-1.16.64-.47.02-.94,0-1.41,0,0-.02,0-.04,0-.06Z"/>
        <path class="cls-2" d="M628.75,533.62c.07-.83-.13-2.1.07-3.36.13-.83-.28-1.31-1.13-1.39-.5-.05-.99-.16-.96-.79.02-.6.54-.76,1.01-.78.76-.03,1.04-.35.95-1.09-.07-.56.1-1.06.77-1.07.7-.02.81.48.77,1.05-.06.8.37,1.12,1.11,1.13.32,0,.65-.03.98-.04.67-.02,1.59-.26,1.6.74.02,1.08-.94.84-1.64.83-.29,0-.58-.04-.87-.05-.8-.02-1.22.33-1.21,1.17.02,2.17,0,4.35.05,6.52.02,1.26,1.06,2.03,2.29,1.76.55-.12,1.18-.3,1.36.41.2.79-.51.95-1.08,1.04-.53.08-1.09.09-1.63.04-1.53-.14-2.36-1-2.43-2.54-.05-1.05,0-2.1,0-3.58Z"/>
        <path class="cls-2" d="M846.71,461.16c-.62.33-1.01.38-1.23-.51-.42-1.69-.45-3.34-.03-5.02.02-.07.05-.14.05-.21-.07-3.58.22-7.16-.15-10.74-.01-.11-.04-.22-.04-.32.14-2.31-.27-4.62,0-6.93.12-1.04,1.06-1.2,1.76-1.45,1.73-.6,3.76-.48,5.2.14,1.46.63,3.29.4,4.46,1.74.43.49.88.24,1.32-.14.28-.24.54-.94,1-.46.47.49-.3.56-.49.84-.23.33-.57.73-.27,1.07.69.78.8,1.93,1.76,2.53.52.33,1.06.75.42,1.48-.16.18-.15.45.03.6.67.56.5,1.31.51,2.02,0,1.67,0,3.33,0,5,0,.82-.21,1.51-1.13,1.74-.07-2.7-.1-5.39.2-8.08.05-.46-.02-.87-.28-1.24-.49-.68-.76-1.47-1.11-2.22-.87-1.83-2.48-2.95-4.26-3.51-1.58-.5-3.36-.37-5.05-.11-.17,0-.35-.01-.52-.02-1.49-.69-2.38-.1-2.39,1.41,0,.51-.03,1.02,0,1.52.28,4.23.05,8.46.17,12.69.07,2.72-.53,5.45.08,8.17Z"/>
        <path class="cls-2" d="M849.36,437.38c1.69-.26,3.47-.4,5.05.11,1.78.57,3.39,1.69,4.26,3.51.36.75.63,1.53,1.11,2.22.26.36.33.78.28,1.24-.3,2.69-.27,5.38-.2,8.08-.13.58-.09,1.22-.57,1.67-1.16.29-1.5,1.33-1.99,2.21-.16.28.12.44.39.51-.04.38-.32.57-.59.77-.11.02-.27,0-.31.05-1.22,1.7-2.97,2.46-4.96,2.86-1.51.3-2.96.9-4.55.77-.14-.2-.36-.21-.57-.22-.61-2.72,0-5.45-.08-8.17-.12-4.23.11-8.46-.17-12.69-.03-.5,0-1.01,0-1.52,0-1.51.9-2.11,2.39-1.42-1.71.35-1.86.52-1.86,2.41,0,6.31,0,12.62,0,18.94,0,1.68.32,1.94,1.99,1.69.18-.03.36-.05.54-.05,2.6.06,4.6-1.25,6.3-2.99,1.66-1.7,2.73-3.69,3.17-6.16.48-2.67.53-5.15-.24-7.78-.88-3.02-2.91-4.48-5.69-5.38-1.22-.39-2.5-.24-3.69-.66Z"/>
        <path class="cls-2" d="M847.28,461.38c1.58.13,3.04-.47,4.55-.77,1.99-.4,3.73-1.16,4.96-2.86.04-.06.2-.04.31-.05-.07,1.37-1.16,1.98-2.08,2.68-1.23.95-2.6,1.54-4.21,1.28-.31-.05-.53.16-.72.4-.66.84-1.59.8-2.48.59-.76-.18-1.06-.62-.33-1.26Z"/>
        <path class="cls-2" d="M872.74,463.95c-.04.32-.25.52-.51.65-.37.18-.73.09-.96-.23-.28-.38-.57-.72-.97-.98-.33-.21-.47-.58-.29-.95.17-.35.43-.7.86-.75.49-.06.54.36.66.7.13.39.37.68.75.88.25.13.46.35.48.68Z"/>
        <path class="cls-2" d="M869.41,429.41c-.85.16-1.22-.51-1.36-1.16-.12-.61.5-.6.93-.57.71.06,1.62.05,1.75.93.11.75-.64.82-1.32.8Z"/>
        <path class="cls-2" d="M857.69,456.93c-.27-.06-.55-.22-.39-.51.49-.88.83-1.92,1.99-2.21-.07,1.18-.75,2-1.61,2.72Z"/>
        <path class="cls-2" d="M594.14,475.32c-.22-.92-.43-1.72-.61-2.53-.06-.3-.2-.69.21-.85.47-.19.71.2.78.53.3,1.66.95,3.23,1.33,4.86.1.42-.02.92-.55,1.03-.53.12-.56-.39-.64-.7-.22-.81-1.32-1.44-.52-2.36Z"/>
        <path class="cls-2" d="M604.22,491.58c.14-.83.65-.89,1.03-1.09.02,0,.18.16.17.2-.17.51-.71.46-1.2.89Z"/>
        <path class="cls-1" d="M849.36,437.38c1.19.42,2.47.27,3.69.66,2.78.9,4.81,2.36,5.69,5.38.77,2.63.71,5.11.24,7.78-.44,2.47-1.5,4.46-3.17,6.16-1.7,1.74-3.7,3.05-6.3,2.99-.18,0-.36.02-.54.05-1.67.25-1.99-.01-1.99-1.69,0-6.31,0-12.62,0-18.94,0-1.89.15-2.06,1.86-2.41.17,0,.35.01.52.02Z"/>
      </g>
    </g>
  </g>
</svg>