<?xml version="1.0" encoding="UTF-8"?>
<svg xmlns="http://www.w3.org/2000/svg" version="1.1" viewBox="0 0 477 471">
  <defs>
    <style>
      .cls-1 {
        fill: #d35925;
      }

      .cls-2 {
        fill: #fb8b39;
      }

      .cls-3 {
        fill: #cd5524;
      }

      .cls-4 {
        fill: #e65b2a;
      }

      .cls-5 {
        fill: #f27834;
      }

      .cls-6 {
        fill: #fd4e2b;
      }

      .cls-7 {
        fill: #e8502f;
      }

      .cls-8 {
        fill: #e26c2d;
      }

      .cls-9 {
        fill: #fc6230;
      }

      .cls-10 {
        fill: #fc963c;
      }

      .cls-11 {
        fill: #ef8736;
      }

      .cls-12 {
        fill: #f9a33d;
      }

      .cls-13 {
        fill: #fd552d;
      }

      .cls-14 {
        fill: #d94d23;
      }

      .cls-15 {
        fill: #f98a39;
      }

      .cls-16 {
        fill: #eb7231;
      }

      .cls-17 {
        fill: #f69d3d;
      }

      .cls-18 {
        fill: #fd5b2e;
      }

      .cls-19 {
        fill: #db5727;
      }

      .cls-20 {
        fill: #fb6e31;
      }

      .cls-21 {
        fill: #d15c26;
      }

      .cls-22 {
        fill: #ed682f;
      }

      .cls-23 {
        fill: #f38336;
      }

      .cls-24 {
        fill: #fe3d28;
      }

      .cls-25 {
        fill: #ef7a34;
      }

      .cls-26 {
        fill: #f47e36;
      }

      .cls-27 {
        fill: #fc7735;
      }

      .cls-28 {
        fill: #faa43d;
      }

      .cls-29 {
        fill: #f07a34;
      }

      .cls-30 {
        fill: #fb9a3c;
      }

      .cls-31 {
        fill: #fb913b;
      }

      .cls-32 {
        fill: #f58537;
      }

      .cls-33 {
        fill: #db672b;
      }

      .cls-34 {
        fill: #c6441f;
      }

      .cls-35 {
        fill: #e24b2a;
      }

      .cls-36 {
        fill: #fb7134;
      }

      .cls-37 {
        fill: #d45e27;
      }

      .cls-38 {
        fill: #fa9e3c;
      }

      .cls-39 {
        fill: #e05d33;
      }

      .cls-40 {
        fill: #e06d2d;
      }

      .cls-41 {
        fill: #c4411c;
      }

      .cls-42 {
        fill: #f18636;
      }

      .cls-43 {
        fill: #fef3ed;
      }

      .cls-44 {
        fill: #faa93e;
      }

      .cls-45 {
        fill: #f28536;
      }

      .cls-46 {
        fill: #f6923a;
      }

      .cls-47 {
        fill: #f57a35;
      }

      .cls-48 {
        fill: #d76228;
      }

      .cls-49 {
        fill: #f26a30;
      }

      .cls-50 {
        fill: #e9662e;
      }

      .cls-51 {
        fill: #f7903a;
      }

      .cls-52 {
        fill: #eb692f;
      }

      .cls-53 {
        fill: #fb9d3d;
      }

      .cls-54 {
        fill: #dd652c;
      }

      .cls-55 {
        fill: #faa53d;
      }

      .cls-56 {
        fill: #de6a2c;
      }

      .cls-57 {
        fill: #fef3e5;
      }

      .cls-58 {
        fill: #c86643;
      }

      .cls-59 {
        fill: #cb431f;
      }

      .cls-60 {
        fill: #fe3f29;
      }

      .cls-61 {
        fill: #e3672e;
      }

      .cls-62 {
        fill: #fad8b9;
      }

      .cls-63 {
        fill: #ee7e35;
      }

      .cls-64 {
        fill: #fdf4eb;
      }

      .cls-65 {
        fill: #ce451f;
      }

      .cls-66 {
        fill: #fd6c33;
      }

      .cls-67 {
        fill: #da652a;
      }

      .cls-68 {
        fill: #c13f1a;
      }

      .cls-69 {
        fill: #dd612c;
      }

      .cls-70 {
        fill: #d95e2c;
      }

      .cls-71 {
        fill: #fc7e35;
      }

      .cls-72 {
        fill: #dc4f26;
      }

      .cls-73 {
        fill: #fc8136;
      }

      .cls-74 {
        fill: #f47533;
      }

      .cls-75 {
        fill: #ce5d31;
      }

      .cls-76 {
        fill: #e47630;
      }

      .cls-77 {
        fill: #fc6931;
      }

      .cls-78 {
        fill: #f48637;
      }

      .cls-79 {
        fill: #e3712f;
      }

      .cls-80 {
        fill: #f79f3c;
      }

      .cls-81 {
        fill: #eb652e;
      }

      .cls-82 {
        fill: #fd7635;
      }

      .cls-83 {
        fill: #ca5121;
      }

      .cls-84 {
        fill: #fd4a2b;
      }

      .cls-85 {
        fill: #f9a13c;
      }

      .cls-86 {
        fill: #cc461f;
      }

      .cls-87 {
        fill: #d95125;
      }

      .cls-88 {
        fill: #fa913a;
      }

      .cls-89 {
        fill: #fef7f1;
      }

      .cls-90 {
        fill: #c44b1e;
      }

      .cls-91 {
        fill: #f06631;
      }

      .cls-92 {
        fill: #e77a32;
      }

      .cls-93 {
        fill: #ec7532;
      }

      .cls-94 {
        fill: #e05a29;
      }

      .cls-95 {
        fill: #fe3727;
      }

      .cls-96 {
        fill: #e66d30;
      }

      .cls-97 {
        fill: #f17e34;
      }

      .cls-98 {
        fill: #f18f39;
      }

      .cls-99 {
        fill: #fc7d35;
      }

      .cls-100 {
        fill: #d2713c;
      }

      .cls-101 {
        fill: #fb8638;
      }

      .cls-102 {
        fill: #df5c32;
      }

      .cls-103 {
        fill: #dc6229;
      }

      .cls-104 {
        fill: #fc6530;
      }

      .cls-105 {
        fill: #f48237;
      }

      .cls-106 {
        fill: #fde4d3;
      }

      .cls-107 {
        fill: #f28a37;
      }

      .cls-108 {
        fill: #f07532;
      }

      .cls-109 {
        fill: #ea622e;
      }

      .cls-110 {
        fill: #cf4a21;
      }

      .cls-111 {
        fill: #fe512c;
      }

      .cls-112 {
        fill: #f8943c;
      }

      .cls-113 {
        fill: #f48d38;
      }

      .cls-114 {
        fill: #fe4329;
      }

      .cls-115 {
        fill: #d54923;
      }

      .cls-116 {
        fill: #fba642;
      }

      .cls-117 {
        fill: #f99e3c;
      }

      .cls-118 {
        fill: #c74e1f;
      }

      .cls-119 {
        fill: #fd4b2a;
      }

      .cls-120 {
        fill: #c57a60;
      }

      .cls-121 {
        fill: #f88639;
      }

      .cls-122 {
        fill: #fdedd8;
      }

      .cls-123 {
        fill: #e1682d;
      }

      .cls-124 {
        fill: #f77e36;
      }

      .cls-125 {
        fill: #ea8241;
      }

      .cls-126 {
        fill: #ef8b38;
      }

      .cls-127 {
        fill: #d05824;
      }

      .cls-128 {
        fill: #d1723c;
      }

      .cls-129 {
        fill: #ed622d;
      }

      .cls-130 {
        fill: #e15328;
      }

      .cls-131 {
        fill: #fc7934;
      }

      .cls-132 {
        fill: #c8421e;
      }

      .cls-133 {
        fill: #fd4c2b;
      }

      .cls-134 {
        fill: #fd482b;
      }

      .cls-135 {
        fill: #f29239;
      }

      .cls-136 {
        fill: #de5226;
      }

      .cls-137 {
        fill: #eb7a33;
      }

      .cls-138 {
        fill: #fc6430;
      }

      .cls-139 {
        fill: #de5030;
      }

      .cls-140 {
        fill: #fb983b;
      }

      .cls-141 {
        fill: #e86f30;
      }

      .cls-142 {
        fill: #fe4029;
      }

      .cls-143 {
        fill: #f68137;
      }

      .cls-144 {
        fill: #faa83f;
      }

      .cls-145 {
        fill: #ed7131;
      }

      .cls-146 {
        fill: #fddebc;
      }

      .cls-147 {
        fill: #f47233;
      }

      .cls-148 {
        fill: #f8983c;
      }

      .cls-149 {
        fill: #d74d23;
      }

      .cls-150 {
        fill: #e4612c;
      }

      .cls-151 {
        fill: #fd5f30;
      }

      .cls-152 {
        fill: #ef6a31;
      }

      .cls-153 {
        fill: #f78b3a;
      }

      .cls-154 {
        fill: #e1632c;
      }

      .cls-155 {
        fill: #f98c39;
      }

      .cls-156 {
        fill: #c15730;
      }

      .cls-157 {
        fill: #fbae40;
      }

      .cls-158 {
        fill: #fdead7;
      }

      .cls-159 {
        fill: #f3973c;
      }

      .cls-160 {
        fill: #fefefe;
      }

      .cls-161 {
        fill: #e35f2a;
      }

      .cls-162 {
        fill: #ec8735;
      }

      .cls-163 {
        fill: #e66b2f;
      }

      .cls-164 {
        fill: #d24c22;
      }

      .cls-165 {
        fill: #fc7133;
      }

      .cls-166 {
        fill: #e77030;
      }

      .cls-167 {
        fill: #f06d31;
      }

      .cls-168 {
        fill: #f36d31;
      }

      .cls-169 {
        fill: #fef9f1;
      }

      .cls-170 {
        fill: #ce5322;
      }

      .cls-171 {
        fill: #eb5d2d;
      }

      .cls-172 {
        fill: #be5d33;
      }

      .cls-173 {
        fill: #d24622;
      }

      .cls-174 {
        fill: #e87532;
      }

      .cls-175 {
        fill: #ef8336;
      }

      .cls-176 {
        fill: #fdeddf;
      }

      .cls-177 {
        fill: #f68838;
      }

      .cls-178 {
        fill: #fd512d;
      }

      .cls-179 {
        fill: #ed6d30;
      }

      .cls-180 {
        fill: #faab3f;
      }

      .cls-181 {
        fill: #de5629;
      }

      .cls-182 {
        fill: #e5652e;
      }

      .cls-183 {
        fill: #f17132;
      }

      .cls-184 {
        fill: #fe3a28;
      }

      .cls-185 {
        fill: #ea7e34;
      }

      .cls-186 {
        fill: #fef7ee;
      }

      .cls-187 {
        fill: #f6983b;
      }

      .cls-188 {
        fill: #d85e28;
      }

      .cls-189 {
        fill: #fc6d32;
      }

      .cls-190 {
        fill: #f99c3d;
      }

      .cls-191 {
        fill: #e35c2a;
      }

      .cls-192 {
        fill: #cc6f3a;
      }

      .cls-193 {
        fill: #fd512e;
      }

      .cls-194 {
        fill: #e3582a;
      }

      .cls-195 {
        fill: #d44f23;
      }

      .cls-196 {
        fill: #ec8335;
      }

      .cls-197 {
        fill: #e7612d;
      }

      .cls-198 {
        fill: #fb8e38;
      }

      .cls-199 {
        fill: #f38937;
      }
    </style>
  </defs>
  <!-- Generator: Adobe Illustrator 28.7.4, SVG Export Plug-In . SVG Version: 1.2.0 Build 166)  -->
  <g>
    <g id="Calque_1">
      <g>
        <path class="cls-114" d="M23.1,420c-3.5-4.2-5.5-9.2-7.9-14,.3-2.3,1.5-3.4,3.9-3.7,3.8-.4,7.6-.9,11.4-.9,26.6-.2,53.2,0,79.9,0,43.8,0,87.6.4,131.3-.2,15.9-.2,31.9,0,47.8-.2,16.1-.2,32.3.5,48.4.3,27-.4,53.9,1.1,80.9-.1,12.5-.6,24.9,1.6,37.3-.6,3.9-.7,3.5,1.9,2.7,4.4-1.9,5.4-4.5,10.4-8,15-9.4-2.1-18.8-.2-28.3-.5-9.3-.3-18.6.4-27.9-.9-4.6-.6-9.2.9-13.9.9-31,0-61.9,0-92.9,0-19.5,0-38.9,0-58.4,0-38.4-.2-76.8.3-115.2.1-28.3-.1-56.6.1-84.9,0-2.2,0-4.3.8-6.4.6Z"/>
        <path class="cls-95" d="M412,454.1c-13,7.5-27.5,9.4-42.1,10.8-9.6.9-19.3,1-28.9,1-72.7,0-145.4,0-218.1-.1-17.8,0-35.6-1.4-52.5-7.8-2.2-.8-4.4-1.4-6.2-2.9-.9-1.1-3.2-1.2-2.8-3,.4-2.1,2.5-2.4,4.3-2.7,3.1-.5,6.3,0,9.5,0,104,0,208,0,312,0,7,0,13.7-3,20.8-2,.5,0,1,0,1.5,0,2.7.3,6.6-.9,7.6,2.1.9,2.8-3.7,2.5-4.9,4.6Z"/>
        <path class="cls-184" d="M412,454.1c.1-2.8,3.3-2.2,4.6-4-.2,0-354.4,1.5-354.5,1.5-.6,1.9,2.1,1.9,2,3.5-7.8-3-14.8-7.4-21-12.9-.2-3.1,2-4,4.4-4.5,2.3-.5,4.6-.3,7-.3,121.7,0,243.5,0,365.2,0,1.5,0,3,0,4.5,0,2.1.2,4.5,0,5.5,2.6,1,2.5-1.6,3.3-2.6,4.9-4.3,4.2-9.4,7.2-15,9.2Z"/>
        <path class="cls-134" d="M458.9,404.9c-.2-2,.7-5.1-3.2-2.6-1.5,1-3.2.5-4.9.5-9.9.2-19.8-.5-29.7-.2-18.6.6-37.3.2-56,.2s-38.8.1-58.2,0c-12.2-.1-24.5,0-36.7,0-42.9.2-85.8,0-128.7,0s-43.8.4-65.7-.1c-16.6-.4-33.1.6-49.7.2-1.8,0-4.1-1-5.1,1.7-.2.7-1.1,1.1-1.5.4-2.4-4.4-2.9.2-4.3.8-.9-1-1.5-2.2-1.3-3.6-2.2-7.4-1.9-8,6-9.1,7.9-1.1,15.9.2,23.8-.3,9.4-.7,18.7,1.5,28.1,0,4.9-.8,9.9.7,14.9.5,11.1-.4,22.3-1,33.3-.5,12.4.6,24.8.4,37.1.3,8.6,0,17.2.5,25.8-.4,4.8-.5,9.6.7,14.4.9,8.9.4,17.9-2.2,26.7.7.6.2,1.4.2,2,0,9.4-2.8,18.8-.4,28.2-.1.7,0,1.4.2,2,0,10.2-2.7,20.7,1,30.7-.3,13.1-1.7,26.2.2,39.3-.8,7.9-.6,16.2-1.3,24.2.7.8.2,1.7.4,2.5.2,12.8-2.7,25.8,0,38.8-1,7.4-.6,15.3.1,22.8-.1,8.4-.2,16.8,2,25.2,0,4.3-1.1,9-.5,13.4-.2,7.7.6,8.8,2.3,6.7,9.6,0,1.1-.3,2-1.1,2.6Z"/>
        <path class="cls-28" d="M444,40c5.9,6.1,10.3,13.2,13.6,21-1.3,1.1-2.4.7-3.4-.4-1.7-3.5-4.1-6.2-8.2-7.1-3.5-1-6.9-.2-10.4-.2-30.1-.1-60.2-.1-90.2-.1-25.1,0-50.2-.2-75.3.2-1.2,0-2.3.1-3.4.5-3.3.7-6.6.4-10,.7-2.7.2-4.6-2-7.1-2.3-6.3-3.4-11-8.4-14.7-14.4-.1-.6-.1-1.1,0-1.7.1-.9.5-1.7,1.2-2.4,1.2-.8,2.5-.9,3.8-.9,26.1,1.3,52.2.4,78.3.5,34.3.2,68.5,0,102.8,0,3.8,0,7.7.3,11.4-.9,1.9-.6,3.6,0,5.1,1.3,2.2,2,4.7,3.7,6.5,6.1Z"/>
        <path class="cls-24" d="M426.9,444.8c3.1-5.5,2.9-5.9-3.4-5.9-124.4,0-248.9,0-373.3,0-2.9,0-5.8-.1-7.1,3.2-.3-.3-.7-.6-1-.8-2.9-4.2-7-7.2-10.7-10.7-1.4-2.6-1.3-4.4,2.4-3.9,6.1,4.1,12.7,3.3,19.2,1.9,2.9-.6,5.4-.6,8.2,0,8,1.6,16.2,1.6,24.2,0,1.8-.4,3.6-1,5.4-.5,9.5,2.4,19,2.4,28.5,0,1.1-.3,2.3-.3,3.5,0,9.7,2.5,19.3,2.4,29,0,1-.2,2-.2,3,0,9.7,2.5,19.3,2.4,29,0,.8-.2,1.7-.3,2.5,0,7.5,2.6,14.9,1.6,22.5,0,4.3-.9,8.8,0,13.3.8,7.6,1.5,15.5,1.6,23.2-.2,2-.5,3.9-1,5.9-.5,9.3,2.3,18.7,2.4,28,0,1.5-.4,3.1-.4,4.4.2,3,1.4,6.1,1.2,9.3,1.4,6.3-.3,12.7.7,18.8-1.7,1.2-.5,2.6-.1,3.9.2,8.9,2.2,17.7,2.1,26.6,0,1.7-.4,3.3-.6,4.9-.2,9.2,2.3,18.4,2.3,27.6,0,2.2-.5,4.3-.1,6.4.5,4.9,1.4,9.9,1.5,14.8.3,6.1-1.6,12.1-1.8,18.2,0,1.6.5,3.3.7,4.9.2,3.9-1.4,7.7-1.5,11.7-.1,2.3.8,4.6.1,6-2.2,2.3-1.2,4.5-1.4,6.5.4,1.3,2.7-1.4,3.9-2.3,5.8-4,4.8-8.3,9.1-14,12Z"/>
        <path class="cls-38" d="M454.9,60.1c.6,1.1,1.7,1,2.7,1,3.7,7.2,6.5,14.8,7.3,23-2.7.3-4-1.6-4.7-3.6-1.2-3-3.4-3.8-6.3-3.8-1.8,0-3.7,0-5.5,0-48.2,0-96.4,0-144.7,0-4.5,0-9,0-13.5-.4-2.5-.3-5-.1-7.1,1.5-2.5,2-4.5.2-6.7-.7-1.7-.9-3.2-2-4.7-3.1-.8-.5-1.5-1-2.3-1.5-1.5-1-2.9-2.1-4-3.6-.7-.8-1.4-1.6-2.2-2.3-.9-.7-1.7-1.4-2.4-2.2-.9-1.9-4.1-2.8-2.6-5.8.7-.3,1.5-.4,2.2-.3,6,.1,12-1,18-.6,2.1,0,4.1,0,6.2-.2,54,0,108,0,162,0,2.9,0,6.1-.4,8.1,2.6Z"/>
        <path class="cls-30" d="M281.9,78.3c.3-6.8,5.6-3.4,8.5-3.7,2.3-.2,4.9.5,7.4.5,52.2,0,104.5,0,156.7,0,3.6,0,7.1-.4,7,5.1,0,1.3,1.7,3.1,3.5,3.9,2,6.2,2.4,12.6,2.8,19-2.9-.6-3.4-3-3.5-5.3-.1-3.9-2.2-5.2-5.8-5.1-1.7,0-3.3,0-5,0-45.7,0-91.5,0-137.2,0-4.7,0-9.3,0-13.9,1.1-.6,0,.2.2-.5,0-4.1-.7-18.2-11.6-20-15.4Z"/>
        <path class="cls-134" d="M460,402.3c.6-7.3-.2-8.3-7.8-8.3-5.9,0-12-1.1-17.7,1.6-.4.2-1.1.4-1.4.3-5.9-2.7-12-.8-18.1-1-9.3-.3-18.6-.4-27.9-.1-7.7.2-15.5,1.1-23.2-.6-.2,0-.3-.1-.5,0-7.7,2.5-15.5-.4-23.2.7-1.1.2-2.3.4-3.5.2-10.3-1.5-20.7.9-31-.1-10.2-1-20.2,1.7-30.4.2-11.1-1.6-22.2,1-33.4,0-5-.5-10.1-1.9-15,.9-.8.4-2,.3-2.9,0-10.1-3.3-20.4.7-30.4-1.1-7.9-1.5-15.7.3-23.6-.4-6.7-.6-13.7.3-20.6.4-3.2,0-6.2.3-9.4-.6-1.9-.6-4-.6-5.9.3-3.4,1.6-6.7,1.5-10,0-.9-.4-2-.6-2.9-.5-11.9,1-23.9.4-35.9.8-3,0-5.9.4-8.9-.5-2.2-.7-4.6-.6-6.8.5-2.9,1.3-5.7,1.4-8.6,0-1-.5-2.4-1-3.3-.7-7.3,2.3-14.8-1.2-22.1.8-4.9,1.3-9.9-1.3-15.3-.3-5.3,1-8,2.1-6.1,7.8-2.1-4.2-3.8-8.4-4-13.1-1-3.7.4-4.1,3.3-2.5,1,.6,1.8,1.4,3.1,1.3,19.9-1.1,39.9-.3,59.9-.5,25.1-.2,50.2-.3,75.4-.1,35.3.2,70.6-.1,105.8,0,36.4,0,72.9,0,109.3,0,28,0,55.9,0,83.9,0,2,0,4,0,6,0,4.2.2,6.5,2.1,6.2,6.6-.4,3-1.4,5.7-2.9,8.3Z"/>
        <path class="cls-10" d="M300.9,93.3c2.6-1.9,5.5-2.3,8.7-2.3,50,0,100,.1,150,0,4.7,0,6.5,1.7,6.2,5.8-.2,2.5.7,4.4,2,6.2,0,.4,0,.7,0,1.1-.6,2.9-2.4,4.1-5.3,4.2-3.8,0-7.6.4-11.5.4-40.3,0-80.5,0-120.8,0-3.1,0-6.3-.3-9.3,1.1-2.6,1.4-4.4,0-6.1-1.7-3.9-3.8-7.6-7.8-12-11.1-.9-1.1-2.2-2-1.9-3.7Z"/>
        <path class="cls-31" d="M318.9,110.3c.9-3.4,3.6-3.3,6.3-3.3,43,0,86,0,128.9,0,3.1,0,6.3-.2,9.4,0,2.4.1,3-1.8,4.2-3,1,10.3,1,20.6,1,30.9,0,50.6,0,101.3,0,151.9,0,1.3-.1,2.7-.2,4-3.9-2.6-1.6-6.7-2.2-10,0-6.1-.2-12.2,0-18.3,0-1.5,0-3,0-4.5,0-1.2-.2-2.4,0-3.7.2-9-.4-18,0-27.1,0-2.8-.1-5.6,0-8.3-.1-4.3,0-8.6,0-12.9.2-3.7-.2-7.4,0-11,0-3.7-.2-7.4,0-11.1-.1-5-.2-10,0-15-.1-6-.2-12,0-17.9-.1-6.6-.2-13.1,0-19.7-.4-6.8-.4-6.8-7.3-6.8-33.9,0-67.9,0-101.8,0-5.3,0-10.5,1.3-15.9.5-3.4-.5-4.1,1-2.4,4.1.6,1.2,1.5,2.2,1.7,3.6,0,.8-.1,1.6-.7,2.3-1.8.7-2.8-.6-3.7-1.7-4.9-6.4-9.9-12.8-15.5-18.6-1.1-1.2-2.1-2.6-1.9-4.4Z"/>
        <path class="cls-142" d="M442.9,427.9c-1.8-1.8-4-.7-6-1-1.3,1.2-3,1.8-4.6,1.5-7.1-1.4-14.2.8-21.3-.3-6.6-1-13.3.7-19.9.4-15.7-.7-31.5-.2-47.2-.2-17.1,0-34.1-.4-51.2.1-2.2.2-4.5.1-6.7,0-3.4-.7-6.9-.6-10.3,0-8.4,0-16.9.5-25.3-.5-3.8-.4-7.6.6-11.4.6-16.4-.2-32.8-.9-49.1,0-3.3-1.1-6.7-.8-10.1-.2-7.2,0-14.3.1-21.5,0-3.4-.7-6.8-.7-10.3,0-7.2.1-14.5.1-21.7,0-3.4-.7-6.9-.7-10.3,0-7.2.1-14.5.1-21.7,0-3.4-.7-6.9-.7-10.3,0-7.2.1-14.5.1-21.7,0-3.4-.7-6.8-.7-10.2,0-4.9-.2-9.9.9-14.7-.9-2.1-3-.6-5.5,1.5-7.5,2.1-2,4.3-.6,6.3.8,2.6,1.9,5.3,2.1,7.8,0,2-1.6,4.1-2,6.5-1.9,6.6.5,13.6-1.7,19.7,2.9,1.4,1.1,3.4.2,5.2-.6,8.4-3.8,16.8-3.8,25.2,0,2.1,1,4.4,1.8,6.1.3,3.6-3.1,7.7-2.7,11.8-2.6,5.2.1,10.6-1.1,15.3,2.8,1.6,1.3,3.7.4,5.7-.5,8.4-3.7,16.8-3.8,25.2,0,2.5,1.2,4.9,1.4,7-.4,2.3-1.9,4.8-2.1,7.5-2,13.8.2,27.6-.3,41.4,0,2.9,0,5.5.2,8,2.1,2.3,1.9,5,1.7,7.3-.2,1.9-1.6,4.1-2.1,6.5-1.9,6.6.5,13.6-1.7,19.8,2.9,1.4,1.1,3.4.2,5.2-.6,8.4-3.8,16.8-3.7,25.2,0,2.1.9,4.4,1.8,6.1.3,3.6-3.1,7.7-2.7,11.8-2.5,5.2.2,10.7-1.2,15.3,2.8,1.2,1.1,3.5,1,4.7-.1,3.8-3.4,8.4-2.8,12.8-2.6,4.8.2,9.9-1.2,14.3,2.7,1.7,1.4,4.2.8,6-.7,2.2-1.9,4.8-2,7.5-2,8.1,0,16.3-.4,24.4,0,3.3.1,6.6,0,9.4,2.4,1.7,1.5,4.3,1.5,6.1,0,3-2.6,6.4-2.3,9.9-2.4,4.8-.2,9.6.5,14.4-.7,3-.7,4.5,1.5,4.6,4.5-1.4,1.7-2.7,3.5-4.1,5.2-.6.5-1.2.6-1.8,0Z"/>
        <path class="cls-84" d="M462.9,394c-1.2-4.2-3.9-5.2-8.2-5.2-143.8.1-287.7,0-431.5.1-1.8,0-3.8-.3-5.4.4-2.9,1.1-4.4,0-5.7-2.4,3.1-1.8,7.1-1.6,9.5-4.8,2.5-.8,5.1-.9,7.6.2,2.1,2.6,4.9,3.1,8,3.1,5.5,0,11-.1,16.5,0,3.1,0,5.5-.8,7.5-3.1,2.6-1.2,5.1-1.2,7.7-.1,2.2,2.6,5,3.5,8.4,3.3,2.8-.2,5.7-.2,8.5,0,3.1.2,5.5-1,7.5-3.2,2.5-1.1,5.1-1.1,7.6,0,5.3,4.6,19.2,4.7,24.3.1,2.5-1.2,5-1.1,7.5-.2,5.4,4.8,11.1,4.8,16.9,0,2.5-.9,5.1-.9,7.6.2,2.1,2.5,4.9,3.2,8,3.2,5.5,0,11-.1,16.4,0,3,0,5.5-.7,7.5-3.1,2.5-1.2,5-1.1,7.5-.4,1.9.9,3,2.9,5.3,3.4,6.1,1.2,8.5,0,11-5.7,3.2-1.7,5.5,1.1,8.3,1.5,3.7,3.4,8.2,2.1,12.4,2.3,1.3,0,2.5-.2,3.8-.6,2.8-.4,5.8-.4,8.3-2,6.2-1,12.5.1,18.7-.9,1.2,0,2.3.4,3.4.4,5.4-1.4,10.4,1.2,15.8,1.1,24.9-.3,49.8-.1,74.7-.1,5.3,0,10.6,0,15.9,0,2.8,0,5.6.2,8.2,1.8,3,1.8,5.7,1.4,7.9-1.5,1.3-1.7,2.8-2.3,4.7-1.2,2.1-.4,5,2.9,6.1-1.5.1-1,.3-2,1.4-2.4,4.3,1.2,9.4,0,13,4,1,1.2,2.8.7,4.2-.2,3.6-2.4,7.1-2.5,10.7,0,1.7,1.2,3.5,1.1,5-.3,3.7-3.2,7.4-3.5,11.1-.2,1.9,1.7,3.4,1.2,5.3-.2,3.8-2.7,9-2.4,12.4.4,1.8,1.4,1.4,3.1.8,4.9-.2,3.1-.8,6.1-2,8.9Z"/>
        <path class="cls-44" d="M444,40c-5.1-3.9-10.1-5.5-17.3-5.4-59.9.7-119.8.4-179.7.6-3.7,0-7.3-2.7-11-.2-3.4-1.9-5.7-5-8.8-7.3-1.4-1.1-1.8-3.2.7-4.2,3.5.3,6.9-.8,10.4-1,20.1-1.1,40.2.4,60.2.2,36.4-.5,72.7,0,109.1,0,4,0,8-.2,11.8,1.5,1,.5,1.9.2,2.7-.5,1.7-1.3,3-.6,4.4.6,3.6,3.2,7.5,5.9,11.1,8.9,2.5,2,5,3.9,6.3,6.9Z"/>
        <path class="cls-157" d="M113.8,4c2.9-1.2,5.9-.7,8.9-.7,76,0,152.1-.1,228.1,0,17,0,33.9,1.3,50.2,6.8,1.4.5,2.7,1.2,4,1.8-2.4,2.3-5.6,2.1-8.5,3.1-2.5.5-5.1.4-7.6.4-5.4.2-10.7-1.9-16.1-.4-2.6.5-5.2.5-7.8,0-5.4-.9-10.8-.9-16.3,0-2.7.5-5.5.4-8.2,0-18.4-.9-36.8-.8-55.2,0-4.8,1.1-9.5-.6-14.3-.6-15.9,0-31.8,0-47.7,0-2.4,0-4.8-.2-5,3.2-5,2.4-5.9-2.6-8.5-4.6-1.7-1.9-3.4-3.9-5.7-5.2-.4-.2-.8-.5-1.2-.8-2.2-2.1-4.9-1.8-7.7-1.6-9.8,0-19.6.2-29.3,0-8.3-.1-16.6.4-25,0-6.7,0-13.5,0-20.2,0-2.4,0-5,.4-6.9-1.6Z"/>
        <path class="cls-6" d="M9,385.1c-1.4-3.9-2.1-8-1.9-12.1,1.2-2,0-3.9-.2-5.8-.5-3.3.9-5.2,4.1-5.5,5-.4,10-.3,14.9,0,1.7.1,3,1.1,4.4,2.1,3.3,2.5,10.1,2.4,13.5,0,4.4-3.2,13.9-3.2,18.3,0,3.6,2.6,10.3,2.5,13.9-.2,4-2.9,13.8-2.9,17.9,0,3.9,2.8,10.3,2.8,14.3-.1,3.7-2.7,13.8-2.7,17.5,0,4.2,3,10.7,3.3,14.8.1,3.4-2.7,7.4-1.3,11-2.6,1.7-.3,3.3-.3,5-.2,2.6.3,5,1.6,7.4,2.3,3.4,1.7,7.6,2,10.3,5.1.3,3.2,2.4.4,3.5,1,1.5-.1,2.5.6,3.3,1.7.8,1.2,3.3,1.1,2.7,3.1-.5,1.4-2.3,1.8-3.8,2-2.8.4-5.6.6-8.4.6-52.2,0-104.4.1-156.6,0-1.6.3-4.1-1.2-4.4,2,0,1.3,0,2.5-.1,3.8-.1,1.1-.4,2.1-1.3,2.8Z"/>
        <path class="cls-178" d="M152,362c-2,1.2-4.1.9-6.3,1-1.1,0-2.9,0-3.3.6-3.8,6.3-9.9,2.3-14.8,3.4-.8.2-1.8,0-2.2-.9-.6-1.6-.9-3.2-3.2-3.1-4,.2-10.1-1.4-11.6.5-4.3,5.7-9.5,2.6-14.3,3.4-1.1.2-2.2.1-3.1-1-1.9-2.4-13.7-4.9-15-2.6-3.7,6.5-9.4,2.5-14.1,3.6-1,.2-2.2,0-3-1.1-1.7-2.4-13.9-4.6-15-2.3-2.6,5.4-6.9,3.2-10.6,3.4-2.7.2-6.2,1.3-7.1-3.2,0-.4-1.4-.7-2.2-.7-5.2,0-10.3-.1-15.5,0-3.1,0-4.2,1.9-2.8,4.7,1.1,2.1.9,3.8-.9,5.3-1.4-4.2-1.1-8.6-1.1-12.9-.6-2-.4-4-.1-6,10-5,20.7-4.8,31.5-4.5,2.2,0,4.3.4,6.3,1.2,6.3,2.6,12.6,2.6,18.9,0,4-1.6,8.2-2,12.1-.3,4,1.8,8,2.1,12.1,2,5,0,10,0,15,0,3,0,5.8-.9,8.7-1.6,9.3-2.3,18.7-2.2,27.6,2.1,3.4,1.6,6.5,3.8,10.2,5,1.7.6,4.1,1.1,3.8,3.9Z"/>
        <path class="cls-104" d="M467.9,281c.4,3.3-.7,6.7.8,9.9,0,21.5,0,43,0,64.5,0,1-.4,1.9-.5,2.9-1.5-1.1-1.5-2.8-1.6-4.3-.1-5.3-.1-10.7,0-16-.2-10.1-.2-20.2,0-30.2,0-2.3,0-4.6,0-6.9.4-3.9.5-7.1-5.1-7.3-2.5,0-5.1-1.1-7.8-1.1-16.5,0-32.9,0-49.4,0-3,0-6,0-8.5,2.1-1.8,1.4-3.7,1.3-5.5,0-2.5-2-5.2-2.8-8.4-1.6-1,.4-2.3.9-3.1-.5-.7-1.1-.2-2.2.5-3.2.6-.9,1.8-1.9.7-3-1.2-1.2-2,.3-2.9.9-1.4.9-2.5.2-3.4-.9-1.1-3-.3-5.7,1.5-8.2,1.4-.8,1.8-2.1,2-3.6.2-1.3.6-2.6,2.4-2.4,2.1.5,4.2.7,6.4.7,22.9-.1,45.8.2,68.6-.2,6.9-.1,12.1,1,13.6,8.7Z"/>
        <path class="cls-12" d="M141,4.1c8.3,0,16.7,0,25,0,.5,2.9-1.3,4.1-3.7,4.1-3.6,0-5.8,2.4-8.7,4-5.3,3.1-10,7.8-16.8,8-1.5,0-3.1.2-4.3,1.1-6.6,5.1-14.7,5.5-22.4,7.2-3.7.8-6.5,3.2-9.4,5.4-1.9,1.4-3.9,2.6-6.3,2.5-4.3-.2-8.1,1.3-12,2.8-3.9,2.2-7.5,4.3-12.4,3.9-3.5-.3-7,1.9-10.4,3.2-8.2,3.1-16.6,5.6-25.4,6.3-.8,0-1.6.4-2.3.8-4.4,2.6-8.5,5.6-13,8-.9.6-1.8,1.2-2.9.7,2.8-7.4,6.9-14.1,12.2-19.9,4.7-.5,9.7.6,13.5-3.5,1-1.1,2.8-.9,4.3-.9,2.4,0,4.6-.3,6.3-2.3.3-.4.8-.9,1.2-.9,6.3.3,11.1-4.6,17.2-4.9,2.5-.1,4.9-.9,7.2-1.9,1.5-.7,3-1.8,4.6-1.7,7.4.3,12.8-4.1,18.8-7.3,2.6-1.4,6.3-1.2,7.5-4.9,3.4-1.2,6.5-2.5,9-5.4,2.2-2.5,5.8-2.8,9.2-2.8,4.7,0,9.5.7,14-1.5Z"/>
        <path class="cls-142" d="M448.9,422.7c-1.9-3-4.2-4-8.1-3-3.6.9-7.6.2-11.4.2-3.1,0-5.8-.2-8.4,2.8-2,2.3-6.3,2.4-8.8-.7-1.4-1.6-2.7-2.2-4.6-2.2-9.7,0-19.3,0-29,0-1.7,0-3.1.2-4.4,1.6-3.2,3.5-7,3.4-10.4-.1-1-1.1-2.1-1.5-3.5-1.5-4.5,0-8.9,0-13.4,0-2.1,0-3.7.3-5.1,2.3-2.1,2.7-7.3,2.6-9.5-.1-1.3-1.7-2.7-2.2-4.7-2.1-4.3,0-8.7,0-13,0-1.9,0-3.3.4-4.7,2.1-2.2,2.7-7.5,2.9-9.5.2-1.5-1.9-3-2.3-5.1-2.3-4.2,0-8.3,0-12.5,0-1.9,0-3.4.3-4.8,2-2.5,3-7.4,3-9.8,0-1.4-1.7-2.9-2-4.8-2-3.8,0-7.7,0-11.5,0-2.5,0-4.5.4-6.5,2.6-2.4,2.6-6.4,2.6-8.8,0-1.9-2.1-3.6-2.5-6-2.5-14.3,0-28.6,0-43,0-2.4,0-4.2.3-6,2.5-2.4,2.8-6.5,2.8-8.8.2-2.2-2.5-4.3-2.6-7-2.6-3.5,0-7,0-10.5,0-2.2,0-4,.2-5.6,2.4-1.8,2.5-7.4,2.5-9.2,0-1.5-2.1-3.3-2.5-5.5-2.4-4.2,0-8.3,0-12.5,0-1.7,0-3.1.3-4.4,1.8-2.8,3.2-7.2,3.2-10.1,0-1.3-1.5-2.7-1.7-4.4-1.7-4.3,0-8.7,0-13,0-1.9,0-3.3.4-4.7,2.1-2.2,2.8-7.5,2.9-9.5.2-1.5-1.9-3-2.3-5.1-2.3-4,0-8,0-12,0-2.2,0-3.9.4-5.6,2.3-2.5,2.9-6.2,2.6-8.9.5-4.8-3.7-5.1-3.8-7,1.8-.3.8-.4,1.6-.7,2.4-1.3,1.2-2.7.8-4,0-3.3.6-1.5,2.5-.9,4,.3.2.4.4.3.6,0,.2-.2.3-.3.3-2.7-2.6-5.1-5.6-7-8.9.2-.5,1-.3,1-1-.4.3-.7.6-1,1-1.1-.7-1.6-1.8-2-2.9,2-2.4,4.7-2,7.4-2,58.3,0,116.5,0,174.8,0h176c18.9,0,37.8,0,56.7,0,3.7,0,7.4-1.9,11.2,0,1,.5,1.7,1,1.8,2.1-.4,1.1-.8,2.3-2.1,2.7Z"/>
        <path class="cls-6" d="M465,385.1c.9-4.8-3.6-4.6-5.9-5.7-2.1-1-4.8-1.4-6.7,1.9-1.6,2.8-4.8,2.5-7.1,0-2.9-3.2-5.8-3.3-8.6,0-2.2,2.6-5.1,2.7-7.4.7-3.2-2.8-5.6-2.9-8.7,0-2,1.9-5.6,2-6.6,0-1.8-3.4-4.4-3-7.1-2.9-2.1.1-3.4-1.1-4.9-2,.5-5.4-.2-10.9,1.9-16.1,5.6,3.2,11.8,2.6,17.9,2.6,10.1,0,20.3,0,30.4,0,1.2,0,2.3,0,3.5,0,9,.2,10.6,1.6,11.2,10.5,0,3.8-.6,7.6-1.9,11.2Z"/>
        <path class="cls-144" d="M141,4.1c-2,3.5-5.6,2.5-8.6,3-4.1.6-8.5-1.3-12.4,1.6-1.3.9-2.5,1.3-3.2,3.1-1.4,4-5.1,1.6-7.7,2.3-.7.8-1.7,1.2-2.7,1.1-5-.2-10-1.3-14.3,3.1-1.6,1.6-5.1.2-7.8.7-7.6,1.3-13.6,6.1-20.4,9.2-2.8,1.3-5.6,2.7-8.6,2-3.9-.9-7.6,2.6-11.5.5-.8-.4-1,.6-1.3,1.1-2.9,3.5-7.5,5-10.2,8.7-.7,1-2.1,1.7-3.5.5,9.9-13.1,22.8-22.2,37.7-28.5,15-6.3,30.9-8.8,47.2-8.6,9.1,0,18.1,0,27.2.1Z"/>
        <path class="cls-88" d="M6.1,107c0-3-.4-6.1.8-9,1.4-6.4,5.3-9.5,11.8-10.7,4.5-.8,8.8-2.7,13.6-1.8,3.1.6,4.9-2.5,7.6-3.4,1.3-.3,2.7-.4,3.9.3,2.2,1.2,3.7.4,5.8-.7,5.1-2.8,10.9-3.3,16.7-3.8,2.2-.2,3.6,1.4,4.5,3.4.4,4-1.7,7.4-6.1,7.6-4.2.2-7.1,2-9.6,5.1-.4.2-.9.4-1.3.4-1.6-.8-3.2-2-4.2.7-.5,1.2-1.4,2.2-2.3,3.2-2.6,2.9-5.9,4.2-9.8,4.1-3.4,0-6.3,1.6-9.4,2.7-5.2,1.9-10.8,2.5-16.4,3-1.9.2-3.2-2.7-5.5-1.1Z"/>
        <path class="cls-155" d="M6.1,107c1.1-.2,1.6-1.8,3.4-.7,2.5,1.4,5.3,1.4,7.8-.5.1-.1.3-.3.4-.3,7.6,1.4,13.5-5.5,21-4.5,3.6.5,5.7-2.3,8.2-4,3.1.8,5.2-.9,7-3,3-1.4,6.1-.5,9.2,0,1.9.3,2.8,1.6,2.7,3.5-.3,1.8-1.6,2.6-3.2,2.6-4.1.2-7.2,2.3-10,5-2.6,2.4-5.6,3.6-9.1,3.3-3.5-.3-5.4,1.1-5.6,4.6-1,2.3-3,3.1-5.2,3.2-3.7.1-7.2,1-10.7,1.9-3.3.8-6.5,1.4-8.6,4.3-.5.7-1.3,1.3-2.1,1.2-4.3-.4-3.9,2.5-3.8,5.2.1,3.5.1,7,0,10.4.2,4.9.1,9.8,0,14.7.1,4.3.1,8.7,0,13,.1,4,.1,8,0,12,.1,4.6.1,9.3,0,13.9.1,3.4.1,6.8,0,10.2.3,5.9-.2,11.7,0,17.6.1,1.6.1,3.1,0,4.7,0,6.2.2,12.5,0,18.7,0,6.6-.1,13.2,0,19.9.2,5.7,0,11.3,0,17,.2,6,.2,11.9,0,17.9.1,3.1.1,6.3,0,9.4.2,9.2.2,18.5,0,27.7-.4,6,1.4,12.2-1.4,18.1,0,2-.2,4-.3,6-1.2-3.2-.8-6.6-.8-9.9,0-77.2,0-154.4.1-231.7,0-3.8.5-7.6.8-11.4Z"/>
        <path class="cls-111" d="M466.9,373.9c-2.3-2.1,0-6.5-4.3-8-2-.7-3.8-1-5.7-1-14.9,0-29.8,0-44.7,0-3.5,0-6.5-.6-8.2-4-2-4.8-.8-7.3,3.9-8.3.5,0,1-.2,1.5-.2,19-.5,38-1.5,57,1,.5,0,.9.3,1.4.5.1,1.4.2,2.8.3,4.2,0,5.3,0,10.5-1.2,15.7Z"/>
        <path class="cls-55" d="M29,41c1,0,2.2-.2,2.7-1.1,3.2-5.7,10.2-7,13.4-12.6,1.6,1.6-.8,2.2,0,3.5,1.9.7,2.7-2.1,4.7-1.8,9.9,1.6,17.4-4.1,25.5-8.4,4.4-2.3,9.4-4,14.7-3.1,1.9.3,3.4-.2,4-1.9,1-3.1,3.6-2.9,5.7-2.3,3.1.9,6.2.7,9.4.8.4,3.3-.3,5.6-4.4,5-1.7-.3-3.3,0-3.8,2.2-.3,1-1.2,1.6-2.3,1.7-2.5.2-5.6-.6-6.1,3.4,0,.4-1.8.8-2.7.7-5.2-.7-9.8,1-14.2,3.3-1.7.9-3.6.7-5.4.7-2.2,0-4.8-.6-5.6,2.6,0,.4-.8,1-1,.9-6.8-1.8-11.5,5.1-18,4.5-1.9-.2-3.8-.3-4.7,2.4-.7,2.1-9.4,2.2-12.6.6-.1-.6.2-.9.7-1.1Z"/>
        <path class="cls-140" d="M40.1,83.1c-3.5,3.6-7.7,3.1-12.3,3.6-7.9.9-17.2,1.8-20.9,11.4.1-2.7-.3-5.5,1.1-8,1.4-4,2-8.2,3.1-12.3.9-3.3,2.2-5.9,6.5-5.1,3,.6,5.1-1.9,7.7-2.9,3-1.1,5.9-2.2,9.1-2,2.9.2,5.5-.5,8-2.2,1.5-1,3.2-1.7,5.2-1.1.6.3,1.1.7,1.7,1,5.8,2.9,6.2,4.7,2.3,9.9-5.2.5-7.5,5.3-11.4,7.7Z"/>
        <path class="cls-53" d="M48.1,65.1c-6.9,4.5-15.6,2.8-22.8,6.4-1.7.8-4,.5-4.8,3-.2.8-1.6.9-2.2.4-5.1-3.9-5.3,1.1-6.4,3.7-1.6,3.7-1.2,8.2-4,11.5.9-9.8,3.4-19.2,8-28,.7-.3,1.4-.7,2.1-1,3.4-3,6.7-2.8,10.2-.2,1.4,1,3.4,1.2,5,2.1,2.1,1.2,2.5-.3,2.9-1.8,3.2-5.4,8-3.5,12.5-2.8,1.7,2.1,3.8,3.9,3.3,7-1.4.8-2.6.7-3.9-.3Z"/>
        <path class="cls-180" d="M396.9,14.1c2.5-1.6,5.3-1.9,8.1-2.1,0,0,0,0,0,0,4.1,1.9,8.2,4.1,12.3,6,2.8.4,4.8,2.1,6.8,4-.1.2-.3.5-.4.7-1.3,1.5-2.9,1.6-4.4.6-5.4-3.6-11.2-3.9-17.4-3.1-4.5.6-6.2-1.6-4.9-6Z"/>
        <path class="cls-119" d="M9,385.1c0-1,0-2.1,0-3.2.7-1.3,1.8-2.2,3.2-1.7,2.9,1.1,6.2.7,8.8,2.7-1.1,5.6-5.6,3.6-9,4-2.7-1.1-1.8,1.1-2.1,2.2-.9-1.2-1.1-2.6-1-4.1Z"/>
        <path class="cls-180" d="M437.7,33.1c-5.7-1.8-9-7-13.8-10.1-.3-.2-.4-.4-.3-.6,0-.2.2-.3.3-.3,0,0,.2-.3.2-.3,5.1,3.1,9.9,6.6,13.7,11.2Z"/>
        <path class="cls-60" d="M32.1,431.8c0-.3,0-.6,0-.9,4.5,2.3,8.4,5.2,9.8,10.3-3.8-2.6-7-5.8-9.9-9.5Z"/>
        <path class="cls-157" d="M417.3,17.9c-4.6-1-8.6-3.2-12.3-6,4.6,1,8.6,3.1,12.3,6Z"/>
        <path class="cls-142" d="M442.9,427.9c.6,0,1.2,0,1.8,0-.7,2.1-2,3.7-3.9,4.9-.6-2.1,2-3,2-4.9Z"/>
        <path class="cls-85" d="M454.9,60.1c-2.1-1.3-4.5-1-6.8-1-54.7,0-109.4,0-164.1,0-2-.8-4-.8-6,0-4.8.6-9.9-1.4-14.6,1.6-1.3.8-2.2-1.2-3.4-1.6-1.7-1.4-4.5-1.8-4-5,3.2-2,6.7-.5,10-1,1.7-.9,3.6-.5,5.4-.5,38.4,0,76.9,0,115.3,0,19.6,0,39.2,0,58.8,0,.8,0,1.7,0,2.4.5,4.1.6,5.9,3.4,7,7Z"/>
        <path class="cls-126" d="M236,37.1c0,.3,0,.7,0,1-.5.8-1.3,1.8-.5,2.7,3.6,4,.5,5-2.6,6-2.1.7-4,1.5-5.6,3.2-2.5,2.7-5.6,4.3-9.3,4.2-3.6,0-5.3,3.2-8.3,4.2-1.4-.5-2.9-2.8-4.2.2-.2.6.3.2-.3.4-7.4,2.5-13.4,8.9-22,8-2.3-.6-5,0-6.9-2.1-.6-1.2-.7-2.4-.6-3.7,2.2-4.3,6.7-5.5,10.4-7.8.8-.5,2.3-.4,2.7-1.1,3.5-5.4,8.9-4.3,14-4.3,2.7,0,4.9-.4,4.1-4.3-.8-3.5,2.2-3.8,4.5-3.4,3.9.6,6.4-.6,7.9-4.3,1.5-3.6,5.8-2.8,8.2-5.1,2.6-.9,4,.8,5.4,2.4,1,1.3,1.6,2.9,2.9,3.9Z"/>
        <path class="cls-162" d="M210,58.1c2.1-3.3,4.6-5.5,8.9-5.1,2.1.2,4.4-.5,5.9-2.2,2.6-3,5.7-4.9,9.6-5.6.8-.1,1.8-.4,1.9-1.3.2-1-.6-1.4-1.5-1.6-1-.2-2.3-.5-2.2-1.6.2-1.6,1.6-2.4,3.3-2.5,4.4,4.6,8.1,10,14,13,1.2,1.3,3.8,1.5,3,4.2-.4.2-.9.4-1.4.4-5.1-1.4-9.9-.7-14.6,1.7-1,.5-2.4.6-3.1,1.5-4.2,6-10.6,7.3-17.1,8.7-1.5.3-2.9.7-4.2-.5-1.5-2.6.5-4.2,1.8-5.8-1.1-1.8-4.4-.2-4.4-3.2Z"/>
        <path class="cls-85" d="M447.9,53.1h-181.9c1.5-1.6,3.4-1,5.2-1,16.3,0,32.5,0,48.8,0h64.3c16.9,0,33.9,0,50.8,0,4.3,0,8.8-1.8,12.9,1Z"/>
        <path class="cls-116" d="M236,37.1c-3.8-.5-3.9-5.9-8-6-2.1-.3-3.3-1.6-4.2-3.3-.9-2.4-4.3-3-4.3-6,.1-.5.4-.9.9-1.1,2.8,0,5.6,0,6.7,3.4-.2,2,.5,3.5,2.5,4.2,3.3,1.2,5,3.9,6.5,6.8,0,.7,0,1.4,0,2Z"/>
        <path class="cls-85" d="M252.9,55.1c-1-1.3-2-2.7-3-4,2.5,0,4.1,1.9,6,3,1.3,1.7,2.7,3.3,4,5-.7,0-1.4,0-2,0-2.7,0-4.8-.9-5-4Z"/>
        <path class="cls-60" d="M33.1,426.9h19c3.3.8,6.7.8,10,0h22c3.3.8,6.7.8,10,0h22c3.3.8,6.7.8,10,0h22c3.3.8,6.7.8,10,0h22c2.9,1.4,6.1-.3,9,1,2-1.2,4.1-1,6.3-1,26.9,0,53.8,0,80.7,0,3.3.8,6.7.8,10,0h6c1.7,1,2.3,2.3,1,4-3.2-.2-6.6.7-9.6-1.6-.8-.6-2.5-.7-3.4-.3-6.8,3.4-14.3,2.8-21,1.5-10.3-1.9-20.1.9-30.1.6-6-.2-11.4-3.1-17.5-2.4-5.5.7-10.8,3.2-16.5,2.2-2.4-.4-4.9.1-7.2-1.5-.9-.7-2.8-.9-3.8-.4-6.8,3.4-14.3,2.7-21,1.5-11.1-2-21.8,1.7-32.6.4-2.1-.3-4.3.2-6.2-1.3-1.4-1.1-3.3-1-4.8-.5-9.4,2.9-18.7,2.9-28.1,0-1.2-.4-2.7-.4-3.9,0-9.4,2.9-18.7,2.9-28.1,0-1.3-.4-3.2-.5-4.4.2-5.2,3-10.8,1.2-16.1,1.4-2.3,0-4.3-1.5-5.5-3.8Z"/>
        <path class="cls-60" d="M293,430.9c.2-1.5-.3-2.8-1-4h144.9c-.9,3.9-3.8,5.5-7.6,3.4-3.2-1.7-5.7-1.8-8.8,0-2,1.2-4.7,1-6.8.2-6-2.5-11.6-1.7-17.7-.1-5,1.2-10.8,1.8-16-.9-1.6-.8-3.3-.9-4.9-.4-9.4,2.9-18.7,2.9-28.1,0-1.1-.3-2.6-.6-3.4,0-5.6,3.2-11.8,2.3-17.5,1.6-11.1-1.3-22,.6-33.1.2Z"/>
        <path class="cls-92" d="M266,68.1c1.3,1.2,2.7,2.4,4,3.6,0,.7,0,1.4-.1,2.1-.3,1.4-.3,3-.9,4.4-.8,1.7-1.9,3.1-3.5,4.1-1.1.7-2-.1-3-.3.2,2-1.4,2.9-2.6,3.9-5.1,4.6-10.8,8.3-17.2,10.6-.8.3-1.8.4-2.2,1.1-2.6,5.5-7.5,5.8-12.6,5.5-4-.2-6.4,3.4-9.8,4.5-5.7,3.8-12.5,4.8-18.6,7.6-2.9,1.4-6,1.8-9.1.3.4-3.3,5.8-8.8,9.5-9.6,1.4-.3,3.6,0,4.1-1.3,2.3-6.4,9.1-7.1,13.2-11,4.4-5.1,9.7-8.9,16-11.5,1.3-.5,2.6-.5,3.8-.9,4.5-1.2,9.6-3.1,12.4-5.7,5.1-4.5,9.8-7.7,16.6-7.4Z"/>
        <path class="cls-185" d="M266,68.1c-3.4,2.1-8.2.7-11,4.9-.7,1.2-6.3-1.2-2.9,3.8-2.6-.3-4.2,2.9-6.9,1.9-1.3-.5-3-1-3.1,1-.2,3.9-2.4,3-5.1,3.1-4.8.3-9,2.8-12.8,5.6-2.3,1.6-4.2,3.8-6.2,5.7-3.5,1.7-7.3,1.6-11,2.2-3.5.6-7,1.8-10.1,4-2.4,1.7-4.9,2.8-7.9,1.2-1.4-4,2.6-3.1,4.4-4.7-2.5-1.1-6.2-1.3-4.8-5.6,4.7-5.2,11.8-5.5,17.6-8.2,10.8-5,21.7-9.5,31.2-17,3.4-2.7,7.6-4.5,11.3-7.2,1.6-1.1,1.5-3.2,3.3-3.7.3,0,.6,0,1,0,1.1,2,3.4,2.6,5,4,1.3,1.7,2.7,3.3,4,5-.5,1.8.9,1.8,2,2,1,.4,1.6,1,2,2Z"/>
        <path class="cls-169" d="M300.9,93.3c.8.9,1.6,1.8,2.3,2.7-1.3,1.2-2.6.6-3.6-.2-7.6-5.9-15.3-11.6-22.9-17.6-.5-.4-.8-1-1-1.7.1-.2.2-.4.4-.6,2.4-.4,3.7,1.9,5.8,2.4,6.3,5,12.7,10,19,15Z"/>
        <path class="cls-122" d="M269.1,73c.3-.5.6-.9.9-1.4.7.4,1.4.9,2.1,1.3.7,1.5,2.5,2.8,1.3,4.9-3.8.6-3.5-2.6-4.3-4.8Z"/>
        <path class="cls-169" d="M273,77.8c-.3-1.6-.7-3.3-1-4.9,1.4.9,3.3,1.2,4.1,3,0,0-.2.3-.2.3-.5.7-1,1.5-1.8,1.9-.4.2-.8.1-1.2-.2Z"/>
        <path class="cls-92" d="M264,66.1c-.5.8-1.3.9-2,.3-.8-.7-1.1-1.5,0-2.3.7.7,1.3,1.3,2,2Z"/>
        <path class="cls-85" d="M268.1,65.9c-.4-.5-.8-.8-.9-1.1,0-.4.2-1.1.4-1.2.7-.3,1.2.3,1.1.9,0,.4-.4.7-.7,1.3Z"/>
        <path class="cls-85" d="M278,59.1c2-1.5,4-1.5,6,0-2,0-4,0-6,0Z"/>
        <path class="cls-160" d="M273.9,78.1c.1-1.2.6-2.1,2-2,7.8,6,15.6,12,23.4,18,1.2.9,2.2,2.1,3.9,1.8,5.9,4.1,10.2,9.8,15.7,14.3,6.7,8.2,13.5,16.5,20.2,24.7,3.9,2.4,5.9,6.5,8.2,10.2,1.8,2.9,3.5,5.9,5.4,8.8,4.5,7.9,8.3,16.1,12.1,24.3,3.8,8.6,6.3,17.7,9.3,26.7,4.8,17.8,5.7,36,5.1,54.3-.2,4.1-.8,8.2-1.4,12.3-1.4,1.9.1,4.8-2.3,6.4-.6,2.7-1.2,5.4-1.8,8.1,1.3,5.3,5.3,9.1,8.2,13.4,4.7,7.2,8.7,14.8,12,22.7,2.2,4.7,3.5,9.7,5.1,14.6,3.9,14.1,5.6,28.3,1.7,42.7-1.8,3.2-4.1,2.6-5.7.2-2.5-3.8-5.6-7.3-7.5-11.5-5-7.6-12.3-12.1-20.7-14.7-17.8-5.4-34.6-1.2-50.3,7.4-10.3,5.6-20.8,10.7-32,13.6-9.9,2.6-20,4.2-30.3,5.2-10.9,1.1-21.6-.2-32.3-.4-9.4-.2-18.6-2.9-27.9-4.8-10.5-2.2-20-7.4-30.3-10.2-2.2-.7-4.4-1.5-6.6-2.2-13.4-4.7-25.4-12-37.1-19.8-3.8-2.6-7.9-4.7-11.5-7.7-.4-.6-.7-1.2-1-1.9-2.3-4-6.4-6.2-9.7-9.2-13.9-12.4-26.5-26-37.6-41-1-1.3-2.5-2.9-1-4.4,1.4-1.4,3.1,0,4.5.8,2.7,1.6,5.4,3.3,8.5,4,4,1.1,7.1,4,10.9,5.4,5.6,2.7,10.9,6,16.9,8,5.1,1.9,10,4.2,15.2,5.7,4.3,1.4,8.4,3.2,12.9,3.9,4.2,1,8.4,2.2,12.7,2.9,1.5.2,3,.9,4.6.9,3.4.5,6.8,1.1,10.3,1.4,1.9.7,3.8.6,5.7.6,11.5,2.1,22.9.3,34.3-.3,15.8-2.9,31.5-6.1,45.8-14,5.4-2.9,5.7-3.8.9-7.9-1.5-1.3-3.1-2.5-4.3-4.1-1.3-2.2-2.9-3.8-5.4-4.7-.6-.3-1.1-.8-1.6-1.3-.3-.3-.6-.7-.8-1.1-3.8-4.5-8.3-8.1-13.1-11.3-2.8-1.1-5.1-3-7.3-5.2-1.9-2.9-5.3-4.2-7.2-7.1-2.1-3.6-6.1-5.2-8.7-8.2-3.3-4-7.7-7-10.9-11.1-2.1-3.5-5.4-5.9-8.1-8.8-3.4-3.7-7.3-6.8-10.3-10.8-2.5-3.7-6.3-6.2-8.9-9.9-.8-1.3-2.1-2.1-3.1-3.3-2-2.3-3.6-5-5.8-7.1-3.7-4.1-7.4-8.3-10.8-12.7-1.1-1.6-2.6-2.8-3.8-4.3-.7-1-1.3-2-2.4-2.7-.9-.6-1.6-1.4-2.3-2.2-1.2-1.3-2.3-2.6-3.1-4.2-2.6-4.5-6.5-7.9-9.4-12.1-2.5-3.5-5.4-6.6-8.1-9.9-2.2-3.4-5.5-6.1-7.2-9.9-.7-2-2.2-3.4-3.3-5.1-1-1.6-2.3-3.2-3.1-5-.3-.8-.5-1.6.2-2.3.7-.7,1.5-.3,2.2.2,1.4.9,2.5,2,3.9,2.9,2.2,1.6,3.7,4,6.4,4.9,5.5,2.9,9.6,7.7,14.6,11.2,1.8,1.4,3.3,3,5.2,4.1,2,1.8,4,3.5,6.2,5,3,2.7,6.5,4.8,9.1,7.9,1.2,2,3,3.2,4.8,4.5.4.2.7.5,1.1.8,1.2,1.2,2.6,2.2,4.2,2.6,3.4,1.4,5.9,4,8.9,6,5,3.6,9.5,7.8,14.9,10.9,4.5,3.5,9.3,6.6,13.9,10.1,2.7,2.1,5.4,4,8.1,6.1,7.2,4.6,14.4,9.1,21.4,13.8,1,.8,1.8,1.8,3,2.3.1.1.2.2.2.2.2,0,.3,0,.3-.2,0,0-.1,0-.4,0-.7-.4-1.3-.7-1.8-1.2-7.8-8.5-14.9-17.5-22.8-25.8-3.3-5-8-8.7-11.3-13.6-2.4-3.6-5.3-6.7-7.9-10.2-4.4-4.6-7.8-10.1-11.8-15-.9-1.1-1.8-2.1-2.3-3.5-.4-2.2-1.6-4-3-5.7-6-7.3-11.2-15.1-17-22.5-.3-.3-.6-.7-.8-1.1-.6-1.5-1.6-2.8-2.6-4.1-.8-1-1.8-2.2-.6-3.4,1.1-1,2.1.2,3,.7.7.4,1.4.9,2,1.4.6.4,1,1,1.4,1.6,8.9,8.4,17.4,17.1,26.8,24.9,7,5.8,12.9,12.8,21,17.2,4.9,2.7,9,6.5,13.2,10.1,3.1,2.2,5.7,5.1,8.8,7.1,1.8,1.9,4,3.2,6,4.9.7.5,1.4,1,2.1,1.4,1.6,1.3,3.1,2.9,4.9,3.9,1.7,1.3,3.2,3,5.1,4,4.4,3,8.3,6.7,12.9,9.7,1.1.8,2.3,1.5,3.3,2.3,2.5,2.5,5.7,4.2,8.7,6.1,1.8,2,4.1,3.2,6.2,4.8,2.2,1.9,4.7,3.3,7.1,5,1.9,1.7,4.3,2.7,6.4,4.1,4.7,3.4,9.5,6.7,14.5,9.6,4.5,2.5,5.1,2.3,6.7-2.4,3-9,5-18.2,6-27.7.8-6.3.2-12.5.2-18.8,0-4.8.6-9.6-.5-14.3-.5-2.3,0-4.8-.7-7.1-.2-.5-.3-1-.4-1.5-.8-7.4-3.6-14.3-5.2-21.5-.2-1.2-.4-2.4-.8-3.6-.4-2.1-2.2-3.8-2.2-6.1-.4-4.5-3.5-8.1-3.9-12.6-.3-6.5-3.8-12-6.7-17.3-3.7-6.5-6.9-13.5-11.9-19.3,0-.2-.2-.4-.3-.7Z"/>
        <path class="cls-2" d="M351.8,154.3c-4.3-6.4-8.5-12.8-12.8-19.3.3-.3.6-.7.9-1,.3-.4.6-1.1,1-1.1,6.7.1,12.6-3.6,19.4-3.6,33.3.1,66.6,0,99.9,0,2.6,0,5.4-.4,7.6,1.6,0,6.7,0,13.3,0,20-3.2,1.9-6.7,1.6-10.2,1.6-32,0-64.1,0-96.1,0-3.4,0-6.6.2-9.7,1.7Z"/>
        <path class="cls-101" d="M351.8,154.3c-.1-3.1,1.9-3.3,4.3-3.3,9.7,0,19.3,0,29,0,25,0,50,0,74.9,0,2.6,0,5.2-1,7.9,0,0,6,0,12,0,18-2.4,2-5.4,1.5-8.1,1.6-29,0-58,0-86.9,0q-6.2,0-7.9,6.2c-.2.7-.6,1.2-1.1,1.6-4-8-8-16-12-24.1Z"/>
        <path class="cls-165" d="M467.9,227c0,9.3,0,18.7,0,28-2.6-.4-2.3-2.6-2.5-4.2-.3-2.9-1.6-3.8-4.6-3.7-24.7,1-49.4.3-74.2.4-6,0-6.6-.7-7.4-7.4,0-4.5-3.2-9.2,1.3-13.3,2.2-1.4,4.8-1.4,7.2-1.4,24.5,0,48.9,0,73.4,0,2.3,0,4.7-.2,6.6,1.6Z"/>
        <path class="cls-99" d="M467.9,195c0,3.7,0,7.3,0,11-7.6-2.1-15.4-1.3-23.1-1.4-21.9-.2-43.7.3-65.6-.3-.5,0-1-.2-1.5-.5-1.7-1-2-3.9-4.7-3.7-1.9-3.8-4.1-7.6-3.2-12.2.7-.5,1.7-.4,2.3-.9,3.6-3,6.4-2.1,10.3.3,4.3,2.6,10,2.2,14.8-.4,2.6-1.4,4.7-2,7.3-.1,2.8,2.1,5.9,2.1,8.8,0,2.5-1.7,4.8-1.9,7.3,0,2.9,2.1,5.9,1.9,8.8,0,5-3.1,10-3.2,15,0,4.1,2.6,8.7,2.3,13,1.1,6.9-1.9,7.2-2,9.4,4.8.3.8.6,1.6,1.2,2.2Z"/>
        <path class="cls-131" d="M376.9,203c27.7,0,55.4,0,83.1,0,3.2,0,5.8.4,7.8,3,0,4.3,0,8.7,0,13-3.7,2.2-5.6.7-6.3-3.1-.3-1.7-.5-3.4-2.9-3.3-2,0-3.7.7-4.1,2.9-.7,4.3-3.7,5.1-7.3,5-4.3,0-8.7,0-13,0-3.4,0-6.3-.7-6.9-4.8-.2-1.4-.8-2.6-2.6-2.5-1.4,0-2,1.2-2.2,2.3-.7,4.3-3.8,4.9-7.4,4.9-9.6,0-19.3,0-28.9,0-2.3,0-4.7,0-6.3-2.3-3.2-2.7-5.6-5.8-5.1-10.4.2-1.8.5-3.6,2.1-4.8Z"/>
        <path class="cls-73" d="M369.9,188c.5,4.3,1.3,8.4,4,12,.9.8.9,1.8.6,2.8-.4.7-.9,1.2-1.7,1.4-3-8.6-6-17.3-9-25.9,0-1.5.6-3.2,0-4.4-2.3-5.3.7-5,4.4-4.9,33.2.1,66.4,0,99.6,0,0,5,0,10,0,15-.5.4-1.2.8-1.8.6-12.6-4-25.4-3.6-38.2-2.3-5.4.5-10.6-.9-15.9-.9-11.3,0-22.5,1.7-33.8-.5-5.9-1.1-8.8,2.1-8.2,7.1Z"/>
        <path class="cls-77" d="M467.9,281c-.6-.5-1.8-.9-1.9-1.5-1.1-6.6-6.1-5.5-10.6-5.5-22.9,0-45.8,0-68.7,0-3.1,0-6.5,1.6-8.8-2-.1-.2-.3-.5-.4-.7.2-2.9-.8-6,1-8.7,1.4-1.7-1-4.8,2.3-5.8,2.7,2.4,5.9,2.6,9.3,2.6,21.1,0,42.2,0,63.3,0,4.9,0,10-.1,14.5,2.5,0,6.3,0,12.7,0,19Z"/>
        <path class="cls-198" d="M467.8,131c-36.4,0-72.7,0-109.1,0-2.7,0-5.3-.2-7.5,1.7-3.4,2.9-7.6.1-11.3,1.3-.8-3.4-3.8-5.3-5.2-8.2,2.6-3,5.6-3.2,9.3-2,3.9,1.3,7.8-.9,11.8-.8,34.7.1,69.5,0,104.2.1,8.5,0,8-1.6,7.9,8Z"/>
        <path class="cls-82" d="M380.9,217c.4,2.5,2.3,2,3.9,2,10.7,0,21.3,0,32,0,2.8,0,4.5-.6,4.2-3.8-.3-2.9,1-4.3,4.1-4.2,3.2,0,4.1,1.7,3.9,4.4-.3,2.9,1.2,3.7,3.9,3.6,5.3-.1,10.7-.1,16,0,2.8,0,4.4-.5,4.2-3.8-.3-6.5,5.1-3.9,8-4.5,3.5-.6,1.9,2.9,1.8,4.3-.2,4.2,2.2,4.1,5.1,4,0,2.7,0,5.3,0,8-26.5,0-53.1,0-79.6,0-2.8,0-5.6.2-8.3,1-1.1-2.4-3.2-4.4-2.9-7.3.2-2.4.5-4.8,3.9-3.7Z"/>
        <path class="cls-71" d="M369.9,188c-3-.9-2-3.3-1.9-5.2,0-2.6,2.3-1.4,3.5-2,5.9-3.3,11.6-.6,17.3.1,4.9.7,9.5-1,14.3-.9,14.5.3,29,.6,43.6,0,5.1-.2,10,1.9,15.3.5,2.3-.6,2.8,4.2,5.9,3.5,0,3.7,0,7.3,0,11-2.3-.4-2.5-2.2-3-4-.8-3.1-1.8-4.2-5.5-2.5-5.3,2.5-11.1,2.9-16.4-1-3.7-2.7-8.1-2.7-11.6-.2-4.5,3.2-8.4,3.8-12.5,0-1.4-1.3-2.4-1.3-3.8,0-3.9,3.6-8,3.7-12,.1-1.6-1.4-2.6-1.2-4.2,0-5.7,4.2-15.1,3.5-20.3-1.3-1.3-1.2-2.6-1.4-3.1.2-1.2,3.4-3.2,2.6-5.4,1.5Z"/>
        <path class="cls-20" d="M379.9,257c-.3,2,.8,4.2-1,6-.9-8-.5-16,1-24q2.5,7,11.1,7h60.9c.7,0,1.3,0,2,0,3.9.7,7.8-2.1,11.3-.7,4.2,1.7,0,6.9,2.7,9.7,0,1,0,2,0,3-2.1,2.4-4.5,2.1-6.7.6-2.6-1.9-5.5-2.1-8.5-2.1-14.6,0-29.3,0-43.9,0-4.8,0-9.7.5-14.3-1.6-.8-.3-1.7-.5-2.4-.2-3.8,2-8.2,1.2-12.1,2.3Z"/>
        <path class="cls-66" d="M379.9,257c.2-1.2-.4-3.1,1.9-2.5,3.4,1,6.5.6,9.3-1.6,1-.8,2.2-1,3.2-.1,3.4,2.9,7.5,2.2,11.4,2.2,16.6,0,33.2,0,49.8,0,2.2,0,4.3-.5,6,2.2,1.3,2.1,4.1,1.5,6.4.8,0,1.3,0,2.7,0,4-27.4-2.1-54.9-.6-82.4-.9-3.4,0-4.4-1.8-5.5-4.1Z"/>
        <path class="cls-60" d="M62.1,426.9c-3.3,1.6-6.7,1.6-10,0h10Z"/>
        <path class="cls-60" d="M94.1,426.9c-3.3,1.6-6.7,1.6-10,0h10Z"/>
        <path class="cls-60" d="M126,426.9c-3.3,1.6-6.7,1.6-10,0h10Z"/>
        <path class="cls-60" d="M158,426.9c-3.3,1.6-6.7,1.6-10,0h10Z"/>
        <path class="cls-60" d="M286,426.9c-3.3,1.6-6.7,1.6-10,0h10Z"/>
        <path class="cls-60" d="M189,427.9c-3-.4-6.2,1-9-1,3,.4,6.2-1,9,1Z"/>
        <path class="cls-133" d="M21.1,382.9c-2.8-.2-5.8.7-8.4-1.5-1.2-1-2.4,0-3.6.5,0-1.3,0-2.7,0-4,1-1.4,2.6-2.1,4-3,56.7,0,113.3,0,170,0,0-.5,0-1,0-1.4-1.4-.5-2.9-.8-4-1.7-.7-.6.6-.7,1.1-.9,3-1,5.4.7,8.1,1.5,18.9,5.2,38.2,7.5,57.7,7.1,4,0,7.9-.6,11.9-.5,2.3.8,5.6-1.8,7.1,2-6.6,1.9-13.3.6-20,1-8,1.3-16,2.9-24,0-3.1.9-5.1-2.4-8-2-3.4,1.7-6.8,3.3-10.4,4.2-1.9.5-3.9.3-5.6-1.2h-8c-8.1-2.7-16-.7-24,.8-2.8.5-5.5,1.2-8-.8h-8c-2.6,2.1-5.6,1.5-8.3.6-2.6-.8-5-1-7.6-.6h-8c-2.1-.3-4.3-.7-6.4.2-3.7,1.5-7.5,1.5-11.2,0-2.1-.9-4.3-.5-6.4-.2h-8c-2.1-.3-4.3-.7-6.4.2-3.7,1.5-7.5,1.5-11.2,0-2.1-.9-4.3-.5-6.4-.2h-8c-2.5-.3-4.9-.5-7.3.6-.6.3.2.2-.5.1-8.1-.2-16.1.7-24.2-.7h-8Z"/>
        <path class="cls-13" d="M399.7,379.9c3.7-13.4,1.8-26.6-1.2-39.8-.3-1.3-.5-2.6-.8-3.9-.5-5.1-.4-5.2,3.9-3.1,2,1,3.8,1,5.8.4,7.8-2.3,15.7-1.6,23.7-1.6,7.6,0,15.2.9,22.8-.2,5.8-.8,11,0,13.8,6.1,0,5.4,0,10.7,0,16.1-3.4,1.9-6.8.2-10.2,0-16.4-1.1-32.7,0-49.1,0-5.1,0-4.7,3.6-4.6,7-.1,5.4.7,10.9-2,16,0,1,0,2,0,3-.7.6-1.5.5-2.2,0Z"/>
        <path class="cls-6" d="M399.7,379.9c.7,0,1.5,0,2.2,0,.5,1.3,1.1,2.6-1.2,2.5-1.6-.1-3.2-.3-4.8-.5-4.4-5-10.1-5.7-16.5-5.6-25.1.3-50.2.1-75.3.1-3.3,0-6.7.2-9.2-2.7-.4-.4-.7-.8-1-1.3-.3-.9,0-1.6.9-1.9,5.1-1.8,9.8-4.6,15-6.3,3.2,1,5.5.3,7.7-2.4,2.2-2.6,5.2-4.3,8.5-.7,1.1,1.2,2.8,1.5,4.6,1.4,9.9-.8,19.8,0,29.6-.7,1.2,0,2.4-.1,3.4.5,1.9,1.2,3.4.8,4.7-.8,1.9-2.3-.4-3.1-1.4-4.4-.2-.2-.2-.6-.2-.9.9-1,2.2-1.1,3.4-1,.5,0,.9.2,1.4.4,1.3,2,3.5,2.7,5.3,4,.3.3.6.7.8,1.1,1,2.9,3.5,3.9,6.2,4.3.7,0,1.4.2,2.1.4,1.4.6,2.3,1.7,2.8,3,2.4,3.7,4.9,7.4,7.1,11.2,1.2,2.1,2.3,1.9,3.8.5Z"/>
        <path class="cls-133" d="M295,372c2.1,2.9,5.1,3,8.3,3,26.1,0,52.1.3,78.2-.3,6.7-.1,11.5,1,14.4,7.2-3.2-1.1-4.3.6-6.2,3.1-1.6,2.1-6.3,2.1-8.1,0-2-2.3-3.9-2-6.1-2-31.5,0-63-.1-94.5,0-4.8,0-9.2-3.3-14-1.1-1.2-2.3.3-2.9,2-3.4,3.9-1.2,8-1.8,11.8-3.3,4.6-1.7,8.3.5,11,2.9-.6-.2-1.9-.9-2.2-2.7.3-1.3,1.5-1.5,2.4-2.3.8-.9,2.1-.5,3-1.2Z"/>
        <path class="cls-119" d="M157,382.9c8.2-.9,16.5-1.4,24.5-3.6,3.5-1,5,2.4,7.5,3.6.2,3.1-1.4,4.1-4.3,4-7.5,0-15,0-22.4,0-2.9,0-4.8-.9-5.3-4Z"/>
        <path class="cls-119" d="M29.1,382.9c3.4,0,7.1-1.4,10.1-1.1,7,.5,13.7.8,20.6-.7.8-.2,1.2,1,1.3,1.8.2,3.1-1.4,4.1-4.3,4-7.5,0-15,0-22.4,0-2.9,0-4.8-.9-5.3-4Z"/>
        <path class="cls-119" d="M69.1,382.9c1.3-3.6,4.1-2.1,6.1-1.3,4,1.7,7.8,1.7,11.8,0,2-.8,4.8-2.3,6.1,1.3.2,3.1-1.4,4.1-4.3,4-5.1,0-10.3,0-15.5,0-2.9,0-4.5-1-4.3-4Z"/>
        <path class="cls-119" d="M101.1,382.9c1.3-3.6,4.1-2.1,6.1-1.3,4,1.7,7.8,1.7,11.8,0,2-.8,4.8-2.3,6.1,1.3.2,3.1-1.4,4.1-4.3,4-5.1,0-10.3,0-15.5,0-2.9,0-4.5-1-4.3-4Z"/>
        <path class="cls-119" d="M197,382.9c3.5-.2,7.2.8,10.2-2.4,1.4-1.4,3.8-.5,5.8-.6-.1,2.7.7,5.9-3,6.9-5.8,1.6-11.3-.2-13-3.9Z"/>
        <path class="cls-119" d="M133,382.9c1.1-3.3,3.8-2.4,5.6-1.5,3.4,1.7,6.9,1.5,10.4,1.5-.4,2.8-2.1,4-4.8,4-2.5,0-5,0-7.5,0-2.8,0-3.9-1.4-3.8-4Z"/>
        <path class="cls-6" d="M290,375c1.1,2.3,2.9,3.4,5.5,3.1-2.2,1.2-4.4,1.5-6.2-.3-2-2.1-4.6-2.2-6.9-1.6-4.8,1.3-9.4,3.4-14.5,3.7-.4,0-.6,1.4-.9,2.1-.8,0-1.6-.2-2-1-2.2-2-4.8-.5-7.2-1.1,0-1.1.8-1.3,1.7-1.4,9.4-.8,18.6-3.2,27.8-5.3,1.2.1,2.1.7,2.8,1.8Z"/>
        <path class="cls-119" d="M221,381.9c8,0,16,0,24,0-2,3.4-5.3,1.5-8,2-1.1,0-2.1.2-3,1-2.9,0-5.9,0-8.8,0-2.1,0-3.2-1.3-4.2-3Z"/>
        <path class="cls-119" d="M260.4,385.3c-1.3,1.2-2.3,2.1-3.7,1.2-.2-.1-.3-.7-.1-.8,1-.9,2.1-.7,3.8-.3Z"/>
        <path class="cls-133" d="M234,384.9c.8-1.1,1.3-2.8,3-1-.7,1.2-1.9,1-3,1Z"/>
        <path class="cls-180" d="M227,24.1c-2.2-1.3-4.5-2.4-7-3-2.3.3-3.2-.8-3-3q-.8-5,5.8-5c11.8,0,23.6.1,35.4,0,9-.1,17.9.4,26.8,1,1.8,2.7,4.2,3.8,7.5,3.6,3.3-.2,6.6,0,9.9,0,2,0,3.9-.3,5.6-1.7,3.3-2.7,6.4-2.2,10-.1,6.3,3.6,13.2,1.6,19.8,1.3,1.6,0,1.9-2.2,3.1-3h8c4,5.3,11.4,5.3,16,0h8c4,5.2,11.7,5.2,16,0,2.7,0,5.3,0,8,0,.4,4.8,2.3,5.8,6.7,4.6,5.3-1.5,10.5-.5,14.9,2.7,1.9,1.3,3.3,2,5.3.8,0,.3,0,.6,0,.9-.9,2.9-2.1,4.7-5.4,2.3-2.1-1.6-4.7-1.3-7.2-1.3-27.3,0-54.5,0-81.8,0-22.7,0-45.4.3-68.1-.1-8.2-.1-16.5-.8-24.7.1-1.9.2-3.8-.3-5.6,1.4-1.8,1.8-2.4-2.2-4.2-1.4Z"/>
        <path class="cls-159" d="M217,18.1c.7,1.3,1.7,2.3,3,3,0,.3,0,.7,0,1-1.1,1-2.2.5-3.3.1-2.6-.9-4.6,0-6.2,1.9-2.5,3.1-5.6,4.5-9.6,4.3-1.2,0-2.4.1-3.3.9-5.1,4.2-11.8,5.1-17.2,8.8-1.5,1-3.3,1.6-5.1,2-5.2,1.2-11,1-15,5.6-.7.8-2.2.7-3.3.7-2.8,0-5.6.1-8.5.3-2.7-.4-5.3-.7-7.7,1-1.5.6-3,.6-4.5-.1-.9-.5-1.6-1.2-2.4-1.7-1.4-.9-2-2.2-1.5-3.9.6-2,2.3-2.2,4-2.1,3,.1,5.6,1.8,8.7,1.8,3.3,0,5.8-.6,8.3-3.3,4.1-4.6,8.4-8.9,15.2-10.5,4.1-1,7.5-4.6,11-7.2,1.7-1.2,3.4-2.6,5.1-3.8,1.5-2.6,3.3-4.9,6.7-5,.5,0,1,0,1.4-.4,3.6-4,6.7-5.2,11.2-4.5h0c2.2,1.4,3.7,3.7,6,5,2.9,1.3,3.5,5.4,7,6Z"/>
        <path class="cls-17" d="M204,7.1c-3.3,1.1-6.6,2.7-10.1,2.2-.7,2.6,2.7,1.1,2.4,3.4-3.7,1.1-9.4-1-10.3,5.4-6.6,1-13,2.6-18.6,6.7-3,2.2-6.1,4.1-10,2.5-1.4-.6-2.3.2-2.7,1.4-1.2,3.3-3.8,3.9-6.8,3.7-3.8-.2-7,.8-10.1,3.2-2.4,1.9-5.4,3.4-8.8,2.1-1.6-1.2-4-1.4-4.8-3.7.5-5.3,2.7-7.8,8.1-8,4.1-.1,6.6-1.6,9.3-4.9,3.4-4.1,8-7.9,14.4-6.8,4.4.7,8.6-.4,12.6-2,.9-.4,2.1-.6,2.4-1.6,1.7-6,6.7-5.1,11-5,3.6,0,7.3-.5,10.9,0,1.6.3,2.9-.3,4.1-1.4,2.8-.2,5.6-.2,7,3Z"/>
        <path class="cls-80" d="M197,4.1c-.4,3.5-3,3.1-5.3,2.9-5.2-.4-10.4-.3-15.6,0-1.1,0-2.3-.1-2.9,1.3-.6,1.5.7,3.9-1.9,4.6-4.9,1.1-9.6,3.7-14.8,2.7-3.2-.6-5.1.4-8.1,2-4.1,2.2-6.3,4.7-8.4,8.4-1.3,2.2-4.7.8-7.1.9-4.6.2-7.6,2-7.9,7-1.1,2.4-3.4,2.3-5.6,2.4-4,.1-7.9,0-11.9,0-2.5,0-4.6.6-6.1,2.7-5.5,1.9-11.1,3.9-16.9,1-1-.5-2.1-.9-2.5-2.1,3.9-1.8,7.8-3.6,12.2-3,4.6.7,6.7-3.3,9.7-5.3,6.1-3.9,13.3-3.2,19.6-5.7,6.4-2.5,13-4.7,19.3-7.2,4.5-1.8,10.8-3.4,13.5-9.2.6-1.4,3.1-.7,4.7-.6,2.5.2,4.2-.6,5-3,10.3,0,20.7,0,31,0Z"/>
        <path class="cls-180" d="M341,14.1c.6,3.8-.8,5.4-4.9,5.1-4.1-.3-8.3,0-12.4,0-2.8,0-5.3.2-7.4-2.7-1.6-2.3-5.1-2.2-6.8.4-1.7,2.4-3.7,2.4-6,2.4-4.5,0-9-.3-13.4,0-4.1.3-5.5-1.2-4.9-5.1,1-1.2,2.4-1,3.7-1,16.2,0,32.4,0,48.7,0,1.3,0,2.7-.3,3.7,1Z"/>
        <path class="cls-180" d="M364.9,14.1c.5,4-1.5,5.4-5.2,5-2-.2-4-.2-5.9,0-4.1.5-5.4-1.3-4.8-5,5.3-1.6,10.7-1.6,16,0Z"/>
        <path class="cls-180" d="M388.9,14.1c.4,3.7-1.6,5.2-5,4.9-2-.2-3.9-.1-5.8.1-3.8.4-5.7-1-5.2-5,3.1-1.9,6.4-1.2,9.6-.5,2.2.4,4.3.5,6.4.5Z"/>
        <path class="cls-17" d="M210,12.1c-3-.5-4.4-2.9-6-5,3,.5,4.4,2.9,6,5Z"/>
        <path class="cls-13" d="M109.1,334c15.8,9.6,31.2,20.1,48.1,27.9-1.7,0-3.4,0-5.1,0-3.4-3.7-8.9-3.5-12.7-6.5-7.7-6.1-17.7-6-25.5-3.8-10.9,3.1-21.5,2.9-31.9,1.8-8.8-.9-16.9-2.4-25.7.2-4.6,1.4-9.8-.6-14.8-2-7.9-2.1-16.6-1.4-24.8-.2-3.4.5-6.1,5-10.5,2.5,0-6,0-12-.1-18.1,2.9-3.6,7.1-4.3,11.2-4.4,7.1-.2,14.3-.6,21.4.6,4.2.7,8.3-1.1,12.4-.7,9.6.9,19.2,0,28.8.7,4.8.4,9.6-.9,14.4-.8,5.1,0,10,.5,14.6,2.6Z"/>
        <path class="cls-43" d="M288,373.9c-10.1,2-20.1,4-30.2,5.9-26.4,1.9-52.3-1.4-77.6-9-.8-.9-1.9-1-3.1-1.1-1.1.1-2.2.3-2.9-.9-3.5-1.6-7-3.2-10.5-4.8,5.7-.4,10.3,3.1,15.5,4.6,16.6,4.7,33.2,9.2,50.7,9.5,8.4.2,16.8.6,25.2-.1,12.7-1.1,25-3.8,37.1-7.6,11.8-3.7,21.7-11.1,33.1-15.4,21.2-8,44.2-8.5,61.1,9,1.1,1.2,2.6,2.2,2.4,4.1-.9-.8-1.8-1.5-2.7-2.3-3.3-1.5-5.9-4-8.7-6.3-1.8-1.2-3.9-2-5.6-3.6l-.3-.2h-.4c-4.7-1.4-9.5-2.3-14.4-2.9-3.3-.8-6.6-.8-9.9,0-3.1.4-6.2.5-9.2,1.4-7.7,2.2-15.7,3.7-22.3,8.8-1.6,1.2-3.6,1.5-5.5,1.8-5.4,2.3-10.8,4.6-16.2,6.9-.9,1-2.1,1.5-3.3,2-.8,0-1.6.8-2.5,0Z"/>
        <path class="cls-119" d="M13.1,375c-.9,1.6-2,2.9-4,3-.3-3.2,1.9-3.1,4-3Z"/>
        <path class="cls-133" d="M174.2,368.8c1.1,0,2.1,0,2.9.9-1.4,2-2.9,1.1-4.1,0-.5-.5.7-.6,1.2-.8Z"/>
        <path class="cls-18" d="M467.8,338c-.6,0-1.7,0-1.9-.3-3.2-6-8.3-4.9-13.5-4-1.3.2-2.7.6-3.9.3-5.1-1.1-10-.9-15.2,0-3.1.5-6.5-.5-9.8-.9-5.4-.6-10.7.2-15.5,2.2-4.2,1.7-6.6-.2-9.3-2.6-1.3,1.2-.6,2.6-.9,3.8-1.6-4.8-3.3-9.5-4.9-14.3-.9-1.5-.3-2.9.3-4.4,2.5-6.9,7.5-8.5,14.4-8.3,15.6.5,31.2.2,46.7.1,3.8,0,7.7.5,10.7-2.7.7-.7,1.9-.4,2.7.2,0,10.3,0,20.7,0,31Z"/>
        <path class="cls-9" d="M393.9,319c-.3,1-.7,2-1,3-5.5-11.1-11.2-21.9-19-31.6-1.2-1.5-1.3-3-.1-4.5.8,0,2.1,1.9,2.5-.3.4-2.4,2.4-2.1,3.8-2.2,1.6-.1,1.6,1.8,2.2,2.9,1.1,2.2-.6,2.4-1.9,3.1-1,.5-1.5,1.3-1,3,4.6-2.8,8.8-2.4,12.4,1.7,1,1.2,2.2.5,3-.5,2.1-2.9,5.1-2.7,8.1-2.7,17.5,0,34.9,0,52.4,0,2.4,0,5.1-.6,7,1.7.2.2.5.5.8.5q4.9.8,4.9,6.7c-2.3,1-4.6.2-6.9.3-2.9,0-5.3.4-7.7,2.5-2.7,2.4-6.3,2.4-9-.4-2.3-2.3-4.1-2.3-6.4-.1-3,2.8-6.5,2.7-9.5.5-2.7-2-4.4-1.8-7,.1-2.9,2.2-6.3,2.1-9.2-.2-2.1-1.7-3.8-2.1-6.1-.2-3.4,2.7-7.1,2.5-10.5-.2-1.5-1.2-3.1-1.9-5-1.7-3.2.4-3.3,1.4-2,4.2,2.1,4.6,3.7,9.5,5.4,14.3Z"/>
        <path class="cls-151" d="M393.9,319c-3-1.1-2.4-4.3-3.9-6.4-2-2.7-1.2-7-4.6-9.2-1.7-1.1-1.1-1.8.6-2.7,3.8-2,7.1-3.1,10.7.6,2.6,2.8,6,2.6,8.6-.2,2.5-2.6,4.5-2.9,7.1-.2,3,3.2,6.3,3.1,9.3-.2,2.3-2.6,4.4-2.3,6.7.1,2.9,3,6.1,2.8,8.9-.4,2.1-2.5,5.9-2.3,7.7.5,2,3.2,5.8,2.7,7.2,1.1,4.8-5.9,10.4-2.8,15.8-2.3,0,2.3,0,4.7,0,7-.6,0-1.8,0-1.9.3-1.5,4.9-5.4,3.7-8.8,3.7-17.1,0-34.2,0-51.2,0-4.4,0-8.7-.6-9.9,5.3-.2,1-1.4,1.8-2.1,2.7Z"/>
        <path class="cls-77" d="M375.5,277.8c.5-1.9.9-3.9,1.4-5.8.3-.4.7-.4,1,0,0,0,0,0,0,0,0,1.6,0,3.3,0,4.9,0,2.1-1.4,1.2-2.4.9Z"/>
        <path class="cls-117" d="M82.1,38.1c6.2,3.5,12.6,1.2,19,1,.7,4.2-2.8,4.3-5.2,5-3.2.9-6.6.4-9.9.4-3.6,0-6.6.7-7.9,4.6-.7,2.1-2.5,3.5-4.6,3.2-7.4-1-12.8,3.8-18.9,6.4-1.9.8-3.5,2-5.5.4-2.6,0-5.2,0-7.8,0-2.9-.1-4.3,1-4.2,4-1.2.9-2.3,2.1-4,1-2.9-1.6-6.1-2.1-8.9-4.1-4-2.8-3.1,1.4-3.2,4.1-1.3-1.4-2-2.2-2.8-3,1.7-4.3,7-3.3,9.6-6.7,3.8-5.1,10.4-3.7,15.5-4.7,8.4-1.6,15.7-5.6,23.8-7.5,2.2-.5,4.2-1.3,6.7-.5,3.5,1.1,4.9-3.8,8.3-3.6Z"/>
        <path class="cls-60" d="M25.1,422.9c.2-1.7.8-3.1,2.7-3.2.6,0,.7.8.6,1.5-.2,2.3-1.7,2.2-3.3,1.7,0,0,0,0,0,0Z"/>
        <path class="cls-51" d="M65.1,98c.2-2.4-1.1-3.2-3.3-3-2.6.3-5.2-.3-7.7-1,2.2-4.1,4.9-6.8,10.3-6.3,2.5.2,6.2-1.4,5.7-5.7.1-3.7,3-4.3,5.7-4.7,1.6-.3,3.2-.3,4.8-.8,3.6.4,6.5-.9,9.8-2.3,4.9-2.1,10.3-3.4,15.6-4.3,6.1-1.1,12-2.7,17.7-4.8,3.7-1.3,7-1.6,10.4.5.7,1.6-.5,2.5-1.5,3.3-4.9,3.6-9.7,7.6-15.3,10.1-3.6,1.6-6,5.5-10.5,5.4-8.4-.3-16,1.9-23.1,6.5-2.1,1.3-4.3,1.7-6.7,1.6-3.3-.1-6.2,0-7.8,3.7-.6,1.5-2.2,2.5-4.2,1.9Z"/>
        <path class="cls-112" d="M80.1,77.1c-.1,1.1-.6,2.2-1.7,1.8-3.9-1.6-6.1.7-8.2,3.2-1.8-4-5.4-3.8-8.3-2.5-2.6,1.1-5,1.6-7.6,1.5-.7,0-1.7-.2-1.9.2-3.4,5.6-7.9,2.7-12.2,1.8,2.8-3.9,4.7-9,11-8,14-4.7,28-9.7,42.4-13.3,2.9,0,5.3-.9,7.8-2.5,4.8-2.9,10.2-2,15.4-.8,2.5,3.4,1,6-2.2,6.9-5.5,1.7-10.9,3.8-16.5,5.2-6.1,1.6-12.2,3.6-18,6.4Z"/>
        <path class="cls-51" d="M54.1,94q-2.2,6-7,3c.5-.8,1.1-1.6,1.6-2.4.7-1.1,0-3.1,2-3.5,2.4-.4,2.1,2.1,3.4,2.9Z"/>
        <path class="cls-18" d="M109.1,334c-.7,1-1.6,1-2.6.7-7.4-2.7-15-2-22.6-.8-2.1.3-4.3.3-6.4-.2-1.3-.3-2.7-.8-3.9-.6-10.3,2.3-20.7-1.2-31.2.6-6.1,1.1-12.8-.6-19.3-.8-6-.2-11.5.9-16.9,3.1,0-9.3,0-18.7,0-28,4.2-2.1,8.5-.4,12.7-.3,9.3.1,18.5,0,27.8,0,11.1-.1,22.2-.4,33.3,1,3.8.9,5.7,4.1,8.4,6.4,2.3,2.2,4.1,5,7.2,6.1,4.8,3.3,9.2,7.1,13.4,11.2,0,.5,0,1.1.1,1.6Z"/>
        <path class="cls-138" d="M6.1,299c0-6,0-12,0-18,1.4-6.8,6.1-7.5,12.1-7.3,5.8.3,11.6,0,17.4,0,3.3,0,6.5,0,9.8-1.2,3.7-1.3,8.2,1,9.1,4.8.8,3.3,2.9,4.1,5.5,4.9,2.6,1.4,4,4,5.6,6.2,3.6,5,7.8,9.4,11.8,14,1,1.1,2.4,2,1.8,3.8-.4.3-.9.4-1.4.4-5.7-2-8.1-7.5-12.4-11.5-4,4.2-10.3,3.9-14.8,7.5-1.1.9-3,.4-4.2-.5-5.8-4.5-11.6-2.2-17.3,0-2.2.8-4.1,1.4-6-.3-1.3-1.2-1.7-2.5.5-3.7-6,1.3-11.6,3.2-17.5,1Z"/>
        <path class="cls-47" d="M6.1,179c0-4,0-8,0-12,4.1-4.9,9.9-5.6,15.7-6.2,5.5-.6,10.7-1.2,14.2-6.7,1.7-2.7,6-2.5,8.9-4,9.8-2.3,19.7-3.9,28.8-8.8,3.4-1.8,7.8-2.8,11.8-.2.7,1.2.7,2.5.2,3.8-2.9,4-7.9,5.4-11.1,9-1.4,1.5-3.8.6-5.8.5-4.6-.4-8.5.5-11.2,4.7-1.2,1.9-3.1,3-5.4,3.2-10.1.5-18.3,5.3-25.7,11.7-5.7,6-12.7,7.1-20.4,5.2Z"/>
        <path class="cls-143" d="M6.1,154c0-5,0-10,0-15,11-2.2,21.3-6.9,32.2-9.4,4.5-1,8.8-2.6,12.7-5.4,3.7.2,7.4.8,11.1-.6,2.3-.9,4.5.2,6.3,1.7,1.3,3.6,4.7,4.4,7.8,5.6-.3,3.8-3.5,3.7-5.9,3.7-3.2,0-5.5,1.3-7.9,3.4-3.7,3.3-8.3,4.8-13.3,3.7-2.2-1.1-4.2,0-6.3.4-7.8,1.2-15.4,3.2-22.6,6.5-2.9,1.4-5.1,4.2-8.4,5.1-1.9.6-3.7,1.7-5.6.1Z"/>
        <path class="cls-151" d="M6.1,299c5.4-.4,10.8-.3,16-2,1.6-.5,3.9-2.2,4.5.3.6,2.5-2.6,1-3.9,2.3,1.1,2.2,3.2,3.5,4.9,1.8,4-4,9.2-1.5,13.5-3.3.6-.3,2-.1,2.4.4,3.7,4.3,6.7,3.5,11.2.3,3.2-2.2,8.4-1.6,10.6-6.2,3.7,5.2,7.6,9.9,12.6,13.5,1.4,1.1,3.4,1.6,3,4-13.1-.8-26.1-.7-39.3-.5-11.8.2-23.9.9-35.7-1.5,0-3,0-6,0-9Z"/>
        <path class="cls-77" d="M60.1,283c-3.5-.3-7.6.4-6.7-5.7.3-2.1-5.7-5.2-7.4-3.9-2.8,2.2-5.7,1.5-8.5,1.5-8.1.1-16.2,0-24.3,0-2.4,0-4.3,0-4.2,3.3,0,1.8-1.2,2.6-2.9,2.8,0-5.7,0-11.3,0-17,.4-2.5,1.5-3.6,4.5-3.9,10.3-.8,20.5-.6,30.8.1,2.2.2,3.7,1.6,5.1,3,2.3,2.9,5.8,4.6,7.4,8.1.7,1.6,1.7,3.1,2.9,4.4,1.2,2.4,3.2,4.4,3.3,7.3Z"/>
        <path class="cls-124" d="M6.1,154c4.3-1,9-1.4,11.3-6.1.5-1.1,1.7-1,2.6-.9,2.6.2,4.8-.2,6.3-2.7.6-1,1.9-1.3,3.1-1.3,5.9.2,11.4-1.7,16.9-3.6,1.4-.5,2.1.5,2.7,1.6,1.2,4.4-.7,7.4-4,10-4.2,2.3-9.1,3.6-11.8,8.2-1.4,2.4-4.1,1.6-6.4,2-7.2,1.2-14.5,1.7-20.8,5.8,0-4.3,0-8.7,0-13Z"/>
        <path class="cls-153" d="M65.1,98c1.8-1.3,4.2-2.1,4.1-5.1,0-1.5,1.1-2,2.4-1.9,5.9.6,10.9-1.3,16.2-4.1,5.7-3.1,12.4-5,19.3-3.9,1.6,2,2.3,4.3,1.5,6.9-3.7,2.7-7.6,4.6-12.4,5.5-5.3,1.1-11,2.1-15.7,5.5-.8.6-1.6,1.3-2.6,1.5-12.2,2.5-23.1,9-35.3,11.6-2,.4-3.9.6-5.5-.9-.8-4.7.9-6.8,5.8-6,3.4.5,6.7,0,8.9-2.9,3.4-4.4,8.4-5,13.3-6Z"/>
        <path class="cls-74" d="M6.1,179c3.1-.4,7.1-1.6,9.2-1.2,5.3.8,7.3-3.2,10.8-4.8,9.6-4.3,19.5-5,29.6-2.6,1.1.9,1.2,2.3.2,2.8-2.9,1.3-2.7,3.9-3,6.3-4.9,2.9-10.1,4.1-15.8,3.4-2.5-.3-4.5.5-6.4,2.1-6,5.1-14.1,5.6-20.9,8.9-1.2.6-2.6,0-3.7-.9,0-4.7,0-9.3,0-14Z"/>
        <path class="cls-147" d="M6.1,193c5.9.5,10.3-4,15.8-5,3.4-.6,6.5-2.3,9.1-5,1.6-1.7,4-2.4,6.8-1.4,3.7,1.3,7.5-.4,11-1.6,1.4-.5,2.7-1,4.2-1,1.7-1,2.3-.1,2.5,1.4-1.5,3.5-2.1,7.6-6.1,9.5-1.3,1.1-2.8,1.1-4.3.9-3.6-1-5.7,1-7.1,3.8-1.5,3-3.9,4.3-7.1,4.6-4.8.5-9.1,3.9-14.3,1.7-1.1-.5-2,.7-2.9,1.5-2.4,2.1-5,2.3-7.6.5,0-3.3,0-6.7,0-10Z"/>
        <path class="cls-121" d="M51.1,125c-4.7,5.7-12,5.7-18.2,7.6-6.4,2-12.9,3.6-19,6.4-2.8,1.3-5.2,0-7.7,0,0-3.7,0-7.3,0-11,1.6-1,3.4-1.2,5.2-1.2,3.7,0,7-1,10.3-2.7,3.5-1.8,7.4-2.7,11.4-2.4,4.3-.2,8.5.4,12.6-2.9,2.9-2.4,7.7-2.3,11.5-4,2.4-1.1,2.3,1.4,2.1,3,0,.3-.2.6-.2.9-.1,5.3-3.6,6.4-8,6.2Z"/>
        <path class="cls-189" d="M42.1,261c-5.1,1.3-10.2-.3-15.3,0-6,.3-12.1.4-18.1.4-1.9,0-1.2,2.2-2.5,2.6,0-6.7,0-13.3,0-20,2,0,1.4,1.5,1.4,2.5,0,3.6.1,7.2,0,10.9.2-3.8,0-7.6.1-11.5,0-2.5,1.5-4.5,3.6-2.9,4.5,3.5,9.2,2,13.9,1.5,4.7,0,6.3,4.4,9.4,6.7,2.4,3.3,6.8,5.1,7.6,9.8Z"/>
        <path class="cls-168" d="M6.1,203c2.8-.4,6.4,1.6,7.5-3.2.3-1.2,2-.7,3.1-.4,3.4,1,6.8,2.5,9.9-.9.7-.7,2.5-.4,3.8-.4,3.4,0,5.3-1.2,6.7-4.6,1.3-3.1,3.8-5.5,7.9-3.4-.7,1.3-2.7,2.2-.7,4.1,2.8,2.7,2.3,5.9,1.1,9.2-2,2.6-4.8,3-7.8,2.8-1.8-.3-3.1.8-4.6,1.6-2.2,1.3-4.5,2.4-7,2.3-8.6-.3-14.2,4.5-19.1,10.8-.2.2-.6.2-.9,0,0-6,0-12,0-18Z"/>
        <path class="cls-49" d="M6.1,221c2.5-6.8,10.1-11.9,17.7-12,3.9,0,7.5-1,10.4-3.7.9-.8,1.7-1.8,2.8-.3,2,5.2,1.6,5.8-5.3,8.1,0,1,.8,1.2,1.5,1.7,3,2.2,3,3.7-.6,5-2.9,1.1-5.2,2.8-7.5,4.6-2.4,2.4-5.1,4.3-8.8,3.7-2-.3-2.9,1.2-4.2,2.2-3.4-.2-4.3-3.1-6-5.3,0-1.3,0-2.7,0-4Z"/>
        <path class="cls-15" d="M33.1,123c-4.8-.3-9,1.1-13.1,3.5-4.3,2.5-9.1,1.7-13.8,1.6.5-2.7-2-8.1,4.7-5.2.1,0,.4,0,.5-.1,6-8.3,15.4-6.6,23.7-8.3.7-.1,1.3-.9,2-1.4h6c.6,2.3-.8,4.2-1.5,6.1-.7,1.9-2.2,3.1-4.3,2.3-2-.8-3.1.2-4.2,1.6Z"/>
        <path class="cls-36" d="M6.1,225c2.8.7,3.5,3.9,5.9,5,3.7,1.5,5.7,5,8.6,7.4,1.9,2.4,5.1,3.9,5.4,7.6-5.1,1.6-10,4-15-.8-2.4-2.3-2.8.7-2.9,2.4-.1,3.8,0,7.5-.4,11.3-1.7-4.5.6-9.5-1.7-13.9,0-6.3,0-12.7,0-19Z"/>
        <path class="cls-148" d="M93.1,63.1c-6.4,1.7-12.5,5.3-18.7,5.9-8.2.9-14.6,7.7-23.2,6.1,1.9-3.8,4.5-7.9-3-8.3,0,0,0-1.1,0-1.7,1.3,0,2.7,0,4,0,5.7-3,10.9-7.3,18.2-6.5,2.9.3,5.9-1.1,8.1-3.3,1.4-1.4,2.9-3.1,5-3.1,4.3,0,8-1.8,11.8-3.3,3,3,3.2,6.2.8,9.6-1,1.5-1.5,3.3-2.8,4.6Z"/>
        <path class="cls-190" d="M95.1,49.1c-2.7,3-6,4.4-10.1,4-2.1-.2-3.6.8-5.2,2.3-3.3,3.3-7,6.1-12.2,3.8-1.1-.5-2.2.4-3.2.9-3.9,2.1-7.9,4-12.3,4.9-1.2-1.9-3.9-3-3-6,4.2,0,8.1-2.6,10.9-4.7,4-3,7.6-3.4,11.9-3.3,3,0,4.9-.3,5.4-4.1.3-2.9,3.1-3.9,6.1-3.9,3.5,0,7,0,10.5,0,3,0,5.9-.7,7.3-4-.4-2.9.8-4,3.9-4.1,6.7-.2,13.5,1.2,20.1-.9.8,1.7,4,.2,4,3-.4,3.1-3.5,2.6-5.3,3.5-5.5,2.8-10.7,6.6-17.5,6.1-.8,0-1.8.2-2.3.8-2.5,3.4-5.7,2.4-9,1.6Z"/>
        <path class="cls-190" d="M33.1,64.1c1.3-.3,2.7-.7,4-1-.7,2.8-2.2,2.4-4,1Z"/>
        <path class="cls-113" d="M108.1,90c-.3-2.3-.7-4.7-1-7,5.1-.5,8.2-4.9,12.7-6.8,5.3-2.2,9.6-6.7,14.3-10.2,1.2-3.3,3.8-3.3,6.6-2.8,2.9,1.7,5.1.8,7.4-1.4,7.3-7,10.1-7.1,18.2-1.4,1.6,1.1,3,.9,4.7.5,2-.5,4.1-1.6,6.1.1,0,1.3,0,2.7,0,4-2.4,1.9-5.6,1.9-8.4,2.6-5.6,1.5-10.2,4.5-14.7,7.9-1.7,1.4-3.2,3.2-4.9,4.5-4.5,2.3-9.5,2.9-14.4,4.1-2.9,2.1-6,3.4-9.6,3.2-2.8-.1-4.8,2-7.3,2.7-2.7.7-5.5,1.1-8.3.7-.5-.1-1-.4-1.3-.7Z"/>
        <path class="cls-98" d="M177,61.1c-1.5.2-3,.2-4.3.7-3.4,1.3-6,1.8-8.9-1.9-1.8-2.2-6.2-3.2-9.9-1.3-2.7,1.5-4.5,3.9-6.7,5.9-2.2,2-4.3,2.6-6.1-.4-1.2-2.1.5-2.8,1.9-3.1,3.4-.7,6-2.6,8.7-4.6,7.7-3.5,15.9-5.8,23.7-9,7.2-3,14.5-6.5,21.1-10.9.8-.5,1.5-1.7,2.4-1.7,6.6,0,12.2-2.9,18.2-5.1,2.4-.9,4.7-3.7,7.9-2.5,0,2.1,2.6,2.2,3,4-4.3,2.9-8,6.5-11.4,10.3-1.3,1.5-3.1,0-4.7-.1-1.8,0-5.4-1.7-3.1,3.1,1.2,2.4.4,5.2-3.4,4.6-3.1-.5-6.3,2.5-9.4-.6-.9-.9-2.4.3-2.6,1.5-.7,3-2.9,3.6-5.5,4.2-4.4,1-7.1,4.7-10.8,6.9Z"/>
        <path class="cls-11" d="M210,58.1c.7.3,1.4.8,2.1,1,1.6.4,3.9-.9,4.6,1.5.8,2.4-1.6,2.2-2.9,3-1.3.8-.8,2.3-.9,3.6-1.2,4.3-4.1,6.7-8.5,7.2-2.6.3-5.2,1.1-7.8,1.7-5.2-.5-8.3,3.6-12.3,5.7-3.7,2-7.3,2.9-11.3,2.7-3.5-.3-6.5,0-7.7,4.3-.4,1.6-2.6,2.3-3.1,0-.7-3.2-3-5.9-2.9-9.4,2.7-3.7,7.5-3.9,11.1-6.1,3-1.9,6.7-2.6,9-5.7.7-.9,2-1.8,3.5-1.5,4.4.2,8.6-.4,11.6-4.1,2-2.5,5.8,0,7.9-2.7.5-.6,2-.3,2.2-1.6.3-1.6,1-3,2.6-3.2,2.5-.2.8,3,2.6,3.5Z"/>
        <path class="cls-107" d="M183,66.1c-.9.7-2.1,1.3-2.6,2.2-2.1,3.7-5.7,4.4-9.1,6.1-3.7,1.8-7.4,3.4-11.3,4.7-.6.6-1.2.7-2,.5-1.7-1.4-3.2-3.1-5-4.5,6.6-6.6,14.7-9.9,24-10,2,.5,4.1-.2,6,1Z"/>
        <path class="cls-196" d="M197,75.1c.5-.3,1.1-.9,1.6-.9,5.6-.7,11-1.8,14.4-7.1,1.4-.1,3.1.4,4-1.2,1.2-2,2.8-1.6,4.7-1.1,3.3.8,6.4.6,7.2-3.7.5-2.8,3.5-2.9,5.1-3.9,2.9-1.8,6.4-2.5,9.5-4.3,1.7-1,5.5,1.4,8.3,2.3-.3,2-.7,4.1-1.1,6.2-1.4-.4-.7-1.5-1.1-2-1.5,1.2-3.6,2.1-4.4,3.7-1.2,2.2-.7,6.3-4.7,2.1-.7-.8-1.5.4-2,.9-6.9,7-15.9,10.4-24.3,14.9-4.2,2.3-8.9,3.1-13.1,5.6-3.3,1.9-7.9,3.8-12.3,4.7-.4-.4-.7-.8-.8-1.3,0-3.6,1.2-6.6,4.7-7.8,3.5-1.2,2.1-5,4.1-6.9Z"/>
        <path class="cls-135" d="M225,27.1c-2.7,2.1-4.9,4-9.1,3.5-2.8-.3-4.5,4.7-8.7,4.7-11,0-18.9,7.6-27.8,12.5-2.6,1.5-5.4.9-8.1,2-6.3,2.6-12.8,4.8-19.3,7.2-.9-2.6-.5-5,1.6-6.7,1.8-1.4,1.9-3.8,3.4-5.3,1.1-.2,3,0,3.3-.5,2.5-5.1,7.5-4.6,11.6-5.1,5.5-.7,9.5-4.6,14.4-5.8,6.1-1.5,10.3-7.9,17.4-6.6,1.7.3,3.3-.5,4.3-2.1,3.1-5,7-6,12-2.8,1.1,2.3,4.2,2.5,5,5Z"/>
        <path class="cls-76" d="M273,77.8c.3.2.5.3.9.3,0,0,0,0,0,0,2.1,2.3,4.2,4.7,4.6,8,0,6.6-.2,5.8-6.9,7.7-7.6,2.1-15.4,4.7-20.6,11.4-2,2.5-4.4,3.3-7.4,3.2-2.4-.1-4.8,0-6.3,2.1-3.6,5-8.9,6-14.6,5.9-.8,0-1.7,0-2.5-.3-4.1-2.9-4.4-4.7-2.2-10,3.7-2,7.1-5.3,11.5-4.5,4.8.8,7.5-.5,9.6-4.8,1.4-2.9,5.5-2,8.2-3.8,3.9-2.6,8.1-4.7,11.4-8,1.1-1.1,5-1.4,1.3-4.2-.5-.4,1.2-1.4,2-1.3,5.5.9,5.5.9,6.3-5.7,0-.3.4-.5.7-.7,1.3,1.6,2.6,3.2,3.9,4.8Z"/>
        <path class="cls-137" d="M189,101c3.1.3,5.6-.9,8.3-2.5,3.9-2.3,8.1-4.6,13.2-3.7,2.4.4,4.9-1.6,7.5-.8-.5.7-.8,1.6-1.5,1.9-5,2.2-9.8,4.7-11.9,10.3-.1.3-.8.7-1.2.6-6.7-.9-9,5.3-13.4,8.1-.7,2.2-2.6,3.6-4.3,4.5-7.1,3.7-13.2,9.5-21.7,10.2-1.2,0-2.3-.2-3.5-.3-3.5-2.8-6.8-5.7-9.2-9.5,0-.7,0-1.4.6-2,6,.3,10.4-2.8,14.5-6.6,2.5-2.3,5-4.3,8.8-3.6,2.3.4,3.4-1.6,5-2.8,2.6-2.1,4.8-5.2,9-3.8Z"/>
        <path class="cls-174" d="M163,129c2.8-.7,6.9-.5,8.3-2.3,4.2-5.3,12.1-4.1,15.7-10,.5-.8,2-1.1,3-1.7,4.2.2,7.9-1.1,11.9-2.4,5.5-1.9,10.7-4.4,16.1-6.6,1,3-2.4,7.5,3,9,1,1.3.2,2.3-.9,2.7-3.5,1.3-6.5,3.6-10.4,4.5-4.4,1-8.5,3.3-12.2,6.1-1.9,1.4-3.9,2.7-6.3,2.7-5.1,0-9.1,2.5-12.1,6-2.6,3-5,3.4-8.2,1.8-2.9-2-5.7-4.1-7.6-7.1-.5-.8-1-1.7-.3-2.6Z"/>
        <path class="cls-63" d="M189,101c-3,.6-5.4,2.2-7.7,4.2-2.3,2-3.7,6.3-8.4,3.4-.8-.5-3.7,1.3-5.2,3-3,3.5-6.9,5.7-11.2,7.4-2,.7-3.1-.1-4.4-.9-4.1-.8-7.4-2.6-8.1-7.2,2.8-2.9,5.9-5.3,10.3-5.1,1.2,0,2.4-.5,3.1-1.3,5-5.8,12.5-7.1,18.7-10.9,2.8-1.7,6.8-1,9-4.5,1-1.6,3-.6,4,1.1v1c-.3,3.9,2.3,4.1,5.1,4,.9,0,2.2-.2,2.3,1.1.1,1.1-1.1,1.4-1.9,1.9-1.8,1.2-4.9-.2-5.6,3Z"/>
        <path class="cls-108" d="M55.1,181c0-1.3-.7-2-2-2,.1-2.4-2.6-1.5-3.6-3.1,2.1-1.7,5.5-1.9,6.6-4.9.6-4.8,3.9-6.9,8.1-7.1,4.5-.2,7.7-2.2,10.9-5.1,5.1-4.7,11.7-6.6,18.3-8.1,2.7-.6,5.8-.4,6.7-4,1.6-2,3.1-5.2,5.2-.4.6,1.4,2.1-.4,2.9.7,2.9,3.1,5.9,6.2,7.9,10-2.8,6.9-2.8,6.9-9.8,6.3-2.3-.2-3.8-.2-4.8,2.7-1,3-4,4.1-7.3,3.6-1.6-1.9-3.1-2.4-6.1-2.1-9,.9-15.2,6.9-22.6,10.6-3.4,1.7-6.6,3.5-10.6,2.9Z"/>
        <path class="cls-48" d="M297.9,128c-.5,2.4,2.6,3.6,2,6-1.4,1.4-4.1,6.5-4.3,8.2,0,.7,0,1.6-.7,1.7-5.4,1.1-7.3,7.8-13.2,8.1-2.3.1-3.6,2.2-5.1,3.8-5.4,5.5-11.7,9-19.5,9.6-3.2,1.2-6.2,2.5-8.7,5.2-2,2.1-5.6,2.2-8.3,3.8-.7.4-1.7.2-2.2-.6-.8-1.5-.1-2.8.9-4,4.4-1.1,4.9-5.1,6.4-8.4,5.3-4.9,11-9.3,16.1-14.5,2-2,5.4-3.2,7.8-3.7,5.6-1.1,8-5.5,11.7-8.5,2.3-.9,4.9-.8,6.9-2.4.4-.3,1.9,1.1,1.2-1.2-1-3.4,2.8-3.3,4.6-4.5,1.9-1.2,3.7-1,4.4,1.6Z"/>
        <path class="cls-115" d="M128.1,306.8c-4.6-.6-8.9-2-13-4,2.2-6.1,7.5-8.8,12.6-11.7,1.9-1.1,3.8-1.9,5.3-3.6,9.1-5.9,19.5-9,29.3-13.4,5.6.9,6.7,3,5,8.9-.9,1.6-1.5,3.5-3.2,4.6-6.7,3.9-12.6,8.8-17.9,14.4-3.2,3.4-8,4.6-12.3,2.8-.2,0-.4-.5-.4-.2-.4,4.1-3.8,1.1-5.3,2.3Z"/>
        <path class="cls-37" d="M257,164c8.4,0,14.4-4.8,19.8-10.4,1.2-1.3,2.3-2.3,3.9-2.6,3.8-.9,7.2-2.1,9-6.1.9-2.1,3.2-1.8,4.9-1.7.5-2-1.6-2.3-1.6-3.8,0-.6-.3-1.3.5-1.7,2.7-1.1,2.9-1,3.8-3.8,1.1-3.8,1.7.3,2.5,0,.6.9,1.1,1.9,1,3.1-1.1,2.2.2,4.2.7,6.2,1,4.2,0,9-3.8,10.6-5.9,2.6-9.7,7.5-14.2,11.6-2.7,2.4-5.1,4.5-8.9,4.5-1,0-2.1,0-1.5,2.2.6,2-2.5,1.9-4.1,2.7-3.9,2.1-8.3,3.2-12.1,5.5-2.7,1.6-5.1.6-7.5-.3-2.9-5.3-2.3-7.6,3.1-9.5,3.5-1.2,2.2-4.9,4.5-6.5Z"/>
        <path class="cls-83" d="M308.1,182c.5,6.8.5,13.5-1,20.1-2.9-3.5.2-7.6-1.1-11.3.2,1.1.2,2.1.3,3-.2,3.3-.8,5.4-5.2,6.1-3.7.6-6.6,4.6-9.9,7-3.5,2.4-7.1,4.9-10.1,8-2.3,2.3-5.5,3.7-9.1,3.1-2.5-1.4-5-2.8-7.1-4.9.7-3,2.7-5.4,5-6.8,4.2-2.7,7.4-6.5,11.2-9.5,1.4-2.5,3.2-4.6,5.8-5.9.9-.4,1.9-.9,2.4-1.7,3-4.3,7.2-7.1,11.3-10,2.9-2,4.3-4.3,4.3-7.8,0-.9.3-2,1.8-2.5,2,4.2-.5,8.9,1.3,13.1Z"/>
        <path class="cls-179" d="M125.9,169.1c1.1,1.3,2.1,2.6,3.2,3.9-1.8,3.9-5,6.5-7.9,9.5-.5.5-1.2,1.2-1.6,1-4.3-2-6.5,2.8-10.1,2.9-1.6,0-2.6,1.3-3.5,2.6-2.7,3.9-6.4,5.6-11.1,5.3-2.5-.1-4.9.4-7.2,1.6-3.8,0-7.8,2.3-11.2-1.2-1.1-3.7,1.2-5.8,3.7-7.6,1.5-1.2,3.4-2,4.1-3.9,1.2-1.9,2.8-3.6,4.8-4.7,12.1-4,24.1-8.1,36.8-9.3Z"/>
        <path class="cls-3" d="M308.1,182c-2.6-3.7,0-8.1-1.5-12.1-1.1,1.7-.4,3.6-.5,5.3-.1,1.2,0,2.5-1.2,3.1-6.4,3.4-11.3,8.7-16.7,13.3-2.3,1.9-5,3.4-6.1,6.3-2.4.4-3-1.2-3.2-3.1-2.3,3.1-5,4.7-9,3.4-1.6-.5-2.9.2-4.1,1-1.2.8-2.3,1.9-3.4,2.8-2.9,2.5-3.4,3.3-3.3,6-3.6-1.1-6.6-3-9.1-5.9-.6-1.8.7-2.5,2-2.8,7-1.7,11.8-7.1,17.7-10.6,6.2-3.7,11.8-8.2,18.2-11.5,3-1.5,4.4-5.6,7.8-7.1.9-.4,1.5-1.6,2.5-1.6,5.4,0,5.5-3.7,5.6-7.5.6-.9,1.2-1.6,2.4-1.1h0c1.2,2.2-.4,4.8,1,7,1.3,4.9,1.3,10,1.1,15Z"/>
        <path class="cls-33" d="M297.9,128c-3.2-3.7-5.3.7-7.6,1.4-2.6.8.7,2.9.3,4.5-3.4-1.7-6.2,2.7-9.6,1.1-1,.8-2.3,1.3-3.2.6-2-1.6-2.5-.2-4.1.9-3,2.2-6.5,3.8-8.8,7-.4.6-1.7.7-2.3.3-5.5-3.6-8.3,1.2-11.8,3.8-.8.6-1.2,1.6-2.3,1.7-3-1.9-2.7-4.8-2.4-7.7,0-.3.2-.8.4-.9,6.1-2.1,9.6-8.3,16-10,2.9-.8,4.8-3.1,6.7-5,3.1-3,6.8-4.6,10.8-5.8,7.2-2.1,8.5-4.1,7.3-11.2,0-1.3,0-2.6,1.6-3.1,3.4,2.4,3.9,6.3,5.1,9.8.8,4.4,3.7,8.1,4.1,12.6Z"/>
        <path class="cls-123" d="M207,169.1c-4.3-3.4-8.5-6.7-12.8-10.1-.4-.3-.6-.7-.7-1.2,1.8-3.3,6.8-2.5,8.1-6.4,8.7-1.9,15.4-8.4,23.7-11.2,1.7-.6,3.8-.5,3.7-3.5,0-1.6,2-2.5,3.9-2.3,2,.2,4,.2,5.8,1.2,1.8,3.8-1.1,7.3-.7,11-2.4,3.3-5.9,5.1-9.6,6.4-3,1-5.3,2.5-6.1,5.8-.3,1.3-.9,2.7-2.3,2.9-4.3.8-7.4,3.3-10.1,6.5-.7.8-1.8.7-2.8.8Z"/>
        <path class="cls-72" d="M99.9,297.3c-5.8-2.3-11.5-5-16.9-8.2-.4-1.5.7-1.6,1.7-1.8,3.3.8,5.9,0,7.4-3.2,1.4-3,5.2-1.9,7.1-4,2.3-2.5,4.4-2,7.4-.3,2.5,1.4,5.6-.7,7.5-2.6,4.7-4.8,11-7.2,16.3-11,.9-.3,1.9-.5,2.9-.4,2.2.1,5-.7,6,1.8.9,2.3-1.4,3.7-2.8,5.2-.4.4-.8.7-1.2.9-9.4,6.1-17.5,13.6-24.2,22.5-1.7,2.3-3.4,2.7-6,1.9-1.7-.5-3.3-1.7-5.2-.8Z"/>
        <path class="cls-68" d="M238.9,284.3c2.9,2.6,5.8,5.3,8.8,7.9,1.6,1.5,1.7,2-.5,3.4-11.6,7.6-24.5,11.5-37.8,14.6-4,.9-8,2.3-12.2,1.9-2,.8-4.2.6-6.2.3-1.6-.2-.9-1.2-.1-1.9,1.8-.9,3.9-.9,5.9-.9,9.2-.2,13.2-7.9,18.9-13.1,1.6-1.5,3.8-2.8,4.3-5.3.4-2.1,1.8-2.5,3.7-1.9,2.5.8,3.9,0,3.8-2.8-.2-3.4,2.3-2.3,4-2.5,0,0,0-.3,0-.5,0-.2-.1-.3-.2-.5,0-1.4-3.4-3.5.8-4,.4.3.9.7,1.3,1,2,1.3,4.1,2.4,5.7,4.3Z"/>
        <path class="cls-132" d="M192,311c-.4.2-1.6.6-.6.8,1.8.5,3.8.2,5.8.2-12,2.1-24.1,2.3-36.2.7-1.7-.7-3.6.1-5.3-.7-3.6.5-7.1-.6-10.6-1.3,0-1.6,1.2-1.7,2.3-2,5-.6,10,.2,14.9,1.1,4.2,1.4,8.6.2,12.8.7.5,0,1.4,0,1.4-.2,0-6.8,8-4,10-8.6,1-2.3,3.4-3.9,6.2-4.4,1.9-.3,2.5-2,2.4-3.8-.2-2.1.1-4,1.5-5.6,1.3-1.5,3-4.4,4-4.1,5.7,1.7,8.1-4,12.5-4.9,3.2,3.8,4.4,3.8,7.8.5,1.6-1.6,3-4.8,5.8-2.9,2.7,1.8,1.1,4.6,0,7-3.2.9-6.2,2-7.9,5.3-1,1.9-3.2,2.8-5.1,3.8-3.7,1.9-6.6,4.4-7.7,8.5-.3,1.2-.9,2.4-2.1,2.5-5.3.4-7.9,5-12,7.3Z"/>
        <path class="cls-110" d="M164,287c.7-1.3,1.3-2.7,2-4,3.7-6.8,9.6-10.2,16.9-12.1,4.1-1.1,6.8-5.7,11.7-5.8.6,0,1-.9,1-1.6,0-5.6,4.9-6.8,8.1-9.4,1.9,2.8,5.9,3.5,7.2,6.9,1.5,3.9,1.2,6.9-3.5,8.4-1.6.5-2.1,2.5-3.4,3.6-1.5,1.3-2.8,3.7-5.4,1.7-.8-.6-1.3-.1-1.5.4-2.3,5.1-8.9,5-11.8,9.5-.9,1.4-2.8.8-4.2,1.1-3.7,1.6-7.3,3.5-10.7,5.8-1.5,1-2.8,2.3-4.9,1.7-1.7-1.8-5.2-3-1.7-6.2Z"/>
        <path class="cls-25" d="M120.9,145.2c-4.9-3.8-9.7-7.5-14.6-11.3-1-.4-1.8-.9-1.6-2.2,4.1-.1,7-3.7,10.5-4.2,4.5-.6,8.2-1.7,11.5-4.7.8-.7,1.9-1.1,2.8-.7,4.4,2.2,8.3-.1,12.4-1.1.7-.1,1.5,0,2.2.1,2.7,1.9,4.6,4.3,5.4,7.5-4.2,5.6-10.6,8.8-15.4,13.7-.7.7-1.9,1.6-2.6.8-4.3-5-4.3.7-5.9,2.3-.3.3-.7.7-1.1.9-.7.1-1.3,0-1.8-.6-.5-.2,0-2.1-1.4-.9,0,0-.4.2-.4.2Z"/>
        <path class="cls-127" d="M304,161c2.5,3.3-.4,5.8-1.2,8.7,0,.3-.6.7-.6.7-4.3-3.6-7.2,1.3-8.2,2.9-2.9,4.3-7.8,5.3-11.1,8.5-.5.4-.8,1.2-1.3,1.4-7.2,2.1-12.1,7.8-18.2,11.5-4.4,2.7-8.9,5.2-13.5,7.7-1-.7-2-1.4-3-2,4.1-10.4,14-14.8,21.7-21.5.8.1,1.7,1.1,2.3.4,4.3-4.9,10.4-6.5,16-9.1,1.9-.9,2.6-2.6,2.8-4.9.3-3.6,9.8-8.7,13.1-7.2,1.3.6,2.2,1.6,1.1,3.1Z"/>
        <path class="cls-94" d="M156.7,205c3.2,3.2,6.7,6.2,9.1,10.1,0,2.7,2.3,3.8,4,5.4.9.8,1.7,1.7,1.4,3-.4,1.4-1.9,1.3-2.9,1.2-3.3-.3-6.1.4-8.1,3.3-5,2.6-10.4,4.3-14.6,8.4-1.2,1.2-2.9,1.5-4.6,1.6-3.9.1-7.4,1.7-10.9,3.1-1.7.7-3.4,1.4-5.2.1-.7-.8-.9-1.8-.9-2.9.3-4.6,3.8-6.8,7.2-8.9,3.6-2.3,7.8-3.5,10.1-7.7,1.2-2.3,4.7-1.4,6.5-3.3,3.2-2.7,4.4-7.1,8.3-9.2.5-.3,0-1.2-.3-1.8-.2-.7-.3-1.3,0-2,.3-.5.6-.6,1.1-.4Z"/>
        <path class="cls-52" d="M88.1,195c1.4-2.8,4-2,6.2-2,5.2.2,9.5-1.1,11.4-6.5.4-1.2,1.3-1.6,2.3-1.5,2.9.3,5.2-.3,6.2-3.4.2-.7,1.4-1.7,1.9-1.1,6.2,5.7,5.9-3,8.9-4.2,1.3-.5,2.7-2.2,4.1-3.3.6.7,1.3,1.5,1.9,2.2.5,1.2,1.2,2.2,2.4,2.7,1.6,1.1,2.7,2.5,3.4,4.2.4,2.2,2.5,4.4-.1,6.5-2,.8-3.9,0-5.9,0-3.5,0-6.4,1-9.7,2.3-6.2,2.3-10.2,9.1-17.9,8.1-3.1-.4-4.5,2.9-6.5,4.9-3.7,1.4-7.5.7-11.2.8-2.2,0-4.5.3-6.4-1.3-1.2-3.5,1.6-4.2,3.8-4.9,2-.7,4.2-.8,5.2-3.2Z"/>
        <path class="cls-164" d="M203.7,254.1c-.8,1.4-1.2,3.3-2.8,3.9-3.3,1.2-4.4,3.4-4,6.7.2,1.7-1,2.5-2.5,2.3-3.3-.5-5.5,1-7.6,3.5-1.5,1.8-4,1.8-6.2,2.4-6.1,1.7-10.4,5.9-14.7,10.2,1.8-5.5,1.1-6.9-4-8-1.3-2.5,1-3.2,2.3-4,3.2-2,5.9-4.6,8.4-7.4,6.1-2.9,11.6-6.4,15.9-11.7.4-.5,1.1-.8,1.6-1.2,1.1-.9,4.6,0,2.6-3.4-.3-.6,1-2,2.5-1.4,3.1,2.5,6.3,4.8,8.4,8.2Z"/>
        <path class="cls-86" d="M181,285c6.5-3.8,13.2-7.2,17.7-13.4,2,.7-.3,2.2.9,2.8,1.5.7,2-.7,2.8-1.4,2.3-2.1,3.4-5.2,7.2-6.1,3.3-.7-.5-4.2,1.3-5.9,2.2,1.7,4.5,3.4,6.7,5.1.9.2,1.6.7,1.9,1.7,2.3,5.8,2,6.4-6.6,11.2-2.8,2.6-5.6,5.1-8.4,7.7q-1.8-3.8-6.6,1.3c-2.8,2.9-5.9,5-10.1,4.4-2.1-.1-4.5.3-6.2-1.2-1.9-1.7-3.4-3.8-.7-6.2Z"/>
        <path class="cls-54" d="M207,169.1c2.1-1.9,3.2-4.8,6.1-5.8.1,0,.1-.4.2-.4,8.2-.5,8.9-12,17.6-12.1,1.8,0,3.8-2.7,6-3.6,2.4-5,4.7-6.3,10-6,.1,2.8-.6,5.8,2,8-1.9,6.1-7.3,8.7-12.2,11.7-3.4,3.1-6.4,6.8-11.6,7.1-.5,0-1.2.2-1.3.6-1.2,4.1-5.7,4.6-7.9,7.7-3-2.3-6-4.7-9-7Z"/>
        <path class="cls-130" d="M85.1,288c-.9,0-1.7.3-2.1,1.2-3.5-1.8-7-3.5-10.6-5.3-2.9-2.1-7.3-2.2-8.7-6.4,6.6-2.2,12.8-5.6,19.2-7.9,5.4-1.9,10.3-3.2,14.1-7.7,1.9-2.3,4.7-3.8,8-2.3,1.4,2.7,1.5,6.5,5.7,6.9,1.3,2.4-.7,3-2.1,3.5-3.2,1.1-6,2.9-9,4.2-2.1.9-3.9,2-4,4.6,0,1.2-.7,2.3-1.8,2.8-3.4,1.5-5.8,4.4-8.8,6.3Z"/>
        <path class="cls-19" d="M160,227c1.5-6.7,6.8-2.1,10.3-3.6.2-3.6-6.9-3.6-4.5-8.4,3.5,3.6,7.6,6.8,10.2,11.3,2.1,2.7,5.8,4.3,6.4,8.2-2.5,2.4-6.1,2.1-9,3.6-5.7,2.9-12,4.8-15.8,10.6-1.1,1.6-2.9,2.2-4.8,1.8-1.8-.4-3.3.2-4.8.7-1.4,0-2.5-.4-3.3-1.7,2.6-4.3,1.6-11.3,8.9-12.3,1.3-.2,2.1-1.2,2.1-2.4,0-3.5,2.1-5.8,4.5-8Z"/>
        <path class="cls-90" d="M306,194c-1.5-2.1,0-3.9,1.1-5.9,0,4.7,0,9.4,0,14-.5,10.7-3.6,20.8-6.9,30.9-1,3-2.3,2-4,1-6.3-3.7-12.5-7.4-18.3-11.9-.3-.7,0-1.6.6-1.5,4.5,1.2,6.4-2,8.6-4.8,1.2-1.5,2.9-2.7,4.9-3.3,2.4-.7,4.1-2,4.8-4.6.3-1.1.7-2.5,2-2.6,6.6-.6,6.3-5.6,6.8-10.1,0-.5.1-1,.5-1.4Z"/>
        <path class="cls-145" d="M125.9,169.1c-2.4,2-4.3,3.8-8.4,2.8-6-1.6-11.2,3.3-17,4.4-3.8.7-7.3,2.9-11.4,2.8-1.6,1-3.2,1.4-4.4-.4-.9-1.4-.6-3,.5-4.2,2.4-2.6,4.6-5.8,8.9-5.4,3.1-1.1,7.8-.5,6.6-6.2-.2-.9.6-1.4,1.6-1.4.2,0,.3,0,.5,0,5.7,2.3,10.3,1.1,13.4-4.5,3.6,3.8,7.2,7.5,9.7,12.1Z"/>
        <path class="cls-93" d="M124,146c.7-4,3.9-5.7,6.9-7.6.9,1.2-.8,3,1.2,4.2,4.3-5.4,11.3-7.9,15.3-13.8.2-.3,1.2,0,1.8,0,4.2,2.2,5.8,6.4,8.2,10,0,1-.4,1.9-.9,2.8-4.7,3.5-9.6,6.8-15.7,7.1-1.8,0-2.6,1-3.6,2.1-1.5,1.6-3.3,2.7-5.4,3.3-2.2-1.4-4.4-2.7-6-4.9-.4-1.3-2.6-1.5-1.9-3.4Z"/>
        <path class="cls-188" d="M257,164c.2,4.5-.3,7.7-6.3,8.5-3.1.4-1.7,4.8-.7,7.5.3,5-.7,6.6-5,7.4-1.2.2-2.2.8-3,1.6-1.9,1.9-3.8,4-6.3.7-.1-.2-1.2.4-1.8.6-2-.9-3.5-2.4-5-4-1.7-1.5-3-3.5-5.3-4.1-.8,0-1.5-.1-1.6-1.1-.4-1.9.9-2.7,2.2-2.2,3.4,1,4.6-1.2,6.5-3.2,2.3-2.5,3.7-6.6,8.3-5.6.3,1.2-1.6,2.6-.1,3.5,1,.6,2-.9,3-1.3,5.6-1.8,9.2-7.2,15.1-8.3Z"/>
        <path class="cls-1" d="M233.9,190.3c.4-.6.7-1.2,1.1-1.7.8-.9,1.7-1.9,3-1.3,2,.9-1.5,2.1.2,3.4,2.6-.8,3.5-5.1,5.8-4.7,5.3.8,4.7-3.4,6.1-5.9,7.2.7,12.4-4.9,19-6,1.4,1.7,1.4,3.3,0,5-5.1,3.9-8.9,9.3-14.7,12.6-1.5.8-5.8,2.7-4.6,6.9.4,1.5-2.6,0-2.9,1.7-4.3-3.3-8.7-6.6-13-10Z"/>
        <path class="cls-21" d="M269,179v-5c.7-1.5,4.8-.2,3.1-3.8-.1-.3,2.3-2.5,2.8-2.3,6.3,2.5,7.2-4.2,10.7-6.2,4-2.3,6.4-6.6,11.3-8.6,3.4-1.3,5.5-5.5,4-10-.7-2-1.8-4,0-6.1,2,7.6,4.9,14.9,5.2,22.9-.7.4-1.4.7-2.1,1.1-.1-.5,0-1.2-.3-1.4-4.1-2.8-6.8,1.6-10.4,2.1-1.5.2-3.1,1.8-2.3,4.6,1,4-3.2,4.7-5.5,6-4.3,2.5-9.9,2.5-12.9,7.4-.6.9-1.3,2.2-2.7,1.9-1.3-.3-.8-1.6-.9-2.5Z"/>
        <path class="cls-14" d="M99.9,297.3c2-2.8,4.2,0,6.3,0,1.5,0,2.6.5,3.7-1.2,6.2-9.4,14.7-16.4,23.7-22.8.4-.3,1-.2,1.4-.3-.1,5.1.1,10.2-2,15,0,1.4,0,2.6-1.8,3.1-6.9,1.8-11.3,7.2-16.2,11.8-5.3-1.1-10.3-3.2-15.2-5.5Z"/>
        <path class="cls-150" d="M156.1,205.1c0,.6,0,1.3,0,1.9-2,1.5-4.5,1.5-6.7,1.2-5.5-.6-8.8,2.3-11.3,6.4-1.7,2.9-3.9,3.8-6.9,3.7-4.8-.2-9.1,1-12.2,5.1-1.8,2.5-5.8,1.4-7.6,4.2-1.1.6-2.2.9-2.9-.6-.7-1.5-.6-3,.5-4.1,1.7-1.6,2.9-3.9,5-4.7,5.6-2.3,9.5-7.5,15.7-8.9,3-.7,1.6-4,2.7-5.9,3.7-2.1,6-6.8,11.1-6.2,2,.2,1.4-4.7,4.5-2.2,2.4,2,4.5,4.2,6,7-.8,2.1,1.7,1.8,2.1,3.1Z"/>
        <path class="cls-103" d="M239,170c-3.8,1.1-5.9,4.1-7.9,7.1-1.8,2.6-3.2,5.1-6.9,2.7-1.1-.7-1.7.5-2.2,1.4-2.1-1.5-4.4-2.8-6-5,0-.2.2-.3.2-.5-1.1-4.4-.3-6.4,4.8-2.6-1-5.5,2.2-6.8,5.9-6.9,4.6,0,5.8-4.6,9.2-6.1,7-2.4,7.8-2.2,10,2-1.5,3.4-1,8.5-7,8Z"/>
        <path class="cls-163" d="M166.9,152.1c4.5,4.6,8.2,9.8,12,15-3.6,1.3-5.9,4.3-8.4,6.9-1.5,1.6-3.6,3-5.1,1.2-2.6-3.2-3.7-.4-5.3.7-3-2-5.9-4-8.9-6-.9-.4-1.7-1-1.6-2.2,3.4-3.2,6.4-7,11-8.4,1.9-.6,2.8-1.9,3.7-3.6.7-1.3.3-3.5,2.6-3.7Z"/>
        <path class="cls-141" d="M166.9,152.1c-1.5,4.2-2.4,8.1-8.2,9.6-2.6.6-5.8,4.2-8.7,6.5-1.3.3-2.1-.5-2.8-1.3h0c-2.1-1.4-4.4-2.6-5.6-5.1,3.3-9.9,8.2-11.2,18.1-12.2-2-2.6-3-5.5-3.7-8.5.3-.7.5-1.3.8-2,4.2,2.1,5.6,6.5,8.3,9.9.6,1,1.2,2.1,1.9,3.1Z"/>
        <path class="cls-173" d="M164,287c-2.5,3,2.1,3.7,2,6,1.3,2.2-.7,2.9-1.9,3.8-3.8,2.9-7.5,6-10,10.1-1.8,3-4.8,1.6-7.1,2.4-1.9.7-4-.2-6,.6-4.5-.1-8.8-1.5-13-3.1,3.1-.9,5.8-2.3,9.4-2.1,5,.2,8.3-4.1,11.4-7.5,3.3-3.6,8.8-4.6,11-9.6.3-.7,2.8-.4,4.2-.5Z"/>
        <path class="cls-118" d="M306,194c-.2,2.8.5,5.6-.7,8.4-1,2.4-1,5.7-5.2,3.9-1.4-.6-2.1.5-2.2,1.9,0,3.8-2.8,4.9-5.8,5.8-2.8.8-5.2,2.6-6.2,5.2-1.3,3.5-2.9,4.5-6.1,2.3-.8-.6-1.6,0-2,.7-2.1-1.3-4.3-2.2-5.9-4.1,6.3-1.6,10.8-6.2,15.5-10.2,3.5-2.9,8.5-3.9,10.7-8.5.4-.8,2.2-1.6,3-1.4,4.2,1.6,3.6-2.2,4.9-4Z"/>
        <path class="cls-61" d="M160.1,175.9c.7-1.7.3-4.1,2.8-4.7,2.4-.5,1.8,1.7,2.5,2.8.9,1.3,2.2,1.2,3.4.1,1.3-1.2,3.2-2.3,3.7-3.8,1.1-3.6,3.4-3.9,6.5-3.3,3,3.1,5.9,6.2,7.9,10-.2.7-.4,1.4-.9,1.9-4.1.9-5.2,5.2-8.4,7.2-.7.7-1.6.9-2.6,1-5.4-3.2-10.3-7-14.9-11.2Z"/>
        <path class="cls-195" d="M195.3,245.9c-.4.3-1.1.4-1.2.8-2.7,6.3-12.8,14.7-21.1,17.4-2.1-2.4-1.3-5.2-1.2-8,.5-3,2-5.2,4.9-6.3,1.5-.6,2.5-1.6,3-3.1,1.1-3.4,3.7-4.9,7-5.4-1.3-2.2-6.2-2.3-3.7-6.6.5-.2.9,0,1.3.2,3.8,3.5,7.7,6.9,10.9,11Z"/>
        <path class="cls-16" d="M156,141c3.3,1.8,1.9,7,6.3,8.3,1.1.4-.7,1.5-1.8,1.6-2.8.2-5.5.3-8.3.8-6.1,1.2-6.9,6.9-10.2,10.4-.4.3-.7.3-1-.1-3-2.6-6.1-5.2-9.1-7.8,1-3,5.3-3.2,5.9-6.7,0-.2,1.2-.5,1.8-.4,6.8,1.5,11-3.9,16.4-6.1Z"/>
        <path class="cls-170" d="M258.9,208.2c0-1.1-.4-1.9-1.5-2.2-1.1-.3-1.8-1.1-1.5-2.2.2-1.1,1.3-.8,2.1-.7,3.5.4,4-3.7,6.8-4.5,1.2-.4,2.2-1.7,3.4-1.9,8.5-1.2,8.5-1.1,12.9-4.3-.4,2.3-2.4,4.8,1,5.7-5.7,5.1-11.4,10.1-17.1,15.2-2.1-1.5-4.9-2.2-6-5Z"/>
        <path class="cls-29" d="M108.2,146.9c-1.2-.5-3.7,3.8-4-1.4-.2-2.7-2,.7-3.1.5-4.1,3.6-11.5,3.1-16-1,0-1.3,0-2.7,0-4,3.5-3.2,6.8-6.5,10.5-9.4.5-.1.9,0,1.4,0,1,2.1,3,3.4,4,5.5,2.1,3.5,5.5,6,7.3,9.8Z"/>
        <path class="cls-182" d="M148,195c-.7.2-2.3,0-2,.5,1.2,2.5-1,2.7-2.1,2.9-2.9.5-6,0-7.2,4-.3,1.1-2.4.5-3.7.6-.8-.7-1-1.6-1.2-2.6-1-5.3,1.3-9.2,5.2-12.4.7-2-1.5-3.9-.2-5.9,4.1,3.9,7.7,8.4,11.1,12.9Z"/>
        <path class="cls-89" d="M64,278.1c2.8,1.9,5.6,3.8,8.4,5.7-4.8-.4-8.1-4.1-13.1-4.9,4.5,5.8,8.7,11.8,13.5,17.2,10.4,11.7,21.1,23,33.5,32.7,1.1.9,2.4,1.9,2.6,3.5-4.5-3.5-9-7-13.5-10.5-2.9-1.1-4.4-3.8-6.6-5.7-3.1-3.5-7.1-6.3-9.8-10.2-6.3-7.7-12.6-15.3-18.9-23-1.4-2.3-2.8-4.5-4.1-6.8-.6-1-.5-1.9.6-2.5,3.1.4,5.4,2.2,7.4,4.4Z"/>
        <path class="cls-69" d="M174.9,187.2c.4-.9,1.2-1.1,2.1-1.2,2.1.2,3.6,1.6,5.4,2.4,1.4.7,2.8,2.2,4.3.2,1.3-1.7,2.6-3.5,1.4-5.9-.8-1.5-2.7-2.6-2.1-4.8.3-.3.5-.6.8-1,3.7,4.7,8.6,8.3,11.3,13.8.3,1.6,2.7,2.3,2,4.4-3.6,1.1-7.5.6-11.1,1.9-4.8-3.2-9.7-6.1-14-10Z"/>
        <path class="cls-70" d="M188.9,197.2c3.1-3.6,7.2-2.3,11.1-2.1,1.2-.6,2,.3,2.5,1.1,3.3,4.8,8.1,8.3,11.3,13.2.6.9,2.2,1.5.9,2.8-.9.8-1.9,0-2.7-.4-3.2-1.7-6.3-3.7-9.3-5.8-1.7-1.2-3.4-2.8-5.7-2.8-2.7-2-5.3-4-8-6Z"/>
        <path class="cls-27" d="M377.9,272c-.3,0-.7,0-1,0,.4-7.6,1.1-15.2,1.2-22.9.2-14-1.3-27.9-4.8-41.4-.3-1.1-.3-2.3-.5-3.4.4-.4.8-.8,1.1-1.2,1-.2,2-.8,3,0h0c0,.2,0,.3,0,.5-1.7,5.4-1.8,10.3,4,13.5-3.7,2-4,3.8-1.5,6.9,1,1.2.3,2.7.5,4.1-.7,3.7-1.2,7.3,0,11,.7,8-1.5,16-1,24-1.7,2.8-.8,6-1,9Z"/>
        <path class="cls-34" d="M213,279c.8-1,1.5-2.3,2.6-2.9,3.4-1.9,5.7-4,3.1-8.1,5.4,2.2,9.2,6.4,13.2,10.4,0,.2,0,.4,0,.6-3.3,1.4,1.3,2.6,0,4-1.7.6-3.3.7-5,0,0-.5,0-1.2-.3-1.4-1.7-1.4,2.3-3.9-.5-4.5-2.2-.5-3.5,1.9-4.6,3.7-1.4,2.4-3.9,2.7-6.1,2.5-2.1-.2-2.6-2.3-2.5-4.3Z"/>
        <path class="cls-125" d="M144.4,121.9h-2.3c-3.7-2.9-5.9-7.1-8.8-10.8-1.9-3-4.3-5.7-5.9-9-.8-1.6-1.6-3.2-1-5.1,2-3,3.7-.8,5.6.2,1,.9,1.7,2.1,2.6,3,1.1,1,2.2,1.9,3.2,3,.5.4.9.9,1.3,1.3.9.9,1.7,1.8,2.5,2.8.8,1,1.9,1.6,2.7,2.6.2.4,0,.8-.2,1.1,1.7,3.4,5.2,4.8,8,7,0,.8,0,1.6-.1,2.3-2.6-.5-4.4-2.2-5.8-4.3-.3-.3-.7-.7-1-1-3.3-3.2-7.6-5.1-10.5-8.7-.5-.7-.7-1.5-1.3-2.1.5.8.8,1.7,1.4,2.5,3.7,4.1,6.5,8.8,9.2,13.4h0c.7.4.8,1,.5,1.8Z"/>
        <path class="cls-186" d="M146,116c2.5.7,3.7,3.2,5.8,4.3,2.8,3.1,5.8,6.1,9.2,8.5,1,.8,2.1,1.4,2.9,2.5,2,2.6,4.5,4.7,7.1,6.6,1.7,1.5,4.1,1.9,5.7,3.6,3.8,4.1,8.2,7.3,12.4,10.8,1.9,1.6,3.9,3.2,4.9,5.5,0,.3,0,.7.1,1-6.1-1.8-9.8-6.9-14.3-10.8-11.2-9.5-21.8-19.6-32.8-29.4-.9-.8-1.9-1.3-1-2.7Z"/>
        <path class="cls-75" d="M196.9,203.1c3.2-1.5,5.1,1.3,7,2.7,3.2,2.3,6.5,4.2,10.3,5.6-4.5-5.7-8.8-11.5-14.2-16.4-.6-1.4-2.2-2.3-1.9-4.2,7.1,6.4,13,13.9,19.2,21.1,1.4,1.6,2.7,3.3,4,4.9-.8.8-1.7.6-2.6.2-7.7-3.9-14.4-9.5-21.8-14Z"/>
        <path class="cls-169" d="M293.8,115.4c-1.6-3.1-3.2-6.2-4.9-9.4-3.1-3.9-5.7-8.2-8-12.6-.5-2.7-3.7-4.2-3.1-7.4-.4-3.1-3.6-4.8-4-7.9,5.3,2.6,6.3,8.5,9.4,12.8,4.1,5.8,6.5,12.4,9.6,18.7.9,1.8,1.4,3.7,1,5.7Z"/>
        <path class="cls-186" d="M144.4,121.9c-.2-.6-.3-1.2-.5-1.8,3.6,1,4.3,4.7,6.3,7.1,4.4,5.3,8.5,10.8,12.6,16.4,1.1,1.5,2.7,3,2.3,5.3-3.7-2.5-5.1-6.9-8.3-9.9-1.9-3.8-4.5-7.1-7.5-10.1-1.1-2.7-3.2-4.7-4.9-7Z"/>
        <path class="cls-186" d="M135.2,105.9c3.3,3,7.6,5,9.8,9.2-1.9.2-2.7-1.7-4.9-2.6.7,3.2,4.8,4.4,3.7,7.7-3.7-4.1-7-8.5-9.9-13.1-.3-1.1.2-1.4,1.2-1.2Z"/>
        <path class="cls-57" d="M97,132.1c-.2,0-.5-.1-.8-.1-.6-.3-1.4-.4-1.8-1-1.6-3.1-5-5.1-5-9,.2-.7.7-1.2,1.5-1.4,2.3,0,3.9,1.7,5.7,2.9,1.5,1.5,3.4,2.7,3.8,5.1-.1.2-.2.4-.3.6-2.4-.2-3.2-2.6-5.6-3.7.5,2.9,2.7,4.4,3.6,6.6-.3.5-.7.5-1.1,0Z"/>
        <path class="cls-64" d="M231.9,278.4c-4.4-3.5-8.8-6.9-13.2-10.4-.3-.6-.7-1.2-1-1.9,5.8,2.9,10.6,6.9,14.2,12.3Z"/>
        <path class="cls-156" d="M184.4,234.8c-.5,0-.9.1-1.4.2-.6,0-.7-.6-1-1-1.8-2.8-4.9-4.4-6.1-7.6,3.5,2.1,6.1,5.2,8.5,8.4Z"/>
        <path class="cls-64" d="M238.9,284.3c-1.8-1.5-4.6-1.8-5.7-4.3,3,0,4.6,1.8,5.7,4.3Z"/>
        <path class="cls-57" d="M105,132.1c.4.6.9,1.2,1.3,1.8-3.3,0-4.4-2.9-6.3-4.8,0,0,.3-.4.3-.4,2.9-.7,3.8,1.3,4.7,3.4Z"/>
        <path class="cls-176" d="M141,162.1c.3,0,.6,0,1,.1,1.7,1.6,3.5,3.1,5.2,4.7-2.9-.5-4.9-2.2-6.2-4.8Z"/>
        <path class="cls-59" d="M141.1,309.9c1.8-1.7,4-.6,6-.9.3.2.3.4.3.7,0,.2-.2.3-.3.3-.7.3-1.3.6-2,.9-1.6.6-2.7-.7-4-.9Z"/>
        <path class="cls-158" d="M97,132.1c.4,0,.7,0,1.1,0,.7,1.9,3.3,2.7,2.9,5.1-1.7-1.4-3.4-2.9-4-5.1Z"/>
        <path class="cls-100" d="M124,146c.6,1.1,1.3,2.3,1.9,3.4-2.1-.9-3.7-2.4-5.1-4.2,0,0,.2-.3.2-.3.7-.5,1.3-.5,1.9.1.3.3.7.7,1,1Z"/>
        <path class="cls-161" d="M156.1,205.1c-1.9-.2-4.1-.2-2.1-3.1.8,1.1,2.5,1.4,2.7,3-.2,0-.4,0-.6,0Z"/>
        <path class="cls-172" d="M223.6,182.2c2.9,0,4.3,1.8,5.3,4.1-2.1-.9-3.8-2.5-5.3-4.1Z"/>
        <path class="cls-21" d="M307,167c-1.9-2.1-.7-4.7-1-7.1,1.2,2.2,1,4.7,1,7.1Z"/>
        <path class="cls-120" d="M222.9,218.2c1.3.6,2.2,1.4,2,3.1-1.7.3-2.1-1.4-3.2-2.1,0-.7.7-.8,1.2-1Z"/>
        <path class="cls-176" d="M147.1,166.8c.9.4,1.9.9,2.8,1.3.4.6.8,1.2,1.2,1.8-2.2,0-3.4-1.2-4.1-3.1Z"/>
        <path class="cls-179" d="M133.4,177.9c-1.8,0-3.5,0-2.4-2.7,1.4.4,1.9,1.5,2.4,2.7Z"/>
        <path class="cls-58" d="M222.9,218.2c-.4.3-.8.7-1.2,1-1.5.1-2.3-1-3.1-2,.9,0,1.7-.2,2.6-.2.6.4,1.1.8,1.7,1.3Z"/>
        <path class="cls-65" d="M155.7,312.1c1.8,0,3.7-.7,5.3.7-1.8.2-3.6.2-5.3-.7Z"/>
        <path class="cls-131" d="M376.9,203c-1,.3-2,1.6-3,0,0-1,0-2,0-3,2.8-1.2,2.9-1.1,3,3Z"/>
        <path class="cls-193" d="M309.9,364.9c8.3-5.6,17.3-9.7,27.2-11.6,3.3.3,6.5-.3,9.7-.9,6.2-1.1,12.1.3,18,1.4,1,.2,2.3.6,2.1,2.2,1.9,1,4.1,1.5,4,4.6,0,3.3-4,1.9-4.7,4.3-.1.3-.8.6-1.2,0-1.5-3.2-4.4-1.6-6.6-1.7-7.9-.3-15.7,1.5-23.6,0-2.9-.5-6.3,2.7-9-.3-4.7-5.4-6.7-1.3-9.2,2.2-2.3,3.3-4.6,1-6.9,0Z"/>
        <path class="cls-7" d="M366.9,356c-6.9-3.8-14.3-3.3-21.7-2.5-2.8.3-5.5,1.1-8.2-.1,3.1-1,6.3-1.8,9.6-1.4,3.5-.6,7-.6,10.6,0,5,.1,9.9.8,14,4-1.4,0-2.9,0-4.3.1Z"/>
        <path class="cls-193" d="M383.9,366c-3.3-.9-7.3-1-7-6,3.1,1.1,6.3,2.1,7,6Z"/>
        <path class="cls-139" d="M383.9,366c-1.5-2.9-4.5-4.2-7-6,0,0,0,0,0,0-.3-.8,0-1.2.8-1,3.4,1.5,6,4.1,8.4,6.9-.7,0-1.5,0-2.2,0Z"/>
        <path class="cls-193" d="M377.8,359c-.3.3-.6.6-.8,1-1.8-1.2-5.1-.4-5-4,2.4,0,4.3,1.3,5.8,3Z"/>
        <path class="cls-35" d="M290,373c1-1,2.4-1.2,3.7-1.2.4,0,.8.1,1.3.2-.7.6-1.3,1.3-2,1.9-1.2.4-2.6,1.4-3-.9Z"/>
        <path class="cls-84" d="M290,373c.7,1.1,1.9.9,3,.9-.7,1.2-1.9,1-3,1-.8,0-1.6-.2-2-1,.7-.3,1.3-.6,2-.9Z"/>
        <path class="cls-187" d="M95.1,49.1c1-1.3,2.3-1,3.6-.7.8.2,2.2.5,2.3.4,2.9-6.7,9.9-1.9,14.3-5,4.1-2.9,9.2-4.5,13.8-6.6,3,.5,6.2-.6,7.9-2.4,3.5-3.8,7.5-3.8,11.8-3.6,2.3.1,4,0,4.7-3.1.3-1.5,1.3-5,4.7-1.8,2.1,2,5.3.3,6.7-1.2,4.8-5.4,12.3-4.9,17.8-8.5,1.3-.8,2.2,1.2,3.4,1.6-4.1,2.8-8.3,5.6-12.4,8.4-2.4,1.7-4.4,3.7-7.8,3.7-4.1,0-6.1,4-8.8,6.5-2.1,1.9-3.5,5.4-5.8,5.9-3.7.9-7.9,1.3-11.7-.6-.9-.4-1.8-.9-2.8-1-1.4,0-3.2-.6-3.6,1.6-.3,1.8.9,2.2,2.4,2.4,1.3.2.7,1.2.5,1.9.3,3.2-2.1,5.3-4.4,6-5.1,1.5-9.3,5.3-14.6,6-3.6,0-7.3,0-10.9,0-2.2,0-3.9.2-5.3,2.6-1.7,3-5.2.8-7.8,1.4.2-1.3-.1-3.1.6-3.7,3.7-3.1,2.6-6.6,1.4-10.2Z"/>
        <path class="cls-46" d="M117,59.1c3.2-2,6.2-5.2,9.6-5.6,4.6-.6,7-3.2,9.4-6.4,1.7,0,3.3,0,5,0,2.4.2,4.5-2.1,7-1,2.9-1.7,6-.8,9-1-.1,2.6.8,5.5-3.2,6.7-1,.3-1.2,3.5-1.8,5.3-2.2,2.9-4.9,4.8-8.7,5-1.4,0-2.2.6-2.3,2-2.6-.3-5,.2-7,2-6.2-3.2-11.2,1.6-16.8,2.6-8.2,1.5-16.1,4.5-24.4,5.7-1,.1-2.4.4-2.7,1-2.6,5.1-6.5,2.6-10,1.7,0-1.4,1-2.4,2-2.5,5.8-.7,10.4-5.1,16.3-5.5,5.9-.4,10.8-3.9,16.5-5,2.5-.5,2.2-3,2.2-5Z"/>
        <path class="cls-187" d="M148,46.1c-1.9.2-3.3,1.2-4.8,2.2-1.5,1.1-2,.2-2.2-1.2,1.9-3.4,4.4-2.3,7-1Z"/>
        <path class="cls-193" d="M357.2,351.9c-3.5,0-7,0-10.6,0,3.5-1,7-1.1,10.6,0Z"/>
        <path class="cls-39" d="M79,306c3.7,2.9,6.9,6.4,9.9,10-.3.4-.6.4-.9,0-2.3-2-4.7-4-7-6-1-1.3-2-2.7-3-4,.3,0,.7,0,1,0Z"/>
        <path class="cls-102" d="M88.1,316c.3,0,.6,0,.9,0,2.6,1.5,4.6,3.6,6.5,5.9-3.8-.3-5.3-3.5-7.4-5.9Z"/>
        <path class="cls-5" d="M85.1,145c5.3,1.5,10.5,3.3,16,1,1.2,6.3-4,5.1-7.2,5.9-7.2,1.8-14.3,3.8-19.6,9.4-2,2.1-4.2,4.1-7.3,3.6-5.3-.8-8.3,2.2-10.9,6.1-4.2-.8-8.4,1.4-12.8-1.3-1.3-.8-6,.6-8.6,1.8-2.9,1.4-5.7,1.3-8.6,1.4,6.8-7.1,15-11.3,24.9-12,2.3-.2,4.2-.6,5.5-2.7,2.7-4.3,6.6-6.8,11.6-5.2,5.7,1.8,8-3.3,11.9-5.1,1.8-.8,3.4-2,5.1-3Z"/>
        <path class="cls-26" d="M95.4,130.9c.3.3.5.7.8,1-3.6,3.1-5.9,7.9-11.1,9.1-1.5,0-3.6-2-4.3,1.2,0,.3-.9.8-1.2.6-6.2-2.7-10.2,1.7-14.7,4.6-.1,0-.3.2-.4.2-6.9-1.3-12.6,3.9-19.4,3.3,1.7-3.2,3.3-6.4,4-10,5.4,0,10.3-.9,14-5.4,1.5-1.7,3.4-2.7,6.1-2.3,2.4.4,5.3.5,6.9-2.4-.3-2.1.5-3.6,2.3-4.5,2.7-1.4,5.7.3,8.3-.5,3.5-1.1,5.2.9,7,3.3.5.6,1,1.3,1.8,1.7Z"/>
        <path class="cls-32" d="M51.1,125c.2-.3.4-.8.5-.8,4.7.6,5.9-2.5,6.5-6.2,1.6-3,4.4-3.9,7.4-4.4,5.6-1,10.9-2.8,16-5.3,2.9-1.4,6.6,1,9-2.3,2.1-.4,4.2-.6,6.2.4,1.8,1.7,1.8,4.6-.1,4.8-4.5.6-6,4.6-9.2,6.5-1.6,1.3-3.5,2-5.4,2.5-4.9,1.3-9.7,2.9-13.9,5.8-2.5-1.1-4.8-2.2-7.8-.4-2.7,1.5-6.1.3-9.2-.6Z"/>
        <path class="cls-105" d="M68.1,126c1.6-3,4-4.7,7.5-5.4,3.9-.8,7.6-2.4,11.5-3.6.4.2.7.6,1,.9.7,1.4,1.7,2.7,1.9,4.3,1.9,2.9,3.7,5.8,5.6,8.6-.3,0-.8,0-.9-.3-3.3-5.4-8.8-2.4-13.2-3.6-3.3-.9-3.9,2.1-5.2,4-4.1.6-7.4,0-8-5Z"/>
        <path class="cls-138" d="M68,299.4c-.3,1.9-1.4,2.6-3.1,2.5-1.4,0-2.7-.6-2.4-2.3.2-1.5,1.1-2.9,2.8-3,1.8,0,2.4,1.3,2.7,2.8Z"/>
        <path class="cls-4" d="M53.1,272c-1.3-3.6-5.4-4.7-7-8,1.6-3.1,1.7-8.5,7.7-5.6,1.1.5,1.6-.3,1.8-1.1.9-3.1,3.5-3.8,6.1-4.2,3.1-.4,5.2-2.2,6.8-4.5,1.6-2.2,2.4-5.1,6.2-4.2.8.2,1.3-.9,1.4-1.7.5-2.6,2.5-2.8,4.5-2.9,5.6-2,9.8-6.4,15.2-8.8,3-1.3,5.4-1.6,6.8,2.1,0,4.9-1.4,9.2-6.1,11.6-1.9.9-2.1,2.9-2.7,4.6-2.2,3.2-5.2,4.9-9.1,5.1-3.4.2-6,1.5-6.7,5.3-.6,2.8-2.9,4.3-5.5,4.2-4.7-.2-7.1,2.8-9.4,6.1-1.2,1.7-2.1,3.9-4.5,4.2-1.9-.7-4-.7-5.5-2.2Z"/>
        <path class="cls-171" d="M81.1,241c-1.7.2-4.2-.9-3.8,2.8.2,2.2-1.1,3.8-3.8,2.2-1.9-1.2-2.3-1.7-2.5,1.5-.1,1.9-3.1,5.9-6.8,6.4-3.7.5-7,.9-8.2,5.3-.2.7-1.7,4.1-3.2.1-1-2.6-3-1.2-3.4.5-.6,2-2.1,2.8-3.3,4.1-1.3-1-2.7-2-4-3-2.7-3-5.3-6-8-9,0-4.4,2.7-6.7,8.6-6.9,2.6-.1,5,0,6.4-2.6,5.9-1.3,11.3-4.5,17.5-5.1,1.2-.1,2.3-.6,3.2-1.3,4.2-3.2,8-2.1,11.7.9.7,1.4.7,2.8-.4,4Z"/>
        <path class="cls-106" d="M53.1,272c2.1-.3,3.6,1.1,5.3,2-.3.4-.7.4-1.1,0-1,.3-1.2,1.2-1.3,2.1-1-1.4-1.9-2.8-2.9-4.1Z"/>
        <path class="cls-177" d="M90.1,107c-1.7.9-1.9,7.7-5.7,1.6-.1-.2-1.2,0-1.7.4-5.3,3.4-11.4,4.7-17.4,6-2.6.5-5.1,1.4-7.2,3.1,0-.8.6-1.9.2-2.3-.8-.9-1.5.1-2,.7-1.6,1.7-3.7,2.2-5.8,2.5-2.5.4-4.4.5-6.6,3-2.4,2.9-7.2.7-10.9,1.1,0-2.4.2-5.5,3.6-3.2,3.3,2.2,3.8,0,4.2-2,.4-1.9,1.3-3.3,2.2-4.8,4.1-4,9.9-3.1,14.8-4.9,3.2-1.2,6.8-1.3,9.1-4.5.5-.6,1.3-1.4,2-1.4,6.7.4,11.8-4.6,18.2-5.3,1.6-.2,3.2-1,4.6-1.8,1.9-1.1,3.4-1.9,5.9-1.3,4,1,6.3-4,10.4-3.8.3,0,.7,0,1,0,1.7,1.9,1.4,4.1.9,6.3-4.4,7.7-12.5,8.6-19.9,10.7Z"/>
        <path class="cls-167" d="M85.1,183c0,2,0,3.5-2.7,4.3-2.9.8-5.4,3-5.3,6.7-9.3,7.8-20.6,8.7-32,9-.7-3,2.1-7.2-3.2-8.5-.8-.2-.8-1.4-.6-2.2.4-2.1,2.1-2.3,3.8-2.3,1.4-.1,2.9.5,4-1,7.1-1.4,14.2-2.9,20.8-5.9,4.3-1.9,8.3-1.9,12.5-1.3,1,.1,2,.4,2.6,1.2Z"/>
        <path class="cls-183" d="M85.1,183c-3.6-.2-7.7-1.6-10.6-.3-3.6,1.7-7.7,1.9-11,3.8-4.7,2.6-9.5,2.4-14.4,2.5,2-2,4.5-3.7,3.9-7.1,0-.2,1.3-.6,2.1-.9,8.9-2.9,16.9-7.6,24.6-13,1.5-1.1,3.1-.8,4.7-1,1.5-.1,3.5.2,4.3-.6,4.5-4.3,4.8-.7,5.4,2.6-2.4,1.6-5,2.8-6.9,5.2-.8,1.1-2.6,1.7-1.9,3.5.7,1.9,2.4,1.1,3.8,1.3-1,1.7-2.3,3-4,4Z"/>
        <path class="cls-129" d="M49.1,243c0,3.2-1.1,4.3-4.6,3.4-4.8-1.2-8.4,1-10.4,5.6-2.7-2.3-5.3-4.7-8-7-2-2.3-4-4.7-6-7,2.4-3.1,6.4-1.9,9.5-3.1,1-.4,2.7.3,3.3-.6,3.3-4.7,9.5-4.4,13.2-8.2,4.7-.8,9.5-.9,14.2,0,3.9,5.1,2,10.3-4.8,14.2-2,1.2-4.6,1-6.4,2.7Z"/>
        <path class="cls-152" d="M45.1,203c4.8-2.9,10.3-1.7,15.4-2.9,3.4-.8,7.5,1,9.4-4.2.5-1.3,4.7-1.3,7.3-1.9,3.4,2.8,7.4.1,11,1,1.4,2.9-.3,3.8-2.7,4-2.6.1-4.9.6-6.3,3-9.7,1.9-17.6,7.2-25,13.4-2.7,2.3-5.6,3.5-9.1,3.4-6.3-1.8-10.4,3.7-15.8,4.8-1.7.4-3.2,2-5,.5,2.6-3.6,6.6-5,10.5-6.2,0-1.3-.5-1.6-1.2-1.8-1.9-.4-4.4-.6-4.1-3.3.3-2.7,2.8-1.7,4.4-1.7,5,0,2.9-3.7,3.4-6,2.9.4,5.5-.5,8-2Z"/>
        <path class="cls-91" d="M24.1,224c4.1-1.8,8.6-2.7,12.3-5.3,2.8-2,5.7-2.5,8.7-.7,1.7,1.1,3.4-.2,5.2,0,3.1.2,5,1.2,4.3,4.8-1.3,1.7-3.2,1.4-4.9,1.6-1.9.2-3.4,1.1-4.5,2.6.1,2.7-.2,4.9-3.8,3.6-2.5-.9-3.3.2-4.5,2.3-1.4,2.5-3.9,3.6-7.2,3.4-3.1-.2-6.4,1.1-9.6,1.8-3.1-2.3-5.7-4.9-8-8,.7-1.7.2-4.3,3.7-3.1,3.3,1.1,5.9-.8,8.3-2.9Z"/>
        <path class="cls-199" d="M109.1,97v-7c6.9.7,12.5-4.8,19.4-4.1,2.2.2,3.8-1.8,5.6-2.9,3.6-1,7.5-.3,11.2-1.4,1.7-.5,3-1.1,3.8-2.6,1-1.7,2.3-3,4-4,3.4-.8,4.1,1.7,5,4,.7,1.6.2,3-.8,4.2-2,1.4-4.4,1.2-6.6,1.6-4.8,1.1-7.2,5.4-11,7.9-2.5,1.6-5.1,3.5-7.6,5.2-1.9.7-2.9-3.2-5-1-.5.3-1,.4-1.5.3-3.2-1.2-5.8-.8-8.5,1.7-3.1,2.8-7.3,1.4-7.9-2Z"/>
        <path class="cls-107" d="M149,79.1c.2,3-1.3,4.1-4.2,4-3.6,0-7.2,0-10.8,0,5-1.3,10-2.7,15-4Z"/>
        <path class="cls-175" d="M141,108c-1-1-2-2-3-3,2.1-2-.6-6.2,3.4-7.3,1.9-1.1,3.8-2.1,5.3-3.7,3.1-3.3,7.1-5,11.2-4.1,7,1.5,11.1-2.3,15.1-6.8,6.8.7,11.9-2.2,16.4-7,2.1-2.2,5.1-.6,7.6-1,0,3.8,1.1,8-5.1,8.7-1.3.1-3.1,3.6-2.9,6.3-2-.8-4.2-2.3-4.6,1.6-.1,1.1-1.2,1.9-2.5,2.1-8.6,1.1-15.9,5.3-22.6,10.5-1,.8-2.2,2.5-3,2.4-5-.8-8.2,2.9-12.2,4.4,0-.3,0-.7,0-1-.5-1.4-2.1-1.2-3-2Z"/>
        <path class="cls-42" d="M173,83.1c-.4,3.2-4.8,7.8-7.8,8-1.6.1-3.3.1-4.9,0-5.3-.3-10.1.5-13.8,4.9-1.3,1.5-3.2,2.9-5.4,3.1-1-1.1-.5-2.3.3-3.1,2.1-1.9,3-4.3,3.3-7,.3-2.6,1.7-3.6,4.4-3.5,2.8,0,5.6-.7,8-2.4-.2-1.5.3-2.8,1-4,.7,0,1.3,0,2,0,.5,3.6,4.7,6,3.2,10.3q3.8-6.3,9.8-6.3Z"/>
        <path class="cls-79" d="M277.8,86.1c1.1,2.5,3.9,4,4.1,7,.6,6.3.3,6.8-5.9,7.2-5,.4-8.3,3.8-12.1,6.3-1.6,1.1-3,2.8-5,3.2-6.1,1.3-9.8,6.1-13.9,10-2.5,2.4-4.9,4.6-8.1,6-2.7.9-5.3,2.2-7.4,4-2.9,2.4-5.9,4-9.9,3.7-2.2-.2-3.6,1.3-5.1,2.7-2,2-4.2,2.7-6.5.4-.7-4.4,3.1-6.3,5.4-8.7,3.7-3.9,8-7.3,9.5-12.9,5.1.3,10-.4,13-5.2,1.6-2.5,3.5-2.9,6.2-2.9,2.9.1,5.3.4,7.8-3.1,2.8-4,8-6.3,12.2-9.2,1.1-.8,2.2-.3,3.3,0,1,.4,2.3.7,2.8-.2,1.4-2.7,2.4-5.7,5.3-1.2,1.5-1.3,4.7-1.3,3.7-4.7-.3-.9-1.6-2.2.6-2.5Z"/>
        <path class="cls-166" d="M223,115c.8,9.2-8.5,11.5-12.2,17.6-.7,1.2-1.9,2.3-2.8,3.4-.1.2-.3.4-.4.6-.6.6-1.3,1.2-2.1,1.2-8.1.1-13.4,5.4-18.7,10.5-.3.3-.9.4-1.4.4-4.2-.7-6-5.1-9.7-6.6-1.5-1.4-3.1-2.8-4.6-4.2,5.3,3,6.8-3,10.2-4.5,1.2-.6,2-2.3,3.6-2.5,8.7-.7,15-6.4,22.4-9.7,3.6-1.6,7.8-3.2,11.9-4.2,1.2-.3,1.7-.9,1.8-2,.7,0,1.3,0,2,0Z"/>
        <path class="cls-128" d="M163.9,131.4c-1.2-.5-2.2-1.3-2.9-2.5.7-1,1.3,0,2,.1.3.8.6,1.6.9,2.3Z"/>
        <path class="cls-67" d="M246,162c-2.7-4-6.6-1.7-10-2,4.9-3,9.1-6.8,13-11,.8-2.7,8.8-9.8,10.2-8.7,5.3,4.2,7.3,2.9,7.6-3.4,4.8,1.7,6.8-1.1,8.2-5.1.3-.8,1.6,0,1.8.9.5,2.6,2.4,2.3,4.3,2.2-2.7,3.9-5.1,7-10.6,8.7-6.6,2-12.4,7.1-17.3,12.6-2,2.2-4.7,3.8-7,5.7Z"/>
        <path class="cls-149" d="M173,255v9c-1.5,4.6-5.9,6.3-9.3,8.9-.8.6-1.6,1-1.7,2.1-4.7,1.8-8.5,5.4-13.8,6.2-3.3.5-6.5,2.7-9.4,4.7-1.9,1.3-3.5,2.3-5.8,2.1,0-5.1-.7-10.3,2-15h0c3.1-2.5,7.2-3.3,10.2-6,.4-.3,1-.6,1.4-.5,6.9,2.6,9.6-3.1,13.4-6.6,1-1,2-2,3.4-1.4,1.2.5,1.2.7,1-.8-.4-2.6.9-4,3.4-2.7,1.9,1,3.5-.7,5.2,0Z"/>
        <path class="cls-40" d="M237,125c7.8-5.2,12.6-14.1,22.4-17,4-1.2,7.4-4.7,10.9-7.4,1.2-.9,2.3-1.9,3.9-1.6,4.9,1,7.6-.8,7.7-6,2.8,4.1,5.5,8.2,7.1,13-1.2.7-1,1.9-1,3-.2,1.3-1.1,2.4-2.2,2.4-5.1,0-8,3.6-11.3,6.5-4,3.5-8.8,5.3-13.7,6.9-5.2,1.7-10.5,3.2-14.3,7.5-.9,1-2.1,1.6-3.6,1.2-3.7-1.6-6.6-3.8-5.8-8.5Z"/>
        <path class="cls-56" d="M243,133c7.1-7.1,16.7-8.9,25.5-12.5,3.1-1.3,6-3.6,8.3-6.1,2.4-2.6,4.5-4.6,8.3-3.7.8.2,1.9-1,2.9-1.6,2.1,1.9-.3,5.4,2.9,7.3-2.1,0-3.8,0-4.8,2-.3.7-1.1,1.4-1.9,1.6-7.8,1.7-13.1,7.7-19.6,10.9-6.2,3-10.2,9.6-17.6,10.3-4,.9-7.3,2.9-10,6-.8-3.8,1-7.3,1-11-2.4-1.9-1.8-3.2.9-3.9,1.4-.3,2.9,0,4.1.9Z"/>
        <path class="cls-8" d="M243,133c-1.6,1.1-6.1-2.6-5,3-1.8,0-3.6-.3-5.4-.5-1.8-.2-4.8.5-1.9,3.5,1.3,1.3,0,2.2-.5,2.1-6.8-1-11.3,3.9-16.6,6.5-3.4,1.6-6.5,3.9-10.3,4.5-.3,0-.9,0-.9.1-1.2,4.3-5.7,3.6-8.3,5.7-2.2-1.1-3.9-2.7-5.4-4.6.2-.4.5-.8.9-1,1.3-.4,2.5-1.2,3-2.4,3-7,10.8-8.7,15.3-13.9h0c2.8,1.6,4.9,1.3,6.5-1.8.5-.9,1.8-2.1,2.6-2,6.8,1.1,11.1-3.4,16-6.6,1-.6,2.5-.4,3.8-.6,1.1,3.3,3.4,5.8,6,8Z"/>
        <path class="cls-87" d="M173,255c-1.9,1-3.6,4.2-6.1.7-.4-.5-1.3-.5-1.6.3-.4.9-.5,2,.5,2.7.7.5,2.2.5,1,2-1,1.3-1.9.9-2.7-.3-1.3-1.8-1.9-1.3-3.2.4-2.2,2.8-4.2,5.9-7.7,7.3-.4.2-1,.9-1.2.8-6.8-3.1-10.9,4.4-16.9,4.3.7-2,4.2-3.1,3.3-5-1.1-2.3-4.2-.6-6.3-1-.6-.1-1.3,0-2,0-2.6-.2-1.9-2-1.2-3.1,1.1-2,2.5-4.7,4.5-5.1,5.7-1.3,9.7-5.4,14.7-7.7.9-1.1.8-3.8,3.4-2.1,2.9,1.9,4.2.5,5.8-2,3.7-5.5,10-7.2,15.6-9.8,2.9-1.4,6.1-2.1,9.2-3.1.3.3.7.7,1,1-.1,4.4,5.7,3.5,6.2,7.5-4.2-.3-7.9.5-8.5,5.8-.2,1.3-1.4,2.4-2.8,2.5-2.9,0-3.9,2-4.8,4.2Z"/>
        <path class="cls-136" d="M148,251c-3.6,3.6-7.1,7.1-12.7,8.3-2.4.5-6.8,2.9-5.3,7.7-1.8,2.7-4.6,4.1-7.3,5.3-5.6,2.3-8.6,8.8-15.3,9.4-.8,0-1.7,1.3-2.2-.2-1.4-4.3-3.2-2.8-5.2-.5-.1.1-.2.4-.3.4-4.8.6-6.9,5-10.4,7.4-1.6,1.1-3.1.8-4.3-.8,1-2.8,3-4.7,5.7-5.9,2.2-1,5-1.6,3.5-5.2-.5-1.1.8-1.6,1.7-2,3.9-2,7.6-4.6,11.9-5.7,1.4-.4,2.5-.7,3.1-2.1,8.5-11.3,20.7-15.2,34-17,1,.3,2,.7,3,1Z"/>
        <path class="cls-41" d="M227,283c1.7-.5,3.3-.5,5,0,.8.7,1.7,1.5,2.7,2.4q-3.3.2-6.1-.7c-.8,2,2,4.7-1,6.1-2.1.9-4.2-.1-6.1-1-1.3,1.5.2,3.6-1.7,5-8.5,6.7-14.3,18.1-27.8,16.2,2.4-4.2,5.1-7.9,10.6-8,1.1,0,2.1-.3,2.2-1.5.5-6,5.2-8.3,9.7-10.7,2.1-1.1,3.7-2.3,4.7-4.8,1.4-3.4,4.7-3,7.7-3Z"/>
        <path class="cls-65" d="M147,310c0-.3,0-.7,0-1,5.2-.7,7.2-5.1,10.2-8.5,1.7-1.9,4.1-3.3,6.3-4.8,1.1-.7,2.5-1.1,2.5-2.7,4.1-2.6,8.3-5.1,12.3-7.9,1-.7,1.8-.5,2.7-.1-.4,5.6,0,6,7,6,.2,3.7-2.7,5.6-5.4,6.2-5,1.2-8.1,4.8-11.1,8-2.2,2.4-5.4,3.4-7.2,6.1-.2.3-.9,0-1.3-.3-5.4,0-10.6-1.6-16-1Z"/>
        <path class="cls-59" d="M163,311c3.2-.5.4-2.1.5-3.1,6.2.4,8-5.6,12-8.3,1.1-.7,1.6-2.5,3.3-2.6,4.4,0,6.8-2.8,9.1-6,3.9,1,6.8-1.7,10-3-.3.4-.5.9-.8,1.3-2.6,2.7,2.4,8.8-4.5,9.8-4.1.6-6,4.3-8.4,7.2-1.5,1.8-4.5.1-6.9,1.3,2.6,2.9,1.7,4.8-1.8,4.3-4.2-.6-8.5,1.3-12.5-.9Z"/>
        <path class="cls-97" d="M105,132.1c-1.6-1.1-3.1-2.2-4.7-3.4-1.4-1.5-2.9-3-4.3-4.5,2.4-2.9,6.1-2.7,9.3-3.2,2.3-.4,4.1-.5,4.9-3.1.5-1.8,2.2-2.3,4-2.2,3.8.3,6.8-1.4,9.5-3.6,3.4-2.7,6.8-2.9,10.5-1,3,3.4,6.3,6.7,8,11-4,1.4-7.7,4.3-12.3,1.2-1.3-.9-2.5.6-3.7,1.7-2.6,2.3-5.3,4.9-9.4,3.5-.7-.2-1.9-.3-2.3.2-2.6,2.7-5.1,5.2-9.4,3.6Z"/>
        <path class="cls-93" d="M123,145.1c-.6,0-1.3,0-1.9-.1-.4-.9-.9-1.8.8-1.9,1.8-.1,1.7.8,1.2,2Z"/>
        <path class="cls-194" d="M57.3,274c.4,0,.7,0,1.1,0,3-1.9,4.4-5.4,6.1-8.2,1.6-2.5,3-2.9,5.3-2.9,3.9,0,7.2-.4,7.4-5.7.1-3.1,3.6-4.2,5.8-4.1,4.2.1,7.1-1.8,10-4.2,9.3-4.2,19-7.3,28.3-11.4,1.3-.6,2.6-.6,3.7.4v3c2.7,2.6,1.9,5.3-1.1,6.2-7.7,2.3-12.1,9.3-18.9,12.8-5.8-.5-8.6,3.8-11.5,7.5-1.3,1.7-2.1,2.5-4.2,2.5-5.1.1-10.9-1.2-12.9,6.1-.4,1.5-3,.9-4.6.6-2.8-.5-5.5-.2-7.9,1.3-2.7-.5-4.6-2.5-6.7-4.1Z"/>
        <path class="cls-181" d="M105.1,260c.8-2.4,2-4.4,4.8-4.9.8-.1,2-.4,2.2-.9,1.7-5.5,6.8-6.1,11.1-7.7,3.2-1.2,2.6-3.2,1.9-5.5,3.2.5,5.3-2.4,8.3-2.6,9.3-.6,16-7,23.9-10.7.9-.4,1.8-.7,2.8-.7-1.4,3.5-3.9,6.6-3.3,10.7,0,.3-.9,1.1-1.4,1.1-8.7-1.1-5.9,8.4-10.3,11.2-3,2.2-6.2,3.3-10,3.1-2.8-.2-5.5.8-7.6,3-1.5,1.6-3.3,2.9-5.5,2.9-2.5,0-4,1.2-5,3.3-1.2,2.5-3.1,4.2-5.9,4.7q-6,0-6-7Z"/>
        <path class="cls-191" d="M125,238c-4.4,1.6-9.1,2.6-13.1,4.9-4.9,2.8-10.7,3-15.5,6-.8.5-2.3.1-3.4.1-.2-3.1.8-4.9,4.1-6.2,4-1.6,3.8-6.2,4.9-9.8-.5-4.5.5-5.8,4.1-4.2,3.7,1.6,4.7-1.9,7.1-2.8,1.6-.6,3.3-.5,4.9-.5,3,0,5.1-.8,5.6-4.2.3-1.7,1.3-3.2,3.2-3.2,6.3.1,12.5-1.1,18.8-.5,1.2.1,2.2.6,3.1,1.4-.8,1.8-2.4,2-4.1,2.1-1.4,0-3.2.5-3.3,1.6-.7,4.5-4.7,4.8-7.7,6.5-3.7,2.2-7.9,3.9-8.9,8.8Z"/>
        <path class="cls-161" d="M149,219c-6.6,0-13.2,0-19.8,0-2.7,0-4.6.5-4.2,3.7.5,3.6-1.3,4.6-4.6,4.3-2.8-.2-5.6,0-8.4,0-.3.4-.7.4-1,0,.4-.7.7-1.9,1.3-2.1,7.4-1.7,12.1-10.5,21.1-8,1.2.3,2.8-.3,2.8-1.5-.2-4,4.9-4.1,5.4-7.5.1-.9,1.3-.9,2.1-.9,4.1,0,8.3,0,12.4,0,1.9,1.9,4.2,3-.9,4.4-2.5.7-4.1,5-6.1,7.6Z"/>
        <path class="cls-50" d="M137,188c.7-.2,1.5-.9,2.2,0,.5.7.1,1.4-.5,1.6-5.8,1.4-6.1,5.7-5.7,10.5-3,4.6-6.7,7.9-12.6,8.5-4.4.4-8,4.1-12.6,4.2-4.4,0-8.3-.7-8.5-6.5,0-1.4-1.6-2-2.3-3.2-.2-5.2,3.8-5.6,7.3-5.9,3.9-.3,7.9.2,9.2-4.8,0-.3.4-.7.7-.7,6.9-1.2,12.9-7.7,20.8-3.8.6.3,1.3.1,2,.2Z"/>
        <path class="cls-81" d="M97.1,203c1.7.1,4.3-.4,3.9,2.4-.6,4.8,1.6,6.2,5.9,5.8.4,0,.8.5,1.2.8.2,1.5-.9,1.7-1.9,2.1-4.7,0-9.1.8-13,4-3.6,3-8.7,3.3-12.8,3.4-6.4.1-11.1,4-17,5-.8.1-1.5.6-2.4.6h-16c-.3-2.7.5-4.3,3.7-4,1.8.2,3.5,0,5.3,0,4.3-3.5,8.7-6.8,14.1-8.9,6.4-2.4,13.7-3.8,16.9-11.1h12Z"/>
        <path class="cls-22" d="M85.1,203c.7,3.2-2.1,4.4-3.5,6.5-1.7,2.6-3.9,2.1-6,3-4.5,1.8-9.9,2.5-13.3,5.8-2.6,2.4-5.5,3.1-8.2,4.7.2-2.9-1.2-4.1-4-4-1.7,0-3.6.7-5-1,4.1-.5,7.1-2.7,10.2-5.5,5.4-4.8,12.4-7.3,18.5-11.2,1.7-1.1,3.5.6,5.3.7,1.8,1.8,4,.7,6,1Z"/>
        <path class="cls-194" d="M69.7,279.7c-.2-.2-.7-.4-.8-.8-.2-.6.3-.8.8-.7.4,0,.9.4,1,.7.2.5-.2.8-.9.8Z"/>
        <path class="cls-197" d="M106.1,213c.8,0,1.6-.2,2-1,5.3-1.9,10.1-4.8,16-5.5,3.2-.4,6-4.2,9-6.5,0,1,0,2,0,3,0,1.8,0,3.7,0,5.5,0,1-.2,2.3-1.4,2.3-7.2-.3-10.7,6.6-16.8,8.4-2.2.7-2.7,4.2-5.4,5-.2,0-1.9,3.6,1.7,2.8h1c-1.6,3.5-3.3,6.2-7.3,2.1-1-1-1.9.2-2.7,3.9-2.4-1.9-8.6-.8-11.3,2.4-2.6,3.2-6.6,3.5-9.7,5.6,0-1.3,0-2.7,0-4-.5-.5-.8-1.3-.4-1.8,4.3-5.1,6.7-11.7,13-15.3,4.1-2.3,7.7-5.7,12.4-6.9Z"/>
        <path class="cls-154" d="M186,178c3.2,3.7,6.1,7.2,1.3,12-1.4,1.4-1.9,2.6-3.6.7-1.9-2-5.3-2-6.8-4.7,1.7-4.2,3.9-7.7,9-8Z"/>
        <path class="cls-23" d="M134,111c-3.8.1-7.3-.5-10.7,2.8-2.3,2.2-5.8,4.5-9.9,2.9-1.3-.5-2.8.6-2.5,1.5,1.8,4.9-3.4,2.5-4.3,4.4-3.9-2-6.8,2.7-10.6,1.5-1.5-1.1-3.1-2.3-4.6-3.4-2,0-3-1.6-4.3-2.8,0-.3,0-.6,0-1-.1-1.8,3.4-1.2,2.4-4.3-.7-2.1,2.3-1.8,3.8-1.7,3.1.2,4.3-1.1,3.9-4.1,1.3-1.3,2.9-1.3,4,0,3.1,3.6,4.9,1.2,6.3-1.5,1.2-2.5,3-4.1,5.7-4.2,4.8-.2,8.9-2.2,13.1-4.3.3,0,.7,0,1,0,0,3.8,2.7,6.4,4.5,9.4.9,1.5,2.5,2.6,2.5,4.6Z"/>
        <path class="cls-45" d="M157,83.1c-1.4,3.6-4.6,4.2-7.7,3.5-2.6-.6-3.9.5-3.6,2.3.6,4-1.3,6.3-4.1,8.3-.4.3-.4,1.2-.6,1.8-1.1.6-2.1,1.2-1,2.6,2.5,3-.6,2.8-2,3.4-.3-.3-.7-.7-1-1-.5-1.5-.9-3.1-3-3-1.3-.6-2-1.6-2-3-.2-.8-.8-2.1,0-2.2,4.3,0,5.4-4.9,9.2-5.7,3-.6,3.1-4.8,6.8-5.7,3-.7,5.9-1.4,9-1.5Z"/>
        <path class="cls-146" d="M135.2,105.9c-.4.4-.8.8-1.2,1.2-1.3-1.8-2.5-3.6-4.5-6.4,3.6,1.3,5.2,2.8,5.7,5.2Z"/>
        <path class="cls-63" d="M141,108c1.2.3,2.4-1.5,3.5-.2.3.3-.3,1.4-.5,2.2-1.4,0-2.4-.7-3-2Z"/>
        <path class="cls-175" d="M134,101c4-2,3.5.5,3,3-1-1-2-2-3-3Z"/>
        <path class="cls-192" d="M175.7,142.1c4.2.2,5.5,5.1,9.3,5.9,1.8,1.3,4.4,1.9,4.1,5,0,0-.4.3-.4.3-4.8-3.1-8.8-7.2-13-11.2Z"/>
        <path class="cls-62" d="M87.1,118c2.1,0,3.2,1.3,4.3,2.8-.5.5-1,1-1.5,1.5-1.3-1.2-2.8-2.2-2.8-4.3Z"/>
        <path class="cls-78" d="M126,97c-1.9,3.4-5.2,4.6-8.8,5-3.9.4-7.3.3-9.2,5.2-1.7,4.4-4.3,4.3-7.3.8-1-1.2-2.4-.8-3.7-.9h-7c4.3-1.1,7.3-4.9,12.4-4.7,2.1,0,3.4-4.6,6.6-5.3,2.2,3.6,5.4,2.8,7.6.7,3.4-3.2,5.7-3.8,9.4-.7Z"/>
        <path class="cls-109" d="M106.1,213c-5.1,4.2-11.5,6.7-16,11.6-3.4,3.7-6,8.3-9,12.4-1.4,0-3,.2-4.1-1.1-.7-.8-2.1-1.3-2.6-.7-4.1,4.3-10.2,2.8-14.8,5.5-3.2,1.8-6.8,2-10.4,2.3-1.1-.3-2.6.6-3.6-1.4,8.7-1.3,16.2-3.7,15.6-14.6,1.7-3.5,5.8-2,8.1-3.8,4.9-3.9,10.9-2.8,16.4-3.9,3-.6,6.4-1.1,8.1-2.9,3.7-3.9,8-3.3,12.4-3.3Z"/>
        <path class="cls-96" d="M189.1,153c-1.4-1.7-2.7-3.3-4.1-5,2.2-3.7,6.4-4.9,9.2-8,3.7-4.1,9.3-2.3,13.8-4-.9,1.9-3.1,3-3.2,5.5,0,.5-.9,1.3-1.2,1.3-7.3-1.1-7.6,5.9-10.4,9.5-1.8,2.3-2.8.4-4.1.7Z"/>
      </g>
    </g>
  </g>
</svg>