<?xml version="1.0" encoding="UTF-8"?>
<svg xmlns="http://www.w3.org/2000/svg" version="1.1" viewBox="0 0 248.2 213.8">
  <defs>
    <style>
      .cls-1 {
        fill: #fff;
      }
    </style>
  </defs>
  <!-- Generator: Adobe Illustrator 28.7.4, SVG Export Plug-In . SVG Version: 1.2.0 Build 166)  -->
  <g>
    <g id="Calque_1">
      <g id="Calque_1-2" data-name="Calque_1">
        <g>
          <path class="cls-1" d="M8.6,186.1c.7.4,1.4.7,2.1,1.1,17.6,10.2,36.8,15.2,57,16.7h.5c0,.1.5,0,.5,0,2,0,4,0,6,0h8c1.7,0,3.4,0,5,0h.5c0,0,.5,0,.5,0,6.8-.2,13.5-1.4,20.2-2.7,67.5-13.4,108.1-73.7,111.5-132.1.2-.3.2-.6,0-.9,0-2.8.5-5.7.2-8.5-.4-3.9,1.1-6.3,4.2-8.7,6.8-5.1,12.6-11.4,17.7-18.2.6-.8,1.9-1.6.6-3.3-7.8,2.5-15.5,6.3-24.8,5.7,9.7-6.8,16.3-14.8,19.2-25.5-7.5,4.1-15.5,6.4-23.1,9.5-2.5,1-6.2,2.2-8.4,0-8-7.9-17.7-11.9-28.5-14.1-4-.5-7.9-.6-11.9-.1-.7,0-1.4,0-2,0-.3-.1-.6,0-.9.1-3.9,1.1-8,1.6-11.6,3.2-16.9,7.4-27.1,20.3-30.2,38.5-.7,5.3-.7,10.6,0,15.8.5,2.7-.6,3.4-3.2,3.2-10.3-.6-20.3-2.4-30.2-5.5-26.3-8.2-48.7-22.6-66.8-43.5-2.7-3.1-3.5-2.4-5,.8-9.6,20.5-3.9,45.5,13.6,60.2,1,.9,2.6,1.3,2.9,2.8-1.1,1.6-2.6,1.3-3.8.9-3.9-1.2-7.6-2.7-11.5-3.9-1.7-.5-3.4-2.8-5.3-1.1-1.8,1.7-.8,4.1-.4,6.1,3.9,21.8,16.9,35.3,37.9,42.1-6.6,1.8-13.2,4.2-20.7.3,2.3,8.1,6.1,14,11,19.3,9.3,10.1,21.2,15,35.6,16.2-2.2,1.6-3.5,2.6-4.8,3.5-15.9,10.7-33.2,17-52.4,18H1.8c2.8,1.4,4.8,2.5,6.8,3.5h0s0,0,0,0Z"/>
          <path class="cls-1" d="M120.8,47.2c3.2-18.3,13.3-31.1,30.2-38.5,3.6-1.6,7.7-2.2,11.6-3.2.4.5.7.4.9-.1.7,0,1.4,0,2,0,4,1.6,7.9,1.4,11.9.1,10.8,2.1,20.5,6.1,28.5,14.1,2.2,2.2,5.9,1,8.4,0,7.6-3.2,15.6-5.5,23.1-9.5-3,10.8-9.5,18.7-19.2,25.5,9.3.5,17-3.2,24.8-5.7,1.2,1.6,0,2.5-.6,3.3-5.1,6.8-10.9,13.1-17.7,18.2-3.1,2.4-4.6,4.8-4.2,8.7.3,2.8,0,5.6-.2,8.5-.1,0-.3.2-.3.2,0,.2.2.5.3.7-3.5,58.3-44,118.6-111.5,132.1-6.7,1.3-13.4,2.5-20.2,2.7-.3-.5-.6-.5-.9,0-1.7,0-3.4,0-5,0-2.7-1.5-5.3-1.5-8,0-2,0-4,0-6,0-.3-.5-.6-.5-.9,0-20.2-1.5-39.4-6.5-57-16.7-.4-1-1.2-1.1-2.1-1.1h0c.4-2.7,2.6-1.8,4.3-2.1,1.6-.3,3.8,1,4.7-1.4,19.2-1,36.5-7.4,52.4-18,1.3-.9,2.6-1.9,4.8-3.5-14.5-1.2-26.3-6.2-35.6-16.2-4.9-5.3-8.7-11.2-11-19.3,7.6,3.8,14.1,1.4,20.7-.3-21-6.8-34-20.3-37.9-42.1-.4-2.1-1.4-4.5.4-6.1,1.9-1.8,3.6.5,5.3,1.1,3.9,1.2,7.6,2.7,11.5,3.9,1.2.4,2.7.7,3.8-.9-.3-1.5-1.9-1.9-2.9-2.8C11.6,63.5,6,38.4,15.6,18c1.5-3.2,2.3-3.9,5-.8,18,20.9,40.4,35.3,66.8,43.5,9.8,3.1,19.9,4.9,30.2,5.5,2.7.2,3.7-.6,3.2-3.2,1.3-5.3,1.3-10.6,0-15.8h0Z"/>
          <path class="cls-1" d="M17.6,182.6c-1,2.4-3.1,1.2-4.7,1.4-1.7.3-3.8-.6-4.3,2.1-2-1-4-2.1-6.8-3.5h15.8Z"/>
          <path class="cls-1" d="M120.8,47.2c1.3,5.3,1.3,10.6,0,15.8-.7-5.3-.7-10.6,0-15.8Z"/>
          <path class="cls-1" d="M177.5,5.4c-4,1.2-8,1.5-11.9-.1,4-.5,7.9-.4,11.9.1Z"/>
          <path class="cls-1" d="M74.6,204c2.7-1.5,5.3-1.5,8,0h-8Z"/>
          <path class="cls-1" d="M8.6,186.1c.9,0,1.7.1,2.1,1.1-.7-.4-1.4-.7-2.1-1.1Z"/>
          <path class="cls-1" d="M163.5,5.3c-.2.5-.5.6-.9.1.3-.2.6-.2.9-.1Z"/>
          <path class="cls-1" d="M220.3,69.1c0-.2-.2-.4-.3-.7,0,0,.2-.2.3-.2.1.3.1.6,0,.9h0Z"/>
          <path class="cls-1" d="M67.7,203.9c.3-.2.6-.2.9,0h-.5s-.5,0-.5,0h0Z"/>
          <path class="cls-1" d="M87.6,203.9c.3-.5.6-.5.9,0h-.5c0,.1-.5,0-.5,0h0Z"/>
        </g>
      </g>
    </g>
  </g>
</svg>