<?xml version="1.0" encoding="UTF-8"?>
<svg xmlns="http://www.w3.org/2000/svg" version="1.1" viewBox="0 0 1502.36 992.13">
  <defs>
    <style>
      .cls-1 {
        fill: #fff;
      }
    </style>
  </defs>
  <!-- Generator: Adobe Illustrator 28.7.4, SVG Export Plug-In . SVG Version: 1.2.0 Build 166)  -->
  <g>
    <g id="Calque_1">
      <g>
        <path class="cls-1" d="M637.01,577.12c.69.36,1.37.71,2.06,1.07,17.64,10.23,36.84,15.15,57.02,16.69l.45.13.47-.08c2.02.02,4.03.05,6.05.07,2.65,0,5.3,0,7.95,0,1.68-.02,3.37-.05,5.05-.07l.46.08.45-.13c6.83-.22,13.52-1.37,20.21-2.7,67.55-13.44,108.11-73.73,111.55-132.06.16-.3.18-.6.05-.92.08-2.82.46-5.68.17-8.46-.41-3.9,1.06-6.31,4.17-8.66,6.79-5.14,12.56-11.38,17.67-18.21.62-.83,1.86-1.64.64-3.28-7.82,2.49-15.52,6.29-24.78,5.74,9.7-6.76,16.26-14.75,19.23-25.5-7.49,4.1-15.5,6.39-23.13,9.55-2.47,1.02-6.16,2.25-8.36.07-7.99-7.93-17.74-11.94-28.51-14.06-3.96-.5-7.93-.65-11.91-.12-.68.02-1.37.05-2.05.07-.32-.13-.62-.09-.91.1-3.88,1.06-7.97,1.65-11.62,3.25-16.89,7.42-27.07,20.27-30.22,38.55-.69,5.28-.72,10.56.02,15.84.5,2.67-.58,3.39-3.24,3.22-10.29-.65-20.35-2.44-30.19-5.52-26.35-8.24-48.73-22.61-66.75-43.55-2.67-3.1-3.52-2.44-5.03.77-9.58,20.46-3.93,45.55,13.64,60.18,1.03.86,2.59,1.32,2.91,2.79-1.14,1.65-2.63,1.28-3.79.93-3.87-1.19-7.64-2.68-11.5-3.9-1.73-.55-3.41-2.84-5.31-1.07-1.81,1.68-.77,4.07-.4,6.14,3.93,21.76,16.93,35.31,37.88,42.08-6.62,1.75-13.16,4.18-20.74.34,2.3,8.1,6.12,14.02,10.98,19.3,9.31,10.08,21.16,14.99,35.63,16.24-2.21,1.63-3.49,2.64-4.85,3.55-15.86,10.68-33.21,17.02-52.4,18.04h-15.78c2.75,1.43,4.77,2.48,6.78,3.54,0,0-.04-.03-.04-.03Z"/>
        <path class="cls-1" d="M749.2,438.25c3.15-18.28,13.33-31.13,30.22-38.55,3.64-1.6,7.73-2.2,11.62-3.25.36.46.66.39.91-.1.68-.02,1.37-.05,2.05-.07,3.95,1.59,7.92,1.35,11.91.12,10.76,2.12,20.51,6.13,28.51,14.06,2.2,2.18,5.89.95,8.36-.07,7.62-3.16,15.64-5.45,23.13-9.55-2.98,10.75-9.53,18.74-19.23,25.5,9.26.55,16.96-3.25,24.78-5.74,1.22,1.64-.02,2.45-.64,3.28-5.11,6.83-10.88,13.07-17.67,18.21-3.11,2.35-4.58,4.76-4.17,8.66.29,2.78-.09,5.64-.17,8.46-.12.08-.35.19-.34.24.06.23.19.45.29.68-3.45,58.33-44,118.62-111.55,132.06-6.69,1.33-13.38,2.48-20.21,2.7-.33-.49-.64-.46-.92.05-1.68.02-3.37.05-5.05.07-2.65-1.46-5.3-1.46-7.95,0-2.02-.02-4.03-.05-6.05-.07-.28-.51-.59-.53-.92-.05-20.18-1.54-39.38-6.46-57.02-16.69-.38-.95-1.19-1.06-2.06-1.07,0,0,.04.03.04.03.43-2.73,2.6-1.84,4.27-2.09,1.63-.26,3.76.98,4.73-1.44,19.19-1.02,36.54-7.36,52.4-18.04,1.35-.91,2.64-1.93,4.85-3.55-14.47-1.25-26.32-6.16-35.63-16.24-4.87-5.27-8.68-11.2-10.98-19.3,7.58,3.84,14.12,1.41,20.74-.34-20.95-6.77-33.96-20.32-37.88-42.08-.37-2.07-1.41-4.45.4-6.14,1.9-1.77,3.58.52,5.31,1.07,3.86,1.22,7.63,2.71,11.5,3.9,1.17.36,2.66.73,3.79-.93-.32-1.47-1.88-1.94-2.91-2.79-17.57-14.63-23.22-39.72-13.64-60.18,1.5-3.21,2.35-3.88,5.03-.77,18.03,20.94,40.4,35.31,66.75,43.55,9.84,3.08,19.9,4.87,30.19,5.52,2.66.17,3.74-.56,3.24-3.22,1.26-5.28,1.28-10.56-.02-15.84Z"/>
        <path class="cls-1" d="M646.05,573.62c-.98,2.42-3.1,1.19-4.73,1.44-1.66.26-3.84-.64-4.27,2.09-2.02-1.05-4.04-2.1-6.78-3.54h15.78Z"/>
        <path class="cls-1" d="M749.2,438.25c1.3,5.28,1.27,10.56.02,15.84-.74-5.28-.71-10.56-.02-15.84Z"/>
        <path class="cls-1" d="M805.9,396.4c-3.98,1.23-7.95,1.47-11.91-.12,3.97-.53,7.94-.38,11.91.12Z"/>
        <path class="cls-1" d="M703.07,595c2.65-1.46,5.3-1.46,7.95,0-2.65,0-5.3,0-7.95,0Z"/>
        <path class="cls-1" d="M637.01,577.12c.87,0,1.68.11,2.06,1.07-.69-.36-1.37-.71-2.06-1.07Z"/>
        <path class="cls-1" d="M791.94,396.35c-.25.49-.55.56-.91.1.28-.2.58-.23.91-.1Z"/>
        <path class="cls-1" d="M848.75,460.12c-.1-.22-.23-.44-.29-.68-.01-.05.22-.16.34-.24.13.31.11.62-.05.92Z"/>
        <path class="cls-1" d="M696.1,594.95c.33-.24.64-.23.92.02,0,0-.46.04-.46.04l-.45-.07Z"/>
        <path class="cls-1" d="M716.07,594.93c.28-.51.59-.54.92-.05l-.45.13-.46-.08Z"/>
      </g>
    </g>
  </g>
</svg>